<svg width="330" height="290" viewBox="0 0 330 290" fill="none" xmlns="http://www.w3.org/2000/svg">
<path d="M127.099 176.879L127.099 245.388" stroke="#53688A"/>
<path d="M110.193 244.057L170.26 246.407V286.14L110.193 283.785V244.057Z" fill="#5B5B5B"/>
<path d="M110.192 244.057L85.847 246.407V286.14L110.192 283.785V244.057Z" fill="#7B3FE4"/>
<path d="M145.415 249.243V289.078L86.347 285.668V246.927L145.415 249.243Z" fill="#FFFD73" stroke="black"/>
<path d="M169.76 285.706L146.415 289.032V249.216L169.76 246.958V285.706Z" fill="#FFD66C" stroke="black"/>
<g style="mix-blend-mode:overlay">
<path d="M145.915 248.763L85.847 246.407V252.269L145.915 254.619L170.26 252.269V246.407L145.915 248.763Z" fill="black"/>
</g>
<path d="M109.402 239.31L83.5477 241.808V250.528L109.402 248.03V239.31Z" fill="#7B3FE4"/>
<path d="M109.402 239.31L171.732 241.808V250.528L109.402 248.03V239.31Z" fill="#5B5B5B"/>
<path d="M145.878 253.025L83.5477 250.528V241.808L145.878 244.305V253.025Z" fill="#6D2AFB"/>
<path d="M145.878 253.025L171.732 250.528V241.808L145.878 244.305V253.025Z" fill="#7B3FE4"/>
<path d="M83.5477 241.808L109.402 239.31L140.567 240.559L171.732 241.808L145.878 244.305L83.5477 241.808Z" fill="#53688A"/>
<path d="M213.3 12.3534C198.551 14.1603 14.0575 77.2437 3.05176e-05 87.2116C0.103775 85.9209 0.328552 84.2729 0.328552 84.2729C1.90535 82.3173 3.709 80.6202 5.68872 79.2294C10.4437 75.6155 203.946 1.88914 219.213 0.0425028C230.781 -1.36729 256.527 32.6465 248.729 49.6832C244.735 35.8235 222.689 11.2216 213.3 12.3534Z" fill="#410EAD"/>
<path d="M102.382 170.973C102.011 173.648 102.334 176.392 103.309 178.855C104.285 181.318 105.87 183.391 107.864 184.812C109.857 186.232 112.17 186.936 114.509 186.834C116.848 186.733 119.109 185.83 121.005 184.241C122.901 182.652 124.347 180.447 125.161 177.906C125.975 175.365 126.119 172.601 125.576 169.965C125.033 167.329 123.827 164.939 122.11 163.096C120.393 161.254 118.243 160.042 115.932 159.615C114.398 159.328 112.83 159.395 111.318 159.81C109.806 160.226 108.38 160.984 107.121 162.039C105.862 163.094 104.796 164.426 103.983 165.959C103.169 167.492 102.625 169.196 102.382 170.973Z" fill="#273141"/>
<path d="M42.2934 78.5146L50.3336 140.685L47.325 141.916L38.6796 77.8395C38.6796 77.8395 41.7574 74.5037 42.2934 78.5146Z" fill="#410EAD"/>
<path d="M87.7684 123.449C87.7684 123.449 31.2619 134.43 28.3225 140.724C25.383 147.019 48.3972 157.404 58.08 157.741C65.567 157.999 164.073 143.067 164.073 143.067L87.7684 123.449Z" fill="#410EAD"/>
<path d="M88.8922 124.78C88.8922 124.78 32.3857 135.74 29.4462 142.035C26.5068 148.329 49.5209 158.714 59.2038 159.051C66.708 159.329 165.197 144.378 165.197 144.378L88.8922 124.78Z" fill="#7B3FE4"/>
<path d="M114.846 176.585L122.437 145.112L118.805 143.961L113.843 164.512L98.7135 129.466L95.3417 131.392L114.846 176.585Z" fill="#410EAD"/>
<path d="M302.088 151.387C302.745 146.602 322.716 109.987 317.391 106.135C312.065 102.282 288.532 117.651 280.613 122.774C272.694 127.897 271.466 134.132 271.466 134.132L302.088 151.387Z" fill="#5009CC"/>
<path d="M183.162 87.8868C183.162 87.8868 166.303 90.2696 157.381 87.8868C148.459 85.5041 149.635 86.3579 145.572 84.6304C141.508 82.9029 126.119 78.475 126.119 78.475L130.044 100.575L170.228 104.03L182.332 98.6688L183.162 87.8868Z" fill="#273141"/>
<path d="M245.876 52.3837C245.876 52.3837 143.41 81.9696 135.906 81.771C128.402 81.5725 32.4203 105.817 18.5012 105.46C4.58206 105.102 -1.31409 90.7064 0.259369 84.4119C1.83284 78.1175 199.969 10.5664 215.237 8.69991C227.893 7.17097 259.968 44.0242 245.876 52.3837Z" fill="#9769F8"/>
<path d="M136.719 81.7511C129.232 81.5525 33.2503 105.579 19.3139 105.579C15.4694 105.701 11.6812 104.497 8.43796 102.124C35.3944 85.0472 85.0018 56.7719 123.249 51.9666C156.863 47.7372 191.341 55.0444 213.386 61.5969C182.747 70.2741 141.387 81.7511 136.719 81.7511Z" fill="#CAACFF"/>
<path d="M301.881 146.145C301.881 146.145 313.172 157.82 259.432 164.016C205.692 170.211 65.0654 133.457 65.0654 133.457L70.2527 61.3586L124.269 71.6243C124.269 71.6243 139.831 95.4519 161.911 96.7624C183.992 98.0729 183.127 87.847 183.127 87.847C183.127 87.847 292.803 110.721 301.881 146.145Z" fill="#410EAD"/>
<path d="M65.1519 133.496L68.0222 93.0689C75.1979 99.0258 86.8346 106.69 105.094 113.521C137.583 125.673 258.775 129.406 290.815 130.26C296.503 135.204 300.515 140.525 301.967 146.145C301.967 146.145 313.258 157.82 259.518 164.015C205.778 170.211 65.1519 133.496 65.1519 133.496Z" fill="#D3BAFF"/>
<path d="M262.423 155.637C285.247 153.035 296.59 149.501 302.071 146.264C303.057 147.495 310.129 158.178 259.518 164.135C205.761 170.39 65.1519 133.576 65.1519 133.576L65.7225 125.634C83.0134 129.883 211.242 161.454 262.423 155.637Z" fill="#A37FE2"/>
<path d="M115.088 171.82L141.457 175.652L141.111 179.961L114.742 175.453L115.088 171.82Z" fill="#410EAD"/>
<path d="M52.0799 95.9287C50.6275 115.785 56.4026 132.623 64.9962 133.457C73.5897 134.291 81.7337 118.823 83.2035 98.927C84.6732 79.031 78.8807 62.2326 70.2872 61.3987C61.6936 60.5647 53.5497 76.0327 52.0799 95.9287Z" fill="#7544CC"/>
<path d="M54.6219 96.5444C53.5498 111.238 57.4749 123.628 63.3883 124.204C69.3018 124.78 74.9905 113.323 76.0798 98.6095C77.1691 83.896 73.2268 71.5255 67.296 70.9496C61.3653 70.3738 55.7285 81.7515 54.6219 96.5444Z" fill="#BCA1F5"/>
<path d="M179.22 45.3347L191.41 111.019L187.727 112.171L174.914 46.0098C174.447 43.905 178.528 42.5349 179.22 45.3347Z" fill="#410EAD"/>
<path d="M206.781 36.3401L219.127 102.601L215.444 103.752L202.632 37.591C202.217 34.0963 206.505 34.0963 206.781 36.3401Z" fill="#410EAD"/>
<path d="M63.7168 95.9482C63.7168 95.9482 90.0335 134.052 86.5753 142.154C82.8578 150.871 74.8175 146.125 72.051 135.244C69.7859 126.388 62.7312 97.0999 62.7312 97.0999L63.7168 95.9482Z" fill="#EBE1FF"/>
<path d="M62.4891 93.1288C62.4891 93.1288 55.7803 56.3748 48.8467 53.4163C41.913 50.4577 37.988 56.4741 39.9938 62.0736C41.9995 67.6731 60.8638 94.6776 60.8638 94.6776L62.4891 93.1288Z" fill="#EBE1FF"/>
<path d="M271.467 134.132C271.467 134.132 302.175 130.419 323.841 133.139C345.506 135.86 302.919 149.362 302.919 149.362L270.187 143.306L271.467 134.132Z" fill="#7B3FE4"/>
<path d="M323.84 133.139C330.151 133.914 330.947 135.542 329.183 137.508C326.711 136.833 322.267 136.495 313.794 137.111C299.175 138.287 284.619 140.342 270.187 143.266L271.466 134.132C271.466 134.132 302.175 130.419 323.84 133.139Z" fill="#410EAD"/>
<path d="M251.426 119.816C251.426 119.816 224.02 122.893 208.355 124.561C195.041 125.991 123.457 124.144 123.457 124.144L123.111 118.068C123.111 118.068 201.594 88.959 218.003 87.5095C228.568 86.5564 244.078 94.1614 250.614 103.752C254.245 109.093 253.57 116.798 251.426 119.816Z" fill="#410EAD"/>
<path d="M251.426 119.816C251.426 119.816 222.879 131.452 207.231 133.12C191.583 134.787 123.457 124.145 123.457 124.145C123.457 124.145 201.594 99.0263 218.003 97.6363C234.412 96.2464 257.461 111.317 251.426 119.816Z" fill="#7B3FE4"/>
<g style="mix-blend-mode:screen" opacity="0.42">
<path d="M91.3474 88.006C89.7048 94.4394 96.1889 102.303 105.837 105.559C115.485 108.815 124.65 106.234 126.292 99.8006C127.935 93.3672 121.451 85.524 111.803 82.2477C102.154 78.9714 92.9901 81.5725 91.3474 88.006Z" fill="#52FF4E"/>
</g>
<path d="M42.276 104.745L38.6104 77.7799C38.6104 76.0326 41.4807 75.3177 42.0686 77.0055L45.5267 103.375C44.9326 103.342 44.3388 103.446 43.7804 103.681C43.2221 103.916 42.7105 104.278 42.276 104.745Z" fill="#410EAD"/>
<g style="mix-blend-mode:screen" opacity="0.42">
<path d="M259.83 115.507C259.83 115.507 281.668 122.178 283.397 127.421C285.126 132.663 260.815 128.175 257.564 124.422C254.314 120.669 259.83 115.507 259.83 115.507Z" fill="#52FF4E"/>
</g>
<path d="M128.972 143.782C130.079 146.284 131.289 149.084 132.638 152.221C136.407 161.037 140.09 169.874 142.321 175.294L153.871 148.588C154.459 148.032 157.658 148.945 157.572 149.839C148.77 170.132 144.309 180.119 144.465 180.516L142.736 181.45C134.54 163.579 128.817 151.546 124.84 143.326C124.909 142.73 128.661 143.107 128.972 143.782Z" fill="#410EAD"/>
<path d="M109.729 173.151C109.627 174.531 109.87 175.916 110.425 177.124C110.981 178.332 111.824 179.305 112.842 179.915C113.86 180.526 115.005 180.744 116.127 180.543C117.249 180.341 118.294 179.728 119.125 178.786C119.956 177.843 120.534 176.614 120.781 175.262C121.029 173.91 120.935 172.498 120.512 171.212C120.089 169.927 119.357 168.828 118.413 168.061C117.468 167.295 116.356 166.896 115.222 166.918C113.817 166.856 112.45 167.478 111.42 168.646C110.39 169.815 109.782 171.435 109.729 173.151Z" fill="#53688A"/>
<path d="M58.6335 97.9938C59.0312 101.707 61.1752 104.447 63.4403 104.129C65.7054 103.812 67.227 100.555 66.8985 96.862C66.57 93.1688 64.3567 90.4087 62.0916 90.7264C59.8265 91.0441 58.2531 94.3005 58.6335 97.9938Z" fill="#410EAD"/>
<path d="M131.031 175.955C130.66 178.631 130.983 181.374 131.959 183.837C132.935 186.301 134.519 188.374 136.513 189.794C138.507 191.214 140.819 191.918 143.159 191.817C145.498 191.715 147.758 190.813 149.654 189.223C151.55 187.634 152.997 185.43 153.81 182.888C154.624 180.347 154.769 177.584 154.225 174.948C153.682 172.312 152.476 169.921 150.76 168.079C149.043 166.236 146.893 165.025 144.581 164.598C143.047 164.311 141.479 164.377 139.967 164.793C138.455 165.209 137.029 165.966 135.77 167.021C134.512 168.076 133.445 169.408 132.632 170.941C131.819 172.475 131.275 174.178 131.031 175.955Z" fill="#273141"/>
<path d="M138.378 178.133C138.276 179.513 138.519 180.899 139.075 182.106C139.631 183.314 140.473 184.287 141.491 184.898C142.509 185.508 143.655 185.727 144.776 185.525C145.898 185.324 146.944 184.711 147.775 183.768C148.606 182.825 149.183 181.597 149.431 180.245C149.678 178.892 149.584 177.48 149.161 176.195C148.739 174.909 148.007 173.81 147.062 173.044C146.117 172.277 145.005 171.878 143.871 171.901C142.467 171.839 141.099 172.46 140.07 173.629C139.04 174.797 138.431 176.417 138.378 178.133Z" fill="#53688A"/>
<path d="M63.0944 104.586H63.4921C64.1358 104.474 64.745 104.18 65.2644 103.729C65.7838 103.278 66.1968 102.685 66.4661 102.005C67.1308 100.406 67.3846 98.6228 67.1978 96.8643C67.011 95.1057 66.3912 93.4449 65.4113 92.0766C65.0194 91.476 64.4966 91.0047 63.8955 90.7101C63.2944 90.4155 62.6363 90.3081 61.9875 90.3987C61.3387 90.4893 60.7222 90.7747 60.2002 91.2262C59.6781 91.6777 59.2688 92.2792 59.0137 92.9701C58.3026 94.5597 58.0426 96.365 58.2702 98.1328C58.4064 99.8995 59.0097 101.576 59.9993 102.938C60.3811 103.453 60.8554 103.867 61.3896 104.151C61.9239 104.436 62.5055 104.584 63.0944 104.586ZM62.3854 91.1434C62.8611 91.1732 63.3262 91.3156 63.7517 91.5617C64.1772 91.8077 64.5539 92.152 64.8581 92.573C65.7543 93.802 66.3138 95.3082 66.4661 96.9017C66.6609 98.4912 66.4319 100.111 65.809 101.548C65.59 102.103 65.2567 102.588 64.838 102.961C64.4193 103.335 63.9276 103.586 63.4056 103.693C62.8764 103.738 62.3458 103.633 61.8603 103.387C61.3748 103.141 60.9494 102.762 60.6218 102.283C59.7116 101.064 59.1502 99.5523 59.0137 97.9541C58.8189 96.3646 59.048 94.7447 59.6708 93.3077C59.8898 92.7532 60.2231 92.2682 60.6418 91.8946C61.0605 91.5209 61.5521 91.2699 62.0742 91.1632L62.3854 91.1434Z" fill="#7B3FE4"/>
<path d="M101.925 271.437C101.921 271.711 101.955 271.925 102.027 272.079C102.099 272.233 102.2 272.351 102.331 272.434C102.471 272.516 102.623 272.571 102.788 272.598C102.961 272.617 103.143 272.628 103.333 272.631L103.319 273.524C103.211 273.539 103.104 273.549 102.996 273.555C102.905 273.562 102.793 273.564 102.661 273.562C102.537 273.568 102.413 273.57 102.289 273.568C102.165 273.566 102.037 273.56 101.904 273.55C101.78 273.54 101.673 273.526 101.582 273.509C101.302 273.456 101.085 273.336 100.93 273.148C100.776 272.953 100.66 272.742 100.581 272.515C100.51 272.28 100.464 272.054 100.442 271.837C100.429 271.619 100.424 271.45 100.426 271.329L100.483 267.659L99.5652 267.644L99.5808 266.654L100.499 266.669L100.529 264.737L102.03 264.76L102 266.692L103.116 266.71L103.101 267.7L101.984 267.682L101.925 271.437ZM106.329 271.518C106.323 271.881 106.393 272.151 106.539 272.331C106.693 272.51 106.915 272.618 107.204 272.655L107.189 273.633C107.155 273.641 107.102 273.644 107.027 273.643C106.746 273.638 106.474 273.598 106.21 273.521C105.955 273.445 105.729 273.324 105.534 273.16C105.338 272.996 105.184 272.78 105.072 272.513C104.969 272.246 104.92 271.919 104.926 271.533C104.932 271.162 105.016 270.846 105.177 270.582C105.347 270.311 105.557 270.093 105.808 269.928C106.067 269.755 106.358 269.631 106.682 269.555C107.006 269.472 107.333 269.433 107.664 269.438L108.21 269.447L108.196 270.304L107.923 270.3C107.758 270.297 107.584 270.31 107.402 270.34C107.219 270.369 107.049 270.427 106.89 270.513C106.732 270.599 106.597 270.726 106.487 270.893C106.386 271.052 106.333 271.261 106.329 271.518ZM110.186 271.615C110.185 271.68 110.187 271.776 110.194 271.905C110.2 272.026 110.215 272.151 110.237 272.28C110.26 272.409 110.296 272.527 110.344 272.632C110.4 272.738 110.473 272.807 110.564 272.841L110.154 273.644C110.046 273.642 109.931 273.616 109.808 273.566C109.693 273.516 109.578 273.445 109.464 273.355C109.358 273.265 109.264 273.167 109.183 273.061C109.11 272.947 109.054 272.825 109.015 272.696C108.929 272.896 108.761 273.074 108.51 273.231C108.268 273.38 107.997 273.489 107.699 273.557L107.713 272.639C107.912 272.602 108.091 272.528 108.25 272.418C108.417 272.3 108.56 272.161 108.678 272.002L108.718 269.455C108.725 269.06 108.709 268.746 108.671 268.512C108.634 268.278 108.566 268.108 108.468 268.001C108.371 267.887 108.248 267.817 108.099 267.79C107.959 267.756 107.79 267.737 107.592 267.734C107.41 267.731 107.236 267.753 107.069 267.798C106.912 267.836 106.762 267.886 106.62 267.948C106.487 268.003 106.366 268.065 106.258 268.136C106.157 268.207 106.082 268.262 106.032 268.301L105.487 267.459C105.571 267.372 105.696 267.286 105.863 267.2C106.03 267.106 106.221 267.024 106.437 266.955C106.654 266.886 106.886 266.833 107.135 266.797C107.392 266.753 107.657 266.733 107.93 266.737C108.178 266.741 108.417 266.769 108.648 266.821C108.887 266.873 109.101 266.957 109.289 267.072C109.486 267.188 109.653 267.344 109.791 267.539C109.937 267.727 110.036 267.962 110.09 268.244C110.143 268.527 110.176 268.813 110.188 269.103C110.208 269.385 110.216 269.667 110.212 269.949L110.187 271.519L110.186 271.615ZM113.97 266.88L114.12 267.571L114.024 273.692L112.523 273.669L112.63 266.859L113.97 266.88ZM117.829 267.69C117.967 267.829 118.072 267.991 118.143 268.178C118.223 268.356 118.278 268.546 118.308 268.748C118.346 268.942 118.368 269.139 118.373 269.34C118.378 269.542 118.379 269.739 118.376 269.932L118.32 273.518L118.316 273.76L116.803 273.736L116.861 270.029C116.865 269.756 116.857 269.494 116.836 269.244C116.815 268.994 116.761 268.772 116.673 268.577C116.585 268.383 116.463 268.232 116.308 268.125C116.153 268.009 115.934 267.95 115.653 267.945C115.537 267.943 115.38 267.961 115.181 267.998C114.99 268.027 114.803 268.081 114.62 268.158L114.635 267.229C114.86 267.12 115.101 267.027 115.359 266.95C115.624 266.874 115.881 266.838 116.13 266.842C116.502 266.847 116.815 266.929 117.069 267.086C117.323 267.235 117.576 267.436 117.829 267.69ZM126.478 274.011C125.428 273.995 124.66 273.558 124.173 272.702C123.696 271.845 123.468 270.671 123.492 269.179C123.507 268.173 123.623 267.313 123.837 266.6C124.052 265.886 124.386 265.343 124.841 264.971C125.304 264.599 125.9 264.418 126.628 264.43C127.687 264.446 128.459 264.879 128.946 265.728C129.441 266.568 129.676 267.751 129.652 269.276C129.637 270.273 129.517 271.128 129.294 271.842C129.08 272.548 128.741 273.091 128.278 273.471C127.823 273.843 127.223 274.023 126.478 274.011ZM124.631 268.64L128.518 268.701C128.493 267.58 128.333 266.744 128.036 266.196C127.74 265.639 127.266 265.355 126.614 265.345C125.97 265.335 125.492 265.603 125.178 266.151C124.873 266.69 124.691 267.52 124.631 268.64ZM126.492 273.109C127.152 273.119 127.644 272.847 127.966 272.291C128.288 271.727 128.472 270.811 128.517 269.542L124.618 269.481C124.615 270.742 124.757 271.66 125.045 272.233C125.341 272.806 125.823 273.098 126.492 273.109Z" fill="#410EAD"/>
</svg>
