<svg width="340" height="345" viewBox="0 0 340 345" fill="none" xmlns="http://www.w3.org/2000/svg">
<path d="M190.942 11.423C190.942 11.423 191.152 11.423 191.572 11.443C191.992 11.4829 192.632 11.433 193.453 11.5926C195.093 11.7822 197.594 12.3209 200.405 13.9869C201.825 14.785 203.266 15.9323 204.636 17.3988C205.997 18.8753 207.257 20.7109 208.168 22.9157C209.088 25.1105 209.578 27.6744 209.558 30.4179C209.558 33.1414 209.568 36.0545 209.568 39.1272C209.578 63.7487 209.608 99.3641 209.628 143.38C209.638 187.395 209.648 239.8 209.658 297.992C209.658 305.265 209.658 312.627 209.658 320.08C209.658 321.945 209.658 323.811 209.658 325.686C209.638 327.562 209.518 329.497 208.948 331.323C208.418 333.149 207.657 334.935 206.577 336.531C205.507 338.127 204.206 339.573 202.716 340.801C199.705 343.215 195.933 344.751 192.012 344.941C188.131 345.05 184.269 344.971 180.368 344.991C172.575 344.991 164.712 344.981 156.77 344.981C140.894 344.971 124.738 344.961 108.343 344.961C100.15 344.961 91.887 344.951 83.574 344.951C79.4226 344.951 75.2511 344.951 71.0697 344.941C66.8682 345.15 62.5167 344.053 59.0054 341.619C55.4742 339.204 52.8733 335.553 51.6629 331.503C51.0126 329.487 50.8926 327.333 50.8926 325.248C50.8926 323.172 50.8926 321.087 50.8926 319.022C50.8926 310.732 50.8926 302.492 50.9026 294.311C50.9026 277.96 50.9126 261.838 50.9126 246.006C50.9226 214.331 50.9326 183.784 50.9426 154.683C50.9526 125.582 50.9726 97.9275 50.9826 72.049C50.9926 59.1097 51.0026 46.6094 51.0026 34.598C51.0026 33.0915 51.0026 31.6051 51.0026 30.1186C51.0126 29.3704 51.0627 28.6222 51.1027 27.8739C51.2327 27.1357 51.2927 26.3875 51.4828 25.6692C52.163 22.776 53.5035 20.0725 55.3842 17.8378C57.2748 15.623 59.6457 13.8672 62.2566 12.7199C64.8675 11.5427 67.7285 11.1337 70.4894 11.1636C76.0014 11.1736 81.3933 11.1736 86.6351 11.1836C89.256 11.1836 91.8469 11.1936 94.4078 11.1936C95.6883 11.1936 96.9587 11.1936 98.2192 11.1936C99.4896 11.1337 100.82 11.4829 101.87 12.2111C102.921 12.9394 103.721 13.9969 104.141 15.1741C104.611 16.3613 104.501 17.6383 104.521 18.8254C104.521 19.424 104.521 20.0226 104.521 20.6212C104.521 21.2197 104.501 21.8183 104.581 22.387C104.731 23.5342 105.212 24.6217 105.962 25.4796C106.702 26.3476 107.712 26.9661 108.793 27.2354C109.343 27.3751 109.883 27.415 110.463 27.3951C111.034 27.3951 111.604 27.3951 112.174 27.3951C114.445 27.3951 116.666 27.405 118.856 27.405C127.619 27.415 135.782 27.425 143.285 27.445C147.036 27.4549 150.628 27.4549 154.059 27.4649C154.909 27.4549 155.769 27.5048 156.58 27.435C157.39 27.3452 158.17 27.0659 158.85 26.6369C160.211 25.7889 161.131 24.3922 161.451 22.9157C161.621 22.1775 161.591 21.4193 161.601 20.671C161.601 19.9228 161.601 19.1846 161.601 18.4563C161.611 17.738 161.561 17.0097 161.701 16.3014C161.821 15.5931 162.062 14.9247 162.402 14.3261C163.072 13.109 164.152 12.1912 165.363 11.7223C166.583 11.1936 167.874 11.3532 169.044 11.3332C173.796 11.3432 177.817 11.3532 181.058 11.3632C184.299 11.3731 186.78 11.3831 188.451 11.3931C190.091 11.413 190.942 11.423 190.942 11.423C190.942 11.423 190.091 11.443 188.421 11.4529C186.75 11.4529 184.279 11.4629 181.028 11.4729C177.777 11.4729 173.756 11.4829 169.014 11.4928C167.834 11.5228 166.563 11.3731 165.393 11.8819C164.222 12.3408 163.172 13.2387 162.532 14.4259C162.202 15.0145 161.972 15.6629 161.861 16.3513C161.731 17.0297 161.781 17.748 161.771 18.4763C161.771 19.2045 161.771 19.9428 161.771 20.691C161.771 21.4292 161.801 22.2074 161.631 22.9756C161.311 24.5019 160.361 25.9585 158.95 26.8364C158.25 27.2754 157.44 27.5747 156.59 27.6644C155.729 27.7442 154.899 27.6844 154.039 27.7043C150.618 27.7043 147.026 27.7043 143.265 27.7043C135.752 27.7043 127.599 27.7043 118.836 27.7143C116.646 27.7143 114.415 27.7143 112.154 27.7143C111.584 27.7143 111.014 27.7143 110.443 27.7143C109.873 27.7243 109.273 27.6844 108.703 27.5447C107.552 27.2654 106.492 26.6069 105.712 25.6991C104.922 24.8012 104.411 23.644 104.251 22.4468C104.171 21.8383 104.191 21.2397 104.191 20.6411C104.191 20.0425 104.191 19.444 104.191 18.8454C104.171 17.6382 104.281 16.4211 103.831 15.3038C103.441 14.1765 102.671 13.1888 101.68 12.5005C100.68 11.8121 99.4696 11.4829 98.2192 11.5427C96.9587 11.5427 95.6883 11.5427 94.4078 11.5427C91.8569 11.5427 89.266 11.5427 86.6351 11.5427C81.3833 11.5427 76.0014 11.5427 70.4894 11.5427C67.7485 11.5128 64.9675 11.9218 62.4066 13.0691C59.8557 14.1964 57.5349 15.9223 55.6843 18.0972C53.8436 20.282 52.5332 22.9357 51.8729 25.7689C51.6829 26.4772 51.6329 27.2055 51.5028 27.9238C51.4628 28.6521 51.4128 29.3804 51.4028 30.1286C51.4028 31.6151 51.4028 33.1115 51.4028 34.6079C51.4028 46.6194 51.4028 59.1197 51.4128 72.059C51.4128 97.9375 51.4228 125.592 51.4228 154.693C51.4228 183.794 51.4228 214.341 51.4228 246.016C51.4228 261.848 51.4228 277.97 51.4128 294.321C51.4128 302.502 51.4128 310.732 51.4128 319.032C51.4128 321.107 51.4128 323.182 51.4128 325.257C51.4128 327.333 51.5328 329.388 52.163 331.363C53.3435 335.304 55.8743 338.855 59.3055 341.2C62.7367 343.564 66.9182 344.641 71.0797 344.432C75.2611 344.432 79.4326 344.442 83.584 344.442C91.897 344.452 100.15 344.452 108.353 344.462C124.748 344.472 140.904 344.482 156.78 344.492C164.712 344.502 172.585 344.502 180.378 344.512C184.269 344.492 188.171 344.572 191.992 344.462C195.803 344.272 199.475 342.776 202.406 340.431C203.856 339.234 205.127 337.828 206.167 336.271C207.217 334.715 207.948 332.979 208.468 331.203C209.018 329.418 209.138 327.562 209.158 325.696C209.158 323.821 209.158 321.955 209.158 320.09C209.158 312.637 209.168 305.275 209.168 298.002C209.198 239.81 209.228 187.405 209.258 143.39C209.298 99.3741 209.338 63.7587 209.358 39.1372C209.358 36.0645 209.368 33.1514 209.368 30.4279C209.398 27.7043 208.918 25.1704 208.018 22.9855C207.127 20.8007 205.877 18.9651 204.536 17.4986C203.186 16.0321 201.755 14.8848 200.355 14.0867C197.574 12.4107 195.083 11.862 193.453 11.6525C192.632 11.4929 192.002 11.5327 191.582 11.4829C191.162 11.443 190.942 11.423 190.942 11.423Z" fill="#410EAD"/>
<path d="M191.082 102.985C191.082 102.845 192.653 102.726 194.583 102.726C194.063 103.244 194.443 102.865 194.323 102.985V102.975V102.965V102.945V102.895V102.806V102.626V102.277C194.333 102.057 194.333 101.848 194.343 101.618C194.353 101.199 194.373 100.82 194.403 100.511C194.453 99.8824 194.513 99.4834 194.583 99.4834C194.653 99.4834 194.723 99.8725 194.763 100.511C194.783 100.83 194.803 101.199 194.823 101.618C194.833 101.838 194.833 102.057 194.843 102.277V102.626V102.806V102.895V102.945V102.965V102.975V102.985C194.723 103.105 195.103 102.726 194.583 103.244C192.653 103.244 191.082 103.125 191.082 102.985Z" fill="#410EAD"/>
<path d="M177.578 102.985C177.578 102.845 179.089 102.726 180.959 102.726C182.83 102.726 184.34 102.845 184.34 102.985C184.34 103.125 182.83 103.244 180.959 103.244C179.089 103.244 177.578 103.125 177.578 102.985Z" fill="#410EAD"/>
<path d="M164.062 102.985C164.062 102.845 165.573 102.726 167.444 102.726C169.314 102.726 170.825 102.845 170.825 102.985C170.825 103.125 169.314 103.244 167.444 103.244C165.573 103.244 164.062 103.125 164.062 102.985Z" fill="#410EAD"/>
<path d="M150.559 102.985C150.559 102.845 152.069 102.726 153.94 102.726C155.81 102.726 157.321 102.845 157.321 102.985C157.321 103.125 155.81 103.244 153.94 103.244C152.069 103.244 150.559 103.125 150.559 102.985Z" fill="#410EAD"/>
<path d="M137.043 102.985C137.043 102.845 138.554 102.726 140.424 102.726C142.295 102.726 143.805 102.845 143.805 102.985C143.805 103.125 142.295 103.244 140.424 103.244C138.554 103.244 137.043 103.125 137.043 102.985Z" fill="#410EAD"/>
<path d="M123.539 102.985C123.539 102.845 125.05 102.726 126.92 102.726C128.791 102.726 130.301 102.845 130.301 102.985C130.301 103.125 128.791 103.244 126.92 103.244C125.05 103.244 123.539 103.125 123.539 102.985Z" fill="#410EAD"/>
<path d="M110.023 102.985C110.023 102.845 111.534 102.726 113.405 102.726C115.275 102.726 116.786 102.845 116.786 102.985C116.786 103.125 115.275 103.244 113.405 103.244C111.534 103.244 110.023 103.125 110.023 102.985Z" fill="#410EAD"/>
<path d="M96.5098 102.985C96.5098 102.845 98.0203 102.726 99.891 102.726C101.762 102.726 103.272 102.845 103.272 102.985C103.272 103.125 101.762 103.244 99.891 103.244C98.0303 103.244 96.5098 103.125 96.5098 102.985Z" fill="#410EAD"/>
<path d="M83.0039 102.985C83.0039 102.845 84.5144 102.726 86.3851 102.726C88.2558 102.726 89.7663 102.845 89.7663 102.985C89.7663 103.125 88.2558 103.244 86.3851 103.244C84.5144 103.244 83.0039 103.125 83.0039 102.985Z" fill="#410EAD"/>
<path d="M72.7529 99.4937C72.8929 99.4937 73.013 101.06 73.013 102.985C72.4928 102.467 72.8729 102.846 72.7529 102.726H72.7629H72.7729H72.7929H72.8429H72.9329H73.113H73.4631C73.6832 102.736 73.8933 102.736 74.1233 102.746C74.5435 102.756 74.9236 102.776 75.2338 102.806C75.864 102.856 76.2641 102.916 76.2641 102.985C76.2641 103.055 75.874 103.125 75.2338 103.165C74.9136 103.185 74.5435 103.205 74.1233 103.225C73.9033 103.235 73.6832 103.235 73.4631 103.245H73.113H72.9329H72.8429H72.7929H72.7729H72.7629H72.7529C72.6328 103.125 73.013 103.504 72.4928 102.985C72.4828 101.06 72.6028 99.4937 72.7529 99.4937Z" fill="#410EAD"/>
<path d="M72.7528 85.8257C72.8928 85.8257 73.0128 87.3521 73.0128 89.2376C73.0128 91.1231 72.8928 92.6495 72.7528 92.6495C72.6128 92.6495 72.4928 91.1231 72.4928 89.2376C72.4828 87.362 72.6028 85.8257 72.7528 85.8257Z" fill="#410EAD"/>
<path d="M72.7528 72.1685C72.8928 72.1685 73.0128 73.6948 73.0128 75.5803C73.0128 77.4659 72.8928 78.9922 72.7528 78.9922C72.6128 78.9922 72.4928 77.4659 72.4928 75.5803C72.4828 73.6948 72.6028 72.1685 72.7528 72.1685Z" fill="#410EAD"/>
<path d="M76.253 61.8429C76.253 61.9825 74.6825 62.1023 72.7518 62.1023C73.272 61.5835 72.8919 61.9626 73.0119 61.8429V61.8528V61.8628V61.8828V61.9327V62.0224V62.202V62.5512C73.0019 62.7707 73.0019 62.9802 72.9919 63.2096C72.9819 63.6286 72.9619 64.0077 72.9318 64.317C72.8818 64.9455 72.8218 65.3446 72.7518 65.3446C72.6818 65.3446 72.6118 64.9555 72.5717 64.317C72.5517 63.9978 72.5317 63.6286 72.5117 63.2096C72.5017 62.9901 72.5017 62.7707 72.4917 62.5512V62.202V62.0224V61.9327V61.8828V61.8628V61.8528V61.8429C72.6117 61.7232 72.2316 62.1023 72.7518 61.5835C74.6825 61.5835 76.253 61.6932 76.253 61.8429Z" fill="#410EAD"/>
<path d="M89.7585 61.8429C89.7585 61.9825 88.2479 62.1023 86.3773 62.1023C84.5066 62.1023 82.9961 61.9825 82.9961 61.8429C82.9961 61.7032 84.5066 61.5835 86.3773 61.5835C88.2479 61.5835 89.7585 61.6932 89.7585 61.8429Z" fill="#410EAD"/>
<path d="M103.272 61.8429C103.272 61.9825 101.762 62.1023 99.891 62.1023C98.0203 62.1023 96.5098 61.9825 96.5098 61.8429C96.5098 61.7032 98.0203 61.5835 99.891 61.5835C101.752 61.5835 103.272 61.6932 103.272 61.8429Z" fill="#410EAD"/>
<path d="M116.778 61.8429C116.778 61.9825 115.267 62.1023 113.397 62.1023C111.526 62.1023 110.016 61.9825 110.016 61.8429C110.016 61.7032 111.526 61.5835 113.397 61.5835C115.267 61.5835 116.778 61.6932 116.778 61.8429Z" fill="#410EAD"/>
<path d="M130.292 61.8429C130.292 61.9825 128.781 62.1023 126.91 62.1023C125.04 62.1023 123.529 61.9825 123.529 61.8429C123.529 61.7032 125.04 61.5835 126.91 61.5835C128.781 61.5835 130.292 61.6932 130.292 61.8429Z" fill="#410EAD"/>
<path d="M143.796 61.8429C143.796 61.9825 142.285 62.1023 140.414 62.1023C138.544 62.1023 137.033 61.9825 137.033 61.8429C137.033 61.7032 138.544 61.5835 140.414 61.5835C142.285 61.5835 143.796 61.6932 143.796 61.8429Z" fill="#410EAD"/>
<path d="M157.311 61.8429C157.311 61.9825 155.801 62.1023 153.93 62.1023C152.059 62.1023 150.549 61.9825 150.549 61.8429C150.549 61.7032 152.059 61.5835 153.93 61.5835C155.801 61.5835 157.311 61.6932 157.311 61.8429Z" fill="#410EAD"/>
<path d="M170.817 61.8429C170.817 61.9825 169.307 62.1023 167.436 62.1023C165.565 62.1023 164.055 61.9825 164.055 61.8429C164.055 61.7032 165.565 61.5835 167.436 61.5835C169.307 61.5835 170.817 61.6932 170.817 61.8429Z" fill="#410EAD"/>
<path d="M184.331 61.8429C184.331 61.9825 182.82 62.1023 180.95 62.1023C179.079 62.1023 177.568 61.9825 177.568 61.8429C177.568 61.7032 179.079 61.5835 180.95 61.5835C182.82 61.5835 184.331 61.6932 184.331 61.8429Z" fill="#410EAD"/>
<path d="M194.584 65.3345C194.443 65.3345 194.323 63.7682 194.323 61.8428C194.844 62.3616 194.463 61.9825 194.584 62.1022H194.573H194.563H194.543H194.493H194.403H194.223H193.873C193.653 62.0922 193.443 62.0922 193.213 62.0823C192.793 62.0723 192.413 62.0523 192.103 62.0224C191.472 61.9725 191.072 61.9126 191.072 61.8428C191.072 61.773 191.462 61.7031 192.103 61.6632C192.423 61.6433 192.793 61.6233 193.213 61.6034C193.433 61.5934 193.653 61.5934 193.873 61.5834H194.223H194.403H194.493H194.543H194.563H194.573H194.584C194.704 61.7032 194.323 61.324 194.844 61.8428C194.844 63.7682 194.734 65.3345 194.584 65.3345Z" fill="#410EAD"/>
<path d="M194.584 78.9922C194.444 78.9922 194.324 77.4659 194.324 75.5803C194.324 73.6948 194.444 72.1685 194.584 72.1685C194.724 72.1685 194.844 73.6948 194.844 75.5803C194.844 77.4659 194.734 78.9922 194.584 78.9922Z" fill="#410EAD"/>
<path d="M194.584 92.6597C194.444 92.6597 194.324 91.1334 194.324 89.2478C194.324 87.3623 194.444 85.8359 194.584 85.8359C194.724 85.8359 194.844 87.3623 194.844 89.2478C194.844 91.1334 194.734 92.6597 194.584 92.6597Z" fill="#410EAD"/>
<path d="M74.0992 60.7656H71.9492V62.9105H74.0992V60.7656Z" fill="#410EAD"/>
<path d="M73.8199 101.918H71.6699V104.063H73.8199V101.918Z" fill="#410EAD"/>
<path d="M134.742 101.918H132.592V104.063H134.742V101.918Z" fill="#410EAD"/>
<path d="M134.742 60.3169H132.592V62.4618H134.742V60.3169Z" fill="#410EAD"/>
<path d="M194.536 41.3519C194.536 41.4319 191.475 41.5219 187.694 41.5519C183.913 41.5819 180.852 41.5419 180.852 41.4619C180.852 41.3819 183.913 41.2919 187.694 41.2619C191.465 41.2319 194.526 41.2719 194.536 41.3519Z" fill="#263238"/>
<path d="M194.556 44.8436C194.556 44.9236 191.495 45.0136 187.713 45.0436C183.932 45.0736 180.871 45.0336 180.871 44.9536C180.871 44.8736 183.932 44.7836 187.713 44.7536C191.495 44.7236 194.556 44.7636 194.556 44.8436Z" fill="#263238"/>
<path d="M194.587 48.3353C194.587 48.4153 191.526 48.5053 187.745 48.5353C183.963 48.5653 180.902 48.5253 180.902 48.4453C180.902 48.3653 183.963 48.2753 187.745 48.2453C191.526 48.2153 194.587 48.2553 194.587 48.3353Z" fill="#263238"/>
<path d="M152.748 163.512C152.748 163.642 143.295 163.751 131.631 163.751C119.967 163.751 110.514 163.642 110.514 163.512C110.514 163.382 119.967 163.272 131.631 163.272C143.285 163.272 152.748 163.372 152.748 163.512Z" fill="#E0E0E0"/>
<path d="M186.421 172.152C186.421 172.281 169.425 172.391 148.467 172.391C127.5 172.391 110.504 172.281 110.504 172.152C110.504 172.022 127.5 171.912 148.467 171.912C169.425 171.912 186.421 172.022 186.421 172.152Z" fill="#263238"/>
<path d="M185.53 178.327C185.53 178.457 168.734 178.566 148.017 178.566C127.3 178.566 110.504 178.457 110.504 178.327C110.504 178.197 127.3 178.087 148.017 178.087C168.734 178.087 185.53 178.197 185.53 178.327Z" fill="#263238"/>
<path d="M154.799 184.213C154.799 184.342 144.886 184.452 132.652 184.452C120.417 184.452 110.504 184.342 110.504 184.213C110.504 184.083 120.417 183.973 132.652 183.973C144.886 183.973 154.799 184.083 154.799 184.213Z" fill="#263238"/>
<path d="M152.748 257.478C152.748 257.608 143.295 257.718 131.631 257.718C119.967 257.718 110.514 257.608 110.514 257.478C110.514 257.348 119.967 257.239 131.631 257.239C143.285 257.239 152.748 257.348 152.748 257.478Z" fill="#E0E0E0"/>
<path d="M186.421 266.128C186.421 266.257 169.425 266.367 148.467 266.367C127.5 266.367 110.504 266.257 110.504 266.128C110.504 265.998 127.5 265.888 148.467 265.888C169.425 265.888 186.421 265.988 186.421 266.128Z" fill="#263238"/>
<path d="M185.53 272.303C185.53 272.433 168.734 272.542 148.017 272.542C127.3 272.542 110.504 272.433 110.504 272.303C110.504 272.173 127.3 272.063 148.017 272.063C168.734 272.063 185.53 272.163 185.53 272.303Z" fill="#263238"/>
<path d="M154.799 278.19C154.799 278.319 144.886 278.429 132.652 278.429C120.417 278.429 110.504 278.319 110.504 278.19C110.504 278.06 120.417 277.95 132.652 277.95C144.886 277.95 154.799 278.06 154.799 278.19Z" fill="#263238"/>
<path d="M152.858 120.993C152.858 121.123 143.405 121.232 131.74 121.232C120.076 121.232 110.623 121.123 110.623 120.993C110.623 120.863 120.076 120.753 131.74 120.753C143.405 120.753 152.858 120.863 152.858 120.993Z" fill="#410EAD"/>
<path d="M186.54 129.642C186.54 129.771 169.544 129.881 148.586 129.881C127.619 129.881 110.623 129.771 110.623 129.642C110.623 129.512 127.619 129.402 148.586 129.402C169.544 129.402 186.54 129.502 186.54 129.642Z" fill="#263238"/>
<path d="M185.64 135.807C185.64 135.937 168.844 136.047 148.126 136.047C127.409 136.047 110.613 135.937 110.613 135.807C110.613 135.678 127.409 135.568 148.126 135.568C168.844 135.568 185.64 135.678 185.64 135.807Z" fill="#263238"/>
<path d="M154.919 141.703C154.919 141.833 145.005 141.943 132.771 141.943C120.537 141.943 110.623 141.833 110.623 141.703C110.623 141.574 120.537 141.464 132.771 141.464C144.995 141.464 154.919 141.574 154.919 141.703Z" fill="#263238"/>
<path d="M92.4062 143.519C92.4062 143.379 93.9768 143.26 95.9075 143.26C97.8382 143.26 99.4087 143.379 99.4087 143.519C99.4087 143.659 97.8382 143.779 95.9075 143.779C93.9768 143.779 92.4062 143.659 92.4062 143.519Z" fill="#410EAD"/>
<path d="M78.4023 143.519C78.4023 143.379 79.9729 143.26 81.9036 143.26C83.8342 143.26 85.4048 143.379 85.4048 143.519C85.4048 143.659 83.8342 143.779 81.9036 143.779C79.9729 143.779 78.4023 143.659 78.4023 143.519Z" fill="#410EAD"/>
<path d="M75.8108 132.136C75.9508 132.136 76.0708 133.703 76.0708 135.628C76.0708 137.553 75.9508 139.12 75.8108 139.12C75.6708 139.12 75.5508 137.553 75.5508 135.628C75.5508 133.693 75.6708 132.136 75.8108 132.136Z" fill="#410EAD"/>
<path d="M77.6408 119.985C77.6408 120.085 76.9108 120.165 75.8108 120.214L76.0408 119.985C76.0608 120.474 76.0708 121.043 76.0708 121.651C76.0708 123.577 75.9508 125.143 75.8108 125.143C75.6708 125.143 75.5508 123.577 75.5508 121.651C75.5508 121.043 75.5608 120.474 75.5808 119.985L75.5908 119.746L75.8108 119.756C76.9008 119.805 77.6408 119.885 77.6408 119.985Z" fill="#410EAD"/>
<path d="M91.647 119.985C91.647 120.125 90.0764 120.245 88.1458 120.245C86.2151 120.245 84.6445 120.125 84.6445 119.985C84.6445 119.846 86.2151 119.726 88.1458 119.726C90.0764 119.726 91.647 119.846 91.647 119.985Z" fill="#410EAD"/>
<path d="M99.4084 126.21C99.2684 126.21 99.1484 124.644 99.1484 122.719C99.1484 121.601 99.1884 120.614 99.2484 119.985L99.4084 120.145C98.9284 120.105 98.6484 120.045 98.6484 119.985C98.6484 119.925 98.9284 119.865 99.4084 119.825L99.5484 119.815L99.5684 119.985C99.6284 120.614 99.6684 121.601 99.6684 122.719C99.6684 124.644 99.5484 126.21 99.4084 126.21Z" fill="#410EAD"/>
<path d="M99.4084 140.177C99.2684 140.177 99.1484 138.611 99.1484 136.686C99.1484 134.76 99.2684 133.194 99.4084 133.194C99.5484 133.194 99.6684 134.76 99.6684 136.686C99.6684 138.611 99.5484 140.177 99.4084 140.177Z" fill="#410EAD"/>
<path d="M100.462 142.372H97.8516V144.975H100.462V142.372Z" fill="#410EAD"/>
<path d="M100.462 118.05H97.8516V120.654H100.462V118.05Z" fill="#410EAD"/>
<path d="M77.1217 142.372H74.5117V144.975H77.1217V142.372Z" fill="#410EAD"/>
<path d="M77.1217 118.688H74.5117V121.292H77.1217V118.688Z" fill="#410EAD"/>
<path d="M92.4062 186.836C92.4062 186.696 93.9768 186.577 95.9075 186.577C97.8382 186.577 99.4087 186.696 99.4087 186.836C99.4087 186.976 97.8382 187.095 95.9075 187.095C93.9768 187.105 92.4062 186.986 92.4062 186.836Z" fill="#E0E0E0"/>
<path d="M78.4023 186.836C78.4023 186.696 79.9729 186.577 81.9036 186.577C83.8342 186.577 85.4048 186.696 85.4048 186.836C85.4048 186.976 83.8342 187.095 81.9036 187.095C79.9729 187.105 78.4023 186.986 78.4023 186.836Z" fill="#E0E0E0"/>
<path d="M75.8108 175.453C75.9508 175.453 76.0708 177.019 76.0708 178.945C76.0708 180.87 75.9508 182.437 75.8108 182.437C75.6708 182.437 75.5508 180.87 75.5508 178.945C75.5508 177.019 75.6708 175.453 75.8108 175.453Z" fill="#E0E0E0"/>
<path d="M77.6408 163.312C77.6408 163.412 76.9108 163.492 75.8108 163.542L76.0408 163.312C76.0608 163.801 76.0708 164.37 76.0708 164.978C76.0708 166.904 75.9508 168.47 75.8108 168.47C75.6708 168.47 75.5508 166.904 75.5508 164.978C75.5508 164.37 75.5608 163.801 75.5808 163.312L75.5908 163.073L75.8108 163.083C76.9008 163.123 77.6408 163.212 77.6408 163.312Z" fill="#E0E0E0"/>
<path d="M91.647 163.312C91.647 163.452 90.0764 163.571 88.1458 163.571C86.2151 163.571 84.6445 163.452 84.6445 163.312C84.6445 163.172 86.2151 163.053 88.1458 163.053C90.0764 163.053 91.647 163.162 91.647 163.312Z" fill="#E0E0E0"/>
<path d="M99.4084 169.537C99.2684 169.537 99.1484 167.971 99.1484 166.045C99.1484 164.928 99.1884 163.94 99.2484 163.312L99.4084 163.471C98.9284 163.431 98.6484 163.372 98.6484 163.312C98.6484 163.252 98.9284 163.192 99.4084 163.152L99.5484 163.142L99.5684 163.312C99.6284 163.94 99.6684 164.928 99.6684 166.045C99.6684 167.971 99.5484 169.537 99.4084 169.537Z" fill="#E0E0E0"/>
<path d="M99.4084 183.504C99.2684 183.504 99.1484 181.938 99.1484 180.012C99.1484 178.087 99.2684 176.521 99.4084 176.521C99.5484 176.521 99.6684 178.087 99.6684 180.012C99.6684 181.938 99.5484 183.504 99.4084 183.504Z" fill="#E0E0E0"/>
<path d="M100.462 185.699H97.8516V188.303H100.462V185.699Z" fill="#E0E0E0"/>
<path d="M100.462 161.367H97.8516V163.971H100.462V161.367Z" fill="#E0E0E0"/>
<path d="M77.1217 185.699H74.5117V188.303H77.1217V185.699Z" fill="#E0E0E0"/>
<path d="M77.1217 162.005H74.5117V164.609H77.1217V162.005Z" fill="#E0E0E0"/>
<path d="M92.5273 232.717C92.5273 232.578 94.0979 232.458 96.0286 232.458C97.9592 232.458 99.5298 232.578 99.5298 232.717C99.5298 232.857 97.9592 232.977 96.0286 232.977C94.0979 232.977 92.5273 232.867 92.5273 232.717Z" fill="#410EAD"/>
<path d="M78.5234 232.717C78.5234 232.578 80.094 232.458 82.0247 232.458C83.9553 232.458 85.5259 232.578 85.5259 232.717C85.5259 232.857 83.9553 232.977 82.0247 232.977C80.094 232.977 78.5234 232.867 78.5234 232.717Z" fill="#410EAD"/>
<path d="M75.9417 221.334C76.0817 221.334 76.2017 222.901 76.2017 224.826C76.2017 226.752 76.0817 228.318 75.9417 228.318C75.8017 228.318 75.6816 226.752 75.6816 224.826C75.6816 222.901 75.7917 221.334 75.9417 221.334Z" fill="#410EAD"/>
<path d="M77.7619 209.193C77.7619 209.293 77.0319 209.373 75.9319 209.423L76.1619 209.193C76.1819 209.682 76.1919 210.251 76.1919 210.859C76.1919 212.785 76.0719 214.351 75.9319 214.351C75.7919 214.351 75.6719 212.785 75.6719 210.859C75.6719 210.251 75.6819 209.682 75.7019 209.193L75.7119 208.954L75.9319 208.964C77.0319 209.003 77.7619 209.093 77.7619 209.193Z" fill="#410EAD"/>
<path d="M91.7681 209.193C91.7681 209.333 90.1975 209.452 88.2669 209.452C86.3362 209.452 84.7656 209.333 84.7656 209.193C84.7656 209.053 86.3362 208.934 88.2669 208.934C90.2075 208.934 91.7681 209.043 91.7681 209.193Z" fill="#410EAD"/>
<path d="M99.5295 215.418C99.3895 215.418 99.2695 213.852 99.2695 211.927C99.2695 210.809 99.3095 209.822 99.3695 209.193L99.5295 209.353C99.0495 209.313 98.7695 209.253 98.7695 209.193C98.7695 209.133 99.0495 209.073 99.5295 209.033L99.6695 209.023L99.6895 209.193C99.7495 209.822 99.7895 210.809 99.7895 211.927C99.7895 213.852 99.6795 215.418 99.5295 215.418Z" fill="#410EAD"/>
<path d="M99.5295 229.385C99.3895 229.385 99.2695 227.819 99.2695 225.894C99.2695 223.968 99.3895 222.402 99.5295 222.402C99.6695 222.402 99.7895 223.968 99.7895 225.894C99.7895 227.819 99.6795 229.385 99.5295 229.385Z" fill="#410EAD"/>
<path d="M100.59 231.57H97.9805V234.174H100.59V231.57Z" fill="#410EAD"/>
<path d="M100.59 207.248H97.9805V209.852H100.59V207.248Z" fill="#410EAD"/>
<path d="M77.2428 231.57H74.6328V234.174H77.2428V231.57Z" fill="#410EAD"/>
<path d="M77.2428 207.887H74.6328V210.491H77.2428V207.887Z" fill="#410EAD"/>
<path d="M92.4062 278.478C92.4062 278.338 93.9768 278.219 95.9075 278.219C97.8382 278.219 99.4087 278.338 99.4087 278.478C99.4087 278.618 97.8382 278.738 95.9075 278.738C93.9768 278.738 92.4062 278.618 92.4062 278.478Z" fill="#E0E0E0"/>
<path d="M78.4023 278.478C78.4023 278.338 79.9729 278.219 81.9036 278.219C83.8342 278.219 85.4048 278.338 85.4048 278.478C85.4048 278.618 83.8342 278.738 81.9036 278.738C79.9729 278.738 78.4023 278.618 78.4023 278.478Z" fill="#E0E0E0"/>
<path d="M75.8108 267.086C75.9508 267.086 76.0708 268.652 76.0708 270.578C76.0708 272.503 75.9508 274.069 75.8108 274.069C75.6708 274.069 75.5508 272.503 75.5508 270.578C75.5508 268.652 75.6708 267.086 75.8108 267.086Z" fill="#E0E0E0"/>
<path d="M77.6408 254.945C77.6408 255.044 76.9108 255.124 75.8108 255.174L76.0408 254.945C76.0608 255.433 76.0708 256.002 76.0708 256.611C76.0708 258.536 75.9508 260.102 75.8108 260.102C75.6708 260.102 75.5508 258.536 75.5508 256.611C75.5508 256.002 75.5608 255.433 75.5808 254.945L75.5908 254.705L75.8108 254.715C76.9008 254.765 77.6408 254.845 77.6408 254.945Z" fill="#E0E0E0"/>
<path d="M91.647 254.944C91.647 255.084 90.0764 255.204 88.1458 255.204C86.2151 255.204 84.6445 255.084 84.6445 254.944C84.6445 254.805 86.2151 254.685 88.1458 254.685C90.0764 254.685 91.647 254.805 91.647 254.944Z" fill="#E0E0E0"/>
<path d="M99.4084 261.169C99.2684 261.169 99.1484 259.603 99.1484 257.678C99.1484 256.56 99.1884 255.573 99.2484 254.944L99.4084 255.104C98.9284 255.064 98.6484 255.004 98.6484 254.944C98.6484 254.884 98.9284 254.824 99.4084 254.784L99.5484 254.774L99.5684 254.944C99.6284 255.573 99.6684 256.56 99.6684 257.678C99.6684 259.603 99.5484 261.169 99.4084 261.169Z" fill="#E0E0E0"/>
<path d="M99.4084 275.136C99.2684 275.136 99.1484 273.57 99.1484 271.645C99.1484 269.719 99.2684 268.153 99.4084 268.153C99.5484 268.153 99.6684 269.719 99.6684 271.645C99.6684 273.57 99.5484 275.136 99.4084 275.136Z" fill="#E0E0E0"/>
<path d="M100.462 277.332H97.8516V279.935H100.462V277.332Z" fill="#E0E0E0"/>
<path d="M100.462 252.999H97.8516V255.603H100.462V252.999Z" fill="#E0E0E0"/>
<path d="M77.1217 277.332H74.5117V279.935H77.1217V277.332Z" fill="#E0E0E0"/>
<path d="M77.1217 253.638H74.5117V256.242H77.1217V253.638Z" fill="#E0E0E0"/>
<path d="M92.4062 325.826C92.4062 325.686 93.9768 325.566 95.9075 325.566C97.8382 325.566 99.4087 325.686 99.4087 325.826C99.4087 325.965 97.8382 326.085 95.9075 326.085C93.9768 326.085 92.4062 325.965 92.4062 325.826Z" fill="#410EAD"/>
<path d="M78.4023 325.826C78.4023 325.686 79.9729 325.566 81.9036 325.566C83.8342 325.566 85.4048 325.686 85.4048 325.826C85.4048 325.965 83.8342 326.085 81.9036 326.085C79.9729 326.085 78.4023 325.965 78.4023 325.826Z" fill="#410EAD"/>
<path d="M75.8108 314.433C75.9508 314.433 76.0708 315.999 76.0708 317.924C76.0708 319.85 75.9508 321.416 75.8108 321.416C75.6708 321.416 75.5508 319.85 75.5508 317.924C75.5508 315.999 75.6708 314.433 75.8108 314.433Z" fill="#410EAD"/>
<path d="M77.6408 302.291C77.6408 302.391 76.9108 302.471 75.8108 302.521L76.0408 302.291C76.0608 302.78 76.0708 303.349 76.0708 303.957C76.0708 305.883 75.9508 307.449 75.8108 307.449C75.6708 307.449 75.5508 305.883 75.5508 303.957C75.5508 303.349 75.5608 302.78 75.5808 302.291L75.5908 302.052L75.8108 302.062C76.9008 302.112 77.6408 302.191 77.6408 302.291Z" fill="#410EAD"/>
<path d="M91.647 302.292C91.647 302.431 90.0764 302.551 88.1458 302.551C86.2151 302.551 84.6445 302.431 84.6445 302.292C84.6445 302.152 86.2151 302.032 88.1458 302.032C90.0764 302.032 91.647 302.152 91.647 302.292Z" fill="#410EAD"/>
<path d="M99.4084 308.517C99.2684 308.517 99.1484 306.951 99.1484 305.025C99.1484 303.908 99.1884 302.92 99.2484 302.292L99.4084 302.451C98.9284 302.411 98.6484 302.352 98.6484 302.292C98.6484 302.232 98.9284 302.172 99.4084 302.132L99.5484 302.122L99.5684 302.292C99.6284 302.92 99.6684 303.908 99.6684 305.025C99.6684 306.951 99.5484 308.517 99.4084 308.517Z" fill="#410EAD"/>
<path d="M99.4084 322.483C99.2684 322.483 99.1484 320.917 99.1484 318.992C99.1484 317.066 99.2684 315.5 99.4084 315.5C99.5484 315.5 99.6684 317.066 99.6684 318.992C99.6684 320.917 99.5484 322.483 99.4084 322.483Z" fill="#410EAD"/>
<path d="M100.462 324.679H97.8516V327.283H100.462V324.679Z" fill="#410EAD"/>
<path d="M100.462 300.347H97.8516V302.951H100.462V300.347Z" fill="#410EAD"/>
<path d="M77.1217 324.679H74.5117V327.283H77.1217V324.679Z" fill="#410EAD"/>
<path d="M77.1217 300.985H74.5117V303.589H77.1217V300.985Z" fill="#410EAD"/>
<path d="M151.848 208.395C151.848 208.524 142.395 208.634 130.731 208.634C119.067 208.634 109.613 208.524 109.613 208.395C109.613 208.265 119.067 208.155 130.731 208.155C142.395 208.155 151.848 208.265 151.848 208.395Z" fill="#410EAD"/>
<path d="M185.53 217.044C185.53 217.174 168.534 217.284 147.577 217.284C126.609 217.284 109.613 217.174 109.613 217.044C109.613 216.914 126.609 216.805 147.577 216.805C168.534 216.805 185.53 216.904 185.53 217.044Z" fill="#263238"/>
<path d="M184.64 223.219C184.64 223.349 167.844 223.459 147.126 223.459C126.409 223.459 109.613 223.349 109.613 223.219C109.613 223.09 126.409 222.98 147.126 222.98C167.844 222.98 184.64 223.08 184.64 223.219Z" fill="#263238"/>
<path d="M153.909 229.106C153.909 229.236 143.995 229.346 131.761 229.346C119.527 229.346 109.613 229.236 109.613 229.106C109.613 228.976 119.527 228.867 131.761 228.867C143.995 228.867 153.909 228.976 153.909 229.106Z" fill="#263238"/>
<path d="M151.848 304.337C151.848 304.467 142.395 304.577 130.731 304.577C119.067 304.577 109.613 304.467 109.613 304.337C109.613 304.207 119.067 304.098 130.731 304.098C142.395 304.098 151.848 304.207 151.848 304.337Z" fill="#410EAD"/>
<path d="M185.53 312.987C185.53 313.116 168.534 313.226 147.577 313.226C126.609 313.226 109.613 313.116 109.613 312.987C109.613 312.857 126.609 312.747 147.577 312.747C168.534 312.747 185.53 312.857 185.53 312.987Z" fill="#263238"/>
<path d="M184.64 319.162C184.64 319.292 167.844 319.402 147.126 319.402C126.409 319.402 109.613 319.292 109.613 319.162C109.613 319.033 126.409 318.923 147.126 318.923C167.844 318.923 184.64 319.023 184.64 319.162Z" fill="#263238"/>
<path d="M153.909 325.048C153.909 325.178 143.995 325.287 131.761 325.287C119.527 325.287 109.613 325.178 109.613 325.048C109.613 324.918 119.527 324.809 131.761 324.809C143.995 324.809 153.909 324.918 153.909 325.048Z" fill="#263238"/>
<path d="M73.1713 47.8763C73.1813 47.8664 73.2713 47.8664 73.4514 47.8564C73.6715 47.8464 73.9216 47.8364 74.2217 47.8265C74.9419 47.8065 75.8922 47.7866 77.0526 47.7566L76.9726 47.8364C76.9626 47.2079 76.9526 46.5295 76.9426 45.7913C76.9426 45.4122 76.9126 45.053 76.9426 44.6141C77.0227 44.1751 77.4128 43.7861 77.893 43.7462C78.3531 43.7362 78.7532 43.7162 79.2434 43.7362C79.7536 43.796 80.1838 44.2849 80.1738 44.8236C80.1838 45.7813 80.1938 46.7789 80.2038 47.8065L80.0737 47.6768C81.2241 47.6668 82.4146 47.6569 83.645 47.6369L83.5049 47.7766C83.4949 46.34 83.4749 44.8535 83.4649 43.3371C83.4649 42.958 83.4549 42.5789 83.4549 42.2098C83.4549 41.8606 83.2448 41.6312 82.9547 41.3718C82.4246 40.853 81.9044 40.3442 81.3942 39.8354C80.884 39.3366 80.3838 38.8378 79.8837 38.349C79.6336 38.1095 79.3935 37.8701 79.1534 37.6307C78.9033 37.3912 78.7032 37.1418 78.4131 37.082C78.133 37.0022 77.8229 37.062 77.5928 37.2416C77.3728 37.4212 77.1427 37.6806 76.9326 37.8901C76.4925 38.329 76.0623 38.768 75.6522 39.177C74.8419 40.015 74.0016 40.7732 73.3914 41.5015C73.1313 41.9005 73.2313 42.3894 73.2113 42.8283C73.2113 43.2673 73.2113 43.6863 73.2113 44.0853C73.2113 44.8535 73.2013 45.5319 73.2013 46.1105C73.1913 46.6293 73.1913 47.0583 73.1913 47.4075C73.1813 47.7067 73.1713 47.8664 73.1713 47.8763C73.1613 47.8863 73.1613 47.7367 73.1513 47.4474C73.1413 47.0982 73.1313 46.6792 73.1113 46.1704C73.1013 45.5918 73.0813 44.9034 73.0613 44.1352C73.0513 43.7362 73.0413 43.3072 73.0413 42.8583C73.0413 42.6288 73.0312 42.3994 73.0312 42.1599C73.0312 41.9105 73.0913 41.6412 73.2313 41.4117C73.8916 40.6036 74.6818 39.8853 75.4921 39.0274C75.9022 38.6084 76.3324 38.1694 76.7626 37.7304C76.9926 37.511 77.1827 37.2815 77.4528 37.052C77.7429 36.8326 78.133 36.7528 78.4932 36.8525C78.8733 36.9323 79.1234 37.2516 79.3535 37.4611C79.5936 37.7005 79.8437 37.9399 80.0837 38.1794C80.5739 38.6582 81.0841 39.157 81.5942 39.6559C82.1044 40.1547 82.6346 40.6735 83.1548 41.1922C83.2848 41.3219 83.4349 41.4416 83.5549 41.6212C83.675 41.8008 83.735 42.0103 83.745 42.2198C83.745 42.5989 83.755 42.978 83.755 43.3571C83.765 44.8735 83.775 46.3599 83.785 47.7965V47.9362H83.645C82.4146 47.9462 81.2141 47.9562 80.0737 47.9562H79.9437V47.8265C79.9337 46.7889 79.9337 45.7913 79.9237 44.8336C79.9437 44.4046 79.6036 44.0255 79.2034 43.9656C78.7933 43.9457 78.3031 43.9557 77.903 43.9656C77.5228 43.9956 77.2027 44.3048 77.1327 44.654C77.1027 45.0131 77.1227 45.4321 77.1127 45.7913C77.1127 46.5295 77.1127 47.2179 77.1127 47.8364V47.9162H77.0327C75.8522 47.9063 74.8919 47.8963 74.1516 47.8963C73.8615 47.8863 73.6114 47.8863 73.4014 47.8863C73.2513 47.8863 73.1613 47.8863 73.1713 47.8763Z" fill="#410EAD"/>
<path d="M71.9509 78.2142C71.9509 78.2241 71.8708 78.2341 71.7108 78.2441C71.5207 78.2541 71.2806 78.264 70.9905 78.274C70.3203 78.284 69.4 78.304 68.2395 78.3239C65.7987 78.3439 62.3575 78.3738 58.116 78.4037C53.8245 78.4237 48.7427 78.4336 43.0908 78.4636C40.2598 78.4636 37.2987 78.4735 34.2176 78.4835C33.4474 78.4835 32.6771 78.4835 31.8868 78.4835C31.0966 78.4935 30.3263 78.4336 29.616 78.6531C28.1755 79.0622 26.9751 80.3092 26.665 81.8156C26.515 82.5539 26.585 83.3819 26.565 84.18C26.565 84.9881 26.565 85.7862 26.565 86.5743C26.565 88.1605 26.565 89.7168 26.565 91.2532C26.555 94.3159 26.555 97.2789 26.545 100.102C26.5249 105.729 26.5049 110.807 26.4849 115.087C26.4549 119.317 26.4249 122.758 26.4049 125.183C26.3849 126.34 26.3649 127.258 26.3549 127.926C26.3449 128.215 26.3349 128.445 26.3249 128.644C26.3149 128.804 26.3049 128.884 26.2949 128.884C26.2849 128.884 26.2749 128.804 26.2649 128.644C26.2549 128.455 26.2448 128.215 26.2348 127.926C26.2248 127.258 26.2048 126.34 26.1848 125.183C26.1648 122.748 26.1348 119.317 26.1048 115.087C26.0848 110.807 26.0748 105.739 26.0448 100.102C26.0448 97.2789 26.0348 94.3259 26.0248 91.2532C26.0248 89.7168 26.0248 88.1605 26.0248 86.5743C26.0248 85.7862 26.0248 84.9881 26.0248 84.18C26.0448 83.3819 25.9548 82.5738 26.1348 81.7059C26.4849 80.0099 27.8354 78.6132 29.446 78.1543C30.2663 77.9049 31.1066 77.9747 31.8668 77.9648C32.6471 77.9648 33.4274 77.9648 34.1976 77.9648C37.2687 77.9747 40.2398 77.9747 43.0708 77.9847C48.7127 78.0046 53.8045 78.0246 58.096 78.0446C62.3375 78.0745 65.7887 78.1044 68.2196 78.1244C69.38 78.1443 70.3003 78.1643 70.9705 78.1742C71.2606 78.1842 71.4907 78.1942 71.6908 78.2042C71.8708 78.2042 71.9509 78.2042 71.9509 78.2142Z" fill="#410EAD"/>
<path d="M74.5615 78.1349C74.5615 79.0028 73.8513 79.7111 72.981 79.7111C72.1107 79.7111 71.4004 79.0028 71.4004 78.1349C71.4004 77.2669 72.1107 76.5586 72.981 76.5586C73.8513 76.5586 74.5615 77.2669 74.5615 78.1349Z" fill="#410EAD"/>
<path d="M103.361 90.9837C103.311 90.9837 103.311 90.6246 103.141 90.026C102.971 89.4374 102.551 88.5894 101.671 87.9409C100.811 87.2925 99.4101 86.9333 98.0696 87.4421C96.7392 87.911 95.5888 89.3276 95.5988 90.9737C95.5788 92.6298 96.7292 94.0464 98.0696 94.5053C99.4201 95.0141 100.811 94.655 101.671 94.0065C102.561 93.3581 102.971 92.5101 103.141 91.9215C103.311 91.3329 103.311 90.9737 103.361 90.9837C103.382 90.9837 103.452 91.3429 103.331 91.9813C103.211 92.6099 102.831 93.5576 101.881 94.3058C100.971 95.054 99.4201 95.503 97.8896 94.9642C96.369 94.4654 95.0486 92.8593 95.0686 90.9737C95.0486 89.0882 96.3791 87.482 97.8896 86.9932C99.4201 86.4445 100.971 86.9034 101.881 87.6516C102.821 88.3998 103.211 89.3476 103.331 89.9761C103.462 90.6246 103.392 90.9837 103.361 90.9837Z" fill="#410EAD"/>
<path d="M313.825 344.97L196.304 344.901C182.169 344.891 170.715 333.458 170.715 319.361L170.775 25.5294C170.775 11.4229 182.249 0 196.394 0L313.915 0.0698338C328.05 0.0798101 339.504 11.5126 339.504 25.6092L339.444 319.441C339.444 333.548 327.97 344.98 313.825 344.97Z" fill="#263238"/>
<path d="M313.797 10.4651L291.009 10.4551C287.958 10.4551 285.477 13.039 285.477 16.2214V20.3416C285.477 23.524 282.996 26.1079 279.945 26.1079L235.53 26.078C232.479 26.078 229.998 23.4941 229.998 20.3017V16.1815C229.998 12.9991 227.517 10.4152 224.466 10.4052L216.453 10.3952L196.506 10.3853C186.603 10.3753 178.57 18.3863 178.57 28.2628L178.51 315.061C178.51 324.938 186.533 332.939 196.426 332.949L313.717 333.019C323.621 333.029 331.653 325.018 331.653 315.141L331.713 28.3326C331.713 18.486 323.691 10.4751 313.797 10.4651Z" fill="white"/>
<path d="M317.256 39.4265C317.256 39.5065 314.295 39.5865 310.634 39.6165C306.983 39.6465 304.012 39.6065 304.012 39.5365C304.012 39.4565 306.973 39.3765 310.634 39.3465C314.295 39.3165 317.256 39.3565 317.256 39.4265Z" fill="#263238"/>
<path d="M317.285 42.8081C317.285 42.8881 314.324 42.9681 310.673 42.9981C307.022 43.0281 304.051 42.9881 304.051 42.9181C304.051 42.8381 307.012 42.7581 310.673 42.7281C314.324 42.6881 317.285 42.7281 317.285 42.8081Z" fill="#263238"/>
<path d="M317.315 46.1804C317.315 46.2604 314.354 46.3404 310.693 46.3704C307.041 46.4004 304.07 46.3604 304.07 46.2904C304.07 46.2104 307.031 46.1304 310.693 46.1004C314.344 46.0704 317.315 46.1104 317.315 46.1804Z" fill="#263238"/>
<path d="M196.855 50.041C196.865 50.031 196.955 50.031 197.135 50.021C197.355 50.011 197.605 50.001 197.905 49.9911C198.626 49.9711 199.576 49.9512 200.736 49.9212L200.656 50.0011C200.646 49.3725 200.636 48.6942 200.626 47.9559C200.626 47.5768 200.596 47.2177 200.626 46.7787C200.706 46.3397 201.096 45.9507 201.577 45.9108C202.037 45.9008 202.437 45.8808 202.927 45.9008C203.437 45.9607 203.867 46.4495 203.857 46.9882C203.867 47.9459 203.877 48.9336 203.887 49.9711L203.757 49.8414C204.898 49.8315 206.098 49.8215 207.319 49.8015L207.179 49.9412C207.168 48.5046 207.148 47.0281 207.138 45.5117C207.138 45.1326 207.128 44.7535 207.128 44.3844C207.128 44.0352 206.918 43.8058 206.628 43.5464C206.098 43.0276 205.578 42.5188 205.068 42.01C204.558 41.5112 204.057 41.0124 203.567 40.5335C203.317 40.2941 203.077 40.0547 202.837 39.8152C202.587 39.5758 202.387 39.3264 202.097 39.2665C201.817 39.1867 201.507 39.2466 201.276 39.4262C201.056 39.6057 200.826 39.8651 200.616 40.0746C200.176 40.5136 199.746 40.9426 199.336 41.3616C198.535 42.1996 197.695 42.9578 197.085 43.6761C196.825 44.0751 196.925 44.564 196.905 45.0029C196.905 45.4419 196.905 45.8609 196.905 46.2599C196.905 47.0281 196.895 47.6965 196.895 48.2751C196.885 48.7939 196.885 49.2129 196.885 49.5621C196.875 49.8714 196.865 50.031 196.855 50.041C196.845 50.0509 196.845 49.9013 196.835 49.612C196.825 49.2728 196.815 48.8538 196.795 48.345C196.785 47.7664 196.765 47.088 196.745 46.3098C196.735 45.9108 196.725 45.4818 196.725 45.0328C196.725 44.8034 196.715 44.5739 196.715 44.3345C196.715 44.0851 196.775 43.8257 196.915 43.5863C197.575 42.7782 198.365 42.0699 199.176 41.2119C199.586 40.7929 200.006 40.3639 200.446 39.915C200.676 39.6955 200.866 39.4661 201.136 39.2366C201.426 39.0171 201.817 38.9373 202.167 39.0371C202.547 39.1169 202.797 39.4262 203.027 39.6456C203.267 39.8851 203.517 40.1245 203.757 40.3639C204.247 40.8428 204.758 41.3416 205.268 41.8404C205.778 42.3392 206.298 42.848 206.828 43.3668C206.958 43.4965 207.108 43.6062 207.229 43.7958C207.349 43.9754 207.409 44.1849 207.419 44.3944C207.419 44.7735 207.429 45.1526 207.429 45.5317C207.439 47.0481 207.449 48.5345 207.459 49.9611V50.1008H207.319C206.088 50.1108 204.898 50.1208 203.757 50.1208H203.627V49.9911C203.617 48.9635 203.617 47.9659 203.607 47.0082C203.627 46.5792 203.287 46.2001 202.887 46.1402C202.477 46.1203 201.997 46.1302 201.597 46.1402C201.216 46.1701 200.896 46.4794 200.826 46.8286C200.796 47.1877 200.816 47.6067 200.806 47.9659C200.806 48.7041 200.806 49.3825 200.806 50.011V50.0908H200.726C199.546 50.0809 198.585 50.0709 197.855 50.0709C197.565 50.0609 197.315 50.0609 197.105 50.0609C196.935 50.0509 196.855 50.041 196.855 50.041Z" fill="#263238"/>
<path d="M306.974 90.5753H201.127C195.835 90.5753 191.533 86.2954 191.533 81.008V77.4564C191.533 72.179 195.825 67.8892 201.127 67.8892H306.974C312.266 67.8892 316.567 72.169 316.567 77.4564V81.008C316.567 86.2954 312.276 90.5753 306.974 90.5753Z" fill="#F5F5F5"/>
<path d="M306.974 90.575C306.974 90.575 307.214 90.545 307.694 90.5151C308.165 90.4752 308.865 90.3754 309.755 90.116C310.635 89.8267 311.696 89.3678 312.766 88.5398C313.837 87.7317 314.897 86.5246 315.617 84.9383C315.967 84.1402 316.267 83.2623 316.367 82.2946C316.498 81.3369 316.447 80.3094 316.457 79.2419C316.437 78.1744 316.508 77.0471 316.307 75.9198C316.117 74.7925 315.707 73.6452 315.067 72.5977C313.797 70.4927 311.526 68.7368 308.755 68.228C307.384 67.9687 305.914 68.0884 304.403 68.0684C302.903 68.0684 301.362 68.0784 299.782 68.0784C274.523 68.0984 239.651 68.1183 201.127 68.1482C198.776 68.1482 196.455 69.0661 194.765 70.6523C193.054 72.2285 191.994 74.4333 191.804 76.7079C191.724 77.8352 191.784 79.0324 191.764 80.1797C191.734 81.3469 191.794 82.4642 192.114 83.5516C192.714 85.7165 194.135 87.622 195.985 88.8391C196.906 89.4576 197.946 89.8866 199.016 90.126C200.087 90.3754 201.187 90.3754 202.308 90.3754C204.538 90.3754 206.749 90.3754 208.93 90.3754C213.301 90.3754 217.573 90.3854 221.754 90.3854C238.45 90.4054 253.475 90.4253 266.11 90.4353C278.724 90.4652 288.938 90.4951 296.01 90.5051C299.532 90.5251 302.273 90.5351 304.143 90.545C305.064 90.555 305.764 90.565 306.254 90.565C306.734 90.555 306.974 90.575 306.974 90.575C306.974 90.575 306.734 90.5949 306.254 90.5949C305.764 90.6049 305.064 90.6049 304.143 90.6149C302.273 90.6248 299.532 90.6348 296.01 90.6548C288.938 90.6747 278.724 90.6947 266.11 90.7246C253.485 90.7346 238.45 90.7545 221.754 90.7745C217.583 90.7745 213.301 90.7845 208.93 90.7845C206.749 90.7845 204.538 90.7845 202.308 90.7845C201.207 90.7944 200.037 90.7944 198.916 90.5251C197.796 90.2757 196.706 89.8168 195.735 89.1783C193.795 87.9013 192.304 85.916 191.674 83.6414C191.334 82.5141 191.274 81.287 191.304 80.1397C191.324 78.9725 191.264 77.8352 191.344 76.6281C191.534 74.2437 192.654 71.9193 194.445 70.2732C196.225 68.6071 198.656 67.6494 201.127 67.6494C239.651 67.6793 274.523 67.6993 299.782 67.7193C301.362 67.7193 302.903 67.7292 304.403 67.7292C305.894 67.7592 307.374 67.6394 308.805 67.9188C311.666 68.4575 313.987 70.2832 315.277 72.448C315.937 73.5354 316.347 74.7027 316.538 75.8699C316.738 77.0371 316.658 78.1644 316.668 79.2319C316.658 80.2994 316.698 81.3269 316.558 82.3146C316.438 83.2923 316.127 84.2001 315.767 85.0082C315.017 86.6243 313.927 87.8315 312.836 88.6495C311.746 89.4776 310.665 89.9365 309.775 90.2058C308.875 90.4552 308.165 90.545 307.684 90.565C307.214 90.575 306.974 90.575 306.974 90.575Z" fill="#263238"/>
<path d="M308.905 78.6932C308.865 78.6932 308.865 78.3241 308.685 77.7155C308.515 77.107 308.085 76.2291 307.174 75.5606C306.294 74.8823 304.843 74.5131 303.453 75.0419C302.072 75.5207 300.882 76.9872 300.892 78.7032C300.872 80.4191 302.062 81.8856 303.453 82.3645C304.843 82.8832 306.294 82.5141 307.174 81.8457C308.085 81.1773 308.515 80.2994 308.685 79.6908C308.865 79.0623 308.865 78.6932 308.905 78.6932C308.925 78.6932 308.935 78.783 308.935 78.9626C308.945 79.1322 308.925 79.3915 308.865 79.7208C308.735 80.3692 308.345 81.3269 307.374 82.0951C306.444 82.8633 304.863 83.3122 303.303 82.7635C301.762 82.2547 300.412 80.6186 300.432 78.7032C300.412 76.7877 301.762 75.1516 303.303 74.6428C304.863 74.0841 306.444 74.5431 307.374 75.3112C308.335 76.0694 308.735 77.0371 308.865 77.6856C308.935 78.0148 308.945 78.2742 308.935 78.4438C308.935 78.6034 308.925 78.6932 308.905 78.6932Z" fill="#263238"/>
<path d="M311.177 85.7763C311.087 85.8661 310.176 85.038 309.156 83.9406C308.136 82.8432 307.385 81.8755 307.486 81.7957C307.576 81.7059 308.486 82.534 309.506 83.6314C310.517 84.7288 311.267 85.6865 311.177 85.7763Z" fill="#263238"/>
<path d="M208.42 76.9673H206.189V76.3887H211.321V76.9673H209.09V82.7136H208.42V76.9673Z" fill="#E0E0E0"/>
<path d="M215.901 80.5391H211.91C211.98 81.5367 212.74 82.1951 213.79 82.1951C214.371 82.1951 214.891 81.9857 215.251 81.5667L215.611 81.9857C215.181 82.4944 214.521 82.7638 213.77 82.7638C212.28 82.7638 211.27 81.7462 211.27 80.3396C211.27 78.9329 212.26 77.9253 213.6 77.9253C214.941 77.9253 215.911 78.9129 215.911 80.3396C215.911 80.3894 215.901 80.4593 215.901 80.5391ZM211.92 80.0602H215.301C215.221 79.1324 214.541 78.474 213.61 78.474C212.68 78.474 212 79.1224 211.92 80.0602Z" fill="#E0E0E0"/>
<path d="M220.134 82.7138L218.624 80.7285L217.103 82.7138H216.383L218.263 80.2696L216.473 77.9551H217.193L218.624 79.8207L220.054 77.9551H220.764L218.974 80.2696L220.874 82.7138H220.134Z" fill="#E0E0E0"/>
<path d="M224.445 82.4247C224.195 82.6541 223.815 82.7639 223.434 82.7639C222.534 82.7639 222.034 82.2551 222.034 81.3772V78.504H221.184V77.9653H222.034V76.9277H222.674V77.9653H224.125V78.504H222.674V81.3472C222.674 81.9059 222.964 82.2152 223.494 82.2152C223.754 82.2152 224.025 82.1354 224.205 81.9757L224.445 82.4247Z" fill="#E0E0E0"/>
<path d="M224.186 109.231H196.816V136.526H224.186V109.231Z" fill="#410EAD"/>
<path d="M276.824 112.173C276.824 112.303 267.67 112.403 256.386 112.403C245.092 112.403 235.949 112.303 235.949 112.173C235.949 112.044 245.102 111.944 256.386 111.944C267.67 111.944 276.824 112.044 276.824 112.173Z" fill="#410EAD"/>
<path d="M309.415 120.534C309.415 120.663 292.969 120.763 272.682 120.763C252.395 120.763 235.949 120.663 235.949 120.534C235.949 120.404 252.395 120.304 272.682 120.304C292.969 120.304 309.415 120.414 309.415 120.534Z" fill="#263238"/>
<path d="M308.555 126.51C308.555 126.639 292.299 126.739 272.252 126.739C252.195 126.739 235.949 126.639 235.949 126.51C235.949 126.38 252.195 126.28 272.252 126.28C292.299 126.28 308.555 126.38 308.555 126.51Z" fill="#263238"/>
<path d="M278.814 132.216C278.814 132.346 269.221 132.445 257.387 132.445C245.543 132.445 235.949 132.346 235.949 132.216C235.949 132.086 245.543 131.986 257.387 131.986C269.221 131.976 278.814 132.086 278.814 132.216Z" fill="#263238"/>
<path d="M224.186 154.702H196.816V181.997H224.186V154.702Z" fill="#410EAD"/>
<path d="M276.824 157.646C276.824 157.775 267.67 157.875 256.386 157.875C245.092 157.875 235.949 157.775 235.949 157.646C235.949 157.516 245.102 157.416 256.386 157.416C267.67 157.406 276.824 157.516 276.824 157.646Z" fill="#410EAD"/>
<path d="M309.415 166.006C309.415 166.135 292.969 166.235 272.682 166.235C252.395 166.235 235.949 166.135 235.949 166.006C235.949 165.876 252.395 165.776 272.682 165.776C292.969 165.776 309.415 165.876 309.415 166.006Z" fill="#263238"/>
<path d="M308.555 171.981C308.555 172.111 292.299 172.211 272.252 172.211C252.195 172.211 235.949 172.111 235.949 171.981C235.949 171.852 252.195 171.752 272.252 171.752C292.299 171.752 308.555 171.852 308.555 171.981Z" fill="#263238"/>
<path d="M278.814 177.678C278.814 177.808 269.221 177.908 257.387 177.908C245.543 177.908 235.949 177.808 235.949 177.678C235.949 177.549 245.543 177.449 257.387 177.449C269.221 177.449 278.814 177.549 278.814 177.678Z" fill="#263238"/>
<path d="M224.186 200.174H196.816V227.469H224.186V200.174Z" fill="#410EAD"/>
<path d="M276.824 203.107C276.824 203.237 267.67 203.337 256.386 203.337C245.092 203.337 235.949 203.237 235.949 203.107C235.949 202.978 245.102 202.878 256.386 202.878C267.67 202.878 276.824 202.978 276.824 203.107Z" fill="#410EAD"/>
<path d="M309.415 211.478C309.415 211.607 292.969 211.707 272.682 211.707C252.395 211.707 235.949 211.607 235.949 211.478C235.949 211.348 252.395 211.248 272.682 211.248C292.969 211.248 309.415 211.348 309.415 211.478Z" fill="#263238"/>
<path d="M308.555 217.453C308.555 217.583 292.299 217.683 272.252 217.683C252.195 217.683 235.949 217.583 235.949 217.453C235.949 217.323 252.195 217.224 272.252 217.224C292.299 217.224 308.555 217.323 308.555 217.453Z" fill="#263238"/>
<path d="M278.814 223.149C278.814 223.279 269.221 223.379 257.387 223.379C245.543 223.379 235.949 223.279 235.949 223.149C235.949 223.02 245.543 222.92 257.387 222.92C269.221 222.92 278.814 223.02 278.814 223.149Z" fill="#263238"/>
<path d="M224.186 245.646H196.816V272.942H224.186V245.646Z" fill="#410EAD"/>
<path d="M276.824 248.58C276.824 248.709 267.67 248.809 256.386 248.809C245.092 248.809 235.949 248.709 235.949 248.58C235.949 248.45 245.102 248.35 256.386 248.35C267.67 248.35 276.824 248.45 276.824 248.58Z" fill="#455A64"/>
<path d="M309.415 256.949C309.415 257.079 292.969 257.179 272.682 257.179C252.395 257.179 235.949 257.079 235.949 256.949C235.949 256.82 252.395 256.72 272.682 256.72C292.969 256.71 309.415 256.82 309.415 256.949Z" fill="#263238"/>
<path d="M308.555 262.925C308.555 263.055 292.299 263.155 272.252 263.155C252.195 263.155 235.949 263.055 235.949 262.925C235.949 262.796 252.195 262.696 272.252 262.696C292.299 262.686 308.555 262.796 308.555 262.925Z" fill="#263238"/>
<path d="M278.814 268.622C278.814 268.751 269.221 268.851 257.387 268.851C245.543 268.851 235.949 268.751 235.949 268.622C235.949 268.492 245.543 268.392 257.387 268.392C269.221 268.392 278.814 268.492 278.814 268.622Z" fill="#263238"/>
<path d="M224.186 291.108H196.816V318.404H224.186V291.108Z" fill="#E0E0E0"/>
<path d="M276.824 294.052C276.824 294.181 267.67 294.281 256.386 294.281C245.092 294.281 235.949 294.181 235.949 294.052C235.949 293.922 245.102 293.822 256.386 293.822C267.67 293.822 276.824 293.922 276.824 294.052Z" fill="#E0E0E0"/>
<path d="M309.415 302.412C309.415 302.542 292.969 302.642 272.682 302.642C252.395 302.642 235.949 302.542 235.949 302.412C235.949 302.282 252.395 302.183 272.682 302.183C292.969 302.183 309.415 302.292 309.415 302.412Z" fill="#EBEBEB"/>
<path d="M308.555 308.388C308.555 308.517 292.299 308.617 272.252 308.617C252.195 308.617 235.949 308.517 235.949 308.388C235.949 308.258 252.195 308.158 272.252 308.158C292.299 308.158 308.555 308.258 308.555 308.388Z" fill="#EBEBEB"/>
<path d="M278.814 314.094C278.814 314.224 269.221 314.324 257.387 314.324C245.543 314.324 235.949 314.224 235.949 314.094C235.949 313.965 245.543 313.865 257.387 313.865C269.221 313.855 278.814 313.965 278.814 314.094Z" fill="#EBEBEB"/>
<g opacity="0.3">
<path d="M224.186 245.646H196.816V272.942H224.186V245.646Z" fill="black"/>
</g>
<g opacity="0.3">
<path d="M224.186 154.702H196.816V181.997H224.186V154.702Z" fill="black"/>
</g>
<path d="M60.881 137C62.4553 137.572 63.6604 138.505 64.0686 140.285C64.3314 141.422 64.0686 142.446 63.5866 143.454C62.1361 146.479 60.7095 149.515 59.2286 152.522C58.9441 153.101 59.0179 153.446 59.4131 153.915C63.3564 158.589 65.3975 164.026 65.5647 170.2C65.6038 171.629 65.1956 172.066 63.7972 172.068C48.2565 172.072 32.7158 172.072 17.1752 172.068C15.7942 172.068 15.399 171.625 15.4337 170.18C15.5857 164.066 17.5964 158.676 21.4832 154.042C21.9783 153.45 22.0239 153.029 21.6852 152.348C20.3107 149.582 19.1142 146.72 17.6377 144.015C16.2089 141.398 16.5542 138.24 20.1261 137.002H21.6873C23.394 137.519 24.3864 138.752 25.1051 140.365C26.1213 142.651 27.2439 144.888 28.3253 147.145C28.4599 147.425 28.6228 147.688 28.7748 147.966C36.6417 144.013 44.4435 144.038 52.2671 147.984C53.5026 145.4 54.749 142.9 55.8955 140.354C56.6207 138.745 57.6022 137.499 59.3241 137.002H60.8854L60.881 137ZM62.8939 169.33C62.1339 156.593 51.1944 146.488 38.1899 147.846C26.1278 149.103 18.3651 159.657 18.1653 169.33H62.8961H62.8939ZM56.9226 151.278C58.4447 148.084 59.9408 144.99 61.3913 141.876C61.7604 141.082 61.4456 140.261 60.7703 139.891C60.045 139.495 59.1895 139.706 58.7748 140.543C57.3286 143.463 55.9367 146.41 54.5101 149.377C55.3114 150.009 56.0605 150.601 56.9204 151.278H56.9226ZM24.065 151.26C24.7968 150.695 25.4612 150.227 26.0627 149.686C26.2234 149.542 26.3124 149.11 26.2212 148.912C24.9422 146.165 23.6416 143.43 22.3149 140.708C21.8545 139.764 21.0142 139.466 20.2347 139.878C19.5007 140.265 19.225 141.129 19.644 142.019C21.0859 145.077 22.5581 148.117 24.0628 151.26H24.065Z" fill="#7B3FE4"/>
<path d="M58.6094 212.213C58.6094 215.306 58.6159 218.266 58.6094 221.227C58.6029 223.71 57.7126 225.758 55.5868 227.053C51.3135 229.655 46.265 226.608 46.176 221.385C46.1304 218.689 46.1673 215.994 46.1673 213.299C46.1673 212.978 46.1673 212.655 46.1673 212.273H34.8305C34.8305 212.627 34.8348 212.969 34.8305 213.312C34.7935 216.361 34.8695 219.415 34.6893 222.455C34.5091 225.502 31.847 227.868 28.7766 227.99C25.8018 228.108 23.0181 225.807 22.536 222.802C22.434 222.164 22.397 221.507 22.3949 220.857C22.3797 218.017 22.3884 215.177 22.3884 212.213C20.8684 212.213 19.407 212.213 17.9435 212.213C15.5181 212.213 15.416 212.108 15.416 209.597C15.416 198.816 15.416 188.035 15.416 177.254C15.416 175.455 15.7265 175.137 17.4832 175.137C28.4379 175.137 39.3904 175.137 50.3451 175.137C51.7413 175.137 52.3884 175.571 52.3775 176.488C52.3666 177.403 51.7109 177.835 50.3212 177.835C39.9745 177.835 29.6278 177.835 19.2811 177.835C18.9076 177.835 18.5363 177.835 18.0999 177.835V209.477C18.317 209.493 18.5645 209.526 18.8121 209.528C20.3147 209.533 21.8173 209.522 23.3199 209.535C24.5424 209.546 25.0006 210.009 25.0027 211.253C25.0114 214.601 25.0027 217.948 25.0071 221.293C25.0071 222.825 25.5369 224.075 26.894 224.841C29.1088 226.09 31.8057 224.69 32.1227 222.121C32.2052 221.449 32.1987 220.764 32.1987 220.083C32.2074 217.18 32.1966 214.278 32.2052 211.373C32.2096 209.958 32.6395 209.533 34.0357 209.531C38.3416 209.526 42.6475 209.526 46.9555 209.531C48.3821 209.531 48.7904 209.96 48.7925 211.454C48.7969 214.712 48.7838 217.97 48.799 221.229C48.8099 223.343 49.8305 224.77 51.5893 225.202C53.5414 225.68 55.5173 224.383 55.8821 222.362C55.9668 221.899 55.9885 221.42 55.9885 220.948C55.9972 217.75 55.9885 214.55 55.995 211.351C55.9972 209.985 56.4315 209.54 57.7582 209.533C59.4584 209.524 61.1586 209.533 62.9153 209.533V177.835C61.4908 177.835 60.0599 177.841 58.6289 177.83C58.1404 177.826 57.6431 177.826 57.1676 177.728C56.4727 177.588 56.147 177.078 56.1992 176.366C56.2469 175.691 56.6269 175.208 57.2848 175.197C59.6821 175.159 62.0793 175.159 64.4743 175.197C65.1323 175.208 65.4884 175.707 65.5665 176.37C65.5969 176.633 65.5861 176.902 65.5861 177.169C65.5861 188.157 65.5861 199.146 65.5861 210.136C65.5861 211.883 65.2691 212.21 63.571 212.213C61.9577 212.213 60.3465 212.213 58.6137 212.213H58.6094Z" fill="#7B3FE4"/>
<path d="M0.00563167 192.148C0.00563167 188.683 -0.00956809 185.217 0.00997446 181.75C0.0273456 178.565 1.75795 176.214 4.6611 175.362C8.19179 174.327 12.0004 176.995 12.3326 180.748C12.3934 181.425 12.4282 182.106 12.4282 182.787C12.4347 189.304 12.4238 195.82 12.4369 202.337C12.4412 204.585 11.805 206.521 10.0396 207.975C6.47204 210.913 0.984931 208.841 0.151115 204.222C0.0468882 203.644 0.0143172 203.045 0.0121459 202.455C-0.000882513 199.019 0.00563167 195.582 0.00563167 192.146V192.148ZM9.79428 192.308C9.79428 189.646 9.79862 186.982 9.79428 184.32C9.79211 183.256 9.82034 182.188 9.74217 181.129C9.60102 179.25 8.10711 177.872 6.27662 177.85C4.15082 177.823 2.63085 179.444 2.62651 181.803C2.61565 188.756 2.61999 195.709 2.62868 202.662C2.62868 203.1 2.67428 203.555 2.78502 203.975C3.49723 206.675 6.79993 207.572 8.73464 205.6C9.57063 204.747 9.80514 203.686 9.79862 202.517C9.78342 199.114 9.79428 195.711 9.79428 192.31V192.308Z" fill="#7B3FE4"/>
<path d="M80.9916 192.304C80.9916 195.767 81.0111 199.228 80.9872 202.691C80.9569 206.753 77.9126 209.684 74.1539 209.312C70.9467 208.994 68.5929 206.314 68.5669 202.749C68.5191 195.736 68.4865 188.722 68.5756 181.709C68.6407 176.468 73.7131 173.483 77.9886 176.092C80.0839 177.369 80.9764 179.386 80.9872 181.829C81.0046 185.322 80.9916 188.814 80.9916 192.306V192.304ZM78.3751 192.27C78.3751 188.898 78.3794 185.524 78.3685 182.152C78.3685 181.654 78.336 181.142 78.2339 180.657C77.8952 179.032 76.5098 177.89 74.8856 177.85C73.2158 177.808 71.7328 178.903 71.3397 180.521C71.2225 181.002 71.1921 181.516 71.1899 182.016C71.1812 188.82 71.1834 195.626 71.1856 202.43C71.1856 202.784 71.2095 203.14 71.2551 203.492C71.5786 206.014 74.219 207.427 76.4121 206.245C77.8148 205.491 78.3707 204.224 78.3729 202.657C78.3751 199.196 78.3729 195.733 78.3729 192.272L78.3751 192.27Z" fill="#7B3FE4"/>
<path d="M29.263 166.33C27.0351 166.313 25.1938 164.416 25.1895 162.137C25.1851 159.82 27.0569 157.933 29.3433 157.951C31.5799 157.966 33.4082 159.845 33.4125 162.133C33.4169 164.445 31.5343 166.351 29.263 166.33ZM30.7526 162.175C30.7721 161.318 30.1468 160.648 29.3195 160.637C28.5052 160.626 27.8299 161.309 27.832 162.137C27.832 162.914 28.4791 163.606 29.2391 163.644C30.0382 163.684 30.733 163.01 30.7526 162.175Z" fill="#7B3FE4"/>
<path d="M51.672 157.948C53.9497 157.941 55.8237 159.853 55.7976 162.161C55.7715 164.449 53.9324 166.321 51.7024 166.328C49.4376 166.334 47.5463 164.402 47.5745 162.103C47.6006 159.811 49.4332 157.955 51.672 157.946V157.948ZM53.1463 162.172C53.1659 161.364 52.5535 160.679 51.7697 160.637C50.9467 160.592 50.2497 161.249 50.228 162.092C50.2063 162.922 50.8881 163.644 51.6915 163.641C52.4602 163.641 53.1268 162.967 53.1463 162.172Z" fill="#7B3FE4"/>
</svg>
