<svg xmlns="http://www.w3.org/2000/svg" width="55.263" height="50.333" viewBox="0 0 55.263 50.333">
  <g id="iot" transform="translate(-621.147 -616.052)">
    <path id="Path_1886" data-name="Path 1886" d="M623.551,627.748a2.4,2.4,0,0,0-2.4,2.4v29.765a2.4,2.4,0,0,0,4.808,0V630.15a2.4,2.4,0,0,0-2.4-2.4Z" transform="translate(0 -3.663)" fill="#ffb300"/>
    <path id="Path_1887" data-name="Path 1887" d="M693.2,644.932a2.4,2.4,0,0,0,0-4.808h-5.952v-8.644a2.4,2.4,0,0,0-4.808,0v27.844a3.044,3.044,0,0,0,2.687,2.763h7.323a2.4,2.4,0,1,0,0-4.808h-5.2V644.932Z" transform="translate(-19.197 -4.08)" fill="#ffb300"/>
    <path id="Path_1888" data-name="Path 1888" d="M649.714,631.616a14.478,14.478,0,1,0,14.478,14.478,14.478,14.478,0,0,0-14.478-14.478Zm0,24.147a9.67,9.67,0,1,1,9.67-9.67A9.671,9.671,0,0,1,649.714,655.763Z" transform="translate(-4.413 -4.875)" fill="#ffb300"/>
    <path id="Path_1889" data-name="Path 1889" d="M654.15,645.78a4.749,4.749,0,1,0,4.749,4.75,4.75,4.75,0,0,0-4.749-4.75Zm-.057,4.75a.058.058,0,1,1,.116,0c0,.064-.118.064-.118,0Z" transform="translate(-8.848 -9.311)" fill="#ffb300"/>
    <path id="Path_1890" data-name="Path 1890" d="M661.512,675.536a20.359,20.359,0,0,1-25.489.049,2.4,2.4,0,1,0-3,3.752,25.169,25.169,0,0,0,31.513-.06,2.4,2.4,0,1,0-3.019-3.742Z" transform="translate(-3.434 -18.465)" fill="#ffb300"/>
    <path id="Path_1891" data-name="Path 1891" d="M634.525,625.842a2.394,2.394,0,0,0,1.5-.526,20.359,20.359,0,0,1,24.543-.667,2.4,2.4,0,0,0,2.8-3.91,25.173,25.173,0,0,0-30.344.823,2.4,2.4,0,0,0,1.5,4.28Z" transform="translate(-3.436)" fill="#ffb300"/>
  </g>
</svg>
