<svg xmlns="http://www.w3.org/2000/svg" width="70.312" height="36.497" viewBox="0 0 70.312 36.497">
  <g id="Group_271" data-name="Group 271" transform="translate(-2570.123 -646.528)">
    <path id="Blockchain_" data-name="Blockchain " d="M209.222,481.118H184.058a2.591,2.591,0,0,0-2.591,2.591v7.34H171.8v-12.8a2.594,2.594,0,0,0-2.549-3.054H144.091a2.591,2.591,0,0,0-2.591,2.591v25.394a2.591,2.591,0,0,0,2.591,2.591h25.122a2.591,2.591,0,0,0,2.591-2.591v-6.946h9.663v12.867a2.591,2.591,0,0,0,2.591,2.591H209.18a2.591,2.591,0,0,0,2.591-2.591V484.173a2.594,2.594,0,0,0-2.549-3.054Zm-42.591,19.467H146.68V480.378h19.942v10.67h-6a2.591,2.591,0,1,0,0,5.182h6Zm39.962,5.921H186.647V496.229h4.384a2.591,2.591,0,0,0,0-5.182h-4.384V486.3h19.946Z" transform="translate(2428.623 171.328)" fill="#fc7754"/>
  </g>
</svg>
