<svg xmlns="http://www.w3.org/2000/svg" width="48.885" height="55.724" viewBox="0 0 48.885 55.724">
  <g id="AI" transform="translate(-475.136 -291.211)">
    <path id="Path_2092" data-name="Path 2092" d="M495.153,346.934a2.165,2.165,0,0,1-2.028-1.408l-1.532-4.107c-2.819-.085-7.74-.359-9.622-1.254-2.074-.975-2.9-4.414-2.466-10.211-3.941-1.385-4.214-2.892-4.327-3.5-.114-.631-.326-1.8,4.27-12.016-.432-2.395-.914-9.333,5.874-16.32a23.821,23.821,0,0,1,19.327-6.767c1.009.106,11.881,1.451,16.53,11.215,4.272,8.972,3.761,16.192-1.751,23.95l2.966,11.366a2.164,2.164,0,0,1-4.187,1.092L514.724,325.6l.63-.836c5.121-6.792,5.66-12.5,1.924-20.338-3.7-7.77-12.99-8.765-13.085-8.776l-.116-.014a19.781,19.781,0,0,0-15.649,5.5c-6.358,6.547-4.708,12.676-4.635,12.93l.216.762-.32.741c-1.627,3.593-3.425,7.891-4.027,9.761a17.044,17.044,0,0,0,2.726.989l1.787.482-.2,1.84a24.451,24.451,0,0,0,.139,7.724,50.086,50.086,0,0,0,9.021.761l1.481.02,2.56,6.869a2.163,2.163,0,0,1-2.027,2.925Z" fill="#0092ff"/>
    <path id="Path_2093" data-name="Path 2093" d="M504.757,331.217v8.248a1.8,1.8,0,0,1-3.605,0v-6.172l-7.485-4.318v-3.829a3.427,3.427,0,1,1,3.605.007v1.737Z" transform="translate(-4.719 -7.704)" fill="#0092ff"/>
    <path id="Path_2094" data-name="Path 2094" d="M513.9,310.494a3.426,3.426,0,0,1-1.63,2.925V324.2a1.8,1.8,0,1,1-3.605,0V313.412A3.424,3.424,0,1,1,513.9,310.5Z" transform="translate(-8.902 -4.423)" fill="#0092ff"/>
    <path id="Path_2095" data-name="Path 2095" d="M527.133,322.248a3.382,3.382,0,0,1-1.63,2.906v3.821l-7.478,4.318v6.172a1.8,1.8,0,0,1-3.605,0v-8.248L521.9,326.9v-1.745a3.425,3.425,0,1,1,5.235-2.906Z" transform="translate(-10.959 -7.698)" fill="#0092ff"/>
  </g>
</svg>
