<svg width="30" height="22" viewBox="0 0 30 22" fill="none" xmlns="http://www.w3.org/2000/svg">
<path fill-rule="evenodd" clip-rule="evenodd" d="M16.1046 0.107326C15.8597 0.226845 15.659 0.46171 15.5836 0.716948C15.5552 0.812899 14.7911 5.36529 13.8855 10.8333C12.7303 17.8076 12.2453 20.8679 12.2605 21.0859C12.3375 22.1892 14.102 22.3437 14.4179 21.2747C14.4462 21.1788 15.2104 16.6264 16.116 11.1584C17.2711 4.18408 17.7562 1.12378 17.7409 0.905815C17.7161 0.55013 17.5188 0.271325 17.1692 0.0980069C16.8981 -0.036357 16.3898 -0.0319142 16.1046 0.107326ZM7.79753 3.19434C7.68861 3.21801 7.53034 3.28411 7.44581 3.34127C7.36122 3.39837 5.69303 5.00836 3.73872 6.91887C1.16378 9.43619 0.159015 10.4536 0.0895493 10.614C-0.0343759 10.9003 -0.0299793 11.132 0.104615 11.4059C0.174609 11.5484 1.29709 12.689 3.2769 14.6296C7.82104 19.0836 7.51158 18.8131 8.06262 18.8131C8.88032 18.8131 9.43512 17.9778 9.05068 17.3255C8.98619 17.216 7.53532 15.7584 5.82651 14.0863C4.1177 12.4142 2.71959 11.0235 2.71959 10.9958C2.71959 10.9682 4.1177 9.57749 5.82651 7.90536C7.53532 6.23329 8.98619 4.77566 9.05068 4.66622C9.48799 3.92407 8.69965 2.9981 7.79753 3.19434ZM21.7045 3.19174C21.0038 3.3456 20.6177 4.10097 20.9508 4.66622C21.0153 4.77566 22.4661 6.23329 24.1749 7.90536C25.8838 9.57749 27.2819 10.968 27.2819 10.9955C27.2819 11.023 25.8838 12.414 24.1749 14.0866C22.065 16.152 21.0249 17.2089 20.9337 17.3803C20.5868 18.0319 21.1349 18.8131 21.9388 18.8131C22.4905 18.8131 22.1922 19.0738 26.7255 14.6291C28.6996 12.6935 29.8274 11.5472 29.8971 11.4054C30.0343 11.1262 30.0343 10.8654 29.8971 10.5862C29.8274 10.4445 28.6996 9.29819 26.7255 7.3626C23.1506 3.85754 22.6431 3.37329 22.4456 3.27869C22.2419 3.18117 21.923 3.14373 21.7045 3.19174Z" fill="#27D2D2"/>
</svg>
