<svg id="swift" xmlns="http://www.w3.org/2000/svg" width="206.348" height="64.236" viewBox="0 0 206.348 64.236">
  <path id="Path_15058" data-name="Path 15058" d="M64.047,17.722V15.794a20.092,20.092,0,0,0-.416-4.232,14.489,14.489,0,0,0-1.323-4.043,13.527,13.527,0,0,0-5.857-5.781A14.511,14.511,0,0,0,52.409.416c-1.4-.227-2.834-.3-4.232-.416H14.623a17.631,17.631,0,0,0-3.136.3,14.6,14.6,0,0,0-3.023.907A12.881,12.881,0,0,0,4.156,4.156,11.559,11.559,0,0,0,1.738,7.595,15.835,15.835,0,0,0,.416,11.638c-.227,1.4-.3,2.834-.416,4.232v32.5A20.092,20.092,0,0,0,.416,52.6a14.489,14.489,0,0,0,1.323,4.043A13.694,13.694,0,0,0,7.595,62.5a15.835,15.835,0,0,0,4.043,1.323c1.4.189,2.834.3,4.232.416h32.5A20.092,20.092,0,0,0,52.6,63.82,14.488,14.488,0,0,0,56.641,62.5,13.694,13.694,0,0,0,62.5,56.641,15.835,15.835,0,0,0,63.82,52.6c.189-1.4.3-2.834.416-4.232V20.026a9.2,9.2,0,0,1-.189-2.3Z" fill="#f05138"/>
  <path id="Path_15059" data-name="Path 15059" d="M61.8,54.555h0a3.986,3.986,0,0,0,.189-.718C64.63,43.22,58.131,30.675,47.211,24.1c4.874,6.461,6.99,14.472,5.063,21.349-.189.6-.416,1.209-.6,1.814-.3-.189-.6-.416-.907-.6a138.769,138.769,0,0,1-22.747-18.7A130.307,130.307,0,0,0,41.883,45.336a147.257,147.257,0,0,1-19.649-14.85,32.537,32.537,0,0,0,2.721,3.741C30.245,40.8,37.009,49,45.095,55.273c-5.781,3.552-13.867,3.741-21.84,0A28.092,28.092,0,0,1,17.7,51.948,34.158,34.158,0,0,0,32.777,64.909c7.595,3.25,15.19,3.023,20.82.113h0a.111.111,0,0,0,.113-.113,2.893,2.893,0,0,0,.718-.416c2.721-1.4,8.086-2.834,10.92,2.721.378,1.4,1.927-5.895-3.552-12.658Z" transform="translate(-11.012 -14.994)" fill="#fff"/>
  <path id="Path_15060" data-name="Path 15060" d="M224.419,58.176c.491,4.459,4.761,7.368,10.618,7.368,5.555,0,9.6-2.947,9.6-6.99,0-3.439-2.418-5.555-8.086-6.99l-5.479-1.4c-7.784-1.927-11.336-5.479-11.336-11.336,0-7.179,6.272-12.129,15.19-12.129,8.691,0,14.774,4.95,14.963,12.243h-5.781c-.416-4.459-4.043-7.066-9.409-7.066S225.7,34.6,225.7,38.64c0,3.136,2.343,4.95,7.973,6.386l4.534,1.209c8.8,2.116,12.356,5.555,12.356,11.751,0,7.784-6.159,12.734-16.1,12.734-9.22,0-15.492-4.874-15.87-12.432l5.819-.113ZM287.03,69.927h-5.781l-6.764-23.465h-.113l-6.688,23.465H261.9l-8.5-30.758h5.555l5.97,24.674h.113l6.688-24.674h5.479l6.764,24.674h.113l5.97-24.674h5.555Zm12.243-39.07a3.382,3.382,0,1,1,3.325,3.325,3.193,3.193,0,0,1-3.325-3.325Zm.6,8.313h5.668V69.927h-5.668Zm42.4,4.534V39.169H336.3V31.8h-5.555v7.368H320.017V36.449c0-2.721,1.1-3.854,3.627-3.854a22.625,22.625,0,0,1,2.343.189V28.363a16.055,16.055,0,0,0-2.947-.189c-5.97,0-8.5,2.532-8.5,8.2v2.834h-4.232v4.534h4.232V69.927h5.555V43.7h10.731V61.916c0,5.97,2.229,8.2,8.2,8.2a31.03,31.03,0,0,0,3.325-.189V65.393a13.244,13.244,0,0,1-2.116.113c-2.645,0-3.854-1.209-3.854-4.043V43.7Z" transform="translate(-136 -16.611)"/>
</svg>
