<svg xmlns="http://www.w3.org/2000/svg" width="74.492" height="74.49" viewBox="0 0 74.492 74.49">
  <g id="Layer_2_1_" transform="translate(34.858 4.866)">
    <g id="Layer_1-2" transform="translate(-34.858 -4.866)">
      <path id="path8" d="M2.28,69.624c-20.009,0-36.981-16.893-37.137-37.039a36.679,36.679,0,0,1,10.72-26.2A37.315,37.315,0,0,1,2.378-4.866h0A36.84,36.84,0,0,1,28.5,5.991,36.87,36.87,0,0,1,39.633,32.036,37.408,37.408,0,0,1,2.574,69.624ZM2.4-2.926A35.376,35.376,0,0,0-22.726,7.754,34.71,34.71,0,0,0-32.917,32.565c.137,19.088,16.227,35.1,35.2,35.1h.255A35.476,35.476,0,0,0,37.693,32.055,34.922,34.922,0,0,0,27.15,7.382,34.849,34.849,0,0,0,2.4-2.926Z" transform="translate(34.858 4.866)" fill="#f1592a"/>
      <path id="path10" d="M-6.839,105.47V83.716h5.291v1.96h-2.8v17.893h2.8v1.96Z" transform="translate(15.189 -57.318)" fill="#f1592a"/>
      <path id="path12" d="M27.243,105.345c0,3.959-2.411,6.232-5.683,6.232s-5.448-2.548-5.448-6.016c0-3.645,2.273-6.193,5.625-6.193S27.243,102.033,27.243,105.345Zm-8.839.176c0,2.411,1.215,4.311,3.292,4.311s3.273-1.96,3.273-4.409c0-2.215-1.117-4.311-3.273-4.311s-3.312,2.038-3.312,4.468Z" transform="translate(-0.923 -68.306)" fill="#f1592a"/>
      <path id="path14" d="M59.647,100.02a16.925,16.925,0,0,1,3.136-.255,5.693,5.693,0,0,1,3.39.745,2.5,2.5,0,0,1,1.235,2.215,2.747,2.747,0,0,1-1.96,2.567h0a2.979,2.979,0,0,1,2.391,2.92,3.066,3.066,0,0,1-1.137,2.43c-.843.745-2.234,1.1-4.39,1.1a19.969,19.969,0,0,1-2.646-.157Zm2.136,4.684h1.1c1.489,0,2.332-.706,2.332-1.7s-.843-1.627-2.215-1.627a6.536,6.536,0,0,0-1.235.078Zm0,5.429a7.349,7.349,0,0,0,1.137.039c1.391,0,2.606-.529,2.606-1.96s-1.2-1.96-2.685-1.96H61.764v3.88Z" transform="translate(-31.484 -68.566)" fill="#f1592a"/>
      <path id="path16" d="M93,100.157H95.16v7.7c0,3.273-1.587,4.351-3.9,4.351a5.744,5.744,0,0,1-1.823-.314l.255-1.744a4.41,4.41,0,0,0,1.333.216c1.235,0,1.96-.568,1.96-2.606Z" transform="translate(-52.397 -68.86)" fill="#f1592a"/>
      <path id="path18" d="M118.652,121.662v1.489h-4.488v-1.489Z" transform="translate(-69.755 -83.956)" fill="#f1592a"/>
      <path id="path20" d="M142.966,111.191a7.4,7.4,0,0,1-3.057.529c-3.763,0-6.036-2.352-6.036-5.938a5.955,5.955,0,0,1,5.625-6.252,4.006,4.006,0,0,1,.686,0,6.781,6.781,0,0,1,2.92.529l-.47,1.725a5.534,5.534,0,0,0-2.313-.451c-2.411,0-4.135,1.509-4.135,4.351,0,2.587,1.529,4.272,4.116,4.272a6.033,6.033,0,0,0,2.352-.431Z" transform="translate(-83.584 -68.41)" fill="#f1592a"/>
      <path id="path22" d="M174.631,83.407v21.812H169.34v-1.96h2.8V85.347h-2.8v-1.96h5.291Z" transform="translate(-108.488 -57.088)" fill="#f1592a"/>
    </g>
  </g>
</svg>
