<svg xmlns="http://www.w3.org/2000/svg" width="88.918" height="65.245" viewBox="0 0 88.918 65.245">
  <g id="g819" transform="translate(23.646 32.624)">
    <path id="path6" d="M-11.425-32.624h76.7V20.263q-6.178,6.2-12.393,12.358H-23.646V-20.424C-19.589-24.506-15.5-28.558-11.425-32.624Z" transform="translate(0)" fill="#41cd52"/>
    <path id="path8" d="M27.765-.681c2.912-1.927,6.513-2.413,9.937-2.383,3.26.04,6.682.612,9.385,2.558a12.152,12.152,0,0,1,4.09,5.714A33.023,33.023,0,0,1,53,16.58,34.8,34.8,0,0,1,51.551,28.1,12.915,12.915,0,0,1,46.9,34.384c1.551,2.514,3.133,5.008,4.685,7.521-1.95.9-3.894,1.8-5.845,2.7q-2.491-4.111-4.981-8.224a25.169,25.169,0,0,1-6.825.09,13.9,13.9,0,0,1-7.573-2.979,12.222,12.222,0,0,1-3.31-5.325,34.138,34.138,0,0,1-1.488-10.439A36.787,36.787,0,0,1,22.928,6.412C23.816,3.667,25.284.928,27.765-.681Z" transform="translate(-27.859 -18.215)" fill="#fff"/>
    <path id="path10" d="M117,2.824q3.06,0,6.12,0c.006,2.7,0,5.395,0,8.093,2.608,0,5.216,0,7.824,0q-.066,2.627-.142,5.254c-2.606.006-5.21,0-7.816,0,.006,4.423-.013,8.846.01,13.268a9.124,9.124,0,0,0,.556,3.607,2.444,2.444,0,0,0,2.288,1.112c1.607-.006,3.212-.1,4.819-.129q.147,2.413.285,4.829c-3.2.537-6.551,1.18-9.727.175a4.757,4.757,0,0,1-3.128-2.606A18.749,18.749,0,0,1,117,29.265q-.006-6.545,0-13.088c-1.422,0-2.845,0-4.267,0q-.006-2.624,0-5.252c1.422-.006,2.843,0,4.265,0C117,8.219,116.994,5.523,117,2.824Z" transform="translate(-84.037 -21.843)" fill="#fff"/>
    <path id="path12" d="M45.2,11.139a11.889,11.889,0,0,1,5.934.56,6.464,6.464,0,0,1,3.489,3.266,21.2,21.2,0,0,1,1.647,7.212,48.177,48.177,0,0,1-.264,9.839,10.947,10.947,0,0,1-2.082,5.508,7.782,7.782,0,0,1-5.356,2.346,11.419,11.419,0,0,1-6.147-.983,5.961,5.961,0,0,1-2.567-2.617A15.741,15.741,0,0,1,38.583,32a36.811,36.811,0,0,1,.1-14.084,10.38,10.38,0,0,1,2.333-4.848A7.241,7.241,0,0,1,45.2,11.139Z" transform="translate(-37.957 -26.884)" fill="#41cd52"/>
  </g>
</svg>
