<svg xmlns="http://www.w3.org/2000/svg" xmlns:xlink="http://www.w3.org/1999/xlink" width="46.036" height="51.741" viewBox="0 0 46.036 51.741">
  <defs>
    <clipPath id="clip-path">
      <rect id="Rectangle_43804" data-name="Rectangle 43804" width="8.967" height="10.331" fill="#fff"/>
    </clipPath>
  </defs>
  <g id="Group_103722" data-name="Group 103722" transform="translate(-5200.963 -9316)">
    <path id="Path_63913" data-name="Path 63913" d="M118.865,131.851a7.611,7.611,0,0,0-6.609,11.389l13.193-7.6a7.609,7.609,0,0,0-6.584-3.793" transform="translate(5105.117 9202.407)" fill="#4187c5" fill-rule="evenodd"/>
    <path id="Path_63914" data-name="Path 63914" d="M7.73,25.871A15.289,15.289,0,0,1,36.256,18.22l9.215-5.306a4.4,4.4,0,0,0-1.666-1.623Q34.613,5.991,25.416.7a4.514,4.514,0,0,0-4.893.048C18.084,2.184,5.87,9.181,2.231,11.289A4.251,4.251,0,0,0,0,15.211q0,10.66,0,21.32a4.59,4.59,0,0,0,.538,2.255l9.217-5.307A15.218,15.218,0,0,1,7.73,25.871" transform="translate(5200.963 9316)" fill="#4187c5" fill-rule="evenodd"/>
    <path id="Path_63915" data-name="Path 63915" d="M118.5,190.173a7.611,7.611,0,0,0,13.242-.044l-6.563-3.8Z" transform="translate(5098.87 9155.475)" fill="#003e75"/>
    <path id="Path_63916" data-name="Path 63916" d="M26.367,249.287a15.281,15.281,0,0,1-13.263-7.68l-9.217,5.307a4.38,4.38,0,0,0,1.691,1.667c3.64,2.108,15.854,9.1,18.293,10.544a4.516,4.516,0,0,0,4.894.048q9.19-5.306,18.392-10.594a4.381,4.381,0,0,0,1.691-1.667l-9.2-5.331a15.283,15.283,0,0,1-13.278,7.706" transform="translate(5197.615 9107.872)" fill="#003e75"/>
    <path id="Path_63920" data-name="Path 63920" d="M77.746,95.445a7.613,7.613,0,1,1-.05-7.552l6.654-3.831a15.288,15.288,0,1,0,.04,15.233Z" transform="translate(5152.87 9250.159)" fill="#fff"/>
    <rect id="Rectangle_43802" data-name="Rectangle 43802" width="46.036" height="51.741" transform="translate(5200.963 9316)" fill="none"/>
    <g id="Group_103719" data-name="Group 103719">
      <path id="Path_63917" data-name="Path 63917" d="M189.681,95.555a4.566,4.566,0,0,0-.562-2.3l-22.383,12.888,22.41,12.982a4.6,4.6,0,0,0,.538-2.255s0-14.21,0-21.317m-7.622,11.517h-1.751v1.751h-1.751v-1.751h-1.751v-1.751h1.751V103.57h1.751v1.751h1.751Zm6.39,0H186.7v1.751h-1.752v-1.751H183.2v-1.751h1.751V103.57H186.7v1.751h1.751Z" transform="translate(5057.316 9235.657)" fill="#005192"/>
      <rect id="Rectangle_43803" data-name="Rectangle 43803" width="13" height="8" transform="translate(5233 9338)" fill="#095192"/>
    </g>
    <g id="Group_103721" data-name="Group 103721" transform="translate(5235.525 9336.936)">
      <g id="Group_103720" data-name="Group 103720" transform="translate(0 0)" clip-path="url(#clip-path)">
        <path id="Path_63921" data-name="Path 63921" d="M8.7,4.141H7.6a.113.113,0,0,0-.111.08l-.3,1.889c-.01.063.021.095.1.095h.841a.224.224,0,0,1,.254.254V7.522a.224.224,0,0,1-.254.254H7.03a.113.113,0,0,0-.111.08L6.57,10.093a.245.245,0,0,1-.27.238l-1.333-.016a.241.241,0,0,1-.19-.071.207.207,0,0,1-.033-.2l.334-2.174q.032-.095-.1-.095H3.127a.112.112,0,0,0-.111.08l-.35,2.237a.245.245,0,0,1-.27.238l-1.333-.016a.242.242,0,0,1-.19-.071.206.206,0,0,1-.032-.2l.333-2.174c.021-.063-.011-.095-.1-.095H.254A.224.224,0,0,1,0,7.522V6.459A.224.224,0,0,1,.254,6.2h1.08c.052,0,.09-.032.111-.095L1.73,4.237q.032-.1-.095-.1H.841a.224.224,0,0,1-.254-.254V2.809a.224.224,0,0,1,.254-.254H1.9a.113.113,0,0,0,.111-.08L2.365.237A.245.245,0,0,1,2.635,0L3.967.015a.241.241,0,0,1,.191.072.208.208,0,0,1,.032.2L3.856,2.459c-.01.063.021.1.1.1H5.809a.113.113,0,0,0,.111-.08L6.269.237A.245.245,0,0,1,6.539,0L7.871.015a.242.242,0,0,1,.191.072.208.208,0,0,1,.032.2L7.76,2.459c-.011.063.021.1.095.1h.857a.225.225,0,0,1,.254.254L8.951,3.888a.224.224,0,0,1-.254.254M5.348,6.11l.286-1.873c.021-.064-.011-.1-.1-.1H3.7a.113.113,0,0,0-.111.08l-.3,1.889c-.01.063.021.095.1.095H5.237c.053,0,.09-.032.111-.095" transform="translate(0 0)" fill="#fff"/>
      </g>
    </g>
  </g>
</svg>
