<svg xmlns="http://www.w3.org/2000/svg" xmlns:xlink="http://www.w3.org/1999/xlink" width="79.206" height="68.782" viewBox="0 0 79.206 68.782">
  <defs>
    <linearGradient id="linear-gradient" x1="-3.908" y1="2.512" x2="-3.908" y2="2.494" gradientUnits="objectBoundingBox">
      <stop offset="0" stop-color="#0994dc"/>
      <stop offset="0.35" stop-color="#66cef5"/>
      <stop offset="0.846" stop-color="#127bca"/>
      <stop offset="1" stop-color="#127bca"/>
    </linearGradient>
    <linearGradient id="linear-gradient-2" x1="-3.802" y1="2.482" x2="-3.802" y2="2.464" gradientUnits="objectBoundingBox">
      <stop offset="0" stop-color="#0e76bc"/>
      <stop offset="0.36" stop-color="#36aee8"/>
      <stop offset="0.846" stop-color="#00adef"/>
      <stop offset="1" stop-color="#00adef"/>
    </linearGradient>
    <linearGradient id="linear-gradient-3" x1="-4.574" y1="2.584" x2="-4.574" y2="2.597" gradientUnits="objectBoundingBox">
      <stop offset="0" stop-color="#1c63b7"/>
      <stop offset="0.5" stop-color="#33bdf2"/>
      <stop offset="1" stop-color="#33bdf2" stop-opacity="0.42"/>
    </linearGradient>
    <linearGradient id="linear-gradient-4" x1="-4.48" y1="2.529" x2="-4.48" y2="2.512" gradientUnits="objectBoundingBox">
      <stop offset="0" stop-color="#166ab8"/>
      <stop offset="0.4" stop-color="#36aee8"/>
      <stop offset="0.846" stop-color="#0798dd"/>
      <stop offset="1" stop-color="#0798dd"/>
    </linearGradient>
    <linearGradient id="linear-gradient-5" x1="-3.177" y1="2.36" x2="-3.177" y2="2.344" gradientUnits="objectBoundingBox">
      <stop offset="0" stop-color="#124379"/>
      <stop offset="0.39" stop-color="#1487cb"/>
      <stop offset="0.78" stop-color="#165197"/>
      <stop offset="1" stop-color="#165197"/>
    </linearGradient>
    <linearGradient id="linear-gradient-6" x1="-8.061" y1="6.71" x2="-8.009" y2="6.71" gradientUnits="objectBoundingBox">
      <stop offset="0" stop-color="#33bdf2" stop-opacity="0.698"/>
      <stop offset="1" stop-color="#1dacd8"/>
    </linearGradient>
    <linearGradient id="linear-gradient-7" x1="-3.363" y1="2.234" x2="-3.363" y2="2.243" gradientUnits="objectBoundingBox">
      <stop offset="0" stop-color="#136ab4"/>
      <stop offset="0.6" stop-color="#59caf5" stop-opacity="0.549"/>
      <stop offset="1" stop-color="#59caf5" stop-opacity="0.235"/>
    </linearGradient>
    <linearGradient id="linear-gradient-8" x1="-1.27" y1="2.21" x2="-1.256" y2="2.21" gradientUnits="objectBoundingBox">
      <stop offset="0" stop-color="#05a1e6" stop-opacity="0.247"/>
      <stop offset="1" stop-color="#05a1e6"/>
    </linearGradient>
    <linearGradient id="linear-gradient-9" x1="-2.153" y1="2.927" x2="-2.153" y2="2.945" gradientUnits="objectBoundingBox">
      <stop offset="0" stop-color="#318ed5"/>
      <stop offset="1" stop-color="#38a7e4"/>
    </linearGradient>
    <linearGradient id="linear-gradient-10" x1="-2.486" y1="3.086" x2="-2.486" y2="3.116" gradientUnits="objectBoundingBox">
      <stop offset="0" stop-color="#05a1e6"/>
      <stop offset="1" stop-color="#05a1e6" stop-opacity="0.549"/>
    </linearGradient>
    <linearGradient id="linear-gradient-11" x1="-2.199" y1="2.474" x2="-2.199" y2="2.487" gradientUnits="objectBoundingBox">
      <stop offset="0" stop-color="#1959a6"/>
      <stop offset="0.5" stop-color="#05a1e6"/>
      <stop offset="0.918" stop-color="#7ec5ea"/>
      <stop offset="1" stop-color="#7ec5ea"/>
    </linearGradient>
    <linearGradient id="linear-gradient-12" x1="-1.397" y1="2.206" x2="-1.4" y2="2.215" gradientUnits="objectBoundingBox">
      <stop offset="0" stop-color="#165096"/>
      <stop offset="1" stop-color="#0d82ca"/>
    </linearGradient>
    <linearGradient id="linear-gradient-13" x1="-8.266" y1="3.823" x2="-8.266" y2="3.837" gradientUnits="objectBoundingBox">
      <stop offset="0" stop-color="#05a1e6"/>
      <stop offset="0.874" stop-color="#0495d6"/>
      <stop offset="1" stop-color="#0495d6"/>
    </linearGradient>
    <linearGradient id="linear-gradient-14" x1="-4.49" y1="2.301" x2="-4.496" y2="2.29" gradientUnits="objectBoundingBox">
      <stop offset="0" stop-color="#38a7e4" stop-opacity="0.329"/>
      <stop offset="0.961" stop-color="#0e88d3"/>
      <stop offset="1" stop-color="#0e88d3"/>
    </linearGradient>
    <linearGradient id="linear-gradient-15" x1="-3.687" y1="2.259" x2="-3.687" y2="2.249" gradientUnits="objectBoundingBox">
      <stop offset="0" stop-color="#168cd4"/>
      <stop offset="0.5" stop-color="#1c87cc"/>
      <stop offset="1" stop-color="#154b8d"/>
    </linearGradient>
    <linearGradient id="linear-gradient-16" x1="-4.904" y1="50.848" x2="-4.883" y2="51.376" gradientUnits="objectBoundingBox">
      <stop offset="0" stop-color="#97d6ee"/>
      <stop offset="0.703" stop-color="#55c1ea"/>
      <stop offset="1" stop-color="#55c1ea"/>
    </linearGradient>
    <linearGradient id="linear-gradient-17" x1="-6.631" y1="29.243" x2="-6.605" y2="29.096" gradientUnits="objectBoundingBox">
      <stop offset="0" stop-color="#7accec"/>
      <stop offset="1" stop-color="#3fb7ed"/>
    </linearGradient>
    <linearGradient id="linear-gradient-18" x1="-4.879" y1="2.746" x2="-4.879" y2="2.731" gradientUnits="objectBoundingBox">
      <stop offset="0" stop-color="#1da7e7"/>
      <stop offset="1" stop-color="#37abe7" stop-opacity="0"/>
    </linearGradient>
  </defs>
  <g id="wpf" transform="translate(-0.11)">
    <g id="Group_2640" data-name="Group 2640" transform="translate(0.11)">
      <g id="Group_2638" data-name="Group 2638" transform="translate(11.832 36.539)">
        <path id="Path_15061" data-name="Path 15061" d="M222.183,24.92a.376.376,0,0,0-.11-.3.777.777,0,0,0-.44-.11h-.3v.8h.358c.358,0,.5-.138.5-.385Zm.468,1.65h-.385l-.248-.55q-.206-.413-.413-.413h-.22v.99h-.358V24.26h.66a.9.9,0,0,1,.66.193.513.513,0,0,1,.193.44.56.56,0,0,1-.165.413.747.747,0,0,1-.44.22h0c.138.028.248.165.385.44l.33.605Zm.715-1.155a1.634,1.634,0,1,0-1.623,1.623,1.669,1.669,0,0,0,1.155-.468,1.476,1.476,0,0,0,.468-1.155Zm.22,0a1.721,1.721,0,0,1-.523,1.293,1.929,1.929,0,0,1-2.64,0,1.68,1.68,0,0,1-.523-1.293,1.721,1.721,0,0,1,.523-1.293,1.782,1.782,0,0,1,1.32-.523,1.807,1.807,0,0,1,1.293.5,1.706,1.706,0,0,1,.55,1.32Z" transform="translate(-163.934 -21.565)"/>
        <path id="Path_15062" data-name="Path 15062" d="M26.218,28.426H25.091V21.963c0-.523.028-1.128.083-1.87h-.028a7.036,7.036,0,0,1-.275.935l-3.273,7.4h-.55l-3.3-7.343a4.618,4.618,0,0,1-.275-.99h-.028c.028.385.055,1.018.055,1.87v6.463H16.4V18.8h1.485l2.943,6.71a9.917,9.917,0,0,1,.44,1.155h.055c.193-.523.358-.908.468-1.183L24.816,18.8h1.4v9.626Z" transform="translate(-16.4 -18.085)"/>
        <path id="Path_15063" data-name="Path 15063" d="M61.393,27.483h-1.1V20.608h1.1v6.875Zm.165-9.323a.751.751,0,0,1-.22.523.7.7,0,0,1-.523.22.663.663,0,0,1-.5-.193.7.7,0,0,1-.22-.523.689.689,0,0,1,.22-.5.663.663,0,0,1,.5-.193.726.726,0,0,1,.523.193.465.465,0,0,1,.22.468Z" transform="translate(-48.082 -17.142)"/>
        <path id="Path_15064" data-name="Path 15064" d="M76.143,34.938a3.482,3.482,0,0,1-1.9.5,3.092,3.092,0,0,1-2.393-.99A3.52,3.52,0,0,1,71,31.968a3.871,3.871,0,0,1,.963-2.723A3.4,3.4,0,0,1,74.575,28.2a3.326,3.326,0,0,1,1.6.358v1.128a2.829,2.829,0,0,0-1.65-.55,2.189,2.189,0,0,0-1.705.743,3.22,3.22,0,0,0-.055,3.905,2.16,2.16,0,0,0,1.705.688,2.9,2.9,0,0,0,1.705-.578v1.045Z" transform="translate(-55.984 -24.9)"/>
        <path id="Path_15065" data-name="Path 15065" d="M99.3,29.638a1.437,1.437,0,0,0-.853-.22,1.352,1.352,0,0,0-1.128.605,2.911,2.911,0,0,0-.523,1.87v3.52H95.7V28.538h1.1v1.4h.028a2.48,2.48,0,0,1,.743-1.155,1.634,1.634,0,0,1,1.045-.385,1.919,1.919,0,0,1,.66.083l.028,1.155Z" transform="translate(-73.891 -25.045)"/>
        <path id="Path_15066" data-name="Path 15066" d="M116.238,31.83a2.922,2.922,0,0,0-.605-2.008,2.055,2.055,0,0,0-1.623-.66,2.155,2.155,0,0,0-1.65.66,2.877,2.877,0,0,0-.66,2.035,2.8,2.8,0,0,0,.633,1.925,2.1,2.1,0,0,0,1.678.688,2.025,2.025,0,0,0,1.65-.715,2.874,2.874,0,0,0,.578-1.925m1.128-.055a3.648,3.648,0,0,1-.935,2.64,3.293,3.293,0,0,1-2.5.99,3.131,3.131,0,0,1-2.448-.99,3.63,3.63,0,0,1-.88-2.53,3.635,3.635,0,0,1,1.018-2.778,3.455,3.455,0,0,1,2.5-.908,3.086,3.086,0,0,1,2.393.963,3.74,3.74,0,0,1,.853,2.613" transform="translate(-84.693 -24.9)"/>
        <path id="Path_15067" data-name="Path 15067" d="M143.935,33.4a1.861,1.861,0,0,1-.633,1.4,2.761,2.761,0,0,1-1.9.605,3.4,3.4,0,0,1-1.705-.413V33.81a2.768,2.768,0,0,0,1.788.66c.88,0,1.32-.33,1.32-.963a.761.761,0,0,0-.3-.66,5.206,5.206,0,0,0-1.128-.633,4.011,4.011,0,0,1-1.238-.77,1.886,1.886,0,0,1,.248-2.668,2.61,2.61,0,0,1,1.76-.578,3.08,3.08,0,0,1,1.458.33v1.1a2.539,2.539,0,0,0-1.568-.5,1.3,1.3,0,0,0-.88.275.872.872,0,0,0-.33.688.9.9,0,0,0,.275.715,3.661,3.661,0,0,0,1.045.578,3.717,3.717,0,0,1,1.265.77,1.6,1.6,0,0,1,.523,1.238" transform="translate(-105.79 -24.9)"/>
        <path id="Path_15068" data-name="Path 15068" d="M164.71,31.83a2.922,2.922,0,0,0-.605-2.008,2.055,2.055,0,0,0-1.623-.66,2.155,2.155,0,0,0-1.65.66,2.877,2.877,0,0,0-.66,2.035,2.8,2.8,0,0,0,.633,1.925,2.14,2.14,0,0,0,1.678.688,2.025,2.025,0,0,0,1.65-.715,2.736,2.736,0,0,0,.578-1.925m1.155-.055a3.648,3.648,0,0,1-.935,2.64,3.252,3.252,0,0,1-2.5.99,3.131,3.131,0,0,1-2.448-.99,3.63,3.63,0,0,1-.88-2.53,3.635,3.635,0,0,1,1.018-2.778,3.455,3.455,0,0,1,2.5-.908,3.086,3.086,0,0,1,2.393.963,3.875,3.875,0,0,1,.853,2.613" transform="translate(-119.855 -24.9)"/>
        <path id="Path_15069" data-name="Path 15069" d="M190.28,17.328a1.652,1.652,0,0,0-.743-.193c-.77,0-1.155.5-1.155,1.458v1.073h1.623V20.6h-1.623v5.94h-1.1V20.6H186.1v-.935h1.183V18.538A2.227,2.227,0,0,1,188,16.75a2.077,2.077,0,0,1,1.485-.55,2.14,2.14,0,0,1,.8.11v1.018Z" transform="translate(-139.429 -16.2)"/>
        <path id="Path_15070" data-name="Path 15070" d="M206.515,30.256a2.188,2.188,0,0,1-1.045.22c-1.21,0-1.788-.688-1.788-2.035V24.37H202.5v-.935h1.183V21.758c.358-.11.715-.22,1.1-.358v2.035h1.733v.935h-1.733v3.878a1.752,1.752,0,0,0,.22.99.976.976,0,0,0,.8.3,1.226,1.226,0,0,0,.715-.22v.935Z" transform="translate(-151.319 -19.97)"/>
      </g>
      <g id="Group_2639" data-name="Group 2639">
        <path id="Path_15071" data-name="Path 15071" d="M99.4,20.645c2.86,8.746,3.933,24.312,12.293,24.312h0a9.328,9.328,0,0,0,1.925-.193h0C106.028,43,105.12,27.576,100.5,19.6h0c-.385.358-.743.688-1.1,1.045" transform="translate(-71.871 -14.21)" fill="url(#linear-gradient)"/>
        <path id="Path_15072" data-name="Path 15072" d="M103.3,17.525c4.62,7.976,5.528,23.377,13.118,25.164h0a10.836,10.836,0,0,0,1.788-.5h0c-6.82-3.328-8.691-18.289-13.943-25.494h0c-.3.248-.633.523-.963.825" transform="translate(-74.698 -12.107)" fill="url(#linear-gradient-2)"/>
        <path id="Path_15073" data-name="Path 15073" d="M108.968,2.4a9.328,9.328,0,0,0-1.925.193A15.108,15.108,0,0,0,101.9,4.738a11.133,11.133,0,0,1,1.348,1.6,18.936,18.936,0,0,1,5.253-3.19,12.973,12.973,0,0,1,1.953-.55,6.454,6.454,0,0,0-1.485-.193" transform="translate(-73.683 -1.74)" fill="#14559a"/>
        <path id="Path_15074" data-name="Path 15074" d="M145.073,28.819a25.094,25.094,0,0,0,2.09-1.843C144.276,18.286,143.231,2.5,134.815,2.5A10.128,10.128,0,0,0,133,2.665c7.673,1.9,8.663,18.564,12.073,26.154" transform="translate(-96.23 -1.812)" fill="url(#linear-gradient-3)"/>
        <path id="Path_15075" data-name="Path 15075" d="M129.085,2.593A6.454,6.454,0,0,0,127.6,2.4h3.3a13.551,13.551,0,0,0-1.815.193" transform="translate(-92.315 -1.74)" fill="#3092c4"/>
        <path id="Path_15076" data-name="Path 15076" d="M162.77,102.218a11.086,11.086,0,0,1-.935-1.018,17.622,17.622,0,0,1-4.235,2.255,7.562,7.562,0,0,0,1.568.55,7.221,7.221,0,0,0,1.348.138,9.065,9.065,0,0,0,3.878-.688,7.051,7.051,0,0,1-1.623-1.238" transform="translate(-114.065 -73.368)" fill="#1969bc"/>
        <path id="Path_15077" data-name="Path 15077" d="M125.9,3.65c6.848,3.575,7.453,19.829,12.926,26.429h0c.358-.248.743-.523,1.1-.825h0C136.488,21.664,135.526,5,127.853,3.1h0a11,11,0,0,0-1.953.55" transform="translate(-91.083 -2.247)" fill="url(#linear-gradient-4)"/>
        <path id="Path_15078" data-name="Path 15078" d="M106.8,8.29c5.253,7.205,7.15,22.167,13.943,25.494h0a18.149,18.149,0,0,0,4.235-2.255h0c-5.473-6.6-6.078-22.854-12.926-26.429h0A18.3,18.3,0,0,0,106.8,8.29" transform="translate(-77.235 -3.697)" fill="url(#linear-gradient-5)"/>
        <path id="Path_15079" data-name="Path 15079" d="M80.1,17.045a78.938,78.938,0,0,0-2.7,7.508,57.467,57.467,0,0,1,6.05-7.316c-.275-.853-.578-1.623-.88-2.338A25.075,25.075,0,0,0,80.1,17.045" transform="translate(-55.921 -10.802)" fill="url(#linear-gradient-6)"/>
        <path id="Path_15080" data-name="Path 15080" d="M96.843,13c-.248.165-.5.358-.743.55a18.963,18.963,0,0,1,.88,2.338c.358-.358.715-.715,1.1-1.045A15.362,15.362,0,0,0,96.843,13" transform="translate(-69.478 -9.425)" fill="#2b74b1"/>
        <path id="Path_15081" data-name="Path 15081" d="M99.653,10.9c-.275.193-.578.385-.853.578a15.364,15.364,0,0,1,1.238,1.843c.33-.3.633-.578.963-.825a9.6,9.6,0,0,0-1.348-1.6" transform="translate(-71.436 -7.902)" fill="#125a9e"/>
        <path id="Path_15082" data-name="Path 15082" d="M218.161,0c-3.878,14.961-11.991,26.979-18.784,30h0c-.11.055-.248.11-.358.165-.027,0-.027,0-.055.028a.165.165,0,0,1-.11.028c-.028,0-.028,0-.055.028-.055.028-.11.028-.165.055-.028,0-.055.028-.083.028s-.055.028-.083.028-.055.028-.083.028-.055.028-.083.028c-.055.028-.082.028-.137.055-.027,0-.027,0-.055.028-.028,0-.055.028-.11.028-.027,0-.055,0-.055.028-.027,0-.083.028-.11.028-.055,0-.083.028-.138.028a2.833,2.833,0,0,0,.963.165c6.435,0,12.926-11.551,23.679-30.747L218.161,0Z" transform="translate(-143.136)" fill="url(#linear-gradient-7)"/>
        <path id="Path_15083" data-name="Path 15083" d="M19.376,3.077h0L19.4,3.05c.028,0,.083-.028.11-.028h.055c.028,0,.083-.028.11-.028h0a.977.977,0,0,1,.248-.11h.028c.028,0,.083-.028.11-.028s.028,0,.055-.028c.028,0,.083-.028.11-.028h.028c.11-.028.248-.055.358-.083h.055c.028,0,.055-.028.11-.028.028,0,.028,0,.055-.028a.208.208,0,0,0,.11-.028h0a.606.606,0,0,1,.22-.028h.055a.208.208,0,0,0,.11-.028h.055a.1.1,0,0,0,.083-.028h.055c.083,0,.165-.028.22-.028a5.523,5.523,0,0,0-.688-.028C13.793,2.472,3.81,15.948-.7,33.357H.18C1.61,30.8,2.9,28.352,4.113,26.069,7.248,13.748,13.683,5.305,19.376,3.077" transform="translate(0.7 -1.812)" fill="url(#linear-gradient-8)"/>
        <path id="Path_15084" data-name="Path 15084" d="M87.2,14.145a28.216,28.216,0,0,1,2.475-2.118c-.193-.413-.385-.8-.578-1.128a12.016,12.016,0,0,0-1.9,3.245" transform="translate(-63.026 -7.902)" fill="#0d82ca"/>
        <path id="Path_15085" data-name="Path 15085" d="M89.083,4.855a5.946,5.946,0,0,1,1.293,1.6,2.738,2.738,0,0,1,.385-.413A8.492,8.492,0,0,0,89,4.8c.028.028.055.028.083.055h0" transform="translate(-64.331 -3.48)" fill="#0d82ca"/>
        <path id="Path_15086" data-name="Path 15086" d="M16.7,27.619C23.328,14.858,26.463,6.8,31.991,4.6h0C26.3,6.855,19.863,15.271,16.7,27.619" transform="translate(-11.915 -3.335)" fill="url(#linear-gradient-9)"/>
        <path id="Path_15087" data-name="Path 15087" d="M94.385,9.3c-.138.138-.248.275-.385.413a7.239,7.239,0,0,1,.578,1.128c.248-.193.5-.358.743-.55-.3-.33-.605-.688-.935-.99" transform="translate(-67.956 -6.742)" fill="#127bca"/>
        <path id="Path_15088" data-name="Path 15088" d="M26.25,67.666h0a.165.165,0,0,0-.11.027h-.165a.761.761,0,0,0-.248.028H25.7c6.683-.193,9.763-3.548,11.276-8.416,1.155-3.685,2.09-6.793,2.943-9.406a136.262,136.262,0,0,0-8.443,13.916,6.959,6.959,0,0,1-5.225,3.85" transform="translate(-18.439 -36.177)" fill="url(#linear-gradient-10)"/>
        <path id="Path_15089" data-name="Path 15089" d="M27.7,47.947h0a6.94,6.94,0,0,0,5.225-3.823h0a126.115,126.115,0,0,1,8.443-13.916h0a78.938,78.938,0,0,1,2.7-7.508h0C38.453,28.008,32.87,36.836,27.7,47.947" transform="translate(-19.889 -16.457)" fill="url(#linear-gradient-11)"/>
        <path id="Path_15090" data-name="Path 15090" d="M6.333,88.3C5.15,90.583,3.858,93,2.4,95.588H4.93a68.518,68.518,0,0,1,1.4-7.288" transform="translate(-1.547 -64.016)" fill="#05a1e6"/>
        <path id="Path_15091" data-name="Path 15091" d="M30.439,2.6h-.193a.208.208,0,0,0-.11.028h-.055c-.083,0-.138.028-.22.028h-.028c-.028,0-.083.028-.11.028h0c-.028,0-.028,0-.055.028h0c-.028,0-.083.028-.11.028H29.5c-.11.028-.248.055-.358.083h-.028c-.028,0-.083.028-.11.028h0c-.028,0-.028,0-.055.028h0c-.028,0-.083.028-.11.028h-.028a.28.28,0,0,1-.22.138h0c-.028,0-.083.028-.11.028h0c-.028,0-.028,0-.055.028h0c-.028,0-.083.028-.11.028h0a.027.027,0,0,0-.028.028h0C22.766,5.323,19.631,13.408,13,26.142h0a62.257,62.257,0,0,0-1.4,7.288h3.933a.761.761,0,0,0,.248-.028h.165a.165.165,0,0,0,.11-.028h0C21.226,22.264,26.836,13.436,32.419,8.1h0a13.3,13.3,0,0,1,1.87-3.245h0A5.946,5.946,0,0,0,33,3.26h-.028c-.028,0-.055-.028-.083-.028h0a.1.1,0,0,0-.083-.028h0c-.028,0-.055-.028-.083-.028h0c-.028,0-.055-.028-.083-.028h0c-.028,0-.055-.028-.083-.028h0c-.055-.028-.11-.028-.138-.055h0a.1.1,0,0,1-.055-.028h0a.209.209,0,0,1-.11-.055h0c-.028,0-.028,0-.055-.028h0c-.055-.028-.11-.028-.165-.055h0c-.055-.028-.11-.028-.165-.055h-.028c-.055-.028-.11-.028-.138-.055h-.028a3.111,3.111,0,0,0-.413-.11h-.028c-.055,0-.11-.028-.165-.028h-.028c-.055,0-.138-.028-.193-.028h-.028a.206.206,0,0,1-.138-.028h0a.748.748,0,0,1-.248,0" transform="translate(-8.217 -1.885)" fill="url(#linear-gradient-12)"/>
        <path id="Path_15092" data-name="Path 15092" d="M208.59,10.018c-1.265,4.07-2.31,7.453-3.19,10.2h0A111.627,111.627,0,0,0,215.6,2.4h0c-3.823,1.21-5.885,3.96-7.013,7.618" transform="translate(-148.719 -1.74)" fill="url(#linear-gradient-13)"/>
        <path id="Path_15093" data-name="Path 15093" d="M204.323,29.757c-.165.083-.358.165-.523.248,6.793-3.025,14.906-15.044,18.784-30h-.8c-8.911,15.924-11.771,26.594-17.464,29.757" transform="translate(-147.559)" fill="url(#linear-gradient-14)"/>
        <path id="Path_15094" data-name="Path 15094" d="M185.9,77.128c1.485-1.815,2.7-4.868,4.318-9.928a47.46,47.46,0,0,1-5.72,6.655v.028a16.4,16.4,0,0,0,1.4,3.245" transform="translate(-133.566 -48.719)" fill="#079ae1"/>
        <path id="Path_15095" data-name="Path 15095" d="M184.308,103.3a6.528,6.528,0,0,1-1.623,1.43c-.137.082-.248.137-.385.22a6.476,6.476,0,0,0,2.063.66h0c.11,0,.22.027.33.027h1.018a.248.248,0,0,0,.138-.027h.027c.055,0,.083-.028.138-.028h.055c.055,0,.11-.027.165-.027h.028c.11-.028.22-.028.33-.055a4.608,4.608,0,0,1-2.283-2.2" transform="translate(-131.972 -74.891)" fill="#1969bc"/>
        <path id="Path_15096" data-name="Path 15096" d="M144.1,109.988a9.328,9.328,0,0,0,1.925-.193,10.836,10.836,0,0,0,1.788-.5,7.563,7.563,0,0,0,1.568.55,7.221,7.221,0,0,0,1.348.138Z" transform="translate(-104.277 -79.24)" fill="#1e5cb3"/>
        <path id="Path_15097" data-name="Path 15097" d="M168.2,109.988a9.066,9.066,0,0,0,3.878-.688,6.476,6.476,0,0,0,2.063.66h0c.11,0,.22.028.33.028H168.2Z" transform="translate(-121.749 -79.24)" fill="#1e5cb3"/>
        <path id="Path_15098" data-name="Path 15098" d="M192.4,111.438h.605a.248.248,0,0,0,.137-.027h.028c.055,0,.083-.028.138-.028h.055c.055,0,.11-.027.165-.027h.027c.11-.028.22-.028.33-.055h0a2.833,2.833,0,0,0,.963.165l-2.448-.028Z" transform="translate(-139.294 -80.69)" fill="#1d60b5"/>
        <path id="Path_15099" data-name="Path 15099" d="M176.09,91.6h0c-.688.66-1.4,1.265-2.09,1.815-.358.3-.715.55-1.1.825.3.358.633.715.935,1.018a7.553,7.553,0,0,0,1.623,1.21,1.754,1.754,0,0,0,.385-.22,6.078,6.078,0,0,0,1.623-1.43A21.3,21.3,0,0,1,176.09,91.6" transform="translate(-125.157 -66.408)" fill="#175fab"/>
        <path id="Path_15100" data-name="Path 15100" d="M209.089,0h-3.933c-.22,0-.413.028-.633.028h0c-.11.22-.193.413-.3.633h0a109.238,109.238,0,0,1-10.2,17.821h0c-1.65,5.06-2.86,8.113-4.318,9.928h0a4.6,4.6,0,0,0,2.228,2.145h0a.1.1,0,0,0,.083-.028h.083c.028,0,.083-.028.11-.028h0c.028,0,.055,0,.055-.028h0c.027,0,.055-.028.11-.028h0c.027,0,.027,0,.055-.028h0c.055-.028.11-.028.138-.055h0c.027,0,.055-.028.083-.028h0c.027,0,.055-.028.082-.028h0c.028,0,.055-.028.083-.028h0c.028,0,.055-.028.083-.028h0c.055-.028.11-.028.165-.055h0c.027,0,.027-.028.055-.028h0a.165.165,0,0,1,.11-.028h0a.085.085,0,0,0,.055-.028h0c.11-.055.248-.11.358-.165h0c.165-.083.358-.165.523-.248h0c5.638-3.108,8.5-13.778,17.409-29.7h-2.475Z" transform="translate(-137.336)" fill="url(#linear-gradient-15)"/>
        <path id="Path_15101" data-name="Path 15101" d="M80.9,2.455h.165c.055,0,.138.028.193.028h.027c.055,0,.11.028.165.028h.028a2.822,2.822,0,0,0,.385.11h.028a.21.21,0,0,1,.138.055h.027c.055.028.11.028.165.055h0c.055.028.11.028.165.055.027,0,.027.028.055.028.083.028.138.028.165.055.027,0,.027.028.055.028.055.028.11.028.138.055.027,0,.055.028.082.028a.1.1,0,0,0,.083.028c.028,0,.055.028.083.028a.1.1,0,0,0,.083.028A6.825,6.825,0,0,1,84.888,4.3a6.3,6.3,0,0,1,.633-.578A6.9,6.9,0,0,0,81.478,2.4a4.527,4.527,0,0,1-.578.055" transform="translate(-58.458 -1.74)" fill="#7dcbec"/>
        <path id="Path_15102" data-name="Path 15102" d="M95.4,7.778A11.087,11.087,0,0,1,96.335,8.8c.3-.193.578-.385.853-.578A10.094,10.094,0,0,0,96.005,7.2a6,6,0,0,0-.605.578" transform="translate(-68.971 -5.22)" fill="#5ec5ed"/>
        <path id="Path_15103" data-name="Path 15103" d="M79.088,2.5a3.686,3.686,0,0,1,.55-.028A6.655,6.655,0,0,1,83.68,3.79a7.288,7.288,0,0,1,4.84-1.32H78.4a2.824,2.824,0,0,1,.688.028" transform="translate(-56.646 -1.782)" fill="url(#linear-gradient-16)"/>
        <path id="Path_15104" data-name="Path 15104" d="M102.44,2.4A7.288,7.288,0,0,0,97.6,3.72a10.094,10.094,0,0,1,1.183,1.018,14.374,14.374,0,0,1,5.143-2.145,11.419,11.419,0,0,1,1.925-.193Z" transform="translate(-70.566 -1.74)" fill="url(#linear-gradient-17)"/>
        <path id="Path_15105" data-name="Path 15105" d="M190.293,18.654c.908-2.778,1.925-6.133,3.19-10.2,1.155-3.685,3.19-6.435,7.013-7.618.11-.193.193-.413.3-.633-6.215.358-9.131,3.52-10.588,8.223-2.558,8.2-4.125,13.5-5.61,16.886a51.046,51.046,0,0,0,5.693-6.655" transform="translate(-133.639 -0.145)" fill="url(#linear-gradient-18)"/>
        <path id="Path_15106" data-name="Path 15106" d="M234.105,103.248h-.715v2.2h-.275v-2.2H232.4V103h1.705v.248Z" transform="translate(-168.293 -74.673)"/>
        <path id="Path_15107" data-name="Path 15107" d="M242.575,105.52H242.3v-1.65a2.829,2.829,0,0,1,.027-.468h0a1.279,1.279,0,0,1-.083.248l-.825,1.9h-.137l-.825-1.87a1.279,1.279,0,0,1-.083-.248h0v2.118H240.1V103.1h.385l.743,1.705c.055.138.083.22.11.3h0c.055-.138.082-.248.11-.3l.77-1.705h.358v2.42Z" transform="translate(-173.875 -74.746)"/>
      </g>
    </g>
    <g id="Group_2642" data-name="Group 2642" transform="translate(15.536 52.639)">
      <g id="Group_2641" data-name="Group 2641">
        <path id="Path_15108" data-name="Path 15108" d="M68.631,198.658a3.419,3.419,0,0,0-.138.413v-.137l.055-7.233H63.9L61.1,198.713c-.11.275-.22.55-.3.8v-.605l-.028-7.205H56.2l.605,16.034h4.62l2.668-6.353.33-.825v.5l.11,6.71H69.1l7.068-16.034h-4.84Z" transform="translate(-56.2 -191.618)" fill="#054a89"/>
        <path id="Path_15109" data-name="Path 15109" d="M140.788,192.5a7.7,7.7,0,0,0-4.29-1.1,18.137,18.137,0,0,0-3.988.413l-.44.11-2.97,15.594h4.51l.99-5.2a6.221,6.221,0,0,0,.715.027,8.224,8.224,0,0,0,5.088-1.485,5.8,5.8,0,0,0,2.255-4.675A4.287,4.287,0,0,0,140.788,192.5Zm-5.115,5.913h-.358l.578-3.08a4.476,4.476,0,0,1,.66-.027c1.513,0,1.513.77,1.513,1.155C138.093,197.588,137.076,198.413,135.673,198.413Z" transform="translate(-109.051 -191.4)" fill="#054a89"/>
        <path id="Path_15110" data-name="Path 15110" d="M196.838,195.8l.8-4.1h-9.983L184.6,207.734h4.565l1.1-5.885h5.06l.8-4.043h-5.088l.385-2.008Z" transform="translate(-149.288 -191.618)" fill="#054a89"/>
      </g>
    </g>
  </g>
</svg>
