<svg xmlns="http://www.w3.org/2000/svg" width="61.369" height="68.782" viewBox="0 0 61.369 68.782">
  <g id="c-plus-plus" transform="translate(-2.7 -0.025)">
    <g id="Group_2635" data-name="Group 2635" transform="translate(2.7 0.025)">
      <path id="Path_15041" data-name="Path 15041" d="M27.782,17.6A10.159,10.159,0,0,0,17.6,27.782a9.889,9.889,0,0,0,1.376,4.954L36.451,22.691A9.9,9.9,0,0,0,27.782,17.6Z" transform="translate(2.902 6.583)" fill="#5e98cf" fill-rule="evenodd"/>
      <path id="Path_15042" data-name="Path 15042" d="M13.02,34.39A20.35,20.35,0,0,1,51,24.208L63.243,17.19a6.73,6.73,0,0,0-2.2-2.2C52.923,10.31,44.667,5.632,36.549.954a6.093,6.093,0,0,0-6.467,0C26.78,2.88,10.543,12.237,5.727,14.989A5.747,5.747,0,0,0,2.7,20.218V48.563a7,7,0,0,0,.688,3.027l12.246-7.018A21.133,21.133,0,0,1,13.02,34.39Z" transform="translate(-2.7 -0.025)" fill="#5e98cf" fill-rule="evenodd"/>
    </g>
    <g id="Group_2636" data-name="Group 2636" transform="translate(3.526 34.253)">
      <path id="Path_15043" data-name="Path 15043" d="M18.6,29.991a10.292,10.292,0,0,0,8.806,5.091,10.121,10.121,0,0,0,8.806-5.091L27.544,24.9Z" transform="translate(2.453 -24.9)" fill="#044e87"/>
      <path id="Path_15044" data-name="Path 15044" d="M33.159,42.62A20.243,20.243,0,0,1,15.546,32.438L3.3,39.455a6.73,6.73,0,0,0,2.2,2.2c4.816,2.752,21.053,12.109,24.355,14.035a5.823,5.823,0,0,0,6.467,0c8.118-4.678,16.237-9.357,24.492-14.035a5.633,5.633,0,0,0,2.2-2.2L50.771,32.3A20.085,20.085,0,0,1,33.159,42.62Z" transform="translate(-3.3 -22.118)" fill="#044e87"/>
    </g>
    <path id="Path_15045" data-name="Path 15045" d="M55.509,15.527a7,7,0,0,0-.688-3.027L25.1,29.562l29.859,17.2a7,7,0,0,0,.688-3.027C55.509,43.872,55.509,25.021,55.509,15.527ZM45.465,30.8H43.125V33.14H40.786V30.8H38.447V28.461h2.339V26.122h2.339v2.339h2.339ZM54,30.8H51.656V33.14H49.317V30.8H46.978V28.461h2.339V26.122h2.339v2.339H54V30.8Z" transform="translate(8.422 4.69)" fill="#0062a2"/>
    <g id="Group_2637" data-name="Group 2637" transform="translate(13.02 14.026)">
      <path id="Path_15046" data-name="Path 15046" d="M45.678,22.4H43.339v2.339H41v2.339h2.339v2.339h2.339V27.078h2.339V24.739H45.678Z" transform="translate(1.38 -5.613)" fill="#fff"/>
      <path id="Path_15047" data-name="Path 15047" d="M39.478,22.4H37.139v2.339H34.8v2.339h2.339v2.339h2.339V27.078h2.339V24.739H39.478Z" transform="translate(-0.951 -5.613)" fill="#fff"/>
      <path id="Path_15048" data-name="Path 15048" d="M39.371,35.518a10.184,10.184,0,0,1-18.989-4.954A10.159,10.159,0,0,1,30.565,20.382a10.292,10.292,0,0,1,8.806,5.091l8.806-5.091A20.35,20.35,0,0,0,10.2,30.565a19.807,19.807,0,0,0,2.752,10.182,20.324,20.324,0,0,0,35.225,0Z" transform="translate(-10.2 -10.2)" fill="#fff"/>
    </g>
  </g>
</svg>
