<svg xmlns="http://www.w3.org/2000/svg" width="56.573" height="55.159" viewBox="0 0 56.573 55.159">
  <g id="Group_2501" data-name="Group 2501" transform="translate(-3505.72 -7802.049)">
    <g id="Video_Audio_Surface" data-name="Video Audio Surface" transform="translate(3505.72 7802.05)">
      <g id="Outline_no_shadow-3" data-name="Outline no shadow-3">
        <path id="path2194" d="M-542.63-724.6h36.536a10.01,10.01,0,0,1,10.018,10.018v35.122a10.01,10.01,0,0,1-10.018,10.018H-542.63a10.01,10.01,0,0,1-10.018-10.018v-35.122A10.01,10.01,0,0,1-542.63-724.6Z" transform="translate(552.648 724.601)" fill="#152f2f"/>
      </g>
    </g>
    <g id="Group_2465" data-name="Group 2465" transform="translate(3514.766 7814.094)">
      <path id="Path_14144" data-name="Path 14144" d="M109.109,17.856l.03.019.049.054h4.833l.019-.052.006,0L120.683,0Z" transform="translate(-101.447 0.001)" fill="#001717"/>
      <path id="Path_14145" data-name="Path 14145" d="M269.361,0,276,17.878l.006,0,.019.052h4.885v-.054l.026-.017Z" transform="translate(-250.117 0.001)" fill="#001717"/>
      <path id="Path_14146" data-name="Path 14146" d="M22.328,0,3.092,9.643l.054.058,7.584,8.174.009,0,.015-.022Z" transform="translate(-3.092 0.001)" fill="#1ebabb"/>
      <path id="Path_14147" data-name="Path 14147" d="M280.935,17.858l.015.021.009,0L288.545,9.7l.052-.054L269.361,0Z" transform="translate(-250.117 0.001)" fill="#169697"/>
      <path id="Path_14148" data-name="Path 14148" d="M3.745,152.319l-.008.017,7.6,3.266.045-.118V142.407l-.03-.019-.015.022-.009,0-7.584-8.174Z" transform="translate(-3.691 -124.531)" fill="#28e8e9"/>
      <path id="Path_14149" data-name="Path 14149" d="M109.522,247.383h.049l-.049-.054Z" transform="translate(-101.83 -229.453)" fill="#016b6b"/>
      <path id="Path_14150" data-name="Path 14150" d="M429.2,142.359l-.009,0-.015-.021-.026.017v.054h.054l-.054.058v12.973l.041.11,7.6-3.266-.007-.017v-18.09Z" transform="translate(-398.357 -124.483)" fill="#179d9e"/>
      <path id="Path_14151" data-name="Path 14151" d="M183.728,0,177.09,17.878l-.006,0-.019.052H190.4l-.019-.052-.006,0L183.736,0Z" transform="translate(-164.492 0.001)" fill="#159495"/>
      <path id="Path_14152" data-name="Path 14152" d="M429.15,248.079v.058l.054-.058Z" transform="translate(-398.357 -230.149)" fill="#016b6b"/>
      <path id="Path_14153" data-name="Path 14153" d="M361.555,248.079h4.885v.058l-3.47,3.72Z" transform="translate(-335.648 -230.149)" fill="#002122"/>
      <path id="Path_14154" data-name="Path 14154" d="M172.212,248.079h.017l1.416,3.778-8.071,8.577h-.022l-8.071-8.577,1.416-3.778h13.317Z" transform="translate(-146.321 -230.149)" fill="#1aa9aa"/>
      <path id="Path_14155" data-name="Path 14155" d="M110.194,248.079h4.833l-1.416,3.778Z" transform="translate(-102.453 -230.149)" fill="#002122"/>
      <path id="Path_14156" data-name="Path 14156" d="M109.522,248.079h.049l3.417,3.778-3.466,9.246Z" transform="translate(-101.83 -230.149)" fill="#013535"/>
      <path id="Path_14157" data-name="Path 14157" d="M384.61,248.88v12.973l-3.47-9.253Z" transform="translate(-353.818 -230.892)" fill="#013535"/>
    </g>
  </g>
</svg>
