<svg xmlns="http://www.w3.org/2000/svg" width="56.574" height="55.16" viewBox="0 0 56.574 55.16">
  <g id="Layer_2_1_-8" data-name="Layer 2 1 -8" transform="translate(552.648 724.601)">
    <g id="Surfaces" transform="translate(-552.648 -724.601)">
      <g id="Video_Audio_Surface" data-name="Video Audio Surface" transform="translate(0 0)">
        <g id="Outline_no_shadow-3" data-name="Outline no shadow-3">
          <path id="path2194" d="M-542.63-724.6h36.538a10.01,10.01,0,0,1,10.018,10.018v35.123a10.01,10.01,0,0,1-10.018,10.018H-542.63a10.01,10.01,0,0,1-10.018-10.018v-35.123A10.01,10.01,0,0,1-542.63-724.6Z" transform="translate(552.648 724.601)" fill="#00005b"/>
        </g>
      </g>
    </g>
    <g id="Outlined_Mnemonics_Logos" data-name="Outlined Mnemonics Logos" transform="translate(-545.649 -710.41)">
      <g id="Ae" transform="translate(0 0)">
        <path id="path2199" d="M-407.588-443.546h-8.769l-1.791,5.563a.413.413,0,0,1-.448.33h-4.432c-.26,0-.33-.141-.26-.424l7.591-21.758c.071-.236.141-.448.236-.731a8.249,8.249,0,0,0,.141-1.532.234.234,0,0,1,.189-.259h6.105c.165,0,.283.071.306.188l8.6,24.162c.071.259,0,.377-.236.377h-4.927a.355.355,0,0,1-.377-.259Zm-7.4-4.691H-409c-.141-.495-.33-1.084-.542-1.7-.212-.636-.424-1.32-.636-2.027-.236-.731-.448-1.438-.684-2.169s-.448-1.415-.636-2.1c-.189-.66-.354-1.273-.519-1.839h-.047a29,29,0,0,1-.8,3.041c-.354,1.131-.707,2.31-1.084,3.489-.307,1.2-.683,2.31-1.037,3.3Z" transform="translate(423.313 462.357)" fill="#99f"/>
        <path id="path2201" d="M39.967-347.268H32.494a5.2,5.2,0,0,0,.731,2.1,3.737,3.737,0,0,0,1.721,1.414,7.336,7.336,0,0,0,3.017.589,14.174,14.174,0,0,0,2.452-.259,8.846,8.846,0,0,0,2.1-.542c.118-.094.188-.047.188.188v3.607a1.173,1.173,0,0,1-.047.283.548.548,0,0,1-.165.165,10.087,10.087,0,0,1-2.357.707,15.916,15.916,0,0,1-3.347.283,11.173,11.173,0,0,1-4.526-.825,7.932,7.932,0,0,1-2.97-2.24,8.641,8.641,0,0,1-1.626-3.088,12.024,12.024,0,0,1-.5-3.442,11.971,11.971,0,0,1,.589-3.748,9.624,9.624,0,0,1,1.768-3.229,8.539,8.539,0,0,1,2.852-2.239,8.9,8.9,0,0,1,3.937-.731,8.513,8.513,0,0,1,3.654.731,6.5,6.5,0,0,1,2.475,1.885,8.634,8.634,0,0,1,1.415,2.687A9.279,9.279,0,0,1,44.3-350.1c0,.566-.023,1.061-.047,1.509-.047.448-.071.778-.094.99a.352.352,0,0,1-.33.307c-.141,0-.4.024-.778.047a11.1,11.1,0,0,1-1.367.071c-.542,0-1.108-.094-1.721-.094Zm-7.473-3.442h4.974c.613,0,1.061,0,1.344-.023a1.151,1.151,0,0,0,.542-.189v-.236a2.713,2.713,0,0,0-.141-.872,3.12,3.12,0,0,0-3.064-2.169,3.32,3.32,0,0,0-3.135,1.791A4.888,4.888,0,0,0,32.494-350.71Z" transform="translate(-2.79 363.91)" fill="#99f"/>
      </g>
    </g>
  </g>
</svg>
