<svg id="blender-seeklogo.com" xmlns="http://www.w3.org/2000/svg" width="55.405" height="45.007" viewBox="0 0 55.405 45.007">
  <path id="Path_14158" data-name="Path 14158" d="M100.363,69.734a12.718,12.718,0,0,1,4.616-9,15.659,15.659,0,0,1,19.862,0,12.732,12.732,0,0,1,4.616,9,12.5,12.5,0,0,1-3.886,9.666,15.609,15.609,0,0,1-21.325,0A12.483,12.483,0,0,1,100.363,69.734Z" transform="translate(-78.628 -44.803)" fill="#fff"/>
  <path id="Path_14159" data-name="Path 14159" d="M133.133,93.35a6.526,6.526,0,0,1,2.369-4.62,8.035,8.035,0,0,1,10.191,0,6.533,6.533,0,0,1,2.369,4.618,6.415,6.415,0,0,1-1.994,4.96,8.009,8.009,0,0,1-10.942,0A6.405,6.405,0,0,1,133.133,93.35Z" transform="translate(-104.312 -68.098)" fill="#265787"/>
  <path id="Path_14160" data-name="Path 14160" d="M16.97,29.04a13.675,13.675,0,0,0,.589,3.226,17.017,17.017,0,0,0,3.676,6.366,18.994,18.994,0,0,0,6.434,4.62,21.037,21.037,0,0,0,16.892-.029,19.126,19.126,0,0,0,6.429-4.639,17.161,17.161,0,0,0,3.675-6.377,16.023,16.023,0,0,0,.577-7.1A16.436,16.436,0,0,0,52.9,18.695a17.9,17.9,0,0,0-4.276-4.715l0,0L31.318.687C31.3.676,31.29.663,31.273.652a3.848,3.848,0,0,0-4.294,0A1.95,1.95,0,0,0,26.7,3.923l0,0L33.909,9.8l-22,.023h-.029a4.011,4.011,0,0,0-3.913,2.7c-.356,1.536.88,2.811,2.77,2.817l0,.007,11.152-.021L1.984,30.6c-.025.019-.053.038-.076.057C.031,32.1-.576,34.487.606,36c1.2,1.538,3.752,1.541,5.648.009L17.116,27.12A17,17,0,0,0,16.97,29.04Zm27.909,4.018a12.552,12.552,0,0,1-17.527.028,10.422,10.422,0,0,1-2.392-3.745,9.724,9.724,0,0,1-.549-4.185,9.88,9.88,0,0,1,1.2-3.939,10.857,10.857,0,0,1,2.662-3.165,12.649,12.649,0,0,1,15.686-.022,10.815,10.815,0,0,1,2.659,3.155,9.885,9.885,0,0,1,1.2,3.937,9.748,9.748,0,0,1-.551,4.182A10.471,10.471,0,0,1,44.879,33.058Z" transform="translate(0)" fill="#ea7600"/>
</svg>
