<svg id="Layer_2_1_" xmlns="http://www.w3.org/2000/svg" width="57.516" height="55.159" viewBox="0 0 57.516 55.159">
  <g id="Surfaces">
    <g id="Drawing_Surface">
      <g id="Outline_no_shadow">
        <path id="Path_13870" data-name="Path 13870" d="M10.185,0H47.331A10.094,10.094,0,0,1,57.516,10.018V45.141A10.094,10.094,0,0,1,47.331,55.159H10.185A10.094,10.094,0,0,1,0,45.141V10.018A10.094,10.094,0,0,1,10.185,0Z" fill="#300"/>
      </g>
    </g>
  </g>
  <g id="Outlined_Mnemonics_Logos" transform="translate(12.126 12.234)">
    <g id="Ai">
      <path id="Path_13871" data-name="Path 13871" d="M65.315,78.876H56.546l-1.791,5.539a.413.413,0,0,1-.448.33H49.876c-.259,0-.33-.141-.259-.424l7.59-21.851c.071-.236.141-.5.236-.778a8.234,8.234,0,0,0,.141-1.532.234.234,0,0,1,.189-.259h6.105c.189,0,.283.071.306.189l8.6,24.279c.071.259,0,.377-.236.377H67.625a.356.356,0,0,1-.377-.259Zm-7.4-4.785H63.9c-.141-.5-.33-1.084-.542-1.7-.212-.636-.424-1.32-.636-2.027-.236-.731-.448-1.438-.684-2.169s-.448-1.414-.636-2.1c-.189-.66-.354-1.273-.519-1.839h-.047a28.943,28.943,0,0,1-.8,3.041c-.354,1.131-.707,2.31-1.084,3.489-.33,1.2-.684,2.31-1.037,3.3Z" transform="translate(-49.59 -58.014)" fill="#ff9a00"/>
      <path id="Path_13872" data-name="Path 13872" d="M160.395,57.817a2.917,2.917,0,0,1-2.1-.825,3.062,3.062,0,0,1-.8-2.169,2.773,2.773,0,0,1,.849-2.1,3.019,3.019,0,0,1,2.1-.825,2.823,2.823,0,0,1,2.145.825,3.241,3.241,0,0,1-.047,4.267A2.772,2.772,0,0,1,160.395,57.817Zm-2.64,20.461V60.127c0-.236.094-.33.306-.33h4.667c.212,0,.306.118.306.33V78.277c0,.259-.094.377-.306.377h-4.62A.33.33,0,0,1,157.755,78.277Z" transform="translate(-132.059 -51.9)" fill="#ff9a00"/>
    </g>
  </g>
</svg>
