<svg id="Layer_2_1_" xmlns="http://www.w3.org/2000/svg" width="56.573" height="55.159" viewBox="0 0 56.573 55.159">
  <g id="Surfaces">
    <g id="Photo_Surface">
      <g id="Outline_no_shadow">
        <path id="Path_13867" data-name="Path 13867" d="M10.018,0H46.555A10.01,10.01,0,0,1,56.573,10.018V45.141A10.01,10.01,0,0,1,46.555,55.159H10.018A10.01,10.01,0,0,1,0,45.141V10.018A10.01,10.01,0,0,1,10.018,0Z" fill="#001e36"/>
      </g>
    </g>
  </g>
  <g id="Outlined_Mnemonics_Logos" transform="translate(12.729 14.025)">
    <g id="Ps">
      <path id="Path_13868" data-name="Path 13868" d="M54,84.156V59.9c0-.165.071-.259.236-.259.4,0,.778,0,1.32-.024.566-.024,1.155-.024,1.791-.047s1.32-.024,2.051-.047,1.438-.024,2.145-.024a13.86,13.86,0,0,1,4.856.731,8.418,8.418,0,0,1,3.159,1.933,7.505,7.505,0,0,1,1.721,2.687,9.023,9.023,0,0,1,.542,3.064,8.427,8.427,0,0,1-1.414,5.021,8.076,8.076,0,0,1-3.8,2.876,15.277,15.277,0,0,1-5.3.8c-.566,0-.943,0-1.179-.024s-.566-.024-1.014-.024v7.567a.293.293,0,0,1-.259.33H54.283C54.094,84.463,54,84.369,54,84.156Zm5.139-19.966v7.92c.33.024.636.047.919.047h1.249a8.805,8.805,0,0,0,2.711-.424,4.054,4.054,0,0,0,1.933-1.249,3.642,3.642,0,0,0,.731-2.428,3.88,3.88,0,0,0-.542-2.1,3.418,3.418,0,0,0-1.65-1.344,6.917,6.917,0,0,0-2.782-.471c-.613,0-1.155,0-1.6.024a5.4,5.4,0,0,0-.966.024Z" transform="translate(-54 -59.5)" fill="#31a8ff"/>
      <path id="Path_13869" data-name="Path 13869" d="M152.477,89.627a8.343,8.343,0,0,0-2.263-.8,12.426,12.426,0,0,0-2.64-.306,4.746,4.746,0,0,0-1.414.165,1.21,1.21,0,0,0-.731.471,1.249,1.249,0,0,0-.189.636,1.049,1.049,0,0,0,.236.613,2.66,2.66,0,0,0,.8.636c.542.283,1.108.542,1.674.778a17.074,17.074,0,0,1,3.63,1.721,5.485,5.485,0,0,1,1.862,1.956,5.088,5.088,0,0,1,.542,2.428,5.485,5.485,0,0,1-.919,3.135,5.907,5.907,0,0,1-2.64,2.1,10.8,10.8,0,0,1-4.267.754,16.237,16.237,0,0,1-3.206-.306,9.509,9.509,0,0,1-2.4-.754.464.464,0,0,1-.259-.448V98.3a.256.256,0,0,1,.094-.212.179.179,0,0,1,.212.024,10.091,10.091,0,0,0,2.923,1.155,10.974,10.974,0,0,0,2.782.354,4.5,4.5,0,0,0,1.956-.33,1.1,1.1,0,0,0,.636-.99,1.249,1.249,0,0,0-.566-.943,10,10,0,0,0-2.31-1.108,14.423,14.423,0,0,1-3.347-1.7,6.1,6.1,0,0,1-1.791-2,5.058,5.058,0,0,1-.542-2.4,5.544,5.544,0,0,1,.8-2.852,5.81,5.81,0,0,1,2.475-2.169,9.141,9.141,0,0,1,4.172-.825,20.321,20.321,0,0,1,2.923.212,8.294,8.294,0,0,1,2.027.542.414.414,0,0,1,.236.212,1.182,1.182,0,0,1,.047.283v3.842a.29.29,0,0,1-.118.236A.628.628,0,0,1,152.477,89.627Z" transform="translate(-119.947 -78.454)" fill="#31a8ff"/>
    </g>
  </g>
</svg>
