<svg width="38" height="38" viewBox="0 0 38 38" fill="none" xmlns="http://www.w3.org/2000/svg">
<path fill-rule="evenodd" clip-rule="evenodd" d="M17.0701 0.0758918C11.8117 0.70864 7.31508 3.45602 4.38881 7.82405C3.14595 9.67928 2.21266 11.9579 1.7911 14.1662C1.24931 17.0045 1.46603 20.5443 2.33037 22.9761C2.39212 23.1497 2.41461 23.2918 2.38032 23.2918C2.34603 23.2918 1.99298 23.1564 1.59569 22.9909C1.1984 22.8255 0.861968 22.7014 0.848089 22.7153C0.804449 22.7591 0.000296871 24.7284 0.0191482 24.7455C0.0506909 24.774 5.00497 26.8006 5.12854 26.8355C5.22265 26.862 5.44508 26.3925 6.1975 24.579C6.72007 23.3195 7.20694 22.1497 7.27945 21.9795L7.41119 21.6701L6.40145 21.2536C5.84608 21.0245 5.36752 20.8628 5.33806 20.8945C5.30852 20.926 5.14205 21.3029 4.96801 21.7319C4.79404 22.1609 4.62853 22.5387 4.60033 22.5716C4.52745 22.6563 4.08852 21.1114 3.9202 20.1775C3.59245 18.3591 3.67453 15.7793 4.11821 13.9537C5.46608 8.40799 9.7213 4.09553 15.2431 2.67901C19.3268 1.63147 23.8052 2.35967 27.2937 4.63839L27.9802 5.08684V7.57809V10.0693H30.1688H32.3574L32.6646 10.6808C33.3139 11.9734 33.8302 13.5526 34.104 15.0835C34.2702 16.0126 34.33 18.0901 34.2207 19.1368C33.5466 25.5918 28.9497 30.8814 22.6365 32.4667C20.9655 32.8862 20.8507 32.8926 14.3441 32.929L8.31539 32.9626L8.29535 31.3399L8.27531 29.7174L4.13766 29.6982L0 29.679V33.8395V38H4.15621H8.31242V36.5886V35.1772H20.9459H33.5794L33.118 35.6431L32.6566 36.1091L33.4361 36.8866L34.2156 37.6642L36.1078 35.7704L38 33.8765L36.1077 31.9836L34.2153 30.0906L33.4357 30.8682L32.6562 31.6458L33.2498 32.2432C33.5763 32.5716 33.8434 32.8648 33.8434 32.8946C33.8434 32.9243 32.4574 32.9487 30.7634 32.9487C29.0693 32.9487 27.6845 32.9237 27.6859 32.893C27.6874 32.8623 27.9462 32.6817 28.2611 32.4914C29.5101 31.7368 31.0589 30.4376 32.0367 29.3239C34.3917 26.6417 35.7626 23.7398 36.3426 20.2091C36.5097 19.1915 36.5328 16.1811 36.3809 15.1949C36.1232 13.52 35.6457 11.8694 35.0006 10.4228L34.6598 9.65856V6.52119V3.38382H32.031H29.4021L28.8211 2.98491C26.7376 1.55466 24.1074 0.532959 21.5232 0.149953C20.4221 -0.0131743 18.1278 -0.0513561 17.0701 0.0758918ZM32.4333 6.72658V7.84084H31.32H30.2067V6.77613C30.2067 6.19048 30.229 5.68906 30.2562 5.66187C30.2834 5.63461 30.7844 5.61233 31.3695 5.61233H32.4333V6.72658ZM17.2451 7.28467C15.9365 7.51406 14.3965 8.13025 13.285 8.86915C10.9283 10.4359 9.29744 12.9174 8.78586 15.7149C8.59489 16.7593 8.61337 18.4864 8.82645 19.5034C9.27636 21.6506 10.1588 23.2917 11.6849 24.8191C13.1925 26.328 14.8608 27.24 16.9249 27.6838C18.0284 27.921 19.9629 27.9228 21.0548 27.6878C23.1623 27.2342 24.7936 26.344 26.3119 24.8191C27.2083 23.9189 27.7249 23.2162 28.2328 22.2063C29.746 19.1978 29.7334 15.6731 28.1992 12.7531C26.7388 9.97359 24.2264 8.0576 21.115 7.35071C20.3804 7.1838 18.0477 7.14406 17.2451 7.28467ZM21.0064 9.61532C22.566 10.0398 23.8005 10.7752 24.9007 11.9352C28.3851 15.6087 27.6987 21.5248 23.4646 24.3128C22.6637 24.8401 21.9383 25.1601 20.935 25.4285C20.3088 25.596 20.079 25.6186 18.9998 25.6186C17.9177 25.6186 17.6917 25.5963 17.0575 25.4267C14.8939 24.8482 13.1533 23.5653 12.0374 21.7268C10.1495 18.6166 10.5773 14.5929 13.0758 11.9594C14.3754 10.5896 15.8622 9.80051 17.8123 9.44566C17.9144 9.42716 18.5489 9.42345 19.2225 9.43749C20.1641 9.45717 20.5763 9.49825 21.0064 9.61532ZM19.9563 16.0306C18.5584 17.5933 17.4055 18.8844 17.3942 18.8996C17.383 18.9147 16.9365 18.5191 16.4021 18.0204C15.5957 17.268 15.412 17.1291 15.3217 17.2041C15.2618 17.2539 14.9138 17.6192 14.5484 18.0159L13.8838 18.7373L15.6572 20.3628C16.6326 21.2568 17.4608 21.9984 17.4976 22.0107C17.5488 22.0278 22.598 16.4618 23.9479 14.9002L24.1832 14.6281L23.379 13.9086C22.9367 13.513 22.5575 13.1893 22.5364 13.1893C22.5152 13.1893 21.3542 14.4679 19.9563 16.0306ZM6.06859 33.8587L6.0884 35.7715H4.15747H2.22654V33.8389V31.9062L4.13766 31.926L6.04877 31.9459L6.06859 33.8587Z" fill="#24C7A9"/>
</svg>
