<svg width="38" height="38" viewBox="0 0 38 38" fill="none" xmlns="http://www.w3.org/2000/svg">
<path fill-rule="evenodd" clip-rule="evenodd" d="M28.4815 0.0561767C28.0396 0.0826067 27.7078 0.139253 27.632 0.201022C27.4796 0.325303 27.3825 0.678248 27.3126 1.36172C27.2396 2.07607 27.2133 2.12314 26.7773 2.32159L26.3937 2.49613L25.6844 2.06174C24.83 1.53856 24.5813 1.50337 24.2442 1.85787C23.406 2.73942 22.9094 3.31479 22.8647 3.45622C22.7988 3.66529 22.8844 3.82142 23.4734 4.56614L23.9526 5.1721L23.8325 5.45704C23.7663 5.61376 23.7033 5.75148 23.6924 5.76306C23.6815 5.77472 23.052 5.51576 22.2935 5.18769C21.5351 4.85961 20.8524 4.59123 20.7764 4.59123C20.4622 4.59123 20.2509 4.9614 19.1448 7.44954L18.0228 9.97375L18.0033 5.52445C17.982 0.68196 18.0005 0.880705 17.5632 0.772906C17.3505 0.720491 16.9678 0.890431 16.8984 1.06809C16.8726 1.13417 16.8515 1.76559 16.8515 2.47119V3.75408L16.2658 3.80509C14.0244 4.00004 11.6228 4.94833 9.85925 6.3345C8.56282 7.35362 7.10332 9.05509 7.10332 9.54731C7.10332 9.8301 7.38186 10.0851 7.69085 10.0851C7.89995 10.0851 7.98058 10.0158 8.3597 9.50974C9.99195 7.3312 11.9123 5.99923 14.4809 5.26416C14.9975 5.11627 16.3263 4.88953 16.6815 4.88864L16.8515 4.8882V16.7669V28.6455H15.0304C12.44 28.6455 12.4686 28.6656 12.4686 26.8502C12.4686 25.982 12.4428 25.6728 12.3608 25.5578C12.3015 25.4746 11.987 25.2517 11.6618 25.0623C9.10781 23.5755 7.21017 20.9312 6.57178 17.9695C6.37334 17.0488 6.2986 15.3916 6.41543 14.5025C6.46372 14.135 6.59029 13.4869 6.69669 13.0624C6.90949 12.2134 6.88379 12.0359 6.5247 11.8751C6.26702 11.7598 6.16931 11.7711 5.94873 11.9415C5.79464 12.0605 5.71764 12.2501 5.56401 12.8881C5.26394 14.1343 5.18973 14.8897 5.23749 16.2101C5.3225 18.5581 5.98341 20.5577 7.33659 22.5608C7.99932 23.5419 9.53628 25.0421 10.5605 25.7076L11.3351 26.2109V27.1551C11.3351 28.2439 11.4316 28.6179 11.8306 29.0758C11.9739 29.2403 12.2441 29.4477 12.431 29.5365L12.7709 29.6981V31.1979C12.7709 32.8354 12.8437 33.2983 13.194 33.8854C13.807 34.9132 14.9173 35.4758 16.3328 35.4758H16.8515V36.544C16.8515 37.4524 16.8713 37.6358 16.9837 37.7688C17.1855 38.0076 17.5303 38.0437 17.7784 37.852L17.985 37.6923V30.8624C17.985 24.0708 17.9858 24.0328 18.1358 24.0796C18.3501 24.1464 23.7355 26.4751 23.7825 26.5213C23.8039 26.5423 23.7919 26.7153 23.7558 26.9057C23.6977 27.2129 23.6587 27.2643 23.4102 27.3615L23.1301 27.471L22.5555 27.0808C21.7306 26.5205 21.6796 26.5298 20.8096 27.3971C19.9438 28.2602 19.9336 28.314 20.4877 29.0891C20.8637 29.6151 20.872 29.6382 20.7883 29.913C20.6936 30.2236 20.6883 30.2262 19.8742 30.3627C19.006 30.5083 18.9674 30.5674 18.9674 31.7503C18.9674 33.0018 18.9889 33.0329 19.9763 33.2075L20.6867 33.3332L20.7995 33.6154L20.9123 33.8976L20.5066 34.4775C20.2803 34.8009 20.1009 35.1401 20.1009 35.244C20.1009 35.5177 21.5031 36.8864 21.7835 36.8864C21.9017 36.8864 22.2276 36.7235 22.5763 36.4903L23.1685 36.0941L23.4294 36.2094C23.5729 36.2728 23.7004 36.3302 23.7127 36.3368C23.725 36.3434 23.7902 36.6439 23.8576 37.0046C24.0388 37.9739 24.0768 38 25.3014 38C26.5361 38 26.6059 37.9598 26.7447 37.1694C26.8966 36.3043 26.8888 36.3204 27.2031 36.2186C27.4895 36.1257 27.4997 36.1292 28.0434 36.5054C28.8464 37.0614 28.9011 37.0504 29.7971 36.1544C30.2495 35.702 30.5292 35.3633 30.5292 35.2678C30.5292 35.1829 30.342 34.8449 30.1134 34.5169L29.6976 33.9205L29.8147 33.633L29.9317 33.3456L30.5771 33.247C30.9684 33.1872 31.2942 33.0928 31.4047 33.0075C31.5818 32.8706 31.5871 32.8366 31.5871 31.8408C31.5871 30.5867 31.5651 30.5468 30.7936 30.3981C30.2963 30.3022 30.4089 30.2955 32.6828 30.2849C34.4243 30.2768 35.1451 30.2483 35.2588 30.1835C35.3456 30.1339 35.9809 29.5039 36.6707 28.7835C37.632 27.7795 37.9356 27.4156 37.9711 27.2244C37.9965 27.0873 38.0072 24.8257 37.9949 22.1986L37.9725 17.4221L37.7605 17.243L37.5484 17.0638H34.1909H30.8333L31.0259 16.6369C31.1319 16.4022 31.3918 15.8183 31.6034 15.3394L31.9883 14.4687L31.6755 13.674C31.5034 13.2369 31.3707 12.8765 31.3804 12.8732C31.3902 12.8699 31.5877 12.779 31.8193 12.6713L32.2404 12.4753L32.8395 12.8459C33.7247 13.3935 33.8854 13.4525 34.1385 13.3229C34.3331 13.2232 35.6113 11.8732 35.7627 11.6074C35.8789 11.4034 35.7683 11.171 35.2278 10.483L34.711 9.82527L34.8635 9.41019L35.0158 8.9951L35.7681 8.82843C36.6976 8.62248 36.8457 8.55767 36.9466 8.31223C37.0472 8.06767 36.9402 6.10844 36.8135 5.87591C36.7034 5.6739 36.6382 5.65437 35.6402 5.52564C35.1913 5.46765 34.8169 5.40915 34.8083 5.39557C34.7998 5.38191 34.7147 5.20157 34.6194 4.99481L34.446 4.61877L34.9057 3.90182C35.1776 3.47783 35.3655 3.10217 35.3655 2.98241C35.3655 2.76934 35.1121 2.50311 34.06 1.6105C33.7011 1.30604 33.4853 1.17611 33.3383 1.17611C33.1944 1.17611 32.9097 1.34115 32.4319 1.70152L31.7352 2.22686L31.3035 2.0855L30.8718 1.94414L30.6699 1.09883C30.3832 -0.101958 30.4656 -0.0626843 28.4815 0.0561767ZM29.6935 1.90725C29.7835 2.28892 29.8977 2.66607 29.9475 2.74529C29.9979 2.82554 30.222 2.94128 30.4536 3.00669C30.6822 3.07128 31.0673 3.20506 31.3093 3.3041C31.5865 3.41747 31.8103 3.46543 31.9138 3.43365C32.0043 3.40596 32.3532 3.17529 32.6892 2.92109L33.3001 2.45901L33.6879 2.78723L34.0757 3.11545L33.6639 3.74265C33.4374 4.08758 33.2325 4.44661 33.2085 4.54045C33.1785 4.6579 33.2722 4.91262 33.5095 5.35822C33.699 5.71421 33.8541 6.04956 33.8541 6.10346C33.8541 6.33584 34.1646 6.47474 34.8954 6.56948C35.2994 6.62182 35.6725 6.66584 35.7244 6.66733C35.7904 6.66918 35.8189 6.8213 35.8189 7.17202V7.67404L35.0443 7.84332C34.6078 7.93864 34.2154 8.0679 34.1453 8.13939C34.0768 8.2091 33.9632 8.46561 33.8927 8.70942C33.8223 8.95315 33.6998 9.27759 33.6205 9.43031C33.3909 9.87242 33.4321 10.0241 33.9704 10.7171L34.4645 11.3534L34.3178 11.5544C34.2372 11.6651 34.0847 11.8348 33.9789 11.9318L33.7867 12.108L33.1133 11.6905C32.7428 11.4609 32.3669 11.273 32.278 11.273C32.1891 11.273 31.8827 11.3899 31.5973 11.5328C31.3118 11.6757 31.0451 11.7927 31.0045 11.7927C30.9437 11.7927 30.7571 11.3857 30.4896 10.6693C30.456 10.5796 30.5352 10.505 30.7952 10.3813C31.3369 10.1237 32.0026 9.47381 32.2686 8.94269C33.0894 7.30477 32.4381 5.41955 30.7717 4.61046C30.2075 4.33658 30.1808 4.33139 29.324 4.33139C28.5022 4.33139 28.4217 4.34505 27.9506 4.56436C27.1201 4.95093 26.5047 5.6027 26.2199 6.39746C26.1442 6.6086 26.0541 6.77587 26.0198 6.76911C25.755 6.71729 24.786 6.25098 24.786 6.1754C24.786 6.12306 24.8711 5.89143 24.975 5.66061C25.0789 5.42979 25.1639 5.15799 25.1639 5.05665C25.1639 4.94254 24.9748 4.63451 24.6672 4.24749L24.1705 3.62253L24.4853 3.2531C24.6584 3.0499 24.8136 2.88367 24.8299 2.88367C24.8464 2.88367 25.1608 3.06742 25.5286 3.292C25.8964 3.51658 26.2818 3.70033 26.3852 3.70033C26.4885 3.70033 26.8257 3.57509 27.1344 3.42192C27.4431 3.26884 27.8042 3.09979 27.9367 3.04641C28.2003 2.94024 28.2927 2.73987 28.3714 2.10413C28.3966 1.89997 28.4362 1.60916 28.4591 1.45793L28.5009 1.18287L28.9672 1.16097C29.2237 1.14887 29.4552 1.1557 29.4818 1.17611C29.5084 1.19653 29.6037 1.52549 29.6935 1.90725ZM5.05718 3.62037C4.93567 3.73975 4.8363 3.91266 4.8363 4.00457C4.8363 4.20362 6.96903 6.35573 7.23012 6.4201C7.32065 6.44245 7.46551 6.43859 7.55211 6.41156C7.75116 6.3495 7.95965 5.96158 7.90622 5.75252C7.84116 5.49795 5.64963 3.40336 5.44824 3.40336C5.35469 3.40336 5.1787 3.50099 5.05718 3.62037ZM30.0519 5.50633C31.09 5.88237 31.7051 7.0173 31.4104 8.01318C31.2538 8.54252 30.9161 8.99629 30.4735 9.27202C30.28 9.39259 30.0974 9.49118 30.0676 9.49118C30.0377 9.49118 29.9225 9.25747 29.8114 8.97186C29.7003 8.68626 29.5335 8.39397 29.4406 8.32225C29.3477 8.2506 28.8066 7.99217 28.238 7.74806C27.0994 7.25918 27.0849 7.2427 27.3165 6.69821C27.5121 6.23836 27.8683 5.87279 28.3525 5.63507C28.7348 5.44739 28.9019 5.40885 29.3133 5.41353C29.5871 5.41665 29.9195 5.45837 30.0519 5.50633ZM24.7334 7.46097C26.6949 8.30436 28.3097 9.00156 28.3215 9.0104C28.3335 9.01916 27.9849 9.82787 27.547 10.8075C27.1091 11.7871 26.7508 12.6564 26.7508 12.7393C26.7508 12.8221 26.8103 12.9575 26.883 13.0402C26.9557 13.1229 27.8144 13.5335 28.7911 13.9526C29.7678 14.3718 30.578 14.7223 30.5916 14.7318C30.6051 14.7412 30.3865 15.2697 30.1057 15.9063L29.5952 17.0638L28.5697 17.065C27.8976 17.0656 27.4872 17.0976 27.3786 17.1578C27.0944 17.3151 24.8286 19.736 24.7336 19.9838C24.6701 20.1495 24.6422 21.0155 24.6391 22.9104C24.6368 24.3906 24.6178 25.6016 24.5968 25.6016C24.5604 25.6016 23.9837 25.3555 19.8364 23.5699L18.0228 22.7891L18.0034 17.8246L17.9839 12.86L19.4254 9.63507C20.2182 7.86136 20.9138 6.30154 20.9712 6.16887C21.0286 6.0362 21.0961 5.92758 21.1212 5.92758C21.1463 5.92758 22.7717 6.61758 24.7334 7.46097ZM29.7333 11.8706C30.0454 12.6589 30.2885 13.316 30.2734 13.3309C30.248 13.3558 28.1859 12.4829 28.1198 12.4194C28.1037 12.404 28.306 11.9052 28.5692 11.3109C28.8869 10.5935 29.0675 10.2652 29.1067 10.3339C29.1392 10.3908 29.4211 11.0823 29.7333 11.8706ZM0.151134 15.4305C0.0510834 15.5288 0 15.678 0 15.8717C0 16.3689 0.0957437 16.3957 1.87316 16.3957C2.81223 16.3957 3.46876 16.365 3.56027 16.3169C3.88597 16.1456 3.87856 15.5281 3.54871 15.3547C3.47141 15.314 2.72556 15.282 1.85638 15.282C0.403 15.282 0.292445 15.2917 0.151134 15.4305ZM35.7564 18.5301C35.5897 18.7241 35.2875 19.0417 35.0849 19.2361L34.7166 19.5894L30.6587 19.5702L26.6008 19.5509L27.2487 18.8642L27.8966 18.1775H31.9782H36.0596L35.7564 18.5301ZM36.8012 23.0873V27.032L36.1978 27.6346L35.5944 28.2372L35.5933 27.213C35.5922 26.2253 35.5856 26.1824 35.4066 26.0066C35.1777 25.7816 34.8199 25.7665 34.6098 25.9728C34.4687 26.1115 34.4586 26.2203 34.4586 27.6085C34.4586 28.7382 34.4357 29.1043 34.3632 29.1317C34.3107 29.1514 33.3241 29.1588 32.1708 29.1479L30.0739 29.1281L30.2637 28.8536C30.6067 28.3579 30.5466 28.1887 29.7502 27.4063C28.8828 26.554 28.8158 26.5421 28.0034 27.0971L27.4444 27.4788L27.1542 27.3654C26.8672 27.2531 26.8629 27.2454 26.7447 26.6309C26.5745 25.7458 26.4739 25.6016 26.0267 25.6016H25.844V23.1517V20.7017H30.1513H34.4586V22.1865C34.4586 23.5724 34.4687 23.6812 34.6098 23.8198C34.8348 24.0409 35.2393 24.0178 35.4355 23.7727C35.5831 23.5884 35.5922 23.4835 35.5922 21.9599V20.3428L36.1668 19.7427C36.4828 19.4126 36.7548 19.1426 36.7713 19.1426C36.7878 19.1426 36.8012 20.9177 36.8012 23.0873ZM7.13354 25.3687C6.67296 25.7008 5.06406 27.3554 5.05409 27.5071C5.02817 27.9003 5.27225 28.2001 5.6182 28.2001C5.80847 28.2001 6.01855 28.0308 6.93072 27.1423C7.52801 26.5605 8.03589 26.0092 8.05939 25.9173C8.12937 25.6432 8.02214 25.3889 7.78607 25.2689C7.49219 25.1196 7.47549 25.1221 7.13354 25.3687ZM25.6984 27.2758C25.8042 27.9206 25.9557 28.1521 26.3553 28.2791C26.5105 28.3285 26.7979 28.4478 26.9939 28.5444C27.1899 28.6408 27.4141 28.7198 27.4921 28.7198C27.5701 28.7198 27.8721 28.5554 28.1633 28.3545L28.6927 27.9892L28.9271 28.2195L29.1615 28.4498L28.8324 28.9123C28.3717 29.5597 28.3637 29.6108 28.6341 30.1783C28.762 30.4469 28.8667 30.7157 28.8667 30.7755C28.8667 30.8353 28.9602 30.976 29.0745 31.0882C29.2391 31.2497 29.404 31.3114 29.8679 31.3848L30.4536 31.4775V31.7981C30.4536 32.1555 30.4501 32.1577 29.7142 32.2521C29.2145 32.3161 28.9962 32.4816 28.8717 32.8908C28.8182 33.0672 28.71 33.3354 28.6316 33.4868C28.4128 33.9091 28.4501 34.1194 28.8433 34.6797L29.1978 35.1848L28.9755 35.4032L28.7532 35.6216L28.1995 35.2517C27.895 35.0483 27.5953 34.8818 27.5335 34.8818C27.4718 34.8818 27.2449 34.9605 27.0293 35.0567C26.8138 35.1529 26.514 35.2711 26.3632 35.3194C25.9613 35.448 25.863 35.5988 25.7516 36.257L25.6514 36.8493L25.3384 36.8717C24.9854 36.8972 25.0009 36.9206 24.8553 36.144C24.7509 35.5867 24.6466 35.4407 24.2668 35.3199C24.116 35.272 23.8322 35.1538 23.6361 35.0573C23.4401 34.9608 23.2002 34.8818 23.1031 34.8818C23.0059 34.8818 22.7091 35.0322 22.4435 35.2159C22.1778 35.3997 21.9269 35.55 21.8857 35.55C21.7917 35.55 21.4611 35.2491 21.4611 35.1635C21.4611 35.1286 21.6141 34.8758 21.8011 34.6019C21.9882 34.328 22.1412 34.0272 22.1412 33.9336C22.1412 33.8399 22.0608 33.6057 21.9626 33.4131C21.8644 33.2205 21.7436 32.9403 21.6942 32.7905C21.5697 32.4123 21.4562 32.342 20.7534 32.2085L20.1387 32.0917L20.1155 31.7817C20.0898 31.4358 20.0422 31.4642 20.8881 31.3204C21.4031 31.2329 21.5711 31.1108 21.6953 30.7339C21.7441 30.5857 21.8644 30.3069 21.9626 30.1143C22.0608 29.9217 22.1412 29.6987 22.1412 29.6189C22.1412 29.539 21.9718 29.2289 21.7647 28.9298L21.3882 28.3858L21.6064 28.1715L21.8246 27.9572L22.4048 28.3385C22.724 28.5482 23.0177 28.7198 23.0574 28.7198C23.0973 28.7198 23.3481 28.6196 23.6148 28.4971C23.8814 28.3746 24.1547 28.2743 24.2219 28.2743C24.2892 28.2743 24.4363 28.1824 24.5489 28.0702C24.7085 27.9108 24.7748 27.7396 24.8503 27.2906L24.947 26.7153H25.2767H25.6063L25.6984 27.2758ZM24.581 29.3424C23.7687 29.6041 23.1665 30.1471 22.8902 30.8669C22.7609 31.2038 22.7371 31.399 22.7627 31.9122C22.7989 32.6382 22.9492 32.9918 23.4471 33.5224C24.6523 34.8069 26.8437 34.4751 27.6372 32.8879C27.819 32.5241 27.8464 32.3811 27.8461 31.8008C27.8458 31.2722 27.8115 31.0595 27.6815 30.7824C27.4498 30.2887 26.8828 29.7219 26.3923 29.494C25.8831 29.2573 25.0591 29.1883 24.581 29.3424ZM16.8515 32.0716V34.384L16.1474 34.3427C15.2903 34.2924 14.8601 34.1156 14.4314 33.6371C13.9761 33.1289 13.9044 32.7913 13.9044 31.1562V29.7592H15.3779H16.8515V32.0716ZM26.1022 30.6302C27.2662 31.4358 26.7278 33.1743 25.3143 33.1743C24.4654 33.1743 23.8788 32.5911 23.8796 31.7481C23.8807 30.6306 25.1676 29.9833 26.1022 30.6302Z" fill="#DB3CAE"/>
</svg>
