<svg width="38" height="38" viewBox="0 0 38 38" fill="none" xmlns="http://www.w3.org/2000/svg">
<path fill-rule="evenodd" clip-rule="evenodd" d="M14.761 0.194354L14.5667 0.388629V2.83512V5.28168L13.5177 5.71694L12.4688 6.1522L10.7198 4.42193C9.13227 2.85143 8.94599 2.69167 8.70224 2.69167C8.4546 2.69167 8.2095 2.91587 5.56265 5.56265C2.91587 8.2095 2.69167 8.4546 2.69167 8.70224C2.69167 8.94599 2.85143 9.13227 4.42193 10.7198L6.1522 12.4688L5.71694 13.5177L5.28168 14.5667H2.83512H0.388629L0.194354 14.761L0 14.9553V19V23.0447L0.194354 23.239L0.388629 23.4333H2.15302H3.91733L3.2756 23.863C2.92267 24.0993 2.61123 24.3516 2.5836 24.4236C2.55597 24.4957 2.53333 24.9274 2.53333 25.383C2.53333 26.1569 2.54608 26.2241 2.72769 26.4056C2.8884 26.5664 2.9997 26.6 3.37234 26.6H3.82272L3.77783 27.6094C3.72598 28.7753 3.54888 29.5454 3.12922 30.4297C2.85277 31.0122 2.83314 31.0333 2.56571 31.0333C2.37706 31.0333 2.22664 31.0954 2.09435 31.2277C1.91963 31.4023 1.89984 31.4882 1.89826 32.0787C1.89604 32.923 1.7484 33.2566 1.16937 33.7257C0.622487 34.1689 0.247554 34.7053 0.107667 35.2445C0.045125 35.4854 0 36.069 0 36.6354C0 37.5661 0.00902499 37.6204 0.194354 37.8056L0.388629 38H11.7167H23.0447L23.239 37.8056L23.4333 37.6114V35.1649V32.7183L24.4823 32.2831L25.5312 31.8478L27.2802 33.5781C28.8677 35.1486 29.054 35.3083 29.2978 35.3083C29.5454 35.3083 29.7905 35.0841 32.4374 32.4374C35.0841 29.7905 35.3083 29.5454 35.3083 29.2978C35.3083 29.054 35.1486 28.8677 33.5781 27.2802L31.8478 25.5312L32.2831 24.4823L32.7183 23.4333H35.1649H37.6114L37.8056 23.239L38 23.0447V19V14.9553L37.8056 14.761L37.6114 14.5667H35.1649H32.7183L32.2831 13.5177L31.8478 12.4688L33.5781 10.7198C35.1486 9.13227 35.3083 8.94599 35.3083 8.70224C35.3083 8.4546 35.0841 8.2095 32.4374 5.56265C29.7905 2.91587 29.5454 2.69167 29.2978 2.69167C29.054 2.69167 28.8677 2.85143 27.2802 4.42193L25.5312 6.1522L24.4823 5.71694L23.4333 5.28168V2.83512V0.388629L23.239 0.194354L23.0447 0H19H14.9553L14.761 0.194354ZM22.1667 3.325C22.1667 4.91965 22.1443 5.38302 22.0677 5.38191C22.0133 5.38104 21.6778 5.32895 21.3223 5.26609C20.9667 5.20315 20.2987 5.12731 19.8379 5.09754L19 5.04331V5.67704V6.31069L19.8115 6.36643C25.5859 6.76273 30.3034 10.9318 31.4441 16.6465C31.6983 17.9198 31.6983 20.0801 31.4441 21.3535C30.5281 25.9428 27.2781 29.6337 22.9259 31.0272C22.2323 31.2492 21.1812 31.5083 20.974 31.5083C20.9296 31.5083 20.9 30.4804 20.9 28.9417V26.3752L21.3156 26.2404C23.822 25.4278 25.7663 23.3124 26.4162 20.6912C26.6202 19.8685 26.6011 17.9717 26.3807 17.1676C25.6082 14.3486 23.4965 12.2766 20.6904 11.5843C19.9318 11.3972 18.0529 11.396 17.3096 11.5822C15.9647 11.9192 14.7928 12.5583 13.7921 13.5004L13.1167 14.1363L13.6083 14.547L14.0998 14.9578L14.5407 14.5169C15.3412 13.7164 16.3022 13.1782 17.5354 12.84C18.2137 12.654 19.8088 12.6629 20.5437 12.857C25.0976 14.0592 26.8373 19.5123 23.811 23.0977C22.8871 24.1924 21.392 25.0517 20.1174 25.2208L19.7245 25.273L18.7181 24.373L17.7116 23.4729L19.4713 23.4333C21.6936 23.3834 21.5333 23.5083 21.5333 21.8259V20.6317L19.95 19.0415L18.3667 17.4513V16.5199C18.3667 15.6234 18.359 15.5809 18.1615 15.3835C17.9718 15.1937 17.9195 15.1819 17.4606 15.2248C16.4627 15.318 15.6017 15.8155 15.0732 16.6045C14.9052 16.8553 14.7635 17.0698 14.7583 17.0814C14.7532 17.093 14.5416 17.1564 14.2882 17.2224C12.9277 17.5768 11.8752 18.6339 11.5181 20.0049C11.4208 20.3784 11.4 21.1776 11.4 24.5419V28.6255L12.0333 30.2021C12.584 31.5729 12.6664 31.8412 12.6649 32.2571C12.6627 32.8679 12.4674 33.3021 12.0439 33.6374L11.7167 33.8966L11.3894 33.6374C10.9258 33.2703 10.7705 32.8805 10.7684 32.0787C10.7668 31.4882 10.747 31.4023 10.5723 31.2277C10.44 31.0954 10.2896 31.0333 10.101 31.0333C9.83353 31.0333 9.8139 31.0122 9.53745 30.4297C9.11778 29.5454 8.94069 28.7753 8.88883 27.6094L8.84395 26.6H9.29432C9.66696 26.6 9.77827 26.5664 9.93898 26.4056C10.1209 26.2238 10.1333 26.1577 10.1333 25.3713C10.1333 24.9093 10.0997 24.4684 10.0585 24.3915C10.0174 24.3145 9.64361 24.0274 9.2279 23.7532L8.4721 23.2549L8.7206 22.9718C8.85732 22.8162 9.0797 22.4555 9.21476 22.1704C9.43587 21.7038 9.46042 21.577 9.46042 20.9C9.46042 20.2199 9.43643 20.0973 9.20985 19.6191C8.8612 18.8831 8.41241 18.4247 7.69183 18.0686C7.12658 17.7892 7.05177 17.7729 6.33333 17.7729C5.6149 17.7729 5.54008 17.7892 4.97483 18.0686C4.26138 18.4212 3.80348 18.8847 3.4747 19.5873C3.12819 20.3279 3.086 21.2934 3.36799 22.0283C3.41691 22.1558 3.3368 22.1667 2.34389 22.1667H1.26667V19V15.8333H3.5933C5.69446 15.8333 5.93568 15.8199 6.08253 15.6948C6.28401 15.5231 7.52083 12.5445 7.52083 12.2309C7.52083 12.0393 7.25562 11.7361 5.87947 10.3542L4.23811 8.70604L6.47203 6.47203L8.70604 4.23811L10.3542 5.87947C11.7361 7.25562 12.0393 7.52083 12.2309 7.52083C12.5445 7.52083 15.5231 6.28401 15.6948 6.08253C15.8199 5.93568 15.8333 5.69446 15.8333 3.5933V1.26667H19H22.1667V3.325ZM31.5481 6.49182L33.7638 8.70857L32.2987 10.1738L30.8334 11.6389L30.3209 10.9059C29.662 9.96368 28.0365 8.33807 27.0944 7.67932L26.3616 7.16696L27.8061 5.72098C28.6005 4.92567 29.2689 4.275 29.2914 4.275C29.3139 4.275 30.3294 5.27258 31.5481 6.49182ZM36.7333 19V22.1667H34.675C33.081 22.1667 32.6167 22.1443 32.6169 22.0677C32.6171 22.0133 32.6771 21.6481 32.7504 21.2563C32.8462 20.7432 32.8835 20.1115 32.8835 19C32.8835 17.8885 32.8462 17.2568 32.7504 16.7437C32.6771 16.3519 32.6171 15.9868 32.6169 15.9323C32.6167 15.8557 33.081 15.8333 34.675 15.8333H36.7333V19ZM18.7031 19.6139L20.2667 21.1785V21.6726V22.1667L18.2281 22.1632L16.1896 22.1598L15.5958 21.6084L15.0021 21.057L14.5885 21.5128C14.3611 21.7636 14.1829 21.9904 14.1927 22.0169C14.2024 22.0433 15.4304 23.1477 16.9214 24.4711L19.6324 26.8771L19.6329 28.9552L19.6333 31.0333H16.679H13.7247L13.1923 29.6979L12.6599 28.3623L12.6831 24.2947L12.7063 20.2271L12.9196 19.8228C13.0369 19.6003 13.2221 19.3124 13.3311 19.1828C13.6278 18.8302 14.3836 18.4591 14.9299 18.3976C15.5509 18.3278 15.6576 18.2621 15.8396 17.8374C16.0674 17.3059 16.2897 17.0292 16.6965 16.7707L17.0604 16.5396L17.1 17.2944L17.1396 18.0492L18.7031 19.6139ZM6.9179 19.0963C7.59826 19.2973 8.23333 20.1681 8.23333 20.9C8.23333 21.881 7.31429 22.8 6.33333 22.8C5.83537 22.8 5.4344 22.6189 5.02439 22.2089C4.22346 21.408 4.22346 20.3929 5.02439 19.5902C5.57975 19.0336 6.17793 18.8776 6.9179 19.0963ZM8.13042 24.5521C8.62323 24.8771 8.86667 25.0865 8.86667 25.1854C8.86667 25.3268 8.75417 25.3333 6.33333 25.3333C3.91685 25.3333 3.8 25.3265 3.8 25.1862C3.8 25.0883 4.0455 24.8762 4.53229 24.5533L5.26458 24.0676L6.32937 24.0671L7.39425 24.0667L8.13042 24.5521ZM31.528 31.528L29.2917 33.7641L27.8192 32.2916L26.3467 30.8191L26.7306 30.5826C27.8412 29.8982 29.5642 28.2177 30.3669 27.036L30.8286 26.3562L32.2964 27.824L33.7641 29.2917L31.528 31.528ZM7.6 27.3068C7.6 28.3152 7.73055 29.14 8.02687 30.0042C8.16873 30.4178 8.31266 30.8186 8.3467 30.8948C8.40481 31.0248 8.2806 31.0333 6.33333 31.0333C4.38607 31.0333 4.26186 31.0248 4.31997 30.8948C4.35401 30.8186 4.49793 30.4178 4.6398 30.0042C4.93612 29.14 5.06667 28.3152 5.06667 27.3068V26.6H6.33333H7.6V27.3068ZM9.53056 32.7552C9.61131 33.4578 9.90264 33.966 10.5726 34.5727C11.2502 35.1864 11.4 35.4847 11.4 36.2203V36.7333H6.33333H1.26667V36.2203C1.26667 35.4847 1.41645 35.1864 2.09404 34.5727C2.76402 33.966 3.05536 33.4578 3.13611 32.7552L3.18844 32.3H6.33333H9.47823L9.53056 32.7552ZM19.6639 32.7552C19.7446 33.4578 20.036 33.966 20.706 34.5727C21.3836 35.1864 21.5333 35.4847 21.5333 36.2203V36.7333H17.1H12.6667V36.2226C12.6667 35.9417 12.6283 35.5328 12.5812 35.3138L12.4959 34.9157L12.9741 34.473C13.5307 33.9576 13.8277 33.4082 13.9028 32.7552L13.9551 32.3H16.7833H19.6116L19.6639 32.7552ZM22.1667 33.4235C22.1667 34.0805 22.1483 34.2078 22.0677 34.1094C22.0133 34.043 21.7973 33.8519 21.5876 33.6848C21.2386 33.4065 20.9792 33.0567 20.9792 32.8641C20.9792 32.7918 21.5934 32.6469 21.9885 32.6261C22.1622 32.6169 22.1667 32.6368 22.1667 33.4235Z" fill="#FF6900"/>
</svg>
