<svg width="372" height="345" viewBox="0 0 372 345" fill="none" xmlns="http://www.w3.org/2000/svg">
<path d="M222.64 11.423C222.64 11.423 222.85 11.423 223.27 11.443C223.689 11.4829 224.329 11.433 225.148 11.5926C226.786 11.7822 229.284 12.3209 232.091 13.9869C233.509 14.785 234.948 15.9323 236.317 17.3988C237.675 18.8753 238.934 20.7109 239.843 22.9157C240.762 25.1105 241.252 27.6744 241.232 30.4179C241.232 33.1414 241.242 36.0545 241.242 39.1272C241.252 63.7487 241.282 99.3641 241.302 143.38C241.312 187.395 241.322 239.8 241.332 297.992C241.332 305.265 241.332 312.627 241.332 320.08C241.332 321.945 241.332 323.811 241.332 325.686C241.312 327.562 241.192 329.497 240.622 331.323C240.093 333.149 239.334 334.935 238.255 336.531C237.186 338.127 235.887 339.573 234.398 340.801C231.392 343.215 227.625 344.751 223.709 344.941C219.833 345.05 215.977 344.971 212.081 344.991C204.299 344.991 196.447 344.981 188.515 344.981C172.661 344.971 156.527 344.961 140.153 344.961C131.972 344.961 123.72 344.951 115.418 344.951C111.273 344.951 107.107 344.951 102.931 344.941C98.7352 345.15 94.3896 344.053 90.8831 341.619C87.3567 339.204 84.7593 335.553 83.5505 331.503C82.9011 329.487 82.7812 327.333 82.7812 325.248C82.7812 323.172 82.7812 321.087 82.7812 319.022C82.7812 310.732 82.7813 302.492 82.7912 294.311C82.7912 277.96 82.8012 261.838 82.8012 246.006C82.8112 214.331 82.8212 183.784 82.8312 154.683C82.8412 125.582 82.8612 97.9275 82.8712 72.049C82.8811 59.1097 82.8912 46.6094 82.8912 34.598C82.8912 33.0915 82.8912 31.6051 82.8912 30.1186C82.9011 29.3704 82.9511 28.6222 82.9911 27.8739C83.1209 27.1357 83.1808 26.3875 83.3707 25.6692C84.05 22.776 85.3886 20.0725 87.2668 17.8378C89.1548 15.623 91.5225 13.8672 94.1298 12.7199C96.7372 11.5427 99.5943 11.1337 102.352 11.1636C107.856 11.1736 113.241 11.1736 118.475 11.1836C121.093 11.1836 123.68 11.1936 126.237 11.1936C127.516 11.1936 128.785 11.1936 130.044 11.1936C131.312 11.1337 132.641 11.4829 133.69 12.2111C134.739 12.9394 135.538 13.9969 135.958 15.1741C136.427 16.3613 136.317 17.6383 136.337 18.8254C136.337 19.424 136.337 20.0226 136.337 20.6212C136.337 21.2197 136.317 21.8183 136.397 22.387C136.547 23.5342 137.027 24.6217 137.776 25.4796C138.515 26.3476 139.524 26.9661 140.603 27.2354C141.152 27.3751 141.692 27.415 142.271 27.3951C142.841 27.3951 143.41 27.3951 143.98 27.3951C146.247 27.3951 148.465 27.405 150.653 27.405C159.404 27.415 167.556 27.425 175.048 27.445C178.795 27.4549 182.381 27.4549 185.807 27.4649C186.657 27.4549 187.516 27.5048 188.325 27.435C189.134 27.3452 189.913 27.0659 190.593 26.6369C191.951 25.7889 192.87 24.3922 193.19 22.9157C193.36 22.1775 193.33 21.4193 193.34 20.671C193.34 19.9228 193.34 19.1846 193.34 18.4563C193.35 17.738 193.3 17.0097 193.44 16.3014C193.56 15.5931 193.799 14.9247 194.139 14.3261C194.808 13.109 195.887 12.1912 197.096 11.7223C198.315 11.1936 199.604 11.3532 200.772 11.3332C205.518 11.3432 209.534 11.3532 212.77 11.3632C216.007 11.3731 218.485 11.3831 220.153 11.3931C221.791 11.413 222.64 11.423 222.64 11.423C222.64 11.423 221.791 11.443 220.123 11.4529C218.455 11.4529 215.987 11.4629 212.74 11.4729C209.494 11.4729 205.478 11.4829 200.742 11.4928C199.564 11.5228 198.295 11.3731 197.126 11.8819C195.957 12.3408 194.908 13.2387 194.269 14.4259C193.939 15.0145 193.71 15.6629 193.6 16.3513C193.47 17.0297 193.52 17.748 193.51 18.4763C193.51 19.2045 193.51 19.9428 193.51 20.691C193.51 21.4292 193.54 22.2074 193.37 22.9756C193.05 24.5019 192.101 25.9585 190.693 26.8364C189.993 27.2754 189.184 27.5747 188.335 27.6644C187.476 27.7442 186.647 27.6844 185.787 27.7043C182.371 27.7043 178.785 27.7043 175.028 27.7043C167.526 27.7043 159.384 27.7043 150.633 27.7143C148.445 27.7143 146.217 27.7143 143.96 27.7143C143.39 27.7143 142.821 27.7143 142.251 27.7143C141.682 27.7243 141.083 27.6844 140.513 27.5447C139.364 27.2654 138.305 26.6069 137.526 25.6991C136.737 24.8012 136.227 23.644 136.068 22.4468C135.988 21.8383 136.008 21.2397 136.008 20.6411C136.008 20.0425 136.008 19.444 136.008 18.8454C135.988 17.6382 136.098 16.4211 135.648 15.3038C135.258 14.1765 134.489 13.1888 133.5 12.5005C132.501 11.8121 131.292 11.4829 130.044 11.5427C128.785 11.5427 127.516 11.5427 126.237 11.5427C123.69 11.5427 121.103 11.5427 118.475 11.5427C113.231 11.5427 107.856 11.5427 102.352 11.5427C99.6143 11.5128 96.8371 11.9218 94.2797 13.0691C91.7322 14.1964 89.4146 15.9223 87.5664 18.0972C85.7283 20.282 84.4196 22.9357 83.7603 25.7689C83.5705 26.4772 83.5205 27.2055 83.3907 27.9238C83.3507 28.6521 83.3007 29.3804 83.2907 30.1286C83.2907 31.6151 83.2907 33.1115 83.2907 34.6079C83.2907 46.6194 83.2908 59.1197 83.3007 72.059C83.3007 97.9375 83.3107 125.592 83.3107 154.693C83.3107 183.794 83.3107 214.341 83.3107 246.016C83.3107 261.848 83.3107 277.97 83.3007 294.321C83.3007 302.502 83.3007 310.732 83.3007 319.032C83.3007 321.107 83.3007 323.182 83.3007 325.257C83.3007 327.333 83.4206 329.388 84.05 331.363C85.2288 335.304 87.7562 338.855 91.1828 341.2C94.6093 343.564 98.7851 344.641 102.941 344.432C107.117 344.432 111.283 344.442 115.428 344.442C123.73 344.452 131.972 344.452 140.163 344.462C156.537 344.472 172.671 344.482 188.525 344.492C196.447 344.502 204.309 344.502 212.091 344.512C215.977 344.492 219.873 344.572 223.689 344.462C227.495 344.272 231.162 342.776 234.089 340.431C235.537 339.234 236.806 337.828 237.845 336.271C238.894 334.715 239.623 332.979 240.143 331.203C240.692 329.418 240.812 327.562 240.832 325.696C240.832 323.821 240.832 321.955 240.832 320.09C240.832 312.637 240.842 305.275 240.842 298.002C240.872 239.81 240.902 187.405 240.932 143.39C240.972 99.3741 241.012 63.7587 241.032 39.1372C241.032 36.0645 241.042 33.1514 241.042 30.4279C241.072 27.7043 240.592 25.1704 239.693 22.9855C238.804 20.8007 237.555 18.9651 236.217 17.4986C234.868 16.0321 233.439 14.8848 232.041 14.0867C229.264 12.4107 226.776 11.862 225.148 11.6525C224.329 11.4929 223.699 11.5327 223.28 11.4829C222.86 11.443 222.64 11.423 222.64 11.423Z" fill="#410EAD"/>
<path d="M222.781 102.985C222.781 102.845 224.35 102.726 226.278 102.726C225.758 103.244 226.138 102.865 226.018 102.985V102.975V102.965V102.945V102.895V102.806V102.626V102.277C226.028 102.057 226.028 101.848 226.038 101.618C226.048 101.199 226.068 100.82 226.098 100.511C226.148 99.8824 226.208 99.4834 226.278 99.4834C226.348 99.4834 226.418 99.8725 226.458 100.511C226.478 100.83 226.497 101.199 226.517 101.618C226.527 101.838 226.527 102.057 226.537 102.277V102.626V102.806V102.895V102.945V102.965V102.975V102.985C226.418 103.105 226.797 102.726 226.278 103.244C224.35 103.244 222.781 103.125 222.781 102.985Z" fill="#410EAD"/>
<path d="M209.295 102.985C209.295 102.845 210.803 102.726 212.672 102.726C214.54 102.726 216.048 102.845 216.048 102.985C216.048 103.125 214.54 103.244 212.672 103.244C210.803 103.244 209.295 103.125 209.295 102.985Z" fill="#410EAD"/>
<path d="M195.798 102.985C195.798 102.845 197.306 102.726 199.174 102.726C201.043 102.726 202.551 102.845 202.551 102.985C202.551 103.125 201.043 103.244 199.174 103.244C197.306 103.244 195.798 103.125 195.798 102.985Z" fill="#410EAD"/>
<path d="M182.312 102.985C182.312 102.845 183.821 102.726 185.689 102.726C187.557 102.726 189.066 102.845 189.066 102.985C189.066 103.125 187.557 103.244 185.689 103.244C183.821 103.244 182.312 103.125 182.312 102.985Z" fill="#410EAD"/>
<path d="M168.814 102.985C168.814 102.845 170.323 102.726 172.191 102.726C174.059 102.726 175.568 102.845 175.568 102.985C175.568 103.125 174.059 103.244 172.191 103.244C170.323 103.244 168.814 103.125 168.814 102.985Z" fill="#410EAD"/>
<path d="M155.329 102.985C155.329 102.845 156.838 102.726 158.706 102.726C160.574 102.726 162.082 102.845 162.082 102.985C162.082 103.125 160.574 103.244 158.706 103.244C156.838 103.244 155.329 103.125 155.329 102.985Z" fill="#410EAD"/>
<path d="M141.832 102.985C141.832 102.845 143.341 102.726 145.209 102.726C147.077 102.726 148.585 102.845 148.585 102.985C148.585 103.125 147.077 103.244 145.209 103.244C143.341 103.244 141.832 103.125 141.832 102.985Z" fill="#410EAD"/>
<path d="M128.337 102.985C128.337 102.845 129.845 102.726 131.714 102.726C133.582 102.726 135.09 102.845 135.09 102.985C135.09 103.125 133.582 103.244 131.714 103.244C129.855 103.244 128.337 103.125 128.337 102.985Z" fill="#410EAD"/>
<path d="M114.851 102.985C114.851 102.845 116.359 102.726 118.227 102.726C120.095 102.726 121.604 102.845 121.604 102.985C121.604 103.125 120.095 103.244 118.227 103.244C116.359 103.244 114.851 103.125 114.851 102.985Z" fill="#410EAD"/>
<path d="M104.611 99.4937C104.751 99.4937 104.871 101.06 104.871 102.985C104.351 102.467 104.731 102.846 104.611 102.726H104.621H104.631H104.651H104.701H104.791H104.971H105.32C105.54 102.736 105.75 102.736 105.98 102.746C106.399 102.756 106.779 102.776 107.088 102.806C107.718 102.856 108.117 102.916 108.117 102.985C108.117 103.055 107.728 103.125 107.088 103.165C106.769 103.185 106.399 103.205 105.98 103.225C105.76 103.235 105.54 103.235 105.32 103.245H104.971H104.791H104.701H104.651H104.631H104.621H104.611C104.491 103.125 104.871 103.504 104.351 102.985C104.341 101.06 104.461 99.4937 104.611 99.4937Z" fill="#410EAD"/>
<path d="M104.611 85.8257C104.751 85.8257 104.871 87.3521 104.871 89.2376C104.871 91.1231 104.751 92.6495 104.611 92.6495C104.471 92.6495 104.351 91.1231 104.351 89.2376C104.341 87.362 104.461 85.8257 104.611 85.8257Z" fill="#410EAD"/>
<path d="M104.611 72.1685C104.751 72.1685 104.871 73.6948 104.871 75.5803C104.871 77.4659 104.751 78.9922 104.611 78.9922C104.471 78.9922 104.351 77.4659 104.351 75.5803C104.341 73.6948 104.461 72.1685 104.611 72.1685Z" fill="#410EAD"/>
<path d="M108.107 61.8429C108.107 61.9825 106.539 62.1023 104.611 62.1023C105.13 61.5835 104.751 61.9626 104.871 61.8429V61.8528V61.8628V61.8828V61.9327V62.0224V62.202V62.5512C104.861 62.7707 104.861 62.9802 104.851 63.2096C104.841 63.6286 104.821 64.0077 104.791 64.317C104.741 64.9455 104.681 65.3446 104.611 65.3446C104.541 65.3446 104.471 64.9555 104.431 64.317C104.411 63.9978 104.391 63.6286 104.371 63.2096C104.361 62.9901 104.361 62.7707 104.351 62.5512V62.202V62.0224V61.9327V61.8828V61.8628V61.8528V61.8429C104.471 61.7232 104.091 62.1023 104.611 61.5835C106.539 61.5835 108.107 61.6932 108.107 61.8429Z" fill="#410EAD"/>
<path d="M121.594 61.8429C121.594 61.9825 120.086 62.1023 118.217 62.1023C116.349 62.1023 114.841 61.9825 114.841 61.8429C114.841 61.7032 116.349 61.5835 118.217 61.5835C120.086 61.5835 121.594 61.6932 121.594 61.8429Z" fill="#410EAD"/>
<path d="M135.09 61.8429C135.09 61.9825 133.582 62.1023 131.714 62.1023C129.845 62.1023 128.337 61.9825 128.337 61.8429C128.337 61.7032 129.845 61.5835 131.714 61.5835C133.572 61.5835 135.09 61.6932 135.09 61.8429Z" fill="#410EAD"/>
<path d="M148.575 61.8429C148.575 61.9825 147.067 62.1023 145.199 62.1023C143.331 62.1023 141.822 61.9825 141.822 61.8429C141.822 61.7032 143.331 61.5835 145.199 61.5835C147.067 61.5835 148.575 61.6932 148.575 61.8429Z" fill="#410EAD"/>
<path d="M162.073 61.8429C162.073 61.9825 160.564 62.1023 158.696 62.1023C156.828 62.1023 155.319 61.9825 155.319 61.8429C155.319 61.7032 156.828 61.5835 158.696 61.5835C160.564 61.5835 162.073 61.6932 162.073 61.8429Z" fill="#410EAD"/>
<path d="M175.558 61.8429C175.558 61.9825 174.049 62.1023 172.181 62.1023C170.313 62.1023 168.805 61.9825 168.805 61.8429C168.805 61.7032 170.313 61.5835 172.181 61.5835C174.049 61.5835 175.558 61.6932 175.558 61.8429Z" fill="#410EAD"/>
<path d="M189.056 61.8429C189.056 61.9825 187.547 62.1023 185.679 62.1023C183.811 62.1023 182.303 61.9825 182.303 61.8429C182.303 61.7032 183.811 61.5835 185.679 61.5835C187.547 61.5835 189.056 61.6932 189.056 61.8429Z" fill="#410EAD"/>
<path d="M202.541 61.8429C202.541 61.9825 201.033 62.1023 199.165 62.1023C197.297 62.1023 195.788 61.9825 195.788 61.8429C195.788 61.7032 197.297 61.5835 199.165 61.5835C201.033 61.5835 202.541 61.6932 202.541 61.8429Z" fill="#410EAD"/>
<path d="M216.037 61.8429C216.037 61.9825 214.529 62.1023 212.661 62.1023C210.793 62.1023 209.284 61.9825 209.284 61.8429C209.284 61.7032 210.793 61.5835 212.661 61.5835C214.529 61.5835 216.037 61.6932 216.037 61.8429Z" fill="#410EAD"/>
<path d="M226.277 65.3345C226.137 65.3345 226.017 63.7682 226.017 61.8428C226.537 62.3616 226.157 61.9825 226.277 62.1022H226.267H226.257H226.237H226.187H226.097H225.917H225.568C225.348 62.0922 225.138 62.0922 224.908 62.0823C224.489 62.0723 224.109 62.0523 223.799 62.0224C223.17 61.9725 222.771 61.9126 222.771 61.8428C222.771 61.773 223.16 61.7031 223.799 61.6632C224.119 61.6433 224.489 61.6233 224.908 61.6034C225.128 61.5934 225.348 61.5934 225.568 61.5834H225.917H226.097H226.187H226.237H226.257H226.267H226.277C226.397 61.7032 226.017 61.324 226.537 61.8428C226.537 63.7682 226.427 65.3345 226.277 65.3345Z" fill="#410EAD"/>
<path d="M226.277 78.9922C226.137 78.9922 226.017 77.4659 226.017 75.5803C226.017 73.6948 226.137 72.1685 226.277 72.1685C226.417 72.1685 226.537 73.6948 226.537 75.5803C226.537 77.4659 226.427 78.9922 226.277 78.9922Z" fill="#410EAD"/>
<path d="M226.277 92.6597C226.137 92.6597 226.017 91.1334 226.017 89.2478C226.017 87.3623 226.137 85.8359 226.277 85.8359C226.417 85.8359 226.537 87.3623 226.537 89.2478C226.537 91.1334 226.427 92.6597 226.277 92.6597Z" fill="#410EAD"/>
<path d="M105.959 60.7656H103.812V62.9105H105.959V60.7656Z" fill="#410EAD"/>
<path d="M105.678 101.918H103.531V104.063H105.678V101.918Z" fill="#410EAD"/>
<path d="M166.517 101.918H164.37V104.063H166.517V101.918Z" fill="#410EAD"/>
<path d="M166.517 60.3169H164.37V62.4618H166.517V60.3169Z" fill="#410EAD"/>
<path d="M226.232 41.3519C226.232 41.4319 223.175 41.5219 219.399 41.5519C215.622 41.5819 212.565 41.5419 212.565 41.4619C212.565 41.3819 215.622 41.2919 219.399 41.2619C223.165 41.2319 226.222 41.2719 226.232 41.3519Z" fill="#263238"/>
<path d="M226.251 44.8436C226.251 44.9236 223.194 45.0136 219.418 45.0436C215.642 45.0736 212.585 45.0336 212.585 44.9536C212.585 44.8736 215.642 44.7836 219.418 44.7536C223.194 44.7236 226.251 44.7636 226.251 44.8436Z" fill="#263238"/>
<path d="M226.281 48.3353C226.281 48.4153 223.225 48.5053 219.448 48.5353C215.672 48.5653 212.615 48.5253 212.615 48.4453C212.615 48.3653 215.672 48.2753 219.448 48.2453C223.225 48.2153 226.281 48.2553 226.281 48.3353Z" fill="#263238"/>
<path d="M184.5 163.512C184.5 163.642 175.059 163.751 163.411 163.751C151.763 163.751 142.322 163.642 142.322 163.512C142.322 163.382 151.763 163.272 163.411 163.272C175.049 163.272 184.5 163.372 184.5 163.512Z" fill="#E0E0E0"/>
<path d="M218.126 172.152C218.126 172.281 201.153 172.391 180.224 172.391C159.285 172.391 142.312 172.281 142.312 172.152C142.312 172.022 159.285 171.912 180.224 171.912C201.153 171.912 218.126 172.022 218.126 172.152Z" fill="#263238"/>
<path d="M217.237 178.327C217.237 178.457 200.464 178.566 179.775 178.566C159.086 178.566 142.312 178.457 142.312 178.327C142.312 178.197 159.086 178.087 179.775 178.087C200.464 178.087 217.237 178.197 217.237 178.327Z" fill="#263238"/>
<path d="M186.548 184.213C186.548 184.342 176.648 184.452 164.43 184.452C152.213 184.452 142.312 184.342 142.312 184.213C142.312 184.083 152.213 183.973 164.43 183.973C176.648 183.973 186.548 184.083 186.548 184.213Z" fill="#263238"/>
<path d="M184.5 257.478C184.5 257.608 175.059 257.718 163.411 257.718C151.763 257.718 142.322 257.608 142.322 257.478C142.322 257.348 151.763 257.239 163.411 257.239C175.049 257.239 184.5 257.348 184.5 257.478Z" fill="#E0E0E0"/>
<path d="M218.126 266.128C218.126 266.257 201.153 266.367 180.224 266.367C159.285 266.367 142.312 266.257 142.312 266.128C142.312 265.998 159.285 265.888 180.224 265.888C201.153 265.888 218.126 265.988 218.126 266.128Z" fill="#263238"/>
<path d="M217.237 272.303C217.237 272.433 200.464 272.542 179.775 272.542C159.086 272.542 142.312 272.433 142.312 272.303C142.312 272.173 159.086 272.063 179.775 272.063C200.464 272.063 217.237 272.163 217.237 272.303Z" fill="#263238"/>
<path d="M186.548 278.19C186.548 278.319 176.648 278.429 164.43 278.429C152.213 278.429 142.312 278.319 142.312 278.19C142.312 278.06 152.213 277.95 164.43 277.95C176.648 277.95 186.548 278.06 186.548 278.19Z" fill="#263238"/>
<path d="M184.61 120.993C184.61 121.123 175.17 121.232 163.521 121.232C151.873 121.232 142.433 121.123 142.433 120.993C142.433 120.863 151.873 120.753 163.521 120.753C175.17 120.753 184.61 120.863 184.61 120.993Z" fill="#410EAD"/>
<path d="M218.246 129.642C218.246 129.771 201.273 129.881 180.344 129.881C159.405 129.881 142.433 129.771 142.433 129.642C142.433 129.512 159.405 129.402 180.344 129.402C201.273 129.402 218.246 129.502 218.246 129.642Z" fill="#263238"/>
<path d="M217.347 135.807C217.347 135.937 200.574 136.047 179.885 136.047C159.196 136.047 142.423 135.937 142.423 135.807C142.423 135.678 159.196 135.568 179.885 135.568C200.574 135.568 217.347 135.678 217.347 135.807Z" fill="#263238"/>
<path d="M186.668 141.703C186.668 141.833 176.768 141.943 164.55 141.943C152.333 141.943 142.433 141.833 142.433 141.703C142.433 141.574 152.333 141.464 164.55 141.464C176.758 141.464 186.668 141.574 186.668 141.703Z" fill="#263238"/>
<path d="M124.238 143.519C124.238 143.379 125.807 143.26 127.735 143.26C129.663 143.26 131.231 143.379 131.231 143.519C131.231 143.659 129.663 143.779 127.735 143.779C125.807 143.779 124.238 143.659 124.238 143.519Z" fill="#410EAD"/>
<path d="M110.252 143.519C110.252 143.379 111.82 143.26 113.748 143.26C115.676 143.26 117.245 143.379 117.245 143.519C117.245 143.659 115.676 143.779 113.748 143.779C111.82 143.779 110.252 143.659 110.252 143.519Z" fill="#410EAD"/>
<path d="M107.665 132.136C107.805 132.136 107.925 133.703 107.925 135.628C107.925 137.553 107.805 139.12 107.665 139.12C107.525 139.12 107.405 137.553 107.405 135.628C107.405 133.693 107.525 132.136 107.665 132.136Z" fill="#410EAD"/>
<path d="M109.492 119.985C109.492 120.085 108.763 120.165 107.665 120.214L107.895 119.985C107.915 120.474 107.925 121.043 107.925 121.651C107.925 123.577 107.805 125.143 107.665 125.143C107.525 125.143 107.405 123.577 107.405 121.651C107.405 121.043 107.415 120.474 107.435 119.985L107.445 119.746L107.665 119.756C108.753 119.805 109.492 119.885 109.492 119.985Z" fill="#410EAD"/>
<path d="M123.48 119.985C123.48 120.125 121.912 120.245 119.984 120.245C118.056 120.245 116.487 120.125 116.487 119.985C116.487 119.846 118.056 119.726 119.984 119.726C121.912 119.726 123.48 119.846 123.48 119.985Z" fill="#410EAD"/>
<path d="M131.232 126.21C131.092 126.21 130.972 124.644 130.972 122.719C130.972 121.601 131.012 120.614 131.072 119.985L131.232 120.145C130.752 120.105 130.473 120.045 130.473 119.985C130.473 119.925 130.752 119.865 131.232 119.825L131.371 119.815L131.391 119.985C131.451 120.614 131.491 121.601 131.491 122.719C131.491 124.644 131.371 126.21 131.232 126.21Z" fill="#410EAD"/>
<path d="M131.233 140.177C131.093 140.177 130.973 138.611 130.973 136.686C130.973 134.76 131.093 133.194 131.233 133.194C131.373 133.194 131.493 134.76 131.493 136.686C131.493 138.611 131.373 140.177 131.233 140.177Z" fill="#410EAD"/>
<path d="M132.283 142.372H129.677V144.975H132.283V142.372Z" fill="#410EAD"/>
<path d="M132.283 118.05H129.677V120.654H132.283V118.05Z" fill="#410EAD"/>
<path d="M108.976 142.372H106.369V144.975H108.976V142.372Z" fill="#410EAD"/>
<path d="M108.976 118.688H106.369V121.292H108.976V118.688Z" fill="#410EAD"/>
<path d="M124.238 186.836C124.238 186.696 125.807 186.577 127.735 186.577C129.663 186.577 131.231 186.696 131.231 186.836C131.231 186.976 129.663 187.095 127.735 187.095C125.807 187.105 124.238 186.986 124.238 186.836Z" fill="#E0E0E0"/>
<path d="M110.252 186.836C110.252 186.696 111.82 186.577 113.748 186.577C115.676 186.577 117.245 186.696 117.245 186.836C117.245 186.976 115.676 187.095 113.748 187.095C111.82 187.105 110.252 186.986 110.252 186.836Z" fill="#E0E0E0"/>
<path d="M107.665 175.453C107.805 175.453 107.925 177.019 107.925 178.945C107.925 180.87 107.805 182.437 107.665 182.437C107.525 182.437 107.405 180.87 107.405 178.945C107.405 177.019 107.525 175.453 107.665 175.453Z" fill="#E0E0E0"/>
<path d="M109.492 163.312C109.492 163.412 108.763 163.492 107.665 163.542L107.895 163.312C107.915 163.801 107.925 164.37 107.925 164.978C107.925 166.904 107.805 168.47 107.665 168.47C107.525 168.47 107.405 166.904 107.405 164.978C107.405 164.37 107.415 163.801 107.435 163.312L107.445 163.073L107.665 163.083C108.753 163.123 109.492 163.212 109.492 163.312Z" fill="#E0E0E0"/>
<path d="M123.48 163.312C123.48 163.452 121.912 163.571 119.984 163.571C118.056 163.571 116.487 163.452 116.487 163.312C116.487 163.172 118.056 163.053 119.984 163.053C121.912 163.053 123.48 163.162 123.48 163.312Z" fill="#E0E0E0"/>
<path d="M131.232 169.537C131.092 169.537 130.972 167.971 130.972 166.045C130.972 164.928 131.012 163.94 131.072 163.312L131.232 163.471C130.752 163.431 130.473 163.372 130.473 163.312C130.473 163.252 130.752 163.192 131.232 163.152L131.371 163.142L131.391 163.312C131.451 163.94 131.491 164.928 131.491 166.045C131.491 167.971 131.371 169.537 131.232 169.537Z" fill="#E0E0E0"/>
<path d="M131.233 183.504C131.093 183.504 130.973 181.938 130.973 180.012C130.973 178.087 131.093 176.521 131.233 176.521C131.373 176.521 131.493 178.087 131.493 180.012C131.493 181.938 131.373 183.504 131.233 183.504Z" fill="#E0E0E0"/>
<path d="M132.283 185.699H129.677V188.303H132.283V185.699Z" fill="#E0E0E0"/>
<path d="M132.283 161.367H129.677V163.971H132.283V161.367Z" fill="#E0E0E0"/>
<path d="M108.976 185.699H106.369V188.303H108.976V185.699Z" fill="#E0E0E0"/>
<path d="M108.976 162.005H106.369V164.609H108.976V162.005Z" fill="#E0E0E0"/>
<path d="M124.36 232.717C124.36 232.578 125.929 232.458 127.857 232.458C129.785 232.458 131.353 232.578 131.353 232.717C131.353 232.857 129.785 232.977 127.857 232.977C125.929 232.977 124.36 232.867 124.36 232.717Z" fill="#410EAD"/>
<path d="M110.375 232.717C110.375 232.578 111.943 232.458 113.871 232.458C115.8 232.458 117.368 232.578 117.368 232.717C117.368 232.857 115.8 232.977 113.871 232.977C111.943 232.977 110.375 232.867 110.375 232.717Z" fill="#410EAD"/>
<path d="M107.798 221.334C107.938 221.334 108.058 222.901 108.058 224.826C108.058 226.752 107.938 228.318 107.798 228.318C107.658 228.318 107.538 226.752 107.538 224.826C107.538 222.901 107.648 221.334 107.798 221.334Z" fill="#410EAD"/>
<path d="M109.615 209.193C109.615 209.293 108.886 209.373 107.788 209.423L108.018 209.193C108.038 209.682 108.048 210.251 108.048 210.859C108.048 212.785 107.928 214.351 107.788 214.351C107.648 214.351 107.528 212.785 107.528 210.859C107.528 210.251 107.538 209.682 107.558 209.193L107.568 208.954L107.788 208.964C108.886 209.003 109.615 209.093 109.615 209.193Z" fill="#410EAD"/>
<path d="M123.602 209.193C123.602 209.333 122.034 209.452 120.106 209.452C118.178 209.452 116.609 209.333 116.609 209.193C116.609 209.053 118.178 208.934 120.106 208.934C122.044 208.934 123.602 209.043 123.602 209.193Z" fill="#410EAD"/>
<path d="M131.355 215.418C131.215 215.418 131.095 213.852 131.095 211.927C131.095 210.809 131.135 209.822 131.195 209.193L131.355 209.353C130.875 209.313 130.596 209.253 130.596 209.193C130.596 209.133 130.875 209.073 131.355 209.033L131.494 209.023L131.514 209.193C131.574 209.822 131.614 210.809 131.614 211.927C131.614 213.852 131.504 215.418 131.355 215.418Z" fill="#410EAD"/>
<path d="M131.354 229.385C131.214 229.385 131.094 227.819 131.094 225.894C131.094 223.968 131.214 222.402 131.354 222.402C131.494 222.402 131.614 223.968 131.614 225.894C131.614 227.819 131.504 229.385 131.354 229.385Z" fill="#410EAD"/>
<path d="M132.412 231.57H129.806V234.174H132.412V231.57Z" fill="#410EAD"/>
<path d="M132.412 207.248H129.806V209.852H132.412V207.248Z" fill="#410EAD"/>
<path d="M109.096 231.57H106.489V234.174H109.096V231.57Z" fill="#410EAD"/>
<path d="M109.096 207.887H106.489V210.491H109.096V207.887Z" fill="#410EAD"/>
<path d="M124.238 278.478C124.238 278.338 125.807 278.219 127.735 278.219C129.663 278.219 131.231 278.338 131.231 278.478C131.231 278.618 129.663 278.738 127.735 278.738C125.807 278.738 124.238 278.618 124.238 278.478Z" fill="#E0E0E0"/>
<path d="M110.252 278.478C110.252 278.338 111.82 278.219 113.748 278.219C115.676 278.219 117.245 278.338 117.245 278.478C117.245 278.618 115.676 278.738 113.748 278.738C111.82 278.738 110.252 278.618 110.252 278.478Z" fill="#E0E0E0"/>
<path d="M107.665 267.086C107.805 267.086 107.925 268.652 107.925 270.578C107.925 272.503 107.805 274.069 107.665 274.069C107.525 274.069 107.405 272.503 107.405 270.578C107.405 268.652 107.525 267.086 107.665 267.086Z" fill="#E0E0E0"/>
<path d="M109.492 254.945C109.492 255.044 108.763 255.124 107.665 255.174L107.895 254.945C107.915 255.433 107.925 256.002 107.925 256.611C107.925 258.536 107.805 260.102 107.665 260.102C107.525 260.102 107.405 258.536 107.405 256.611C107.405 256.002 107.415 255.433 107.435 254.945L107.445 254.705L107.665 254.715C108.753 254.765 109.492 254.845 109.492 254.945Z" fill="#E0E0E0"/>
<path d="M123.48 254.944C123.48 255.084 121.912 255.204 119.984 255.204C118.056 255.204 116.487 255.084 116.487 254.944C116.487 254.805 118.056 254.685 119.984 254.685C121.912 254.685 123.48 254.805 123.48 254.944Z" fill="#E0E0E0"/>
<path d="M131.232 261.169C131.092 261.169 130.972 259.603 130.972 257.678C130.972 256.56 131.012 255.573 131.072 254.944L131.232 255.104C130.752 255.064 130.473 255.004 130.473 254.944C130.473 254.884 130.752 254.824 131.232 254.784L131.371 254.774L131.391 254.944C131.451 255.573 131.491 256.56 131.491 257.678C131.491 259.603 131.371 261.169 131.232 261.169Z" fill="#E0E0E0"/>
<path d="M131.233 275.136C131.093 275.136 130.973 273.57 130.973 271.645C130.973 269.719 131.093 268.153 131.233 268.153C131.373 268.153 131.493 269.719 131.493 271.645C131.493 273.57 131.373 275.136 131.233 275.136Z" fill="#E0E0E0"/>
<path d="M132.283 277.332H129.677V279.935H132.283V277.332Z" fill="#E0E0E0"/>
<path d="M132.283 252.999H129.677V255.603H132.283V252.999Z" fill="#E0E0E0"/>
<path d="M108.976 277.332H106.369V279.935H108.976V277.332Z" fill="#E0E0E0"/>
<path d="M108.976 253.638H106.369V256.242H108.976V253.638Z" fill="#E0E0E0"/>
<path d="M124.238 325.826C124.238 325.686 125.807 325.566 127.735 325.566C129.663 325.566 131.231 325.686 131.231 325.826C131.231 325.965 129.663 326.085 127.735 326.085C125.807 326.085 124.238 325.965 124.238 325.826Z" fill="#410EAD"/>
<path d="M110.252 325.826C110.252 325.686 111.82 325.566 113.748 325.566C115.676 325.566 117.245 325.686 117.245 325.826C117.245 325.965 115.676 326.085 113.748 326.085C111.82 326.085 110.252 325.965 110.252 325.826Z" fill="#410EAD"/>
<path d="M107.665 314.433C107.805 314.433 107.925 315.999 107.925 317.924C107.925 319.85 107.805 321.416 107.665 321.416C107.525 321.416 107.405 319.85 107.405 317.924C107.405 315.999 107.525 314.433 107.665 314.433Z" fill="#410EAD"/>
<path d="M109.492 302.291C109.492 302.391 108.763 302.471 107.665 302.521L107.895 302.291C107.915 302.78 107.925 303.349 107.925 303.957C107.925 305.883 107.805 307.449 107.665 307.449C107.525 307.449 107.405 305.883 107.405 303.957C107.405 303.349 107.415 302.78 107.435 302.291L107.445 302.052L107.665 302.062C108.753 302.112 109.492 302.191 109.492 302.291Z" fill="#410EAD"/>
<path d="M123.48 302.292C123.48 302.431 121.912 302.551 119.984 302.551C118.056 302.551 116.487 302.431 116.487 302.292C116.487 302.152 118.056 302.032 119.984 302.032C121.912 302.032 123.48 302.152 123.48 302.292Z" fill="#410EAD"/>
<path d="M131.232 308.517C131.092 308.517 130.972 306.951 130.972 305.025C130.972 303.908 131.012 302.92 131.072 302.292L131.232 302.451C130.752 302.411 130.473 302.352 130.473 302.292C130.473 302.232 130.752 302.172 131.232 302.132L131.371 302.122L131.391 302.292C131.451 302.92 131.491 303.908 131.491 305.025C131.491 306.951 131.371 308.517 131.232 308.517Z" fill="#410EAD"/>
<path d="M131.233 322.483C131.093 322.483 130.973 320.917 130.973 318.992C130.973 317.066 131.093 315.5 131.233 315.5C131.373 315.5 131.493 317.066 131.493 318.992C131.493 320.917 131.373 322.483 131.233 322.483Z" fill="#410EAD"/>
<path d="M132.283 324.679H129.677V327.283H132.283V324.679Z" fill="#410EAD"/>
<path d="M132.283 300.347H129.677V302.951H132.283V300.347Z" fill="#410EAD"/>
<path d="M108.976 324.679H106.369V327.283H108.976V324.679Z" fill="#410EAD"/>
<path d="M108.976 300.985H106.369V303.589H108.976V300.985Z" fill="#410EAD"/>
<path d="M183.603 208.395C183.603 208.524 174.163 208.634 162.515 208.634C150.866 208.634 141.426 208.524 141.426 208.395C141.426 208.265 150.866 208.155 162.515 208.155C174.163 208.155 183.603 208.265 183.603 208.395Z" fill="#410EAD"/>
<path d="M217.239 217.044C217.239 217.174 200.266 217.284 179.338 217.284C158.399 217.284 141.426 217.174 141.426 217.044C141.426 216.914 158.399 216.805 179.338 216.805C200.266 216.805 217.239 216.904 217.239 217.044Z" fill="#263238"/>
<path d="M216.35 223.219C216.35 223.349 199.577 223.459 178.888 223.459C158.199 223.459 141.426 223.349 141.426 223.219C141.426 223.09 158.199 222.98 178.888 222.98C199.577 222.98 216.35 223.08 216.35 223.219Z" fill="#263238"/>
<path d="M185.661 229.106C185.661 229.236 175.761 229.346 163.543 229.346C151.326 229.346 141.426 229.236 141.426 229.106C141.426 228.976 151.326 228.867 163.543 228.867C175.761 228.867 185.661 228.976 185.661 229.106Z" fill="#263238"/>
<path d="M183.603 304.337C183.603 304.467 174.163 304.577 162.515 304.577C150.866 304.577 141.426 304.467 141.426 304.337C141.426 304.207 150.866 304.098 162.515 304.098C174.163 304.098 183.603 304.207 183.603 304.337Z" fill="#410EAD"/>
<path d="M217.239 312.987C217.239 313.116 200.266 313.226 179.338 313.226C158.399 313.226 141.426 313.116 141.426 312.987C141.426 312.857 158.399 312.747 179.338 312.747C200.266 312.747 217.239 312.857 217.239 312.987Z" fill="#263238"/>
<path d="M216.35 319.162C216.35 319.292 199.577 319.402 178.888 319.402C158.199 319.402 141.426 319.292 141.426 319.162C141.426 319.033 158.199 318.923 178.888 318.923C199.577 318.923 216.35 319.023 216.35 319.162Z" fill="#263238"/>
<path d="M185.661 325.048C185.661 325.178 175.761 325.287 163.543 325.287C151.326 325.287 141.426 325.178 141.426 325.048C141.426 324.918 151.326 324.809 163.543 324.809C175.761 324.809 185.661 324.918 185.661 325.048Z" fill="#263238"/>
<path d="M105.03 47.8763C105.04 47.8664 105.129 47.8664 105.309 47.8564C105.529 47.8464 105.779 47.8364 106.078 47.8265C106.798 47.8065 107.747 47.7866 108.906 47.7566L108.826 47.8364C108.816 47.2079 108.806 46.5295 108.796 45.7913C108.796 45.4122 108.766 45.053 108.796 44.6141C108.876 44.1751 109.265 43.7861 109.745 43.7462C110.204 43.7362 110.604 43.7162 111.093 43.7362C111.603 43.796 112.032 44.2849 112.022 44.8236C112.032 45.7813 112.042 46.7789 112.052 47.8065L111.923 47.6768C113.071 47.6668 114.26 47.6569 115.489 47.6369L115.349 47.7766C115.339 46.34 115.319 44.8535 115.309 43.3371C115.309 42.958 115.299 42.5789 115.299 42.2098C115.299 41.8606 115.089 41.6312 114.8 41.3718C114.27 40.853 113.751 40.3442 113.241 39.8354C112.732 39.3366 112.232 38.8378 111.733 38.349C111.483 38.1095 111.243 37.8701 111.003 37.6307C110.754 37.3912 110.554 37.1418 110.264 37.082C109.985 37.0022 109.675 37.062 109.445 37.2416C109.225 37.4212 108.996 37.6806 108.786 37.8901C108.346 38.329 107.917 38.768 107.507 39.177C106.698 40.015 105.859 40.7732 105.249 41.5015C104.99 41.9005 105.089 42.3894 105.069 42.8283C105.069 43.2673 105.069 43.6863 105.069 44.0853C105.069 44.8535 105.059 45.5319 105.059 46.1105C105.05 46.6293 105.049 47.0583 105.049 47.4075C105.04 47.7067 105.03 47.8664 105.03 47.8763C105.02 47.8863 105.02 47.7367 105.01 47.4474C105 47.0982 104.99 46.6792 104.97 46.1704C104.96 45.5918 104.94 44.9034 104.92 44.1352C104.91 43.7362 104.9 43.3072 104.9 42.8583C104.9 42.6288 104.89 42.3994 104.89 42.1599C104.89 41.9105 104.95 41.6412 105.089 41.4117C105.749 40.6036 106.538 39.8853 107.347 39.0274C107.757 38.6084 108.186 38.1694 108.616 37.7304C108.846 37.511 109.035 37.2815 109.305 37.052C109.595 36.8326 109.985 36.7528 110.344 36.8525C110.724 36.9323 110.974 37.2516 111.203 37.4611C111.443 37.7005 111.693 37.9399 111.933 38.1794C112.422 38.6582 112.932 39.157 113.441 39.6559C113.951 40.1547 114.48 40.6735 114.999 41.1922C115.129 41.3219 115.279 41.4416 115.399 41.6212C115.519 41.8008 115.579 42.0103 115.589 42.2198C115.589 42.5989 115.599 42.978 115.599 43.3571C115.609 44.8735 115.619 46.3599 115.629 47.7965V47.9362H115.489C114.26 47.9462 113.061 47.9562 111.923 47.9562H111.793V47.8265C111.783 46.7889 111.783 45.7913 111.773 44.8336C111.793 44.4046 111.453 44.0255 111.053 43.9656C110.644 43.9457 110.154 43.9557 109.755 43.9656C109.375 43.9956 109.055 44.3048 108.986 44.654C108.956 45.0131 108.976 45.4321 108.966 45.7913C108.966 46.5295 108.966 47.2179 108.966 47.8364V47.9162H108.886C107.707 47.9063 106.748 47.8963 106.009 47.8963C105.719 47.8863 105.469 47.8863 105.259 47.8863C105.109 47.8863 105.02 47.8863 105.03 47.8763Z" fill="#410EAD"/>
<path d="M103.812 78.2142C103.812 78.2241 103.732 78.2341 103.573 78.2441C103.383 78.2541 103.143 78.264 102.853 78.274C102.184 78.284 101.265 78.304 100.106 78.3239C97.6686 78.3439 94.232 78.3738 89.9963 78.4037C85.7106 78.4237 80.6357 78.4336 74.9914 78.4636C72.1643 78.4636 69.2072 78.4735 66.1303 78.4835C65.3611 78.4835 64.5919 78.4835 63.8027 78.4835C63.0135 78.4935 62.2443 78.4336 61.535 78.6531C60.0964 79.0622 58.8976 80.3092 58.588 81.8156C58.4381 82.5539 58.508 83.3819 58.4881 84.18C58.4881 84.9881 58.4881 85.7862 58.4881 86.5743C58.4881 88.1605 58.4881 89.7168 58.4881 91.2532C58.4781 94.3159 58.4781 97.2789 58.4681 100.102C58.4481 105.729 58.4281 110.807 58.4081 115.087C58.3782 119.317 58.3482 122.758 58.3282 125.183C58.3082 126.34 58.2882 127.258 58.2783 127.926C58.2683 128.215 58.2583 128.445 58.2483 128.644C58.2383 128.804 58.2283 128.884 58.2183 128.884C58.2083 128.884 58.1983 128.804 58.1883 128.644C58.1784 128.455 58.1684 128.215 58.1584 127.926C58.1484 127.258 58.1284 126.34 58.1084 125.183C58.0884 122.748 58.0585 119.317 58.0285 115.087C58.0085 110.807 57.9985 105.739 57.9686 100.102C57.9686 97.2789 57.9586 94.3259 57.9486 91.2532C57.9486 89.7168 57.9486 88.1605 57.9486 86.5743C57.9486 85.7862 57.9486 84.9881 57.9486 84.18C57.9686 83.3819 57.8787 82.5738 58.0585 81.7059C58.4081 80.0099 59.7568 78.6132 61.3652 78.1543C62.1843 77.9049 63.0235 77.9747 63.7827 77.9648C64.5619 77.9648 65.3412 77.9648 66.1104 77.9648C69.1773 77.9747 72.1443 77.9747 74.9715 77.9847C80.6058 78.0046 85.6906 78.0246 89.9763 78.0446C94.2121 78.0745 97.6586 78.1044 100.086 78.1244C101.245 78.1443 102.164 78.1643 102.833 78.1742C103.123 78.1842 103.353 78.1942 103.553 78.2042C103.732 78.2042 103.812 78.2042 103.812 78.2142Z" fill="#410EAD"/>
<path d="M106.42 78.1349C106.42 79.0028 105.71 79.7111 104.841 79.7111C103.972 79.7111 103.263 79.0028 103.263 78.1349C103.263 77.2669 103.972 76.5586 104.841 76.5586C105.71 76.5586 106.42 77.2669 106.42 78.1349Z" fill="#410EAD"/>
<path d="M135.18 90.9837C135.13 90.9837 135.13 90.6246 134.961 90.026C134.791 89.4374 134.371 88.5894 133.492 87.9409C132.633 87.2925 131.234 86.9333 129.896 87.4421C128.567 87.911 127.418 89.3276 127.428 90.9737C127.408 92.6298 128.557 94.0464 129.896 94.5053C131.244 95.0141 132.633 94.655 133.492 94.0065C134.381 93.3581 134.791 92.5101 134.961 91.9215C135.13 91.3329 135.13 90.9737 135.18 90.9837C135.2 90.9837 135.27 91.3429 135.15 91.9813C135.03 92.6099 134.651 93.5576 133.702 94.3058C132.793 95.054 131.244 95.503 129.716 94.9642C128.197 94.4654 126.879 92.8593 126.899 90.9737C126.879 89.0882 128.207 87.482 129.716 86.9932C131.244 86.4445 132.793 86.9034 133.702 87.6516C134.641 88.3998 135.03 89.3476 135.15 89.9761C135.28 90.6246 135.21 90.9837 135.18 90.9837Z" fill="#410EAD"/>
<path d="M345.358 344.97L227.997 344.901C213.881 344.891 202.442 333.458 202.442 319.361L202.502 25.5294C202.502 11.4229 213.961 0 228.087 0L345.448 0.0698338C359.564 0.0798101 371.003 11.5126 371.003 25.6092L370.943 319.441C370.943 333.548 359.484 344.98 345.358 344.97Z" fill="#263238"/>
<path d="M345.328 10.4651L322.571 10.4551C319.524 10.4551 317.047 13.039 317.047 16.2214V20.3416C317.047 23.524 314.569 26.1079 311.523 26.1079L267.167 26.078C264.12 26.078 261.643 23.4941 261.643 20.3017V16.1815C261.643 12.9991 259.165 10.4152 256.118 10.4052L248.116 10.3952L228.196 10.3853C218.306 10.3753 210.285 18.3863 210.285 28.2628L210.225 315.061C210.225 324.938 218.237 332.939 228.117 332.949L345.249 333.019C355.139 333.029 363.161 325.018 363.161 315.141L363.22 28.3326C363.22 18.486 355.209 10.4751 345.328 10.4651Z" fill="white"/>
<path d="M348.784 39.4265C348.784 39.5065 345.827 39.5865 342.171 39.6165C338.525 39.6465 335.558 39.6065 335.558 39.5365C335.558 39.4565 338.515 39.3765 342.171 39.3465C345.827 39.3165 348.784 39.3565 348.784 39.4265Z" fill="#263238"/>
<path d="M348.813 42.8081C348.813 42.8881 345.856 42.9681 342.21 42.9981C338.564 43.0281 335.597 42.9881 335.597 42.9181C335.597 42.8381 338.554 42.7581 342.21 42.7281C345.856 42.6881 348.813 42.7281 348.813 42.8081Z" fill="#263238"/>
<path d="M348.843 46.1804C348.843 46.2604 345.886 46.3404 342.23 46.3704C338.583 46.4004 335.616 46.3604 335.616 46.2904C335.616 46.2104 338.573 46.1304 342.23 46.1004C345.876 46.0704 348.843 46.1104 348.843 46.1804Z" fill="#263238"/>
<path d="M228.547 50.041C228.557 50.031 228.647 50.031 228.827 50.021C229.047 50.011 229.296 50.001 229.596 49.9911C230.315 49.9711 231.264 49.9512 232.423 49.9212L232.343 50.0011C232.333 49.3725 232.323 48.6942 232.313 47.9559C232.313 47.5768 232.283 47.2177 232.313 46.7787C232.393 46.3397 232.783 45.9507 233.262 45.9108C233.722 45.9008 234.121 45.8808 234.611 45.9008C235.12 45.9607 235.55 46.4495 235.54 46.9882C235.55 47.9459 235.56 48.9336 235.57 49.9711L235.44 49.8414C236.579 49.8315 237.778 49.8215 238.997 49.8015L238.857 49.9412C238.847 48.5046 238.827 47.0281 238.817 45.5117C238.817 45.1326 238.807 44.7535 238.807 44.3844C238.807 44.0352 238.597 43.8058 238.307 43.5464C237.778 43.0276 237.258 42.5188 236.749 42.01C236.239 41.5112 235.74 41.0124 235.25 40.5335C235.001 40.2941 234.761 40.0547 234.521 39.8152C234.271 39.5758 234.071 39.3264 233.782 39.2665C233.502 39.1867 233.192 39.2466 232.963 39.4262C232.743 39.6057 232.513 39.8651 232.303 40.0746C231.864 40.5136 231.434 40.9426 231.025 41.3616C230.225 42.1996 229.386 42.9578 228.777 43.6761C228.517 44.0751 228.617 44.564 228.597 45.0029C228.597 45.4419 228.597 45.8609 228.597 46.2599C228.597 47.0281 228.587 47.6965 228.587 48.2751C228.577 48.7939 228.577 49.2129 228.577 49.5621C228.567 49.8714 228.557 50.031 228.547 50.041C228.537 50.0509 228.537 49.9013 228.527 49.612C228.517 49.2728 228.507 48.8538 228.487 48.345C228.477 47.7664 228.457 47.088 228.437 46.3098C228.427 45.9108 228.417 45.4818 228.417 45.0328C228.417 44.8034 228.407 44.5739 228.407 44.3345C228.407 44.0851 228.467 43.8257 228.607 43.5863C229.266 42.7782 230.056 42.0699 230.865 41.2119C231.274 40.7929 231.694 40.3639 232.133 39.915C232.363 39.6955 232.553 39.4661 232.823 39.2366C233.112 39.0171 233.502 38.9373 233.852 39.0371C234.231 39.1169 234.481 39.4262 234.711 39.6456C234.951 39.8851 235.2 40.1245 235.44 40.3639C235.93 40.8428 236.439 41.3416 236.949 41.8404C237.458 42.3392 237.978 42.848 238.507 43.3668C238.637 43.4965 238.787 43.6062 238.907 43.7958C239.027 43.9754 239.086 44.1849 239.096 44.3944C239.096 44.7735 239.106 45.1526 239.106 45.5317C239.116 47.0481 239.126 48.5345 239.136 49.9611V50.1008H238.997C237.768 50.1108 236.579 50.1208 235.44 50.1208H235.31V49.9911C235.3 48.9635 235.3 47.9659 235.29 47.0082C235.31 46.5792 234.971 46.2001 234.571 46.1402C234.161 46.1203 233.682 46.1302 233.282 46.1402C232.903 46.1701 232.583 46.4794 232.513 46.8286C232.483 47.1877 232.503 47.6067 232.493 47.9659C232.493 48.7041 232.493 49.3825 232.493 50.011V50.0908H232.413C231.234 50.0809 230.275 50.0709 229.546 50.0709C229.256 50.0609 229.007 50.0609 228.797 50.0609C228.627 50.0509 228.547 50.041 228.547 50.041Z" fill="#263238"/>
<path d="M338.513 90.5753H232.81C227.525 90.5753 223.229 86.2954 223.229 81.008V77.4564C223.229 72.179 227.515 67.8892 232.81 67.8892H338.513C343.798 67.8892 348.094 72.169 348.094 77.4564V81.008C348.094 86.2954 343.808 90.5753 338.513 90.5753Z" fill="#F5F5F5"/>
<path d="M338.515 90.575C338.515 90.575 338.754 90.545 339.234 90.5151C339.703 90.4752 340.403 90.3754 341.292 90.116C342.171 89.8267 343.23 89.3678 344.299 88.5398C345.368 87.7317 346.427 86.5246 347.146 84.9383C347.496 84.1402 347.795 83.2623 347.895 82.2946C348.025 81.3369 347.975 80.3094 347.985 79.2419C347.965 78.1744 348.035 77.0471 347.835 75.9198C347.645 74.7925 347.236 73.6452 346.596 72.5977C345.328 70.4927 343.06 68.7368 340.293 68.228C338.924 67.9687 337.456 68.0884 335.947 68.0684C334.449 68.0684 332.91 68.0784 331.332 68.0784C306.107 68.0984 271.282 68.1183 232.811 68.1482C230.463 68.1482 228.146 69.0661 226.457 70.6523C224.749 72.2285 223.69 74.4333 223.5 76.7079C223.421 77.8352 223.48 79.0324 223.46 80.1797C223.43 81.3469 223.49 82.4642 223.81 83.5516C224.41 85.7165 225.828 87.622 227.676 88.8391C228.595 89.4576 229.634 89.8866 230.703 90.126C231.772 90.3754 232.871 90.3754 233.99 90.3754C236.218 90.3754 238.425 90.3754 240.603 90.3754C244.969 90.3754 249.234 90.3854 253.41 90.3854C270.083 90.4054 285.088 90.4253 297.706 90.4353C310.303 90.4652 320.503 90.4951 327.566 90.5051C331.082 90.5251 333.819 90.5351 335.687 90.545C336.606 90.555 337.306 90.565 337.795 90.565C338.275 90.555 338.515 90.575 338.515 90.575C338.515 90.575 338.275 90.5949 337.795 90.5949C337.306 90.6049 336.606 90.6049 335.687 90.6149C333.819 90.6248 331.082 90.6348 327.566 90.6548C320.503 90.6747 310.303 90.6947 297.706 90.7246C285.098 90.7346 270.083 90.7545 253.41 90.7745C249.244 90.7745 244.969 90.7845 240.603 90.7845C238.425 90.7845 236.218 90.7845 233.99 90.7845C232.891 90.7944 231.722 90.7944 230.603 90.5251C229.484 90.2757 228.395 89.8168 227.426 89.1783C225.488 87.9013 224 85.916 223.371 83.6414C223.031 82.5141 222.971 81.287 223.001 80.1397C223.021 78.9725 222.961 77.8352 223.041 76.6281C223.231 74.2437 224.35 71.9193 226.138 70.2732C227.916 68.6071 230.344 67.6494 232.811 67.6494C271.282 67.6793 306.107 67.6993 331.332 67.7193C332.91 67.7193 334.449 67.7292 335.947 67.7292C337.436 67.7592 338.914 67.6394 340.343 67.9188C343.2 68.4575 345.517 70.2832 346.806 72.448C347.466 73.5354 347.875 74.7027 348.065 75.8699C348.265 77.0371 348.185 78.1644 348.195 79.2319C348.185 80.2994 348.225 81.3269 348.085 82.3146C347.965 83.2923 347.655 84.2001 347.296 85.0082C346.546 86.6243 345.458 87.8315 344.369 88.6495C343.28 89.4776 342.201 89.9365 341.312 90.2058C340.413 90.4552 339.703 90.545 339.224 90.565C338.754 90.575 338.515 90.575 338.515 90.575Z" fill="#263238"/>
<path d="M340.442 78.6932C340.402 78.6932 340.402 78.3241 340.222 77.7155C340.053 77.107 339.623 76.2291 338.714 75.5606C337.835 74.8823 336.386 74.5131 334.998 75.0419C333.619 75.5207 332.43 76.9872 332.44 78.7032C332.42 80.4191 333.609 81.8856 334.998 82.3645C336.386 82.8832 337.835 82.5141 338.714 81.8457C339.623 81.1773 340.053 80.2994 340.222 79.6908C340.402 79.0623 340.402 78.6932 340.442 78.6932C340.462 78.6932 340.472 78.783 340.472 78.9626C340.482 79.1322 340.462 79.3915 340.402 79.7208C340.272 80.3692 339.883 81.3269 338.914 82.0951C337.985 82.8633 336.406 83.3122 334.848 82.7635C333.309 82.2547 331.961 80.6186 331.981 78.7032C331.961 76.7877 333.309 75.1516 334.848 74.6428C336.406 74.0841 337.985 74.5431 338.914 75.3112C339.873 76.0694 340.272 77.0371 340.402 77.6856C340.472 78.0148 340.482 78.2742 340.472 78.4438C340.472 78.6034 340.462 78.6932 340.442 78.6932Z" fill="#263238"/>
<path d="M342.712 85.7763C342.622 85.8661 341.713 85.038 340.694 83.9406C339.675 82.8432 338.926 81.8755 339.026 81.7957C339.115 81.7059 340.024 82.534 341.043 83.6314C342.052 84.7288 342.802 85.6865 342.712 85.7763Z" fill="#263238"/>
<path d="M240.094 76.9673H237.866V76.3887H242.991V76.9673H240.763V82.7136H240.094V76.9673Z" fill="#E0E0E0"/>
<path d="M247.566 80.5391H243.58C243.65 81.5367 244.409 82.1951 245.458 82.1951C246.037 82.1951 246.557 81.9857 246.916 81.5667L247.276 81.9857C246.846 82.4944 246.187 82.7638 245.438 82.7638C243.949 82.7638 242.94 81.7462 242.94 80.3396C242.94 78.9329 243.929 77.9253 245.268 77.9253C246.607 77.9253 247.576 78.9129 247.576 80.3396C247.576 80.3894 247.566 80.4593 247.566 80.5391ZM243.59 80.0602H246.966C246.886 79.1324 246.207 78.474 245.278 78.474C244.349 78.474 243.67 79.1224 243.59 80.0602Z" fill="#E0E0E0"/>
<path d="M251.792 82.7138L250.284 80.7285L248.765 82.7138H248.046L249.924 80.2696L248.136 77.9551H248.855L250.284 79.8207L251.712 77.9551H252.421L250.633 80.2696L252.531 82.7138H251.792Z" fill="#E0E0E0"/>
<path d="M256.099 82.4247C255.849 82.6541 255.469 82.7639 255.09 82.7639C254.19 82.7639 253.691 82.2551 253.691 81.3772V78.504H252.842V77.9653H253.691V76.9277H254.33V77.9653H255.779V78.504H254.33V81.3472C254.33 81.9059 254.62 82.2152 255.149 82.2152C255.409 82.2152 255.679 82.1354 255.859 81.9757L256.099 82.4247Z" fill="#E0E0E0"/>
<path d="M255.838 109.231H228.506V136.526H255.838V109.231Z" fill="#410EAD"/>
<path d="M308.405 112.173C308.405 112.303 299.264 112.403 287.995 112.403C276.717 112.403 267.586 112.303 267.586 112.173C267.586 112.044 276.727 111.944 287.995 111.944C299.264 111.944 308.405 112.044 308.405 112.173Z" fill="#410EAD"/>
<path d="M340.952 120.534C340.952 120.663 324.529 120.763 304.269 120.763C284.009 120.763 267.586 120.663 267.586 120.534C267.586 120.404 284.009 120.304 304.269 120.304C324.529 120.304 340.952 120.414 340.952 120.534Z" fill="#263238"/>
<path d="M340.093 126.51C340.093 126.639 323.859 126.739 303.839 126.739C283.81 126.739 267.586 126.639 267.586 126.51C267.586 126.38 283.81 126.28 303.839 126.28C323.859 126.28 340.093 126.38 340.093 126.51Z" fill="#263238"/>
<path d="M310.393 132.216C310.393 132.346 300.812 132.445 288.994 132.445C277.166 132.445 267.586 132.346 267.586 132.216C267.586 132.086 277.166 131.986 288.994 131.986C300.812 131.976 310.393 132.086 310.393 132.216Z" fill="#263238"/>
<path d="M255.838 154.702H228.506V181.997H255.838V154.702Z" fill="#410EAD"/>
<path d="M308.405 157.646C308.405 157.775 299.264 157.875 287.995 157.875C276.717 157.875 267.586 157.775 267.586 157.646C267.586 157.516 276.727 157.416 287.995 157.416C299.264 157.406 308.405 157.516 308.405 157.646Z" fill="#410EAD"/>
<path d="M340.952 166.006C340.952 166.135 324.529 166.235 304.269 166.235C284.009 166.235 267.586 166.135 267.586 166.006C267.586 165.876 284.009 165.776 304.269 165.776C324.529 165.776 340.952 165.876 340.952 166.006Z" fill="#263238"/>
<path d="M340.093 171.981C340.093 172.111 323.859 172.211 303.839 172.211C283.81 172.211 267.586 172.111 267.586 171.981C267.586 171.852 283.81 171.752 303.839 171.752C323.859 171.752 340.093 171.852 340.093 171.981Z" fill="#263238"/>
<path d="M310.393 177.678C310.393 177.808 300.812 177.908 288.994 177.908C277.166 177.908 267.586 177.808 267.586 177.678C267.586 177.549 277.166 177.449 288.994 177.449C300.812 177.449 310.393 177.549 310.393 177.678Z" fill="#263238"/>
<path d="M255.838 200.174H228.506V227.469H255.838V200.174Z" fill="#410EAD"/>
<path d="M308.405 203.107C308.405 203.237 299.264 203.337 287.995 203.337C276.717 203.337 267.586 203.237 267.586 203.107C267.586 202.978 276.727 202.878 287.995 202.878C299.264 202.878 308.405 202.978 308.405 203.107Z" fill="#410EAD"/>
<path d="M340.952 211.478C340.952 211.607 324.529 211.707 304.269 211.707C284.009 211.707 267.586 211.607 267.586 211.478C267.586 211.348 284.009 211.248 304.269 211.248C324.529 211.248 340.952 211.348 340.952 211.478Z" fill="#263238"/>
<path d="M340.093 217.453C340.093 217.583 323.859 217.683 303.839 217.683C283.81 217.683 267.586 217.583 267.586 217.453C267.586 217.323 283.81 217.224 303.839 217.224C323.859 217.224 340.093 217.323 340.093 217.453Z" fill="#263238"/>
<path d="M310.393 223.149C310.393 223.279 300.812 223.379 288.994 223.379C277.166 223.379 267.586 223.279 267.586 223.149C267.586 223.02 277.166 222.92 288.994 222.92C300.812 222.92 310.393 223.02 310.393 223.149Z" fill="#263238"/>
<path d="M255.838 245.646H228.506V272.942H255.838V245.646Z" fill="#410EAD"/>
<path d="M308.405 248.58C308.405 248.709 299.264 248.809 287.995 248.809C276.717 248.809 267.586 248.709 267.586 248.58C267.586 248.45 276.727 248.35 287.995 248.35C299.264 248.35 308.405 248.45 308.405 248.58Z" fill="#455A64"/>
<path d="M340.952 256.949C340.952 257.079 324.529 257.179 304.269 257.179C284.009 257.179 267.586 257.079 267.586 256.949C267.586 256.82 284.009 256.72 304.269 256.72C324.529 256.71 340.952 256.82 340.952 256.949Z" fill="#263238"/>
<path d="M340.093 262.925C340.093 263.055 323.859 263.155 303.839 263.155C283.81 263.155 267.586 263.055 267.586 262.925C267.586 262.796 283.81 262.696 303.839 262.696C323.859 262.686 340.093 262.796 340.093 262.925Z" fill="#263238"/>
<path d="M310.393 268.622C310.393 268.751 300.812 268.851 288.994 268.851C277.166 268.851 267.586 268.751 267.586 268.622C267.586 268.492 277.166 268.392 288.994 268.392C300.812 268.392 310.393 268.492 310.393 268.622Z" fill="#263238"/>
<path d="M255.838 291.108H228.506V318.404H255.838V291.108Z" fill="#E0E0E0"/>
<path d="M308.405 294.052C308.405 294.181 299.264 294.281 287.995 294.281C276.717 294.281 267.586 294.181 267.586 294.052C267.586 293.922 276.727 293.822 287.995 293.822C299.264 293.822 308.405 293.922 308.405 294.052Z" fill="#E0E0E0"/>
<path d="M340.952 302.412C340.952 302.542 324.529 302.642 304.269 302.642C284.009 302.642 267.586 302.542 267.586 302.412C267.586 302.282 284.009 302.183 304.269 302.183C324.529 302.183 340.952 302.292 340.952 302.412Z" fill="#EBEBEB"/>
<path d="M340.093 308.388C340.093 308.517 323.859 308.617 303.839 308.617C283.81 308.617 267.586 308.517 267.586 308.388C267.586 308.258 283.81 308.158 303.839 308.158C323.859 308.158 340.093 308.258 340.093 308.388Z" fill="#EBEBEB"/>
<path d="M310.393 314.094C310.393 314.224 300.812 314.324 288.994 314.324C277.166 314.324 267.586 314.224 267.586 314.094C267.586 313.965 277.166 313.865 288.994 313.865C300.812 313.855 310.393 313.965 310.393 314.094Z" fill="#EBEBEB"/>
<g opacity="0.3">
<path d="M255.838 245.646H228.506V272.942H255.838V245.646Z" fill="black"/>
</g>
<g opacity="0.3">
<path d="M255.838 154.702H228.506V181.997H255.838V154.702Z" fill="black"/>
</g>
<path d="M86.3045 245.371H10.5979C10.4555 245.314 10.3176 245.233 10.1706 245.206C5.16104 244.314 1.41064 240.781 0.278059 235.882C0.196676 235.521 0.0926863 235.164 0 234.808C0 209.654 0 184.502 0 159.349C0.0632979 159.143 0.149202 158.942 0.185373 158.735C1.19136 153.064 6.15799 148.804 11.9497 148.797C36.2833 148.772 60.6191 148.763 84.9526 148.808C89.2976 148.817 92.7564 150.779 95.0034 154.491C95.8919 155.956 96.283 157.719 96.9024 159.347V234.808C96.8391 235.011 96.7577 235.212 96.7125 235.419C95.7381 240.045 93.0118 243.158 88.5629 244.763C87.8327 245.028 87.0573 245.17 86.3022 245.371H86.3045ZM48.4749 153.626C36.5207 153.626 24.5686 153.621 12.6144 153.628C7.86929 153.63 4.86264 156.613 4.86038 161.331C4.8536 185.159 4.8536 208.99 4.86038 232.819C4.86038 237.532 7.87381 240.524 12.6144 240.524C36.5207 240.53 60.4292 240.53 84.3355 240.524C89.0218 240.524 92.0375 237.526 92.0397 232.866C92.0488 209.006 92.0488 185.146 92.0284 161.284C92.0284 160.385 91.929 159.448 91.6622 158.595C90.6788 155.459 87.9389 153.628 84.3355 153.626C72.3812 153.619 60.4292 153.624 48.4749 153.624V153.626Z" fill="#7B3FE4"/>
<path d="M24.2269 197.093C24.2269 192.348 24.2202 187.6 24.2269 182.855C24.236 175.8 29.5214 170.488 36.6107 170.531C38.5775 170.542 40.6234 170.619 42.4907 171.156C47.394 172.567 50.8234 177.172 50.8618 182.304C50.9342 192.14 50.9477 201.978 50.8618 211.817C50.803 218.235 45.6352 223.382 39.2014 223.635C36.3915 223.746 33.5792 223.757 30.9885 222.382C26.7001 220.104 24.3558 216.558 24.2541 211.708C24.1523 206.839 24.2315 201.965 24.2315 197.093H24.2269ZM29.0851 197.109C29.0851 201.852 29.0625 206.597 29.0918 211.34C29.1144 215.151 31.4904 218.088 35.1097 218.675C36.4028 218.885 37.7501 218.811 39.0703 218.774C42.8094 218.677 45.9653 215.614 45.9856 211.889C46.0399 202.026 46.0308 192.16 45.9901 182.295C45.9766 179.091 43.6458 176.174 40.4923 175.619C38.6928 175.303 36.7599 175.258 34.9582 175.54C31.3864 176.098 29.1167 179.037 29.0918 182.782C29.0602 187.557 29.0851 192.332 29.0851 197.109Z" fill="#7B3FE4"/>
<path d="M84.75 182.534H80.0117C79.9168 181.986 79.8512 181.43 79.7201 180.893C78.9221 177.642 76.1664 175.419 72.8138 175.376C71.4326 175.358 70.0152 175.308 68.6723 175.568C65.3673 176.209 63.0773 179.062 63.0117 182.428C62.9778 184.158 62.9755 185.887 63.0117 187.616C63.0976 191.499 66.1924 194.511 70.1033 194.66C72.0769 194.734 74.1137 194.707 76.0013 195.195C81.194 196.534 84.7636 201.27 84.7658 206.607C84.7658 209.176 84.8834 211.806 84.3906 214.298C83.3303 219.66 78.6147 223.414 73.1281 223.635C70.2842 223.751 67.4403 223.753 64.8247 222.351C60.577 220.073 58.3887 216.517 58.1061 211.655H62.919C63.0027 212.14 63.066 212.659 63.1813 213.169C63.9137 216.4 66.7079 218.723 70.0174 218.775C71.462 218.798 72.9427 218.84 74.3443 218.565C77.4821 217.951 79.7585 215.197 79.8851 212.007C79.962 210.124 79.9665 208.232 79.8874 206.349C79.7291 202.532 76.6637 199.626 72.8138 199.504C71.0867 199.45 69.3189 199.504 67.6438 199.159C62.2702 198.057 58.391 193.513 58.1717 188.018C58.0654 185.361 58.0089 182.634 58.4859 180.04C59.4806 174.617 64.1737 170.757 69.6964 170.549C71.6338 170.477 73.6345 170.513 75.5221 170.906C80.8595 172.016 84.9173 177.22 84.741 182.537L84.75 182.534Z" fill="#7B3FE4"/>
<path d="M12.1416 223.582V197.142H16.9093V223.582H12.1416Z" fill="#7B3FE4"/>
<path d="M16.8895 192.191H12.167V187.509H16.8895V192.191Z" fill="#7B3FE4"/>
</svg>
