<svg width="456" height="456" viewBox="0 0 456 456" fill="none" xmlns="http://www.w3.org/2000/svg">
<path opacity="0.45" d="M38.2773 159.117C38.2773 159.117 41.8706 145.373 176.427 143.822V205.173C176.427 205.173 38.2773 201.561 38.2773 221.753V159.117Z" fill="#7B3FE4"/>
<path d="M300.961 117.064V178.925C300.961 178.925 389.808 174.028 389.808 165.783C389.808 157.539 389.808 103.147 389.808 103.147C389.808 103.147 392.38 114.738 300.961 117.064Z" fill="#7B3FE4"/>
<path opacity="0.45" d="M389.806 103.138C389.806 103.138 386.213 89.3942 251.656 87.8438V149.194C251.656 149.194 389.806 145.582 389.806 165.774V103.138Z" fill="#7B3FE4"/>
<path d="M390.676 236.927C391.786 221.737 380.372 208.523 365.182 207.412C349.991 206.302 336.777 217.716 335.667 232.906C334.556 248.097 345.97 261.311 361.161 262.421C376.351 263.532 389.565 252.118 390.676 236.927Z" fill="white"/>
<path d="M332.078 226.413C334.285 218.296 339.593 211.456 346.643 207.234" stroke="white" stroke-miterlimit="10" stroke-linecap="round" stroke-linejoin="round"/>
<path d="M363.176 267.125C360.084 267.125 357.093 266.687 354.266 265.875" stroke="white" stroke-miterlimit="10" stroke-linecap="round" stroke-linejoin="round"/>
<path d="M395.397 234.904C395.397 246.596 389.168 256.837 379.848 262.483" stroke="white" stroke-miterlimit="10" stroke-linecap="round" stroke-linejoin="round"/>
<path d="M380.714 213.618C382.529 217.293 383.578 221.415 383.578 225.802C383.578 241.032 371.229 253.381 355.999 253.381C349.341 253.381 343.231 251.019 338.461 247.088C342.966 256.199 352.323 262.483 363.176 262.483C378.407 262.483 390.755 250.134 390.755 234.904C390.755 226.331 386.843 218.679 380.714 213.618Z" fill="#F2EBF2"/>
<path d="M95.0051 123.857C104.348 109.723 100.463 90.6904 86.3289 81.3475C72.1943 72.0046 53.162 75.8891 43.8191 90.0237C34.4762 104.158 38.3607 123.191 52.4953 132.533C66.6299 141.876 85.6622 137.992 95.0051 123.857Z" fill="#7B3FE4"/>
<path d="M95.3608 128.3C94.6403 129.175 93.8651 130.023 93.0352 130.835" stroke="#7B3FE4" stroke-miterlimit="10" stroke-linecap="round" stroke-linejoin="round"/>
<path d="M102.885 110.051C102.466 114.574 101.134 119.025 98.8906 123.111" stroke="#7B3FE4" stroke-miterlimit="10" stroke-linecap="round" stroke-linejoin="round"/>
<path d="M76.7383 74.1362C80.441 74.957 84.0343 76.4162 87.3357 78.4956C89.4698 79.8362 91.4762 81.4505 93.3276 83.3201C98.526 88.5823 101.636 95.1305 102.657 101.925" stroke="#7B3FE4" stroke-miterlimit="10" stroke-linecap="round" stroke-linejoin="round"/>
<path d="M42.3711 86.9861C43.3925 85.609 44.5325 84.2866 45.7911 83.0372C46.6119 82.2255 47.4692 81.4594 48.3538 80.748" stroke="#7B3FE4" stroke-miterlimit="10" stroke-linecap="round" stroke-linejoin="round"/>
<path d="M77.201 139.636C68.8197 141.624 59.8274 140.357 52.2305 135.833" stroke="#7B3FE4" stroke-miterlimit="10" stroke-linecap="round" stroke-linejoin="round"/>
<path d="M47.5985 128.509C48.4649 129.385 49.3769 130.197 50.3253 130.944C46.0207 116.343 56.3172 90.2328 60.6036 77.5469C59.2629 77.9482 57.9405 78.4406 56.6546 79.0243C52.4047 90.5702 48.6655 108.628 48.401 102.791C48.1913 98.1125 52.6236 86.3842 53.8092 80.52C51.6842 81.7786 49.6869 83.3016 47.8538 85.1165C45.9751 86.9678 44.3882 89.0107 43.0932 91.1722C39.2537 101.596 40.2477 113.069 41.1689 118.888C42.6281 122.381 44.7713 125.655 47.5985 128.509Z" fill="#410EAD"/>
<path d="M68.1532 76.2793C66.5025 76.3431 64.8609 76.5529 63.2375 76.8903C58.0391 91.0355 58.5589 124.971 55.7773 134.419C57.1362 135.094 58.5316 135.66 59.9452 136.116C60.0181 127.041 62.5991 114.948 64.4778 114.456C67.1226 113.762 64.642 128.409 69.0469 122.445C72.4943 117.766 79.1701 89.4486 78.0119 77.4831C75.7228 76.8174 73.3607 76.4161 70.9986 76.2975C67.8249 84.6971 68.518 102.654 64.0674 99.3347C60.6748 96.8084 65.6452 84.159 68.1532 76.2793Z" fill="#410EAD"/>
<path d="M88.3748 121.606C86.0401 123.913 85.0916 129.567 84.3711 133.726C86.6055 132.477 88.7213 130.926 90.6457 129.075C90.6821 124.214 90.8098 119.198 88.3748 121.606Z" fill="#410EAD"/>
<path d="M99.8273 102.919C94.793 106.202 95.0575 115.623 95.1214 123.685C99.198 117.447 100.767 110.051 99.8273 102.919Z" fill="#410EAD"/>
<path d="M79.493 96.2614C77.0397 105.117 87.1082 115.605 81.1802 123.694C75.2522 131.784 80.4871 101.861 75.5532 113.133C71.8322 121.624 73.0087 132.459 73.8204 137.301C76.3284 136.937 78.809 136.262 81.1802 135.277C79.0826 126.166 90.665 112.13 87.2997 108.136C84.0165 104.241 90.7288 102.846 98.4261 96.8816C97.0764 92.9782 94.9058 89.2937 91.9327 86.0835C90.6012 92.0115 81.4629 89.1205 79.493 96.2614Z" fill="#410EAD"/>
<path d="M88.5551 114.976C76.4985 126.886 57.0729 126.777 45.1622 114.72C42.3714 111.902 40.2556 108.674 38.7782 105.235C38.313 113.589 41.2497 122.098 47.5881 128.51C59.4988 140.566 78.9244 140.676 90.981 128.765C100.21 119.645 102.436 106.111 97.6204 94.8569C97.21 102.189 94.1913 109.403 88.5551 114.976Z" fill="#1E1A6F"/>
<path d="M47.8544 85.1168C42.0176 90.8807 38.9897 98.4138 38.7617 106.011C39.3089 98.9062 42.3094 91.9568 47.7723 86.5486C59.8289 74.647 79.2545 74.7565 91.1652 86.8131C97.3121 93.033 100.249 101.214 100.003 109.312C100.659 100.748 97.7499 91.9659 91.2382 85.3813C79.3275 73.3155 59.9019 73.2061 47.8544 85.1168Z" fill="#F8A4FF"/>
<path d="M47.8544 85.1168C42.0176 90.8807 38.9897 98.4138 38.7617 106.011C39.3089 98.9062 42.3094 91.9568 47.7723 86.5486C59.8289 74.647 79.2545 74.7565 91.1652 86.8131C97.3121 93.033 100.249 101.214 100.003 109.312C100.659 100.748 97.7499 91.9659 91.2382 85.3813C79.3275 73.3155 59.9019 73.2061 47.8544 85.1168Z" fill="#F8A4FF"/>
<path d="M65.1736 82.1802C67.1618 84.1957 64.7997 89.7498 59.8931 94.6017C54.9866 99.4535 49.396 101.752 47.4078 99.7362C45.4197 97.7207 47.7818 92.1666 52.6883 87.3148C57.5949 82.4629 63.1854 80.1647 65.1736 82.1802Z" fill="#F8A4FF"/>
<path d="M338.223 223.194C339.636 225.009 341.843 226.176 344.324 226.176C348.601 226.176 352.067 222.71 352.067 218.433C352.067 215.578 350.516 213.089 348.218 211.748C343.904 214.539 340.43 218.506 338.223 223.194Z" fill="#E0D5DD"/>
<path d="M353.015 244.005C353.015 246.614 350.899 248.73 348.291 248.73C345.682 248.73 343.566 246.614 343.566 244.005C343.566 241.397 345.682 239.281 348.291 239.281C350.899 239.281 353.015 241.397 353.015 244.005Z" fill="#E0D5DD"/>
<path d="M375.871 250.919C375.871 252.277 374.768 253.372 373.418 253.372C372.059 253.372 370.965 252.268 370.965 250.919C370.965 249.56 372.068 248.465 373.418 248.465C374.768 248.465 375.871 249.569 375.871 250.919Z" fill="#E0D5DD"/>
<path d="M381.341 228.447C381.341 232.824 377.794 236.381 373.407 236.381C369.029 236.381 365.473 232.833 365.473 228.447C365.473 224.069 369.02 220.512 373.407 220.512C377.794 220.512 381.341 224.06 381.341 228.447Z" fill="#E0D5DD"/>
<path d="M373.809 209.459C374.684 211.848 376.955 213.563 379.645 213.563C379.946 213.563 380.229 213.517 380.512 213.472C378.487 211.83 376.244 210.471 373.809 209.459Z" fill="#E0D5DD"/>
<path d="M298.796 423.186C298.796 424.892 267.095 426.278 227.998 426.278C188.891 426.278 157.199 424.892 157.199 423.186C157.199 421.481 188.9 420.095 227.998 420.095C267.104 420.095 298.796 421.481 298.796 423.186Z" fill="#410EAD"/>
<path d="M233.005 427.974C215.695 428.33 198.376 428.229 181.075 427.545C172.429 427.162 163.784 426.615 155.156 425.858C153.004 425.667 150.852 425.42 148.699 425.147C147.623 425.01 146.556 424.846 145.489 424.645C144.96 424.545 144.422 424.426 143.893 424.289C143.364 424.134 142.835 423.998 142.343 423.642C142.224 423.551 142.087 423.405 142.078 423.177C142.096 422.949 142.242 422.821 142.352 422.73C142.598 422.547 142.853 422.438 143.118 422.338C143.638 422.146 144.167 422.009 144.696 421.891C145.753 421.645 146.83 421.462 147.897 421.298C150.04 420.97 152.192 420.733 154.354 420.514C162.981 419.684 171.627 419.182 180.273 418.826C188.928 418.471 197.582 418.234 206.237 418.133C214.892 418.015 223.547 417.997 232.202 418.161C240.857 418.316 249.512 418.462 258.157 418.708V418.799C249.503 418.863 240.848 418.845 232.202 418.826C227.879 418.799 223.547 418.863 219.224 418.918L206.246 419.082C197.601 419.237 188.946 419.401 180.3 419.684C171.654 419.994 163.009 420.295 154.39 421.015C152.238 421.198 150.085 421.407 147.951 421.69C146.884 421.836 145.817 422 144.769 422.228C144.249 422.347 143.72 422.474 143.227 422.657C142.78 422.83 142.096 423.14 142.534 423.405C142.917 423.687 143.455 423.852 143.966 423.998C144.486 424.143 145.006 424.253 145.535 424.362C146.593 424.572 147.66 424.736 148.727 424.882C150.87 425.174 153.022 425.375 155.174 425.557C163.793 426.287 172.448 426.542 181.093 426.806C198.385 427.354 215.686 427.646 232.995 427.901L233.005 427.974Z" fill="#410EAD"/>
<path d="M263.692 418.827C274.353 418.8 285.023 419.091 295.666 419.894C300.983 420.377 306.3 420.852 311.553 421.955C312.201 422.119 312.858 422.283 313.478 422.639C313.624 422.739 313.797 422.84 313.87 423.077C313.925 423.341 313.742 423.533 313.605 423.642C313.305 423.852 312.985 423.98 312.666 424.089C311.38 424.509 310.058 424.728 308.735 424.946C306.091 425.348 303.446 425.676 300.792 425.941C295.484 426.497 290.158 426.871 284.832 427.163C279.506 427.454 274.18 427.692 268.845 427.828C258.183 428.129 247.513 428.175 236.852 427.947V427.856L268.817 426.88C279.469 426.515 290.121 426.178 300.746 425.439C303.4 425.229 306.054 425.019 308.69 424.618C310.003 424.418 311.325 424.208 312.575 423.806C313.131 423.633 314.071 423.214 313.323 422.867C312.776 422.557 312.119 422.402 311.481 422.247C308.89 421.672 306.237 421.417 303.583 421.18C300.929 420.952 298.275 420.788 295.612 420.624C284.978 419.958 274.335 419.474 263.683 418.891L263.692 418.827Z" fill="#410EAD"/>
<path d="M246.611 430.391C242.051 430.729 237.482 430.856 232.903 430.82L226.054 430.592C223.774 430.537 221.485 430.555 219.205 430.601C214.636 430.71 210.067 430.71 205.498 430.647C200.929 430.537 196.36 430.364 191.8 430.017C191.772 430.017 191.754 429.99 191.754 429.972C191.754 429.944 191.772 429.926 191.8 429.926C196.378 429.698 200.947 429.662 205.507 429.68C210.076 429.744 214.636 429.871 219.205 430.108C221.485 430.218 223.774 430.3 226.054 430.309C228.334 430.327 230.623 430.136 232.903 430.072C237.472 429.972 242.032 430.036 246.611 430.309C246.638 430.309 246.656 430.327 246.656 430.355C246.656 430.373 246.638 430.391 246.611 430.391Z" fill="#410EAD"/>
<path d="M296.442 417.934C300.765 418.08 305.078 418.362 309.392 418.773C313.697 419.229 318.011 419.694 322.251 420.752C323.309 421.034 324.358 421.344 325.37 421.864C325.626 422.001 325.872 422.147 326.109 422.357C326.328 422.557 326.592 422.886 326.538 423.314C326.465 423.725 326.182 423.953 325.954 424.126C325.708 424.299 325.462 424.436 325.206 424.546C324.185 424.992 323.118 425.257 322.06 425.494C321.002 425.731 319.935 425.941 318.868 426.123C314.6 426.826 310.304 427.373 306.009 427.865C301.713 428.367 297.399 428.759 293.086 429.069C288.772 429.388 284.458 429.653 280.135 429.826C271.499 430.209 262.844 430.355 254.198 430.246C254.171 430.246 254.152 430.227 254.152 430.2C254.152 430.173 254.171 430.154 254.198 430.154L280.099 428.887C288.726 428.449 297.354 428.02 305.963 427.364C310.268 427.017 314.572 426.598 318.813 425.804C320.92 425.394 323.081 424.965 324.987 424.071C325.425 423.862 325.945 423.506 325.972 423.214C326.018 422.959 325.535 422.603 325.088 422.402C324.157 421.965 323.109 421.7 322.078 421.454C319.999 420.952 317.865 420.633 315.74 420.296C313.615 419.967 311.472 419.685 309.328 419.438C305.042 418.909 300.746 418.472 296.451 417.997C296.424 417.997 296.405 417.97 296.414 417.943C296.396 417.952 296.414 417.934 296.442 417.934Z" fill="#410EAD"/>
<path d="M168.946 429.059C160.702 428.749 152.448 428.275 144.231 427.354C142.179 427.117 140.127 426.843 138.084 426.515C136.041 426.168 133.999 425.804 131.983 425.174C131.481 425.01 130.98 424.828 130.487 424.563C130.241 424.436 129.995 424.29 129.758 424.062C129.53 423.888 129.265 423.469 129.347 423.022C129.439 422.584 129.721 422.347 129.949 422.165C130.186 421.982 130.433 421.845 130.679 421.727C131.171 421.49 131.673 421.316 132.175 421.152C134.19 420.541 136.233 420.176 138.276 419.839C146.466 418.608 154.719 418.134 162.955 417.577C171.199 417.085 179.434 416.656 187.688 416.3C204.186 415.616 220.693 415.316 237.21 415.471C245.463 415.516 253.717 415.726 261.97 416.027C270.224 416.319 278.468 416.693 286.704 417.304C286.731 417.304 286.749 417.331 286.749 417.349C286.749 417.377 286.731 417.395 286.704 417.395C278.459 417.094 270.206 416.848 261.961 416.684C253.717 416.529 245.463 416.483 237.21 416.41C220.711 416.346 204.213 416.392 187.715 416.793C179.471 416.994 171.217 417.304 162.991 417.887C158.878 418.161 154.765 418.517 150.661 418.954C146.566 419.392 142.462 419.885 138.413 420.578C136.388 420.924 134.363 421.307 132.43 421.909C131.956 422.064 131.481 422.238 131.044 422.447C130.624 422.639 130.177 422.976 130.159 423.159C130.086 423.268 130.469 423.642 130.879 423.843C131.299 424.071 131.764 424.253 132.247 424.408C134.163 425.037 136.196 425.42 138.212 425.776C140.237 426.123 142.279 426.405 144.322 426.661C152.503 427.673 160.729 428.348 168.955 428.968C168.983 428.968 169.001 428.996 169.001 429.014C168.992 429.05 168.974 429.068 168.946 429.059Z" fill="#410EAD"/>
<path d="M312.405 417.148C315.661 417.303 318.908 417.577 322.145 417.933C325.383 418.316 328.611 418.754 331.812 419.438C333.408 419.793 334.995 420.185 336.555 420.687C337.339 420.933 338.105 421.207 338.862 421.544C339.61 421.882 340.376 422.228 340.978 422.858C341.27 423.159 341.507 423.66 341.325 424.125C341.151 424.563 340.805 424.837 340.476 425.101C339.792 425.584 339.026 425.913 338.26 426.195C336.719 426.77 335.15 427.208 333.563 427.6C330.399 428.393 327.179 428.968 323.96 429.442C320.741 429.926 317.503 430.327 314.265 430.637C307.781 431.284 301.279 431.649 294.776 431.786C294.749 431.786 294.73 431.768 294.73 431.74C294.73 431.713 294.749 431.695 294.767 431.695L314.174 429.698C320.631 428.986 327.097 428.32 333.463 427.107C335.05 426.779 336.637 426.442 338.16 425.885C338.917 425.612 339.665 425.302 340.321 424.855C340.631 424.618 340.932 424.353 341.06 424.016C341.188 423.678 341.014 423.332 340.759 423.058C340.221 422.52 339.464 422.174 338.725 421.873C337.978 421.59 337.202 421.362 336.418 421.152C334.858 420.742 333.262 420.441 331.666 420.149C325.292 418.982 318.844 418.161 312.405 417.203C312.378 417.203 312.359 417.176 312.369 417.148C312.369 417.158 312.387 417.148 312.405 417.148Z" fill="#410EAD"/>
<path d="M193.843 414.313C203.182 413.884 212.53 413.665 221.878 413.602C224.213 413.611 226.548 413.611 228.891 413.647C231.226 413.702 233.561 413.738 235.905 413.766C240.574 413.839 245.253 413.83 249.922 413.83C254.601 413.83 259.27 413.857 263.949 413.975C268.618 414.076 273.297 414.203 277.966 414.441C287.305 414.851 296.644 415.526 305.937 416.566C305.965 416.566 305.983 416.593 305.974 416.62C305.974 416.648 305.946 416.666 305.928 416.657C296.589 416.183 287.259 415.763 277.93 415.389L249.922 414.34C240.583 414.012 231.235 414.003 221.896 414.368C212.558 414.559 203.219 414.596 193.862 414.413C193.834 414.413 193.816 414.395 193.816 414.368C193.798 414.331 193.816 414.313 193.843 414.313Z" fill="#410EAD"/>
<path d="M114.711 423.77C114.702 423.36 114.939 422.995 115.222 422.721C115.505 422.448 115.833 422.229 116.161 422.037C116.827 421.645 117.529 421.335 118.25 421.071C119.691 420.551 121.159 420.131 122.636 419.785C125.6 419.101 128.601 418.581 131.611 418.207C134.62 417.842 137.648 417.632 140.667 417.331C143.685 417.058 146.695 416.72 149.705 416.392C155.733 415.726 161.78 415.243 167.826 414.942C173.882 414.623 179.937 414.495 186.002 414.559C186.03 414.559 186.048 414.577 186.048 414.605C186.048 414.632 186.03 414.65 186.002 414.65C179.956 415.143 173.918 415.535 167.872 415.881L149.741 416.894C146.722 417.076 143.695 417.286 140.694 417.651C137.684 417.979 134.693 418.49 131.711 418.964C128.729 419.438 125.737 419.876 122.782 420.478C121.305 420.788 119.828 421.089 118.396 421.536C117.684 421.764 116.973 422.001 116.298 422.32C115.97 422.484 115.641 422.658 115.359 422.895C115.076 423.123 114.83 423.414 114.802 423.779C114.802 423.807 114.784 423.825 114.757 423.825C114.739 423.816 114.72 423.797 114.711 423.77Z" fill="#410EAD"/>
<path d="M281.294 432.525C267.934 433.446 254.545 433.884 241.157 433.948L200.993 433.601C187.605 433.446 174.216 433.072 160.847 432.179C154.162 431.759 147.486 431.148 140.837 430.382C134.189 429.598 127.522 428.722 121.029 427.053C121.001 427.044 120.992 427.026 120.992 426.998C121.001 426.971 121.02 426.962 121.047 426.962C134.171 429.579 147.577 430.3 160.91 431.239C174.262 432.042 187.632 432.662 201.002 433.1C207.687 433.3 214.381 433.464 221.075 433.446C227.769 433.474 234.463 433.309 241.148 433.182C254.527 432.972 267.906 432.735 281.294 432.425C281.322 432.425 281.34 432.443 281.34 432.47C281.34 432.507 281.313 432.525 281.294 432.525Z" fill="#410EAD"/>
<path d="M292.147 413.2C300.474 413.529 308.801 414.03 317.109 414.769C325.408 415.535 333.716 416.447 341.934 417.988C346.028 418.809 350.132 419.685 354.054 421.235C355.021 421.645 355.997 422.074 356.863 422.721C357.283 423.059 357.711 423.415 357.967 423.944C358.122 424.19 358.149 424.5 358.167 424.792C358.149 425.093 358.058 425.375 357.903 425.613C357.602 426.096 357.191 426.461 356.754 426.762C356.316 427.072 355.851 427.318 355.376 427.555C354.428 428.011 353.443 428.385 352.449 428.713C348.463 429.99 344.359 430.811 340.255 431.55C336.142 432.261 332.02 432.89 327.889 433.428C311.336 435.544 294.683 436.712 278.021 437.386C269.685 437.751 261.349 437.925 253.014 438.016C244.678 438.116 236.342 438.134 228.007 437.979C227.979 437.979 227.961 437.961 227.961 437.934C227.961 437.906 227.979 437.888 228.007 437.888C236.342 437.733 244.669 437.587 253.004 437.359C261.331 437.122 269.658 436.794 277.984 436.447C294.628 435.672 311.272 434.769 327.834 432.927C331.975 432.453 336.106 431.933 340.21 431.23C344.305 430.519 348.418 429.735 352.358 428.412C353.343 428.084 354.309 427.71 355.231 427.254C355.687 427.017 356.143 426.771 356.553 426.47C356.972 426.187 357.346 425.831 357.583 425.421C357.839 425.011 357.839 424.527 357.602 424.126C357.401 423.706 357 423.378 356.608 423.077C355.787 422.493 354.829 422.083 353.872 421.7C349.996 420.25 345.892 419.475 341.806 418.727C333.616 417.295 325.335 416.301 317.054 415.462C308.764 414.623 300.465 413.93 292.157 413.282C292.129 413.282 292.111 413.255 292.111 413.237C292.102 413.218 292.12 413.2 292.147 413.2Z" fill="#7B3FE4"/>
<path d="M153.687 413.857C164.349 412.789 175.046 412.178 185.753 411.868C191.107 411.741 196.469 411.741 201.823 411.64C207.176 411.576 212.53 411.44 217.883 411.321C228.59 411.075 239.306 411.029 250.013 411.248C260.72 411.449 271.426 411.905 282.115 412.68C282.142 412.68 282.161 412.707 282.161 412.726C282.161 412.753 282.142 412.771 282.115 412.771L250.004 412.188L233.952 411.969L217.892 411.814C212.539 411.786 207.185 411.795 201.832 411.95C196.478 412.069 191.134 412.37 185.79 412.616L153.696 413.939C153.669 413.939 153.651 413.92 153.651 413.893C153.642 413.875 153.66 413.857 153.687 413.857Z" fill="#7B3FE4"/>
<path d="M189.411 437.396C178.112 437.341 166.812 436.912 155.54 436.082C149.903 435.636 144.285 435.043 138.658 434.486C133.041 433.894 127.413 433.337 121.814 432.608C116.214 431.869 110.605 431.03 105.115 429.498C103.747 429.106 102.388 428.668 101.057 428.084C100.391 427.792 99.7434 427.464 99.1232 427.035C98.5304 426.598 97.8555 426.087 97.6002 425.166C97.4816 424.701 97.5911 424.208 97.7735 423.807C97.9923 423.433 98.2568 423.105 98.5487 422.858C99.1415 422.348 99.7799 421.974 100.437 421.655C101.75 421.007 103.1 420.551 104.468 420.132C109.94 418.499 115.548 417.651 121.148 416.857C126.757 416.11 132.384 415.572 138.02 415.161C138.047 415.161 138.066 415.179 138.066 415.207C138.066 415.234 138.047 415.252 138.029 415.252C132.42 415.945 126.821 416.684 121.248 417.56C118.467 417.997 115.685 418.481 112.922 419.037C110.168 419.612 107.413 420.195 104.741 421.025C103.41 421.445 102.087 421.901 100.865 422.512C100.254 422.813 99.6704 423.169 99.1962 423.579C98.9499 423.789 98.7676 424.017 98.6308 424.254C98.5304 424.491 98.4666 424.719 98.5213 424.947C98.6216 425.421 99.1232 425.895 99.6431 426.269C100.181 426.643 100.792 426.972 101.421 427.254C102.68 427.82 104.002 428.267 105.343 428.668C110.733 430.227 116.305 431.203 121.869 432.106C127.441 432.982 133.05 433.675 138.677 434.167C144.295 434.696 149.94 434.988 155.576 435.316L189.402 437.295C189.429 437.295 189.448 437.323 189.448 437.341C189.457 437.377 189.439 437.396 189.411 437.396Z" fill="#7B3FE4"/>
<path d="M222.188 437.979C220.592 438.271 219.005 438.344 217.409 438.253C216.616 438.18 215.822 438.034 215.02 437.988C214.226 437.942 213.424 437.988 212.63 438.061C211.034 438.225 209.438 438.253 207.852 438.243C206.256 438.189 204.669 438.052 203.082 437.742C203.054 437.733 203.036 437.714 203.045 437.687C203.045 437.669 203.064 437.651 203.082 437.651C204.678 437.386 206.274 437.286 207.861 437.268C209.457 437.295 211.044 437.359 212.63 437.559C213.424 437.651 214.217 437.714 215.02 437.687C215.813 437.66 216.616 437.541 217.409 437.486C219.005 437.432 220.592 437.541 222.179 437.879C222.206 437.888 222.225 437.906 222.216 437.933C222.225 437.961 222.206 437.97 222.188 437.979Z" fill="#7B3FE4"/>
<path d="M124.622 107.288C124.622 107.288 120.965 102.664 116.77 101.57C112.566 100.485 102.807 104.762 103.783 105.929C104.759 107.097 112.374 104.525 112.374 104.525C112.374 104.525 110.55 105.656 112.183 107.051C112.183 107.051 106.154 109.614 117.354 111.948" fill="#FACFBD"/>
<path d="M260.355 127.233C259.324 108.045 238.439 102.938 241.267 89.9142C243.638 78.9793 238.266 79.7545 236.479 80.2926C236.716 79.6542 237.108 78.952 237.783 78.4321C238.768 77.6569 240.136 77.438 241.832 77.7846C241.96 77.812 242.078 77.7299 242.097 77.6022C242.124 77.4745 242.042 77.356 241.914 77.3377C240.072 76.9638 238.585 77.2192 237.491 78.0764C236.843 78.5872 236.424 79.2347 236.15 79.8548C236.141 77.1736 235.886 72.6592 234.317 71.7107C234.208 71.6468 234.071 71.6833 234.007 71.7836C233.943 71.8931 233.98 72.0299 234.08 72.0937C235.393 72.8872 235.685 77.1371 235.694 80.0099C234.764 78.1676 230.952 71.4736 224.741 71.5739C224.741 71.5739 217.883 57.3649 205.826 60.4475C193.77 63.53 193.943 76.5352 195.995 80.475C195.995 80.475 192.593 87.6068 189.93 97.3379C189.018 100.083 179.661 129.367 191.015 139.919C191.061 139.956 191.116 139.983 191.171 139.983C191.234 139.983 191.289 139.956 191.335 139.91C191.417 139.819 191.417 139.673 191.326 139.591C183.929 132.714 185.525 117.612 187.705 107.434C185.361 121.962 186.665 138.496 201.321 146.385C230.569 162.135 261.385 146.422 260.355 127.233Z" fill="#7B3FE4"/>
<path d="M191.172 139.974C191.236 139.974 191.291 139.946 191.336 139.901C191.418 139.81 191.418 139.664 191.327 139.582C190.461 138.779 189.722 137.849 189.083 136.836L188.801 137.21C189.43 138.204 190.16 139.116 191.017 139.91C191.053 139.955 191.117 139.974 191.172 139.974Z" stroke="#FFBBD5" stroke-width="0.5" stroke-miterlimit="10" stroke-linecap="round" stroke-linejoin="round"/>
<path d="M260.355 127.233C259.324 108.045 238.439 102.937 241.267 89.914C243.638 78.9791 238.266 79.7543 236.479 80.2924C236.716 79.654 237.108 78.9518 237.783 78.4319C238.768 77.6567 240.136 77.4379 241.832 77.7844C241.96 77.8118 242.078 77.7297 242.097 77.602C242.124 77.4743 242.042 77.3558 241.914 77.3375C240.072 76.9636 238.585 77.219 237.491 78.0763C236.843 78.587 236.424 79.2345 236.15 79.8546C236.141 77.1734 235.886 72.659 234.317 71.7105C234.208 71.6466 234.071 71.6831 234.007 71.7835C233.943 71.8929 233.98 72.0297 234.08 72.0935C235.393 72.887 235.685 77.1369 235.694 80.0097C234.764 78.1675 230.952 71.4734 224.741 71.5737C224.741 71.5737 222.051 66.0105 217.089 62.5996C223.191 67.8801 223.82 72.9782 223.82 72.9782C232.037 71.3092 236.406 87.7435 229.338 87.9988C222.279 88.2542 221.349 79.3986 221.349 79.3986C214.125 84.2778 203.847 81.478 203.847 81.478L228.827 112.267C228.827 112.267 240.765 135.76 213.286 133.964C186.911 132.24 186.829 116.444 186.866 115.176C186.227 127.479 189.228 139.873 201.321 146.385C230.569 162.135 261.385 146.422 260.355 127.233Z" fill="#7B3FE4"/>
<path d="M207.685 153.927C207.685 153.927 167.539 161.087 156.021 156.791C144.511 152.505 116.996 111.848 116.996 111.848L123.818 106.412C123.818 106.412 157.991 138.67 161.721 140.366C165.451 142.062 195.237 131.757 195.237 131.757" fill="white"/>
<path d="M275.86 131.109C275.86 131.109 271.884 123.923 272.732 122.29C273.589 120.667 277.693 127.598 277.693 127.598C277.693 127.598 291.136 123.658 292.413 124.899C293.699 126.139 285.263 128.364 285.263 128.364C285.263 128.364 285.737 131.356 281.414 132.641" fill="#FACFBD"/>
<path d="M243.385 132.87C248.976 135.824 262.3 162.573 262.3 162.573C262.3 162.573 270.9 140.913 274.493 130.261L282.628 132.532C282.628 132.532 276.582 182.419 270.745 187.015C264.908 191.611 241.789 169.468 241.789 169.468" fill="white"/>
<path d="M214.774 127.379C214.774 127.379 194.956 131.374 191.481 133.399C188.007 135.414 187.332 149.441 183.182 154.703C179.033 159.974 187.104 168.948 187.104 168.948C187.104 168.948 186.319 190.581 185.289 209.204H246.521C246.521 209.204 244.131 169.879 243.976 162.856C243.83 155.825 246.685 134.648 243.684 133.052C240.693 131.447 214.774 127.379 214.774 127.379Z" fill="white"/>
<path d="M217.465 165.966C217.465 165.966 231.884 174.94 234.711 159.983" stroke="#FFBBD5" stroke-width="0.5" stroke-miterlimit="10" stroke-linecap="round" stroke-linejoin="round"/>
<path d="M214.473 140.749H214.555C218.303 140.749 221.349 137.712 221.349 133.955V115.833H207.688V133.955C207.688 137.703 210.724 140.749 214.473 140.749Z" fill="#FACFBD"/>
<path opacity="0.86" d="M221.349 123.303C217.172 126.039 212.412 127.489 207.688 127.188V115.824H221.349V123.303Z" fill="#F4A9A6"/>
<path d="M193.43 92.1945C189.591 105.355 195.355 119.5 206.837 122.856C218.31 126.212 231.151 117.493 234.99 104.342C238.83 91.1822 230.275 78.022 218.802 74.675C207.329 71.3097 197.27 79.0435 193.43 92.1945Z" fill="#FACFBD"/>
<path d="M232.713 104.206C231.008 106.632 230.077 109.468 232.129 110.909C234.181 112.359 238.44 111.866 240.146 109.44C241.851 107.015 241.578 103.877 239.526 102.436C237.474 100.995 234.428 101.78 232.713 104.206Z" fill="#FACFBD"/>
<path d="M238.074 109.039C239.041 107.662 238.886 105.875 237.719 105.054C236.551 104.233 234.819 104.68 233.852 106.057C233.606 106.404 233.396 106.759 233.223 107.115" stroke="#F4A9A6" stroke-width="0.5" stroke-miterlimit="10" stroke-linecap="round" stroke-linejoin="round"/>
<path d="M232.859 108.419C233.096 108.674 233.434 108.839 233.817 108.839C234.528 108.839 235.112 108.255 235.112 107.544C235.112 106.832 234.528 106.249 233.817 106.249" stroke="#F4A9A6" stroke-width="0.5" stroke-miterlimit="10" stroke-linecap="round" stroke-linejoin="round"/>
<path d="M215.914 87.4158C215.914 87.4158 215.449 85.6192 213.297 85.5371" stroke="#BE726D" stroke-width="0.5" stroke-miterlimit="10" stroke-linecap="round" stroke-linejoin="round"/>
<path d="M201.319 84.9898C201.319 84.9898 199.915 84.479 198.465 85.8926" stroke="#BE726D" stroke-width="0.5" stroke-miterlimit="10" stroke-linecap="round" stroke-linejoin="round"/>
<path opacity="0.86" d="M217.017 99.3722C216.817 100.877 218.394 102.318 220.528 102.61C222.672 102.893 224.569 101.908 224.769 100.412C224.97 98.9071 223.392 97.4661 221.258 97.1743C219.115 96.8824 217.218 97.8674 217.017 99.3722Z" fill="#F4A9A6"/>
<path opacity="0.86" d="M187.258 95.8882C187.258 97.4021 189.009 98.6333 191.17 98.6333C193.332 98.6333 195.083 97.4021 195.083 95.8882C195.083 94.3743 193.332 93.1431 191.17 93.1431C189.009 93.1431 187.258 94.3743 187.258 95.8882Z" fill="#F4A9A6"/>
<path d="M212.157 95.6419C212.157 95.6419 212.969 91.3737 211.063 91.1275C209.166 90.8812 208.637 94.7572 208.637 94.7572" stroke="#BE726D" stroke-width="0.5" stroke-miterlimit="10" stroke-linecap="round" stroke-linejoin="round"/>
<path d="M200.939 93.4073C200.939 93.4073 201.978 89.4766 200.638 89.4401C199.297 89.4127 198.859 92.9604 198.859 92.9604" stroke="#BE726D" stroke-width="0.5" stroke-miterlimit="10" stroke-linecap="round" stroke-linejoin="round"/>
<path d="M205.828 89.9053C205.828 89.9053 204.569 93.6718 203.63 96.2528L201.003 96.0978C200.766 96.8365 201.633 98.2501 203.411 99.08" stroke="#BE726D" stroke-width="0.5" stroke-miterlimit="10" stroke-linecap="round" stroke-linejoin="round"/>
<path d="M225.506 76.0338C210.55 64.351 199.359 75.9882 199.359 75.9882C201.129 85.3726 218.119 83.1109 219.834 82.8555C219.688 83.5486 219.578 84.415 219.642 85.4091C219.779 87.525 220.746 90.5163 224.613 92.7872C224.649 92.8054 224.686 92.8146 224.731 92.8146C224.813 92.8146 224.886 92.7781 224.932 92.7051C224.996 92.5957 224.959 92.4589 224.85 92.395C220.18 89.6499 219.825 85.8834 220.153 83.576C221.722 90.261 226.592 91.4101 226.592 91.4101C226.546 99.7366 230.878 102.883 232.93 103.904C233.86 102.728 235.11 101.989 236.387 101.77C237.052 97.8032 237.828 85.6645 225.506 76.0338Z" fill="#7B3FE4"/>
<path d="M202.516 102.19C202.516 102.19 203.118 102.992 202.99 103.923C202.862 104.844 202.242 104.032 202.762 103.394" stroke="#BE726D" stroke-width="0.5" stroke-miterlimit="10" stroke-linecap="round" stroke-linejoin="round"/>
<path d="M237.684 406.899C237.684 406.899 237.565 412.918 236.17 422.777C236.106 423.205 236.589 423.506 236.945 423.251L252.686 412.079L244.442 402.102L237.684 406.899Z" fill="#7B3FE4"/>
<path d="M246.53 209.204H185.135C185.135 209.204 177.921 255.561 184.341 306.861C184.697 309.734 185.454 312.534 186.585 315.197C201.368 349.734 236.261 406.944 236.261 406.944L244.734 401.736C244.734 401.736 222.107 355.58 207.916 306.624C207.916 306.624 208.573 257.75 214.382 226.414L220.575 227.964C220.575 227.964 211.601 297.54 210.835 410.993H219.617C219.617 410.993 255.997 254.603 246.53 209.204Z" fill="#E3D6FA"/>
<path d="M216.106 209.916L214.383 223.267L223.001 224.973" stroke="white" stroke-width="0.5" stroke-miterlimit="10" stroke-linecap="round"/>
<path d="M198.423 212.861C198.423 212.861 196.635 220.112 187.762 220.203" stroke="white" stroke-width="0.5" stroke-miterlimit="10" stroke-linecap="round"/>
<path d="M220.3 410.993H210.278L209.84 407.619L220.684 406.935L220.3 410.993Z" fill="#ABFFFF"/>
<path d="M245.945 401.955L235.904 409.533L233.004 405.293L244.103 399.273L245.945 401.955Z" fill="#ABFFFF"/>
<path d="M219.619 410.993L222.191 423.105L197.02 423.351L210.836 410.993H219.619Z" fill="#7B3FE4"/>
<path d="M213.177 323.56L211.125 363.605" stroke="white" stroke-width="0.5" stroke-miterlimit="10" stroke-linecap="round"/>
<path d="M235.641 214.202C235.641 214.202 235.814 221.735 243.858 221.224" stroke="white" stroke-width="0.5" stroke-miterlimit="10" stroke-linecap="round"/>
<path d="M187.111 168.948C187.111 168.948 182.259 164.124 182.004 158.159C181.748 152.204 185.816 151.046 188.406 144.242" stroke="#FFBBD5" stroke-width="0.5" stroke-miterlimit="10" stroke-linecap="round" stroke-linejoin="round"/>
<path d="M203.848 81.4781C209.548 84.2506 218.604 83.0468 219.835 82.8644C219.689 83.5575 219.58 84.4239 219.643 85.418C219.78 87.5338 220.747 90.5252 224.614 92.796C224.65 92.8143 224.687 92.8234 224.732 92.8234C224.815 92.8234 224.887 92.7869 224.933 92.714C224.997 92.6045 224.96 92.4677 224.851 92.4039C220.182 89.6588 219.826 85.8922 220.154 83.5848C221.723 90.2698 226.593 91.4189 226.593 91.4189C226.547 99.7455 230.879 102.892 232.931 103.913C233.862 102.737 235.111 101.998 236.388 101.779C236.871 98.8608 237.409 91.574 232.84 84.0956C232.621 86.2661 231.536 87.9077 229.338 87.9898C222.279 88.2452 221.349 79.3896 221.349 79.3896C214.144 84.2688 203.884 81.4872 203.848 81.4781Z" fill="#7B3FE4"/>
<path d="M203.845 62.0706C211.925 58.0943 218.246 63.6666 218.246 63.6666L217.908 63.2015C214.826 60.8303 210.758 59.1887 205.824 60.4473C193.768 63.5298 193.941 76.5349 195.993 80.4748C195.993 80.4748 193.129 86.5031 190.594 95.0212C193.339 87.3877 197.124 80.9399 197.124 80.9399C195.254 74.8386 195.765 66.0469 203.845 62.0706Z" fill="#FFBDE0"/>
<path d="M188.105 103.676C188.242 103.238 188.37 102.764 188.479 102.217C188.361 102.682 188.233 103.165 188.105 103.676Z" fill="#FFBDE0"/>
<path opacity="0.86" d="M224.304 92.6409C223.757 96.754 218.075 111.537 205.644 95.9879C205.225 95.468 204.504 95.2948 203.893 95.5501C192.384 100.466 191.563 92.4129 192.101 88.3453C192.657 84.1593 200.318 81.7242 209.21 82.9098C218.111 84.0954 224.86 88.4548 224.304 92.6409Z" fill="#EFC7C7"/>
<path d="M223.784 91.5925C223.237 95.7056 217.555 110.489 205.125 94.9395C204.705 94.4197 203.985 94.2464 203.374 94.5018C191.864 99.4175 191.044 91.3645 191.582 87.297C192.138 83.1109 199.799 80.6759 208.691 81.8615C217.592 83.0471 224.341 87.4064 223.784 91.5925Z" fill="white"/>
<path d="M222.107 87.4976C222.746 88.4734 223.047 89.4948 222.91 90.498C222.363 94.6112 216.681 109.395 204.25 93.8451C203.831 93.3252 203.11 93.152 202.499 93.4073C197.219 95.66 194.191 95.1857 192.504 93.608C193.908 95.9609 197 97.2104 203.366 94.4926C203.977 94.2281 204.697 94.4105 205.117 94.9304C217.547 110.489 223.229 95.6964 223.776 91.5833C223.968 90.2062 223.339 88.8017 222.107 87.4976Z" fill="#E5BED3"/>
<path d="M220.528 89.8413C220.528 90.9995 219.889 91.9389 219.096 91.9389C218.302 91.9389 217.664 90.9995 217.664 89.8413C217.664 88.683 218.302 87.7437 219.096 87.7437C219.88 87.7437 220.528 88.683 220.528 89.8413Z" fill="#FFD16C"/>
<path d="M218.64 94.1733C218.64 94.5928 218.348 94.9394 218.002 94.9394C217.646 94.9394 217.363 94.5928 217.363 94.1733C217.363 93.7538 217.655 93.4072 218.002 93.4072C218.357 93.4072 218.64 93.7447 218.64 94.1733Z" fill="#FFD16C"/>
<path d="M119.953 105.601C118.94 106.093 117.937 106.576 116.961 107.115C116.478 107.397 115.995 107.662 115.548 107.981C115.11 108.291 114.645 108.638 114.435 109.057C114.335 109.249 114.362 109.44 114.499 109.55C114.636 109.668 114.909 109.695 115.156 109.695C115.685 109.695 116.223 109.568 116.761 109.44C117.837 109.167 118.895 108.793 119.953 108.419C118.968 108.966 117.937 109.422 116.861 109.778C116.323 109.96 115.767 110.097 115.165 110.124C114.873 110.124 114.535 110.124 114.216 109.896C113.879 109.659 113.861 109.157 114.016 108.866C114.335 108.282 114.827 107.954 115.301 107.625C115.785 107.315 116.277 107.042 116.797 106.804C117.819 106.33 118.867 105.92 119.953 105.601Z" fill="#BE726D"/>
<path opacity="0.92" d="M245.656 350.272C283.796 350.272 318.261 348.876 342.948 346.624L345.11 290.144C320.23 292.588 284.289 294.12 244.306 294.12C212.587 294.12 183.394 293.153 160.266 291.53L162.327 347.727C185.337 349.323 214.247 350.272 245.656 350.272Z" fill="#7B3FE4"/>
<path d="M313.188 182.391C313.188 182.391 338.35 180.85 363.174 177.43" stroke="#7B3FE4" stroke-miterlimit="10"/>
<path d="M127.124 173.034V234.895C127.124 234.895 38.2768 229.997 38.2768 221.753C38.2768 213.508 38.2768 159.117 38.2768 159.117C38.2768 159.117 35.714 170.717 127.124 173.034Z" fill="#7B3FE4"/>
<path d="M114.901 238.369C114.901 238.369 89.7387 236.828 64.9141 233.408" stroke="#7B3FE4" stroke-miterlimit="10"/>
<path opacity="0.36" d="M263.121 84.6426C263.121 84.6426 283.568 85.1259 296.236 85.737" stroke="#7B3FE4" stroke-miterlimit="10"/>
<path d="M193.543 353.491C193.543 353.491 218.541 354.522 258.103 354.002" stroke="#7B3FE4" stroke-miterlimit="10"/>
<path d="M39.1133 275.734L84.7042 258.78L119.451 301.662L149.356 271.621" stroke="#7B3FE4" stroke-miterlimit="10" stroke-linecap="round" stroke-linejoin="round"/>
<path d="M42.8912 275.734C42.8912 277.823 41.204 279.51 39.1155 279.51C37.027 279.51 35.3398 277.823 35.3398 275.734C35.3398 273.646 37.027 271.959 39.1155 271.959C41.204 271.949 42.8912 273.646 42.8912 275.734Z" fill="#7B3FE4"/>
<path d="M153.141 271.046C153.141 273.135 151.454 274.822 149.366 274.822C147.277 274.822 145.59 273.135 145.59 271.046C145.59 268.958 147.277 267.271 149.366 267.271C151.445 267.261 153.141 268.958 153.141 271.046Z" fill="#7B3FE4"/>
<path d="M87.1148 258.78C87.1148 260.112 86.0387 261.197 84.6981 261.197C83.3665 261.197 82.2812 260.121 82.2812 258.78C82.2812 257.439 83.3574 256.363 84.6981 256.363C86.0387 256.372 87.1148 257.449 87.1148 258.78Z" fill="#7B3FE4"/>
<path d="M121.972 301.663C121.972 303.049 120.85 304.18 119.455 304.18C118.068 304.18 116.938 303.058 116.938 301.663C116.938 300.276 118.059 299.146 119.455 299.146C120.85 299.155 121.972 300.276 121.972 301.663Z" fill="#7B3FE4"/>
<path opacity="0.45" d="M329.807 56.9542H259.017C257.503 56.9542 256.281 55.7321 256.281 54.2182V25.2804C256.281 23.7665 257.503 22.5444 259.017 22.5444H329.807C331.321 22.5444 332.543 23.7665 332.543 25.2804V54.2182C332.543 55.723 331.321 56.9542 329.807 56.9542Z" fill="#7B3FE4"/>
<path opacity="0.45" d="M270.571 47.1961C275.014 47.1961 278.615 43.5947 278.615 39.1522C278.615 34.7097 275.014 31.1084 270.571 31.1084C266.129 31.1084 262.527 34.7097 262.527 39.1522C262.527 43.5947 266.129 47.1961 270.571 47.1961Z" fill="#7B3FE4"/>
<path d="M270.571 47.1961C275.014 47.1961 278.615 43.5947 278.615 39.1522C278.615 34.7097 275.014 31.1084 270.571 31.1084C266.129 31.1084 262.527 34.7097 262.527 39.1522C262.527 43.5947 266.129 47.1961 270.571 47.1961Z" stroke="white" stroke-miterlimit="10" stroke-linecap="round" stroke-linejoin="round"/>
<path d="M284.152 31.0991C285.849 31.0991 285.849 36.5711 287.545 36.5711C289.241 36.5711 289.241 31.0991 290.938 31.0991C292.634 31.0991 292.634 36.5711 294.33 36.5711C296.027 36.5711 296.027 31.0991 297.723 31.0991C299.419 31.0991 299.419 36.5711 301.116 36.5711C302.812 36.5711 302.812 31.0991 304.508 31.0991C306.205 31.0991 306.204 36.5711 307.901 36.5711C309.597 36.5711 309.597 31.0991 311.293 31.0991C312.99 31.0991 312.99 36.5711 314.686 36.5711C316.382 36.5711 316.382 31.0991 318.079 31.0991C319.775 31.0991 319.775 36.5711 321.48 36.5711C323.177 36.5711 323.177 31.0991 324.882 31.0991" stroke="white" stroke-miterlimit="10" stroke-linecap="round" stroke-linejoin="round"/>
<path d="M284.152 43.083H324.9" stroke="white" stroke-miterlimit="10" stroke-linecap="round" stroke-linejoin="round"/>
<path d="M284.152 48.0532H304.526" stroke="white" stroke-miterlimit="10" stroke-linecap="round" stroke-linejoin="round"/>
<path d="M329.807 56.9542H259.017C257.503 56.9542 256.281 55.7321 256.281 54.2182V25.2804C256.281 23.7665 257.503 22.5444 259.017 22.5444H329.807C331.321 22.5444 332.543 23.7665 332.543 25.2804V54.2182C332.543 55.723 331.321 56.9542 329.807 56.9542Z" stroke="white" stroke-miterlimit="10" stroke-linecap="round" stroke-linejoin="round"/>
<path d="M230.963 65.4818C230.963 66.8772 229.832 68.008 228.436 68.008C227.041 68.008 225.91 66.8772 225.91 65.4818C225.91 64.0865 227.041 62.9556 228.436 62.9556C229.832 62.9556 230.963 64.0865 230.963 65.4818Z" fill="white"/>
<path d="M228.438 65.4816L237.868 46.4208L256.281 45.2261" stroke="white" stroke-miterlimit="10"/>
<path d="M116.945 367.654L115.495 367.992L114.948 369.378L114.182 368.101L112.695 368.01L113.671 366.888L113.297 365.447L114.665 366.031L115.924 365.229L115.796 366.715L116.945 367.654Z" fill="#7B3FE4"/>
<path d="M100.194 354.695L98.8164 354.039L97.5032 354.795L97.7038 353.291L96.582 352.269L98.0686 351.996L98.6887 350.609L99.4092 351.941L100.923 352.105L99.8744 353.209L100.194 354.695Z" fill="#7B3FE4"/>
<path d="M89.0191 392.698L88.4811 392.771L88.2439 393.255L88.0068 392.762L87.4688 392.68L87.8609 392.306L87.7697 391.777L88.2531 392.033L88.7273 391.786L88.6361 392.315L89.0191 392.698Z" fill="#7B3FE4"/>
<path d="M175.551 379.474L174.639 379.538L174.174 380.341L173.827 379.493L172.934 379.301L173.627 378.699L173.536 377.787L174.32 378.27L175.159 377.897L174.94 378.79L175.551 379.474Z" fill="#7B3FE4"/>
<path d="M374.302 379.21L372.24 378.9L370.818 380.414L370.48 378.362L368.602 377.468L370.453 376.519L370.717 374.449L372.195 375.918L374.238 375.535L373.298 377.386L374.302 379.21Z" fill="#7B3FE4"/>
<path d="M360.695 348.657L360.157 348.73L359.92 349.214L359.683 348.73L359.145 348.648L359.537 348.274L359.446 347.736L359.929 347.992L360.403 347.745L360.312 348.274L360.695 348.657Z" fill="#7B3FE4"/>
<path d="M356.328 386.916L355.562 386.515L354.787 386.916L354.933 386.059L354.312 385.448L355.17 385.32L355.562 384.545L355.945 385.329L356.802 385.448L356.182 386.059L356.328 386.916Z" fill="#7B3FE4"/>
<path d="M416.419 395.261L415.653 395.644L415.526 396.483L414.933 395.872L414.094 396.018L414.486 395.261L414.094 394.504L414.933 394.65L415.526 394.039L415.653 394.887L416.419 395.261Z" fill="#7B3FE4"/>
<path d="M420.012 239.281L418.115 239.299L417.067 240.868L416.456 239.081L414.641 238.561L416.155 237.43L416.091 235.542L417.632 236.636L419.41 235.989L418.845 237.795L420.012 239.281Z" fill="#7B3FE4"/>
<path d="M422.321 256.217L421.865 256.062L421.482 256.345V255.87L421.09 255.588L421.555 255.442L421.692 254.986L421.974 255.378L422.458 255.369L422.166 255.761L422.321 256.217Z" fill="#7B3FE4"/>
<path d="M412.563 345.575L411.651 345.457L411.031 346.141L410.866 345.238L410.027 344.864L410.83 344.417L410.93 343.505L411.596 344.134L412.499 343.943L412.107 344.782L412.563 345.575Z" fill="#7B3FE4"/>
<path d="M420.012 128.291L418.097 128.446L417.149 130.106L416.41 128.346L414.531 127.953L415.981 126.695L415.772 124.798L417.413 125.792L419.164 124.998L418.726 126.868L420.012 128.291Z" fill="#7B3FE4"/>
<path d="M431.823 144.242L431.294 144.196L430.947 144.607L430.828 144.087L430.336 143.886L430.792 143.612L430.828 143.083L431.23 143.43L431.75 143.302L431.54 143.795L431.823 144.242Z" fill="#7B3FE4"/>
<path d="M433.538 73.8812L432.517 74.3919L432.353 75.5137L431.559 74.702L430.438 74.8935L430.966 73.8812L430.438 72.878L431.559 73.0695L432.353 72.2578L432.517 73.3796L433.538 73.8812Z" fill="#7B3FE4"/>
<path d="M157.239 36.6626L155.817 36.3525L154.75 37.3466L154.613 35.8965L153.336 35.1942L154.667 34.6106L154.95 33.1787L155.917 34.2731L157.358 34.0907L156.619 35.3493L157.239 36.6626Z" fill="#7B3FE4"/>
<path d="M131.253 47.6246L131.152 47.4148L130.934 47.3874L131.089 47.2233L131.052 47.0044L131.253 47.1047L131.453 47.0044L131.417 47.2233L131.581 47.3874L131.353 47.4148L131.253 47.6246Z" fill="#7B3FE4"/>
<path d="M108.446 31.7012L107.488 31.2908L106.594 31.8471L106.694 30.8074L105.883 30.1417L106.904 29.9046L107.296 28.9287L107.834 29.8316L108.874 29.8954L108.19 30.6889L108.446 31.7012Z" fill="#7B3FE4"/>
<path d="M66.9572 60.1644L66.0634 60.0641L65.4798 60.739L65.2974 59.8635L64.4766 59.5169L65.2518 59.07L65.3338 58.1763L65.9905 58.7782L66.866 58.5776L66.4921 59.3983L66.9572 60.1644Z" fill="#7B3FE4"/>
<path d="M24.0489 26.4117L23.6476 26.6214L23.5747 27.0683L23.2646 26.74L22.8086 26.8221L23.0275 26.4117L22.8086 26.0104L23.2646 26.0925L23.5747 25.7642L23.6476 26.211L24.0489 26.4117Z" fill="#7B3FE4"/>
<path d="M29.0177 81.5146L27.7683 81.5602L27.0934 82.609L26.6739 81.4417L25.4609 81.1225L26.4459 80.3564L26.3729 79.1069L27.4035 79.8092L28.5709 79.3532L28.2243 80.557L29.0177 81.5146Z" fill="#7B3FE4"/>
<path d="M72.967 50.1507L71.6446 49.941L70.7326 50.9168L70.5137 49.5944L69.3008 49.029L70.4955 48.4179L70.6597 47.0864L71.6081 48.0258L72.9305 47.7795L72.3286 48.9743L72.967 50.1507Z" fill="#7B3FE4"/>
<path d="M395.361 22.5446L394.139 22.3805L393.318 23.3016L393.09 22.0886L391.969 21.587L393.045 21.0033L393.173 19.7812L394.066 20.6203L395.27 20.3649L394.741 21.4776L395.361 22.5446Z" fill="#7B3FE4"/>
<path d="M438.5 22.5446L437.898 22.0977L437.186 22.3348L437.433 21.6326L436.977 21.0306L437.734 21.0398L438.162 20.4287L438.381 21.1401L439.102 21.359L438.49 21.7967L438.5 22.5446Z" fill="#7B3FE4"/>
<path d="M266.713 213.554C266.713 213.554 288.282 195.095 299.326 198.698C310.37 202.291 265.618 242.866 260.393 256.473C255.167 270.08 295.733 239.273 304.205 240.805C312.678 242.346 298.295 274.439 315.505 273.673" stroke="white" stroke-width="0.75" stroke-miterlimit="10" stroke-linecap="round" stroke-linejoin="round" stroke-dasharray="3 3"/>
<path d="M178.038 52.8955C179.126 48.3083 176.289 43.708 171.702 42.6203C167.114 41.5327 162.514 44.3697 161.426 48.9569C160.339 53.544 163.176 58.1444 167.763 59.232C172.35 60.3197 176.95 57.4827 178.038 52.8955Z" stroke="white" stroke-width="0.75" stroke-linecap="round" stroke-linejoin="round" stroke-dasharray="2.8 2.8"/>
<path d="M374.301 77.5109C377.988 77.5109 380.977 74.522 380.977 70.835C380.977 67.1481 377.988 64.1592 374.301 64.1592C370.614 64.1592 367.625 67.1481 367.625 70.835C367.625 74.522 370.614 77.5109 374.301 77.5109Z" fill="white"/>
<path d="M352.871 76.0879C352.871 77.31 351.886 78.2949 350.664 78.2949C349.442 78.2949 348.457 77.31 348.457 76.0879C348.457 74.8658 349.442 73.8809 350.664 73.8809C351.886 73.8809 352.871 74.8749 352.871 76.0879Z" fill="white"/>
<path d="M353.782 41.952C353.782 42.8457 353.061 43.5753 352.159 43.5753C351.256 43.5753 350.535 42.8549 350.535 41.952C350.535 41.0582 351.256 40.3286 352.159 40.3286C353.061 40.3286 353.782 41.0582 353.782 41.952Z" fill="white"/>
<path d="M160.474 240.877C163.023 240.877 165.089 238.811 165.089 236.263C165.089 233.714 163.023 231.648 160.474 231.648C157.925 231.648 155.859 233.714 155.859 236.263C155.859 238.811 157.925 240.877 160.474 240.877Z" fill="white"/>
<path d="M402.921 367.308C402.921 369.853 400.86 371.923 398.306 371.923C395.762 371.923 393.691 369.862 393.691 367.308C393.691 364.754 395.753 362.693 398.306 362.693C400.86 362.693 402.921 364.754 402.921 367.308Z" fill="white"/>
<path d="M145.581 252.97C145.581 254.101 144.659 255.022 143.529 255.022C142.398 255.022 141.477 254.101 141.477 252.97C141.477 251.84 142.398 250.918 143.529 250.918C144.669 250.918 145.581 251.84 145.581 252.97Z" fill="white"/>
<path d="M281.295 374.448C281.295 375.579 280.374 376.5 279.243 376.5C278.113 376.5 277.191 375.579 277.191 374.448C277.191 373.318 278.113 372.396 279.243 372.396C280.374 372.406 281.295 373.318 281.295 374.448Z" fill="white"/>
<path d="M136.005 387.91C137.138 387.91 138.057 386.991 138.057 385.858C138.057 384.724 137.138 383.806 136.005 383.806C134.872 383.806 133.953 384.724 133.953 385.858C133.953 386.991 134.872 387.91 136.005 387.91Z" fill="white"/>
<path d="M54.9915 248.575C54.9915 249.459 54.271 250.18 53.3864 250.18C52.5017 250.18 51.7812 249.459 51.7812 248.575C51.7812 247.69 52.5017 246.97 53.3864 246.97C54.271 246.97 54.9915 247.69 54.9915 248.575Z" fill="white"/>
<path d="M166.614 120.986C167.491 120.986 168.201 120.275 168.201 119.399C168.201 118.522 167.491 117.812 166.614 117.812C165.738 117.812 165.027 118.522 165.027 119.399C165.027 120.275 165.738 120.986 166.614 120.986Z" fill="white"/>
<path d="M169.731 54.3824C171.645 54.3824 173.197 52.8308 173.197 50.9168C173.197 49.0028 171.645 47.4512 169.731 47.4512C167.817 47.4512 166.266 49.0028 166.266 50.9168C166.266 52.8308 167.817 54.3824 169.731 54.3824Z" fill="white"/>
<path d="M146.823 373.5C147.196 373.5 147.498 373.198 147.498 372.825C147.498 372.453 147.196 372.15 146.823 372.15C146.451 372.15 146.148 372.453 146.148 372.825C146.148 373.198 146.451 373.5 146.823 373.5Z" fill="white"/>
<path d="M91.6202 376.2C91.9929 376.2 92.2951 375.898 92.2951 375.525C92.2951 375.153 91.9929 374.851 91.6202 374.851C91.2475 374.851 90.9453 375.153 90.9453 375.525C90.9453 375.898 91.2475 376.2 91.6202 376.2Z" fill="white"/>
<path d="M53.642 398.571C53.642 399.191 53.1404 399.693 52.5202 399.693C51.9 399.693 51.3984 399.191 51.3984 398.571C51.3984 397.951 51.9 397.449 52.5202 397.449C53.1404 397.449 53.642 397.951 53.642 398.571Z" fill="white"/>
<path d="M42.8818 143.056C42.8818 144.999 41.3131 146.567 39.3706 146.567C37.428 146.567 35.8594 144.999 35.8594 143.056C35.8594 141.114 37.428 139.545 39.3706 139.545C41.3131 139.554 42.8818 141.123 42.8818 143.056Z" fill="white"/>
<path d="M38.2671 132.049C38.2671 132.714 37.729 133.252 37.0632 133.252C36.3975 133.252 35.8594 132.714 35.8594 132.049C35.8594 131.383 36.3975 130.845 37.0632 130.845C37.729 130.845 38.2671 131.383 38.2671 132.049Z" fill="white"/>
<path d="M66.5585 33.1421C66.5585 34.3185 65.61 35.267 64.4336 35.267C63.2571 35.267 62.3086 34.3185 62.3086 33.1421C62.3086 31.9656 63.2571 31.0171 64.4336 31.0171C65.61 31.0171 66.5585 31.9656 66.5585 33.1421Z" fill="white"/>
<path d="M92.4929 37.7567C92.4929 38.0759 92.2375 38.3312 91.9183 38.3312C91.5991 38.3312 91.3438 38.0759 91.3438 37.7567C91.3438 37.4375 91.5991 37.1821 91.9183 37.1821C92.2375 37.1821 92.4929 37.4375 92.4929 37.7567Z" fill="white"/>
<path d="M135.293 35.6775C135.293 35.9055 135.111 36.0879 134.883 36.0879C134.655 36.0879 134.473 35.9055 134.473 35.6775C134.473 35.4495 134.655 35.2671 134.883 35.2671C135.111 35.2671 135.293 35.4495 135.293 35.6775Z" fill="white"/>
<path d="M173.271 31.0808C174.283 31.0808 175.104 30.2601 175.104 29.2477C175.104 28.2353 174.283 27.4146 173.271 27.4146C172.258 27.4146 171.438 28.2353 171.438 29.2477C171.438 30.2601 172.258 31.0808 173.271 31.0808Z" fill="white"/>
</svg>
