<svg width="439" height="367" viewBox="0 0 439 367" fill="none" xmlns="http://www.w3.org/2000/svg">
<path d="M111.605 222.687C173.243 222.687 223.21 172.837 223.21 111.343C223.21 49.8501 173.243 0 111.605 0C49.9673 0 0 49.8501 0 111.343C0 172.837 49.9673 222.687 111.605 222.687Z" fill="#FC7754"/>
<path d="M288.406 222.687C350.043 222.687 400.011 172.837 400.011 111.343C400.011 49.8501 350.043 0 288.406 0C226.768 0 176.801 49.8501 176.801 111.343C176.801 172.837 226.768 222.687 288.406 222.687Z" fill="#FFC603"/>
<path d="M176.801 110.664C176.762 86.0644 184.926 62.1511 200.006 42.689C215.086 62.1511 223.25 86.0644 223.211 110.664C223.25 135.263 215.086 159.176 200.006 178.638C184.926 159.176 176.762 135.263 176.801 110.664Z" fill="#FF9100"/>
<path d="M200.005 366C261.643 366 311.61 316.15 311.61 254.657C311.61 193.163 261.643 143.313 200.005 143.313C138.367 143.313 88.4001 193.163 88.4001 254.657C88.4001 316.15 138.367 366 200.005 366Z" fill="#0092FF"/>
<path d="M181.916 144.088C208.425 139.774 235.605 145.127 258.482 159.168C281.358 173.21 298.402 195 306.493 220.552C300.513 221.522 294.464 222.009 288.405 222.007C264.656 222.005 241.527 214.45 222.376 200.438C203.226 186.425 189.053 166.686 181.916 144.088Z" fill="#2D6123"/>
<path d="M93.5156 220.552C101.607 195 118.65 173.21 141.527 159.168C164.404 145.127 191.583 139.774 218.092 144.089C210.955 166.686 196.782 186.425 177.632 200.437C158.482 214.45 135.353 222.005 111.604 222.007C105.545 222.009 99.4961 221.522 93.5156 220.552Z" fill="#772610"/>
<path d="M181.916 144.088C193.897 142.148 206.113 142.148 218.094 144.088C214.153 156.579 208.029 168.275 200.005 178.638C191.981 168.275 185.857 156.579 181.916 144.088Z" fill="#FFF4D9"/>
<path d="M136.276 296.014V280.014H142.683C143.86 280.014 144.841 280.189 145.628 280.538C146.414 280.887 147.006 281.371 147.401 281.991C147.797 282.605 147.995 283.314 147.995 284.116C147.995 284.741 147.87 285.29 147.62 285.764C147.37 286.233 147.026 286.618 146.589 286.92C146.157 287.217 145.662 287.428 145.104 287.553V287.709C145.714 287.736 146.284 287.907 146.815 288.225C147.352 288.543 147.787 288.988 148.12 289.561C148.453 290.129 148.62 290.806 148.62 291.592C148.62 292.441 148.409 293.199 147.987 293.866C147.571 294.527 146.953 295.051 146.136 295.436C145.318 295.821 144.31 296.014 143.112 296.014H136.276ZM139.659 293.249H142.417C143.36 293.249 144.047 293.069 144.479 292.709C144.912 292.345 145.128 291.861 145.128 291.256C145.128 290.814 145.021 290.423 144.808 290.084C144.594 289.746 144.289 289.48 143.894 289.288C143.503 289.095 143.037 288.999 142.495 288.999H139.659V293.249ZM139.659 286.709H142.167C142.631 286.709 143.042 286.629 143.401 286.467C143.766 286.301 144.052 286.066 144.261 285.764C144.474 285.462 144.581 285.1 144.581 284.678C144.581 284.1 144.375 283.634 143.964 283.28C143.558 282.926 142.979 282.749 142.229 282.749H139.659V286.709ZM158.454 290.905V284.014H161.782V296.014H158.587V293.834H158.462C158.191 294.538 157.741 295.103 157.11 295.53C156.485 295.957 155.722 296.17 154.821 296.17C154.019 296.17 153.313 295.988 152.704 295.624C152.095 295.259 151.618 294.741 151.274 294.069C150.936 293.397 150.764 292.592 150.759 291.655V284.014H154.087V291.061C154.092 291.769 154.282 292.329 154.657 292.741C155.032 293.152 155.535 293.358 156.165 293.358C156.566 293.358 156.941 293.267 157.29 293.084C157.639 292.897 157.92 292.621 158.134 292.256C158.353 291.892 158.459 291.441 158.454 290.905ZM174.429 287.436L171.382 287.624C171.33 287.363 171.218 287.129 171.046 286.92C170.874 286.707 170.647 286.538 170.366 286.413C170.09 286.282 169.759 286.217 169.374 286.217C168.858 286.217 168.424 286.327 168.069 286.545C167.715 286.759 167.538 287.045 167.538 287.405C167.538 287.691 167.653 287.933 167.882 288.131C168.111 288.329 168.504 288.488 169.062 288.608L171.233 289.045C172.4 289.285 173.27 289.67 173.843 290.202C174.416 290.733 174.702 291.431 174.702 292.295C174.702 293.082 174.47 293.772 174.007 294.366C173.549 294.959 172.918 295.423 172.116 295.756C171.319 296.084 170.4 296.249 169.358 296.249C167.77 296.249 166.504 295.918 165.562 295.256C164.624 294.59 164.075 293.683 163.913 292.538L167.187 292.366C167.285 292.85 167.525 293.22 167.905 293.475C168.285 293.725 168.772 293.85 169.366 293.85C169.95 293.85 170.418 293.738 170.772 293.514C171.132 293.285 171.314 292.991 171.319 292.631C171.314 292.329 171.187 292.082 170.937 291.889C170.687 291.691 170.301 291.54 169.78 291.436L167.702 291.022C166.53 290.788 165.658 290.381 165.085 289.803C164.517 289.225 164.233 288.488 164.233 287.592C164.233 286.821 164.442 286.157 164.858 285.6C165.28 285.043 165.871 284.613 166.632 284.311C167.397 284.009 168.293 283.858 169.319 283.858C170.835 283.858 172.028 284.178 172.897 284.819C173.772 285.459 174.283 286.332 174.429 287.436ZM176.798 296.014V284.014H180.126V296.014H176.798ZM178.47 282.467C177.975 282.467 177.55 282.303 177.196 281.975C176.847 281.642 176.673 281.243 176.673 280.78C176.673 280.321 176.847 279.928 177.196 279.6C177.55 279.267 177.975 279.1 178.47 279.1C178.965 279.1 179.386 279.267 179.735 279.6C180.09 279.928 180.267 280.321 180.267 280.78C180.267 281.243 180.09 281.642 179.735 281.975C179.386 282.303 178.965 282.467 178.47 282.467ZM186.12 289.077V296.014H182.792V284.014H185.964V286.131H186.104C186.37 285.433 186.815 284.881 187.44 284.475C188.065 284.064 188.823 283.858 189.714 283.858C190.547 283.858 191.274 284.04 191.894 284.405C192.513 284.769 192.995 285.29 193.339 285.967C193.683 286.639 193.854 287.441 193.854 288.374V296.014H190.526V288.967C190.532 288.233 190.344 287.66 189.964 287.249C189.584 286.832 189.06 286.624 188.394 286.624C187.946 286.624 187.55 286.72 187.206 286.913C186.868 287.105 186.602 287.387 186.409 287.756C186.222 288.121 186.125 288.561 186.12 289.077ZM201.946 296.249C200.712 296.249 199.649 295.999 198.759 295.499C197.873 294.993 197.191 294.28 196.712 293.358C196.233 292.431 195.993 291.334 195.993 290.069C195.993 288.834 196.233 287.751 196.712 286.819C197.191 285.887 197.866 285.16 198.735 284.639C199.61 284.118 200.636 283.858 201.813 283.858C202.605 283.858 203.342 283.986 204.024 284.241C204.712 284.491 205.311 284.868 205.821 285.374C206.337 285.879 206.738 286.514 207.024 287.28C207.311 288.04 207.454 288.931 207.454 289.952V290.866H197.321V288.803H204.321C204.321 288.324 204.217 287.9 204.009 287.53C203.8 287.16 203.511 286.871 203.142 286.663C202.777 286.449 202.353 286.342 201.868 286.342C201.363 286.342 200.915 286.459 200.524 286.694C200.139 286.923 199.837 287.233 199.618 287.624C199.399 288.009 199.287 288.439 199.282 288.913V290.874C199.282 291.467 199.392 291.98 199.61 292.413C199.834 292.845 200.149 293.178 200.556 293.413C200.962 293.647 201.444 293.764 202.001 293.764C202.371 293.764 202.709 293.712 203.017 293.608C203.324 293.504 203.587 293.347 203.806 293.139C204.024 292.931 204.191 292.676 204.306 292.374L207.384 292.577C207.228 293.316 206.907 293.962 206.423 294.514C205.944 295.061 205.324 295.488 204.563 295.795C203.808 296.097 202.936 296.249 201.946 296.249ZM219.61 287.436L216.563 287.624C216.511 287.363 216.399 287.129 216.228 286.92C216.056 286.707 215.829 286.538 215.548 286.413C215.272 286.282 214.941 286.217 214.556 286.217C214.04 286.217 213.605 286.327 213.251 286.545C212.897 286.759 212.72 287.045 212.72 287.405C212.72 287.691 212.834 287.933 213.063 288.131C213.293 288.329 213.686 288.488 214.243 288.608L216.415 289.045C217.582 289.285 218.451 289.67 219.024 290.202C219.597 290.733 219.884 291.431 219.884 292.295C219.884 293.082 219.652 293.772 219.188 294.366C218.73 294.959 218.1 295.423 217.298 295.756C216.501 296.084 215.582 296.249 214.54 296.249C212.951 296.249 211.686 295.918 210.743 295.256C209.806 294.59 209.256 293.683 209.095 292.538L212.368 292.366C212.467 292.85 212.707 293.22 213.087 293.475C213.467 293.725 213.954 293.85 214.548 293.85C215.131 293.85 215.6 293.738 215.954 293.514C216.313 293.285 216.496 292.991 216.501 292.631C216.496 292.329 216.368 292.082 216.118 291.889C215.868 291.691 215.483 291.54 214.962 291.436L212.884 291.022C211.712 290.788 210.84 290.381 210.267 289.803C209.699 289.225 209.415 288.488 209.415 287.592C209.415 286.821 209.623 286.157 210.04 285.6C210.462 285.043 211.053 284.613 211.813 284.311C212.579 284.009 213.475 283.858 214.501 283.858C216.017 283.858 217.209 284.178 218.079 284.819C218.954 285.459 219.465 286.332 219.61 287.436ZM231.964 287.436L228.917 287.624C228.865 287.363 228.753 287.129 228.581 286.92C228.409 286.707 228.183 286.538 227.901 286.413C227.625 286.282 227.295 286.217 226.909 286.217C226.394 286.217 225.959 286.327 225.604 286.545C225.25 286.759 225.073 287.045 225.073 287.405C225.073 287.691 225.188 287.933 225.417 288.131C225.646 288.329 226.039 288.488 226.597 288.608L228.769 289.045C229.935 289.285 230.805 289.67 231.378 290.202C231.951 290.733 232.237 291.431 232.237 292.295C232.237 293.082 232.006 293.772 231.542 294.366C231.084 294.959 230.453 295.423 229.651 295.756C228.854 296.084 227.935 296.249 226.894 296.249C225.305 296.249 224.039 295.918 223.097 295.256C222.159 294.59 221.61 293.683 221.448 292.538L224.722 292.366C224.821 292.85 225.06 293.22 225.44 293.475C225.821 293.725 226.308 293.85 226.901 293.85C227.485 293.85 227.953 293.738 228.308 293.514C228.667 293.285 228.849 292.991 228.854 292.631C228.849 292.329 228.722 292.082 228.472 291.889C228.222 291.691 227.836 291.54 227.315 291.436L225.237 291.022C224.065 290.788 223.193 290.381 222.62 289.803C222.052 289.225 221.769 288.488 221.769 287.592C221.769 286.821 221.977 286.157 222.394 285.6C222.815 285.043 223.407 284.613 224.167 284.311C224.933 284.009 225.828 283.858 226.854 283.858C228.37 283.858 229.563 284.178 230.433 284.819C231.308 285.459 231.818 286.332 231.964 287.436Z" fill="black"/>
<path d="M56.1074 102.008V99.219H69.248V102.008H64.3496V115.219H61.0059V102.008H56.1074ZM75.0781 115.453C73.8438 115.453 72.7813 115.203 71.8906 114.703C71.0052 114.198 70.3229 113.485 69.8437 112.563C69.3646 111.636 69.125 110.539 69.125 109.274C69.125 108.039 69.3646 106.956 69.8437 106.024C70.3229 105.091 70.9974 104.365 71.8672 103.844C72.7422 103.323 73.7682 103.063 74.9453 103.063C75.737 103.063 76.474 103.19 77.1563 103.446C77.8438 103.696 78.4427 104.073 78.9531 104.578C79.4688 105.084 79.8698 105.719 80.1563 106.485C80.4427 107.245 80.5859 108.136 80.5859 109.156V110.071H70.4531V108.008H77.4531C77.4531 107.529 77.349 107.104 77.1406 106.735C76.9323 106.365 76.6432 106.076 76.2734 105.867C75.9089 105.654 75.4844 105.547 75 105.547C74.4948 105.547 74.0469 105.664 73.6563 105.899C73.2708 106.128 72.9688 106.438 72.75 106.828C72.5313 107.214 72.4193 107.643 72.4141 108.117V110.078C72.4141 110.672 72.5234 111.185 72.7422 111.617C72.9661 112.05 73.2813 112.383 73.6875 112.617C74.0938 112.852 74.5755 112.969 75.1328 112.969C75.5026 112.969 75.8411 112.917 76.1484 112.813C76.4557 112.709 76.7188 112.552 76.9375 112.344C77.1563 112.136 77.3229 111.88 77.4375 111.578L80.5156 111.781C80.3594 112.521 80.0391 113.167 79.5547 113.719C79.0755 114.266 78.4557 114.693 77.6953 115C76.9401 115.302 76.0677 115.453 75.0781 115.453ZM88.1797 115.453C86.9505 115.453 85.8932 115.193 85.0078 114.672C84.1276 114.146 83.4505 113.417 82.9766 112.485C82.5078 111.552 82.2734 110.479 82.2734 109.266C82.2734 108.037 82.5104 106.959 82.9844 106.031C83.4635 105.099 84.1432 104.373 85.0234 103.852C85.9036 103.326 86.9505 103.063 88.1641 103.063C89.2109 103.063 90.1276 103.253 90.9141 103.633C91.7005 104.013 92.3229 104.547 92.7813 105.235C93.2396 105.922 93.4922 106.729 93.5391 107.656H90.3984C90.3099 107.058 90.0755 106.576 89.6953 106.211C89.3203 105.841 88.8281 105.656 88.2188 105.656C87.7031 105.656 87.2526 105.797 86.8672 106.078C86.487 106.354 86.1901 106.758 85.9766 107.289C85.763 107.821 85.6563 108.464 85.6563 109.219C85.6563 109.985 85.7604 110.636 85.9688 111.172C86.1823 111.709 86.4818 112.117 86.8672 112.399C87.2526 112.68 87.7031 112.821 88.2188 112.821C88.599 112.821 88.9401 112.742 89.2422 112.586C89.5495 112.43 89.8021 112.203 90 111.906C90.2031 111.604 90.3359 111.242 90.3984 110.821H93.5391C93.487 111.737 93.237 112.545 92.7891 113.242C92.3464 113.935 91.7344 114.477 90.9531 114.867C90.1719 115.258 89.2474 115.453 88.1797 115.453ZM98.998 108.281V115.219H95.6699V99.219H98.9043V105.336H99.0449C99.3158 104.628 99.7533 104.073 100.357 103.672C100.962 103.266 101.719 103.063 102.631 103.063C103.464 103.063 104.191 103.245 104.811 103.61C105.436 103.969 105.92 104.487 106.264 105.164C106.613 105.836 106.785 106.641 106.779 107.578V115.219H103.451V108.172C103.456 107.433 103.269 106.857 102.889 106.446C102.514 106.034 101.988 105.828 101.311 105.828C100.857 105.828 100.456 105.925 100.107 106.117C99.7637 106.31 99.4928 106.591 99.2949 106.961C99.1022 107.326 99.0033 107.766 98.998 108.281Z" fill="black"/>
<path d="M276.551 99.2187H279.934V109.609C279.934 110.776 279.655 111.797 279.098 112.672C278.546 113.547 277.772 114.229 276.777 114.719C275.783 115.203 274.624 115.445 273.301 115.445C271.973 115.445 270.811 115.203 269.816 114.719C268.822 114.229 268.048 113.547 267.496 112.672C266.944 111.797 266.668 110.776 266.668 109.609V99.2187H270.051V109.32C270.051 109.93 270.184 110.471 270.449 110.945C270.72 111.419 271.1 111.792 271.59 112.063C272.079 112.333 272.65 112.469 273.301 112.469C273.957 112.469 274.527 112.333 275.012 112.063C275.501 111.792 275.879 111.419 276.145 110.945C276.415 110.471 276.551 109.93 276.551 109.32V99.2187ZM285.889 99.2187L289.115 104.672H289.24L292.482 99.2187H296.303L291.42 107.219L296.412 115.219H292.521L289.24 109.758H289.115L285.834 115.219H281.959L286.967 107.219L282.053 99.2187H285.889Z" fill="black"/>
<path d="M198.348 156.413L355.258 284.293" stroke="black" stroke-width="3" stroke-linecap="round"/>
<path d="M342.201 339.223V325.405H347.653C348.701 325.405 349.594 325.605 350.331 326.005C351.069 326.401 351.631 326.952 352.018 327.658C352.409 328.36 352.605 329.17 352.605 330.087C352.605 331.005 352.407 331.815 352.011 332.516C351.616 333.218 351.042 333.765 350.291 334.156C349.544 334.547 348.64 334.743 347.578 334.743H344.104V332.402H347.106C347.668 332.402 348.132 332.305 348.496 332.112C348.865 331.914 349.139 331.641 349.319 331.295C349.504 330.944 349.596 330.542 349.596 330.087C349.596 329.629 349.504 329.228 349.319 328.886C349.139 328.54 348.865 328.272 348.496 328.083C348.127 327.89 347.659 327.793 347.093 327.793H345.123V339.223H342.201ZM354.449 339.223V328.859H357.235V330.668H357.343C357.532 330.024 357.849 329.539 358.295 329.21C358.74 328.877 359.253 328.711 359.833 328.711C359.977 328.711 360.132 328.72 360.299 328.738C360.465 328.756 360.611 328.781 360.737 328.812V331.363C360.602 331.322 360.416 331.286 360.177 331.255C359.939 331.223 359.721 331.207 359.523 331.207C359.1 331.207 358.722 331.3 358.389 331.484C358.061 331.664 357.8 331.916 357.606 332.24C357.418 332.564 357.323 332.937 357.323 333.36V339.223H354.449ZM366.423 339.425C365.375 339.425 364.469 339.203 363.704 338.757C362.944 338.308 362.357 337.682 361.943 336.882C361.529 336.077 361.322 335.143 361.322 334.082C361.322 333.011 361.529 332.076 361.943 331.275C362.357 330.47 362.944 329.844 363.704 329.399C364.469 328.949 365.375 328.724 366.423 328.724C367.471 328.724 368.375 328.949 369.136 329.399C369.9 329.844 370.49 330.47 370.903 331.275C371.317 332.076 371.524 333.011 371.524 334.082C371.524 335.143 371.317 336.077 370.903 336.882C370.49 337.682 369.9 338.308 369.136 338.757C368.375 339.203 367.471 339.425 366.423 339.425ZM366.437 337.199C366.914 337.199 367.312 337.064 367.631 336.794C367.95 336.52 368.191 336.146 368.353 335.674C368.519 335.202 368.603 334.664 368.603 334.061C368.603 333.459 368.519 332.921 368.353 332.449C368.191 331.977 367.95 331.603 367.631 331.329C367.312 331.054 366.914 330.917 366.437 330.917C365.955 330.917 365.551 331.054 365.222 331.329C364.898 331.603 364.653 331.977 364.487 332.449C364.325 332.921 364.244 333.459 364.244 334.061C364.244 334.664 364.325 335.202 364.487 335.674C364.653 336.146 364.898 336.52 365.222 336.794C365.551 337.064 365.955 337.199 366.437 337.199ZM377.212 339.392C376.425 339.392 375.712 339.189 375.073 338.784C374.439 338.375 373.935 337.775 373.562 336.983C373.193 336.187 373.009 335.211 373.009 334.055C373.009 332.867 373.2 331.88 373.582 331.093C373.964 330.301 374.473 329.71 375.107 329.318C375.746 328.922 376.445 328.724 377.205 328.724C377.786 328.724 378.269 328.823 378.656 329.021C379.047 329.215 379.362 329.458 379.6 329.75C379.843 330.038 380.028 330.321 380.154 330.6H380.241V325.405H383.109V339.223H380.275V337.563H380.154C380.019 337.851 379.828 338.137 379.58 338.42C379.337 338.699 379.02 338.931 378.629 339.115C378.242 339.299 377.77 339.392 377.212 339.392ZM378.123 337.104C378.586 337.104 378.978 336.978 379.297 336.727C379.621 336.47 379.868 336.113 380.039 335.654C380.214 335.195 380.302 334.657 380.302 334.041C380.302 333.425 380.217 332.89 380.046 332.435C379.875 331.981 379.627 331.63 379.304 331.383C378.98 331.135 378.586 331.012 378.123 331.012C377.651 331.012 377.252 331.14 376.929 331.396C376.605 331.653 376.36 332.008 376.193 332.462C376.027 332.917 375.944 333.443 375.944 334.041C375.944 334.644 376.027 335.177 376.193 335.64C376.364 336.099 376.609 336.459 376.929 336.72C377.252 336.976 377.651 337.104 378.123 337.104ZM392.118 334.81V328.859H394.992V339.223H392.233V337.341H392.125C391.891 337.948 391.502 338.436 390.958 338.805C390.418 339.174 389.759 339.358 388.981 339.358C388.288 339.358 387.679 339.201 387.152 338.886C386.626 338.571 386.214 338.123 385.918 337.543C385.625 336.963 385.477 336.268 385.472 335.458V328.859H388.347V334.945C388.351 335.557 388.515 336.041 388.839 336.396C389.163 336.751 389.597 336.929 390.141 336.929C390.488 336.929 390.811 336.85 391.113 336.693C391.414 336.531 391.657 336.293 391.842 335.978C392.03 335.663 392.123 335.274 392.118 334.81ZM401.974 339.425C400.913 339.425 399.999 339.201 399.235 338.751C398.475 338.296 397.89 337.667 397.48 336.862C397.076 336.056 396.873 335.13 396.873 334.082C396.873 333.02 397.078 332.089 397.487 331.288C397.901 330.483 398.488 329.856 399.248 329.406C400.008 328.952 400.913 328.724 401.961 328.724C402.865 328.724 403.656 328.889 404.336 329.217C405.015 329.545 405.552 330.006 405.948 330.6C406.344 331.194 406.562 331.891 406.603 332.692H403.89C403.814 332.174 403.611 331.758 403.283 331.444C402.959 331.124 402.534 330.964 402.008 330.964C401.562 330.964 401.173 331.086 400.841 331.329C400.512 331.567 400.256 331.916 400.071 332.375C399.887 332.833 399.795 333.389 399.795 334.041C399.795 334.702 399.885 335.265 400.065 335.728C400.249 336.191 400.508 336.544 400.841 336.787C401.173 337.03 401.562 337.152 402.008 337.152C402.336 337.152 402.631 337.084 402.892 336.949C403.157 336.814 403.375 336.619 403.546 336.362C403.722 336.101 403.836 335.789 403.89 335.424H406.603C406.558 336.216 406.342 336.913 405.955 337.516C405.573 338.114 405.044 338.582 404.369 338.919C403.695 339.257 402.896 339.425 401.974 339.425ZM413.955 328.859V331.018H407.714V328.859H413.955ZM409.131 326.376H412.005V336.038C412.005 336.304 412.046 336.511 412.127 336.659C412.208 336.803 412.32 336.904 412.464 336.963C412.613 337.021 412.784 337.05 412.977 337.05C413.112 337.05 413.247 337.039 413.382 337.017C413.517 336.99 413.62 336.969 413.692 336.956L414.144 339.095C414 339.14 413.798 339.192 413.537 339.25C413.276 339.313 412.959 339.351 412.586 339.365C411.893 339.392 411.286 339.299 410.764 339.088C410.247 338.877 409.844 338.548 409.556 338.103C409.268 337.658 409.127 337.095 409.131 336.416V326.376Z" fill="black"/>
<path d="M342.201 347.901H345.804L349.609 357.185H349.771L353.577 347.901H357.18V361.719H354.346V352.726H354.231L350.655 361.652H348.725L345.15 352.692H345.035V361.719H342.201V347.901ZM362.488 361.915C361.827 361.915 361.238 361.8 360.72 361.571C360.203 361.337 359.794 360.993 359.492 360.539C359.195 360.08 359.047 359.509 359.047 358.825C359.047 358.249 359.153 357.766 359.364 357.374C359.575 356.983 359.863 356.668 360.228 356.43C360.592 356.191 361.006 356.011 361.469 355.89C361.937 355.768 362.427 355.683 362.94 355.634C363.543 355.571 364.029 355.512 364.397 355.458C364.766 355.4 365.034 355.314 365.2 355.202C365.367 355.089 365.45 354.923 365.45 354.702V354.662C365.45 354.235 365.315 353.904 365.045 353.67C364.78 353.436 364.402 353.319 363.912 353.319C363.394 353.319 362.983 353.434 362.677 353.663C362.371 353.888 362.169 354.172 362.07 354.514L359.411 354.298C359.546 353.668 359.812 353.124 360.207 352.665C360.603 352.201 361.114 351.846 361.739 351.599C362.369 351.347 363.098 351.221 363.925 351.221C364.501 351.221 365.052 351.288 365.578 351.423C366.109 351.558 366.579 351.767 366.988 352.051C367.402 352.334 367.728 352.699 367.967 353.144C368.205 353.585 368.324 354.113 368.324 354.729V361.719H365.598V360.282H365.517C365.351 360.606 365.128 360.892 364.85 361.139C364.571 361.382 364.236 361.573 363.844 361.713C363.453 361.848 363.001 361.915 362.488 361.915ZM363.311 359.931C363.734 359.931 364.107 359.848 364.431 359.682C364.755 359.511 365.009 359.282 365.194 358.994C365.378 358.706 365.47 358.38 365.47 358.015V356.916C365.38 356.974 365.257 357.028 365.099 357.077C364.946 357.122 364.773 357.165 364.58 357.206C364.386 357.242 364.193 357.275 363.999 357.307C363.806 357.334 363.631 357.359 363.473 357.381C363.136 357.431 362.841 357.509 362.589 357.617C362.337 357.725 362.142 357.871 362.002 358.056C361.863 358.236 361.793 358.461 361.793 358.73C361.793 359.122 361.935 359.421 362.218 359.628C362.506 359.83 362.87 359.931 363.311 359.931ZM373.429 355.728V361.719H370.554V351.356H373.294V353.184H373.415C373.644 352.582 374.029 352.105 374.569 351.754C375.109 351.399 375.763 351.221 376.532 351.221C377.252 351.221 377.879 351.378 378.415 351.693C378.95 352.008 379.366 352.458 379.663 353.043C379.96 353.623 380.108 354.316 380.108 355.121V361.719H377.234V355.634C377.238 354.999 377.076 354.505 376.748 354.149C376.42 353.789 375.968 353.609 375.392 353.609C375.005 353.609 374.663 353.693 374.366 353.859C374.074 354.025 373.845 354.268 373.678 354.588C373.516 354.903 373.433 355.283 373.429 355.728ZM385.329 361.915C384.668 361.915 384.078 361.8 383.561 361.571C383.044 361.337 382.634 360.993 382.333 360.539C382.036 360.08 381.888 359.509 381.888 358.825C381.888 358.249 381.993 357.766 382.205 357.374C382.416 356.983 382.704 356.668 383.069 356.43C383.433 356.191 383.847 356.011 384.31 355.89C384.778 355.768 385.268 355.683 385.781 355.634C386.384 355.571 386.869 355.512 387.238 355.458C387.607 355.4 387.875 355.314 388.041 355.202C388.208 355.089 388.291 354.923 388.291 354.702V354.662C388.291 354.235 388.156 353.904 387.886 353.67C387.621 353.436 387.243 353.319 386.752 353.319C386.235 353.319 385.824 353.434 385.518 353.663C385.212 353.888 385.009 354.172 384.911 354.514L382.252 354.298C382.387 353.668 382.652 353.124 383.048 352.665C383.444 352.201 383.955 351.846 384.58 351.599C385.21 351.347 385.938 351.221 386.766 351.221C387.342 351.221 387.893 351.288 388.419 351.423C388.95 351.558 389.42 351.767 389.829 352.051C390.243 352.334 390.569 352.699 390.808 353.144C391.046 353.585 391.165 354.113 391.165 354.729V361.719H388.439V360.282H388.358C388.192 360.606 387.969 360.892 387.69 361.139C387.411 361.382 387.076 361.573 386.685 361.713C386.294 361.848 385.842 361.915 385.329 361.915ZM386.152 359.931C386.575 359.931 386.948 359.848 387.272 359.682C387.596 359.511 387.85 359.282 388.034 358.994C388.219 358.706 388.311 358.38 388.311 358.015V356.916C388.221 356.974 388.097 357.028 387.94 357.077C387.787 357.122 387.614 357.165 387.42 357.206C387.227 357.242 387.034 357.275 386.84 357.307C386.647 357.334 386.471 357.359 386.314 357.381C385.977 357.431 385.682 357.509 385.43 357.617C385.178 357.725 384.982 357.871 384.843 358.056C384.704 358.236 384.634 358.461 384.634 358.73C384.634 359.122 384.776 359.421 385.059 359.628C385.347 359.83 385.711 359.931 386.152 359.931ZM398.064 365.822C397.133 365.822 396.335 365.694 395.669 365.437C395.008 365.185 394.481 364.841 394.09 364.405C393.699 363.969 393.445 363.478 393.328 362.934L395.986 362.576C396.067 362.783 396.195 362.977 396.371 363.157C396.546 363.337 396.778 363.48 397.066 363.588C397.358 363.701 397.713 363.757 398.132 363.757C398.757 363.757 399.272 363.604 399.677 363.298C400.086 362.997 400.291 362.491 400.291 361.78V359.884H400.169C400.043 360.172 399.854 360.444 399.602 360.701C399.351 360.957 399.027 361.166 398.631 361.328C398.235 361.49 397.763 361.571 397.214 361.571C396.436 361.571 395.727 361.391 395.089 361.031C394.454 360.667 393.948 360.111 393.57 359.365C393.197 358.614 393.01 357.664 393.01 356.517C393.01 355.343 393.202 354.363 393.584 353.576C393.966 352.788 394.475 352.199 395.109 351.808C395.748 351.417 396.447 351.221 397.207 351.221C397.787 351.221 398.273 351.32 398.665 351.518C399.056 351.711 399.371 351.954 399.609 352.246C399.852 352.534 400.039 352.818 400.169 353.097H400.277V351.356H403.131V361.821C403.131 362.702 402.915 363.44 402.483 364.034C402.052 364.628 401.453 365.073 400.689 365.37C399.929 365.671 399.054 365.822 398.064 365.822ZM398.125 359.412C398.588 359.412 398.979 359.297 399.299 359.068C399.623 358.834 399.87 358.501 400.041 358.069C400.216 357.633 400.304 357.111 400.304 356.504C400.304 355.897 400.219 355.37 400.048 354.925C399.877 354.475 399.629 354.127 399.306 353.879C398.982 353.632 398.588 353.508 398.125 353.508C397.653 353.508 397.254 353.636 396.931 353.893C396.607 354.145 396.362 354.496 396.195 354.945C396.029 355.395 395.945 355.915 395.945 356.504C395.945 357.102 396.029 357.619 396.195 358.056C396.366 358.488 396.611 358.823 396.931 359.061C397.254 359.295 397.653 359.412 398.125 359.412ZM410.142 361.922C409.075 361.922 408.158 361.706 407.389 361.274C406.624 360.838 406.035 360.222 405.621 359.425C405.207 358.625 405 357.678 405 356.585C405 355.519 405.207 354.583 405.621 353.778C406.035 352.973 406.617 352.345 407.368 351.896C408.124 351.446 409.01 351.221 410.027 351.221C410.711 351.221 411.347 351.331 411.936 351.552C412.53 351.767 413.047 352.094 413.488 352.53C413.933 352.966 414.28 353.515 414.527 354.176C414.775 354.833 414.898 355.602 414.898 356.484V357.273H406.147V355.492H412.193C412.193 355.078 412.103 354.711 411.923 354.392C411.743 354.073 411.493 353.823 411.174 353.643C410.859 353.459 410.492 353.366 410.074 353.366C409.638 353.366 409.251 353.468 408.914 353.67C408.581 353.868 408.32 354.136 408.131 354.473C407.942 354.806 407.845 355.177 407.841 355.586V357.28C407.841 357.793 407.935 358.236 408.124 358.609C408.318 358.982 408.59 359.27 408.941 359.473C409.291 359.675 409.707 359.776 410.189 359.776C410.508 359.776 410.8 359.731 411.066 359.641C411.331 359.551 411.558 359.416 411.747 359.237C411.936 359.057 412.08 358.836 412.179 358.575L414.838 358.751C414.703 359.389 414.426 359.947 414.008 360.424C413.594 360.896 413.059 361.265 412.402 361.531C411.75 361.791 410.996 361.922 410.142 361.922ZM416.774 361.719V351.356H419.561V353.164H419.669C419.857 352.521 420.175 352.035 420.62 351.707C421.065 351.374 421.578 351.207 422.158 351.207C422.302 351.207 422.457 351.216 422.624 351.234C422.79 351.252 422.936 351.277 423.062 351.309V353.859C422.927 353.819 422.741 353.783 422.502 353.751C422.264 353.72 422.046 353.704 421.848 353.704C421.425 353.704 421.047 353.796 420.714 353.98C420.386 354.16 420.125 354.412 419.932 354.736C419.743 355.06 419.648 355.433 419.648 355.856V361.719H416.774Z" fill="#410EAD"/>
</svg>
