<svg width="401" height="366" viewBox="0 0 401 366" fill="none" xmlns="http://www.w3.org/2000/svg">
<path d="M111.605 222.687C173.243 222.687 223.21 172.837 223.21 111.343C223.21 49.8501 173.243 0 111.605 0C49.9673 0 0 49.8501 0 111.343C0 172.837 49.9673 222.687 111.605 222.687Z" fill="#FC7754"/>
<path d="M288.406 222.687C350.043 222.687 400.011 172.837 400.011 111.343C400.011 49.8501 350.043 0 288.406 0C226.768 0 176.801 49.8501 176.801 111.343C176.801 172.837 226.768 222.687 288.406 222.687Z" fill="#FFC603"/>
<path d="M176.801 110.664C176.762 86.0644 184.926 62.1511 200.006 42.689C215.086 62.1511 223.25 86.0644 223.211 110.664C223.25 135.263 215.086 159.176 200.006 178.638C184.926 159.176 176.762 135.263 176.801 110.664Z" fill="#FF9100"/>
<path d="M200.005 366C261.643 366 311.61 316.15 311.61 254.657C311.61 193.163 261.643 143.313 200.005 143.313C138.367 143.313 88.4001 193.163 88.4001 254.657C88.4001 316.15 138.367 366 200.005 366Z" fill="#0092FF"/>
<path d="M181.916 144.088C208.425 139.774 235.605 145.127 258.482 159.168C281.358 173.21 298.402 195 306.493 220.552C300.513 221.522 294.464 222.009 288.405 222.007C264.656 222.005 241.527 214.45 222.376 200.438C203.226 186.425 189.053 166.686 181.916 144.088Z" fill="#2D6123"/>
<path d="M93.5156 220.552C101.607 195 118.65 173.21 141.527 159.168C164.404 145.127 191.583 139.774 218.092 144.089C210.955 166.686 196.782 186.425 177.632 200.437C158.482 214.45 135.353 222.005 111.604 222.007C105.545 222.009 99.4961 221.522 93.5156 220.552Z" fill="#772610"/>
<path d="M181.916 144.088C193.897 142.148 206.113 142.148 218.094 144.088C214.153 156.579 208.029 168.275 200.005 178.638C191.981 168.275 185.857 156.579 181.916 144.088Z" fill="#FFF4D9"/>
<path d="M136.276 296.014V280.014H142.683C143.86 280.014 144.841 280.189 145.628 280.538C146.414 280.887 147.006 281.371 147.401 281.991C147.797 282.605 147.995 283.314 147.995 284.116C147.995 284.741 147.87 285.29 147.62 285.764C147.37 286.233 147.026 286.618 146.589 286.92C146.157 287.217 145.662 287.428 145.104 287.553V287.709C145.714 287.736 146.284 287.907 146.815 288.225C147.352 288.543 147.787 288.988 148.12 289.561C148.453 290.129 148.62 290.806 148.62 291.592C148.62 292.441 148.409 293.199 147.987 293.866C147.571 294.527 146.953 295.051 146.136 295.436C145.318 295.821 144.31 296.014 143.112 296.014H136.276ZM139.659 293.249H142.417C143.36 293.249 144.047 293.069 144.479 292.709C144.912 292.345 145.128 291.861 145.128 291.256C145.128 290.814 145.021 290.423 144.808 290.084C144.594 289.746 144.289 289.48 143.894 289.288C143.503 289.095 143.037 288.999 142.495 288.999H139.659V293.249ZM139.659 286.709H142.167C142.631 286.709 143.042 286.629 143.401 286.467C143.766 286.301 144.052 286.066 144.261 285.764C144.474 285.462 144.581 285.1 144.581 284.678C144.581 284.1 144.375 283.634 143.964 283.28C143.558 282.926 142.979 282.749 142.229 282.749H139.659V286.709ZM158.454 290.905V284.014H161.782V296.014H158.587V293.834H158.462C158.191 294.538 157.741 295.103 157.11 295.53C156.485 295.957 155.722 296.17 154.821 296.17C154.019 296.17 153.313 295.988 152.704 295.624C152.095 295.259 151.618 294.741 151.274 294.069C150.936 293.397 150.764 292.592 150.759 291.655V284.014H154.087V291.061C154.092 291.769 154.282 292.329 154.657 292.741C155.032 293.152 155.535 293.358 156.165 293.358C156.566 293.358 156.941 293.267 157.29 293.084C157.639 292.897 157.92 292.621 158.134 292.256C158.353 291.892 158.459 291.441 158.454 290.905ZM174.429 287.436L171.382 287.624C171.33 287.363 171.218 287.129 171.046 286.92C170.874 286.707 170.647 286.538 170.366 286.413C170.09 286.282 169.759 286.217 169.374 286.217C168.858 286.217 168.424 286.327 168.069 286.545C167.715 286.759 167.538 287.045 167.538 287.405C167.538 287.691 167.653 287.933 167.882 288.131C168.111 288.329 168.504 288.488 169.062 288.608L171.233 289.045C172.4 289.285 173.27 289.67 173.843 290.202C174.416 290.733 174.702 291.431 174.702 292.295C174.702 293.082 174.47 293.772 174.007 294.366C173.549 294.959 172.918 295.423 172.116 295.756C171.319 296.084 170.4 296.249 169.358 296.249C167.77 296.249 166.504 295.918 165.562 295.256C164.624 294.59 164.075 293.683 163.913 292.538L167.187 292.366C167.285 292.85 167.525 293.22 167.905 293.475C168.285 293.725 168.772 293.85 169.366 293.85C169.95 293.85 170.418 293.738 170.772 293.514C171.132 293.285 171.314 292.991 171.319 292.631C171.314 292.329 171.187 292.082 170.937 291.889C170.687 291.691 170.301 291.54 169.78 291.436L167.702 291.022C166.53 290.788 165.658 290.381 165.085 289.803C164.517 289.225 164.233 288.488 164.233 287.592C164.233 286.821 164.442 286.157 164.858 285.6C165.28 285.043 165.871 284.613 166.632 284.311C167.397 284.009 168.293 283.858 169.319 283.858C170.835 283.858 172.028 284.178 172.897 284.819C173.772 285.459 174.283 286.332 174.429 287.436ZM176.798 296.014V284.014H180.126V296.014H176.798ZM178.47 282.467C177.975 282.467 177.55 282.303 177.196 281.975C176.847 281.642 176.673 281.243 176.673 280.78C176.673 280.321 176.847 279.928 177.196 279.6C177.55 279.267 177.975 279.1 178.47 279.1C178.965 279.1 179.386 279.267 179.735 279.6C180.09 279.928 180.267 280.321 180.267 280.78C180.267 281.243 180.09 281.642 179.735 281.975C179.386 282.303 178.965 282.467 178.47 282.467ZM186.12 289.077V296.014H182.792V284.014H185.964V286.131H186.104C186.37 285.433 186.815 284.881 187.44 284.475C188.065 284.064 188.823 283.858 189.714 283.858C190.547 283.858 191.274 284.04 191.894 284.405C192.513 284.769 192.995 285.29 193.339 285.967C193.683 286.639 193.854 287.441 193.854 288.374V296.014H190.526V288.967C190.532 288.233 190.344 287.66 189.964 287.249C189.584 286.832 189.06 286.624 188.394 286.624C187.946 286.624 187.55 286.72 187.206 286.913C186.868 287.105 186.602 287.387 186.409 287.756C186.222 288.121 186.125 288.561 186.12 289.077ZM201.946 296.249C200.712 296.249 199.649 295.999 198.759 295.499C197.873 294.993 197.191 294.28 196.712 293.358C196.233 292.431 195.993 291.334 195.993 290.069C195.993 288.834 196.233 287.751 196.712 286.819C197.191 285.887 197.866 285.16 198.735 284.639C199.61 284.118 200.636 283.858 201.813 283.858C202.605 283.858 203.342 283.986 204.024 284.241C204.712 284.491 205.311 284.868 205.821 285.374C206.337 285.879 206.738 286.514 207.024 287.28C207.311 288.04 207.454 288.931 207.454 289.952V290.866H197.321V288.803H204.321C204.321 288.324 204.217 287.9 204.009 287.53C203.8 287.16 203.511 286.871 203.142 286.663C202.777 286.449 202.353 286.342 201.868 286.342C201.363 286.342 200.915 286.459 200.524 286.694C200.139 286.923 199.837 287.233 199.618 287.624C199.399 288.009 199.287 288.439 199.282 288.913V290.874C199.282 291.467 199.392 291.98 199.61 292.413C199.834 292.845 200.149 293.178 200.556 293.413C200.962 293.647 201.444 293.764 202.001 293.764C202.371 293.764 202.709 293.712 203.017 293.608C203.324 293.504 203.587 293.347 203.806 293.139C204.024 292.931 204.191 292.676 204.306 292.374L207.384 292.577C207.228 293.316 206.907 293.962 206.423 294.514C205.944 295.061 205.324 295.488 204.563 295.795C203.808 296.097 202.936 296.249 201.946 296.249ZM219.61 287.436L216.563 287.624C216.511 287.363 216.399 287.129 216.228 286.92C216.056 286.707 215.829 286.538 215.548 286.413C215.272 286.282 214.941 286.217 214.556 286.217C214.04 286.217 213.605 286.327 213.251 286.545C212.897 286.759 212.72 287.045 212.72 287.405C212.72 287.691 212.834 287.933 213.063 288.131C213.293 288.329 213.686 288.488 214.243 288.608L216.415 289.045C217.582 289.285 218.451 289.67 219.024 290.202C219.597 290.733 219.884 291.431 219.884 292.295C219.884 293.082 219.652 293.772 219.188 294.366C218.73 294.959 218.1 295.423 217.298 295.756C216.501 296.084 215.582 296.249 214.54 296.249C212.951 296.249 211.686 295.918 210.743 295.256C209.806 294.59 209.256 293.683 209.095 292.538L212.368 292.366C212.467 292.85 212.707 293.22 213.087 293.475C213.467 293.725 213.954 293.85 214.548 293.85C215.131 293.85 215.6 293.738 215.954 293.514C216.313 293.285 216.496 292.991 216.501 292.631C216.496 292.329 216.368 292.082 216.118 291.889C215.868 291.691 215.483 291.54 214.962 291.436L212.884 291.022C211.712 290.788 210.84 290.381 210.267 289.803C209.699 289.225 209.415 288.488 209.415 287.592C209.415 286.821 209.623 286.157 210.04 285.6C210.462 285.043 211.053 284.613 211.813 284.311C212.579 284.009 213.475 283.858 214.501 283.858C216.017 283.858 217.209 284.178 218.079 284.819C218.954 285.459 219.465 286.332 219.61 287.436ZM231.964 287.436L228.917 287.624C228.865 287.363 228.753 287.129 228.581 286.92C228.409 286.707 228.183 286.538 227.901 286.413C227.625 286.282 227.295 286.217 226.909 286.217C226.394 286.217 225.959 286.327 225.604 286.545C225.25 286.759 225.073 287.045 225.073 287.405C225.073 287.691 225.188 287.933 225.417 288.131C225.646 288.329 226.039 288.488 226.597 288.608L228.769 289.045C229.935 289.285 230.805 289.67 231.378 290.202C231.951 290.733 232.237 291.431 232.237 292.295C232.237 293.082 232.006 293.772 231.542 294.366C231.084 294.959 230.453 295.423 229.651 295.756C228.854 296.084 227.935 296.249 226.894 296.249C225.305 296.249 224.039 295.918 223.097 295.256C222.159 294.59 221.61 293.683 221.448 292.538L224.722 292.366C224.821 292.85 225.06 293.22 225.44 293.475C225.821 293.725 226.308 293.85 226.901 293.85C227.485 293.85 227.953 293.738 228.308 293.514C228.667 293.285 228.849 292.991 228.854 292.631C228.849 292.329 228.722 292.082 228.472 291.889C228.222 291.691 227.836 291.54 227.315 291.436L225.237 291.022C224.065 290.788 223.193 290.381 222.62 289.803C222.052 289.225 221.769 288.488 221.769 287.592C221.769 286.821 221.977 286.157 222.394 285.6C222.815 285.043 223.407 284.613 224.167 284.311C224.933 284.009 225.828 283.858 226.854 283.858C228.37 283.858 229.563 284.178 230.433 284.819C231.308 285.459 231.818 286.332 231.964 287.436Z" fill="black"/>
<path d="M56.1074 102.008V99.219H69.248V102.008H64.3496V115.219H61.0059V102.008H56.1074ZM75.0781 115.453C73.8438 115.453 72.7813 115.203 71.8906 114.703C71.0052 114.198 70.3229 113.485 69.8437 112.563C69.3646 111.636 69.125 110.539 69.125 109.274C69.125 108.039 69.3646 106.956 69.8437 106.024C70.3229 105.091 70.9974 104.365 71.8672 103.844C72.7422 103.323 73.7682 103.063 74.9453 103.063C75.737 103.063 76.474 103.19 77.1563 103.446C77.8438 103.696 78.4427 104.073 78.9531 104.578C79.4688 105.084 79.8698 105.719 80.1563 106.485C80.4427 107.245 80.5859 108.136 80.5859 109.156V110.071H70.4531V108.008H77.4531C77.4531 107.529 77.349 107.104 77.1406 106.735C76.9323 106.365 76.6432 106.076 76.2734 105.867C75.9089 105.654 75.4844 105.547 75 105.547C74.4948 105.547 74.0469 105.664 73.6563 105.899C73.2708 106.128 72.9688 106.438 72.75 106.828C72.5313 107.214 72.4193 107.643 72.4141 108.117V110.078C72.4141 110.672 72.5234 111.185 72.7422 111.617C72.9661 112.05 73.2813 112.383 73.6875 112.617C74.0938 112.852 74.5755 112.969 75.1328 112.969C75.5026 112.969 75.8411 112.917 76.1484 112.813C76.4557 112.709 76.7188 112.552 76.9375 112.344C77.1563 112.136 77.3229 111.88 77.4375 111.578L80.5156 111.781C80.3594 112.521 80.0391 113.167 79.5547 113.719C79.0755 114.266 78.4557 114.693 77.6953 115C76.9401 115.302 76.0677 115.453 75.0781 115.453ZM88.1797 115.453C86.9505 115.453 85.8932 115.193 85.0078 114.672C84.1276 114.146 83.4505 113.417 82.9766 112.485C82.5078 111.552 82.2734 110.479 82.2734 109.266C82.2734 108.037 82.5104 106.959 82.9844 106.031C83.4635 105.099 84.1432 104.373 85.0234 103.852C85.9036 103.326 86.9505 103.063 88.1641 103.063C89.2109 103.063 90.1276 103.253 90.9141 103.633C91.7005 104.013 92.3229 104.547 92.7813 105.235C93.2396 105.922 93.4922 106.729 93.5391 107.656H90.3984C90.3099 107.058 90.0755 106.576 89.6953 106.211C89.3203 105.841 88.8281 105.656 88.2188 105.656C87.7031 105.656 87.2526 105.797 86.8672 106.078C86.487 106.354 86.1901 106.758 85.9766 107.289C85.763 107.821 85.6563 108.464 85.6563 109.219C85.6563 109.985 85.7604 110.636 85.9688 111.172C86.1823 111.709 86.4818 112.117 86.8672 112.399C87.2526 112.68 87.7031 112.821 88.2188 112.821C88.599 112.821 88.9401 112.742 89.2422 112.586C89.5495 112.43 89.8021 112.203 90 111.906C90.2031 111.604 90.3359 111.242 90.3984 110.821H93.5391C93.487 111.737 93.237 112.545 92.7891 113.242C92.3464 113.935 91.7344 114.477 90.9531 114.867C90.1719 115.258 89.2474 115.453 88.1797 115.453ZM98.998 108.281V115.219H95.6699V99.219H98.9043V105.336H99.0449C99.3158 104.628 99.7533 104.073 100.357 103.672C100.962 103.266 101.719 103.063 102.631 103.063C103.464 103.063 104.191 103.245 104.811 103.61C105.436 103.969 105.92 104.487 106.264 105.164C106.613 105.836 106.785 106.641 106.779 107.578V115.219H103.451V108.172C103.456 107.433 103.269 106.857 102.889 106.446C102.514 106.034 101.988 105.828 101.311 105.828C100.857 105.828 100.456 105.925 100.107 106.117C99.7637 106.31 99.4928 106.591 99.2949 106.961C99.1022 107.326 99.0033 107.766 98.998 108.281Z" fill="black"/>
<path d="M276.551 99.2187H279.934V109.609C279.934 110.776 279.655 111.797 279.098 112.672C278.546 113.547 277.772 114.229 276.777 114.719C275.783 115.203 274.624 115.445 273.301 115.445C271.973 115.445 270.811 115.203 269.816 114.719C268.822 114.229 268.048 113.547 267.496 112.672C266.944 111.797 266.668 110.776 266.668 109.609V99.2187H270.051V109.32C270.051 109.93 270.184 110.471 270.449 110.945C270.72 111.419 271.1 111.792 271.59 112.063C272.079 112.333 272.65 112.469 273.301 112.469C273.957 112.469 274.527 112.333 275.012 112.063C275.501 111.792 275.879 111.419 276.145 110.945C276.415 110.471 276.551 109.93 276.551 109.32V99.2187ZM285.889 99.2187L289.115 104.672H289.24L292.482 99.2187H296.303L291.42 107.219L296.412 115.219H292.521L289.24 109.758H289.115L285.834 115.219H281.959L286.967 107.219L282.053 99.2187H285.889Z" fill="black"/>
<path d="M198.348 156.413L355.258 284.293" stroke="black" stroke-width="3" stroke-linecap="round"/>
</svg>
