<svg width="61" height="50" viewBox="0 0 61 50" fill="none" xmlns="http://www.w3.org/2000/svg">
<path d="M55.7851 17.3619C55.5963 17.3619 55.4246 17.2541 55.3392 17.0857C54.0904 14.6213 52.3287 12.3801 50.1463 10.4713C49.1839 9.6296 48.3358 8.49122 48.6674 7.25641C48.8409 6.6104 49.1609 6.00045 49.609 5.46169C49.9983 4.92378 50.2145 4.30611 50.2354 3.67221C50.2564 3.03831 50.0812 2.41107 49.7281 1.85491C49.3749 1.29875 48.8565 0.833765 48.2261 0.507762C47.5956 0.181759 46.8759 0.00650284 46.1409 0C45.9728 0 45.8048 0.0120019 45.6287 0.0274523C44.9931 0.0780833 44.3656 0.16563 43.7501 0.288465C38.7948 1.27732 33.6717 2.97842 28.6186 2.9836C21.2418 2.91928 14.0902 5.17447 8.49993 9.32774C5.86135 11.2547 3.73599 13.6504 2.26902 16.3511C0.802055 19.0518 0.0281111 21.9939 1.05312e-05 24.9764C-0.00169577 26.5034 0.203949 28.0254 0.612804 29.5111C0.642489 29.6616 0.704076 29.8041 0.74837 29.951C1.17661 31.3713 1.78095 32.7478 2.55076 34.0569C3.73724 36.3892 5.37035 38.5324 7.3817 40.3967C9.02346 41.9317 9.98403 43.9178 10.0937 46.0043V46.6696C10.0916 46.763 10.0992 46.8563 10.1166 46.9486C10.2298 47.7809 10.6909 48.5491 11.4136 49.1091C12.1362 49.6691 13.071 49.9825 14.0423 49.9906H23.1142C24.0849 49.9876 25.0207 49.6774 25.7439 49.1187C26.1309 48.8197 26.4427 48.4608 26.6658 48.0641C26.9914 47.4853 27.5517 46.9832 28.2157 46.991C28.8661 46.9987 29.3963 47.4929 29.7126 48.0611C29.9377 48.4654 30.2546 48.8309 30.6491 49.134C31.3713 49.689 32.3036 49.9969 33.2706 50H42.3415C43.3914 49.9964 44.3968 49.6336 45.1371 48.9912C45.8773 48.3488 46.2919 47.4793 46.29 46.5734V44.6662C46.4255 43.1835 47.2271 41.8051 48.5236 40.825L48.9763 40.4817C51.8498 38.2686 54.1025 35.5219 55.5656 32.4492C55.6081 32.3598 55.698 32.3025 55.797 32.3025C57.1804 32.2977 58.5051 31.8196 59.4805 30.9732C60.4559 30.1268 61.0024 28.9811 61 27.7875V21.9077C60.999 20.7104 60.451 19.5616 59.4747 18.7106C58.4984 17.8596 57.1728 17.375 55.7851 17.3619ZM33.4203 43.1194C33.4207 43.1184 33.4203 43.1173 33.4195 43.1166C32.9699 42.7612 32.382 42.5641 31.7722 42.5641C31.6723 42.5631 31.5727 42.5695 31.474 42.583C29.2966 42.777 27.1002 42.7482 24.9307 42.4971C24.579 42.4535 24.2205 42.4771 23.8805 42.566C23.5405 42.655 23.2272 42.8073 22.9629 43.0121C22.7003 43.2131 22.4901 43.4596 22.3459 43.7357C22.2017 44.0117 22.127 44.311 22.1264 44.6138C22.1264 45.2135 21.6402 45.6996 21.0405 45.6996H18.4505C16.5103 45.6996 14.957 44.1543 14.2737 42.3384C13.5871 40.5139 12.4431 38.8269 10.9045 37.4045C9.27801 35.8842 7.95425 34.1423 6.98677 32.2492L6.92191 32.1099C6.91406 32.0931 6.90295 32.078 6.88922 32.0654C6.8787 32.0558 6.86969 32.0447 6.86253 32.0324C6.26082 30.9969 5.78975 29.9086 5.45765 28.7863C5.45097 28.7637 5.44763 28.7401 5.44763 28.7165C5.44763 28.6755 5.43729 28.6347 5.41757 28.5987C5.40849 28.5821 5.40135 28.5646 5.39636 28.5463C5.07717 27.3811 4.91673 26.1875 4.91838 24.9901C4.91838 15.2143 15.5475 7.26165 28.6118 7.26165C31.3766 7.25858 34.1254 7.62311 36.7615 8.34234C37.2686 8.48184 37.8145 8.47527 38.3169 8.32369C38.8194 8.17212 39.2512 7.88375 39.5471 7.50201C41.0096 5.68325 43.2189 8.04711 43.8185 10.3026C43.8381 10.3764 43.8588 10.45 43.8807 10.5234C43.8912 10.5645 43.8982 10.6065 43.9038 10.6486C43.939 10.9119 44.0316 11.1674 44.1765 11.4016C44.333 11.6545 44.5473 11.8773 44.8068 12.0564C47.8727 14.1575 50.171 16.9772 51.4256 20.1773C51.5851 20.6072 51.899 20.9821 52.322 21.2477C52.7451 21.5133 53.2552 21.6558 53.7784 21.6545H55.7761C55.8125 21.6547 55.8486 21.6609 55.8822 21.6731C55.9158 21.6852 55.9464 21.703 55.9721 21.7253C55.9978 21.7476 56.018 21.7741 56.0318 21.8032C56.0457 21.8323 56.0526 21.8635 56.0525 21.8949V27.6561C56.0525 27.763 56.0428 27.8828 55.9531 27.941C55.9055 27.9719 55.8476 27.9888 55.788 27.9892H53.8879C53.3588 27.9895 52.8438 28.1367 52.4192 28.4091C51.9946 28.6815 51.6827 29.0646 51.53 29.5016C50.4154 32.527 48.3655 35.2327 45.6007 37.3273L45.2257 37.6088C44.0722 38.4929 43.1353 39.5672 42.4705 40.7685C41.8057 41.9698 41.4263 43.2738 41.3547 44.6035C41.3547 45.2089 40.8639 45.6996 40.2586 45.6996H35.2393C34.6866 45.6996 34.2385 45.2515 34.2385 44.6988C34.2379 44.401 34.1648 44.1066 34.0237 43.8348C33.8829 43.5635 33.6776 43.3208 33.4212 43.1223C33.4203 43.1216 33.4199 43.1205 33.4203 43.1194Z" fill="#FFC603"/>
<path d="M35.7131 30.7128V27.0048C35.7131 24.9688 33.4011 23.434 30.3349 23.434H27.7891C27.3767 23.4364 27.0927 23.0629 27.0927 22.6506V21.1283C27.0927 20.7157 27.3764 20.3415 27.7891 20.3439H33.3751C33.9989 20.3439 34.5971 20.1301 35.0381 19.7496C35.4792 19.369 35.7269 18.8529 35.7269 18.3148C35.7269 17.7766 35.4792 17.2605 35.0381 16.8799C34.5971 16.4994 33.9989 16.2856 33.3751 16.2856C32.856 16.2856 32.4352 15.8648 32.4352 15.3457V13.3526C32.4352 12.8176 32.1887 12.3046 31.7502 11.9263C31.3118 11.548 30.7172 11.3355 30.0972 11.3355C29.4771 11.3355 28.8825 11.548 28.4441 11.9263C28.0057 12.3046 27.7592 12.8176 27.7592 13.3526C27.7592 14.9746 26.3923 16.2024 24.8912 16.8167C23.3794 17.4352 22.4131 18.5424 22.4131 19.8555V23.9215C22.4131 25.9567 24.725 27.4914 27.7852 27.4914H30.3311C30.747 27.4876 31.0332 27.8648 31.0332 28.2807V29.4386C31.0332 29.8545 30.7469 30.2315 30.3311 30.2279H24.746C24.1307 30.2388 23.5449 30.4574 23.1143 30.8366C22.6837 31.2159 22.4425 31.7257 22.4425 32.2566C22.4425 32.7875 22.6837 33.2973 23.1143 33.6766C23.5449 34.0558 24.1307 34.2744 24.746 34.2853C26.4074 34.2853 27.7543 35.6322 27.7543 37.2937V37.5471C27.7543 37.812 27.8149 38.0743 27.9324 38.319C28.0498 38.5637 28.2219 38.7861 28.439 38.9734C28.6561 39.1607 28.9139 39.3093 29.1975 39.4106C29.4812 39.512 29.7853 39.5642 30.0923 39.5642C30.3993 39.5642 30.7032 39.512 30.9868 39.4106C31.2705 39.3093 31.5283 39.1607 31.7454 38.9734C31.9625 38.7861 32.1345 38.5637 32.252 38.319C32.3695 38.0743 32.4301 37.812 32.4301 37.5471V36.6317C32.4301 35.1179 33.6497 33.9175 34.7161 32.8429C35.3088 32.2457 35.6588 31.4977 35.7131 30.7128Z" fill="#FFC603"/>
</svg>
