<svg width="490" height="263" viewBox="0 0 490 263" fill="none" xmlns="http://www.w3.org/2000/svg">
<path d="M198.712 225.594C250.907 225.594 293.219 182.985 293.219 130.423C293.219 77.8619 250.907 35.2524 198.712 35.2524C146.517 35.2524 104.205 77.8619 104.205 130.423C104.205 182.985 146.517 225.594 198.712 225.594Z" stroke="#410EAD" stroke-width="3" stroke-linecap="round" stroke-linejoin="round"/>
<path d="M198.712 7.31787V260.625" stroke="#410EAD" stroke-width="3" stroke-linecap="round" stroke-linejoin="round"/>
<path d="M67.877 130.423H333.391" stroke="#410EAD" stroke-width="3" stroke-linecap="round" stroke-linejoin="round"/>
<path d="M154.991 250.163L164.254 250.407" stroke="#410EAD" stroke-width="3" stroke-linecap="round" stroke-linejoin="round"/>
<path d="M168.479 240.242L173.986 236.179L173.813 256.423" stroke="#410EAD" stroke-width="3" stroke-linecap="round" stroke-linejoin="round"/>
<path d="M58.3708 155.393L67.6346 155.619" stroke="#410EAD" stroke-width="3" stroke-linecap="round" stroke-linejoin="round"/>
<path d="M71.8596 145.471L77.3659 141.339L77.262 161.636" stroke="#410EAD" stroke-width="3" stroke-linecap="round" stroke-linejoin="round"/>
<path d="M325.132 147.651L330.638 143.588L330.448 163.833" stroke="#410EAD" stroke-width="3" stroke-linecap="round" stroke-linejoin="round"/>
<path d="M179.596 7.07402L185.102 3.01123L184.912 23.2381" stroke="#410EAD" stroke-width="3" stroke-linecap="round" stroke-linejoin="round"/>
<path d="M339.78 138.357L347.78 148.802" stroke="#410EAD" stroke-width="3" stroke-linecap="round" stroke-linejoin="round"/>
<path d="M347.78 137.433L339.78 150.232" stroke="#410EAD" stroke-width="3" stroke-linecap="round" stroke-linejoin="round"/>
<path d="M209.465 2.62776C209.465 2.62776 209.015 10.701 213.759 10.3349C218.504 9.9687 217.932 2 217.932 2C217.932 2 222.123 14.0141 217.932 16.6645C213.742 19.3149 210.106 16.7517 209.933 14.5546" stroke="#410EAD" stroke-width="3" stroke-linecap="round" stroke-linejoin="round"/>
<path d="M198.712 130.423L275.783 54.2583" stroke="#410EAD" stroke-width="3" stroke-linecap="round" stroke-linejoin="round"/>
<path d="M193.881 12.1315L198.712 6.77832L203.872 12.1315" stroke="#410EAD" stroke-width="3" stroke-linecap="round" stroke-linejoin="round"/>
<path d="M330.24 124.32L335.573 130.423L330.24 135.061" stroke="#410EAD" stroke-width="3" stroke-linecap="round" stroke-linejoin="round"/>
<path d="M301.652 118.775L307.366 97.3276L314.015 118.775" stroke="#410EAD" stroke-width="3" stroke-linecap="round" stroke-linejoin="round"/>
<path d="M300.076 110.005H314.015" stroke="#410EAD" stroke-width="3" stroke-linecap="round" stroke-linejoin="round"/>
<path d="M262.692 47.8764L260.459 26.8474C260.459 26.8474 269.29 25.2607 268.701 30.9625C268.389 34.1012 262.848 35.252 262.848 35.252C262.848 35.252 273.03 34.415 273.463 40.8493C273.982 48.8703 257.29 44.0403 257.29 44.0403" stroke="#410EAD" stroke-width="3" stroke-linecap="round" stroke-linejoin="round"/>
<path d="M219.803 100.989C219.803 100.989 239.473 108.957 236.252 130.422" stroke="#410EAD" stroke-width="3" stroke-linecap="round" stroke-linejoin="round"/>
<path d="M241.862 101.722C247.541 103.309 246.554 109.325 242.433 111.539C241.412 112.08 239.871 112.272 239.386 111.208C239.127 110.359 239.199 109.442 239.589 108.645C239.978 107.848 240.655 107.23 241.481 106.918C244.078 105.959 248.286 109.551 249.931 112.446" stroke="#410EAD" stroke-width="3" stroke-linecap="round" stroke-linejoin="round"/>
<path d="M286.952 39.7686C285.42 41.973 284.521 44.5598 284.353 47.2451C284.185 49.9304 284.754 52.6104 285.999 54.9911" stroke="#410EAD" stroke-width="3" stroke-linecap="round" stroke-linejoin="round"/>
<path d="M292.838 41.46C295.343 45.197 297.655 49.0615 299.764 53.0381" stroke="#410EAD" stroke-width="3" stroke-linecap="round" stroke-linejoin="round"/>
<path d="M300.856 41.8086L292.925 53.038" stroke="#410EAD" stroke-width="3" stroke-linecap="round" stroke-linejoin="round"/>
<path d="M306.604 53.0371C306.154 54.5447 305.847 56.092 305.686 57.658" stroke="#410EAD" stroke-width="3" stroke-linecap="round" stroke-linejoin="round"/>
<path d="M311.747 42.2271C310.795 51.2245 318.344 51.2769 319.193 41.8086C318.431 46.133 321.409 53.8227 318.604 56.6126C316.336 58.8619 313.028 57.8855 312.128 54.3283" stroke="#410EAD" stroke-width="3" stroke-linecap="round" stroke-linejoin="round"/>
<path d="M323.296 35.4961C326.246 38.4201 327.974 42.3687 328.127 46.5337C328.099 48.379 327.69 50.1983 326.927 51.8762C326.164 53.5541 325.063 55.0541 323.694 56.281" stroke="#410EAD" stroke-width="3" stroke-linecap="round" stroke-linejoin="round"/>
<path d="M306.137 45.3301L305.808 45.9404" stroke="#410EAD" stroke-width="3" stroke-linecap="round" stroke-linejoin="round"/>
<path d="M16.4327 207.6C8.98711 217.765 9.88751 233.511 15.7228 242.962" stroke="#410EAD" stroke-width="3" stroke-linecap="round" stroke-linejoin="round"/>
<path d="M41.1425 214.871C34.9782 210.738 28.0347 212.011 25.5586 218.829C23.0825 225.647 25.4028 234.888 30.632 236.266C34.9436 237.451 44.0688 235.987 43.5147 216.858C44.7619 222.719 45.3428 228.704 45.2462 234.696" stroke="#410EAD" stroke-width="3" stroke-linecap="round" stroke-linejoin="round"/>
<path d="M49.5576 206.187C61.0897 215.864 62.3364 231.854 54.6483 243.85" stroke="#410EAD" stroke-width="3" stroke-linecap="round" stroke-linejoin="round"/>
<path d="M71.219 223.991C71.219 223.991 78.4222 223.991 82.093 223.66" stroke="#410EAD" stroke-width="3" stroke-linecap="round" stroke-linejoin="round"/>
<path d="M71.5308 231.854C74.2493 231.714 78.6993 231.557 81.4352 231.418" stroke="#410EAD" stroke-width="3" stroke-linecap="round" stroke-linejoin="round"/>
<path d="M94.4563 214.121L99.6509 209.326L99.2527 237.766" stroke="#410EAD" stroke-width="3" stroke-linecap="round" stroke-linejoin="round"/>
<path d="M28.6752 63.0297C25.8874 54.7472 18.0781 53.8579 13.2818 54.8518C8.48543 55.8457 0.589623 64.1806 2.21727 74.2591C4.81457 90.3709 19.3422 92.847 25.5411 85.1224C29.0042 80.8329 30.7357 74.8346 29.7314 66.3776C31.2032 73.9104 30.6837 83.8146 32.6231 86.8661" stroke="#410EAD" stroke-width="3" stroke-linecap="round" stroke-linejoin="round"/>
<path d="M35.9647 43.936C35.9595 47.1803 36.191 50.4207 36.6573 53.6309C35.7396 50.5446 37.4884 41.582 42.3714 41.5122C48.1893 41.425 47.2024 53.038 47.2024 53.038" stroke="#410EAD" stroke-width="3" stroke-linecap="round" stroke-linejoin="round"/>
<path d="M52.0857 46.1499C54.0872 46.3636 56.1109 46.18 58.0422 45.6094" stroke="#410EAD" stroke-width="3" stroke-linecap="round" stroke-linejoin="round"/>
<path d="M61.8167 41.2155L62.6478 51.9393C62.6478 49.3761 64.1888 40.7971 68.3272 40.5355C72.4656 40.274 73.7989 51.9393 73.7989 51.9393C73.7989 50.8059 73.3487 39.6288 77.4871 39.6114C81.6254 39.5939 83.0972 49.7248 83.0972 51.4685" stroke="#410EAD" stroke-width="3" stroke-linecap="round" stroke-linejoin="round"/>
<path d="M313.08 195.968C312.293 195.145 311.337 194.506 310.277 194.097C309.218 193.687 308.083 193.517 306.951 193.598C305.819 193.68 304.719 194.011 303.729 194.568C302.738 195.125 301.881 195.895 301.219 196.823C298.864 200.153 300.371 208.837 303.505 210.423C307.643 212.516 314.136 210.929 313.721 197.363C314.033 201.677 314.829 205.941 316.093 210.075" stroke="#410EAD" stroke-width="3" stroke-linecap="round" stroke-linejoin="round"/>
<path d="M317.27 187.843C317.27 180.084 328.369 183.937 317.27 194.312C318.444 194.816 319.73 194.996 320.996 194.834C322.262 194.671 323.462 194.172 324.473 193.388" stroke="#410EAD" stroke-width="3" stroke-linecap="round" stroke-linejoin="round"/>
<path d="M339.867 193.98C340.328 198.149 340.53 202.342 340.473 206.535" stroke="#410EAD" stroke-width="3" stroke-linecap="round" stroke-linejoin="round"/>
<path d="M334.984 200.415L345.183 200.171" stroke="#410EAD" stroke-width="3" stroke-linecap="round" stroke-linejoin="round"/>
<path d="M350.377 182.856C350.503 190.585 351.134 198.297 352.264 205.942C352.593 202.089 353.338 197.555 356.784 195.847C357.603 195.496 358.492 195.339 359.381 195.388C360.27 195.438 361.136 195.692 361.913 196.132C362.689 196.571 363.354 197.185 363.858 197.924C364.362 198.664 364.69 199.51 364.818 200.398C365.164 209.447 357.597 212.97 352.94 207.477" stroke="#410EAD" stroke-width="3" stroke-linecap="round" stroke-linejoin="round"/>
<path d="M368.386 186.343C367.658 184.198 368.386 182.228 369.13 181.931C369.875 181.635 370.983 182.489 371.398 183.414C372.714 186.326 370.325 190.022 368.091 192.289C370.527 192.346 372.954 191.969 375.26 191.173" stroke="#410EAD" stroke-width="3" stroke-linecap="round" stroke-linejoin="round"/>
<path d="M381.493 197.712C384.018 197.17 386.601 196.947 389.181 197.05" stroke="#410EAD" stroke-width="3" stroke-linecap="round" stroke-linejoin="round"/>
<path d="M382.29 202.559H389.216" stroke="#410EAD" stroke-width="3" stroke-linecap="round" stroke-linejoin="round"/>
<path d="M414.514 197.503C409.804 189.709 402.808 192.586 401.769 200.851C400.731 209.116 412.02 212.813 414.791 207.233" stroke="#410EAD" stroke-width="3" stroke-linecap="round" stroke-linejoin="round"/>
<path d="M421.457 188.524C421.752 182.316 427.76 181.287 427.604 187.268C427.518 190.564 421.146 196.475 421.527 196.98C421.7 197.19 429.024 197.155 429.024 197.155" stroke="#410EAD" stroke-width="3" stroke-linecap="round" stroke-linejoin="round"/>
<path d="M391.432 140.868C389.701 134.747 382.047 137.694 381.649 145.053C381.251 152.411 388.073 155.707 393.25 151.225" stroke="#410EAD" stroke-width="3" stroke-linecap="round" stroke-linejoin="round"/>
<path d="M401.181 139.316C391.433 140.868 393.978 155.69 404.281 151.766C407.016 150.72 407.657 146.657 406.514 143.937C405.897 142.595 404.885 141.477 403.615 140.734C402.345 139.992 400.878 139.661 399.415 139.787" stroke="#410EAD" stroke-width="3" stroke-linecap="round" stroke-linejoin="round"/>
<path d="M423.864 140.484C415.795 132.567 411.743 142.559 418.34 144.163C424.66 145.697 425.509 149.987 422.756 152.428C419.189 155.584 413.024 152.428 413.024 149.237" stroke="#410EAD" stroke-width="3" stroke-linecap="round" stroke-linejoin="round"/>
<path d="M446.755 135.236C447.378 140.014 445.387 153.127 437.734 153.65C430.08 154.173 430.669 143.693 436.435 142.019C441.387 140.59 447.794 151.784 449.179 154.225" stroke="#410EAD" stroke-width="3" stroke-linecap="round" stroke-linejoin="round"/>
<path d="M457.889 142.733C460.086 142.972 462.305 142.913 464.486 142.559" stroke="#410EAD" stroke-width="3" stroke-linecap="round" stroke-linejoin="round"/>
<path d="M456.729 148.888C459.579 148.903 462.428 148.769 465.265 148.487" stroke="#410EAD" stroke-width="3" stroke-linecap="round" stroke-linejoin="round"/>
<path d="M475.654 136.16L487.982 153.754" stroke="#410EAD" stroke-width="3" stroke-linecap="round" stroke-linejoin="round"/>
<path d="M488 135.707L475.291 153.423" stroke="#410EAD" stroke-width="3" stroke-linecap="round" stroke-linejoin="round"/>
<path d="M180.011 157.695C183.521 157.695 186.366 153.581 186.366 148.506C186.366 143.431 183.521 139.316 180.011 139.316C176.502 139.316 173.657 143.431 173.657 148.506C173.657 153.581 176.502 157.695 180.011 157.695Z" stroke="#410EAD" stroke-width="3" stroke-linecap="round" stroke-linejoin="round"/>
</svg>
