<svg width="46" height="46" viewBox="0 0 46 46" fill="none" xmlns="http://www.w3.org/2000/svg">
<path fill-rule="evenodd" clip-rule="evenodd" d="M13.652 0.0544652C12.9732 0.277399 12.3266 0.853177 12.0731 1.46026C11.8604 1.96965 11.8715 2.80407 12.0978 3.31256C12.3162 3.80341 12.7802 4.29075 13.2344 4.50649L13.5627 4.66249L13.5681 5.5804C13.5772 7.13545 13.7098 7.56864 14.316 8.02215C14.5468 8.19488 14.7202 8.21081 16.827 8.25264L19.09 8.29762V9.90872V11.5197L17.0738 12.7651L15.0578 14.0104H12.1564C9.37992 14.0104 9.25104 14.003 9.16197 13.8364C9.10221 13.7246 9.06895 12.3534 9.06895 10.0026C9.06895 6.4779 9.06212 6.3308 8.88444 6.01422C8.78288 5.83348 8.55343 5.58499 8.37449 5.46219C8.06137 5.24717 7.98659 5.23773 6.37792 5.20957L4.70661 5.18033L4.54645 4.79258C4.34855 4.3136 3.83833 3.7847 3.3619 3.56455C2.91253 3.35691 1.9417 3.33991 1.48352 3.53153C1.04079 3.71668 0.470087 4.2473 0.234346 4.6929C-0.040312 5.21191 -0.0387841 6.25811 0.237401 6.78027C0.876501 7.98913 2.23586 8.44994 3.43083 7.86282C3.93998 7.61263 4.57521 6.9468 4.57521 6.66323C4.57521 6.56147 4.85553 6.54348 6.12555 6.56363L7.67589 6.58828L7.72083 10.3668C7.77152 14.6313 7.76829 14.6106 8.4694 15.0755C8.82683 15.3125 8.85056 15.3154 10.8218 15.3599L12.8131 15.4049L9.75425 17.2942C8.07188 18.3333 6.58059 19.2796 6.4402 19.3972C5.22519 20.415 5.81926 22.684 7.4229 23.1506C8.09453 23.346 8.56449 23.2193 9.65062 22.5496C10.1254 22.2568 10.5326 22.0173 10.5554 22.0173C10.5781 22.0173 10.5968 22.8224 10.5968 23.8065V25.5955L9.35224 25.6297C8.16742 25.6623 8.08932 25.676 7.72739 25.9158C7.17098 26.2844 7.00624 26.7127 7.00381 27.7976L7.00183 28.6748H5.84433H4.68693L4.56613 28.383C4.37928 27.9315 3.85693 27.4083 3.3619 27.1771C2.11408 26.5942 0.577668 27.2548 0.131259 28.5664C-0.485732 30.3791 1.21425 32.149 3.05723 31.6127C3.65022 31.4401 4.1972 30.9914 4.49154 30.4358L4.70975 30.0242H5.85575H7.00183V31.679C7.00183 33.1049 6.98215 33.3413 6.85965 33.3883C6.78146 33.4184 5.84928 33.4429 4.78813 33.4429C2.70033 33.4429 2.59392 33.4633 2.13187 33.9522C1.74847 34.3579 1.69922 34.6153 1.69922 36.2154V37.7165L1.28804 37.935C0.771618 38.2091 0.312447 38.7401 0.131259 39.2722C-0.505414 41.1427 1.28292 42.9384 3.14872 42.302C3.67592 42.1221 4.15648 41.7178 4.46296 41.1958C4.6774 40.8306 4.70984 40.6801 4.7085 40.0554C4.70724 39.4929 4.66446 39.2557 4.51275 38.9697C4.2824 38.5354 3.74612 38.0292 3.33665 37.8594L3.04302 37.7376L3.06765 36.2875L3.09228 34.8374L5.1594 34.7924C7.33401 34.7451 7.53371 34.7081 7.91981 34.281C8.32758 33.83 8.34995 33.6205 8.34995 30.2617C8.34995 27.4386 8.36622 27.0684 8.49214 27.02C8.57033 26.99 9.07587 26.9654 9.61557 26.9654H10.5968V32.3674V37.7694L10.8175 37.9902L11.038 38.2111H13.5152H15.9923L15.9684 40.5727L15.9444 42.9343L14.233 42.9586L12.5217 42.983L12.4101 42.674C12.2678 42.2801 11.7253 41.7189 11.267 41.4914C10.7757 41.2475 9.70131 41.2463 9.21248 41.4892C8.733 41.7273 8.27293 42.2075 8.05768 42.6947C7.8338 43.2014 7.8205 44.0544 8.02883 44.5536C8.21442 44.9984 8.72725 45.5407 9.20377 45.7962C9.71075 46.0679 10.7623 46.0679 11.2749 45.7962C11.716 45.5622 12.3667 44.8747 12.446 44.5589L12.5037 44.3287H14.2494C16.4226 44.3287 16.7517 44.2251 17.1672 43.4102C17.3218 43.107 17.3374 42.8533 17.3374 40.6437V38.2111H22.9996H28.6617V40.6437C28.6617 42.8533 28.6773 43.107 28.8319 43.4102C29.2474 44.2251 29.5765 44.3287 31.7497 44.3287H33.4954L33.5531 44.5589C33.6324 44.8747 34.2831 45.5622 34.7242 45.7962C35.2376 46.0684 36.2869 46.0678 36.8015 45.7951C37.2462 45.5594 37.7977 44.9649 37.9834 44.5213C38.1794 44.0527 38.1596 43.1884 37.9414 42.6947C37.7262 42.2075 37.2661 41.7273 36.7866 41.4892C36.2978 41.2463 35.2234 41.2475 34.7321 41.4914C34.2738 41.7189 33.7313 42.2801 33.5891 42.674L33.4774 42.983L31.7661 42.9586L30.0547 42.9343L30.0307 40.5727L30.0068 38.2111H32.484H34.9611L35.1816 37.9902L35.4023 37.7694V32.3674V26.9654H36.3835C36.9232 26.9654 37.4288 26.99 37.507 27.02C37.6329 27.0684 37.6492 27.4386 37.6492 30.2617C37.6492 33.6205 37.6715 33.83 38.0793 34.281C38.4654 34.7081 38.6651 34.7451 40.8397 34.7924L42.9068 34.8374L42.9315 36.2875L42.9561 37.7376L42.6625 37.8594C42.253 38.0292 41.7167 38.5354 41.4864 38.9697C41.3347 39.2557 41.2919 39.4929 41.2906 40.0554C41.2893 40.6801 41.3217 40.8306 41.5362 41.1958C42.3615 42.6013 44.1634 42.8546 45.2928 41.7241C46.1828 40.8331 46.2393 39.4596 45.4252 38.5075C45.2586 38.3127 44.9372 38.055 44.7111 37.935L44.2999 37.7165V36.2154C44.2999 34.6153 44.2506 34.3579 43.8672 33.9522C43.4052 33.4633 43.2988 33.4429 41.211 33.4429C40.1498 33.4429 39.2177 33.4184 39.1395 33.3883C39.017 33.3413 38.9973 33.1049 38.9973 31.679V30.0242H40.1434H41.2894L41.5076 30.4358C42.3246 31.9776 44.506 32.145 45.5233 30.744C46.6739 29.1594 45.5725 26.9672 43.6258 26.9672C42.7006 26.9672 41.7703 27.5678 41.433 28.383L41.3122 28.6748H40.1548H38.9973L38.9953 27.7976C38.9929 26.7127 38.8281 26.2844 38.2717 25.9158C37.9098 25.676 37.8317 25.6623 36.6469 25.6297L35.4023 25.5955V23.8065C35.4023 22.8224 35.4173 22.0173 35.4356 22.0173C35.454 22.0173 35.8633 22.258 36.3453 22.5522C36.8273 22.8464 37.3973 23.1245 37.6121 23.1704C39.3155 23.5341 40.7983 21.5356 39.9923 19.9623C39.7496 19.4887 39.5839 19.3605 37.739 18.2187C36.8246 17.6528 35.4162 16.7802 34.6094 16.2796L33.1425 15.3695L35.1555 15.3423C37.1642 15.315 37.1694 15.3144 37.5296 15.0755C38.2308 14.6107 38.2276 14.6314 38.2783 10.3668L38.3232 6.58828L39.8736 6.56363C41.1436 6.54348 41.4239 6.56147 41.4239 6.66323C41.4239 6.9468 42.0591 7.61263 42.5683 7.86282C43.7633 8.44994 45.1226 7.98913 45.7617 6.78027C46.0393 6.25541 46.0394 5.21209 45.7621 4.6875C45.5077 4.20654 44.855 3.63463 44.4071 3.50032C43.8797 3.34216 43.0543 3.3723 42.6299 3.56518C42.1537 3.78173 41.6563 4.29966 41.4537 4.79033L41.2925 5.18033L39.6281 5.20957C37.7352 5.24285 37.5081 5.31366 37.129 5.98885C36.9329 6.33809 36.9302 6.3927 36.9302 10.0026C36.9302 12.3534 36.8969 13.7246 36.8371 13.8364C36.7481 14.003 36.6191 14.0104 33.834 14.0104H30.9239L28.892 12.7445L26.86 11.4787L26.8846 9.88812L26.9091 8.29762L29.1633 8.25264L31.4173 8.20766L31.7473 7.95558C32.2832 7.54614 32.3669 7.28794 32.4171 5.89105L32.4617 4.65043L32.7774 4.50046C33.5616 4.128 34.0768 3.28152 34.0764 2.36648C34.076 1.69993 33.8848 1.2134 33.4431 0.755385C32.9054 0.19769 32.4974 0.0249566 31.7174 0.0249566C30.9375 0.0249566 30.5295 0.19769 29.9917 0.755385C29.554 1.20935 29.3596 1.69885 29.3542 2.35992C29.3467 3.27144 29.8712 4.12701 30.6701 4.50649L30.9984 4.66249V5.78282V6.90316L28.9987 6.9037C26.8542 6.90424 26.4884 6.95696 26.0459 7.32978C25.5942 7.71015 25.5161 8.0119 25.5161 9.37433C25.5161 10.0439 25.4919 10.5917 25.4623 10.5917C25.4327 10.5917 25.0489 10.369 24.6092 10.0968C23.2042 9.22679 22.7949 9.22679 21.3899 10.0968C20.9502 10.369 20.5664 10.5917 20.5368 10.5917C20.5072 10.5917 20.4831 10.0439 20.4831 9.37433C20.4831 8.0119 20.4049 7.71015 19.9532 7.32978C19.5107 6.95696 19.1449 6.90424 17.0004 6.9037L15.0007 6.90316V5.78282V4.66249L15.329 4.50649C15.782 4.29138 16.2474 3.80332 16.4613 3.31922C16.6852 2.81253 16.6985 1.95948 16.4902 1.46026C16.3031 1.0117 15.7868 0.468306 15.3179 0.226119C14.9305 0.0261262 14.023 -0.0673478 13.652 0.0544652ZM14.9665 1.60538C15.8992 2.48245 14.6378 3.98559 13.6601 3.16214C13.0696 2.66472 13.1882 1.70578 13.8773 1.40574C14.1674 1.27943 14.7295 1.38253 14.9665 1.60538ZM32.4023 1.60538C33.3349 2.48245 32.0735 3.98559 31.0958 3.16214C30.5053 2.66472 30.6239 1.70578 31.313 1.40574C31.6031 1.27943 32.1653 1.38253 32.4023 1.60538ZM3.10126 5.04988C3.51496 5.46399 3.52817 5.9489 3.13784 6.39387C2.82058 6.75562 2.4317 6.85944 2.03067 6.6895C1.56162 6.49076 1.38465 6.22429 1.38465 5.71679C1.38465 5.32472 1.42114 5.23638 1.67819 5.00651C1.91204 4.79735 2.05548 4.744 2.3837 4.744C2.73242 4.744 2.8426 4.79096 3.10126 5.04988ZM44.2307 4.92087C44.8936 5.44285 44.7252 6.40889 43.9179 6.71495C43.2775 6.95786 42.5923 6.43561 42.5923 5.70456C42.5923 5.42782 42.6554 5.2926 42.8979 5.04988C43.1541 4.79339 43.2681 4.744 43.6047 4.744C43.8676 4.744 44.0835 4.80499 44.2307 4.92087ZM30.9695 15.6177C39.1926 20.7052 39.0162 20.5813 38.869 21.1687C38.8367 21.2976 38.7126 21.5008 38.5933 21.6202C38.1611 22.0529 38.019 21.9924 34.771 19.9931C32.9681 18.8834 31.6851 18.1488 31.5496 18.1488C31.0432 18.1488 30.6942 18.911 31.0415 19.2586C31.1146 19.3319 31.8217 19.7902 32.6128 20.2772L34.0512 21.1627L34.0527 29.0121L34.0542 36.8616H30.6839H27.3135V32.19V27.5183L27.0767 27.3319C26.8456 27.1498 26.7487 27.1454 22.9996 27.1454C19.2504 27.1454 19.1535 27.1498 18.9224 27.3319L18.6856 27.5183V29.3111C18.6856 30.9839 18.6976 31.1159 18.8653 31.2838C19.133 31.5517 19.614 31.5237 19.8474 31.2266C20.0155 31.0127 20.0337 30.8679 20.0337 29.7422V28.4948H22.9996H25.9654V32.6782V36.8616H22.9996H20.0337V35.5531C20.0337 34.2836 20.0271 34.2379 19.813 34.0237C19.5586 33.7689 19.1803 33.7359 18.8854 33.9429C18.6936 34.0773 18.6856 34.1385 18.6856 35.4723V36.8616H15.3153H11.9449L11.9473 29.0121L11.9495 21.1627L15.2052 19.1446C16.9958 18.0347 19.4571 16.5064 20.6747 15.7484C21.8923 14.9904 22.9386 14.3703 22.9998 14.3703C23.0611 14.3703 24.2286 15.0658 25.5943 15.9158C26.9601 16.7659 28.1846 17.5019 28.3156 17.5515C28.7988 17.7344 29.3221 17.118 29.0895 16.6398C28.9501 16.3532 23.336 12.8482 23.0092 12.8438C22.8787 12.842 19.9948 14.5714 15.6844 17.2363C11.774 19.6538 8.4863 21.678 8.37836 21.7346C7.6741 22.1036 6.87861 21.3999 7.17916 20.6737C7.29186 20.4015 7.03113 20.5678 17.2925 14.22C19.3686 12.9358 21.4717 11.6336 21.966 11.3265C22.4941 10.9983 22.94 10.7806 23.0472 10.7986C23.1476 10.8154 26.7126 12.9839 30.9695 15.6177ZM3.05147 28.5623C3.59647 29.0498 3.4684 29.9848 2.8196 30.2563C2.43242 30.4182 2.28951 30.4168 1.93352 30.2477C1.60125 30.0899 1.33972 29.696 1.33972 29.3536C1.33972 28.4834 2.41004 27.9886 3.05147 28.5623ZM44.1723 28.4845C44.7175 28.8174 44.7965 29.5925 44.3326 30.057C43.632 30.7582 42.4887 30.1703 42.6218 29.1774C42.7209 28.4378 43.5146 28.0831 44.1723 28.4845ZM2.87055 39.1572C3.01552 39.2323 3.19554 39.4125 3.2705 39.5576C3.7596 40.5043 2.71705 41.4936 1.84005 40.9149C0.729286 40.1819 1.6887 38.5455 2.87055 39.1572ZM44.1231 39.1572C44.4222 39.3121 44.6594 39.7093 44.6594 40.0554C44.6594 40.4015 44.4222 40.7987 44.1231 40.9535C42.9659 41.5525 41.9521 39.8784 43.0619 39.2011C43.4137 38.9863 43.7649 38.9718 44.1231 39.1572ZM10.8667 42.8668C11.3569 43.3115 11.374 43.9837 10.9061 44.4236C10.7245 44.5944 10.5749 44.6436 10.2373 44.6436C9.73385 44.6436 9.38343 44.3869 9.26147 43.9288C9.09196 43.2919 9.5931 42.6194 10.2373 42.6194C10.5004 42.6194 10.6656 42.6843 10.8667 42.8668ZM36.3912 42.8668C36.8814 43.3115 36.8984 43.9837 36.4305 44.4236C36.1005 44.734 35.424 44.7349 35.0948 44.4254C34.7734 44.1232 34.6579 43.6639 34.8111 43.297C35.0964 42.6137 35.8776 42.4009 36.3912 42.8668Z" fill="#FF6900"/>
</svg>
