<svg width="500" height="372" viewBox="0 0 500 372" fill="none" xmlns="http://www.w3.org/2000/svg">
<path d="M500 326.908H0V327.158H500V326.908Z" fill="#EBEBEB"/>
<path d="M449.9 342.974H416.78V343.224H449.9V342.974Z" fill="#EBEBEB"/>
<path d="M331.22 345.689H322.53V345.939H331.22V345.689Z" fill="#EBEBEB"/>
<path d="M415.78 333.708H396.59V333.958H415.78V333.708Z" fill="#EBEBEB"/>
<path d="M95.65 335.385H52.46V335.635H95.65V335.385Z" fill="#EBEBEB"/>
<path d="M110.89 335.385H104.56V335.635H110.89V335.385Z" fill="#EBEBEB"/>
<path d="M225.15 339.6H131.47V339.85H225.15V339.6Z" fill="#EBEBEB"/>
<path d="M237 282.375H43.91C42.3973 282.372 40.9475 281.771 39.8788 280.702C38.8102 279.633 38.21 278.184 38.21 276.674V5.65149C38.2231 4.14978 38.8292 2.71389 39.8964 1.65573C40.9637 0.597559 42.4059 0.00257252 43.91 0H237C238.514 0 239.967 0.600684 241.038 1.66991C242.108 2.73913 242.71 4.18931 242.71 5.70142V276.674C242.71 278.186 242.108 279.636 241.038 280.705C239.967 281.774 238.514 282.375 237 282.375ZM43.91 0.1997C42.4636 0.202345 41.0774 0.777894 40.0556 1.80002C39.0338 2.82214 38.46 4.20732 38.46 5.65149V276.674C38.46 278.118 39.0338 279.503 40.0556 280.525C41.0774 281.547 42.4636 282.123 43.91 282.125H237C238.447 282.123 239.834 281.547 240.858 280.526C241.881 279.504 242.457 278.119 242.46 276.674V5.65149C242.457 4.2064 241.881 2.82125 240.858 1.79941C239.834 0.77757 238.447 0.20234 237 0.1997H43.91Z" fill="#EBEBEB"/>
<path d="M453.31 282.375H260.21C258.696 282.372 257.246 281.771 256.175 280.702C255.105 279.634 254.503 278.185 254.5 276.674V5.65149C254.516 4.14887 255.124 2.71299 256.193 1.6551C257.262 0.59721 258.705 0.00254446 260.21 0H453.31C454.812 0.00519667 456.252 0.601344 457.317 1.65923C458.382 2.71712 458.987 4.1515 459 5.65149V276.674C459 278.182 458.401 279.629 457.335 280.698C456.268 281.767 454.821 282.37 453.31 282.375ZM260.21 0.1997C258.763 0.20234 257.375 0.77757 256.352 1.79941C255.329 2.82125 254.753 4.2064 254.75 5.65149V276.674C254.753 278.119 255.329 279.504 256.352 280.526C257.375 281.547 258.763 282.123 260.21 282.125H453.31C454.757 282.123 456.145 281.547 457.168 280.526C458.191 279.504 458.767 278.119 458.77 276.674V5.65149C458.767 4.2064 458.191 2.82125 457.168 1.79941C456.145 0.77757 454.757 0.20234 453.31 0.1997H260.21Z" fill="#EBEBEB"/>
<path d="M353.93 43.0746C353.932 42.4296 353.805 41.7908 353.557 41.1952C353.309 40.5996 352.946 40.059 352.487 39.6048C352.028 39.1506 351.484 38.7919 350.885 38.5493C350.287 38.3068 349.646 38.1853 349 38.1919C348.523 38.1918 348.049 38.259 347.59 38.3916C347.663 37.8956 347.699 37.3951 347.7 36.8939C347.7 34.1599 346.615 31.5374 344.683 29.6004C342.751 27.6635 340.128 26.57 337.39 26.5594C336.75 26.5601 336.111 26.6169 335.48 26.7292C334.459 25.0543 332.921 23.7564 331.096 23.0313C329.272 22.3062 327.261 22.1932 325.366 22.7095C323.472 23.2258 321.797 24.3432 320.595 25.8933C319.392 27.4433 318.727 29.3418 318.7 31.3023H318.55C316.387 31.3771 314.337 32.2877 312.834 33.8422C311.33 35.3966 310.489 37.4735 310.489 39.6348C310.489 41.796 311.33 43.8729 312.834 45.4273C314.337 46.9818 316.387 47.8924 318.55 47.9672H349.17C350.445 47.9308 351.656 47.3993 352.545 46.4857C353.434 45.5721 353.931 44.3483 353.93 43.0746Z" fill="#F0F0F0"/>
<path d="M335.95 50.3741V40.8584H328.18V50.3741H321.85L332.07 59.0011L342.29 50.3741H335.95Z" fill="#E0E0E0"/>
<path d="M200.68 57.4732C200.68 54.7235 199.586 52.0862 197.64 50.141C195.694 48.1957 193.053 47.1015 190.3 47.0988C189.284 47.1003 188.273 47.2483 187.3 47.5382C187.461 46.4841 187.541 45.4193 187.54 44.353C187.54 38.527 185.222 32.9396 181.096 28.82C176.97 24.7004 171.374 22.386 165.54 22.386C164.181 22.3857 162.825 22.5128 161.49 22.7655C159.323 19.2073 156.055 16.4495 152.181 14.9084C148.306 13.3673 144.034 13.1264 140.011 14.2221C135.987 15.3179 132.429 17.6907 129.875 20.9826C127.32 24.2746 125.907 28.3068 125.85 32.4709H125.53C123.168 32.4148 120.819 32.8309 118.62 33.6947C116.422 34.5584 114.419 35.8524 112.728 37.5004C111.038 39.1485 109.695 41.1174 108.778 43.2913C107.861 45.4653 107.389 47.8003 107.389 50.1592C107.389 52.5181 107.861 54.8532 108.778 57.0272C109.695 59.2011 111.038 61.17 112.728 62.8181C114.419 64.4661 116.422 65.7601 118.62 66.6238C120.819 67.4876 123.168 67.9036 125.53 67.8476H190.58C193.285 67.7747 195.856 66.6493 197.743 64.7113C199.629 62.7733 200.683 60.176 200.68 57.4732Z" fill="#F0F0F0"/>
<path d="M146 58.2714V78.491H162.51V58.2714H175.96L154.25 39.959L132.55 58.2714H146Z" fill="#E0E0E0"/>
<path d="M208.97 107.968V80.7793H292.35V107.699" stroke="#E6E6E6" stroke-miterlimit="10"/>
<path d="M251.89 55.1572V107.898" stroke="#E6E6E6" stroke-miterlimit="10"/>
<path d="M266.08 44.8027H237.72C237.063 44.8027 236.53 45.3347 236.53 45.9909V62.8356C236.53 63.4918 237.063 64.0238 237.72 64.0238H266.08C266.737 64.0238 267.27 63.4918 267.27 62.8356V45.9909C267.27 45.3347 266.737 44.8027 266.08 44.8027Z" fill="#F0F0F0"/>
<path d="M265.78 47.0586H238.01C237.778 47.0586 237.59 47.2464 237.59 47.478V62.8349C237.59 63.0665 237.778 63.2542 238.01 63.2542H265.78C266.012 63.2542 266.2 63.0665 266.2 62.8349V47.478C266.2 47.2464 266.012 47.0586 265.78 47.0586Z" fill="#E0E0E0"/>
<path d="M223.15 105.501H194.79C194.132 105.501 193.6 106.033 193.6 106.689V123.534C193.6 124.19 194.132 124.722 194.79 124.722H223.15C223.807 124.722 224.34 124.19 224.34 123.534V106.689C224.34 106.033 223.807 105.501 223.15 105.501Z" fill="#F0F0F0"/>
<path d="M222.85 107.758H195.08C194.848 107.758 194.66 107.946 194.66 108.177V123.534C194.66 123.766 194.848 123.953 195.08 123.953H222.85C223.082 123.953 223.27 123.766 223.27 123.534V108.177C223.27 107.946 223.082 107.758 222.85 107.758Z" fill="#E0E0E0"/>
<path d="M266.08 105.501H237.72C237.063 105.501 236.53 106.033 236.53 106.689V123.534C236.53 124.19 237.063 124.722 237.72 124.722H266.08C266.737 124.722 267.27 124.19 267.27 123.534V106.689C267.27 106.033 266.737 105.501 266.08 105.501Z" fill="#F0F0F0"/>
<path d="M265.78 107.758H238.01C237.778 107.758 237.59 107.946 237.59 108.177V123.534C237.59 123.766 237.778 123.953 238.01 123.953H265.78C266.012 123.953 266.2 123.766 266.2 123.534V108.177C266.2 107.946 266.012 107.758 265.78 107.758Z" fill="#E0E0E0"/>
<path d="M306.6 105.501H278.24C277.583 105.501 277.05 106.033 277.05 106.689V123.534C277.05 124.19 277.583 124.722 278.24 124.722H306.6C307.257 124.722 307.79 124.19 307.79 123.534V106.689C307.79 106.033 307.257 105.501 306.6 105.501Z" fill="#F0F0F0"/>
<path d="M306.3 107.758H278.53C278.298 107.758 278.11 107.946 278.11 108.177V123.534C278.11 123.766 278.298 123.953 278.53 123.953H306.3C306.532 123.953 306.72 123.766 306.72 123.534V108.177C306.72 107.946 306.532 107.758 306.3 107.758Z" fill="#E0E0E0"/>
<path d="M251.316 72.5417L243.637 80.2093C243.321 80.5252 243.321 81.0373 243.637 81.3531L251.316 89.0208C251.633 89.3366 252.146 89.3366 252.462 89.0208L260.141 81.3531C260.457 81.0373 260.457 80.5252 260.141 80.2093L252.462 72.5417C252.146 72.2259 251.633 72.2259 251.316 72.5417Z" fill="#E0E0E0"/>
<path opacity="0.8" d="M89.09 67.5488H69.08C68.5995 67.5488 68.21 67.9378 68.21 68.4175V79.6905C68.21 80.1703 68.5995 80.5592 69.08 80.5592H89.09C89.5704 80.5592 89.96 80.1703 89.96 79.6905V68.4175C89.96 67.9378 89.5704 67.5488 89.09 67.5488Z" fill="#E0E0E0"/>
<path d="M73.8196 95.5361H57.9696C57.4891 95.5361 57.0996 95.9251 57.0996 96.4048V104.602C57.0996 105.082 57.4891 105.471 57.9696 105.471H73.8196C74.3001 105.471 74.6896 105.082 74.6896 104.602V96.4048C74.6896 95.9251 74.3001 95.5361 73.8196 95.5361Z" fill="#E0E0E0"/>
<path d="M100.51 95.5361H84.66C84.1796 95.5361 83.79 95.9251 83.79 96.4048V104.602C83.79 105.082 84.1796 105.471 84.66 105.471H100.51C100.991 105.471 101.38 105.082 101.38 104.602V96.4048C101.38 95.9251 100.991 95.5361 100.51 95.5361Z" fill="#E0E0E0"/>
<path d="M84.1002 116.564H76.6102C76.1297 116.564 75.7402 116.953 75.7402 117.433V124.183C75.7402 124.663 76.1297 125.052 76.6102 125.052H84.1002C84.5807 125.052 84.9702 124.663 84.9702 124.183V117.433C84.9702 116.953 84.5807 116.564 84.1002 116.564Z" fill="#E0E0E0"/>
<path d="M95.82 116.564H88.33C87.8495 116.564 87.46 116.953 87.46 117.433V124.183C87.46 124.663 87.8495 125.052 88.33 125.052H95.82C96.3004 125.052 96.69 124.663 96.69 124.183V117.433C96.69 116.953 96.3004 116.564 95.82 116.564Z" fill="#E0E0E0"/>
<path d="M107.55 116.564H100.06C99.5799 116.564 99.1904 116.953 99.1904 117.433V124.183C99.1904 124.663 99.5799 125.052 100.06 125.052H107.55C108.031 125.052 108.42 124.663 108.42 124.183V117.433C108.42 116.953 108.031 116.564 107.55 116.564Z" fill="#E0E0E0"/>
<path d="M56.9704 116.564H49.4804C48.9999 116.564 48.6104 116.953 48.6104 117.433V124.183C48.6104 124.663 48.9999 125.052 49.4804 125.052H56.9704C57.4508 125.052 57.8404 124.663 57.8404 124.183V117.433C57.8404 116.953 57.4508 116.564 56.9704 116.564Z" fill="#E0E0E0"/>
<path d="M69.6901 116.564H62.2001C61.7196 116.564 61.3301 116.953 61.3301 117.433V124.183C61.3301 124.663 61.7196 125.052 62.2001 125.052H69.6901C70.1706 125.052 70.5601 124.663 70.5601 124.183V117.433C70.5601 116.953 70.1706 116.564 69.6901 116.564Z" fill="#E0E0E0"/>
<path d="M91.5801 95.5361H92.5801V88.5466H79.5801V80.5586H78.5801V88.5466H65.5801V95.5361H66.5801V89.5451H91.5801V95.5361Z" fill="#E0E0E0"/>
<path d="M65.5801 111.511H52.5801V116.504H53.5801V112.51H65.5801V116.504H66.5801V105.521H65.5801V111.511Z" fill="#E0E0E0"/>
<path d="M92.5801 112.51V105.521H91.5801V112.51H79.5801V116.504H80.5801V113.508H91.5801V116.504H92.5801V113.508H103.58V116.504H104.58V112.51H92.5801Z" fill="#E0E0E0"/>
<path d="M381 70.6729V77.8821L384.7 78.2316C385.196 80.5946 386.133 82.8435 387.46 84.8616L385.08 87.7273L390.16 92.7996L393.03 90.4232C395.049 91.7527 397.302 92.6878 399.67 93.1791L400 96.8535H407.18L407.53 93.1591C409.898 92.6678 412.151 91.7327 414.17 90.4032L417.04 92.7797L422.12 87.7073L419.75 84.8716C421.077 82.8535 422.014 80.6045 422.51 78.2415L426.21 77.8921V70.7229L422.51 70.3734C422.015 68.013 421.079 65.7669 419.75 63.7534L422.13 60.8877L417.05 55.8153L414.18 58.1817C412.159 56.8563 409.907 55.9215 407.54 55.4259L407.19 51.7314H400L399.65 55.4259C397.283 55.9215 395.031 56.8563 393.01 58.1817L390.14 55.8153L385.06 60.8877L387.44 63.7534C386.111 65.7669 385.175 68.013 384.68 70.3734L381 70.6729ZM403.61 64.5522C405.535 64.5522 407.416 65.1222 409.017 66.1902C410.617 67.2582 411.864 68.7761 412.6 70.5519C413.336 72.3278 413.529 74.2817 413.152 76.1666C412.776 78.0514 411.848 79.7826 410.487 81.1409C409.125 82.4992 407.39 83.4237 405.502 83.7974C403.614 84.1712 401.657 83.9774 399.88 83.2405C398.102 82.5036 396.583 81.2568 395.515 79.6578C394.447 78.0588 393.878 76.1795 393.88 74.2575C393.883 71.6843 394.908 69.2173 396.73 67.3977C398.552 65.5782 401.023 64.5548 403.6 64.5522H403.61Z" fill="#F5F5F5"/>
<path d="M385.63 123.015C387.484 122.626 389.248 121.891 390.83 120.849L393.08 122.716L397.08 118.722L395.22 116.475C396.259 114.895 396.992 113.134 397.38 111.283L400.28 111.003V105.382L397.38 105.112C396.993 103.261 396.261 101.5 395.22 99.9202L397.08 97.6736L393.08 93.6796L390.83 95.5368C389.248 94.4976 387.484 93.7659 385.63 93.38L385.36 90.4844H379.73L379.46 93.38C377.606 93.7659 375.842 94.4976 374.26 95.5368L372 93.7195L368 97.7135L369.86 99.9601C368.819 101.54 368.086 103.301 367.7 105.152L364.8 105.422V111.043L367.7 111.323C368.088 113.173 368.821 114.935 369.86 116.515L368 118.742L372 122.736L374.25 120.869C375.831 121.911 377.595 122.646 379.45 123.035L379.72 125.921H385.35L385.63 123.015ZM374.92 108.218C374.918 106.71 375.364 105.237 376.201 103.982C377.038 102.728 378.229 101.75 379.623 101.172C381.017 100.594 382.551 100.442 384.032 100.734C385.513 101.027 386.873 101.752 387.941 102.817C389.01 103.882 389.737 105.24 390.032 106.718C390.328 108.196 390.177 109.728 389.6 111.121C389.023 112.514 388.045 113.704 386.79 114.542C385.535 115.379 384.059 115.826 382.55 115.826C380.528 115.826 378.589 115.025 377.158 113.598C375.727 112.172 374.922 110.237 374.92 108.218Z" fill="#F5F5F5"/>
<path d="M373.07 92.5908L374.96 94.1485L378.31 90.8135L376.74 88.9263C377.616 87.5995 378.234 86.119 378.56 84.5629L380.99 84.3332V79.6203L378.56 79.3907C378.234 77.8346 377.616 76.3541 376.74 75.0272L378.31 73.1401L375 69.8051L373.11 71.3628C371.783 70.4892 370.304 69.8727 368.75 69.5455L368.52 67.1191H363.79L363.56 69.5455C362.001 69.8706 360.518 70.4872 359.19 71.3628L357.3 69.8051L353.96 73.1401L355.52 75.0272C354.646 76.3547 354.032 77.8352 353.71 79.3907L351.27 79.6203V84.3332L353.71 84.5629C354.032 86.1183 354.646 87.5989 355.52 88.9263L353.92 90.8634L357.26 94.1984L359.15 92.6407C360.477 93.5171 361.96 94.1307 363.52 94.448L363.75 96.8843H368.48L368.71 94.448C370.269 94.1134 371.749 93.483 373.07 92.5908ZM359.71 81.9768C359.71 80.7129 360.085 79.4774 360.788 78.4265C361.491 77.3756 362.491 76.5565 363.66 76.0728C364.83 75.5892 366.117 75.4626 367.358 75.7092C368.6 75.9558 369.74 76.5644 370.635 77.4581C371.53 78.3518 372.14 79.4905 372.387 80.7301C372.634 81.9697 372.507 83.2546 372.022 84.4223C371.538 85.59 370.718 86.588 369.665 87.2902C368.613 87.9924 367.375 88.3672 366.11 88.3672C364.412 88.3672 362.784 87.6939 361.584 86.4955C360.384 85.297 359.71 83.6716 359.71 81.9768Z" fill="#F5F5F5"/>
<path d="M439.39 268.626H372.24V312.23H439.39V268.626Z" fill="#F5F5F5"/>
<path d="M436.92 276.803H374.69V310.053H436.92V276.803Z" fill="#E0E0E0"/>
<path d="M425.8 281.776H379.76V283.204H425.8V281.776Z" fill="#F5F5F5"/>
<path d="M401.85 286.149H379.76V287.577H401.85V286.149Z" fill="#F5F5F5"/>
<path d="M407.58 290.532H379.76V291.96H407.58V290.532Z" fill="#F5F5F5"/>
<path d="M389.56 294.916H379.76V296.344H389.56V294.916Z" fill="#F5F5F5"/>
<path d="M386.11 299.3H379.76V300.728H386.11V299.3Z" fill="#F5F5F5"/>
<path d="M95.5891 268.378L47.8096 268.595L47.9433 298.02L95.7228 297.804L95.5891 268.378Z" fill="#EBEBEB"/>
<path d="M66.1397 290.623C65.9279 290.624 65.7213 290.557 65.5497 290.433L56.8397 284.073C56.7137 283.981 56.611 283.861 56.5398 283.722C56.4686 283.583 56.4309 283.43 56.4297 283.274C56.4282 283.117 56.4636 282.962 56.5331 282.822C56.6025 282.681 56.7042 282.559 56.8297 282.465L65.4897 276.025C65.7032 275.867 65.9707 275.801 66.2332 275.84C66.4958 275.879 66.7319 276.021 66.8897 276.235C67.0475 276.448 67.1141 276.715 67.0747 276.977C67.0353 277.239 66.8932 277.475 66.6797 277.632L59.1097 283.264L66.7297 288.816C66.9012 288.94 67.0288 289.115 67.0943 289.315C67.1597 289.516 67.1597 289.733 67.0941 289.934C67.0285 290.135 66.9008 290.31 66.7293 290.434C66.5578 290.557 66.3514 290.624 66.1397 290.623Z" fill="#FAFAFA"/>
<path d="M77.4603 290.563C77.3034 290.565 77.1483 290.529 77.0076 290.46C76.8669 290.391 76.7445 290.289 76.6503 290.164C76.5721 290.058 76.5154 289.938 76.4836 289.811C76.4518 289.683 76.4455 289.551 76.465 289.421C76.4845 289.291 76.5294 289.167 76.5973 289.054C76.6651 288.942 76.7545 288.844 76.8603 288.766L84.4303 283.134L76.8103 277.583C76.5968 277.425 76.4548 277.189 76.4154 276.927C76.376 276.665 76.4425 276.398 76.6003 276.185C76.7581 275.972 76.9943 275.83 77.2568 275.79C77.5194 275.751 77.7868 275.817 78.0003 275.975L86.7103 282.325C86.8377 282.418 86.9413 282.54 87.0125 282.681C87.0838 282.821 87.1207 282.977 87.1203 283.134C87.1203 283.289 87.0842 283.442 87.0148 283.581C86.9453 283.719 86.8445 283.84 86.7203 283.933L78.0603 290.373C77.886 290.499 77.6756 290.566 77.4603 290.563Z" fill="#FAFAFA"/>
<path d="M69.5196 290.613C69.407 290.611 69.2955 290.591 69.1896 290.553C68.9409 290.464 68.7373 290.282 68.623 290.044C68.5087 289.807 68.4931 289.534 68.5796 289.285L73.0696 276.464C73.113 276.34 73.1803 276.226 73.2679 276.128C73.3554 276.03 73.4614 275.95 73.5798 275.893C73.6982 275.836 73.8266 275.803 73.9579 275.796C74.0891 275.788 74.2205 275.807 74.3446 275.85C74.4687 275.893 74.5831 275.96 74.6812 276.048C74.7792 276.135 74.8591 276.241 74.9162 276.359C74.9733 276.477 75.0065 276.606 75.014 276.737C75.0214 276.868 75.003 276.999 74.9596 277.123L70.4696 289.944C70.4009 290.14 70.2723 290.31 70.102 290.43C69.9317 290.55 69.7281 290.614 69.5196 290.613Z" fill="#FAFAFA"/>
<path d="M250 372C357.083 372 443.89 366.939 443.89 360.697C443.89 354.454 357.083 349.394 250 349.394C142.918 349.394 56.1104 354.454 56.1104 360.697C56.1104 366.939 142.918 372 250 372Z" fill="#F5F5F5"/>
<path d="M334.38 360.697H341.73L351.73 305.54H344.38L334.38 360.697Z" fill="#263238"/>
<path opacity="0.2" d="M334.38 360.697H341.73L351.73 305.54H344.38L334.38 360.697Z" fill="white"/>
<path opacity="0.2" d="M334.38 360.697H339.73L349.73 305.54H344.38L334.38 360.697Z" fill="white"/>
<path d="M313.69 321.946H343.08C343.293 321.947 343.505 321.906 343.702 321.826C343.899 321.745 344.078 321.626 344.229 321.475C344.38 321.325 344.499 321.146 344.58 320.949C344.661 320.752 344.702 320.541 344.7 320.329C344.702 320.116 344.661 319.905 344.58 319.708C344.499 319.511 344.38 319.332 344.229 319.182C344.078 319.031 343.899 318.912 343.702 318.831C343.505 318.751 343.293 318.71 343.08 318.711H313.69C313.477 318.71 313.266 318.751 313.069 318.831C312.872 318.912 312.693 319.031 312.542 319.182C312.391 319.332 312.272 319.511 312.191 319.708C312.11 319.905 312.069 320.116 312.07 320.329C312.069 320.541 312.11 320.752 312.191 320.949C312.272 321.146 312.391 321.325 312.542 321.475C312.693 321.626 312.872 321.745 313.069 321.826C313.266 321.906 313.477 321.947 313.69 321.946Z" fill="#263238"/>
<path d="M310.42 340.418H339.82C340.25 340.415 340.662 340.243 340.966 339.938C341.269 339.633 341.44 339.22 341.44 338.79C341.437 338.362 341.266 337.952 340.962 337.65C340.659 337.347 340.249 337.175 339.82 337.173H310.42C309.991 337.175 309.58 337.347 309.277 337.65C308.974 337.952 308.802 338.362 308.8 338.79C308.8 339.22 308.97 339.633 309.274 339.938C309.577 340.243 309.989 340.415 310.42 340.418Z" fill="#263238"/>
<path d="M304.38 360.697H311.73L321.73 305.54H314.38L304.38 360.697Z" fill="#263238"/>
<path opacity="0.2" d="M304.38 360.697H311.73L321.73 305.54H314.38L304.38 360.697Z" fill="white"/>
<path opacity="0.2" d="M304.38 360.697H309.73L319.73 305.54H314.38L304.38 360.697Z" fill="white"/>
<path d="M372.73 360.697H365.38L355.38 305.54H362.73L372.73 360.697Z" fill="#263238"/>
<path opacity="0.4" d="M372.73 360.697H365.38L355.38 305.54H362.73L372.73 360.697Z" fill="white"/>
<path opacity="0.2" d="M370.73 360.697H365.38L355.38 305.54H360.73L370.73 360.697Z" fill="white"/>
<path d="M359.82 321.946H330.42C329.99 321.946 329.578 321.776 329.274 321.472C328.97 321.169 328.8 320.758 328.8 320.328C328.8 319.899 328.97 319.488 329.274 319.185C329.578 318.881 329.99 318.711 330.42 318.711H359.82C360.249 318.711 360.662 318.881 360.965 319.185C361.269 319.488 361.44 319.899 361.44 320.328C361.44 320.758 361.269 321.169 360.965 321.472C360.662 321.776 360.249 321.946 359.82 321.946Z" fill="#263238"/>
<path d="M363.08 340.418H333.69C333.477 340.418 333.265 340.376 333.068 340.294C332.871 340.212 332.692 340.092 332.541 339.941C332.391 339.789 332.272 339.61 332.191 339.412C332.11 339.215 332.069 339.004 332.07 338.79C332.07 338.361 332.241 337.95 332.545 337.647C332.849 337.343 333.261 337.173 333.69 337.173H363.08C363.51 337.173 363.922 337.343 364.226 337.647C364.53 337.95 364.7 338.361 364.7 338.79C364.702 339.004 364.661 339.215 364.58 339.412C364.499 339.61 364.38 339.789 364.229 339.941C364.079 340.092 363.9 340.212 363.703 340.294C363.505 340.376 363.294 340.418 363.08 340.418Z" fill="#263238"/>
<path opacity="0.2" d="M359.82 321.946H330.42C329.99 321.946 329.578 321.776 329.274 321.472C328.97 321.169 328.8 320.758 328.8 320.328C328.8 319.899 328.97 319.488 329.274 319.185C329.578 318.881 329.99 318.711 330.42 318.711H359.82C360.249 318.711 360.662 318.881 360.965 319.185C361.269 319.488 361.44 319.899 361.44 320.328C361.44 320.758 361.269 321.169 360.965 321.472C360.662 321.776 360.249 321.946 359.82 321.946Z" fill="white"/>
<path opacity="0.2" d="M363.08 340.418H333.69C333.477 340.418 333.265 340.376 333.068 340.294C332.871 340.212 332.692 340.092 332.541 339.941C332.391 339.789 332.272 339.61 332.191 339.412C332.11 339.215 332.069 339.004 332.07 338.79C332.07 338.361 332.241 337.95 332.545 337.647C332.849 337.343 333.261 337.173 333.69 337.173H363.08C363.51 337.173 363.922 337.343 364.226 337.647C364.53 337.95 364.7 338.361 364.7 338.79C364.702 339.004 364.661 339.215 364.58 339.412C364.499 339.61 364.38 339.789 364.229 339.941C364.079 340.092 363.9 340.212 363.703 340.294C363.505 340.376 363.294 340.418 363.08 340.418Z" fill="white"/>
<path d="M342.73 360.697H335.38L325.38 305.54H332.73L342.73 360.697Z" fill="#263238"/>
<path opacity="0.4" d="M342.73 360.697H335.38L325.38 305.54H332.73L342.73 360.697Z" fill="white"/>
<path opacity="0.2" d="M340.73 360.697H335.38L325.38 305.54H330.73L340.73 360.697Z" fill="white"/>
<path d="M365.59 302.904H312.5C311.842 302.904 311.31 303.436 311.31 304.093V306.978C311.31 307.634 311.842 308.166 312.5 308.166H365.59C366.247 308.166 366.78 307.634 366.78 306.978V304.093C366.78 303.436 366.247 302.904 365.59 302.904Z" fill="#263238"/>
<path opacity="0.2" d="M332.68 302.904H312.5C311.842 302.904 311.31 303.436 311.31 304.093V306.978C311.31 307.634 311.842 308.166 312.5 308.166H332.68C333.337 308.166 333.87 307.634 333.87 306.978V304.093C333.87 303.436 333.337 302.904 332.68 302.904Z" fill="white"/>
<path d="M194.35 316.374H127.2V359.978H194.35V316.374Z" fill="#7B3FE4"/>
<path opacity="0.6" d="M194.35 316.374H127.2V359.978H194.35V316.374Z" fill="white"/>
<path d="M191.9 324.552H129.66V357.802H191.9V324.552Z" fill="#7B3FE4"/>
<path d="M180.77 329.515H134.73V330.942H180.77V329.515Z" fill="white"/>
<path d="M156.82 333.897H134.73V335.325H156.82V333.897Z" fill="white"/>
<path d="M162.55 338.281H134.73V339.709H162.55V338.281Z" fill="white"/>
<path d="M144.53 342.654H134.73V344.082H144.53V342.654Z" fill="white"/>
<path d="M141.08 347.038H134.73V348.466H141.08V347.038Z" fill="white"/>
<path d="M277.33 360.697H222.67L231.92 288.136H268.08L277.33 360.697Z" fill="#7B3FE4"/>
<path opacity="0.6" d="M277.33 360.697H222.67L229 311.051L231.93 288.136H268.07L272.39 321.945L277.33 360.697Z" fill="white"/>
<path opacity="0.1" d="M272.39 321.945L229 311.051L231.93 288.136H268.07L272.39 321.945Z" fill="black"/>
<path d="M378.87 109.215H121.13C120.264 109.215 119.406 109.385 118.606 109.717C117.806 110.048 117.079 110.534 116.467 111.146C115.855 111.758 115.369 112.484 115.039 113.284C114.708 114.083 114.539 114.94 114.54 115.805V290.023C114.54 291.768 115.234 293.442 116.47 294.676C117.706 295.91 119.382 296.603 121.13 296.603H378.87C380.618 296.603 382.294 295.91 383.53 294.676C384.766 293.442 385.46 291.768 385.46 290.023V115.825C385.464 114.958 385.296 114.099 384.967 113.298C384.638 112.496 384.153 111.767 383.54 111.153C382.928 110.538 382.2 110.051 381.399 109.719C380.597 109.386 379.738 109.215 378.87 109.215Z" fill="#7B3FE4"/>
<path opacity="0.7" d="M378.87 109.215H121.13C120.264 109.215 119.406 109.385 118.606 109.717C117.806 110.048 117.079 110.534 116.467 111.146C115.855 111.758 115.369 112.484 115.039 113.284C114.708 114.083 114.539 114.94 114.54 115.805V290.023C114.54 291.768 115.234 293.442 116.47 294.676C117.706 295.91 119.382 296.603 121.13 296.603H378.87C380.618 296.603 382.294 295.91 383.53 294.676C384.766 293.442 385.46 291.768 385.46 290.023V115.825C385.464 114.958 385.296 114.099 384.967 113.298C384.638 112.496 384.153 111.767 383.54 111.153C382.928 110.538 382.2 110.051 381.399 109.719C380.597 109.386 379.738 109.215 378.87 109.215Z" fill="white"/>
<path d="M376.79 115.665H123.22V283.662H376.79V115.665Z" fill="#7B3FE4"/>
<path d="M295.9 355.245H204.09C203.515 355.245 203.05 355.71 203.05 356.284V359.569C203.05 360.142 203.515 360.607 204.09 360.607H295.9C296.474 360.607 296.94 360.142 296.94 359.569V356.284C296.94 355.71 296.474 355.245 295.9 355.245Z" fill="#7B3FE4"/>
<path opacity="0.7" d="M295.9 355.245H204.09C203.515 355.245 203.05 355.71 203.05 356.284V359.569C203.05 360.142 203.515 360.607 204.09 360.607H295.9C296.474 360.607 296.94 360.142 296.94 359.569V356.284C296.94 355.71 296.474 355.245 295.9 355.245Z" fill="white"/>
<path opacity="0.2" d="M376.79 115.825H123.22V140.868H376.79V115.825Z" fill="black"/>
<path opacity="0.4" d="M231.88 141.167H123.22V283.663H231.88V141.167Z" fill="white"/>
<path d="M337.76 177.513V180.009H335.26" stroke="white" stroke-miterlimit="10"/>
<path d="M329.98 180.009H248.08" stroke="white" stroke-miterlimit="10" stroke-dasharray="5.28 5.28"/>
<path d="M245.44 180.009H242.94V177.513" stroke="white" stroke-miterlimit="10"/>
<path d="M242.94 172.989V130.023" stroke="white" stroke-miterlimit="10" stroke-dasharray="4.53 4.53"/>
<path d="M242.94 127.767V125.271H245.44" stroke="white" stroke-miterlimit="10"/>
<path d="M250.72 125.271H332.62" stroke="white" stroke-miterlimit="10" stroke-dasharray="5.28 5.28"/>
<path d="M335.26 125.271H337.76V127.767" stroke="white" stroke-miterlimit="10"/>
<path d="M337.76 132.29V175.255" stroke="white" stroke-miterlimit="10" stroke-dasharray="4.53 4.53"/>
<path d="M339.35 123.684H336.18V126.849H339.35V123.684Z" fill="#7B3FE4" stroke="white" stroke-miterlimit="10"/>
<path d="M339.35 178.431H336.18V181.596H339.35V178.431Z" fill="#7B3FE4" stroke="white" stroke-miterlimit="10"/>
<path d="M244.52 123.684H241.35V126.849H244.52V123.684Z" fill="#7B3FE4" stroke="white" stroke-miterlimit="10"/>
<path d="M244.52 178.431H241.35V181.596H244.52V178.431Z" fill="#7B3FE4" stroke="white" stroke-miterlimit="10"/>
<path d="M291.941 123.684H288.771V126.849H291.941V123.684Z" fill="#7B3FE4" stroke="white" stroke-miterlimit="10"/>
<path d="M291.941 178.431H288.771V181.596H291.941V178.431Z" fill="#7B3FE4" stroke="white" stroke-miterlimit="10"/>
<path d="M339.35 151.053H336.18V154.218H339.35V151.053Z" fill="#7B3FE4" stroke="white" stroke-miterlimit="10"/>
<path d="M244.52 151.053H241.35V154.218H244.52V151.053Z" fill="#7B3FE4" stroke="white" stroke-miterlimit="10"/>
<path opacity="0.7" d="M329.15 143.653H305.94C304.896 143.653 304.05 144.498 304.05 145.54V151.741C304.05 152.783 304.896 153.628 305.94 153.628H329.15C330.194 153.628 331.04 152.783 331.04 151.741V145.54C331.04 144.498 330.194 143.653 329.15 143.653Z" fill="white"/>
<path opacity="0.7" d="M289.15 143.653H265.94C264.896 143.653 264.05 144.498 264.05 145.54V151.741C264.05 152.783 264.896 153.628 265.94 153.628H289.15C290.194 153.628 291.04 152.783 291.04 151.741V145.54C291.04 144.498 290.194 143.653 289.15 143.653Z" fill="white"/>
<path opacity="0.7" d="M237.66 265.061H214.45C213.406 265.061 212.56 265.905 212.56 266.948V273.148C212.56 274.191 213.406 275.036 214.45 275.036H237.66C238.703 275.036 239.55 274.191 239.55 273.148V266.948C239.55 265.905 238.703 265.061 237.66 265.061Z" fill="white"/>
<path d="M360.05 124.731H368.49" stroke="white" stroke-width="1.5" stroke-linecap="round" stroke-linejoin="round"/>
<path d="M360.05 128.726H368.49" stroke="white" stroke-width="1.5" stroke-linecap="round" stroke-linejoin="round"/>
<path d="M360.05 132.72H368.49" stroke="white" stroke-width="1.5" stroke-linecap="round" stroke-linejoin="round"/>
<path opacity="0.5" d="M225.46 163.254H140.41V248.176H225.46V163.254Z" fill="white"/>
<path d="M176.01 170.193V243.453" stroke="#7B3FE4" stroke-miterlimit="10"/>
<path d="M212.69 243.453C202.959 243.453 193.627 239.593 186.746 232.723C179.866 225.853 176 216.534 176 206.818V206.818C176 197.105 179.864 187.789 186.743 180.921C193.622 174.052 202.952 170.193 212.68 170.193V170.193" stroke="#7B3FE4" stroke-miterlimit="10"/>
<path d="M214.28 168.615H211.11V171.78H214.28V168.615Z" fill="white" stroke="#7B3FE4" stroke-miterlimit="10"/>
<path d="M214.28 241.865H211.11V245.03H214.28V241.865Z" fill="white" stroke="#7B3FE4" stroke-miterlimit="10"/>
<path d="M177.6 205.24H174.43V208.405H177.6V205.24Z" fill="white" stroke="#7B3FE4" stroke-miterlimit="10"/>
<path d="M176.83 170.193C176.83 170.355 176.782 170.513 176.692 170.648C176.602 170.782 176.474 170.887 176.324 170.949C176.174 171.011 176.01 171.027 175.85 170.996C175.691 170.964 175.545 170.886 175.431 170.772C175.316 170.657 175.238 170.511 175.206 170.353C175.175 170.194 175.191 170.029 175.253 169.879C175.315 169.73 175.42 169.602 175.555 169.512C175.69 169.422 175.848 169.374 176.01 169.374C176.227 169.377 176.434 169.464 176.587 169.617C176.741 169.77 176.828 169.976 176.83 170.193Z" fill="white" stroke="#7B3FE4" stroke-miterlimit="10"/>
<path d="M176.83 243.453C176.83 243.614 176.783 243.772 176.693 243.906C176.603 244.041 176.476 244.146 176.326 244.208C176.177 244.27 176.013 244.287 175.854 244.256C175.695 244.226 175.549 244.149 175.434 244.035C175.319 243.921 175.24 243.777 175.207 243.618C175.175 243.46 175.189 243.296 175.25 243.146C175.311 242.996 175.414 242.868 175.548 242.777C175.681 242.686 175.839 242.636 176 242.634C176.109 242.633 176.217 242.653 176.317 242.693C176.418 242.734 176.51 242.794 176.587 242.87C176.664 242.946 176.725 243.037 176.767 243.137C176.809 243.237 176.83 243.344 176.83 243.453Z" fill="white" stroke="#7B3FE4" stroke-miterlimit="10"/>
<path opacity="0.7" d="M316.93 266.269H291.18C289.207 266.269 287.315 265.486 285.919 264.093C284.524 262.7 283.74 260.81 283.74 258.84C283.74 256.87 284.524 254.98 285.919 253.587C287.315 252.194 289.207 251.411 291.18 251.411H316.93C318.903 251.411 320.796 252.194 322.191 253.587C323.586 254.98 324.37 256.87 324.37 258.84C324.37 260.81 323.586 262.7 322.191 264.093C320.796 265.486 318.903 266.269 316.93 266.269Z" fill="white"/>
<path opacity="0.7" d="M339.55 202.914H260C259.568 202.914 259.153 202.743 258.848 202.438C258.542 202.132 258.37 201.719 258.37 201.287C258.378 200.861 258.554 200.456 258.859 200.159C259.164 199.862 259.574 199.697 260 199.699H339.54C339.754 199.698 339.965 199.739 340.163 199.82C340.361 199.9 340.541 200.019 340.692 200.169C340.844 200.32 340.964 200.499 341.046 200.695C341.128 200.892 341.17 201.104 341.17 201.317C341.162 201.742 340.988 202.146 340.686 202.445C340.383 202.743 339.976 202.912 339.55 202.914Z" fill="white"/>
<path opacity="0.7" d="M339.55 214.766H260C259.787 214.767 259.575 214.726 259.377 214.645C259.179 214.565 259 214.446 258.848 214.295C258.697 214.145 258.576 213.966 258.494 213.769C258.412 213.572 258.37 213.361 258.37 213.148C258.37 212.716 258.542 212.302 258.848 211.997C259.153 211.692 259.568 211.521 260 211.521H339.54C339.972 211.521 340.387 211.692 340.693 211.997C340.998 212.302 341.17 212.716 341.17 213.148C341.17 213.577 340.999 213.988 340.696 214.292C340.392 214.595 339.98 214.766 339.55 214.766Z" fill="white"/>
<path opacity="0.7" d="M339.55 226.658H290C289.57 226.658 289.156 226.488 288.851 226.185C288.546 225.882 288.373 225.471 288.37 225.041C288.37 224.609 288.542 224.195 288.848 223.89C289.153 223.585 289.568 223.413 290 223.413H339.54C339.972 223.413 340.387 223.585 340.693 223.89C340.998 224.195 341.17 224.609 341.17 225.041C341.168 225.469 340.996 225.879 340.693 226.182C340.39 226.484 339.979 226.656 339.55 226.658Z" fill="white"/>
<path opacity="0.4" d="M136.85 122.765H131.23V128.376H136.85V122.765Z" fill="black"/>
<path opacity="0.4" d="M146.33 122.765H143.59C142.795 122.765 142.15 123.408 142.15 124.202V126.938C142.15 127.732 142.795 128.376 143.59 128.376H146.33C147.126 128.376 147.77 127.732 147.77 126.938V124.202C147.77 123.408 147.126 122.765 146.33 122.765Z" fill="black"/>
<path opacity="0.4" d="M156.13 122.765H155.65C154.231 122.765 153.08 123.914 153.08 125.331V125.81C153.08 127.227 154.231 128.376 155.65 128.376H156.13C157.549 128.376 158.7 127.227 158.7 125.81V125.331C158.7 123.914 157.549 122.765 156.13 122.765Z" fill="black"/>
<path opacity="0.9" d="M148.45 261.106V258.919L147.33 258.819C147.17 258.11 146.885 257.433 146.49 256.822L147.21 255.954L145.66 254.406L144.79 255.125C144.178 254.73 143.501 254.446 142.79 254.286L142.69 253.168H140.5L140.39 254.286C139.679 254.447 139.002 254.731 138.39 255.125L137.52 254.406L135.97 255.954L136.69 256.822C136.286 257.429 136.001 258.107 135.85 258.819L134.72 258.919V261.106L135.85 261.216C136.002 261.928 136.287 262.606 136.69 263.213L135.97 264.092L137.52 265.629L138.39 264.91C138.998 265.313 139.676 265.597 140.39 265.749L140.5 266.877H142.69L142.79 265.749C143.503 265.598 144.182 265.313 144.79 264.91L145.66 265.629L147.21 264.092L146.49 263.213C146.889 262.604 147.174 261.927 147.33 261.216L148.45 261.106ZM141.56 262.973C140.966 262.973 140.386 262.798 139.893 262.468C139.4 262.139 139.015 261.671 138.788 261.124C138.561 260.577 138.502 259.974 138.617 259.393C138.733 258.812 139.019 258.279 139.438 257.86C139.858 257.441 140.393 257.155 140.974 257.04C141.556 256.924 142.16 256.984 142.708 257.21C143.256 257.437 143.724 257.821 144.054 258.314C144.384 258.806 144.56 259.385 144.56 259.978C144.56 260.772 144.244 261.534 143.681 262.096C143.118 262.658 142.355 262.973 141.56 262.973Z" fill="white"/>
<path opacity="0.6" d="M157.33 267.277V265.6L156.45 265.51C156.331 264.948 156.107 264.412 155.79 263.932L156.35 263.243L155.14 262.035L154.46 262.604C153.976 262.288 153.437 262.064 152.87 261.945L152.79 261.057H151.07L150.99 261.945C150.424 262.064 149.885 262.288 149.4 262.604L148.72 262.035L147.5 263.243L148.07 263.932C147.754 264.412 147.53 264.948 147.41 265.51L146.53 265.6V267.307L147.41 267.397C147.53 267.959 147.754 268.495 148.07 268.975L147.5 269.664L148.72 270.872L149.4 270.303C149.885 270.619 150.424 270.843 150.99 270.962L151.07 271.84H152.79L152.87 270.962C153.437 270.843 153.976 270.619 154.46 270.303L155.14 270.872L156.35 269.664L155.79 268.975C156.107 268.495 156.331 267.959 156.45 267.397L157.33 267.277ZM151.93 268.745C151.469 268.747 151.018 268.612 150.633 268.358C150.249 268.103 149.948 267.741 149.771 267.316C149.593 266.891 149.545 266.423 149.634 265.971C149.723 265.519 149.944 265.103 150.269 264.777C150.595 264.451 151.01 264.228 151.462 264.138C151.914 264.047 152.383 264.092 152.81 264.268C153.236 264.444 153.6 264.742 153.857 265.125C154.113 265.508 154.25 265.958 154.25 266.419C154.252 266.724 154.193 267.026 154.077 267.308C153.961 267.59 153.79 267.847 153.574 268.063C153.359 268.279 153.103 268.451 152.82 268.568C152.538 268.685 152.236 268.745 151.93 268.745Z" fill="white"/>
<path opacity="0.4" d="M148.45 272.14V270.702L147.71 270.632C147.611 270.159 147.425 269.709 147.16 269.304L147.64 268.735L146.64 267.737L146.06 268.206C145.655 267.942 145.204 267.756 144.73 267.657L144.66 266.918H143.2L143.13 267.657C142.657 267.756 142.206 267.942 141.8 268.206L141.22 267.737L140.22 268.735L140.7 269.304C140.436 269.709 140.25 270.159 140.15 270.632L139.4 270.702V272.14L140.15 272.21C140.248 272.687 140.434 273.141 140.7 273.548L140.22 274.117L141.22 275.116L141.8 274.636C142.203 274.907 142.655 275.097 143.13 275.195L143.2 275.934H144.64L144.71 275.195C145.186 275.097 145.638 274.907 146.04 274.636L146.62 275.116L147.62 274.117L147.14 273.548C147.406 273.141 147.593 272.687 147.69 272.21L148.45 272.14ZM143.92 273.368C143.537 273.358 143.165 273.236 142.851 273.016C142.537 272.796 142.295 272.489 142.155 272.132C142.015 271.776 141.983 271.386 142.064 271.012C142.145 270.637 142.335 270.295 142.609 270.028C142.884 269.76 143.231 269.58 143.608 269.509C143.985 269.438 144.374 269.479 144.728 269.628C145.081 269.776 145.383 270.026 145.595 270.345C145.807 270.664 145.92 271.038 145.92 271.421C145.92 271.681 145.868 271.938 145.767 272.178C145.666 272.418 145.518 272.634 145.332 272.816C145.145 272.997 144.924 273.14 144.682 273.235C144.44 273.329 144.181 273.375 143.92 273.368Z" fill="white"/>
<path d="M337.18 124.701L341.42 136.024L348.51 128.935L337.18 124.701Z" fill="#7B3FE4"/>
<path d="M344.009 129.938L342.425 131.52L345.939 135.029L347.523 133.447L344.009 129.938Z" fill="#7B3FE4"/>
<path opacity="0.4" d="M348.51 128.935L337.18 124.701L341.42 136.024L344.18 133.268L345.93 135.026L347.51 133.448L345.76 131.691L348.51 128.935Z" fill="white"/>
<path d="M163.46 165.17L174.13 169.164L168.54 163.583C168.333 163.701 168.093 163.749 167.856 163.718C167.62 163.688 167.4 163.58 167.23 163.413C167.023 163.206 166.907 162.926 166.907 162.634C166.907 162.342 167.023 162.062 167.23 161.855C167.437 161.649 167.717 161.533 168.01 161.533C168.303 161.533 168.583 161.649 168.79 161.855C168.958 162.025 169.065 162.244 169.096 162.481C169.127 162.717 169.079 162.957 168.96 163.163L174.55 168.745L170.55 158.091L167.01 158.87L166.88 157.602L166.21 156.933L162.29 160.847L162.96 161.516L164.24 161.646L163.46 165.17Z" fill="#263238"/>
<path opacity="0.2" d="M163.46 165.17L174.13 169.164L168.54 163.583C168.333 163.701 168.093 163.749 167.856 163.718C167.62 163.688 167.4 163.58 167.23 163.413C167.023 163.206 166.907 162.926 166.907 162.634C166.907 162.342 167.023 162.062 167.23 161.855C167.437 161.649 167.717 161.533 168.01 161.533C168.303 161.533 168.583 161.649 168.79 161.855C168.958 162.025 169.065 162.244 169.096 162.481C169.127 162.717 169.079 162.957 168.96 163.163L174.55 168.745L170.55 158.091L167.01 158.87L166.88 157.602L166.21 156.933L162.29 160.847L162.96 161.516L164.24 161.646L163.46 165.17Z" fill="white"/>
<g opacity="0.1">
<path d="M160.3 115.665L122.72 255.874V115.665H160.3Z" fill="white"/>
<path d="M202.71 115.665L157.68 283.662H126.66L171.68 115.665H202.71Z" fill="white"/>
<path d="M247.81 115.665L202.78 283.662H188.75L233.78 115.665H247.81Z" fill="white"/>
<path d="M289.34 115.665L244.31 283.662H239.29L284.32 115.665H289.34Z" fill="white"/>
</g>
<path d="M441.901 152.771C445.451 156.854 463.511 191.592 460.021 199.7C456.531 207.808 427.591 198.462 427.591 198.462L429.321 187.009C429.321 187.009 440.561 187.408 441.641 186.34C442.721 185.272 426.431 169.036 426.431 169.036L441.901 152.771Z" fill="#263238"/>
<g opacity="0.2">
<path d="M460 199.699C459.571 200.637 458.824 201.394 457.89 201.836L457.31 202.095H457.23C457.051 202.17 456.867 202.234 456.68 202.285C455.867 202.545 455.029 202.719 454.18 202.804L453.45 202.874C453.09 202.874 452.73 202.924 452.36 202.934H451.36C441.66 202.934 427.55 198.391 427.55 198.391L429.28 186.938C429.28 186.938 440.52 187.338 441.6 186.269C441.86 186.01 441.09 184.851 439.78 183.274C436.6 179.369 430.23 172.869 427.6 170.213L426.41 169.015L441.9 152.77C445.45 156.813 463.51 191.551 460 199.699Z" fill="white"/>
</g>
<path opacity="0.2" d="M457.91 201.807L457.33 202.066H457.25C457.071 202.141 456.888 202.205 456.7 202.256C455.888 202.516 455.05 202.69 454.2 202.775L453.47 202.845C453.11 202.845 452.75 202.895 452.38 202.905H451.38C441.68 202.905 427.57 198.362 427.57 198.362L429.3 186.909C429.3 186.909 441.96 187.977 443.04 186.909C443.24 186.49 441.84 185.072 439.77 183.265C436.59 179.36 430.22 172.86 427.59 170.204L434.91 162.396L440.48 161.797C440.48 161.797 452.81 181.727 457.91 201.807Z" fill="black"/>
<path d="M405.411 151.592C403.411 153.04 402.411 155.097 403.211 156.185L456.051 228.925C456.841 230.014 459.111 229.714 461.111 228.266C463.111 226.819 464.111 224.752 463.311 223.673L410.471 150.923C409.681 149.844 407.421 150.134 405.411 151.592Z" fill="#263238"/>
<path opacity="0.7" d="M410.47 150.923L463.31 223.663C464.1 224.741 463.11 226.798 461.11 228.256C459.11 229.714 456.84 229.994 456.06 228.915L403.22 156.165C403.019 155.786 402.929 155.357 402.963 154.929C402.997 154.501 403.152 154.091 403.41 153.748C403.68 153.267 404.017 152.827 404.41 152.44C404.717 152.124 405.052 151.837 405.41 151.582C407.42 150.144 409.68 149.844 410.47 150.923Z" fill="white"/>
<path opacity="0.3" d="M463.31 223.664C464.1 224.742 463.11 226.799 461.11 228.257C459.11 229.715 456.84 229.994 456.06 228.916C455.62 228.317 456.71 227.408 457.35 226.1L403.41 153.769C403.68 153.288 404.017 152.848 404.41 152.461L457.26 225.211C457.57 224.896 457.905 224.606 458.26 224.343C460.26 222.885 462.52 222.585 463.31 223.664Z" fill="black"/>
<path d="M398.87 149.575C397.18 151.373 396.6 153.569 397.58 154.498L463.28 215.915C464.28 216.834 466.43 216.115 468.12 214.308C469.81 212.501 470.39 210.314 469.41 209.375L403.71 147.958C402.73 147.049 400.56 147.778 398.87 149.575Z" fill="#7B3FE4"/>
<path opacity="0.7" d="M403.71 147.967L469.41 209.385C470.41 210.293 469.81 212.5 468.12 214.307C466.43 216.115 464.26 216.824 463.28 215.915L397.58 154.497C397.312 154.161 397.145 153.755 397.097 153.328C397.049 152.901 397.123 152.468 397.31 152.081C397.49 151.558 397.739 151.061 398.05 150.603C398.298 150.25 398.572 149.916 398.87 149.605C400.56 147.778 402.73 147.049 403.71 147.967Z" fill="white"/>
<path opacity="0.3" d="M469.411 209.385C470.411 210.293 469.811 212.5 468.121 214.307C466.431 216.114 464.261 216.823 463.281 215.915C462.741 215.406 463.641 214.317 464.021 212.919L397.311 152.101C397.49 151.577 397.739 151.08 398.051 150.623L463.761 212.051C464.002 211.696 464.273 211.362 464.571 211.052C466.261 209.185 468.431 208.466 469.411 209.385Z" fill="black"/>
<path d="M414.66 345.58L409.66 345.659C404.57 321.785 400.97 292.24 398.73 269.953C398.38 266.459 398.06 263.154 397.73 260.068C397.6 258.6 397.47 257.193 397.35 255.835C396.75 249.135 396.35 243.853 396.09 240.538C395.91 238.141 395.82 236.823 395.82 236.823H414L413.83 241.426L413.23 256.613L413.17 258.351L412.79 268.386L412.16 285.47C418.37 309.534 414.66 345.58 414.66 345.58Z" fill="#EBB376"/>
<path d="M455.26 344.301L450.33 345.23C440.46 320.597 431.19 289.054 425.16 267.017C424.23 263.603 423.37 260.407 422.6 257.512C422.6 257.362 422.53 257.222 422.49 257.082C420.97 251.331 419.8 246.748 419.07 243.842L418.2 240.318L436 237.242L437 244.731L438.49 255.714L438.78 257.871L439.78 265.37L442.49 285.48C452.77 308.145 455.26 344.301 455.26 344.301Z" fill="#EBB376"/>
<path opacity="0.2" d="M438.54 255.735L422.6 257.512C422.6 257.362 422.53 257.223 422.49 257.083C420.97 251.332 419.8 246.748 419.07 243.843L437.07 244.731L438.54 255.735Z" fill="black"/>
<path opacity="0.2" d="M413.791 241.426L413.231 256.613L413.171 258.35L397.771 260.058C397.641 258.59 397.511 257.182 397.391 255.824C396.791 249.124 396.391 243.842 396.131 240.527L413.791 241.426Z" fill="black"/>
<path d="M399.87 362.175C400.802 361.419 401.862 360.838 403 360.457C403 360.457 406.41 357.083 408.06 346.918L412.52 345.75C413.278 345.569 414.074 345.624 414.799 345.908C415.525 346.192 416.146 346.691 416.58 347.337C416.703 347.518 416.798 347.717 416.86 347.926C417.091 349.017 417.251 350.121 417.34 351.231C417.59 354.948 417.613 358.675 417.41 362.395H416.6L416.28 355.405C416.16 353.019 414.33 355.814 413.81 358.401C413.29 360.987 412.18 363.683 406.96 363.812C400.86 363.902 398.33 363.663 399.87 362.175Z" fill="#263238"/>
<path d="M416.74 347.477C417.03 345.101 417.12 340.967 417.12 340.967L407.2 342.065C407.2 342.065 408.4 346.768 407.41 350.303C412.41 348.935 416.74 347.477 416.74 347.477Z" fill="#263238"/>
<path d="M440.23 362.175C441.163 361.423 442.223 360.844 443.36 360.467C443.36 360.467 446.77 357.092 448.41 346.928L452.88 345.759C453.638 345.579 454.434 345.634 455.159 345.918C455.885 346.202 456.507 346.7 456.94 347.347C457.063 347.528 457.158 347.726 457.22 347.936C457.451 349.026 457.611 350.13 457.7 351.241C457.948 354.957 457.968 358.685 457.76 362.404H457L456.68 355.415C456.56 353.028 454.73 355.824 454.21 358.41C453.69 360.996 452.58 363.692 447.35 363.822C441.22 363.902 438.69 363.662 440.23 362.175Z" fill="#263238"/>
<path d="M457.091 347.477C457.391 345.101 457.481 340.967 457.481 340.967L447.561 342.065C447.561 342.065 448.761 346.768 447.771 350.303C452.771 348.935 457.091 347.477 457.091 347.477Z" fill="#263238"/>
<path d="M440.26 250.832L421.39 253.238L420.66 253.328L416.78 239.129L415.78 254.347L395.56 253.288C386.56 200.498 401.95 188.026 401.95 188.026L429.38 193.538C441.8 214.626 438.85 239.129 438.85 239.129L440.26 250.832Z" fill="#7B3FE4"/>
<path d="M414.281 122.255C414.281 124.332 413.361 126.01 412.281 126.01C411.201 126.01 410.221 124.332 410.221 122.255C410.221 120.178 411.141 118.501 412.281 118.501C413.421 118.501 414.281 120.178 414.281 122.255Z" stroke="#263238" stroke-width="0.5" stroke-linecap="round" stroke-linejoin="round"/>
<path d="M427.831 134.797C427.757 134.865 427.677 134.925 427.591 134.976C426.45 135.845 425.148 136.48 423.761 136.844C419.711 137.782 416.941 137.223 415.131 135.396C412.601 132.65 411.971 127.787 412.331 121.916C412.394 119.58 412.826 117.268 413.611 115.066C413.611 115.066 413.611 114.977 413.611 114.957C413.611 114.937 413.671 114.787 413.711 114.707C414.206 113.465 415.006 112.367 416.037 111.514C417.068 110.661 418.297 110.08 419.611 109.824C420.75 109.57 421.913 109.439 423.081 109.435C434.551 109.345 436.611 128.296 427.831 134.797Z" fill="#EBB376"/>
<path opacity="0.2" d="M427.591 135.006C426.441 135.824 425.139 136.405 423.761 136.714C419.711 137.652 416.941 136.963 415.131 135.106C417.555 135.705 420.108 135.494 422.401 134.507C423.248 134.195 424.154 134.078 425.053 134.164C425.952 134.251 426.819 134.539 427.591 135.006Z" fill="black"/>
<path d="M428.75 145.341C429.46 148.596 425.23 149.924 425.23 149.924C418.32 146.929 417.04 143.304 417.04 143.304C422.81 140.309 421.14 131.812 421.14 131.812L422.31 132.391L430.54 133.998C430.54 133.998 428.26 138.372 427.96 139.37C426.4 144.612 428.75 145.341 428.75 145.341Z" fill="#EBB376"/>
<path d="M413.601 115.017C413.601 115.017 412.971 123.005 420.601 126.49C420.601 126.49 423.871 134.827 428.681 134.937C435.251 135.097 441.031 125.781 438.761 116.285C435.791 103.964 417.101 102.965 413.601 115.017Z" fill="#263238"/>
<path d="M416.721 124.183C416.721 122.935 417.721 120.828 419.721 121.118C421.721 121.407 422.861 126.38 417.901 127.488C417.151 127.648 416.721 126.809 416.721 124.183Z" fill="#EBB376"/>
<path d="M427.59 106.49C427.59 106.49 419.93 104.553 415.69 107.638C410.74 111.233 408.86 114.947 414.69 120.718C414.69 120.718 427.56 116.555 431.84 117.433C434.342 117.937 436.797 118.649 439.18 119.56C440.11 111.073 431.87 104.753 427.59 106.49Z" fill="#263238"/>
<path d="M416.72 122.256C416.72 122.256 418.72 131.502 415.58 139.39C415.58 139.39 433.78 145.69 440.11 142.266C446.44 138.841 440.64 127.348 440.37 120.718C440.1 114.088 437.22 104.293 427.59 106.489C417.96 108.686 416.72 122.256 416.72 122.256Z" fill="#263238"/>
<path d="M410.171 121.666H417.861" stroke="#263238" stroke-width="0.5" stroke-linecap="round" stroke-linejoin="round"/>
<path opacity="0.2" d="M421.39 253.239L420.66 253.329L416.78 239.13C416.78 239.13 425.1 224.942 422.5 217.553C422.87 218.072 431.83 231.342 421.39 253.239Z" fill="black"/>
<path d="M405.81 144.622C405.81 144.622 414.96 141.367 428.75 145.341C442.54 149.315 443.06 155.176 443.06 155.176C443.06 155.176 434.32 174.957 432.94 197.353L397 196.015C397 196.015 392.71 164.403 405.81 144.622Z" fill="#263238"/>
<path opacity="0.2" d="M443.06 155.176C443.06 155.176 434.32 174.957 432.94 197.353L397 196.015C396.571 192.369 396.351 188.702 396.34 185.031C396.269 179.659 396.604 174.288 397.34 168.966C398.54 160.678 401.01 151.831 405.81 144.582C405.81 144.582 414.96 141.327 428.75 145.301C442.54 149.275 443.06 155.176 443.06 155.176Z" fill="white"/>
<path opacity="0.2" d="M405.31 170.354C405.31 170.354 403.82 179.46 396.31 185.072C396.239 179.699 396.573 174.328 397.31 169.006L405.31 170.354Z" fill="black"/>
<path d="M365.6 143.993L361.07 137.283C361.07 137.283 360.38 134.368 359.5 133.709C358.62 133.05 349.92 129.345 348.87 129.365C347.82 129.385 347.87 136.135 348.87 137.283C349.87 138.432 355.41 140.888 356.87 141.138C358.33 141.387 357.61 141.138 357.61 141.138L361.61 149.126L365.6 143.993Z" fill="#EBB376"/>
<path d="M405.81 144.622C396.106 148.681 386.742 153.509 377.81 159.061L363.18 139.091C363.18 139.091 359.24 140.309 357.78 147.159C357.78 147.159 365.29 175.726 375.05 178.561C384.81 181.397 405.33 170.304 405.33 170.304C405.33 170.304 411.27 155.466 405.81 144.622Z" fill="#263238"/>
<path opacity="0.2" d="M405.81 144.622C396.106 148.681 386.742 153.509 377.81 159.061L363.18 139.091C363.18 139.091 359.24 140.309 357.78 147.159C357.78 147.159 365.29 175.726 375.05 178.561C384.81 181.397 405.33 170.304 405.33 170.304C405.33 170.304 411.27 155.466 405.81 144.622Z" fill="white"/>
<path d="M415.061 143.365C415.061 143.365 418.251 166.17 428.361 167.089C438.471 168.007 443.001 151.113 441.291 149.116C439.581 147.119 426.551 143.215 415.061 143.365Z" fill="#263238"/>
<path opacity="0.3" d="M415.061 143.365C415.061 143.365 418.251 166.17 428.361 167.089C438.471 168.007 443.001 151.113 441.291 149.116C439.581 147.119 426.551 143.215 415.061 143.365Z" fill="white"/>
<path d="M55.3604 353.138H62.7704L63.3804 336.004H55.9704L55.3604 353.138Z" fill="#B97964"/>
<path d="M63.7901 352.279H54.7901C54.6419 352.276 54.4974 352.326 54.3822 352.419C54.2669 352.512 54.1883 352.643 54.1601 352.788L52.7001 359.368C52.6693 359.509 52.6666 359.654 52.6922 359.795C52.7178 359.936 52.7712 360.071 52.8493 360.192C52.9274 360.313 53.0286 360.417 53.1472 360.498C53.2658 360.58 53.3993 360.637 53.5401 360.666H53.7801C56.6901 360.616 58.7801 360.437 62.4601 360.437C64.7201 360.437 71.4601 360.676 74.6201 360.676C77.7801 360.676 78.1301 357.611 76.8601 357.331C71.1501 356.083 66.8601 354.336 65.0301 352.728C64.6886 352.427 64.2455 352.267 63.7901 352.279Z" fill="#263238"/>
<path d="M64.2998 353.308C64.2658 353.299 64.2354 353.279 64.2123 353.253C64.1891 353.226 64.1744 353.193 64.1698 353.158C64.1635 353.125 64.1679 353.091 64.1822 353.06C64.1966 353.03 64.2202 353.005 64.2498 352.989C64.5198 352.819 66.9098 351.351 67.7298 351.77C67.8224 351.813 67.9003 351.883 67.9536 351.97C68.007 352.057 68.0335 352.158 68.0298 352.26C68.0571 352.435 68.0372 352.614 67.9722 352.779C67.9072 352.944 67.7994 353.089 67.6598 353.198C67.2458 353.487 66.7431 353.622 66.2398 353.578C65.5853 353.557 64.935 353.467 64.2998 353.308ZM64.8098 353.058C65.6745 353.351 66.6181 353.305 67.4498 352.929C67.5364 352.85 67.6026 352.752 67.6426 352.642C67.6827 352.533 67.6955 352.415 67.6798 352.3C67.6798 352.16 67.6198 352.09 67.5698 352.09C67.4988 352.054 67.4195 352.036 67.3398 352.04C66.4395 352.217 65.581 352.562 64.8098 353.058Z" fill="#7B3FE4"/>
<path d="M64.2502 353.338C64.2241 353.321 64.203 353.297 64.1889 353.269C64.1749 353.241 64.1684 353.21 64.1702 353.178C64.1702 353.079 64.3602 350.952 65.1702 350.253C65.2695 350.164 65.3874 350.098 65.5154 350.06C65.6434 350.022 65.7783 350.013 65.9102 350.033C66.0432 350.034 66.1718 350.08 66.2752 350.164C66.3787 350.247 66.4509 350.363 66.4802 350.492C66.6302 351.271 65.1502 352.899 64.3802 353.318H64.3002L64.2502 353.338ZM65.4402 350.472C64.9213 351.138 64.6178 351.947 64.5702 352.789C65.3302 352.21 66.2702 350.982 66.1802 350.502C66.1802 350.502 66.1802 350.323 65.9202 350.323H65.8402C65.6928 350.321 65.5501 350.374 65.4402 350.472Z" fill="#7B3FE4"/>
<path opacity="0.2" d="M55.9704 336.014H63.3804L63.0604 344.85H55.6504L55.9704 336.014Z" fill="black"/>
<path d="M93.4902 353.688L101.14 354.496L102.57 338.041L94.9302 337.232L93.4902 353.688Z" fill="#B97964"/>
<path d="M101.94 352.039H93.0004C92.8532 352.04 92.7107 352.091 92.5962 352.184C92.4818 352.276 92.4022 352.405 92.3704 352.548L90.9104 359.138C90.8746 359.277 90.8666 359.421 90.887 359.562C90.9074 359.704 90.9558 359.84 91.0293 359.962C91.1028 360.085 91.2 360.192 91.3152 360.277C91.4304 360.362 91.5614 360.423 91.7004 360.456H91.9404C94.8504 360.407 96.9404 360.227 100.63 360.227C102.88 360.227 109.63 360.456 112.78 360.456C115.93 360.456 116.29 357.391 115.02 357.112C109.31 355.873 105.02 354.116 103.19 352.508C102.847 352.202 102.401 352.035 101.94 352.039Z" fill="#263238"/>
<path d="M102.451 353.068C102.417 353.058 102.386 353.039 102.363 353.013C102.34 352.986 102.325 352.953 102.321 352.918C102.313 352.884 102.318 352.848 102.335 352.817C102.351 352.786 102.378 352.762 102.411 352.748C102.671 352.579 105.061 351.111 105.881 351.54C105.973 351.581 106.052 351.648 106.105 351.733C106.159 351.819 106.185 351.919 106.181 352.02C106.205 352.195 106.185 352.374 106.122 352.54C106.059 352.705 105.955 352.853 105.821 352.968C105.399 353.248 104.895 353.379 104.391 353.338C103.736 353.317 103.086 353.227 102.451 353.068ZM102.961 352.828C103.827 353.118 104.77 353.068 105.601 352.689C105.688 352.611 105.755 352.513 105.795 352.403C105.835 352.293 105.847 352.175 105.831 352.059C105.831 351.92 105.771 351.86 105.721 351.86C105.655 351.82 105.577 351.803 105.501 351.81C104.609 351.984 103.76 352.33 103.001 352.828H102.961Z" fill="#7B3FE4"/>
<path d="M102.41 353.109C102.383 353.092 102.36 353.068 102.345 353.04C102.329 353.012 102.321 352.981 102.32 352.949C102.32 352.839 102.51 350.722 103.37 350.023C103.472 349.938 103.59 349.873 103.717 349.834C103.844 349.795 103.978 349.781 104.11 349.794C104.244 349.793 104.373 349.838 104.477 349.922C104.581 350.006 104.653 350.123 104.68 350.253C104.83 351.042 103.35 352.669 102.58 353.079H102.5L102.41 353.109ZM103.59 350.233C103.072 350.895 102.768 351.7 102.72 352.54C103.48 351.97 104.42 350.732 104.33 350.253C104.33 350.253 104.33 350.073 104.07 350.073H104C103.849 350.077 103.704 350.134 103.59 350.233Z" fill="#7B3FE4"/>
<path opacity="0.2" d="M94.9307 337.232L102.571 338.041L101.821 346.528L94.1807 345.72L94.9307 337.232Z" fill="black"/>
<path d="M59.0002 185.771H98.3302C102.06 206.15 113.76 278.251 105.33 342.535L92.0202 340.887C92.0202 340.887 93.2502 255.605 81.5102 224.063C80.1602 240.937 78.5102 258.89 77.1602 268.446C73.7402 291.961 66.4202 343.333 66.4202 343.333H52.9102C52.9102 343.333 55.6802 294.147 56.9602 271.042C58.3602 245.93 59.0002 190.923 59.0002 185.771Z" fill="#263238"/>
<path d="M106.89 345.589L90.4199 343.143L90.9299 338.59L108.06 340.836L106.89 345.589Z" fill="#7B3FE4"/>
<path d="M68.0903 343.423H52.1104V338.66L68.6904 338.351L68.0903 343.423Z" fill="#7B3FE4"/>
<path opacity="0.2" d="M81.5498 224.033C83.4797 229.56 84.948 235.238 85.9398 241.007C87.0398 226.03 82.6398 210.054 82.6398 210.054L81.5498 224.033Z" fill="black"/>
<path d="M57.9098 192.6L57.0098 197.342C57.0098 197.342 84.5198 200.897 101.63 200.797L101.03 197.542L57.9098 192.6Z" fill="#7B3FE4"/>
<path d="M113.74 151.532C113.74 151.532 123.25 181.487 129.74 183.484C136.23 185.481 152.74 160.728 152.74 160.728C152.74 160.728 167.57 160.588 168.23 159.58C168.89 158.571 164.38 148.137 163.3 148.127C162.22 148.117 149.3 152.97 148.81 153.788C148.32 154.607 133.49 168.766 132.81 168.347C132.13 167.927 126.49 150.124 126.49 150.124L113.74 151.532Z" fill="#B97964"/>
<path d="M154.7 159.11C154.818 159.086 154.935 159.056 155.05 159.02L154.88 158.91C154.826 158.981 154.765 159.048 154.7 159.11Z" fill="#B97964"/>
<path d="M108.34 148.077L109.5 150.204L114.91 160.189L116.04 162.255L131.23 156.983C131.23 156.983 124.91 133.439 122.72 131.022L108.34 148.077Z" fill="#7B3FE4"/>
<path opacity="0.4" d="M108.34 148.077L109.5 150.204L114.91 160.189L116.04 162.255L131.23 156.983C131.23 156.983 124.91 133.439 122.72 131.022L108.34 148.077Z" fill="white"/>
<path opacity="0.2" d="M109.5 150.203L114.91 160.188C118.26 153.628 117.29 144.642 117.29 144.642L109.5 150.203Z" fill="black"/>
<path d="M122.72 131.032C119.858 127.732 116.354 125.048 112.421 123.143C108.487 121.237 104.207 120.151 99.84 119.949C84.96 119.25 80.28 120.728 74.84 125.58C66.89 132.67 57 193.708 57 193.708C71.5093 197.741 86.5817 199.377 101.62 198.551C101.62 198.551 101.8 181.576 107.17 170.183C113.218 157.492 118.413 144.413 122.72 131.032Z" fill="#7B3FE4"/>
<path opacity="0.4" d="M57 193.708C71.5092 197.742 86.5812 199.381 101.62 198.561C101.62 198.561 101.62 196.464 101.91 193.259C102.03 191.741 102.21 189.964 102.46 188.046C102.71 186.129 103.07 183.943 103.46 181.766C103.7 180.598 103.98 179.419 104.28 178.251C104.977 175.478 105.928 172.774 107.12 170.173C107.78 168.775 108.42 167.388 109.04 166.03C110.11 163.653 111.13 161.347 112.04 159.14C114.04 154.497 115.74 150.253 117.16 146.539C118.16 143.873 119.06 141.486 119.79 139.44C120.6 137.153 121.24 135.276 121.71 133.878C122.32 132.031 122.62 131.022 122.62 131.022C122.123 130.401 121.589 129.811 121.02 129.255C115.439 123.762 108.061 120.465 100.24 119.969H99.74C88.4 119.44 82.99 120.169 78.65 122.695C77.2506 123.531 75.9404 124.508 74.74 125.61C73.6111 126.832 72.7224 128.255 72.12 129.804C70.2717 134.096 68.754 138.522 67.58 143.044L66.92 145.471C65.92 149.175 64.98 153.119 64.08 157.113C63.82 158.251 63.57 159.39 63.32 160.518C62.95 162.255 62.58 163.983 62.23 165.69C61.33 169.994 60.52 174.167 59.81 177.922C58.81 183.314 58 187.827 57.52 190.633C57.19 192.61 57 193.708 57 193.708ZM100.7 120.518C101.703 120.543 102.705 120.62 103.7 120.748C107.7 121.287 113.85 124.492 113.7 126.01C113.55 127.528 111.21 131.402 105.23 130.463C103.146 130.079 101.169 129.255 99.43 128.047C96.13 125.87 93.73 122.924 93.49 121.966C93.19 120.818 97.07 120.428 100.71 120.538L100.7 120.518Z" fill="white"/>
<path d="M87.8799 140.868C87.8799 140.868 79.9999 159.91 78.3799 175.736L99.6899 178.452C99.6899 178.452 109.25 152.72 111.23 144.672C111.23 144.652 94.2099 142.955 87.8799 140.868Z" fill="#7B3FE4"/>
<path opacity="0.4" d="M107.07 145.401L110.03 145.691L107.86 147.368L107.07 145.401Z" fill="white"/>
<path d="M95.4707 122.017C97.0807 126.61 103.071 128.707 106.211 129.006C107.367 129.188 108.551 128.986 109.581 128.43C110.611 127.874 111.43 126.996 111.911 125.931C111.911 125.931 108.321 124.143 108.681 122.136C108.935 120.909 109.439 119.747 110.161 118.722C110.535 118.136 110.942 117.573 111.381 117.034L105.631 104.723C104.351 110.055 100.421 120.299 95.4707 122.017Z" fill="#B97964"/>
<path opacity="0.2" d="M105.4 110.403C102.66 116.394 106.53 120.518 108.68 122.096C108.935 120.868 109.438 119.706 110.16 118.681L105.4 110.403Z" fill="black"/>
<path d="M124.68 94.4182C124.68 94.4182 126.52 104.563 121.22 108.627C115.92 112.691 115.38 93.7393 115.38 93.7393L124.68 94.4182Z" fill="#B97964"/>
<path opacity="0.4" d="M124.68 94.4182C124.68 94.4182 126.52 104.563 121.22 108.627C115.92 112.691 115.38 93.7393 115.38 93.7393L124.68 94.4182Z" fill="black"/>
<path d="M105.731 117.164C106.912 118.808 108.602 120.021 110.54 120.614C112.479 121.208 114.559 121.149 116.461 120.449C118.945 119.578 121.002 117.792 122.211 115.456C122.381 115.147 122.531 114.807 122.681 114.458C125.161 108.157 125.681 92.7802 119.001 93.3494C113.481 93.8187 108.081 92.1212 105.261 96.884C104.455 98.239 103.982 99.765 103.881 101.337C103.281 108.686 102.581 112.95 105.731 117.164Z" fill="#B97964"/>
<path d="M114.61 104.972C114.49 105.551 114.77 106.08 115.16 106.14C115.55 106.2 115.93 105.751 116.02 105.142C116.11 104.533 115.85 104.033 115.47 103.983C115.09 103.933 114.7 104.373 114.61 104.972Z" fill="#263238"/>
<path d="M121.3 105.92C121.18 106.5 121.47 107.029 121.85 107.089C122.23 107.149 122.62 106.699 122.7 106.09C122.78 105.481 122.54 104.982 122.15 104.922C121.76 104.862 121.38 105.361 121.3 105.92Z" fill="#263238"/>
<path d="M119.13 105.91C119.581 107.815 120.291 109.649 121.24 111.362C120.792 111.594 120.299 111.726 119.795 111.749C119.29 111.771 118.787 111.684 118.32 111.492L119.13 105.91Z" fill="#A24E3F"/>
<path d="M112.851 102.516C112.912 102.534 112.976 102.535 113.038 102.519C113.1 102.504 113.156 102.471 113.201 102.426C113.507 102.111 113.882 101.871 114.297 101.726C114.711 101.58 115.154 101.533 115.591 101.587C115.682 101.605 115.777 101.587 115.855 101.537C115.933 101.487 115.989 101.408 116.011 101.318C116.021 101.273 116.022 101.227 116.014 101.182C116.006 101.137 115.988 101.094 115.963 101.055C115.938 101.017 115.905 100.984 115.867 100.959C115.829 100.934 115.786 100.916 115.741 100.908C115.197 100.829 114.643 100.878 114.122 101.051C113.601 101.224 113.128 101.517 112.741 101.907C112.676 101.974 112.64 102.063 112.64 102.156C112.64 102.249 112.676 102.339 112.741 102.406C112.772 102.447 112.809 102.484 112.851 102.516Z" fill="#263238"/>
<path d="M124.5 104.023C124.565 104.048 124.636 104.048 124.7 104.023C124.745 104.012 124.787 103.992 124.823 103.963C124.859 103.935 124.889 103.9 124.91 103.859C124.932 103.819 124.945 103.774 124.948 103.729C124.952 103.683 124.946 103.637 124.93 103.594C124.772 103.062 124.487 102.575 124.101 102.175C123.715 101.776 123.238 101.475 122.71 101.297C122.666 101.284 122.62 101.279 122.574 101.284C122.529 101.289 122.484 101.303 122.444 101.325C122.404 101.348 122.369 101.378 122.34 101.414C122.312 101.451 122.292 101.493 122.28 101.537C122.256 101.626 122.267 101.721 122.312 101.801C122.357 101.881 122.432 101.941 122.52 101.966C122.934 102.118 123.307 102.364 123.609 102.685C123.911 103.006 124.134 103.392 124.26 103.814C124.28 103.866 124.312 103.912 124.354 103.948C124.396 103.985 124.446 104.011 124.5 104.023Z" fill="#263238"/>
<path d="M113.681 111.752C113.681 111.752 114.911 114.388 117.421 114.288" stroke="#263238" stroke-width="0.5" stroke-linecap="round" stroke-linejoin="round"/>
<path d="M110.49 93.0898L110.59 96.345C110.02 96.5517 109.55 96.9662 109.273 97.5053C108.997 98.0443 108.935 98.6679 109.1 99.2506C109.88 102.046 107.95 106.1 105.72 107.578C105.72 107.578 105.72 106.4 104.72 106.58C103.72 106.759 103.41 112.89 105.06 115.975C105.06 115.975 101.53 112.73 100.48 106.17C99.4804 100.109 99.6704 96.2651 100.48 93.3594L110.49 93.0898Z" fill="#B97964"/>
<path opacity="0.4" d="M110.49 93.0898L110.59 96.345C110.02 96.5517 109.55 96.9662 109.273 97.5053C108.997 98.0443 108.935 98.6679 109.1 99.2506C109.88 102.046 107.95 106.1 105.72 107.578C105.72 107.578 105.72 106.4 104.72 106.58C103.72 106.759 103.41 112.89 105.06 115.975C105.06 115.975 101.53 112.73 100.48 106.17C99.4804 100.109 99.6704 96.2651 100.48 93.3594L110.49 93.0898Z" fill="black"/>
<path d="M99.9203 96.9939C103.489 97.3427 107.09 97.1237 110.59 96.3449C120.66 94.3479 124.95 98.0423 124.95 98.0423C125.647 97.4166 126.196 96.6441 126.557 95.7807C126.919 94.9173 127.084 93.9846 127.04 93.0499C126.75 90.1542 122.72 89.665 122.72 89.665C122.72 89.665 121.51 86.3999 118.84 85.4113C116.17 84.4228 113.49 86.8991 113.49 86.8991C113.49 86.8991 110.16 83.6839 106.28 84.6026C104.974 84.8702 103.8 85.5775 102.953 86.6062C102.107 87.635 101.64 88.9227 101.63 90.2541C101.63 90.2541 97.0803 90.7134 97.1803 93.0499C97.2803 95.3863 99.9203 96.9939 99.9203 96.9939Z" fill="#263238"/>
<path d="M115.39 109.225C117.196 109.225 118.66 107.54 118.66 105.461C118.66 103.382 117.196 101.696 115.39 101.696C113.584 101.696 112.12 103.382 112.12 105.461C112.12 107.54 113.584 109.225 115.39 109.225Z" stroke="#263238" stroke-width="0.5" stroke-linecap="round" stroke-linejoin="round"/>
<path d="M126.88 106.02C126.79 106.645 126.522 107.231 126.108 107.709C125.693 108.186 125.151 108.534 124.544 108.712C123.937 108.89 123.292 108.89 122.685 108.713C122.078 108.535 121.535 108.187 121.121 107.71C120.706 107.233 120.438 106.647 120.347 106.022C120.257 105.397 120.348 104.759 120.611 104.184C120.873 103.61 121.295 103.123 121.827 102.781C122.358 102.439 122.977 102.257 123.61 102.256C124.541 102.327 125.407 102.763 126.019 103.467C126.631 104.172 126.94 105.089 126.88 106.02Z" stroke="#263238" stroke-width="0.5" stroke-linecap="round" stroke-linejoin="round"/>
<path d="M118.65 105.911C118.65 105.911 119.71 105.251 120.34 106.021" stroke="#263238" stroke-width="0.5" stroke-linecap="round" stroke-linejoin="round"/>
<path d="M112.12 105.461L106.39 104.692C105.639 104.596 104.88 104.8 104.28 105.262L104.03 105.461" stroke="#263238" stroke-width="0.5" stroke-linecap="round" stroke-linejoin="round"/>
<path d="M99.8601 106.839C100.435 108.595 101.682 110.052 103.33 110.893C105.52 111.981 107.08 110.144 106.86 107.837C106.66 105.78 105.29 102.685 102.86 102.565C102.341 102.548 101.827 102.66 101.362 102.891C100.898 103.123 100.499 103.466 100.201 103.891C99.903 104.315 99.7158 104.807 99.6563 105.322C99.5968 105.836 99.6669 106.358 99.8601 106.839Z" fill="#B97964"/>
<path opacity="0.2" d="M63.3203 160.547C72.7603 156.633 80.2203 140.468 80.2203 140.468L74.8603 137.232L67.5803 143.074L66.9203 145.5C65.9203 149.204 64.9803 153.148 64.0803 157.142C63.8203 158.281 63.5703 159.419 63.3203 160.547Z" fill="black"/>
<path d="M115.311 162.265L131.591 156.294L132.061 157.672L115.771 163.463L115.311 162.265Z" fill="#7B3FE4"/>
<path d="M73.1289 203.355L25.9385 195.884L21.3233 224.946L68.5137 232.418L73.1289 203.355Z" fill="#7B3FE4"/>
<path d="M42.63 206.948L33.04 211.911L40.62 219.589" stroke="white" stroke-width="2" stroke-linecap="round" stroke-linejoin="round"/>
<path d="M51.79 221.356L61.37 216.393L53.8 208.715" stroke="white" stroke-width="2" stroke-linecap="round" stroke-linejoin="round"/>
<path d="M43.96 220.119L50.46 208.187" stroke="white" stroke-width="2" stroke-linecap="round" stroke-linejoin="round"/>
<path d="M69.2103 128.187C69.2103 128.187 51.4203 146.01 49.0003 149.474C46.5803 152.939 41.9403 191.351 41.9403 191.351C41.9403 191.351 40.9403 191.691 40.8803 192.52C40.8203 193.348 40.7203 204.132 40.8803 204.631C41.0403 205.131 49.2203 210.173 50.4303 208.975C51.6403 207.777 53.3203 195.565 53.3203 195.565L49.0003 191.351C49.0003 191.351 54.0003 163.064 57.1703 158.481C60.3403 153.898 73.2603 144.093 73.2603 144.093L69.2103 128.187Z" fill="#B97964"/>
<path d="M82.88 121.007C85.47 126.489 83.5 138.031 78.72 142.105C73.6624 146.293 68.3159 150.12 62.72 153.558L54 142.145C54 142.145 63.28 133.099 68.9 127.886C72.7224 124.187 77.6129 121.78 82.88 121.007Z" fill="#7B3FE4"/>
<path opacity="0.4" d="M82.88 121.007C85.47 126.489 83.5 138.031 78.72 142.105C73.6624 146.293 68.3159 150.12 62.72 153.558L54 142.145C54 142.145 63.28 133.099 68.9 127.886C72.7224 124.187 77.6129 121.78 82.88 121.007Z" fill="white"/>
<path d="M53.9999 141.417L52.9199 142.885L62.0299 154.777L63.3199 153.858L53.9999 141.417Z" fill="#7B3FE4"/>
</svg>
