<svg width="504" height="499" viewBox="0 0 504 499" fill="none" xmlns="http://www.w3.org/2000/svg">
<path d="M421.914 139.323C421.914 139.323 425.477 129.039 436.189 128.774C446.901 128.509 443.05 135.108 454.303 134.048C465.557 132.989 461.441 120.333 479.013 117.696C496.586 115.058 504 139.323 504 139.323H421.914Z" fill="white"/>
<path d="M236.262 16.3068C236.262 16.3068 238.925 8.62564 246.916 8.42987C254.907 8.2341 252.047 13.1514 260.453 12.3684C268.859 11.5853 265.78 2.11908 278.902 0.14984C292.023 -1.8194 297.558 16.2723 297.558 16.2723L236.262 16.3068Z" fill="white"/>
<path d="M0 93.8093C0 93.8093 2.38682 86.8997 9.53576 86.7615C16.6847 86.6233 14.148 90.9879 21.6313 90.2854C29.1146 89.5829 26.3934 81.0726 38.12 79.3682C49.8465 77.6638 54.7931 93.8093 54.7931 93.8093H0Z" fill="white"/>
<path d="M277.747 49.3691H114.279C96.1485 49.3691 81.4512 64.048 81.4512 82.1553V465.202C81.4512 483.309 96.1485 497.988 114.279 497.988H277.747C295.877 497.988 310.575 483.309 310.575 465.202V82.1553C310.575 64.048 295.877 49.3691 277.747 49.3691Z" fill="white"/>
<path d="M277.759 60.6088C283.482 60.6149 288.968 62.8881 293.015 66.9297C297.062 70.9713 299.338 76.4511 299.344 82.1668V465.213C299.338 470.929 297.062 476.409 293.015 480.45C288.968 484.492 283.482 486.765 277.759 486.771H114.279C108.556 486.765 103.069 484.492 99.0223 480.45C94.9757 476.409 92.6996 470.929 92.6935 465.213V82.1553C92.7026 76.4416 94.9801 70.9648 99.0264 66.9256C103.073 62.8865 108.558 60.6149 114.279 60.6088H277.759ZM277.759 49.3807H114.279C105.572 49.3807 97.2225 52.8349 91.0661 58.9835C84.9098 65.1321 81.4512 73.4714 81.4512 82.1668V465.213C81.4512 473.909 84.9098 482.248 91.0661 488.397C97.2225 494.545 105.572 497.999 114.279 497.999H277.759C286.457 497.987 294.795 494.528 300.941 488.38C307.088 482.233 310.54 473.901 310.54 465.213V82.1553C310.54 77.8498 309.691 73.5864 308.041 69.6086C306.391 65.6308 303.973 62.0165 300.925 58.972C297.877 55.9275 294.258 53.5125 290.275 51.8648C286.292 50.2172 282.023 49.3691 277.713 49.3691L277.759 49.3807Z" fill="#060000"/>
<path d="M247.123 50.498H144.882V62.3826C144.88 63.6352 145.126 64.8758 145.605 66.0334C146.085 67.1909 146.788 68.2427 147.675 69.1284C148.562 70.0142 149.615 70.7165 150.774 71.1951C151.933 71.6738 153.175 71.9194 154.429 71.9179H237.622C240.146 71.9057 242.563 70.8957 244.343 69.1088C246.124 67.3219 247.123 64.9035 247.123 62.3826V50.498Z" fill="#060000"/>
<path d="M176.982 59.4102H216.209" stroke="white" stroke-width="0.76" stroke-linecap="round" stroke-linejoin="round"/>
<path d="M236.859 332.997H120.043C114.993 332.997 110.899 337.086 110.899 342.129V439.578C110.899 444.622 114.993 448.71 120.043 448.71H236.859C241.909 448.71 246.003 444.622 246.003 439.578V342.129C246.003 337.086 241.909 332.997 236.859 332.997Z" fill="#E2EDFF"/>
<path d="M160.287 349.188H133.432C131.426 349.188 129.8 350.813 129.8 352.816V379.637C129.8 381.64 131.426 383.264 133.432 383.264H160.287C162.293 383.264 163.919 381.64 163.919 379.637V352.816C163.919 350.813 162.293 349.188 160.287 349.188Z" fill="white"/>
<path d="M175.563 359.934H206.396" stroke="black" stroke-width="1.3" stroke-linecap="round" stroke-linejoin="round"/>
<path d="M175.563 370.897H225.283" stroke="black" stroke-width="1.3" stroke-linecap="round" stroke-linejoin="round"/>
<path d="M129.8 397.441H163.919" stroke="white" stroke-width="1.3" stroke-linecap="round" stroke-linejoin="round"/>
<path d="M129.8 408.763H225.284" stroke="white" stroke-width="1.3" stroke-linecap="round" stroke-linejoin="round"/>
<path d="M129.8 421.234H225.284" stroke="white" stroke-width="1.3" stroke-linecap="round" stroke-linejoin="round"/>
<path d="M60.2764 166.678C63.7836 151.997 54.7109 137.257 40.0119 133.754C25.3129 130.251 10.5539 139.312 7.04666 153.993C3.53945 168.673 12.6122 183.414 27.3112 186.917C42.0101 190.419 56.7692 181.358 60.2764 166.678Z" fill="#DC761C"/>
<path d="M22.6455 161.639L31.2358 167.996L45.9487 152.749" stroke="white" stroke-width="2.14" stroke-linecap="round" stroke-linejoin="round"/>
<path d="M140.556 232.739H48.9463C45.6412 232.739 42.9619 235.415 42.9619 238.716V302.457C42.9619 305.758 45.6412 308.434 48.9463 308.434H140.556C143.861 308.434 146.541 305.758 146.541 302.457V238.716C146.541 235.415 143.861 232.739 140.556 232.739Z" fill="#410EAD"/>
<path d="M110.716 264.443C110.72 261.929 110.144 259.448 109.033 257.193C107.921 254.938 106.303 252.97 104.306 251.441C102.308 249.913 99.9841 248.865 97.5149 248.379C95.0456 247.894 92.4975 247.983 90.0687 248.642C87.6399 249.3 85.3958 250.509 83.5111 252.175C81.6264 253.84 80.1518 255.918 79.2021 258.246C78.2523 260.573 77.853 263.088 78.0351 265.595C78.2172 268.102 78.9759 270.533 80.2521 272.7C80.8727 273.755 81.6116 274.736 82.4545 275.625L94.3194 291.309L106.161 275.636C107.013 274.738 107.763 273.75 108.398 272.688C109.896 270.196 110.697 267.349 110.716 264.443ZM94.354 271.559C92.9282 271.562 91.5337 271.142 90.3471 270.352C89.1605 269.563 88.235 268.439 87.6878 267.124C87.1405 265.809 86.9962 264.362 87.2729 262.965C87.5497 261.568 88.2352 260.284 89.2426 259.277C90.25 258.269 91.534 257.582 92.9323 257.304C94.3305 257.025 95.7801 257.167 97.0976 257.711C98.4152 258.256 99.5413 259.178 100.334 260.362C101.126 261.546 101.549 262.938 101.549 264.362C101.546 266.267 100.787 268.093 99.4383 269.44C98.0896 270.787 96.2613 271.545 94.354 271.548V271.559Z" fill="white"/>
<path d="M274.981 105.89H116.989C111.939 105.89 107.846 109.978 107.846 115.022V212.471C107.846 217.514 111.939 221.603 116.989 221.603H274.981C280.031 221.603 284.125 217.514 284.125 212.471V115.022C284.125 109.978 280.031 105.89 274.981 105.89Z" fill="white"/>
<path d="M149.067 133.482H125.521C123.764 133.482 122.339 134.905 122.339 136.661V160.177C122.339 161.932 123.764 163.355 125.521 163.355H149.067C150.824 163.355 152.249 161.932 152.249 160.177V136.661C152.249 134.905 150.824 133.482 149.067 133.482Z" fill="#E2EDFF"/>
<path d="M187.175 133.482H163.63C161.872 133.482 160.447 134.905 160.447 136.661V160.177C160.447 161.932 161.872 163.355 163.63 163.355H187.175C188.933 163.355 190.357 161.932 190.357 160.177V136.661C190.357 134.905 188.933 133.482 187.175 133.482Z" fill="#E2EDFF"/>
<path d="M225.284 133.482H201.739C199.981 133.482 198.557 134.905 198.557 136.661V160.177C198.557 161.932 199.981 163.355 201.739 163.355H225.284C227.042 163.355 228.467 161.932 228.467 160.177V136.661C228.467 134.905 227.042 133.482 225.284 133.482Z" fill="#E2EDFF"/>
<path d="M263.392 133.482H239.847C238.089 133.482 236.664 134.905 236.664 136.661V160.177C236.664 161.932 238.089 163.355 239.847 163.355H263.392C265.149 163.355 266.574 161.932 266.574 160.177V136.661C266.574 134.905 265.149 133.482 263.392 133.482Z" fill="#DC761C"/>
<path d="M149.067 173.778H125.521C123.764 173.778 122.339 175.201 122.339 176.957V200.472C122.339 202.228 123.764 203.651 125.521 203.651H149.067C150.824 203.651 152.249 202.228 152.249 200.472V176.957C152.249 175.201 150.824 173.778 149.067 173.778Z" fill="#E2EDFF"/>
<path d="M187.175 173.778H163.63C161.872 173.778 160.447 175.201 160.447 176.957V200.472C160.447 202.228 161.872 203.651 163.63 203.651H187.175C188.933 203.651 190.357 202.228 190.357 200.472V176.957C190.357 175.201 188.933 173.778 187.175 173.778Z" fill="#E2EDFF"/>
<path d="M225.284 173.778H201.739C199.981 173.778 198.557 175.201 198.557 176.957V200.472C198.557 202.228 199.981 203.651 201.739 203.651H225.284C227.042 203.651 228.467 202.228 228.467 200.472V176.957C228.467 175.201 227.042 173.778 225.284 173.778Z" fill="#E2EDFF"/>
<path d="M263.392 173.778H239.847C238.089 173.778 236.664 175.201 236.664 176.957V200.472C236.664 202.228 238.089 203.651 239.847 203.651H263.392C265.149 203.651 266.574 202.228 266.574 200.472V176.957C266.574 175.201 265.149 173.778 263.392 173.778Z" fill="#E2EDFF"/>
<path d="M136.871 123.374C136.12 123.374 135.472 123.197 134.929 122.842C134.386 122.487 133.969 121.998 133.677 121.375C133.384 120.752 133.238 120.04 133.238 119.24C133.238 118.425 133.388 117.707 133.687 117.084C133.99 116.457 134.411 115.968 134.95 115.617C135.493 115.262 136.127 115.084 136.85 115.084C137.414 115.084 137.922 115.189 138.375 115.398C138.827 115.606 139.198 115.899 139.487 116.275C139.775 116.65 139.955 117.089 140.024 117.59H138.792C138.698 117.225 138.49 116.901 138.166 116.619C137.846 116.334 137.414 116.191 136.871 116.191C136.391 116.191 135.97 116.316 135.608 116.567C135.25 116.814 134.969 117.164 134.768 117.616C134.569 118.065 134.47 118.592 134.47 119.198C134.47 119.817 134.567 120.357 134.762 120.816C134.961 121.276 135.239 121.632 135.598 121.886C135.959 122.14 136.384 122.267 136.871 122.267C137.191 122.267 137.482 122.212 137.743 122.1C138.004 121.989 138.225 121.829 138.406 121.62C138.587 121.411 138.716 121.161 138.792 120.868H140.024C139.955 121.342 139.782 121.768 139.507 122.147C139.236 122.523 138.876 122.822 138.427 123.045C137.981 123.264 137.463 123.374 136.871 123.374ZM145.312 115.189V116.233H141.157V115.189H145.312ZM142.368 113.268H143.6V120.91C143.6 121.258 143.651 121.519 143.751 121.693C143.856 121.864 143.988 121.979 144.148 122.038C144.312 122.093 144.484 122.121 144.665 122.121C144.801 122.121 144.912 122.114 144.999 122.1C145.086 122.083 145.156 122.069 145.208 122.059L145.458 123.165C145.375 123.197 145.258 123.228 145.109 123.259C144.959 123.294 144.769 123.311 144.54 123.311C144.192 123.311 143.851 123.237 143.517 123.087C143.186 122.937 142.911 122.709 142.692 122.403C142.476 122.097 142.368 121.711 142.368 121.244V113.268ZM150.337 123.374C149.613 123.374 148.978 123.202 148.431 122.857C147.888 122.513 147.464 122.031 147.158 121.411C146.855 120.792 146.703 120.068 146.703 119.24C146.703 118.404 146.855 117.675 147.158 117.052C147.464 116.43 147.888 115.946 148.431 115.601C148.978 115.257 149.613 115.084 150.337 115.084C151.061 115.084 151.694 115.257 152.237 115.601C152.783 115.946 153.208 116.43 153.511 117.052C153.817 117.675 153.97 118.404 153.97 119.24C153.97 120.068 153.817 120.792 153.511 121.411C153.208 122.031 152.783 122.513 152.237 122.857C151.694 123.202 151.061 123.374 150.337 123.374ZM150.337 122.267C150.887 122.267 151.339 122.126 151.694 121.845C152.049 121.563 152.312 121.192 152.482 120.733C152.653 120.273 152.738 119.776 152.738 119.24C152.738 118.704 152.653 118.204 152.482 117.742C152.312 117.279 152.049 116.905 151.694 116.619C151.339 116.334 150.887 116.191 150.337 116.191C149.787 116.191 149.334 116.334 148.979 116.619C148.624 116.905 148.362 117.279 148.191 117.742C148.021 118.204 147.935 118.704 147.935 119.24C147.935 119.776 148.021 120.273 148.191 120.733C148.362 121.192 148.624 121.563 148.979 121.845C149.334 122.126 149.787 122.267 150.337 122.267ZM156.018 123.207V112.516H157.25V116.463H157.354C157.444 116.323 157.57 116.146 157.73 115.93C157.893 115.711 158.126 115.516 158.429 115.345C158.736 115.171 159.15 115.084 159.672 115.084C160.347 115.084 160.942 115.253 161.457 115.591C161.972 115.928 162.374 116.407 162.663 117.026C162.952 117.646 163.096 118.377 163.096 119.219C163.096 120.068 162.952 120.804 162.663 121.427C162.374 122.046 161.974 122.527 161.462 122.868C160.951 123.205 160.361 123.374 159.693 123.374C159.177 123.374 158.765 123.289 158.455 123.118C158.146 122.944 157.907 122.748 157.74 122.528C157.573 122.306 157.444 122.121 157.354 121.975H157.208V123.207H156.018ZM157.229 119.198C157.229 119.803 157.317 120.338 157.495 120.801C157.672 121.26 157.932 121.62 158.273 121.881C158.614 122.139 159.031 122.267 159.526 122.267C160.041 122.267 160.47 122.132 160.815 121.86C161.163 121.585 161.424 121.216 161.598 120.754C161.775 120.287 161.864 119.769 161.864 119.198C161.864 118.634 161.777 118.126 161.603 117.674C161.433 117.218 161.173 116.858 160.825 116.593C160.481 116.325 160.048 116.191 159.526 116.191C159.024 116.191 158.603 116.318 158.262 116.572C157.921 116.823 157.664 117.174 157.49 117.627C157.316 118.076 157.229 118.599 157.229 119.198ZM168.342 123.374C167.57 123.374 166.903 123.204 166.343 122.863C165.786 122.518 165.356 122.038 165.054 121.422C164.754 120.802 164.605 120.082 164.605 119.261C164.605 118.439 164.754 117.715 165.054 117.089C165.356 116.459 165.778 115.968 166.317 115.617C166.86 115.262 167.493 115.084 168.217 115.084C168.635 115.084 169.047 115.154 169.454 115.293C169.861 115.432 170.232 115.659 170.566 115.972C170.9 116.282 171.166 116.692 171.365 117.204C171.563 117.715 171.662 118.345 171.662 119.094V119.616H165.482V118.551H170.41C170.41 118.098 170.319 117.695 170.138 117.34C169.961 116.985 169.707 116.704 169.376 116.499C169.049 116.294 168.663 116.191 168.217 116.191C167.726 116.191 167.302 116.313 166.943 116.557C166.588 116.797 166.315 117.11 166.124 117.496C165.932 117.882 165.837 118.297 165.837 118.739V119.449C165.837 120.054 165.941 120.567 166.15 120.988C166.362 121.406 166.656 121.725 167.032 121.944C167.408 122.16 167.845 122.267 168.342 122.267C168.666 122.267 168.958 122.222 169.219 122.132C169.484 122.038 169.712 121.899 169.903 121.714C170.095 121.526 170.243 121.293 170.347 121.015L171.537 121.349C171.412 121.752 171.201 122.107 170.905 122.414C170.61 122.716 170.244 122.953 169.809 123.124C169.374 123.291 168.885 123.374 168.342 123.374ZM173.536 123.207V115.189H174.727V116.4H174.81C174.956 116.003 175.221 115.681 175.604 115.434C175.986 115.187 176.418 115.064 176.898 115.064C176.989 115.064 177.102 115.065 177.238 115.069C177.373 115.072 177.476 115.077 177.546 115.084V116.337C177.504 116.327 177.408 116.311 177.258 116.29C177.112 116.266 176.957 116.254 176.794 116.254C176.404 116.254 176.056 116.336 175.75 116.499C175.447 116.659 175.207 116.882 175.029 117.167C174.855 117.449 174.768 117.771 174.768 118.133V123.207H173.536Z" fill="#DC761C"/>
<path d="M278.14 232.739H174.78C171.475 232.739 168.796 235.415 168.796 238.716V302.457C168.796 305.758 171.475 308.434 174.78 308.434H278.14C281.445 308.434 284.124 305.758 284.124 302.457V238.716C284.124 235.415 281.445 232.739 278.14 232.739Z" fill="white"/>
<path d="M268.454 241.33H186.518C184.761 241.33 183.336 242.753 183.336 244.509V255.357C183.336 257.112 184.761 258.535 186.518 258.535H268.454C270.212 258.535 271.637 257.112 271.637 255.357V244.509C271.637 242.753 270.212 241.33 268.454 241.33Z" fill="#9BBDF9"/>
<path d="M184.489 269.811H224.731" stroke="black" stroke-width="1.3" stroke-linecap="round" stroke-linejoin="round"/>
<path d="M184.489 279.599H270.484" stroke="black" stroke-width="1.3" stroke-linecap="round" stroke-linejoin="round"/>
<path d="M184.489 290.389H270.484" stroke="black" stroke-width="1.3" stroke-linecap="round" stroke-linejoin="round"/>
<path d="M333.578 357.63H273.654C269.635 357.63 266.378 360.883 266.378 364.896V416.799C266.378 420.812 269.635 424.066 273.654 424.066H333.578C337.596 424.066 340.854 420.812 340.854 416.799V364.896C340.854 360.883 337.596 357.63 333.578 357.63Z" fill="#DC761C"/>
<path d="M318.37 387.952L315.925 387.526C315.639 386.463 315.217 385.441 314.669 384.486L316.087 382.448C316.344 382.087 316.464 381.647 316.426 381.206C316.388 380.765 316.194 380.352 315.879 380.041L314.415 378.578C314.097 378.273 313.681 378.089 313.241 378.057C312.801 378.026 312.364 378.149 312.005 378.405L309.976 379.833C309.019 379.279 307.991 378.856 306.92 378.578L306.505 376.079C306.432 375.65 306.212 375.259 305.881 374.975C305.55 374.691 305.131 374.532 304.695 374.525H302.573C302.13 374.519 301.699 374.673 301.361 374.959C301.022 375.244 300.797 375.642 300.728 376.079L300.29 378.509C299.225 378.798 298.202 379.224 297.246 379.776L295.217 378.452C294.854 378.202 294.416 378.087 293.978 378.127C293.539 378.167 293.129 378.359 292.818 378.67L291.354 380.133C291.041 380.445 290.848 380.857 290.808 381.297C290.768 381.736 290.884 382.176 291.135 382.54L292.565 384.567C292.011 385.519 291.588 386.542 291.308 387.607L288.863 388.033C288.428 388.111 288.033 388.339 287.749 388.678C287.464 389.017 287.308 389.445 287.307 389.887V391.96C287.308 392.402 287.464 392.83 287.749 393.169C288.033 393.507 288.428 393.736 288.863 393.814L291.308 394.24C291.588 395.305 292.011 396.328 292.565 397.28L291.135 399.319C290.885 399.68 290.77 400.118 290.81 400.556C290.85 400.994 291.042 401.403 291.354 401.714L292.818 403.176C293.129 403.488 293.539 403.68 293.978 403.72C294.416 403.76 294.854 403.645 295.217 403.395L297.258 401.967C298.213 402.519 299.236 402.945 300.302 403.234L300.728 405.664C300.806 406.099 301.035 406.493 301.374 406.777C301.714 407.061 302.142 407.217 302.585 407.219H304.695C305.137 407.219 305.565 407.063 305.902 406.779C306.24 406.494 306.466 406.099 306.54 405.664L306.978 403.234C308.043 402.945 309.066 402.519 310.022 401.967L312.005 403.361C312.368 403.613 312.807 403.73 313.248 403.692C313.688 403.654 314.101 403.464 314.415 403.153L315.879 401.691C316.194 401.379 316.388 400.966 316.426 400.526C316.464 400.085 316.344 399.645 316.087 399.284L314.669 397.234C315.213 396.277 315.635 395.256 315.925 394.194L318.37 393.768C318.807 393.692 319.202 393.464 319.487 393.125C319.772 392.785 319.928 392.357 319.927 391.914V389.841C319.938 389.392 319.787 388.953 319.501 388.606C319.215 388.259 318.814 388.027 318.37 387.952ZM303.622 397.326C302.336 397.326 301.079 396.945 300.009 396.232C298.94 395.518 298.106 394.504 297.614 393.317C297.122 392.13 296.993 390.824 297.244 389.564C297.495 388.304 298.114 387.147 299.024 386.239C299.933 385.33 301.092 384.712 302.354 384.461C303.615 384.21 304.923 384.339 306.111 384.831C307.299 385.322 308.315 386.155 309.03 387.223C309.744 388.291 310.126 389.547 310.126 390.831C310.123 392.553 309.436 394.203 308.217 395.421C306.999 396.638 305.346 397.323 303.622 397.326Z" fill="white"/>
<path d="M16.9736 498H489.657" stroke="black" stroke-width="0.75" stroke-miterlimit="10"/>
<path d="M403.326 71.3884H449.806C455.31 71.3884 460.59 69.2045 464.482 65.3171C468.374 61.4296 470.561 56.1572 470.561 50.6595C470.561 45.1619 468.374 39.8894 464.482 36.002C460.59 32.1146 455.31 29.9307 449.806 29.9307H403.326C397.822 29.9307 392.543 32.1146 388.65 36.002C384.758 39.8894 382.571 45.1619 382.571 50.6595C382.571 56.1572 384.758 61.4296 388.65 65.3171C392.543 69.2045 397.822 71.3884 403.326 71.3884Z" fill="#9BBDF9"/>
<path d="M419.676 66.804L404.594 81.5906L401.861 65.71L419.676 66.804Z" fill="#9BBDF9"/>
<path d="M419.585 44.0149C418.545 42.9981 417.144 42.4354 415.688 42.4505C414.233 42.4656 412.843 43.0573 411.825 44.0955L410.43 45.5235L408.988 44.107C407.945 43.1222 406.556 42.585 405.121 42.6106C403.685 42.6362 402.317 43.2227 401.309 44.2442C400.302 45.2656 399.735 46.6408 399.73 48.0748C399.726 49.5088 400.285 50.8873 401.286 51.9149L406.625 57.1547C407.666 58.17 409.069 58.7306 410.524 58.7134C411.979 58.6961 413.368 58.1023 414.385 57.0626L419.631 51.7076C420.636 50.6761 421.195 49.2911 421.186 47.8518C421.178 46.4125 420.602 45.0343 419.585 44.0149Z" fill="white"/>
<path d="M430.09 45.8564H451.467" stroke="white" stroke-width="1.02" stroke-linecap="round" stroke-linejoin="round"/>
<path d="M430.09 51.7871H441.367" stroke="white" stroke-width="1.02" stroke-linecap="round" stroke-linejoin="round"/>
<path d="M359.903 483.651L346.285 491.171C345.541 491.594 344.955 492.248 344.616 493.033C344.277 493.818 344.203 494.693 344.406 495.524C344.763 496.883 345.928 497.931 349.018 497.988C355.775 498.126 385.685 493.151 385.685 493.151V497.447L399.672 497.516C399.672 497.516 400.548 477.202 396.316 474.622L359.903 483.651Z" fill="#200902"/>
<path d="M378.213 468.714L359.902 483.685C359.902 483.685 362.208 490.433 372.69 485.93C383.171 481.428 396.212 474.656 396.212 474.656L394.309 466.837L378.213 468.714Z" fill="#ECC696"/>
<path d="M394.31 466.804L396.212 412.586L378.052 411.112V474.623L394.31 466.804Z" fill="#ECC696"/>
<path d="M361.978 249.795L369.565 460.93H404.79L406.589 232.739L361.978 249.795Z" fill="#3A2222"/>
<path d="M365.888 246.097L383.645 348.969C384.148 351.954 385.296 354.794 387.008 357.291C388.721 359.788 390.957 361.883 393.562 363.43C396.166 364.977 399.077 365.939 402.091 366.25C405.106 366.561 408.152 366.213 411.018 365.23C415.381 363.74 419.127 360.85 421.674 357.011C424.221 353.172 425.424 348.6 425.097 344.006L421.707 297.274C419.989 281.416 423.932 260.906 406.579 232.784L365.888 246.097Z" fill="#523332"/>
<path d="M459.065 478.468L451.466 492.091C451.059 492.842 450.908 493.705 451.037 494.549C451.166 495.393 451.568 496.172 452.181 496.767C453.207 497.734 454.753 498.011 457.37 496.444C463.135 492.99 485.885 472.906 485.885 472.906L488.191 476.545L500.079 469.198C500.079 469.198 490.025 451.52 485.089 451.566L459.065 478.468Z" fill="#200902"/>
<path d="M466.664 456.104L459.065 478.468C459.065 478.468 464.646 482.948 471.103 473.597C477.56 464.245 485.044 451.566 485.044 451.566L479.278 445.958L466.664 456.104Z" fill="#ECC696"/>
<path d="M479.278 445.958L452.1 398.984L435.923 407.357L469.661 461.194L479.278 445.958Z" fill="#ECC696"/>
<path d="M386.285 356.158L451.744 453.652L482.242 434.121L418.986 328.047L386.285 356.158Z" fill="#523332"/>
<path d="M337.441 79.035C337.441 79.035 322.901 77.1464 320.998 90.8965C319.591 101.134 324.307 106.167 320.606 114.401C316.905 122.635 323.846 129.993 323.846 129.993C323.846 129.993 341.073 137.986 359.798 121.644L337.441 79.035Z" fill="#DC761C"/>
<path d="M343.091 125.018L350.989 145.494L367.501 141.106L352.246 111.671L343.091 125.018Z" fill="#ECC696"/>
<path d="M346.862 134.808L350.252 119.803L344.095 127.622L346.862 134.808Z" fill="black"/>
<path d="M335.597 82.1093C335.597 82.1093 325.796 84.1706 325.796 96.5964C325.796 96.5964 325.323 101.341 325.946 114.285C326.384 123.498 330.719 129.809 339.333 128.922C343.507 128.507 347.888 125.951 351.797 122.657L357.286 117.072C369.969 101.606 356.744 78.309 337.038 81.8214C336.565 81.902 336.081 81.9941 335.597 82.1093Z" fill="#ECC696"/>
<path d="M326.567 107.064L323.108 113.156C322.992 113.3 322.917 113.471 322.888 113.653C322.86 113.835 322.88 114.021 322.947 114.192C323.014 114.364 323.124 114.515 323.268 114.63C323.412 114.746 323.583 114.821 323.765 114.849L328.274 115.437L326.567 107.064Z" fill="#ECC696"/>
<path d="M349.744 103.448C350.09 100.627 352.05 81.0728 337.326 83.5948C336.851 83.6558 336.37 83.5541 335.962 83.3063C335.553 83.0585 335.24 82.6793 335.076 82.231C334.911 81.7826 334.903 81.2917 335.054 80.8385C335.206 80.3854 335.506 79.997 335.908 79.7369C341.154 76.4664 349.479 74.2092 361.517 78.8502C366.406 80.7273 373.14 87.1648 373.14 93.4871C373.14 107.053 368.62 113.94 360.652 120.93C360.555 121.014 360.441 121.075 360.317 121.108C360.194 121.141 360.064 121.145 359.939 121.121C359.813 121.096 359.695 121.044 359.592 120.967C359.49 120.89 359.407 120.79 359.349 120.676L354.218 110.773V110.669C353.653 108.873 350.759 105.084 349.998 104.047C349.913 103.973 349.846 103.881 349.802 103.777C349.759 103.673 349.739 103.561 349.744 103.448Z" fill="#DC761C"/>
<path d="M339.92 78.7926C321.471 87.2914 348.464 107.514 348.464 107.514L356.074 92.5428C356.074 92.5428 342.998 77.3761 339.92 78.7926Z" fill="#DC761C"/>
<path d="M327.687 95.7088L337.441 99.0139C336.214 96.9547 334.427 95.2855 332.287 94.2002C327.64 91.943 327.687 95.7088 327.687 95.7088Z" fill="black"/>
<path d="M329.739 102.365C330.659 102.575 331.486 103.076 332.098 103.794C332.709 104.513 333.071 105.409 333.129 106.35C333.245 109.62 329.669 109.402 329.669 109.402C329.669 109.402 326.602 105.44 329.739 102.365Z" fill="white"/>
<path d="M330.398 101.526C330.398 101.526 332.947 106.259 329.683 109.403L327.849 109.231L327.757 104.014L330.398 101.526Z" fill="black"/>
<path d="M328.989 101.548C329.54 101.586 330.082 101.714 330.592 101.928C331.09 102.123 331.551 102.404 331.953 102.757C332.351 103.102 332.68 103.521 332.922 103.989C333.152 104.444 333.318 104.929 333.418 105.429C333.424 105.475 333.414 105.521 333.389 105.56C333.364 105.599 333.326 105.628 333.282 105.642C333.238 105.656 333.19 105.654 333.147 105.636C333.104 105.618 333.069 105.585 333.048 105.544C332.895 105.109 332.682 104.698 332.414 104.323C332.158 103.964 331.838 103.655 331.468 103.413C331.115 103.182 330.725 103.01 330.315 102.907C329.909 102.802 329.488 102.763 329.07 102.792C328.99 102.799 328.909 102.791 328.833 102.768C328.756 102.744 328.685 102.705 328.624 102.654C328.563 102.602 328.512 102.539 328.476 102.468C328.44 102.396 328.418 102.319 328.412 102.239C328.404 102.159 328.412 102.078 328.436 102C328.459 101.923 328.498 101.852 328.55 101.79C328.601 101.728 328.664 101.676 328.736 101.639C328.807 101.601 328.885 101.578 328.966 101.571L328.989 101.548Z" fill="black"/>
<path d="M326.545 117.165C326.307 117.181 326.083 117.281 325.912 117.447C325.742 117.613 325.636 117.834 325.614 118.071C325.592 118.308 325.654 118.545 325.791 118.74C325.928 118.934 326.13 119.074 326.36 119.134C326.36 119.134 324.953 120.574 327.087 121.057C329.22 121.541 331.238 117.879 331.238 117.879C328.632 118.455 328.09 116.923 326.545 117.165Z" fill="#C7181B"/>
<path d="M351.116 111.751C351.783 117.487 351.844 123.277 351.301 129.025C351.301 129.025 374.592 136.499 385.177 110.035C385.177 110.035 378.42 107.433 376.345 101.64C374.269 95.8474 376.345 75.6483 349.133 76.3047C349.133 76.2241 349.813 102.515 351.116 111.751Z" fill="#DC761C"/>
<path d="M360.053 107.341C360.208 108.571 359.994 109.819 359.438 110.927C358.883 112.035 358.01 112.954 356.932 113.567C355.854 114.18 354.617 114.46 353.38 114.371C352.142 114.282 350.958 113.829 349.979 113.068C348.999 112.307 348.268 111.273 347.876 110.097C347.485 108.921 347.452 107.656 347.781 106.461C348.111 105.266 348.787 104.195 349.726 103.384C350.664 102.574 351.822 102.059 353.054 101.906C353.871 101.803 354.7 101.861 355.495 102.079C356.289 102.296 357.032 102.668 357.683 103.173C358.333 103.678 358.877 104.306 359.284 105.021C359.69 105.737 359.952 106.525 360.053 107.341Z" fill="#ECC696"/>
<path d="M351.116 110.772C351.116 110.772 351.358 106.004 355.291 105.912" stroke="black" stroke-width="0.51" stroke-linecap="round" stroke-linejoin="round"/>
<path d="M391.646 156.825L430.25 188.045C431.554 189.165 432.617 190.539 433.373 192.082C434.129 193.626 434.563 195.306 434.648 197.022C434.733 198.738 434.468 200.454 433.869 202.064C433.269 203.675 432.348 205.147 431.161 206.39C428.941 208.692 425.933 210.071 422.738 210.25C419.543 210.429 416.399 209.396 413.934 207.358L372.044 174.214L391.646 156.825Z" fill="#ECC696"/>
<path d="M414.8 168.295C414.8 168.295 413.162 180.721 391.462 194.989L361.99 173.109C360.044 171.666 358.42 169.833 357.223 167.728C356.025 165.623 355.28 163.291 355.035 160.883C354.79 158.474 355.05 156.041 355.799 153.738C356.547 151.435 357.769 149.314 359.384 147.509C362.13 144.446 365.87 142.449 369.946 141.872C374.022 141.295 378.171 142.174 381.661 144.353L414.8 168.295Z" fill="#410EAD"/>
<path d="M414.096 207.796L452.366 256.923L461.763 245.937L433.133 191.362C432.035 189.893 430.629 188.681 429.013 187.81C427.397 186.94 425.611 186.432 423.778 186.322C421.946 186.213 420.111 186.504 418.403 187.175C416.695 187.847 415.154 188.883 413.888 190.211C411.618 192.589 410.368 195.76 410.407 199.045C410.446 202.331 411.77 205.472 414.096 207.796Z" fill="#ECC696"/>
<path d="M450.152 254.838L449.749 257.303C449.228 260.606 449.485 263.985 450.498 267.172L452.297 272.792C452.404 273.1 452.575 273.382 452.8 273.619C453.024 273.856 453.296 274.042 453.598 274.166C453.9 274.291 454.225 274.349 454.551 274.339C454.877 274.328 455.198 274.248 455.491 274.105C456.007 273.842 456.433 273.43 456.713 272.923C456.992 272.416 457.113 271.837 457.059 271.26L456.471 265.041L468.924 282.638C469.061 282.846 469.242 283.022 469.453 283.154C469.664 283.286 469.901 283.371 470.148 283.404C470.395 283.437 470.646 283.416 470.885 283.344C471.123 283.271 471.343 283.148 471.53 282.983L472.072 282.523C472.375 282.256 472.577 281.892 472.645 281.494C472.712 281.096 472.64 280.686 472.441 280.335L464.485 268.197L475.554 280.864C475.704 281.063 475.895 281.226 476.113 281.345C476.332 281.463 476.573 281.533 476.821 281.551C477.069 281.568 477.318 281.532 477.551 281.446C477.784 281.359 477.995 281.224 478.172 281.049L478.541 280.68C478.842 280.381 479.026 279.984 479.058 279.561C479.089 279.138 478.967 278.717 478.713 278.377L469.558 266.619L478.471 274.024C478.669 274.196 478.902 274.323 479.154 274.394C479.407 274.465 479.672 274.479 479.93 274.434C480.188 274.39 480.434 274.289 480.648 274.139C480.863 273.988 481.041 273.791 481.169 273.563L481.273 273.368C481.457 273.041 481.531 272.664 481.483 272.293C481.435 271.922 481.269 271.575 481.008 271.306L472.302 262.946L477.768 266.216C477.998 266.404 478.273 266.53 478.565 266.582C478.857 266.635 479.158 266.612 479.44 266.516C479.721 266.421 479.973 266.255 480.173 266.036C480.373 265.816 480.513 265.549 480.581 265.26C480.654 264.967 480.648 264.659 480.565 264.368C480.482 264.078 480.325 263.813 480.109 263.602L457.889 242.873L453.346 248.067C451.671 249.982 450.564 252.328 450.152 254.838Z" fill="#ECC696"/>
<path d="M362.152 140.485C362.152 140.485 346.978 139.011 346.782 166.384C346.586 193.758 355.245 206.76 361.979 249.795C361.979 249.795 387.703 246.651 406.579 232.74C406.579 232.74 407.755 131.94 362.152 140.485Z" fill="#410EAD"/>
<path d="M359.085 177.151L323.225 211.469C321.948 212.62 320.45 213.499 318.822 214.054C317.195 214.609 315.471 214.827 313.756 214.696C312.041 214.564 310.371 214.086 308.847 213.29C307.323 212.493 305.977 211.396 304.891 210.064C302.884 207.574 301.893 204.418 302.117 201.23C302.342 198.041 303.765 195.055 306.102 192.87L344.314 155.547L359.085 177.151Z" fill="#ECC696"/>
<path d="M349.294 198.904C349.294 198.904 336.783 198.467 323.927 172.982L349.156 146.322C350.82 144.562 352.833 143.167 355.067 142.227C357.3 141.287 359.706 140.823 362.129 140.863C364.553 140.903 366.942 141.447 369.143 142.46C371.344 143.474 373.31 144.934 374.915 146.748C377.64 149.831 379.187 153.776 379.282 157.888C379.377 161.999 378.014 166.011 375.434 169.216L349.294 198.904Z" fill="#410EAD"/>
<path d="M352.766 194.967L370.015 175.366" stroke="black" stroke-width="0.51" stroke-linecap="round" stroke-linejoin="round"/>
<path d="M322.567 193.228L271.44 154.592L264.729 165.106L305.086 210.422C306.243 211.783 307.684 212.875 309.307 213.622C310.931 214.37 312.698 214.754 314.486 214.749C316.273 214.743 318.038 214.348 319.657 213.591C321.276 212.833 322.71 211.732 323.858 210.364C325.934 207.908 326.961 204.737 326.72 201.532C326.478 198.328 324.987 195.346 322.567 193.228Z" fill="#ECC696"/>
<path d="M278.254 165.267C276.329 171.739 270.068 171.474 257.776 168.031C251.273 166.211 248.909 161.605 250.858 155.133C251.315 153.594 252.072 152.16 253.084 150.913C254.097 149.666 255.346 148.63 256.759 147.865C258.173 147.101 259.723 146.622 261.322 146.456C262.921 146.29 264.537 146.441 266.078 146.899C272.489 148.834 280.145 158.795 278.254 165.267Z" fill="#ECC696"/>
<path d="M268.281 147.82L252.657 138.757C252.161 138.413 251.55 138.277 250.955 138.378C250.36 138.48 249.828 138.81 249.474 139.298C249.173 139.707 249.039 140.216 249.099 140.72C249.159 141.225 249.409 141.688 249.797 142.016L261.927 152.253L268.281 147.82Z" fill="#ECC696"/>
</svg>
