<svg width="384" height="384" viewBox="0 0 384 384" fill="none" xmlns="http://www.w3.org/2000/svg">
<path d="M28.7657 202.806C28.7657 202.806 40.1954 265.604 98.1665 299.664C156.138 333.724 228.183 325.626 286.741 320.563C345.3 315.501 384.829 275.16 383.987 223.536C383.144 171.911 336.623 163.953 303.979 110.122C271.335 56.2913 270.64 37.0396 214.549 9.54997C158.459 -17.9397 82.0552 16.1403 49.4214 83.2717C16.7876 150.403 28.7657 202.806 28.7657 202.806Z" fill="#7B3FE4"/>
<path d="M28.7657 202.806C28.7657 202.806 40.1954 265.604 98.1665 299.664C156.138 333.724 228.183 325.626 286.741 320.563C345.3 315.501 384.829 275.16 383.987 223.536C383.144 171.911 336.623 163.953 303.979 110.122C271.335 56.2913 270.64 37.0396 214.549 9.54997C158.459 -17.9397 82.0552 16.1403 49.4214 83.2717C16.7876 150.403 28.7657 202.806 28.7657 202.806Z" fill="#F4F3F3"/>
<path d="M167.049 384C250.987 384 319.033 378.984 319.033 372.796C319.033 366.609 250.987 361.593 167.049 361.593C83.1101 361.593 15.0645 366.609 15.0645 372.796C15.0645 378.984 83.1101 384 167.049 384Z" fill="#7B3FE4"/>
<path d="M167.049 384C250.987 384 319.033 378.984 319.033 372.796C319.033 366.609 250.987 361.593 167.049 361.593C83.1101 361.593 15.0645 366.609 15.0645 372.796C15.0645 378.984 83.1101 384 167.049 384Z" fill="#F1F1F1"/>
<path d="M359.502 14.0439H130.634C125.225 14.0439 120.84 18.5145 120.84 24.0293V331.927C120.84 337.442 125.225 341.912 130.634 341.912H359.502C364.911 341.912 369.296 337.442 369.296 331.927V24.0293C369.296 18.5145 364.911 14.0439 359.502 14.0439Z" stroke="#263238" stroke-width="1.02" stroke-linecap="round" stroke-linejoin="round"/>
<path d="M225.156 104.142V105.16H224.157" stroke="#263238" stroke-width="1.02" stroke-linecap="round" stroke-linejoin="round"/>
<path d="M222.18 105.16H163.915" stroke="#263238" stroke-width="1.02" stroke-linecap="round" stroke-linejoin="round" stroke-dasharray="2.02 2.02"/>
<path d="M162.926 105.16H161.917V104.142" stroke="#263238" stroke-width="1.02" stroke-linecap="round" stroke-linejoin="round"/>
<path d="M161.917 102.175V55.9727" stroke="#263238" stroke-width="1.02" stroke-linecap="round" stroke-linejoin="round" stroke-dasharray="1.97 1.97"/>
<path d="M161.917 54.9843V53.9658H162.926" stroke="#263238" stroke-width="1.02" stroke-linecap="round" stroke-linejoin="round"/>
<path d="M164.894 53.9658H223.168" stroke="#263238" stroke-width="1.02" stroke-linecap="round" stroke-linejoin="round" stroke-dasharray="2.02 2.02"/>
<path d="M224.157 53.9658H225.156V54.9843" stroke="#263238" stroke-width="1.02" stroke-linecap="round" stroke-linejoin="round"/>
<path d="M225.156 56.9502V103.162" stroke="#263238" stroke-width="1.02" stroke-linecap="round" stroke-linejoin="round" stroke-dasharray="1.97 1.97"/>
<path d="M215.059 62.1436H172.014V96.9924H215.059V62.1436Z" fill="white" stroke="#263238" stroke-width="1.02" stroke-linecap="round" stroke-linejoin="round"/>
<path d="M169.487 59.5573L154.718 47.9443" stroke="#263238" stroke-width="1.02" stroke-linecap="round" stroke-linejoin="round"/>
<path d="M218.017 98.71L230.68 109.894" stroke="#263238" stroke-width="1.02" stroke-linecap="round" stroke-linejoin="round"/>
<path d="M154.13 51.7689L153.699 46.8262H158.763" stroke="#263238" stroke-width="1.02" stroke-linecap="round" stroke-linejoin="round"/>
<path d="M231.023 105.22L231.895 110.612L225.734 110.841" stroke="#263238" stroke-width="1.02" stroke-linecap="round" stroke-linejoin="round"/>
<path d="M268.368 236.577H247.468V244.266H268.368V236.577Z" fill="#263238"/>
<path d="M276.859 240.411L263.461 232.532V248.299L276.859 240.411Z" fill="#263238"/>
<path d="M232.394 183.545H184.324C180.576 183.545 177.537 186.643 177.537 190.465V299.285C177.537 303.107 180.576 306.205 184.324 306.205H232.394C236.142 306.205 239.181 303.107 239.181 299.285V190.465C239.181 186.643 236.142 183.545 232.394 183.545Z" fill="#263238" stroke="#263238" stroke-width="0.83" stroke-linecap="round" stroke-linejoin="round"/>
<path d="M236.449 191.872H180.28V298.915H236.449V191.872Z" fill="white" stroke="#263238" stroke-width="0.83" stroke-linecap="round" stroke-linejoin="round"/>
<path d="M226.038 323.09L230.328 306.114C230.797 304.286 231.034 302.403 231.033 300.513V280.153C231.11 279.89 231.153 279.618 231.16 279.344C231.102 278.437 230.695 277.59 230.027 276.988C229.359 276.385 228.485 276.077 227.595 276.128C226.634 276.109 225.701 276.467 224.99 277.127C224.86 276.278 224.428 275.508 223.775 274.964C223.123 274.42 222.296 274.142 221.454 274.181C220.872 274.17 220.296 274.299 219.773 274.56C219.25 274.82 218.796 275.204 218.448 275.679C218.305 274.842 217.869 274.086 217.22 273.553C216.571 273.02 215.754 272.747 214.922 272.783C214.338 272.774 213.76 272.906 213.236 273.168C212.712 273.43 212.256 273.815 211.905 274.291C211.905 271.595 211.905 258.664 211.464 257.606C210.172 254.201 203.629 255.758 204.795 259.373V289.279C204.795 287.182 203.267 284.416 202.63 282.379C201.993 280.342 201.651 278.385 200.436 276.688C198.419 273.752 194.863 275.37 195.069 278.425C195.236 281.111 197.145 283.228 198.174 285.664C200.074 290.158 198.938 294.861 200.73 299.374C202.218 302.235 203.873 305.003 205.686 307.662C206.663 309.408 207.435 311.265 207.987 313.194L206.322 323.09" fill="white"/>
<path d="M226.038 323.09L230.328 306.114C230.797 304.286 231.034 302.403 231.033 300.513V280.153C231.11 279.89 231.153 279.618 231.16 279.344C231.102 278.437 230.695 277.59 230.027 276.988C229.359 276.385 228.485 276.077 227.595 276.128C226.634 276.109 225.701 276.467 224.99 277.127C224.86 276.278 224.428 275.508 223.775 274.964C223.123 274.42 222.296 274.142 221.454 274.181C220.872 274.17 220.296 274.299 219.773 274.56C219.25 274.82 218.796 275.204 218.448 275.679C218.305 274.842 217.869 274.086 217.22 273.553C216.571 273.02 215.754 272.747 214.922 272.783C214.338 272.774 213.76 272.906 213.236 273.168C212.712 273.43 212.256 273.815 211.905 274.291C211.905 271.595 211.905 258.664 211.464 257.606C210.172 254.201 203.629 255.758 204.795 259.373V289.279C204.795 287.182 203.267 284.416 202.63 282.379C201.993 280.342 201.651 278.385 200.436 276.688C198.419 273.752 194.863 275.37 195.069 278.425C195.236 281.111 197.145 283.228 198.174 285.664C200.074 290.158 198.938 294.861 200.73 299.374C202.218 302.235 203.873 305.003 205.686 307.662C206.663 309.408 207.435 311.265 207.987 313.194L206.322 323.09" stroke="#263238" stroke-width="1.02" stroke-linecap="round" stroke-linejoin="round"/>
<path d="M208.409 247.301V252.893" stroke="#263238" stroke-width="1.02" stroke-linecap="round" stroke-linejoin="round"/>
<path d="M214.579 258.126H219.035" stroke="#263238" stroke-width="1.02" stroke-linecap="round" stroke-linejoin="round"/>
<path d="M196.078 258.126H200.534" stroke="#263238" stroke-width="1.02" stroke-linecap="round" stroke-linejoin="round"/>
<path d="M202.248 252.194L203.962 254.98" stroke="#263238" stroke-width="1.02" stroke-linecap="round" stroke-linejoin="round"/>
<path d="M212.522 255.33L214.922 252.194" stroke="#263238" stroke-width="1.02" stroke-linecap="round" stroke-linejoin="round"/>
<path d="M234.451 233.332H182.376V239.972H234.451V233.332Z" stroke="#263238" stroke-width="1.02" stroke-linecap="round" stroke-linejoin="round"/>
<path d="M209.104 197.704H184.09V228.089H209.104V197.704Z" stroke="#263238" stroke-width="1.02" stroke-linecap="round" stroke-linejoin="round"/>
<path d="M184.09 197.704L209.094 228.089" stroke="#263238" stroke-width="1.02" stroke-linecap="round" stroke-linejoin="round"/>
<path d="M183.404 286.773V243.457H234.108V286.424" stroke="#263238" stroke-width="1.02" stroke-linecap="round" stroke-linejoin="round"/>
<path d="M336.065 183.545H287.995C284.247 183.545 281.208 186.643 281.208 190.465V299.285C281.208 303.107 284.247 306.205 287.995 306.205H336.065C339.813 306.205 342.852 303.107 342.852 299.285V190.465C342.852 186.643 339.813 183.545 336.065 183.545Z" fill="#263238" stroke="#263238" stroke-width="0.83" stroke-linecap="round" stroke-linejoin="round"/>
<path d="M340.119 191.872H283.95V298.915H340.119V191.872Z" fill="white" stroke="#263238" stroke-width="0.83" stroke-linecap="round" stroke-linejoin="round"/>
<path d="M337.572 197.006H286.868V253.593H337.572V197.006Z" stroke="#263238" stroke-width="1.02" stroke-linecap="round" stroke-linejoin="round"/>
<path d="M286.868 258.824H337.572" stroke="#263238" stroke-width="1.02" stroke-linecap="round" stroke-linejoin="round"/>
<path d="M286.868 263.018H337.572" stroke="#263238" stroke-width="1.02" stroke-linecap="round" stroke-linejoin="round"/>
<path d="M286.868 267.212H337.572" stroke="#263238" stroke-width="1.02" stroke-linecap="round" stroke-linejoin="round"/>
<path d="M286.868 271.406H337.572" stroke="#263238" stroke-width="1.02" stroke-linecap="round" stroke-linejoin="round"/>
<path d="M286.868 275.59H337.572" stroke="#263238" stroke-width="1.02" stroke-linecap="round" stroke-linejoin="round"/>
<path d="M286.868 279.783H337.572" stroke="#263238" stroke-width="1.02" stroke-linecap="round" stroke-linejoin="round"/>
<path d="M286.868 283.978H337.572" stroke="#263238" stroke-width="1.02" stroke-linecap="round" stroke-linejoin="round"/>
<path d="M286.868 253.593L337.572 197.006" stroke="#263238" stroke-width="1.02" stroke-linecap="round" stroke-linejoin="round"/>
<path d="M336.065 42.7422H287.995C284.247 42.7422 281.208 45.8403 281.208 49.662V158.482C281.208 162.304 284.247 165.402 287.995 165.402H336.065C339.813 165.402 342.852 162.304 342.852 158.482V49.662C342.852 45.8403 339.813 42.7422 336.065 42.7422Z" fill="#263238" stroke="#263238" stroke-width="0.83" stroke-linecap="round" stroke-linejoin="round"/>
<path d="M340.119 51.0693H283.95V158.112H340.119V51.0693Z" fill="white" stroke="#263238" stroke-width="0.83" stroke-linecap="round" stroke-linejoin="round"/>
<path d="M219.104 179.89V147.268H264.127" stroke="#263238" stroke-width="1.02" stroke-linecap="round" stroke-linejoin="round"/>
<path d="M262.657 152.361L271.305 147.268L262.657 142.176V152.361Z" fill="#263238"/>
<path d="M310.894 179.031V153.988" stroke="#263238" stroke-width="1.02" stroke-linecap="round" stroke-linejoin="round"/>
<path d="M315.888 155.485L310.893 146.658L305.898 155.485H315.888Z" fill="#263238"/>
<path d="M287.682 317.368H310.394" stroke="#263238" stroke-width="1.02" stroke-linecap="round" stroke-linejoin="round"/>
<path d="M287.682 322.581H310.394" stroke="#263238" stroke-width="1.02" stroke-linecap="round" stroke-linejoin="round"/>
<path d="M287.682 327.783H310.394" stroke="#263238" stroke-width="1.02" stroke-linecap="round" stroke-linejoin="round"/>
<path d="M232.609 317.368H255.322" stroke="#263238" stroke-width="1.02" stroke-linecap="round" stroke-linejoin="round"/>
<path d="M232.609 322.581H255.322" stroke="#263238" stroke-width="1.02" stroke-linecap="round" stroke-linejoin="round"/>
<path d="M232.609 327.783H255.322" stroke="#263238" stroke-width="1.02" stroke-linecap="round" stroke-linejoin="round"/>
<path d="M226.361 157.603H249.074" stroke="#263238" stroke-width="1.02" stroke-linecap="round" stroke-linejoin="round"/>
<path d="M226.361 162.806H249.074" stroke="#263238" stroke-width="1.02" stroke-linecap="round" stroke-linejoin="round"/>
<path d="M226.361 168.018H249.074" stroke="#263238" stroke-width="1.02" stroke-linecap="round" stroke-linejoin="round"/>
<path d="M243.393 94.5059H266.105" stroke="#263238" stroke-width="1.02" stroke-linecap="round" stroke-linejoin="round"/>
<path d="M243.393 99.7178H266.105" stroke="#263238" stroke-width="1.02" stroke-linecap="round" stroke-linejoin="round"/>
<path d="M243.393 104.92H266.105" stroke="#263238" stroke-width="1.02" stroke-linecap="round" stroke-linejoin="round"/>
<path d="M161.633 112.449H184.345" stroke="#263238" stroke-width="1.02" stroke-linecap="round" stroke-linejoin="round"/>
<path d="M161.633 117.661H184.345" stroke="#263238" stroke-width="1.02" stroke-linecap="round" stroke-linejoin="round"/>
<path d="M161.633 122.864H184.345" stroke="#263238" stroke-width="1.02" stroke-linecap="round" stroke-linejoin="round"/>
<path d="M50.8312 189.286C50.8312 189.286 50.8312 184.972 44.896 178.921C38.9608 172.87 35.1019 169.415 35.1019 169.415C35.1019 169.415 32.1637 179.4 37.6386 185.392C41.6924 189.647 46.089 193.548 50.7822 197.054L50.8312 189.286Z" fill="#7B3FE4"/>
<path d="M42.2218 216.307C42.2218 216.307 42.2218 211.983 36.2866 205.932C30.3514 199.881 26.5023 196.426 26.5023 196.426C26.5023 196.426 23.5641 206.411 29.0389 212.402C33.0958 216.654 37.4921 220.555 42.1826 224.065L42.2218 216.307Z" fill="#7B3FE4"/>
<path d="M50.4594 196.675C50.4594 196.675 50.9099 192.381 57.4327 187.009C63.9556 181.637 68.1083 178.602 68.1083 178.602C68.1083 178.602 70.0671 188.807 63.9262 194.229C59.4572 198.024 54.6839 201.431 49.6562 204.414L50.4594 196.675Z" fill="#7B3FE4"/>
<path d="M40.0584 228.548C40.0584 228.548 40.9398 224.325 47.9916 219.681C55.0433 215.038 59.4702 212.462 59.4702 212.462C59.4702 212.462 60.3321 222.817 53.7015 227.55C48.8636 230.849 43.7625 233.728 38.4521 236.157L40.0584 228.548Z" fill="#7B3FE4"/>
<path d="M42.0078 263.298C42.0078 263.298 42.0078 258.974 47.943 252.923C53.8782 246.872 57.7371 243.417 57.7371 243.417C57.7371 243.417 60.6753 253.402 55.2004 259.394C51.1454 263.651 46.7489 267.555 42.0568 271.066L42.0078 263.298Z" fill="#7B3FE4"/>
<path d="M41.9096 271.775C41.9096 271.775 42.5168 267.501 37.4827 260.651C32.4485 253.801 29.1577 249.827 29.1577 249.827C29.1577 249.827 24.8385 259.243 29.4515 266.023C32.8663 270.826 36.6735 275.325 40.8322 279.474L41.9096 271.775Z" fill="#7B3FE4"/>
<path d="M36.0625 296.918C36.0625 296.918 36.0625 292.594 41.9977 286.543C47.9329 280.492 51.7918 277.037 51.7918 277.037C51.7918 277.037 54.73 286.973 49.2453 293.014C45.1962 297.27 40.8027 301.172 36.1115 304.677L36.0625 296.918Z" fill="#7B3FE4"/>
<path d="M40.0187 319.704C40.0187 319.704 38.9511 315.52 43.1528 308.111C47.3544 300.702 50.2241 296.398 50.2241 296.398C50.2241 296.398 55.5618 305.245 51.7421 312.515C48.8854 317.678 45.6092 322.588 41.9481 327.193L40.0187 319.704Z" fill="#7B3FE4"/>
<path d="M51.3709 188.218C51.0679 192.715 50.5252 197.191 49.7451 201.628C47.3945 213.98 41.5376 221.958 39.1871 233.112C36.8365 244.265 43.5748 258.654 41.7727 272.983C39.9706 287.312 34.4957 295.29 36.0627 304.856C37.6298 314.422 45.8568 340.324 45.8568 340.324" stroke="#263238" stroke-width="1.03" stroke-linecap="round" stroke-linejoin="round"/>
<path d="M50.4004 199.551L56.7959 194.548" stroke="#263238" stroke-width="1.03" stroke-linecap="round" stroke-linejoin="round"/>
<path d="M50.6943 193.789L48.0205 188.937" stroke="#263238" stroke-width="1.03" stroke-linecap="round" stroke-linejoin="round"/>
<path d="M39.5391 232.602C39.5391 232.602 44.8964 228.508 50.4007 224.414" stroke="#263238" stroke-width="1.03" stroke-linecap="round" stroke-linejoin="round"/>
<path d="M42.223 224.085C42.223 224.085 37.7569 215.168 32.7031 209.257" stroke="#263238" stroke-width="1.03" stroke-linecap="round" stroke-linejoin="round"/>
<path d="M42.2227 269.448C45.2754 263.703 49.1323 258.443 53.6719 253.831" stroke="#263238" stroke-width="1.03" stroke-linecap="round" stroke-linejoin="round"/>
<path d="M41.1942 275.509C39.5655 271.611 37.6229 267.857 35.3863 264.286C32.2718 259.593 31.8213 258.983 31.8213 258.983" stroke="#263238" stroke-width="1.03" stroke-linecap="round" stroke-linejoin="round"/>
<path d="M36.0625 304.856C37.4175 301.408 39.0284 298.07 40.8812 294.871C42.7346 291.92 44.8246 289.132 47.1298 286.533" stroke="#263238" stroke-width="1.03" stroke-linecap="round" stroke-linejoin="round"/>
<path d="M41.9581 327.223C41.648 323.947 42.199 320.645 43.5546 317.657C45.7876 313.254 48.3145 307.502 49.3624 305.226" stroke="#263238" stroke-width="1.03" stroke-linecap="round" stroke-linejoin="round"/>
<path d="M11.9785 247.041C11.9785 247.041 11.5182 244.335 14.5935 239.881C17.6689 235.428 19.6963 232.842 19.6963 232.842C19.6963 232.842 22.6345 238.753 19.804 243.157C17.7121 246.275 15.3663 249.207 12.7914 251.924L11.9785 247.041Z" fill="#7B3FE4"/>
<path d="M20.2448 263.018C20.2448 263.018 19.7943 260.302 22.8696 255.858C25.945 251.415 27.9625 248.818 27.9625 248.818C27.9625 248.818 30.9008 254.72 28.0703 259.123C25.9833 262.239 23.6441 265.172 21.0773 267.89L20.2448 263.018Z" fill="#7B3FE4"/>
<path d="M12.997 251.625C12.997 251.625 12.2527 248.979 7.5907 246.323C2.92873 243.667 0.0003013 242.209 0.0003013 242.209C0.0003013 242.209 -0.117226 248.819 4.2901 251.545C7.49525 253.43 10.8501 255.037 14.3192 256.348L12.997 251.625Z" fill="#7B3FE4"/>
<path d="M22.9084 270.457C22.9084 270.457 21.929 267.901 17.0319 265.764C12.1349 263.627 9.05957 262.519 9.05957 262.519C9.05957 262.519 9.62762 269.099 14.2896 271.336C17.6727 272.867 21.1747 274.109 24.7595 275.05L22.9084 270.457Z" fill="#7B3FE4"/>
<path d="M25.3865 292.455C25.3865 292.455 24.9262 289.749 20.5581 286.613C16.1899 283.478 13.4378 281.73 13.4378 281.73C13.4378 281.73 12.6347 288.291 16.7286 291.476C19.7231 293.696 22.8944 295.657 26.2092 297.338L25.3865 292.455Z" fill="#7B3FE4"/>
<path d="M26.3467 297.767C26.3467 297.767 25.524 295.13 27.9432 290.298C30.3623 285.465 32.0077 282.589 32.0077 282.589C32.0077 282.589 35.7197 288.011 33.5552 292.784C31.9197 296.169 30.0097 299.409 27.8452 302.47L26.3467 297.767Z" fill="#7B3FE4"/>
<path d="M33.7994 319.624C33.7994 319.624 34.103 316.888 38.2851 313.503C42.4672 310.118 45.1409 308.221 45.1409 308.221C45.1409 308.221 46.3162 314.721 42.3986 318.136C39.5324 320.525 36.4759 322.666 33.2607 324.537L33.7994 319.624Z" fill="#7B3FE4"/>
<path d="M32.693 312.885C32.693 312.885 32.2327 310.169 27.8743 307.034C23.5159 303.898 20.7442 302.121 20.7442 302.121C20.7442 302.121 19.9411 308.681 24.0448 311.867C27.0378 314.089 30.2093 316.05 33.5255 317.728L32.693 312.885Z" fill="#7B3FE4"/>
<path d="M32.6349 327.613C32.6349 327.613 32.87 324.867 29.4225 320.703C25.975 316.539 23.7419 314.143 23.7419 314.143C23.7419 314.143 21.3326 320.284 24.5156 324.427C26.86 327.346 29.4382 330.062 32.2236 332.546L32.6349 327.613Z" fill="#7B3FE4"/>
<path d="M11.5186 246.412C12.1917 249.197 13.009 251.943 13.9671 254.64C16.7584 262.129 21.2832 266.483 23.9374 273.223C26.5916 279.963 23.9374 289.719 26.5622 298.506C29.187 307.293 33.5062 311.686 33.5356 317.857C33.565 324.028 31.185 341.183 31.185 341.183" stroke="#263238" stroke-width="1.03" stroke-linecap="round" stroke-linejoin="round"/>
<path d="M13.3403 253.413L8.7959 250.986" stroke="#263238" stroke-width="1.03" stroke-linecap="round" stroke-linejoin="round"/>
<path d="M12.5371 249.837L13.7026 246.492" stroke="#263238" stroke-width="1.03" stroke-linecap="round" stroke-linejoin="round"/>
<path d="M23.6629 272.943C23.6629 272.943 19.8726 270.946 15.9844 269.009" stroke="#263238" stroke-width="1.03" stroke-linecap="round" stroke-linejoin="round"/>
<path d="M21.0771 267.891C22.1932 264.297 23.6632 260.828 25.4649 257.536" stroke="#263238" stroke-width="1.03" stroke-linecap="round" stroke-linejoin="round"/>
<path d="M25.9055 296.339C23.3885 293.076 20.4192 290.203 17.0908 287.812" stroke="#263238" stroke-width="1.03" stroke-linecap="round" stroke-linejoin="round"/>
<path d="M27.208 300.023C27.8093 297.399 28.625 294.83 29.6467 292.345C31.106 289.059 31.3215 288.62 31.3215 288.62" stroke="#263238" stroke-width="1.03" stroke-linecap="round" stroke-linejoin="round"/>
<path d="M33.3594 322.541C34.8394 320.673 36.4781 318.942 38.2564 317.368C39.3871 316.522 40.4484 315.584 41.4297 314.562" stroke="#263238" stroke-width="1.03" stroke-linecap="round" stroke-linejoin="round"/>
<path d="M33.5346 317.857C32.322 315.856 30.9598 313.953 29.4602 312.165C27.9846 310.517 26.376 308.997 24.6514 307.622" stroke="#263238" stroke-width="1.03" stroke-linecap="round" stroke-linejoin="round"/>
<path d="M32.2234 332.545C32.0693 330.454 31.373 328.441 30.2058 326.714C28.3352 324.208 26.1315 320.873 25.2402 319.564" stroke="#263238" stroke-width="1.03" stroke-linecap="round" stroke-linejoin="round"/>
<path d="M19.0693 338.197H57.844V367.964C57.844 368.758 57.5345 369.52 56.9835 370.082C56.4324 370.644 55.6851 370.959 54.9058 370.959H22.0467C21.2675 370.959 20.5201 370.644 19.9691 370.082C19.4181 369.52 19.1085 368.758 19.1085 367.964V338.197H19.0693Z" fill="#263238"/>
<path d="M57.5405 343.36H19.0694C18.6698 343.36 18.2742 343.28 17.9052 343.124C17.5362 342.967 17.2011 342.738 16.919 342.45C16.637 342.161 16.4135 341.819 16.2615 341.442C16.1095 341.066 16.0319 340.662 16.0332 340.255C16.0332 339.434 16.3531 338.646 16.9225 338.066C17.4919 337.485 18.2641 337.159 19.0694 337.159H57.5405C58.3457 337.159 59.118 337.485 59.6874 338.066C60.2567 338.646 60.5766 339.434 60.5766 340.255C60.5779 340.662 60.5003 341.066 60.3483 341.442C60.1963 341.819 59.9729 342.161 59.6908 342.45C59.4088 342.738 59.0736 342.967 58.7046 343.124C58.3356 343.28 57.94 343.36 57.5405 343.36Z" fill="#263238"/>
<path d="M69.5972 361.035C69.5972 361.035 67.4915 369.303 67.4915 371.39C67.4915 373.477 66.9822 374.875 71.4091 375.743C75.836 376.612 78.7546 376.093 79.4402 374.006C80.1258 371.919 80.6351 361.454 80.6351 361.454L69.8616 359.357L69.5972 361.035Z" fill="white" stroke="#263238" stroke-width="1.03" stroke-linecap="round" stroke-linejoin="round"/>
<path d="M79.3911 374.016C79.5301 373.54 79.6285 373.052 79.6849 372.558C75.5772 372.58 71.4751 372.246 67.4228 371.56C67.4228 373.557 67.0408 374.905 71.3404 375.743C75.64 376.582 78.7349 376.103 79.3911 374.016Z" fill="white" stroke="#263238" stroke-width="1.03" stroke-linecap="round" stroke-linejoin="round"/>
<path d="M173.463 361.813C173.463 361.813 176.881 363.032 181.847 364.599C186.812 366.167 196.92 367.915 197.899 368.084C198.879 368.254 198.879 370.351 198.066 371.23C197.253 372.108 192.767 374.715 187.469 376.102C182.17 377.49 164.208 378.719 162.67 377.68C161.387 376.801 161.818 368.264 162.327 366.347C162.837 364.43 173.463 361.813 173.463 361.813Z" fill="white" stroke="#263238" stroke-width="1.03" stroke-linecap="round" stroke-linejoin="round"/>
<path d="M198.085 371.23C198.365 370.898 198.558 370.5 198.647 370.073C198.736 369.645 198.718 369.202 198.595 368.783C195.128 371.599 188.203 374.695 181.161 375.413C174.769 375.878 168.352 375.845 161.965 375.314C162.092 376.512 162.317 377.421 162.69 377.68C164.227 378.679 182.18 377.5 187.488 376.102C192.797 374.704 197.233 372.098 198.085 371.23Z" fill="white" stroke="#263238" stroke-width="1.03" stroke-linecap="round" stroke-linejoin="round"/>
<path d="M90.7519 209.827C90.7519 209.827 87.8136 228.06 90.0859 238.185C90.0859 238.185 85.7863 278.346 85.1203 296.24C85.1203 296.24 75.8551 327.634 74.5231 337.42C73.2689 345.37 71.6247 353.252 69.5967 361.035C71.6576 362.197 73.8958 362.997 76.2175 363.402C80.8598 364.4 81.5161 360.696 81.5161 360.696C81.5161 360.696 106.981 300.953 108.998 292.176C111.016 283.399 117.588 252.025 117.588 252.025L145.011 303.33C145.011 303.33 146.343 320.884 150.31 331.009C154.276 341.134 161.896 369.143 161.896 369.143C164.91 369.314 167.931 368.977 170.838 368.145C174.814 366.797 174.814 364.77 174.814 364.77C174.814 364.77 168.85 342.153 168.85 334.734C168.85 327.315 166.538 301.992 164.883 294.902C163.228 287.813 151.965 250.687 150.31 246.633C148.654 242.579 145.011 229.758 145.011 229.758L142.7 209.837C142.7 209.837 114.258 217.935 90.7519 209.827Z" fill="#263238" stroke="#263238" stroke-width="1.03" stroke-linecap="round" stroke-linejoin="round"/>
<path d="M111.76 123.803C111.76 123.803 110.232 120.438 110.232 118.371C110.232 116.304 109.253 106.479 109.253 106.479C109.253 106.479 123.944 79.3486 128.009 74.1762C130.66 70.8635 133.633 67.8325 136.882 65.1295C136.882 65.1295 146.774 63.0625 148.801 63.0625C150.829 63.0625 153.111 62.064 153.111 60.7359C153.111 59.4079 149.81 59.7374 147.783 59.7374C145.756 59.7374 143.219 57.9301 143.219 57.9301C143.219 57.9301 146.519 48.2942 147.528 44.4898C148.067 42.4927 149.81 38.2889 148.508 38.2889C147.205 38.2889 146.99 39.2874 146.226 40.8751C145.462 42.4628 142.171 47.5952 142.171 47.5952L142.925 36.2219C142.925 36.2219 141.946 34.6642 141.152 36.4816C140.148 39.2723 139.301 42.1195 138.616 45.009C138.381 45.9141 137.949 46.7536 137.352 47.4654L136.373 38.9879C136.373 38.9879 134.649 37.1206 134.345 40.3559C134.179 42.1532 134.345 48.1145 134.345 49.143C134.345 50.1715 133.366 47.6751 133.366 47.6751C133.366 47.6751 132.769 44.8692 132.103 44.4898C131.437 44.1104 130.839 45.009 131.123 47.076C131.407 49.143 130.869 57.6704 130.869 57.6704C130.869 57.6704 129.35 59.7374 127.068 62.5832C124.786 65.429 106.501 82.2244 99.6451 87.6564C92.7892 93.0884 92.0449 97.482 91.0263 102.904C90.0077 108.326 88.9989 139.85 88.9989 151.243C88.9989 162.636 89.9783 180.7 90.7717 186.651C91.565 192.602 90.1644 200.271 89.185 204.445C88.2056 208.619 89.185 212.193 91.9763 214.26C94.7677 216.327 106.667 217.626 116.559 217.626C126.451 217.626 136.588 216.627 139.634 215.559C142.68 214.49 145.011 214.25 145.011 210.127C145.011 206.003 142.984 197.725 142.984 195.398C142.984 193.072 147.048 169.037 147.048 169.037C147.048 169.037 172.905 177.025 177.723 175.238C182.542 173.45 222.845 134.657 222.845 134.657C222.845 134.657 229.181 132.071 232.482 131.552C235.783 131.033 240.846 128.716 241.101 127.937C241.355 127.158 240.591 127.418 238.564 127.418C236.757 127.544 234.969 127.879 233.236 128.417C233.236 128.417 240.161 123.943 241.355 123.504C242.178 123.194 243.598 121.287 241.61 121.696C239.113 122.206 232.991 124.023 232.991 124.023L241.101 118.851C241.101 118.851 242.364 116.784 240.846 116.784C239.328 116.784 231.718 121.437 231.718 121.437L237.594 115.825C238.74 114.747 237.781 113.219 236.429 114.018L229.573 118.012C227.902 119.008 226.128 119.815 224.284 120.418L223.021 121.197C223.273 119.831 223.443 118.45 223.53 117.063C223.53 115.765 222.766 112.41 220.994 112.15C219.221 111.891 220.739 114.477 220.739 115.765C220.739 117.053 218.202 123.753 218.202 124.812V127.917C218.202 127.917 209.583 135.666 201.729 139.81C193.874 143.954 176.117 157.644 176.117 157.644C176.117 157.644 155.843 147.039 151.279 143.165C146.715 139.291 141.642 134.637 136.588 130.503C133.964 128.278 131.167 126.275 128.224 124.512L111.76 123.803Z" fill="white" stroke="#263238" stroke-width="1.03" stroke-linecap="round" stroke-linejoin="round"/>
<path d="M196.479 143.005C187.87 148.617 176.147 157.664 176.147 157.664C176.147 157.664 155.873 147.059 151.309 143.185C146.745 139.311 141.671 134.658 136.618 130.524C133.994 128.299 131.196 126.295 128.254 124.533L111.78 123.764C111.78 123.764 110.252 120.399 110.252 118.332C110.252 116.265 109.273 106.439 109.273 106.439C109.273 106.439 116.863 92.4596 122.642 82.6241L122.181 82.1448C119.341 79.259 115.414 77.7013 111.986 76.8525C107.206 81.1762 102.456 85.3401 99.6353 87.5768C92.7795 92.9988 92.0351 97.4024 91.0165 102.824C89.9979 108.246 88.9892 139.77 88.9892 151.163C88.9892 162.557 89.9686 180.62 90.7619 186.571C91.5552 192.523 90.1644 200.271 89.185 204.445C88.2056 208.619 89.185 212.194 91.9763 214.261C94.7677 216.328 106.667 217.626 116.559 217.626C126.451 217.626 136.588 216.627 139.634 215.559C142.68 214.49 145.011 214.251 145.011 210.127C145.011 206.003 142.984 197.725 142.984 195.398C142.984 193.072 147.048 169.037 147.048 169.037C147.048 169.037 172.905 177.025 177.723 175.238C180.289 174.239 193.002 162.756 204.275 152.272C202.224 148.745 199.585 145.61 196.479 143.005Z" fill="#7B3FE4" stroke="#263238" stroke-width="1.03" stroke-linecap="round" stroke-linejoin="round"/>
<path d="M139.135 135.126C139.135 135.126 128.929 137.962 128.361 145.84" stroke="#263238" stroke-width="1.03" stroke-linecap="round" stroke-linejoin="round"/>
<path d="M146.97 169.037C146.97 169.037 135.08 165.702 128.9 159.392" stroke="#263238" stroke-width="1.03" stroke-linecap="round" stroke-linejoin="round"/>
<path d="M140.369 167.319C140.369 167.319 130.164 170.155 120.889 166.381" stroke="#263238" stroke-width="1.03" stroke-linecap="round" stroke-linejoin="round"/>
<path d="M97.3145 150.574C97.3145 150.574 100.537 173.54 116.07 184.984" stroke="#263238" stroke-width="1.03" stroke-linecap="round" stroke-linejoin="round"/>
<path d="M120.967 191.284C122.152 191.614 123.376 191.903 124.64 192.133" stroke="#263238" stroke-width="1.03" stroke-linecap="round" stroke-linejoin="round"/>
<path d="M97.3145 173.511C101.658 180.117 107.662 185.414 114.699 188.848" stroke="#263238" stroke-width="1.03" stroke-linecap="round" stroke-linejoin="round"/>
<path d="M94.3076 122.526C94.3076 122.526 104.2 117.533 110.076 122.206" stroke="#263238" stroke-width="1.03" stroke-linecap="round" stroke-linejoin="round"/>
<path d="M97.0889 99.5195C97.0889 99.5195 106.06 102.675 108.528 108.976" stroke="#263238" stroke-width="1.03" stroke-linecap="round" stroke-linejoin="round"/>
<path d="M102.966 97.3125C105.112 99.0788 106.632 101.513 107.295 104.242" stroke="#263238" stroke-width="1.03" stroke-linecap="round" stroke-linejoin="round"/>
<path d="M145.218 82.4445C145.218 82.4445 146.745 91.2316 146.745 93.5581C146.745 95.8847 144.209 96.6636 145.218 99.759C146.226 102.854 148.518 103.124 148.009 105.75C147.5 108.376 144.209 109.884 144.209 109.884C144.209 109.884 142.436 117.124 140.654 120.219C138.871 123.314 132.289 120.998 132.289 120.998L131.78 129.266C131.78 129.266 129.498 132.631 121.134 131.592C116.318 131.05 111.616 129.743 107.197 127.718L105.924 125.911C105.924 125.911 112.515 122.546 112.78 120.219C113.044 117.892 112.78 112.47 112.78 104.712C112.78 96.9531 110.498 81.9652 122.917 78.0908C135.335 74.2165 145.218 82.4445 145.218 82.4445Z" fill="white" stroke="#263238" stroke-width="1.03" stroke-linecap="round" stroke-linejoin="round"/>
<path d="M129.733 103.663C129.733 103.663 126.873 96.9724 123.67 100.797C121.594 103.283 124.18 110.622 125.443 111.651C126.706 112.679 129.498 112.17 129.498 112.17C129.498 112.17 125.443 116.304 121.134 116.304C116.824 116.304 113.024 112.17 110.233 104.931C107.442 97.6914 105.414 85.2896 108.46 77.7906C111.506 70.2916 127.226 70.042 130.771 70.042C134.316 70.042 139.644 72.1089 139.644 72.1089C139.644 72.1089 151.054 71.1104 151.309 74.9548C151.564 78.7991 149.781 79.0887 149.781 79.0887C149.781 79.0887 157.901 83.4823 154.091 85.2896C150.281 87.0969 144.463 86.0685 140.653 86.0685C139.633 86.0081 138.617 86.2422 137.721 86.7437C136.826 87.2453 136.087 87.9942 135.59 88.9043C135.59 88.9043 139.135 91.2309 137.872 92.2693C136.608 93.3078 131.995 95.3648 131.535 97.1821C131.075 98.9995 133.308 101.835 131.78 103.173C130.252 104.511 129.733 103.663 129.733 103.663Z" fill="#263238" stroke="#263238" stroke-width="1.03" stroke-linecap="round" stroke-linejoin="round"/>
<path d="M143.836 100.538C143.836 101.856 143.297 102.924 142.641 102.924C141.985 102.924 141.456 101.856 141.456 100.538C141.456 99.2198 141.995 98.1514 142.641 98.1514C143.288 98.1514 143.836 99.2198 143.836 100.538Z" fill="#263238"/>
<path d="M139.684 97.4926C139.684 97.4926 141.319 93.5983 143.915 95.6852" stroke="#263238" stroke-width="1.03" stroke-linecap="round" stroke-linejoin="round"/>
<path d="M117.569 252.026L115.248 247.632L103.661 244.597" stroke="white" stroke-width="1.03" stroke-linecap="round" stroke-linejoin="round"/>
</svg>
