<svg width="60" height="50" viewBox="0 0 60 50" fill="none" xmlns="http://www.w3.org/2000/svg">
<path d="M46.512 22.5854C46.2449 22.5853 45.9807 22.6394 45.7339 22.7446C45.4871 22.8498 45.2629 23.004 45.074 23.1986C44.8851 23.3931 44.735 23.624 44.6328 23.8782C44.5306 24.1324 44.478 24.4049 44.478 24.6801V45.8097H4.06616V4.18508H44.478V7.68816C44.4898 8.23578 44.7093 8.75686 45.0894 9.13987C45.4694 9.52287 45.9798 9.73734 46.5115 9.73734C47.0431 9.73734 47.5538 9.52287 47.9338 9.13987C48.3139 8.75686 48.5334 8.23578 48.5452 7.68816V2.09458C48.5452 1.53905 48.331 1.00626 47.9497 0.613446C47.5684 0.220627 47.0511 0 46.512 0H2.03418C1.4949 -6.71504e-08 0.977612 0.220594 0.596191 0.613383C0.214771 1.00617 0.000265131 1.53896 0 2.09458V47.9054C0.000265131 48.461 0.214771 48.9938 0.596191 49.3866C0.977612 49.7793 1.4949 50 2.03418 50H46.5132C47.0524 50 47.5694 49.7793 47.9507 49.3865C48.3319 48.9937 48.5461 48.4609 48.5461 47.9054V24.679C48.546 24.4039 48.4932 24.1316 48.3909 23.8775C48.2886 23.6234 48.1388 23.3926 47.95 23.1982C47.7611 23.0038 47.5367 22.8496 47.29 22.7445C47.0433 22.6393 46.7789 22.5853 46.512 22.5854Z" fill="#0092FF"/>
<path d="M59.7367 8.54757C59.6055 8.30788 59.4297 8.09715 59.2194 7.92746C59.0091 7.75777 58.7682 7.63243 58.5109 7.55857C58.2536 7.48471 57.9848 7.46379 57.7196 7.49701C57.4545 7.53023 57.1984 7.6169 56.9657 7.75214L21.1486 28.5644L14.9005 17.9265C14.611 17.4754 14.1636 17.1571 13.6515 17.0381C13.1395 16.9191 12.6027 17.0087 12.1532 17.2881C11.7038 17.5675 11.3764 18.0152 11.2399 18.5374C11.1034 19.0596 11.1682 19.6159 11.4206 20.0901L18.6896 32.4652C18.9632 32.9312 19.4022 33.2691 19.9135 33.4072C20.4248 33.5453 20.9683 33.4727 21.4286 33.2049L58.9635 11.3984C59.4327 11.1257 59.7776 10.6723 59.9225 10.1377C60.0675 9.60323 60.0007 9.03133 59.7367 8.54757Z" fill="#0092FF"/>
</svg>
