<svg width="51" height="50" viewBox="0 0 51 50" fill="none" xmlns="http://www.w3.org/2000/svg">
<path d="M49.7071 1.88697C49.1147 1.18899 48.3552 0.655137 47.5006 0.335989C46.646 0.0168402 45.7244 -0.0770454 44.8237 0.0633347C23.3637 3.3345 11.9285 22.2395 11.4522 23.0422C11.2355 23.4078 11.1511 23.8376 11.2133 24.2588C11.2754 24.68 11.4801 25.0665 11.7929 25.3526L13.2865 26.7264L11.9737 37.3203C11.9381 37.6109 11.9715 37.9057 12.0712 38.1807C12.1709 38.4557 12.3338 38.7028 12.5469 38.9018C12.8944 39.2263 13.351 39.406 13.8248 39.4049C13.9391 39.4047 14.0533 39.3941 14.1657 39.3732L24.8513 37.371L26.5252 38.9164C26.8471 39.2127 27.2615 39.3865 27.6968 39.4081C28.1322 39.4298 28.5614 39.2978 28.9107 39.0349C42.0542 29.1613 48.2246 14.7467 50.7336 7.03328C51.0204 6.15946 51.0766 5.22543 50.8966 4.32309C50.7166 3.42075 50.3068 2.58117 49.7071 1.88697ZM15.9818 35.2546L16.6541 29.8276L21.4393 34.2321L15.9818 35.2546ZM47.188 5.88449C44.8946 12.936 39.3817 25.8953 27.8892 35.1155L15.4766 23.6896C18.3587 19.5349 28.7489 6.26999 45.3853 3.73376C45.6615 3.69309 45.9433 3.72401 46.2044 3.82358C46.4655 3.92315 46.6971 4.08809 46.8774 4.30286C47.0577 4.51763 47.1808 4.77515 47.235 5.05112C47.2891 5.32709 47.2727 5.61242 47.1871 5.8802L47.188 5.88449Z" fill="#FC7754"/>
<path d="M28.4421 14.9795C27.0415 14.9941 25.6767 15.426 24.5192 16.2208C23.3617 17.0156 22.4633 18.1378 21.9374 19.446C21.4115 20.7543 21.2813 22.1902 21.5634 23.5728C21.8456 24.9554 22.5274 26.223 23.5229 27.2159C24.5184 28.2088 25.7832 28.8827 27.1579 29.1527C28.5327 29.4226 29.9561 29.2766 31.2487 28.733C32.5413 28.1894 33.6454 27.2725 34.422 26.0978C35.1986 24.9231 35.6128 23.543 35.6127 22.1314C35.6006 20.2255 34.8388 18.4022 33.4946 17.0614C32.1503 15.7207 30.3333 14.972 28.4421 14.9795ZM28.4421 25.57C27.77 25.5622 27.1153 25.3544 26.5602 24.9725C26.0051 24.5906 25.5745 24.0518 25.3224 23.4239C25.0704 22.7959 25.008 22.1069 25.1436 21.4434C25.2791 20.78 25.6064 20.1717 26.0841 19.6952C26.5618 19.2187 27.1686 18.8952 27.8283 18.7654C28.488 18.6355 29.1708 18.7052 29.7913 18.9656C30.4118 19.226 30.942 19.6655 31.3152 20.2288C31.6885 20.7921 31.8882 21.4541 31.8891 22.1314C31.8832 23.0477 31.5171 23.9242 30.871 24.5688C30.2248 25.2134 29.3512 25.5735 28.4421 25.57Z" fill="#FC7754"/>
<path d="M2.81899 37.5716C3.07395 37.5727 3.32645 37.5212 3.56089 37.4202C3.79533 37.3192 4.00682 37.1709 4.18215 36.9843L9.1608 31.6843C9.32799 31.5072 9.45863 31.2984 9.54496 31.0699C9.63129 30.8414 9.67165 30.5979 9.66372 30.3536C9.65579 30.1093 9.59974 29.869 9.49878 29.6467C9.39783 29.4244 9.25404 29.2246 9.07573 29.0588C8.71397 28.7216 8.23484 28.5416 7.74231 28.5576C7.24979 28.5737 6.7834 28.7846 6.44404 29.1447L1.46539 34.4455C1.29834 34.6226 1.1679 34.8314 1.08165 35.0598C0.9954 35.2882 0.954963 35.5316 0.96289 35.7758C0.970817 36.02 1.02695 36.2603 1.12783 36.4825C1.2287 36.7047 1.37248 36.9044 1.55067 37.0702C1.89557 37.3926 2.34852 37.5717 2.81899 37.5716Z" fill="#FC7754"/>
<path d="M20.953 40.8396L14.3751 46.7637C14.1938 46.926 14.0463 47.123 13.9412 47.3433C13.8362 47.5636 13.7757 47.8028 13.7632 48.0468C13.7507 48.2909 13.7863 48.535 13.8682 48.7651C13.9502 48.9951 14.0768 49.2064 14.2405 49.3867C14.5734 49.753 15.036 49.9725 15.5282 49.9975C16.0204 50.0226 16.5028 49.8513 16.8706 49.5206L23.4482 43.5965C23.6296 43.4343 23.7771 43.2373 23.8823 43.017C23.9875 42.7968 24.0482 42.5576 24.0608 42.3136C24.0734 42.0695 24.0376 41.8253 23.9557 41.5953C23.8738 41.3652 23.7473 41.1539 23.5836 40.9736C23.2508 40.607 22.788 40.3873 22.2955 40.3623C21.8031 40.3372 21.3208 40.5087 20.953 40.8396Z" fill="#FC7754"/>
<path d="M7.38825 39.434L0.493605 46.883C0.32795 47.0614 0.199109 47.2712 0.114648 47.5003C0.0301869 47.7293 -0.00832831 47.973 0.00150154 48.2171C0.0113314 48.4613 0.0692485 48.701 0.171845 48.9224C0.274442 49.1438 0.419809 49.3425 0.599264 49.5068C0.963393 49.8413 1.44345 50.0179 1.9358 49.9983C2.42816 49.9787 2.89311 49.7645 3.22992 49.402L10.1254 41.953C10.2909 41.7745 10.4197 41.5647 10.5041 41.3357C10.5885 41.1066 10.6269 40.863 10.6171 40.6189C10.6073 40.3748 10.5493 40.135 10.4467 39.9137C10.3442 39.6923 10.1991 39.4936 10.0197 39.3292C9.65557 38.9944 9.17513 38.8177 8.68257 38.8373C8.19001 38.8569 7.72509 39.0713 7.38825 39.434Z" fill="#FC7754"/>
</svg>
