<svg width="92" height="89" viewBox="0 0 92 89" fill="none" xmlns="http://www.w3.org/2000/svg">
<path d="M91 65.0957C90.7145 65.1944 90.7502 65.5104 90.6788 65.7277C90.0363 67.92 88.787 69.4802 86.8953 70.4085C75.527 75.9584 64.2122 81.607 52.7725 86.9791C45.7231 90.2972 38.7807 89.4282 32.1953 85.1226C29.3637 83.266 26.5261 81.3766 23.6825 79.4542C21.9157 78.2494 19.9525 77.7162 17.9359 77.3212C17.5432 77.2422 17.3826 77.4199 17.2042 77.7952C16.1155 80.0072 14.4022 81.054 12.1179 81.0342C8.79839 81.0145 5.49677 81.0342 2.17729 81.0342C0.642481 81.0342 0 80.343 0 78.6642V44.0615C0 42.4419 0.660319 41.7112 2.12374 41.6914H12.2428C14.5093 41.6914 16.2226 42.7974 17.2399 45.0687C17.454 45.5427 17.7039 45.6217 18.1322 45.6217C21.88 45.602 25.6456 45.6415 29.4113 45.602C31.9336 45.5431 34.4219 46.2537 36.6035 47.656C39.4411 49.4533 42.3144 51.2111 45.1698 53.0084C45.6803 53.3306 46.2599 53.4943 46.8474 53.4824C50.381 53.4627 53.8968 53.5417 57.4305 53.4627C62.4811 53.3244 65.5507 57.9855 64.9975 62.3701C65.0036 62.4839 65.0215 62.5966 65.051 62.7059L75.0986 58.894C77.3116 58.0448 79.5246 57.235 81.7197 56.366C85.5389 54.8452 90.0541 57.0967 90.8394 61.9356C90.8572 62.0146 90.9465 62.0541 91 62.1331V65.0957ZM17.7753 61.4221C17.7753 65.0562 17.8109 68.6902 17.7574 72.3243C17.7395 73.1933 18.0073 73.4106 18.7033 73.5093C21.4038 73.9144 23.9921 74.9658 26.2881 76.5904C28.858 78.3877 31.4815 80.0862 34.1049 81.8045C39.8159 85.5176 45.7766 86.0904 51.8623 83.1673C63.0224 77.7952 74.1528 72.3704 85.2534 66.8929C87.163 65.9647 87.9125 64.0291 87.163 61.9948C86.4134 59.9605 84.7715 59.4075 82.8619 60.1383C75.3842 62.9824 67.8708 65.7079 60.4466 68.7297C59.8041 68.9865 59.1438 69.2235 58.4656 69.2235C52.2728 69.2235 46.08 69.2432 39.8872 69.2235C39.6575 69.2287 39.4292 69.1838 39.2152 69.0914C39.0012 68.9989 38.8057 68.8607 38.64 68.6846C38.4742 68.5086 38.3415 68.2981 38.2493 68.0652C38.1571 67.8323 38.1072 67.5817 38.1026 67.3275C38.0669 66.2807 38.7986 65.4117 39.798 65.3129H57.841C59.4828 65.3129 60.8213 64.2661 61.3032 62.6466C62.0884 60.0593 60.4109 57.4917 57.841 57.472C54.2002 57.4325 50.5595 57.4325 46.9188 57.472C45.6737 57.4837 44.4481 57.1293 43.3673 56.445L34.7296 51.0334C33.1794 50.0607 31.4252 49.5567 29.6433 49.5718C25.949 49.5916 22.2369 49.6113 18.5427 49.5718C17.918 49.5521 17.7574 49.7298 17.7574 50.4211C17.7931 54.0749 17.7753 57.7485 17.7753 61.4221ZM3.56933 61.3628C3.56933 66.3004 3.56337 71.2446 3.55147 76.1954C3.55147 76.8867 3.64071 77.1434 4.35457 77.1237C6.92449 77.0644 9.49442 77.1039 12.0643 77.1039C13.5813 77.1039 14.2238 76.3929 14.2238 74.7141V48.0708C14.2238 46.3328 13.5991 45.6415 12.0108 45.6415C9.45872 45.6217 6.90665 45.6612 4.37243 45.6217C3.7121 45.602 3.53363 45.76 3.55147 46.5105C3.56932 51.4679 3.56933 56.4055 3.56933 61.3628Z" fill="#0F4FE3"/>
<path d="M52.7108 6.90201C53.8544 5.12262 55.1795 3.57825 56.9039 2.3696C63.6202 -2.2971 73.2046 0.187337 76.6172 7.5567C79.0496 12.7942 78.1783 17.7798 74.7475 22.4297C72.4059 25.5856 69.4471 28.2043 66.3794 30.7224C62.4222 33.9622 58.3924 37.1517 54.3808 40.3579C53.3461 41.1637 52.5474 41.214 51.6398 40.4922C46.5935 36.4466 41.3475 32.6025 36.4464 28.389C34.7324 26.938 33.1424 25.3666 31.6906 23.6887C30.8737 22.7151 30.8737 21.7582 31.7269 21.1036C32.58 20.4489 33.6692 20.6335 34.5405 21.624C37.4448 24.9981 41.0208 27.7511 44.5423 30.5377C47.1199 32.5857 49.7338 34.6001 52.3296 36.6481C52.6563 36.8999 52.8923 37.1517 53.3643 36.7656C58.3924 32.6528 63.6928 28.8087 68.358 24.3434C70.3365 22.4465 72.1517 20.4489 73.2953 17.998C74.7838 14.8086 74.7294 11.6023 73.1138 8.47997C70.155 2.73892 61.3512 1.00988 56.559 7.52312C55.7061 8.7007 55.0226 9.97603 54.526 11.3169C54.1448 12.3409 53.5821 12.7606 52.6745 12.7606C51.7669 12.7606 51.2223 12.3073 50.8593 11.2833C50.2618 9.50185 49.2592 7.85917 47.9186 6.46556C42.8542 1.16097 34.6494 3.10822 31.9992 9.03393C31.7995 9.4536 31.6724 9.87326 31.4909 10.2929C31.0734 11.1994 30.1477 11.6023 29.24 11.3169C29.0098 11.2492 28.7969 11.1389 28.6143 10.9927C28.4317 10.8464 28.2832 10.6673 28.1779 10.4663C28.0726 10.2652 28.0127 10.0464 28.0018 9.82327C27.9909 9.6001 28.0293 9.37722 28.1146 9.16822C29.7664 4.38401 33.1246 1.19454 38.5339 0.254484C43.9433 -0.685571 48.1364 1.17775 51.3857 5.12263C51.8395 5.67659 52.2388 6.26412 52.7108 6.90201Z" fill="#0F4FE3"/>
<path d="M30.0003 15.3438C30.4638 15.3475 30.909 15.545 31.2465 15.8966C31.5841 16.2482 31.7892 16.728 31.8206 17.2398C31.8278 17.5008 31.7881 17.7608 31.7038 18.0047C31.6195 18.2486 31.4924 18.4716 31.3297 18.6608C31.1671 18.85 30.9722 19.0016 30.7562 19.1069C30.5403 19.2121 30.3076 19.269 30.0717 19.2741C29.6091 19.2848 29.1611 19.0943 28.824 18.7435C28.487 18.3926 28.2878 17.9095 28.2692 17.3978C28.2638 16.8748 28.4406 16.3696 28.763 15.9871C29.0854 15.6046 29.5285 15.3742 30.0003 15.3438Z" fill="#0F4FE3"/>
<path d="M10.6725 51.5849C10.6655 51.9737 10.5549 52.3516 10.3545 52.6712C10.1542 52.9907 9.87308 53.2377 9.54642 53.3812C9.21976 53.5246 8.86208 53.5581 8.51827 53.4775C8.17447 53.3969 7.85984 53.2058 7.61381 52.928C7.36778 52.6503 7.20131 52.2984 7.13529 51.9164C7.06927 51.5344 7.10663 51.1393 7.24269 50.7807C7.37875 50.4221 7.60747 50.1159 7.90013 49.9006C8.1928 49.6853 8.53638 49.5704 8.88782 49.5703C9.12453 49.5729 9.35846 49.627 9.57626 49.7297C9.79406 49.8323 9.99147 49.9814 10.1572 50.1685C10.3229 50.3556 10.4537 50.5769 10.5421 50.82C10.6305 51.063 10.6748 51.3229 10.6725 51.5849Z" fill="#0F4FE3"/>
<path d="M92 65.0957C91.7145 65.1944 91.7502 65.5104 91.6788 65.7277C91.0363 67.92 89.787 69.4802 87.8953 70.4085C76.527 75.9584 65.2122 81.607 53.7725 86.9791C46.7231 90.2972 39.7807 89.4282 33.1953 85.1226C30.3637 83.266 27.5261 81.3766 24.6825 79.4542C22.9157 78.2494 20.9525 77.7162 18.9359 77.3212C18.5432 77.2422 18.3826 77.4199 18.2042 77.7952C17.1155 80.0072 15.4022 81.054 13.1179 81.0342C9.79839 81.0145 6.49677 81.0342 3.17729 81.0342C1.64248 81.0342 1 80.343 1 78.6642V44.0615C1 42.4419 1.66032 41.7112 3.12374 41.6914H13.2428C15.5093 41.6914 17.2226 42.7974 18.2399 45.0687C18.454 45.5427 18.7039 45.6217 19.1322 45.6217C22.88 45.602 26.6456 45.6415 30.4113 45.602C32.9336 45.5431 35.4219 46.2537 37.6035 47.656C40.4411 49.4533 43.3144 51.2111 46.1698 53.0084C46.6803 53.3306 47.2599 53.4943 47.8474 53.4824C51.381 53.4627 54.8968 53.5417 58.4305 53.4627C63.4811 53.3244 66.5507 57.9855 65.9975 62.3701C66.0036 62.4839 66.0215 62.5966 66.051 62.7059L76.0986 58.894C78.3116 58.0448 80.5246 57.235 82.7197 56.366C86.5389 54.8452 91.0541 57.0967 91.8394 61.9356C91.8572 62.0146 91.9465 62.0541 92 62.1331V65.0957ZM18.7753 61.4221C18.7753 65.0562 18.8109 68.6902 18.7574 72.3243C18.7395 73.1933 19.0073 73.4106 19.7033 73.5093C22.4038 73.9144 24.9921 74.9658 27.2881 76.5904C29.858 78.3877 32.4815 80.0862 35.1049 81.8045C40.8159 85.5176 46.7766 86.0904 52.8623 83.1673C64.0224 77.7952 75.1528 72.3704 86.2534 66.8929C88.163 65.9647 88.9125 64.0291 88.163 61.9948C87.4134 59.9605 85.7715 59.4075 83.8619 60.1383C76.3842 62.9824 68.8708 65.7079 61.4466 68.7297C60.8041 68.9865 60.1438 69.2235 59.4656 69.2235C53.2728 69.2235 47.08 69.2432 40.8872 69.2235C40.6575 69.2287 40.4292 69.1838 40.2152 69.0914C40.0012 68.9989 39.8057 68.8607 39.64 68.6846C39.4742 68.5086 39.3415 68.2981 39.2493 68.0652C39.1571 67.8323 39.1072 67.5817 39.1026 67.3275C39.0669 66.2807 39.7986 65.4117 40.798 65.3129H58.841C60.4828 65.3129 61.8213 64.2661 62.3032 62.6466C63.0884 60.0593 61.4109 57.4917 58.841 57.472C55.2002 57.4325 51.5595 57.4325 47.9188 57.472C46.6737 57.4837 45.4481 57.1293 44.3673 56.445L35.7296 51.0334C34.1794 50.0607 32.4252 49.5567 30.6433 49.5718C26.949 49.5916 23.2369 49.6113 19.5427 49.5718C18.918 49.5521 18.7574 49.7298 18.7574 50.4211C18.7931 54.0749 18.7753 57.7485 18.7753 61.4221ZM4.56933 61.3628C4.56933 66.3004 4.56337 71.2446 4.55147 76.1954C4.55147 76.8867 4.64071 77.1434 5.35457 77.1237C7.92449 77.0644 10.4944 77.1039 13.0643 77.1039C14.5813 77.1039 15.2238 76.3929 15.2238 74.7141V48.0708C15.2238 46.3328 14.5991 45.6415 13.0108 45.6415C10.4587 45.6217 7.90665 45.6612 5.37243 45.6217C4.7121 45.602 4.53363 45.76 4.55147 46.5105C4.56932 51.4679 4.56933 56.4055 4.56933 61.3628Z" fill="url(#paint0_linear_4308_2721)"/>
<path d="M53.7108 6.90201C54.8544 5.12262 56.1795 3.57825 57.9039 2.3696C64.6202 -2.2971 74.2046 0.187337 77.6172 7.5567C80.0496 12.7942 79.1783 17.7798 75.7475 22.4297C73.4059 25.5856 70.4471 28.2043 67.3794 30.7224C63.4222 33.9622 59.3924 37.1517 55.3808 40.3579C54.3461 41.1637 53.5474 41.214 52.6398 40.4922C47.5935 36.4466 42.3475 32.6025 37.4464 28.389C35.7324 26.938 34.1424 25.3666 32.6906 23.6887C31.8737 22.7151 31.8737 21.7582 32.7269 21.1036C33.58 20.4489 34.6692 20.6335 35.5405 21.624C38.4448 24.9981 42.0208 27.7511 45.5423 30.5377C48.1199 32.5857 50.7338 34.6001 53.3296 36.6481C53.6563 36.8999 53.8923 37.1517 54.3643 36.7656C59.3924 32.6528 64.6928 28.8087 69.358 24.3434C71.3365 22.4465 73.1517 20.4489 74.2953 17.998C75.7838 14.8086 75.7294 11.6023 74.1138 8.47997C71.155 2.73892 62.3512 1.00988 57.559 7.52312C56.7061 8.7007 56.0226 9.97603 55.526 11.3169C55.1448 12.3409 54.5821 12.7606 53.6745 12.7606C52.7669 12.7606 52.2223 12.3073 51.8593 11.2833C51.2618 9.50185 50.2592 7.85917 48.9186 6.46556C43.8542 1.16097 35.6494 3.10822 32.9992 9.03393C32.7995 9.4536 32.6724 9.87326 32.4909 10.2929C32.0734 11.1994 31.1477 11.6023 30.24 11.3169C30.0098 11.2492 29.7969 11.1389 29.6143 10.9927C29.4317 10.8464 29.2832 10.6673 29.1779 10.4663C29.0726 10.2652 29.0127 10.0464 29.0018 9.82327C28.9909 9.6001 29.0293 9.37722 29.1146 9.16822C30.7664 4.38401 34.1246 1.19454 39.5339 0.254484C44.9433 -0.685571 49.1364 1.17775 52.3857 5.12263C52.8395 5.67659 53.2388 6.26412 53.7108 6.90201Z" fill="url(#paint1_linear_4308_2721)"/>
<path d="M31.0003 15.3438C31.4638 15.3475 31.909 15.545 32.2465 15.8966C32.5841 16.2482 32.7892 16.728 32.8206 17.2398C32.8278 17.5008 32.7881 17.7608 32.7038 18.0047C32.6195 18.2486 32.4924 18.4716 32.3297 18.6608C32.1671 18.85 31.9722 19.0016 31.7562 19.1069C31.5403 19.2121 31.3076 19.269 31.0717 19.2741C30.6091 19.2848 30.1611 19.0943 29.824 18.7435C29.487 18.3926 29.2878 17.9095 29.2692 17.3978C29.2638 16.8748 29.4406 16.3696 29.763 15.9871C30.0854 15.6046 30.5285 15.3742 31.0003 15.3438Z" fill="url(#paint2_linear_4308_2721)"/>
<path d="M11.6725 51.5849C11.6655 51.9737 11.5549 52.3516 11.3545 52.6712C11.1542 52.9907 10.8731 53.2377 10.5464 53.3812C10.2198 53.5246 9.86208 53.5581 9.51827 53.4775C9.17447 53.3969 8.85984 53.2058 8.61381 52.928C8.36778 52.6503 8.20131 52.2984 8.13529 51.9164C8.06927 51.5344 8.10663 51.1393 8.24269 50.7807C8.37875 50.4221 8.60747 50.1159 8.90013 49.9006C9.1928 49.6853 9.53638 49.5704 9.88782 49.5703C10.1245 49.5729 10.3585 49.627 10.5763 49.7297C10.7941 49.8323 10.9915 49.9814 11.1572 50.1685C11.3229 50.3556 11.4537 50.5769 11.5421 50.82C11.6305 51.063 11.6748 51.3229 11.6725 51.5849Z" fill="url(#paint3_linear_4308_2721)"/>
<defs>
<linearGradient id="paint0_linear_4308_2721" x1="46.5" y1="41.6914" x2="46.5" y2="89.0005" gradientUnits="userSpaceOnUse">
<stop stop-color="white" stop-opacity="0.66"/>
<stop offset="1" stop-color="#969696" stop-opacity="0"/>
</linearGradient>
<linearGradient id="paint1_linear_4308_2721" x1="54" y1="0" x2="54" y2="41" gradientUnits="userSpaceOnUse">
<stop stop-color="white" stop-opacity="0.66"/>
<stop offset="1" stop-color="#969696" stop-opacity="0"/>
</linearGradient>
<linearGradient id="paint2_linear_4308_2721" x1="31.0453" y1="15.3438" x2="31.0453" y2="19.2745" gradientUnits="userSpaceOnUse">
<stop stop-color="white" stop-opacity="0.66"/>
<stop offset="1" stop-color="#969696" stop-opacity="0"/>
</linearGradient>
<linearGradient id="paint3_linear_4308_2721" x1="9.88804" y1="49.5703" x2="9.88804" y2="53.5204" gradientUnits="userSpaceOnUse">
<stop stop-color="white" stop-opacity="0.66"/>
<stop offset="1" stop-color="#969696" stop-opacity="0"/>
</linearGradient>
</defs>
</svg>
