<svg width="88" height="87" viewBox="0 0 88 87" fill="none" xmlns="http://www.w3.org/2000/svg">
<path d="M68.9859 24.9414C75.7589 24.9414 81.3009 30.0872 81.7332 36.5927L81.7603 37.4126V41.1877C76.9019 37.2712 70.6716 34.9183 63.8782 34.9183C48.3573 34.9183 35.7747 47.2023 35.7747 62.3549C35.7747 68.9871 38.185 75.0696 42.1974 79.8131H38.3291C31.5562 79.8131 26.0144 74.6675 25.5819 68.162L25.5547 67.3419V37.4126C25.5547 30.8005 30.8256 25.3902 37.4892 24.9679L38.3291 24.9414H68.9859Z" fill="#F3BA2F"/>
<path d="M54.4853 8.46138L54.729 9.24657L57.6686 19.959L35.7741 19.9596C27.6103 19.9596 20.9371 26.1899 20.4709 34.0458L20.4448 34.9251L20.4462 61.6018C15.1987 61.4976 10.4096 58.2187 8.63967 53.2087L8.37304 52.3582L0.438448 23.4484C-1.31451 17.0615 2.34245 10.5038 8.66705 8.41219L9.47133 8.17434L39.0836 0.42805C45.3531 -1.21202 51.7832 1.99853 54.194 7.70332L54.4853 8.46138Z" fill="#F3BA2F"/>
<path d="M86.8697 62.3506C86.8697 74.7485 76.575 84.7988 63.8758 84.7988C51.177 84.7988 40.8818 74.7485 40.8818 62.3506C40.8818 49.9527 51.177 39.9023 63.8758 39.9023C76.575 39.9023 86.8697 49.9527 86.8697 62.3506ZM66.4306 52.3736C66.4306 50.9963 65.2871 49.8793 63.8758 49.8793C62.465 49.8793 61.3209 50.9963 61.3209 52.3736V59.8563H53.6562C52.2454 59.8563 51.1014 60.9733 51.1014 62.3506C51.1014 63.7284 52.2454 64.8448 53.6562 64.8448H61.3209V72.3276C61.3209 73.7054 62.465 74.8218 63.8758 74.8218C65.2871 74.8218 66.4306 73.7054 66.4306 72.3276V64.8448H74.0953C75.5066 64.8448 76.6502 63.7284 76.6502 62.3506C76.6502 60.9733 75.5066 59.8563 74.0953 59.8563H66.4306V52.3736Z" fill="#F3BA2F"/>
<path d="M70.1148 27.1367C76.8878 27.1367 82.4298 32.2826 82.8621 38.788L82.8892 39.608V43.383C78.0308 39.4665 71.8005 37.1136 65.0071 37.1136C49.4862 37.1136 36.9036 49.3976 36.9036 64.5502C36.9036 71.1824 39.314 77.2649 43.3263 82.0084H39.458C32.6851 82.0084 27.1433 76.8628 26.7108 70.3573L26.6836 69.5372V39.608C26.6836 32.9958 31.9545 27.5855 38.6181 27.1633L39.458 27.1367H70.1148Z" fill="url(#paint0_linear_4911_11)"/>
<path d="M55.6142 10.6567L55.8579 11.4419L58.7975 22.1543L36.903 22.1549C28.7392 22.1549 22.066 28.3852 21.5998 36.2411L21.5737 37.1204L21.5751 63.7972C16.3276 63.6929 11.5385 60.414 9.76857 55.404L9.50194 54.5535L1.56735 25.6437C-0.1856 19.2569 3.47135 12.6991 9.79596 10.6075L10.6002 10.3697L40.2125 2.62336C46.482 0.983294 52.9121 4.19384 55.3229 9.89864L55.6142 10.6567Z" fill="url(#paint1_linear_4911_11)"/>
<path d="M87.9986 64.5459C87.9986 76.9438 77.704 86.9941 65.0047 86.9941C52.3059 86.9941 42.0107 76.9438 42.0107 64.5459C42.0107 52.148 52.3059 42.0977 65.0047 42.0977C77.704 42.0977 87.9986 52.148 87.9986 64.5459ZM67.5595 54.5689C67.5595 53.1916 66.416 52.0747 65.0047 52.0747C63.5939 52.0747 62.4498 53.1916 62.4498 54.5689V62.0516H54.7851C53.3743 62.0516 52.2303 63.1686 52.2303 64.5459C52.2303 65.9237 53.3743 67.0401 54.7851 67.0401H62.4498V74.5229C62.4498 75.9007 63.5939 77.0171 65.0047 77.0171C66.416 77.0171 67.5595 75.9007 67.5595 74.5229V67.0401H75.2242C76.6355 67.0401 77.7791 65.9237 77.7791 64.5459C77.7791 63.1686 76.6355 62.0516 75.2242 62.0516H67.5595V54.5689Z" fill="url(#paint2_linear_4911_11)"/>
<defs>
<linearGradient id="paint0_linear_4911_11" x1="54.7864" y1="27.1367" x2="54.7864" y2="82.0084" gradientUnits="userSpaceOnUse">
<stop stop-color="white" stop-opacity="0.66"/>
<stop offset="1" stop-color="#969696" stop-opacity="0"/>
</linearGradient>
<linearGradient id="paint1_linear_4911_11" x1="29.9632" y1="2.19531" x2="29.9632" y2="63.7972" gradientUnits="userSpaceOnUse">
<stop stop-color="white" stop-opacity="0.66"/>
<stop offset="1" stop-color="#969696" stop-opacity="0"/>
</linearGradient>
<linearGradient id="paint2_linear_4911_11" x1="65.0047" y1="42.0977" x2="65.0047" y2="86.9941" gradientUnits="userSpaceOnUse">
<stop stop-color="white" stop-opacity="0.66"/>
<stop offset="1" stop-color="#969696" stop-opacity="0"/>
</linearGradient>
</defs>
</svg>
