<svg width="92" height="92" viewBox="0 0 92 92" fill="none" xmlns="http://www.w3.org/2000/svg">
<path d="M0 68.2664C0.332512 67.9339 0.261248 67.4588 0.403753 67.0549C1.11628 64.9883 2.32758 63.3254 4.18014 62.1614C4.60766 61.8763 4.6314 61.7338 4.32264 61.33C2.42257 58.7882 2.63633 55.5813 4.79766 53.3958C6.95898 51.2103 10.1178 50.9965 12.6354 52.7782C13.0154 53.0395 13.2529 53.0632 13.633 52.8019C16.5068 50.854 19.3569 48.9299 22.2545 47.0295C22.777 46.6969 22.777 46.3168 22.7533 45.8417C22.5349 40.7264 23.8322 35.6604 26.4822 31.2799C28.5074 27.8689 31.296 24.9741 34.6287 22.8231C34.4047 22.7237 34.1901 22.6044 33.9874 22.4668C33.726 22.299 33.5265 22.0504 33.4193 21.7589C33.3121 21.4672 33.3031 21.1486 33.3937 20.8514C33.4592 20.5413 33.6297 20.2633 33.8763 20.0643C34.1229 19.8652 34.4306 19.7573 34.7475 19.7587C35.65 19.7112 36.5525 19.7349 37.6451 19.7349L33.9162 15.3878L31.7786 12.8697C30.4486 11.2781 30.7336 9.33024 32.4911 8.14248C33.833 7.22814 35.2754 6.47094 36.79 5.88576C37.2175 5.71947 37.2888 5.57694 37.1463 5.1256C36.41 3.08267 37.265 1.51483 39.3551 0.897204C43.377 -0.307107 47.6646 -0.298842 51.6818 0.92096C53.7006 1.51484 54.5557 3.13018 53.8431 5.10185C53.6769 5.6007 53.7956 5.74323 54.2469 5.90951C55.6705 6.471 57.0317 7.17957 58.3083 8.02371C60.3271 9.35399 60.6121 11.2306 59.0683 13.0598C57.5245 14.8889 55.6719 17.0031 53.9856 18.9985L53.3681 19.7349C54.1994 19.7349 54.8882 19.7587 55.577 19.7349C56.2657 19.7112 57.2632 19.8062 57.572 20.8039C57.8808 21.8016 57.5008 22.2055 56.3607 22.8468C58.8919 24.4934 61.118 26.5672 62.9397 28.9756C66.6686 33.9404 68.4024 39.5229 68.2124 45.7229C68.1754 46.0193 68.2308 46.3198 68.3711 46.5835C68.5114 46.8471 68.7297 47.061 68.9962 47.1957L77.2377 52.7307C77.6415 52.992 77.9027 53.1107 78.3778 52.7544C79.5464 51.8714 80.9972 51.4456 82.4576 51.5572C83.918 51.6688 85.2874 52.31 86.3083 53.3603C87.3293 54.4106 87.9316 55.7978 88.002 57.261C88.0724 58.7242 87.606 60.1627 86.6906 61.3062C86.3105 61.8051 86.453 61.9239 86.8805 62.1852C89.5881 64.038 90.9419 66.6273 90.9894 69.9293C91.0132 71.8535 90.9894 73.7776 90.9894 75.7018C90.9894 77.6259 89.7306 78.8849 87.8306 78.8849H76.0027C74.0789 78.8612 72.8438 77.6259 72.7963 75.7018C72.7488 73.7776 72.7963 71.8535 72.7963 69.9293C72.8201 66.5086 74.2688 63.848 77.1664 61.9951L77.4515 61.7576C76.0027 60.1185 75.5039 58.2181 76.0502 56.0801C76.0977 55.8426 76.1927 55.605 75.9077 55.4625L75.6226 55.2487L67.7611 49.9988C67.2745 52.2952 66.1557 54.4098 64.531 56.1039C62.9933 57.7246 61.0234 58.8705 58.8546 59.4058C58.332 59.5484 58.1895 59.7621 58.3083 60.261C58.408 60.6018 58.4716 60.9521 58.4983 61.3062C58.6408 62.8028 59.0446 63.848 60.6596 64.6319C63.9135 66.1998 64.626 70.4281 62.4409 73.3975C62.0847 73.8726 62.1559 73.9914 62.6072 74.3002C65.3148 76.1294 66.6923 78.7424 66.7161 82.0206C66.7398 83.7785 66.6686 85.5126 66.7398 87.2705C66.8111 89.0283 66.0985 90.3824 64.341 91H50.6368C48.8555 90.0973 48.3567 88.577 48.4992 86.6766C48.5942 85.1325 48.4992 83.5884 48.5229 82.0444C48.5704 78.7662 49.9005 76.1531 52.6318 74.324C53.1306 73.9914 53.1306 73.8251 52.7743 73.35C50.7555 70.642 51.183 66.6749 54.0569 65.012C55.8145 63.9905 55.9569 62.9453 55.4344 61.33C55.4056 61.1892 55.3897 61.0461 55.3869 60.9024C55.3632 60.356 55.1019 60.1897 54.5319 60.2372C53.0119 60.4035 51.468 60.5698 49.948 60.5936C45.4353 60.6886 40.9464 60.8074 36.4575 60.2372C35.935 60.1897 35.6737 60.2848 35.6025 60.8786C35.5221 61.6458 35.3952 62.4074 35.2225 63.1591C35.1037 63.7055 35.1987 64.0143 35.8162 64.2756C39.4026 65.8197 40.5427 70.1906 38.2151 73.35C37.8826 73.7776 37.8113 73.9677 38.3576 74.324C39.438 75.0031 40.3543 75.9137 41.0402 76.99C41.7261 78.0663 42.1646 79.2814 42.324 80.5478C42.6327 82.7095 42.419 84.9187 42.4665 87.1042C42.514 89.2896 42.039 90.1448 39.9726 91H26.4822C24.7009 90.1923 24.1308 88.7908 24.2496 86.9141C24.3684 85.0375 24.2733 83.7785 24.2733 82.2106C24.2496 78.8137 25.6271 76.1531 28.4535 74.2527C28.8097 74.0152 28.9285 73.9201 28.6198 73.4925C26.0072 69.953 27.4084 65.4634 31.5411 63.9905C31.7111 63.9538 31.8641 63.8614 31.9759 63.7281C32.0877 63.5948 32.152 63.428 32.1586 63.2541C32.3011 62.2802 32.4436 61.33 32.6574 60.3798C32.8712 59.4296 32.6099 59.5246 31.9924 59.3583C28.1922 58.2893 25.5084 55.9138 23.9646 52.3031C23.6558 51.5904 23.4421 50.8303 23.1808 50.0226L15.1768 55.3912C15.0587 55.4435 14.9655 55.5396 14.9167 55.6592C14.868 55.7788 14.8676 55.9127 14.9155 56.0326C15.4855 58.1943 14.9868 60.0947 13.538 61.7813C16.8631 63.8718 18.3356 66.8411 18.1931 70.7132C18.1456 72.2335 18.1931 73.7776 18.1931 75.3217C18.1694 77.7209 17.0293 78.8849 14.6543 78.8849H3.56263C3.20636 78.8849 2.8501 78.8374 2.49384 78.8137C1.23504 78.6474 0.641273 77.6972 0 76.7707V68.2664ZM45.4828 57.6242C48.0479 57.6242 50.6368 57.6479 53.2019 57.3629C54.2863 57.2628 55.3646 57.1042 56.432 56.8878C61.3722 55.8901 64.151 53.277 64.8635 48.7398C65.9798 41.542 64.2223 35.0332 59.5196 29.4745C52.9881 21.7541 42.2765 20.4951 34.5337 26.6001C27.9547 31.8025 25.2709 38.8815 25.9122 47.1245C26.3634 53.0395 29.0235 55.7238 34.8662 56.9353C38.3576 57.6479 41.9202 57.6242 45.4828 57.6242ZM45.4591 19.7349C46.5516 19.7349 47.6442 19.7112 48.7604 19.7587C48.9463 19.7616 49.1303 19.7225 49.2989 19.6443C49.4675 19.5662 49.6163 19.451 49.7342 19.3073C51.9906 16.6468 54.2469 13.9862 56.5507 11.3494C56.8832 10.9456 57.002 10.7318 56.432 10.4467C55.862 10.1617 55.1257 9.66281 54.4369 9.30648C52.5843 8.38004 52.5843 8.40379 51.8243 10.2804L51.5868 10.8506C51.1355 11.967 50.3518 12.3946 49.473 12.0383C48.5942 11.682 48.3329 10.803 48.7842 9.71032C49.4492 7.99996 50.138 6.26584 50.8505 4.53172C51.0643 4.00911 50.9693 3.86658 50.423 3.7003C47.1877 2.81702 43.7737 2.82523 40.5427 3.72405C40.0201 3.86658 39.8776 3.98536 40.1151 4.53172C40.8752 6.3371 41.5877 8.14249 42.3002 9.94787C42.6565 10.8506 42.3002 11.7057 41.5164 12.0383C40.7327 12.3709 39.8776 11.9908 39.4976 11.1119C39.2072 10.4967 38.9612 9.86166 38.7614 9.21146C38.5713 8.52256 38.2626 8.52257 37.6926 8.78387C36.6427 9.2575 35.6199 9.78884 34.6287 10.3755C34.1062 10.6843 34.0112 10.8743 34.4387 11.3969C36.7425 14.01 39.0226 16.6705 41.2789 19.3311C41.3832 19.4705 41.5199 19.5823 41.6772 19.6568C41.8345 19.7313 42.0076 19.7663 42.1815 19.7587C43.274 19.7112 44.3665 19.7349 45.4591 19.7349ZM81.8216 75.868C83.6267 75.868 85.4317 75.8443 87.2368 75.8918C87.8306 75.8918 87.9968 75.7018 87.9731 75.1317C87.9493 73.3738 87.9731 71.5921 87.9493 69.8105C87.9493 68.1955 87.3095 66.6462 86.1699 65.502C85.0303 64.3577 83.4839 63.7118 81.8691 63.7055C78.544 63.7292 75.9076 66.3423 75.8601 69.763C75.8126 71.5684 75.8602 73.3738 75.8127 75.1792C75.8127 75.8205 76.0739 75.8918 76.5964 75.868C78.354 75.8443 80.0878 75.868 81.8216 75.868ZM9.02532 75.868C10.8779 75.868 12.7067 75.8443 14.5355 75.868C14.9868 75.8918 15.153 75.773 15.153 75.2979C15.1293 73.3738 15.1768 71.4496 15.1293 69.5255C15.0343 66.366 12.6354 63.9905 9.40532 63.7292C7.9445 63.6376 6.50133 64.0889 5.35284 64.9965C4.20435 65.9041 3.43148 67.2039 3.18259 68.6465C2.80258 70.9033 3.11135 73.1837 3.01634 75.4642C3.01634 75.9393 3.34885 75.868 3.63386 75.868H9.02532ZM33.3224 87.9831C35.1037 87.9831 36.8613 87.9594 38.6426 88.0069C39.3314 88.0306 39.4739 87.8168 39.4501 87.1754C39.4026 85.4651 39.4501 83.731 39.4264 82.0206C39.4026 78.5524 36.79 75.8918 33.4174 75.868C30.0448 75.8443 27.3847 78.4336 27.3135 81.9256C27.266 83.731 27.3372 85.5363 27.2897 87.3417C27.2897 87.8881 27.4559 88.0069 28.0022 88.0069L33.3224 87.9831ZM57.667 87.9831H63.0822C63.5335 87.9831 63.6997 87.8643 63.6997 87.3892C63.6522 85.4413 63.7235 83.4934 63.6522 81.5455C63.5335 78.5524 61.0872 76.0581 58.1895 75.868C55.2919 75.678 52.2043 77.6734 51.7056 80.7616C51.3255 83.0183 51.6343 85.3226 51.5393 87.603C51.5393 88.1019 51.8956 87.9594 52.1568 87.9594C54.0094 88.0069 55.8382 87.9831 57.667 87.9831ZM33.3699 66.7461C32.9698 66.7461 32.5736 66.8257 32.2045 66.9802C31.8354 67.1348 31.5008 67.3613 31.2201 67.6465C30.9393 67.9317 30.7181 68.2699 30.5694 68.6414C30.4206 69.0129 30.3472 69.4104 30.3535 69.8105C30.3534 70.2097 30.4332 70.6048 30.588 70.9726C30.7428 71.3405 30.9696 71.6737 31.2551 71.9526C31.5406 72.2315 31.879 72.4504 32.2503 72.5966C32.6217 72.7428 33.0185 72.8132 33.4174 72.8037C34.1739 72.7309 34.8757 72.3773 35.3845 71.8127C35.8934 71.248 36.1723 70.5133 36.1663 69.7531C36.1603 68.993 35.8699 68.2627 35.3523 67.7061C34.8347 67.1495 34.1275 66.807 33.3699 66.7461ZM12.1129 57.6717C12.1161 57.2724 12.0405 56.8764 11.8906 56.5063C11.7407 56.1362 11.5194 55.7992 11.2393 55.5147C10.9592 55.2301 10.6258 55.0035 10.2582 54.8478C9.89052 54.6921 9.49579 54.6104 9.09655 54.6073C8.29002 54.6197 7.52037 54.9473 6.95222 55.52C6.38408 56.0926 6.06257 56.865 6.05646 57.6717C6.12356 58.4287 6.47161 59.1331 7.0321 59.6462C7.59259 60.1593 8.32488 60.4439 9.08469 60.4439C9.84451 60.4439 10.5768 60.1593 11.1373 59.6462C11.6978 59.1331 12.0458 58.4287 12.1129 57.6717ZM78.8765 57.6004C78.8639 57.9924 78.9289 58.3829 79.068 58.7496C79.2071 59.1162 79.4174 59.4517 79.6868 59.7366C79.9562 60.0215 80.2794 60.2502 80.6376 60.4095C80.9959 60.5689 81.3821 60.6556 81.7741 60.6648C82.1812 60.6808 82.5874 60.6147 82.9685 60.4705C83.3496 60.3263 83.6978 60.107 83.9925 59.8256C84.2871 59.5442 84.5222 59.2064 84.6838 58.8323C84.8454 58.4582 84.9301 58.0554 84.933 57.6479C84.9214 56.8573 84.607 56.1013 84.0547 55.5356C83.5024 54.9699 82.7541 54.6376 81.9641 54.6073C81.5649 54.601 81.1683 54.6735 80.7971 54.8205C80.4258 54.9675 80.0872 55.1862 79.8004 55.4642C79.5137 55.7421 79.2845 56.0738 79.126 56.4404C78.9675 56.8069 78.8827 57.2011 78.8765 57.6004ZM60.6359 69.7868C60.6423 68.9947 60.3371 68.2319 59.7861 67.663C59.2351 67.0941 58.4825 66.7648 57.6908 66.7461C56.884 66.7395 56.1067 67.0491 55.5252 67.6085C54.9437 68.1679 54.6042 68.9327 54.5794 69.7393C54.5763 70.1386 54.6518 70.5346 54.8017 70.9047C54.9516 71.2748 55.1729 71.6117 55.453 71.8963C55.7331 72.1809 56.0665 72.4074 56.4342 72.5631C56.8018 72.7188 57.1965 72.8005 57.5958 72.8037C57.9948 72.81 58.391 72.7365 58.7611 72.5874C59.1313 72.4383 59.4679 72.2168 59.7512 71.9356C60.0344 71.6545 60.2586 71.3196 60.4105 70.9506C60.5625 70.5816 60.6391 70.1859 60.6359 69.7868Z" fill="#3C3C3D"/>
<path d="M49.6154 36.2658C49.5679 37.0259 49.2829 37.4773 48.7129 37.7386C48.4476 37.8753 48.1455 37.9237 47.8507 37.8767C47.5559 37.8297 47.2838 37.6897 47.0741 37.4773C46.8841 37.311 46.7416 37.0497 46.5516 36.8834C46.3399 36.6509 46.0561 36.4963 45.7459 36.4446C45.4358 36.3929 45.1172 36.4471 44.8415 36.5983C44.5677 36.7144 44.3388 36.9159 44.189 37.1728C44.0391 37.4297 43.9764 37.7282 44.0102 38.0236C44.034 38.7363 44.4378 39.1639 45.1028 39.3777C45.3282 39.4342 45.5592 39.4661 45.7916 39.4727C46.7566 39.5344 47.677 39.9014 48.4198 40.5205C49.1627 41.1397 49.6895 41.979 49.9242 42.9172C50.1585 43.8767 50.0717 44.8866 49.677 45.792C49.2823 46.6973 48.6015 47.4482 47.7391 47.9295C47.2879 48.167 47.0029 48.4046 46.9316 48.9272C46.8604 49.4498 46.2191 50.0437 45.5066 50.0437C44.794 50.0437 44.1765 49.6636 44.0578 48.8797C44.0357 48.6684 43.9551 48.4675 43.825 48.2997C43.6949 48.1318 43.5205 48.0036 43.3215 47.9295C42.5916 47.5816 41.9863 47.0177 41.5877 46.3141C41.4031 45.9928 41.3423 45.615 41.4166 45.2519C41.491 44.8888 41.6954 44.5654 41.9914 44.3425C42.2959 44.1299 42.666 44.0322 43.0357 44.0671C43.4054 44.1019 43.7508 44.2668 44.0102 44.5325C44.1528 44.6988 44.2478 44.8889 44.3903 45.0314C44.9128 45.5302 45.5303 45.6728 46.1716 45.3164C46.4591 45.1875 46.6937 44.9639 46.8363 44.6829C46.9789 44.402 47.021 44.0806 46.9554 43.7724C46.8604 43.036 46.3853 42.6321 45.6728 42.5133C44.9603 42.3946 44.8415 42.4421 44.4378 42.3471C43.5459 42.1407 42.7378 41.6679 42.1208 40.9914C41.5039 40.3149 41.1072 39.4668 40.9835 38.5596C40.8598 37.6523 41.0149 36.7289 41.4283 35.9119C41.8416 35.0949 42.4936 34.423 43.2977 33.9853C43.7015 33.7477 43.9865 33.5577 44.0578 33.0351C44.129 32.5125 44.7703 31.8711 45.5066 31.8711C46.2428 31.8711 46.8129 32.2512 46.9079 32.9876C47.0029 33.724 47.3354 33.7953 47.7866 34.0566C48.6892 34.5792 49.4729 35.2681 49.6154 36.2658Z" fill="#3C3C3D"/>
<path d="M1 69.2664C1.33251 68.9339 1.26125 68.4588 1.40375 68.0549C2.11628 65.9883 3.32758 64.3254 5.18014 63.1614C5.60766 62.8763 5.6314 62.7338 5.32264 62.33C3.42257 59.7882 3.63633 56.5813 5.79766 54.3958C7.95898 52.2103 11.1178 51.9965 13.6354 53.7782C14.0154 54.0395 14.2529 54.0632 14.633 53.8019C17.5068 51.854 20.3569 49.9299 23.2545 48.0295C23.777 47.6969 23.777 47.3168 23.7533 46.8417C23.5349 41.7264 24.8322 36.6604 27.4822 32.2799C29.5074 28.8689 32.296 25.9741 35.6287 23.8231C35.4047 23.7237 35.1901 23.6044 34.9874 23.4668C34.726 23.299 34.5265 23.0504 34.4193 22.7589C34.3121 22.4672 34.3031 22.1486 34.3937 21.8514C34.4592 21.5413 34.6297 21.2633 34.8763 21.0643C35.1229 20.8652 35.4306 20.7573 35.7475 20.7587C36.65 20.7112 37.5525 20.7349 38.6451 20.7349L34.9162 16.3878L32.7786 13.8697C31.4486 12.2781 31.7336 10.3302 33.4911 9.14248C34.833 8.22814 36.2754 7.47094 37.79 6.88576C38.2175 6.71947 38.2888 6.57694 38.1463 6.1256C37.41 4.08267 38.265 2.51483 40.3551 1.8972C44.377 0.692893 48.6646 0.701158 52.6818 1.92096C54.7006 2.51484 55.5557 4.13018 54.8431 6.10185C54.6769 6.6007 54.7956 6.74323 55.2469 6.90951C56.6705 7.471 58.0317 8.17957 59.3083 9.02371C61.3271 10.354 61.6121 12.2306 60.0683 14.0598C58.5245 15.8889 56.6719 18.0031 54.9856 19.9985L54.3681 20.7349C55.1994 20.7349 55.8882 20.7587 56.577 20.7349C57.2657 20.7112 58.2632 20.8062 58.572 21.8039C58.8808 22.8016 58.5008 23.2055 57.3607 23.8468C59.8919 25.4934 62.118 27.5672 63.9397 29.9756C67.6686 34.9404 69.4024 40.5229 69.2124 46.7229C69.1754 47.0193 69.2308 47.3198 69.3711 47.5835C69.5114 47.8471 69.7297 48.061 69.9962 48.1957L78.2377 53.7307C78.6415 53.992 78.9027 54.1107 79.3778 53.7544C80.5464 52.8714 81.9972 52.4456 83.4576 52.5572C84.918 52.6688 86.2874 53.31 87.3083 54.3603C88.3293 55.4106 88.9316 56.7978 89.002 58.261C89.0724 59.7242 88.606 61.1627 87.6906 62.3062C87.3105 62.8051 87.453 62.9239 87.8805 63.1852C90.5881 65.038 91.9419 67.6273 91.9894 70.9293C92.0132 72.8535 91.9894 74.7776 91.9894 76.7018C91.9894 78.6259 90.7306 79.8849 88.8306 79.8849H77.0027C75.0789 79.8612 73.8438 78.6259 73.7963 76.7018C73.7488 74.7776 73.7963 72.8535 73.7963 70.9293C73.8201 67.5086 75.2688 64.848 78.1664 62.9951L78.4515 62.7576C77.0027 61.1185 76.5039 59.2181 77.0502 57.0801C77.0977 56.8426 77.1927 56.605 76.9077 56.4625L76.6226 56.2487L68.7611 50.9988C68.2745 53.2952 67.1557 55.4098 65.531 57.1039C63.9933 58.7246 62.0234 59.8705 59.8546 60.4058C59.332 60.5484 59.1895 60.7621 59.3083 61.261C59.408 61.6018 59.4716 61.9521 59.4983 62.3062C59.6408 63.8028 60.0446 64.848 61.6596 65.6319C64.9135 67.1998 65.626 71.4281 63.4409 74.3975C63.0847 74.8726 63.1559 74.9914 63.6072 75.3002C66.3148 77.1294 67.6923 79.7424 67.7161 83.0206C67.7398 84.7785 67.6686 86.5126 67.7398 88.2705C67.8111 90.0283 67.0985 91.3824 65.341 92H51.6368C49.8555 91.0973 49.3567 89.577 49.4992 87.6766C49.5942 86.1325 49.4992 84.5884 49.5229 83.0444C49.5704 79.7662 50.9005 77.1531 53.6318 75.324C54.1306 74.9914 54.1306 74.8251 53.7743 74.35C51.7555 71.642 52.183 67.6749 55.0569 66.012C56.8145 64.9905 56.9569 63.9453 56.4344 62.33C56.4056 62.1892 56.3897 62.0461 56.3869 61.9024C56.3632 61.356 56.1019 61.1897 55.5319 61.2372C54.0119 61.4035 52.468 61.5698 50.948 61.5936C46.4353 61.6886 41.9464 61.8074 37.4575 61.2372C36.935 61.1897 36.6737 61.2848 36.6025 61.8786C36.5221 62.6458 36.3952 63.4074 36.2225 64.1591C36.1037 64.7055 36.1987 65.0143 36.8162 65.2756C40.4026 66.8197 41.5427 71.1906 39.2151 74.35C38.8826 74.7776 38.8113 74.9677 39.3576 75.324C40.438 76.0031 41.3543 76.9137 42.0402 77.99C42.7261 79.0663 43.1646 80.2814 43.324 81.5478C43.6327 83.7095 43.419 85.9187 43.4665 88.1042C43.514 90.2896 43.039 91.1448 40.9726 92H27.4822C25.7009 91.1923 25.1308 89.7908 25.2496 87.9141C25.3684 86.0375 25.2733 84.7785 25.2733 83.2106C25.2496 79.8137 26.6271 77.1531 29.4535 75.2527C29.8097 75.0152 29.9285 74.9201 29.6198 74.4925C27.0072 70.953 28.4084 66.4634 32.5411 64.9905C32.7111 64.9538 32.8641 64.8614 32.9759 64.7281C33.0877 64.5948 33.152 64.428 33.1586 64.2541C33.3011 63.2802 33.4436 62.33 33.6574 61.3798C33.8712 60.4296 33.6099 60.5246 32.9924 60.3583C29.1922 59.2893 26.5084 56.9138 24.9646 53.3031C24.6558 52.5904 24.4421 51.8303 24.1808 51.0226L16.1768 56.3912C16.0587 56.4435 15.9655 56.5396 15.9167 56.6592C15.868 56.7788 15.8676 56.9127 15.9155 57.0326C16.4855 59.1943 15.9868 61.0947 14.538 62.7813C17.8631 64.8718 19.3356 67.8411 19.1931 71.7132C19.1456 73.2335 19.1931 74.7776 19.1931 76.3217C19.1694 78.7209 18.0293 79.8849 15.6543 79.8849H4.56263C4.20636 79.8849 3.8501 79.8374 3.49384 79.8137C2.23504 79.6474 1.64127 78.6972 1 77.7707V69.2664ZM46.4828 58.6242C49.0479 58.6242 51.6368 58.6479 54.2019 58.3629C55.2863 58.2628 56.3646 58.1042 57.432 57.8878C62.3722 56.8901 65.151 54.277 65.8635 49.7398C66.9798 42.542 65.2223 36.0332 60.5196 30.4745C53.9881 22.7541 43.2765 21.4951 35.5337 27.6001C28.9547 32.8025 26.2709 39.8815 26.9122 48.1245C27.3634 54.0395 30.0235 56.7238 35.8662 57.9353C39.3576 58.6479 42.9202 58.6242 46.4828 58.6242ZM46.4591 20.7349C47.5516 20.7349 48.6442 20.7112 49.7604 20.7587C49.9463 20.7616 50.1303 20.7225 50.2989 20.6443C50.4675 20.5662 50.6163 20.451 50.7342 20.3073C52.9906 17.6468 55.2469 14.9862 57.5507 12.3494C57.8832 11.9456 58.002 11.7318 57.432 11.4467C56.862 11.1617 56.1257 10.6628 55.4369 10.3065C53.5843 9.38004 53.5843 9.40379 52.8243 11.2804L52.5868 11.8506C52.1355 12.967 51.3518 13.3946 50.473 13.0383C49.5942 12.682 49.3329 11.803 49.7842 10.7103C50.4492 8.99996 51.138 7.26584 51.8505 5.53172C52.0643 5.00911 51.9693 4.86658 51.423 4.7003C48.1877 3.81702 44.7737 3.82523 41.5427 4.72405C41.0201 4.86658 40.8776 4.98536 41.1151 5.53172C41.8752 7.3371 42.5877 9.14249 43.3002 10.9479C43.6565 11.8506 43.3002 12.7057 42.5164 13.0383C41.7327 13.3709 40.8776 12.9908 40.4976 12.1119C40.2072 11.4967 39.9612 10.8617 39.7614 10.2115C39.5713 9.52256 39.2626 9.52257 38.6926 9.78387C37.6427 10.2575 36.6199 10.7888 35.6287 11.3755C35.1062 11.6843 35.0112 11.8743 35.4387 12.3969C37.7425 15.01 40.0226 17.6705 42.2789 20.3311C42.3832 20.4705 42.5199 20.5823 42.6772 20.6568C42.8345 20.7313 43.0076 20.7663 43.1815 20.7587C44.274 20.7112 45.3665 20.7349 46.4591 20.7349ZM82.8216 76.868C84.6267 76.868 86.4317 76.8443 88.2368 76.8918C88.8306 76.8918 88.9968 76.7018 88.9731 76.1317C88.9493 74.3738 88.9731 72.5921 88.9493 70.8105C88.9493 69.1955 88.3095 67.6462 87.1699 66.502C86.0303 65.3577 84.4839 64.7118 82.8691 64.7055C79.544 64.7292 76.9076 67.3423 76.8601 70.763C76.8126 72.5684 76.8602 74.3738 76.8127 76.1792C76.8127 76.8205 77.0739 76.8918 77.5964 76.868C79.354 76.8443 81.0878 76.868 82.8216 76.868ZM10.0253 76.868C11.8779 76.868 13.7067 76.8443 15.5355 76.868C15.9868 76.8918 16.153 76.773 16.153 76.2979C16.1293 74.3738 16.1768 72.4496 16.1293 70.5255C16.0343 67.366 13.6354 64.9905 10.4053 64.7292C8.9445 64.6376 7.50133 65.0889 6.35284 65.9965C5.20435 66.9041 4.43148 68.2039 4.18259 69.6465C3.80258 71.9033 4.11135 74.1837 4.01634 76.4642C4.01634 76.9393 4.34885 76.868 4.63386 76.868H10.0253ZM34.3224 88.9831C36.1037 88.9831 37.8613 88.9594 39.6426 89.0069C40.3314 89.0306 40.4739 88.8168 40.4501 88.1754C40.4026 86.4651 40.4501 84.731 40.4264 83.0206C40.4026 79.5524 37.79 76.8918 34.4174 76.868C31.0448 76.8443 28.3847 79.4336 28.3135 82.9256C28.266 84.731 28.3372 86.5363 28.2897 88.3417C28.2897 88.8881 28.4559 89.0069 29.0022 89.0069L34.3224 88.9831ZM58.667 88.9831H64.0822C64.5335 88.9831 64.6997 88.8643 64.6997 88.3892C64.6522 86.4413 64.7235 84.4934 64.6522 82.5455C64.5335 79.5524 62.0872 77.0581 59.1895 76.868C56.2919 76.678 53.2043 78.6734 52.7056 81.7616C52.3255 84.0183 52.6343 86.3226 52.5393 88.603C52.5393 89.1019 52.8956 88.9594 53.1568 88.9594C55.0094 89.0069 56.8382 88.9831 58.667 88.9831ZM34.3699 67.7461C33.9698 67.7461 33.5736 67.8257 33.2045 67.9802C32.8354 68.1348 32.5008 68.3613 32.2201 68.6465C31.9393 68.9317 31.7181 69.2699 31.5694 69.6414C31.4206 70.0129 31.3472 70.4104 31.3535 70.8105C31.3534 71.2097 31.4332 71.6048 31.588 71.9726C31.7428 72.3405 31.9696 72.6737 32.2551 72.9526C32.5406 73.2315 32.879 73.4504 33.2503 73.5966C33.6217 73.7428 34.0185 73.8132 34.4174 73.8037C35.1739 73.7309 35.8757 73.3773 36.3845 72.8127C36.8934 72.248 37.1723 71.5133 37.1663 70.7531C37.1603 69.993 36.8699 69.2627 36.3523 68.7061C35.8347 68.1495 35.1275 67.807 34.3699 67.7461ZM13.1129 58.6717C13.1161 58.2724 13.0405 57.8764 12.8906 57.5063C12.7407 57.1362 12.5194 56.7992 12.2393 56.5147C11.9592 56.2301 11.6258 56.0035 11.2582 55.8478C10.8905 55.6921 10.4958 55.6104 10.0966 55.6073C9.29002 55.6197 8.52037 55.9473 7.95222 56.52C7.38408 57.0926 7.06257 57.865 7.05646 58.6717C7.12356 59.4287 7.47161 60.1331 8.0321 60.6462C8.59259 61.1593 9.32488 61.4439 10.0847 61.4439C10.8445 61.4439 11.5768 61.1593 12.1373 60.6462C12.6978 60.1331 13.0458 59.4287 13.1129 58.6717ZM79.8765 58.6004C79.8639 58.9924 79.9289 59.3829 80.068 59.7496C80.2071 60.1162 80.4174 60.4517 80.6868 60.7366C80.9562 61.0215 81.2794 61.2502 81.6376 61.4095C81.9959 61.5689 82.3821 61.6556 82.7741 61.6648C83.1812 61.6808 83.5874 61.6147 83.9685 61.4705C84.3496 61.3263 84.6978 61.107 84.9925 60.8256C85.2871 60.5442 85.5222 60.2064 85.6838 59.8323C85.8454 59.4582 85.9301 59.0554 85.933 58.6479C85.9214 57.8573 85.607 57.1013 85.0547 56.5356C84.5024 55.9699 83.7541 55.6376 82.9641 55.6073C82.5649 55.601 82.1683 55.6735 81.7971 55.8205C81.4258 55.9675 81.0872 56.1862 80.8004 56.4642C80.5137 56.7421 80.2845 57.0738 80.126 57.4404C79.9675 57.8069 79.8827 58.2011 79.8765 58.6004ZM61.6359 70.7868C61.6423 69.9947 61.3371 69.2319 60.7861 68.663C60.2351 68.0941 59.4825 67.7648 58.6908 67.7461C57.884 67.7395 57.1067 68.0491 56.5252 68.6085C55.9437 69.1679 55.6042 69.9327 55.5794 70.7393C55.5763 71.1386 55.6518 71.5346 55.8017 71.9047C55.9516 72.2748 56.1729 72.6117 56.453 72.8963C56.7331 73.1809 57.0665 73.4074 57.4342 73.5631C57.8018 73.7188 58.1965 73.8005 58.5958 73.8037C58.9948 73.81 59.391 73.7365 59.7611 73.5874C60.1313 73.4383 60.4679 73.2168 60.7512 72.9356C61.0344 72.6545 61.2586 72.3196 61.4105 71.9506C61.5625 71.5816 61.6391 71.1859 61.6359 70.7868Z" fill="url(#paint0_linear_4300_2584)"/>
<path d="M50.6154 37.2658C50.5679 38.0259 50.2829 38.4773 49.7129 38.7386C49.4476 38.8753 49.1455 38.9237 48.8507 38.8767C48.5559 38.8297 48.2838 38.6897 48.0741 38.4773C47.8841 38.311 47.7416 38.0497 47.5516 37.8834C47.3399 37.6509 47.0561 37.4963 46.7459 37.4446C46.4358 37.3929 46.1172 37.4471 45.8415 37.5983C45.5677 37.7144 45.3388 37.9159 45.189 38.1728C45.0391 38.4297 44.9764 38.7282 45.0102 39.0236C45.034 39.7363 45.4378 40.1639 46.1028 40.3777C46.3282 40.4342 46.5592 40.4661 46.7916 40.4727C47.7566 40.5344 48.677 40.9014 49.4198 41.5205C50.1627 42.1397 50.6895 42.979 50.9242 43.9172C51.1585 44.8767 51.0717 45.8866 50.677 46.792C50.2823 47.6973 49.6015 48.4482 48.7391 48.9295C48.2879 49.167 48.0029 49.4046 47.9316 49.9272C47.8604 50.4498 47.2191 51.0437 46.5066 51.0437C45.794 51.0437 45.1765 50.6636 45.0578 49.8797C45.0357 49.6684 44.9551 49.4675 44.825 49.2997C44.6949 49.1318 44.5205 49.0036 44.3215 48.9295C43.5916 48.5816 42.9863 48.0177 42.5877 47.3141C42.4031 46.9928 42.3423 46.615 42.4166 46.2519C42.491 45.8888 42.6954 45.5654 42.9914 45.3425C43.2959 45.1299 43.666 45.0322 44.0357 45.0671C44.4054 45.1019 44.7508 45.2668 45.0102 45.5325C45.1528 45.6988 45.2478 45.8889 45.3903 46.0314C45.9128 46.5302 46.5303 46.6728 47.1716 46.3164C47.4591 46.1875 47.6937 45.9639 47.8363 45.6829C47.9789 45.402 48.021 45.0806 47.9554 44.7724C47.8604 44.036 47.3853 43.6321 46.6728 43.5133C45.9603 43.3946 45.8415 43.4421 45.4378 43.3471C44.5459 43.1407 43.7378 42.6679 43.1208 41.9914C42.5039 41.3149 42.1072 40.4668 41.9835 39.5596C41.8598 38.6523 42.0149 37.7289 42.4283 36.9119C42.8416 36.0949 43.4936 35.423 44.2977 34.9853C44.7015 34.7477 44.9865 34.5577 45.0578 34.0351C45.129 33.5125 45.7703 32.8711 46.5066 32.8711C47.2428 32.8711 47.8129 33.2512 47.9079 33.9876C48.0029 34.724 48.3354 34.7953 48.7866 35.0566C49.6892 35.5792 50.4729 36.2681 50.6154 37.2658Z" fill="url(#paint1_linear_4300_2584)"/>
<defs>
<linearGradient id="paint0_linear_4300_2584" x1="46.5" y1="1" x2="46.5" y2="92" gradientUnits="userSpaceOnUse">
<stop stop-color="white" stop-opacity="0.66"/>
<stop offset="1" stop-color="#969696" stop-opacity="0"/>
</linearGradient>
<linearGradient id="paint1_linear_4300_2584" x1="46.4976" y1="32.8711" x2="46.4976" y2="51.0437" gradientUnits="userSpaceOnUse">
<stop stop-color="white" stop-opacity="0.66"/>
<stop offset="1" stop-color="#969696" stop-opacity="0"/>
</linearGradient>
</defs>
</svg>
