<svg width="78" height="78" viewBox="0 0 78 78" fill="none" xmlns="http://www.w3.org/2000/svg">
<path d="M39.0126 4.70929C36.2452 4.70929 33.9598 6.98859 33.9598 9.75594C33.9598 11.95 35.4012 13.8215 37.3749 14.5103V14.6373V22.7936V22.8676C34.1237 23.1914 31.2 24.5343 28.7928 26.4921L28.5707 26.2704L22.8324 20.5324C23.7391 18.6504 23.4371 16.3066 21.8866 14.756C19.9298 12.7992 16.7023 12.7992 14.7455 14.756C12.7886 16.7129 12.8077 19.9275 14.7647 21.8843C16.3208 23.4405 18.66 23.7445 20.541 22.8297L26.273 28.5617L26.4888 28.7774C24.5061 31.181 23.1413 34.1109 22.8008 37.3718H22.623H14.5107C13.8219 35.3984 11.9502 33.957 9.75635 33.957C6.989 33.957 4.70996 36.2422 4.70996 39.0097C4.70996 41.7771 6.989 44.0308 9.75635 44.0308C11.958 44.0308 13.8344 42.5936 14.5171 40.6156H22.623H22.7881C23.0994 43.8951 24.441 46.8548 26.4126 49.28L26.3872 49.3048L20.6236 55.0748L20.5347 55.1608C18.6526 54.2546 16.3088 54.5564 14.7583 56.1066C12.8015 58.0634 12.8014 61.2908 14.7583 63.2476C16.7151 65.2044 19.9299 65.1852 21.8867 63.2228C23.4429 61.6666 23.7471 59.3276 22.8325 57.4465L22.9214 57.3604L28.6851 51.5968L28.7043 51.572C31.1264 53.5695 34.0852 54.9321 37.3752 55.26V55.3588V63.4708C35.4018 64.1591 33.9602 66.0317 33.9602 68.2255C33.9602 70.9929 36.2455 73.2718 39.0129 73.2718C41.7803 73.2718 44.0339 70.9929 44.0339 68.2255C44.0339 66.0239 42.5968 64.1475 40.6188 63.4648V55.3588V55.26C43.9113 54.9337 46.8724 53.5707 49.2961 51.572L49.3153 51.5968L55.079 57.3604L55.1679 57.4465C54.2533 59.3276 54.5575 61.6666 56.1137 63.2228C58.0705 65.1796 61.2852 65.1989 63.2421 63.2476C65.1989 61.2908 65.1989 58.0634 63.2421 56.1066C61.6916 54.556 59.3478 54.2539 57.4657 55.1608L57.3768 55.0748L51.6132 49.3048L51.5878 49.28C53.5594 46.8548 54.8946 43.8951 55.206 40.6156H63.3627H63.4834C64.1659 42.594 66.0422 44.0308 68.2441 44.0308C71.0115 44.0308 73.2905 41.7771 73.2905 39.0097C73.2905 36.2422 71.0115 33.957 68.2441 33.957C66.05 33.957 64.1784 35.3981 63.4897 37.3718H63.3628H55.206H55.1933C54.8528 34.1109 53.4944 31.181 51.5117 28.7774L51.7275 28.5617L57.4595 22.8297C59.3405 23.7445 61.6797 23.4406 63.2358 21.8843C65.1927 19.9275 65.2117 16.7129 63.255 14.756C61.2982 12.7992 58.0707 12.7992 56.1139 14.756C54.5634 16.3066 54.2614 18.6504 55.1681 20.5324L49.4298 26.2704L49.2077 26.4921C46.799 24.5329 43.873 23.1906 40.6193 22.8676V22.7936V14.6373V14.514C42.5976 13.8319 44.0343 11.9551 44.0343 9.75331C44.0343 6.98596 41.78 4.70929 39.0126 4.70929ZM39.0126 7.97866C40.0235 7.97866 40.7899 8.74447 40.7899 9.75594C40.7899 10.7668 40.0235 11.5588 39.0126 11.5588C38.0016 11.5588 37.2035 10.767 37.2035 9.75594C37.2035 8.74509 38.0016 7.97866 39.0126 7.97866ZM18.3256 16.5288C18.7802 16.5246 19.2312 16.6977 19.5887 17.0559C20.3035 17.7713 20.3036 18.8928 19.5887 19.6076C18.8739 20.323 17.7706 20.3031 17.056 19.5828C16.3412 18.8687 16.3412 17.7779 17.056 17.0631C17.4135 16.706 17.8709 16.5325 18.3256 16.5288ZM59.6742 16.5288C60.1289 16.533 60.5863 16.7109 60.9437 17.068C61.6586 17.7833 61.6585 18.8734 60.9437 19.5881C60.2291 20.3022 59.1259 20.3217 58.411 19.6125C57.6961 18.8972 57.6962 17.7757 58.411 17.0608C58.7685 16.7038 59.2195 16.5251 59.6742 16.5288ZM38.9999 26.0502C46.2178 26.0502 52.038 31.8579 52.038 39.0758C52.038 46.2938 46.2178 52.1139 38.9999 52.1139C31.782 52.1139 25.9618 46.2938 25.9618 39.0758C25.9618 31.8579 31.782 26.0502 38.9999 26.0502ZM9.75622 37.2031C10.7671 37.2031 11.559 38.0011 11.559 39.0123C11.559 40.0232 10.7668 40.7896 9.75622 40.7896C8.74537 40.7896 7.97888 40.0238 7.97888 39.0123C7.97888 38.0015 8.745 37.2031 9.75622 37.2031ZM68.2435 37.2031C69.2544 37.2031 70.0209 38.0011 70.0209 39.0123C70.0209 40.0232 69.2547 40.7896 68.2435 40.7896C67.2327 40.7896 66.4408 40.0238 66.4408 39.0123C66.4408 38.0015 67.2329 37.2031 68.2435 37.2031ZM18.3319 57.8711C18.7909 57.8711 19.2503 58.0532 19.6078 58.4103C20.3226 59.1256 20.3035 60.2284 19.5886 60.9432C18.8735 61.6585 17.7834 61.6585 17.0686 60.9432C16.3537 60.2278 16.3411 59.125 17.0559 58.4103C17.4132 58.0532 17.8729 57.8711 18.3319 57.8711ZM59.6678 57.8711C60.1268 57.8711 60.5864 58.0532 60.9437 58.4103C61.6585 59.1256 61.6459 60.2283 60.931 60.9432C60.2162 61.6585 59.1261 61.6585 58.411 60.9432C57.6962 60.2278 57.6771 59.1251 58.3918 58.4103C58.7492 58.0532 59.2089 57.8711 59.6678 57.8711ZM39.0126 66.4403C40.0235 66.4403 40.7899 67.2322 40.7899 68.2432C40.7899 69.254 40.0235 70.0205 39.0126 70.0205C38.0016 70.0205 37.2035 69.2546 37.2035 68.2432C37.2035 67.2323 38.0016 66.4403 39.0126 66.4403Z" fill="#F3BA2F"/>
<path d="M37.3687 28.9141V30.5328V31.5229H33.1475V40.6888H41.5644V43.4247H34.8042H33.1475V46.6365H34.8042H37.3687V47.6266V49.2453H40.6313V47.6266V46.6365H44.8525V37.4706H36.4355V34.7411H43.1958H44.8525V31.5229H43.1958H40.6313V30.5328V28.9141H37.3687Z" fill="#F3BA2F"/>
<path d="M40.0116 4.70929C37.2442 4.70929 34.9589 6.98859 34.9589 9.75594C34.9589 11.95 36.4002 13.8215 38.3739 14.5103V14.6373V22.7936V22.8676C35.1227 23.1914 32.199 24.5343 29.7919 26.4921L29.5697 26.2704L23.8314 20.5324C24.7381 18.6504 24.4362 16.3066 22.8856 14.756C20.9288 12.7992 17.7013 12.7992 15.7445 14.756C13.7876 16.7129 13.8067 19.9275 15.7637 21.8843C17.3199 23.4405 19.659 23.7445 21.5401 22.8297L27.272 28.5617L27.4878 28.7774C25.5052 31.181 24.1404 34.1109 23.7999 37.3718H23.6221H15.5098C14.8209 35.3984 12.9492 33.957 10.7554 33.957C7.98802 33.957 5.70898 36.2422 5.70898 39.0097C5.70898 41.7771 7.98802 44.0308 10.7554 44.0308C12.957 44.0308 14.8334 42.5936 15.5161 40.6156H23.6221H23.7871C24.0984 43.8951 25.44 46.8548 27.4116 49.28L27.3863 49.3048L21.6226 55.0748L21.5337 55.1608C19.6517 54.2546 17.3079 54.5564 15.7573 56.1066C13.8005 58.0634 13.8005 61.2908 15.7573 63.2476C17.7142 65.2044 20.9289 65.1852 22.8857 63.2228C24.4419 61.6666 24.7461 59.3276 23.8315 57.4465L23.9204 57.3604L29.6841 51.5968L29.7033 51.572C32.1255 53.5695 35.0842 54.9321 38.3742 55.26V55.3588V63.4708C36.4008 64.1591 34.9592 66.0317 34.9592 68.2255C34.9592 70.9929 37.2445 73.2718 40.0119 73.2718C42.7793 73.2718 45.0329 70.9929 45.0329 68.2255C45.0329 66.0239 43.5959 64.1475 41.6179 63.4648V55.3588V55.26C44.9103 54.9337 47.8714 53.5707 50.2951 51.572L50.3143 51.5968L56.078 57.3604L56.1669 57.4465C55.2524 59.3276 55.5565 61.6666 57.1127 63.2228C59.0695 65.1796 62.2843 65.1989 64.2411 63.2476C66.198 61.2908 66.1979 58.0634 64.2411 56.1066C62.6906 54.556 60.3468 54.2539 58.4648 55.1608L58.3759 55.0748L52.6122 49.3048L52.5868 49.28C54.5584 46.8548 55.8936 43.8951 56.205 40.6156H64.3617H64.4824C65.1649 42.594 67.0413 44.0308 69.2431 44.0308C72.0105 44.0308 74.2895 41.7771 74.2895 39.0097C74.2895 36.2422 72.0105 33.957 69.2431 33.957C67.049 33.957 65.1774 35.3981 64.4887 37.3718H64.3618H56.2051H56.1924C55.8519 34.1109 54.4934 31.181 52.5107 28.7774L52.7266 28.5617L58.4585 22.8297C60.3395 23.7445 62.6787 23.4406 64.2349 21.8843C66.1917 19.9275 66.2108 16.7129 64.2541 14.756C62.2972 12.7992 59.0698 12.7992 57.113 14.756C55.5624 16.3066 55.2605 18.6504 56.1671 20.5324L50.4289 26.2704L50.2067 26.4921C47.798 24.5329 44.872 23.1906 41.6183 22.8676V22.7936V14.6373V14.514C43.5966 13.8319 45.0334 11.9551 45.0334 9.75331C45.0334 6.98596 42.779 4.70929 40.0116 4.70929ZM40.0116 7.97866C41.0226 7.97866 41.7889 8.74447 41.7889 9.75594C41.7889 10.7668 41.0226 11.5588 40.0116 11.5588C39.0006 11.5588 38.2025 10.767 38.2025 9.75594C38.2025 8.74509 39.0006 7.97866 40.0116 7.97866ZM19.3246 16.5288C19.7793 16.5246 20.2302 16.6977 20.5878 17.0559C21.3025 17.7713 21.3026 18.8928 20.5878 19.6076C19.8729 20.323 18.7697 20.3031 18.055 19.5828C17.3403 18.8687 17.3402 17.7779 18.055 17.0631C18.4125 16.706 18.8699 16.5325 19.3246 16.5288ZM60.6732 16.5288C61.1279 16.533 61.5853 16.7109 61.9427 17.068C62.6576 17.7833 62.6575 18.8734 61.9427 19.5881C61.2281 20.3022 60.1249 20.3217 59.41 19.6125C58.6952 18.8972 58.6952 17.7757 59.41 17.0608C59.7675 16.7038 60.2185 16.5251 60.6732 16.5288ZM39.9989 26.0502C47.2168 26.0502 53.037 31.8579 53.037 39.0758C53.037 46.2938 47.2168 52.1139 39.9989 52.1139C32.781 52.1139 26.9608 46.2938 26.9608 39.0758C26.9608 31.8579 32.781 26.0502 39.9989 26.0502ZM10.7552 37.2031C11.7661 37.2031 12.558 38.0011 12.558 39.0123C12.558 40.0232 11.7659 40.7896 10.7552 40.7896C9.74439 40.7896 8.9779 40.0238 8.9779 39.0123C8.9779 38.0015 9.74402 37.2031 10.7552 37.2031ZM69.2426 37.2031C70.2534 37.2031 71.0199 38.0011 71.0199 39.0123C71.0199 40.0232 70.2538 40.7896 69.2426 40.7896C68.2317 40.7896 67.4398 40.0238 67.4398 39.0123C67.4398 38.0015 68.2319 37.2031 69.2426 37.2031ZM19.3309 57.8711C19.7899 57.8711 20.2494 58.0532 20.6068 58.4103C21.3217 59.1256 21.3025 60.2284 20.5876 60.9432C19.8726 61.6585 18.7824 61.6585 18.0676 60.9432C17.3527 60.2278 17.3401 59.125 18.0549 58.4103C18.4122 58.0532 18.872 57.8711 19.3309 57.8711ZM60.6669 57.8711C61.1258 57.8711 61.5854 58.0532 61.9427 58.4103C62.6575 59.1256 62.6449 60.2283 61.9301 60.9432C61.2152 61.6585 60.1251 61.6585 59.41 60.9432C58.6952 60.2278 58.6761 59.1251 59.3908 58.4103C59.7483 58.0532 60.2079 57.8711 60.6669 57.8711ZM40.0116 66.4403C41.0226 66.4403 41.7889 67.2322 41.7889 68.2432C41.7889 69.254 41.0226 70.0205 40.0116 70.0205C39.0006 70.0205 38.2025 69.2546 38.2025 68.2432C38.2025 67.2323 39.0006 66.4403 40.0116 66.4403Z" fill="url(#paint0_linear_4911_76)"/>
<path d="M38.3677 28.9141V30.5328V31.5229H34.1465V40.6888H42.5635V43.4247H35.8032H34.1465V46.6365H35.8032H38.3677V47.6266V49.2453H41.6304V47.6266V46.6365H45.8516V37.4706H37.4346V34.7411H44.1948H45.8516V31.5229H44.1948H41.6304V30.5328V28.9141H38.3677Z" fill="url(#paint1_linear_4911_76)"/>
<defs>
<linearGradient id="paint0_linear_4911_76" x1="39.9993" y1="4.70703" x2="39.9993" y2="73.2718" gradientUnits="userSpaceOnUse">
<stop stop-color="white" stop-opacity="0.66"/>
<stop offset="1" stop-color="#969696" stop-opacity="0"/>
</linearGradient>
<linearGradient id="paint1_linear_4911_76" x1="39.999" y1="28.9141" x2="39.999" y2="49.2453" gradientUnits="userSpaceOnUse">
<stop stop-color="white" stop-opacity="0.66"/>
<stop offset="1" stop-color="#969696" stop-opacity="0"/>
</linearGradient>
</defs>
</svg>
