<svg width="93" height="93" viewBox="0 0 93 93" fill="none" xmlns="http://www.w3.org/2000/svg">
<path d="M77.7138 42.2765C77.7138 46.2826 77.7416 49.7032 77.686 53.1238C77.686 53.9558 77.9085 54.1407 78.6316 54.1099C82.0803 54.0791 85.5568 54.1099 89.0332 54.1099H89.7563C90.4794 54.1099 91.0078 54.5105 91.0078 55.3117C91.0078 56.113 90.5072 56.606 89.7007 56.606C86.0852 56.5752 82.4975 56.6369 78.8819 56.5752C77.9085 56.5444 77.6026 56.7293 77.5192 57.9311C76.3511 71.3669 70.3159 81.1973 59.5528 87.453C58.8853 87.8536 58.2456 87.8536 57.8284 87.0832C57.4113 86.3128 57.8006 85.6965 58.774 85.1418C66.9229 80.4269 72.2071 73.1543 74.5433 63.2931C74.9787 61.3532 75.2487 59.3723 75.3498 57.3764C75.3776 56.7909 75.322 56.5752 74.738 56.5752H60.5818C59.9977 56.5752 59.9143 56.7909 59.9143 57.3764C59.9421 59.8109 59.9143 62.2762 59.9421 64.7415C59.9421 65.666 59.7474 66.4364 58.8018 66.4055C57.8562 66.3747 57.7172 65.666 57.7172 64.7723C57.745 62.3378 57.7172 59.8725 57.745 57.4073C57.745 56.7601 57.6059 56.5444 56.9941 56.5752H51.7933C51.2092 56.5444 51.0702 56.7601 51.0702 57.4073C51.0887 59.8931 51.0887 62.3892 51.0702 64.8956C51.0702 66.1282 50.208 66.7753 49.3737 66.2515C48.5393 65.7276 48.8174 65.4502 48.8453 64.8647C48.8453 62.3995 48.8174 59.965 48.8453 57.4997C48.8453 56.8526 48.7896 56.5444 48.0943 56.5752H38.5271C37.8318 56.5444 37.7484 56.8217 37.7484 57.4997C37.7762 59.7493 37.7484 62.0297 37.7484 64.2793C37.7623 64.5564 37.7623 64.8342 37.7484 65.1113C37.7206 65.9125 37.359 66.4364 36.6081 66.4055C35.8572 66.3747 35.5234 65.8509 35.5234 65.0188C35.5234 62.5227 35.4956 60.0266 35.5234 57.5305C35.5512 56.8217 35.4122 56.5444 34.6891 56.5752C33.0482 56.6369 31.3795 56.6369 29.7108 56.5752C29.0433 56.5444 28.8208 56.7293 28.8486 57.4997C28.9042 59.9342 28.8486 62.3378 28.8764 64.7723C28.8764 65.6968 28.6539 66.4364 27.7083 66.4055C26.7627 66.3747 26.6237 65.6352 26.6237 64.7723C26.6237 62.307 26.5959 59.8725 26.6237 57.4073C26.6515 56.7601 26.4846 56.5752 25.9006 56.5752H16.3333C15.7215 56.5752 15.5824 56.7293 15.638 57.4073C16.6393 73.0002 26.7906 85.5116 40.6408 88.1001C44.8627 88.8925 49.1895 88.6612 53.3229 87.4221L54.1295 87.1756C54.2722 87.1246 54.4232 87.1087 54.5721 87.1291C54.7209 87.1495 54.8639 87.2057 54.991 87.2938C55.1182 87.3818 55.2265 87.4996 55.3083 87.6389C55.39 87.7782 55.4433 87.9356 55.4644 88.1001C55.6313 88.8397 55.2976 89.3327 54.6301 89.5793C52.5011 90.2814 50.3097 90.7257 48.0943 90.9044C40.5671 91.5622 33.0707 89.2687 26.9145 84.4246C20.7584 79.5805 16.334 72.4938 14.4143 64.4025C13.8515 62.1832 13.5339 59.8963 13.4687 57.5921C13.4409 56.7909 13.2462 56.5752 12.5231 56.5752H1.59311C0.786572 56.5752 0.0912918 56.4211 0.00785657 55.3734C-0.0755786 54.3256 0.508448 54.0791 1.62092 54.0791C5.18082 54.0791 8.74072 54.0483 12.3284 54.1099C13.1906 54.1099 13.3297 53.8018 13.3297 52.9389C13.3018 47.4845 13.3018 42.03 13.3018 36.5756C13.3018 36.2674 13.3018 35.9592 13.3297 35.6511C13.3575 35.3429 13.719 34.4184 14.4421 34.4184C15.1652 34.4184 15.499 34.9115 15.5546 35.6819V36.4831C15.5546 42.03 15.5824 47.5461 15.5268 53.093C15.499 54.0483 15.8605 54.1716 16.528 54.0791C17.1955 53.9867 17.8074 54.3873 17.8074 53.093C17.7517 46.9914 17.7239 40.8898 17.8074 34.7882C18.0855 19.4726 28.8208 6.62229 42.5876 5.08148C57.3835 3.44823 70.4272 14.5112 72.9302 30.8438C73.1715 32.6697 73.2738 34.5149 73.2361 36.3598C73.2361 41.9376 73.2918 47.5153 73.2083 53.0622C73.2083 54.3256 73.8202 54.0483 74.4599 54.0791C75.0995 54.1099 75.5167 54.1407 75.4889 53.1238C75.4333 47.2687 75.4889 41.4445 75.4611 35.5894C75.4577 27.7623 72.9579 20.1884 68.4032 14.2056C63.8485 8.22285 57.532 4.21622 50.5696 2.89354C34.2997 -0.342156 18.5305 12.1384 15.944 30.3199C15.9388 30.4351 15.9201 30.549 15.8884 30.6589C15.7493 31.4601 15.3877 32.0456 14.5534 31.8915C13.719 31.7374 13.58 31.0287 13.6912 30.2582C14.1597 26.8785 15.0586 23.5895 16.3611 20.4895C19.1508 13.9124 23.6877 8.43681 29.3641 4.7963C35.0406 1.15579 41.5855 -0.475801 48.1222 0.120085C63.1127 1.41436 75.4889 14.4496 77.4079 30.9054C77.8529 34.8807 77.6304 38.8868 77.7138 42.2765ZM55.4923 42.1841C55.4923 45.8512 55.5479 49.4875 55.4644 53.1546C55.4644 54.1407 55.8538 54.1716 56.4935 54.1099C57.1332 54.0483 57.7728 54.3873 57.7728 53.1238C57.6894 48.0083 57.745 42.8929 57.745 37.7774V35.5894C57.7422 35.3548 57.8086 35.1255 57.9341 34.9364C58.0596 34.7473 58.2373 34.6087 58.4403 34.5417C58.6334 34.4545 58.8457 34.4343 59.0494 34.4839C59.253 34.5334 59.4382 34.6503 59.5806 34.819C59.9978 35.2196 59.9143 35.7743 59.9143 36.329C59.9143 41.9376 59.9421 47.5461 59.9143 53.1546C59.9143 53.8942 60.0534 54.1407 60.7765 54.1407C63.8914 54.0791 67.0063 54.0791 70.1212 54.1407C70.9556 54.1407 71.0668 53.8018 71.0668 53.0005C71.039 47.3612 71.0668 41.7218 71.039 36.0517C71.0579 34.1705 70.9088 32.2918 70.594 30.4432C67.6738 14.388 53.9904 4.55761 39.5839 8.16309C29.0155 10.8133 20.7832 21.3832 20.1157 33.3399C19.7264 39.9961 20.0323 46.6832 19.9767 53.3703C19.9489 54.6954 20.8666 53.9558 21.3394 54.0791C21.8122 54.2024 22.2294 54.2024 22.2294 53.3395C22.1738 47.5769 22.2016 41.8143 22.2016 36.0517C22.1908 34.1694 22.3492 32.2906 22.6744 30.4432C25.1775 17.2847 35.9406 8.68697 48.2334 10.0121C59.664 11.2447 68.7306 22.4618 68.8141 35.5278C68.8419 40.3351 68.8141 45.1424 68.8141 49.9498C68.8419 50.8742 68.6472 51.6446 67.7016 51.6446C66.756 51.6446 66.5613 50.8742 66.5613 49.9498C66.5891 47.2688 66.6169 44.5877 66.5613 41.8759C66.5335 38.6402 66.7282 35.3737 66.3388 32.1072C64.8092 19.5342 53.3786 10.3202 42.0592 12.6006C31.6576 14.7269 24.51 24.095 24.4543 35.836C24.4265 41.5986 24.4822 47.3612 24.3987 53.1238C24.3987 54.264 24.9272 54.1099 25.539 54.1099C26.1509 54.1099 26.6515 54.1716 26.6515 53.093C26.5959 47.4845 26.6237 41.8759 26.6237 36.2674C26.6231 34.8009 26.7348 33.3371 26.9574 31.8915C28.4036 22.7083 35.7459 15.4357 43.9226 14.8194C53.7679 14.0798 61.3605 21.1983 63.6133 29.796C64.5033 33.155 64.392 36.5756 64.392 39.9653V50.0114C64.392 50.8742 64.1973 51.6138 63.3074 51.6446C62.4174 51.6755 62.1392 50.9667 62.1392 50.0114C62.1671 45.3273 62.1393 40.6433 62.1671 35.9592C62.177 34.7286 62.0745 33.4999 61.8611 32.2921C61.0673 27.6826 58.7264 23.5778 55.31 20.8044C51.8936 18.0311 47.6556 16.7954 43.4498 17.3463C35.3566 18.3632 28.8764 26.3446 28.8764 35.8051C28.8486 41.5678 28.9042 47.3304 28.8486 53.093C28.8208 54.2024 29.2658 54.1099 29.9333 54.1099C30.6008 54.1099 31.1292 54.1716 31.1292 53.0314C31.0735 47.4228 31.1014 41.8143 31.1014 36.2058C31.0668 34.3277 31.3015 32.4554 31.7967 30.6589C32.047 29.8576 32.492 29.3338 33.2707 29.6419C34.0494 29.9501 34.1885 30.5664 33.9382 31.3984C33.4639 33.0515 33.2384 34.7797 33.2707 36.5139C33.2985 41.9992 33.3263 47.4845 33.2707 52.9697C33.2429 54.0175 33.6044 54.1716 34.3832 54.1407C35.1619 54.1099 35.5512 54.1407 35.5512 53.0314C35.4956 47.5153 35.5234 41.9684 35.5234 36.4523C35.5234 29.6728 39.139 25.2352 45.2297 24.6189C46.0363 24.5265 46.6481 24.3107 46.5925 23.2938C46.5369 22.2769 45.8416 22.1536 45.0907 22.1844C43.4909 22.2218 41.9145 22.6179 40.4566 23.3488C38.9987 24.0797 37.6895 25.1302 36.6081 26.4371C36.0519 27.0842 35.4678 27.3923 34.8281 26.7144C34.1885 26.0364 34.4666 25.3277 35.0228 24.7113C37.8318 21.5065 41.2526 19.8116 45.2853 19.7191C47.2878 19.6575 48.8174 21.2599 48.8453 23.3246C48.8731 25.3893 47.4269 26.9609 45.48 27.0842C40.9189 27.2999 37.804 30.8438 37.7762 35.8976C37.7484 41.6602 37.7762 47.4228 37.7484 53.1854C37.7484 53.8634 37.8318 54.1407 38.5271 54.1407C41.6976 54.0791 44.896 54.0791 48.0943 54.1099C48.6506 54.1407 48.8453 53.9867 48.8453 53.3087C48.8174 47.4228 48.8453 41.5678 48.8175 35.6819C48.8175 34.1719 48.15 33.0625 46.9262 32.3537C46.4152 32.1118 45.8685 31.976 45.3131 31.9531C44.6457 31.8299 44.3954 31.3368 44.4232 30.628C44.4227 30.4823 44.4496 30.3381 44.5023 30.2045C44.5549 30.071 44.6321 29.9511 44.729 29.8525C44.8258 29.7539 44.9401 29.6787 45.0647 29.6319C45.1892 29.585 45.3212 29.5674 45.4522 29.5803C45.938 29.5704 46.4232 29.6221 46.8984 29.7344C49.5127 30.5048 51.0702 32.9084 51.0702 36.2058V53.0314C51.0702 53.3703 50.9311 53.925 51.2093 53.9867C51.8109 54.1457 52.4356 54.1667 53.0448 54.0483C53.462 53.9558 53.2395 53.4011 53.2395 53.0622C53.258 45.7896 53.2673 38.5272 53.2673 31.2752C53.2673 30.3815 53.3786 29.5803 54.3798 29.5803C55.381 29.5803 55.5201 30.3507 55.4923 31.2444V42.1841Z" fill="#7D5EEA"/>
<path d="M42.1702 43.2293C42.1702 45.5097 42.1702 47.8209 42.1981 50.1013C42.1981 51.0258 41.8921 51.6729 41.03 51.6421C40.1678 51.6113 39.9453 50.995 39.9453 50.1629V36.0183C39.9453 35.1555 40.2234 34.4467 41.1134 34.4775C42.0034 34.5083 42.1981 35.2171 42.1981 36.08C42.1702 38.4528 42.1702 40.8565 42.1702 43.2293Z" fill="#7D5EEA"/>
<path d="M78.7138 43.2765C78.7138 47.2826 78.7416 50.7032 78.686 54.1238C78.686 54.9558 78.9085 55.1407 79.6316 55.1099C83.0803 55.0791 86.5568 55.1099 90.0332 55.1099H90.7563C91.4794 55.1099 92.0078 55.5105 92.0078 56.3117C92.0078 57.113 91.5072 57.606 90.7007 57.606C87.0852 57.5752 83.4975 57.6369 79.8819 57.5752C78.9085 57.5444 78.6026 57.7293 78.5192 58.9311C77.3511 72.3669 71.3159 82.1973 60.5528 88.453C59.8853 88.8536 59.2456 88.8536 58.8284 88.0832C58.4113 87.3128 58.8006 86.6965 59.774 86.1418C67.9229 81.4269 73.2071 74.1543 75.5433 64.2931C75.9787 62.3532 76.2487 60.3723 76.3498 58.3764C76.3776 57.7909 76.322 57.5752 75.738 57.5752H61.5818C60.9977 57.5752 60.9143 57.7909 60.9143 58.3764C60.9421 60.8109 60.9143 63.2762 60.9421 65.7415C60.9421 66.666 60.7474 67.4364 59.8018 67.4055C58.8562 67.3747 58.7172 66.666 58.7172 65.7723C58.745 63.3378 58.7172 60.8725 58.745 58.4073C58.745 57.7601 58.6059 57.5444 57.9941 57.5752H52.7933C52.2092 57.5444 52.0702 57.7601 52.0702 58.4073C52.0887 60.8931 52.0887 63.3892 52.0702 65.8956C52.0702 67.1282 51.208 67.7753 50.3737 67.2515C49.5393 66.7276 49.8174 66.4502 49.8453 65.8647C49.8453 63.3995 49.8174 60.965 49.8453 58.4997C49.8453 57.8526 49.7896 57.5444 49.0943 57.5752H39.5271C38.8318 57.5444 38.7484 57.8217 38.7484 58.4997C38.7762 60.7493 38.7484 63.0297 38.7484 65.2793C38.7623 65.5564 38.7623 65.8342 38.7484 66.1113C38.7206 66.9125 38.359 67.4364 37.6081 67.4055C36.8572 67.3747 36.5234 66.8509 36.5234 66.0188C36.5234 63.5227 36.4956 61.0266 36.5234 58.5305C36.5512 57.8217 36.4122 57.5444 35.6891 57.5752C34.0482 57.6369 32.3795 57.6369 30.7108 57.5752C30.0433 57.5444 29.8208 57.7293 29.8486 58.4997C29.9042 60.9342 29.8486 63.3378 29.8764 65.7723C29.8764 66.6968 29.6539 67.4364 28.7083 67.4055C27.7627 67.3747 27.6237 66.6352 27.6237 65.7723C27.6237 63.307 27.5959 60.8725 27.6237 58.4073C27.6515 57.7601 27.4846 57.5752 26.9006 57.5752H17.3333C16.7215 57.5752 16.5824 57.7293 16.638 58.4073C17.6393 74.0002 27.7906 86.5116 41.6408 89.1001C45.8627 89.8925 50.1895 89.6612 54.3229 88.4221L55.1295 88.1756C55.2722 88.1246 55.4232 88.1087 55.5721 88.1291C55.7209 88.1495 55.8639 88.2057 55.991 88.2938C56.1182 88.3818 56.2265 88.4996 56.3083 88.6389C56.39 88.7782 56.4433 88.9356 56.4644 89.1001C56.6313 89.8397 56.2976 90.3327 55.6301 90.5793C53.5011 91.2814 51.3097 91.7257 49.0943 91.9044C41.5671 92.5622 34.0707 90.2687 27.9145 85.4246C21.7584 80.5805 17.334 73.4938 15.4143 65.4025C14.8515 63.1832 14.5339 60.8963 14.4687 58.5921C14.4409 57.7909 14.2462 57.5752 13.5231 57.5752H2.59311C1.78657 57.5752 1.09129 57.4211 1.00786 56.3734C0.924421 55.3256 1.50845 55.0791 2.62092 55.0791C6.18082 55.0791 9.74072 55.0483 13.3284 55.1099C14.1906 55.1099 14.3297 54.8018 14.3297 53.9389C14.3018 48.4845 14.3018 43.03 14.3018 37.5756C14.3018 37.2674 14.3018 36.9592 14.3297 36.6511C14.3575 36.3429 14.719 35.4184 15.4421 35.4184C16.1652 35.4184 16.499 35.9115 16.5546 36.6819V37.4831C16.5546 43.03 16.5824 48.5461 16.5268 54.093C16.499 55.0483 16.8605 55.1716 17.528 55.0791C18.1955 54.9867 18.8074 55.3873 18.8074 54.093C18.7517 47.9914 18.7239 41.8898 18.8074 35.7882C19.0855 20.4726 29.8208 7.62229 43.5876 6.08148C58.3835 4.44823 71.4272 15.5112 73.9302 31.8438C74.1715 33.6697 74.2738 35.5149 74.2361 37.3598C74.2361 42.9376 74.2918 48.5153 74.2083 54.0622C74.2083 55.3256 74.8202 55.0483 75.4599 55.0791C76.0995 55.1099 76.5167 55.1407 76.4889 54.1238C76.4333 48.2687 76.4889 42.4445 76.4611 36.5894C76.4577 28.7623 73.9579 21.1884 69.4032 15.2056C64.8485 9.22285 58.532 5.21622 51.5696 3.89354C35.2997 0.657844 19.5305 13.1384 16.944 31.3199C16.9388 31.4351 16.9201 31.549 16.8884 31.6589C16.7493 32.4601 16.3877 33.0456 15.5534 32.8915C14.719 32.7374 14.58 32.0287 14.6912 31.2582C15.1597 27.8785 16.0586 24.5895 17.3611 21.4895C20.1508 14.9124 24.6877 9.43681 30.3641 5.7963C36.0406 2.15579 42.5855 0.524199 49.1222 1.12009C64.1127 2.41436 76.4889 15.4496 78.4079 31.9054C78.8529 35.8807 78.6304 39.8868 78.7138 43.2765ZM56.4923 43.1841C56.4923 46.8512 56.5479 50.4875 56.4644 54.1546C56.4644 55.1407 56.8538 55.1716 57.4935 55.1099C58.1332 55.0483 58.7728 55.3873 58.7728 54.1238C58.6894 49.0083 58.745 43.8929 58.745 38.7774V36.5894C58.7422 36.3548 58.8086 36.1255 58.9341 35.9364C59.0596 35.7473 59.2373 35.6087 59.4403 35.5417C59.6334 35.4545 59.8457 35.4343 60.0494 35.4839C60.253 35.5334 60.4382 35.6503 60.5806 35.819C60.9978 36.2196 60.9143 36.7743 60.9143 37.329C60.9143 42.9376 60.9421 48.5461 60.9143 54.1546C60.9143 54.8942 61.0534 55.1407 61.7765 55.1407C64.8914 55.0791 68.0063 55.0791 71.1212 55.1407C71.9556 55.1407 72.0668 54.8018 72.0668 54.0005C72.039 48.3612 72.0668 42.7218 72.039 37.0517C72.0579 35.1705 71.9088 33.2918 71.594 31.4432C68.6738 15.388 54.9904 5.55761 40.5839 9.16309C30.0155 11.8133 21.7832 22.3832 21.1157 34.3399C20.7264 40.9961 21.0323 47.6832 20.9767 54.3703C20.9489 55.6954 21.8666 54.9558 22.3394 55.0791C22.8122 55.2024 23.2294 55.2024 23.2294 54.3395C23.1738 48.5769 23.2016 42.8143 23.2016 37.0517C23.1908 35.1694 23.3492 33.2906 23.6744 31.4432C26.1775 18.2847 36.9406 9.68697 49.2334 11.0121C60.664 12.2447 69.7306 23.4618 69.8141 36.5278C69.8419 41.3351 69.8141 46.1424 69.8141 50.9498C69.8419 51.8742 69.6472 52.6446 68.7016 52.6446C67.756 52.6446 67.5613 51.8742 67.5613 50.9498C67.5891 48.2688 67.6169 45.5877 67.5613 42.8759C67.5335 39.6402 67.7282 36.3737 67.3388 33.1072C65.8092 20.5342 54.3786 11.3202 43.0592 13.6006C32.6576 15.7269 25.51 25.095 25.4543 36.836C25.4265 42.5986 25.4822 48.3612 25.3987 54.1238C25.3987 55.264 25.9272 55.1099 26.539 55.1099C27.1509 55.1099 27.6515 55.1716 27.6515 54.093C27.5959 48.4845 27.6237 42.8759 27.6237 37.2674C27.6231 35.8009 27.7348 34.3371 27.9574 32.8915C29.4036 23.7083 36.7459 16.4357 44.9226 15.8194C54.7679 15.0798 62.3605 22.1983 64.6133 30.796C65.5033 34.155 65.392 37.5756 65.392 40.9653V51.0114C65.392 51.8742 65.1973 52.6138 64.3074 52.6446C63.4174 52.6755 63.1392 51.9667 63.1392 51.0114C63.1671 46.3273 63.1393 41.6433 63.1671 36.9592C63.177 35.7286 63.0745 34.4999 62.8611 33.2921C62.0673 28.6826 59.7264 24.5778 56.31 21.8044C52.8936 19.0311 48.6556 17.7954 44.4498 18.3463C36.3566 19.3632 29.8764 27.3446 29.8764 36.8051C29.8486 42.5678 29.9042 48.3304 29.8486 54.093C29.8208 55.2024 30.2658 55.1099 30.9333 55.1099C31.6008 55.1099 32.1292 55.1716 32.1292 54.0314C32.0735 48.4228 32.1014 42.8143 32.1014 37.2058C32.0668 35.3277 32.3015 33.4554 32.7967 31.6589C33.047 30.8576 33.492 30.3338 34.2707 30.6419C35.0494 30.9501 35.1885 31.5664 34.9382 32.3984C34.4639 34.0515 34.2384 35.7797 34.2707 37.5139C34.2985 42.9992 34.3263 48.4845 34.2707 53.9697C34.2429 55.0175 34.6044 55.1716 35.3832 55.1407C36.1619 55.1099 36.5512 55.1407 36.5512 54.0314C36.4956 48.5153 36.5234 42.9684 36.5234 37.4523C36.5234 30.6728 40.139 26.2352 46.2297 25.6189C47.0363 25.5265 47.6481 25.3107 47.5925 24.2938C47.5369 23.2769 46.8416 23.1536 46.0907 23.1844C44.4909 23.2218 42.9145 23.6179 41.4566 24.3488C39.9987 25.0797 38.6895 26.1302 37.6081 27.4371C37.0519 28.0842 36.4678 28.3923 35.8281 27.7144C35.1885 27.0364 35.4666 26.3277 36.0228 25.7113C38.8318 22.5065 42.2526 20.8116 46.2853 20.7191C48.2878 20.6575 49.8174 22.2599 49.8453 24.3246C49.8731 26.3893 48.4269 27.9609 46.48 28.0842C41.9189 28.2999 38.804 31.8438 38.7762 36.8976C38.7484 42.6602 38.7762 48.4228 38.7484 54.1854C38.7484 54.8634 38.8318 55.1407 39.5271 55.1407C42.6976 55.0791 45.896 55.0791 49.0943 55.1099C49.6506 55.1407 49.8453 54.9867 49.8453 54.3087C49.8174 48.4228 49.8453 42.5678 49.8175 36.6819C49.8175 35.1719 49.15 34.0625 47.9262 33.3537C47.4152 33.1118 46.8685 32.976 46.3131 32.9531C45.6457 32.8299 45.3954 32.3368 45.4232 31.628C45.4227 31.4823 45.4496 31.3381 45.5023 31.2045C45.5549 31.071 45.6321 30.9511 45.729 30.8525C45.8258 30.7539 45.9401 30.6787 46.0647 30.6319C46.1892 30.585 46.3212 30.5674 46.4522 30.5803C46.938 30.5704 47.4232 30.6221 47.8984 30.7344C50.5127 31.5048 52.0702 33.9084 52.0702 37.2058V54.0314C52.0702 54.3703 51.9311 54.925 52.2093 54.9867C52.8109 55.1457 53.4356 55.1667 54.0448 55.0483C54.462 54.9558 54.2395 54.4011 54.2395 54.0622C54.258 46.7896 54.2673 39.5272 54.2673 32.2752C54.2673 31.3815 54.3786 30.5803 55.3798 30.5803C56.381 30.5803 56.5201 31.3507 56.4923 32.2444V43.1841Z" fill="url(#paint0_linear_4308_2860)"/>
<path d="M43.1702 44.2293C43.1702 46.5097 43.1702 48.8209 43.1981 51.1013C43.1981 52.0258 42.8921 52.6729 42.03 52.6421C41.1678 52.6113 40.9453 51.995 40.9453 51.1629V37.0183C40.9453 36.1555 41.2234 35.4467 42.1134 35.4775C43.0034 35.5083 43.1981 36.2171 43.1981 37.08C43.1702 39.4528 43.1702 41.8565 43.1702 44.2293Z" fill="url(#paint1_linear_4308_2860)"/>
<defs>
<linearGradient id="paint0_linear_4308_2860" x1="46.5039" y1="1" x2="46.5039" y2="92.0149" gradientUnits="userSpaceOnUse">
<stop stop-color="white" stop-opacity="0.66"/>
<stop offset="1" stop-color="#969696" stop-opacity="0"/>
</linearGradient>
<linearGradient id="paint1_linear_4308_2860" x1="46.5039" y1="1" x2="46.5039" y2="92.0149" gradientUnits="userSpaceOnUse">
<stop stop-color="white" stop-opacity="0.66"/>
<stop offset="1" stop-color="#969696" stop-opacity="0"/>
</linearGradient>
</defs>
</svg>
