<svg width="62" height="71" viewBox="0 0 62 71" fill="none" xmlns="http://www.w3.org/2000/svg">
<path d="M26.2128 68.9981H8.90197C8.87048 68.9691 8.84185 68.9228 8.80463 68.9126C4.53169 67.8522 2.50759 65.2373 2.50759 60.7739C2.50759 50.6722 2.51332 40.5719 2.49471 30.4702C2.49471 29.7662 2.38162 29.0418 2.20126 28.3595C1.72601 26.5631 1.16344 24.7914 0.679601 22.9979C0.40619 21.9853 0.0798145 20.9582 0.0153982 19.9223C-0.207911 16.3354 2.01516 13.2888 5.54374 12.2515C16.4072 9.05575 27.2763 5.87298 38.1441 2.68876C41.2232 1.78623 44.3051 0.895289 47.3871 0C47.964 0 48.5408 0 49.1177 0C49.2222 0.0333198 49.3253 0.0796778 49.4312 0.0999594C52.3099 0.624384 54.3626 2.23388 55.3131 5.03274C56.1763 7.57229 56.8377 10.1843 57.5877 12.7629C58.0329 14.2971 57.7638 14.7925 56.2608 15.2329C42.2638 19.3342 28.2669 23.4383 14.27 27.5424C14.0639 27.6033 13.8649 27.6917 13.663 27.7684C13.6759 27.8003 13.6874 27.8336 13.7003 27.8655C13.9436 27.8655 14.187 27.8655 14.4317 27.8655C29.0084 27.8655 43.5851 27.8655 58.1618 27.8655C59.483 27.8655 59.9869 28.2958 59.9869 29.5127C59.994 40.1547 60.0184 50.7982 59.974 61.4403C59.9597 64.8809 57.927 67.6059 54.8436 68.6243C54.407 68.7692 53.9561 68.8735 53.5123 68.9966H36.2001C36.0756 68.9083 35.9496 68.8228 35.8251 68.733C35.3627 68.3983 35.1795 67.9362 35.2897 67.3813C35.4014 66.8236 35.7621 66.4716 36.3104 66.3557C36.568 66.3006 36.8386 66.3035 37.1034 66.3035C42.0749 66.3006 47.045 66.3021 52.0165 66.3006C55.3675 66.3006 57.3229 64.3406 57.3258 60.9651C57.3301 55.2834 57.3272 49.6016 57.3258 43.9199C57.3258 43.6794 57.3057 43.4403 57.2943 43.1941H5.17156C5.17156 43.4432 5.17156 43.6446 5.17156 43.8445C5.17156 49.6161 5.16726 55.3877 5.17299 61.1592C5.17585 64.2783 7.17705 66.2934 10.2633 66.3006C12.7269 66.3064 15.1904 66.3006 17.6526 66.3006C20.3151 66.3006 22.9791 66.2963 25.6416 66.3035C26.5721 66.3064 27.1404 66.7381 27.2191 67.5074C27.2978 68.2781 26.834 68.6968 26.2128 68.9966V68.9981ZM39.7702 5.02405C40.0694 5.26888 40.2698 5.4094 40.443 5.5789C43.1456 8.20247 45.8726 10.8029 48.528 13.4757C49.2394 14.1913 49.8378 14.4217 50.8069 14.0508C52.0981 13.5554 53.4594 13.2439 54.8565 12.8339C54.1307 10.3827 53.5081 7.97792 52.6978 5.64119C51.9678 3.53769 49.6202 2.33963 47.4701 2.80756C46.5855 3.00023 45.7166 3.27258 44.8448 3.52611C43.2115 4.00127 41.5825 4.48948 39.7702 5.02405ZM16.4201 24.1076C16.3685 24.0076 16.3499 23.9367 16.3055 23.8932C13.2207 20.8901 10.1359 17.8869 7.03963 14.8969C6.92797 14.7882 6.68462 14.7375 6.52716 14.7723C3.8589 15.3662 2.27283 17.7855 2.77814 20.512C2.9084 21.2146 3.12885 21.8998 3.32496 22.5879C3.78876 24.2177 4.26257 25.8446 4.74784 27.5251C8.67294 26.3748 12.5365 25.2434 16.4172 24.1062L16.4201 24.1076ZM57.3 30.5601C55.4634 30.5601 53.6913 30.5774 51.9191 30.5485C51.441 30.5412 51.1705 30.6789 50.9257 31.1135C49.2838 34.0384 47.6104 36.943 45.9484 39.8563C45.854 40.0229 45.781 40.2025 45.6879 40.3967H57.3V30.5601ZM5.20735 40.4503C7.02818 40.4503 8.79891 40.4329 10.5682 40.4618C11.0463 40.4691 11.3169 40.3329 11.5602 39.8998C13.1892 36.9951 14.8497 34.1108 16.4974 31.2178C16.6019 31.0338 16.6963 30.8455 16.8295 30.5934H5.20735V40.4503ZM46.438 15.3039C46.4938 15.2228 46.5482 15.1417 46.6041 15.0606C46.3951 14.9374 46.1532 14.849 45.9828 14.6839C43.4978 12.282 41.0228 9.86991 38.542 7.46364C37.9995 6.93776 37.5099 6.15113 36.8715 5.98887C36.2345 5.82662 35.4357 6.28441 34.7143 6.49302C33.1268 6.9537 31.5421 7.43032 29.9561 7.90114C29.9074 7.97792 29.8587 8.0547 29.81 8.13148C30.0147 8.25897 30.2495 8.35603 30.4199 8.51973C33.1282 11.1404 35.8566 13.7408 38.512 16.4136C39.2263 17.1322 39.8232 17.3408 40.8023 16.9946C42.6518 16.3426 44.5571 15.8573 46.4394 15.3025L46.438 15.3039ZM36.5408 18.2013C33.3172 15.0663 30.2008 12.0328 27.0731 9.01228C26.9614 8.90508 26.7052 8.85872 26.5506 8.90363C24.3404 9.53526 22.1374 10.1857 19.9315 10.8318C19.8699 10.9115 19.8084 10.9926 19.7482 11.0723C19.9601 11.1926 20.2092 11.2751 20.3795 11.4388C22.9948 13.9668 25.6531 16.4513 28.1767 19.0676C29.1086 20.0339 29.9017 20.286 31.1513 19.8224C32.8677 19.1864 34.6584 18.7547 36.5408 18.1999V18.2013ZM26.4504 21.1624C26.386 21.0465 26.3717 21.0002 26.3416 20.9712C23.2553 17.9695 20.1705 14.9664 17.0742 11.9749C16.9612 11.8662 16.7164 11.7967 16.5704 11.8387C14.3401 12.4718 12.1156 13.1266 9.88539 13.777C9.91402 13.8668 9.91545 13.9219 9.94265 13.948C13.0389 16.9714 16.1366 19.9933 19.2429 23.0052C19.3474 23.1066 19.5707 23.1761 19.7053 23.137C21.9398 22.4952 24.1686 21.8346 26.4504 21.1624ZM24.7741 40.4503C27.1046 40.4503 29.3176 40.4372 31.5307 40.4618C31.973 40.4662 32.1949 40.3083 32.4067 39.9316C34.0515 37.014 35.7206 34.1093 37.3811 31.1989C37.4856 31.0164 37.5801 30.8281 37.7218 30.5601C35.3842 30.5601 33.1697 30.5745 30.9567 30.5485C30.5143 30.5427 30.2882 30.6991 30.0777 31.0743C28.4215 34.0123 26.7438 36.9372 25.0747 39.8664C24.9888 40.0171 24.9144 40.1764 24.7741 40.4488V40.4503ZM48.0985 30.6282C47.9811 30.5963 47.9182 30.5659 47.8566 30.5659C45.6378 30.563 43.4176 30.5499 41.1988 30.5803C40.9841 30.5832 40.6935 30.8179 40.5733 31.0265C38.8584 33.9877 37.1664 36.9633 35.4715 39.936C35.3914 40.0779 35.3384 40.2358 35.2453 40.4503C37.5285 40.4503 39.7244 40.4358 41.9203 40.4618C42.3784 40.4676 42.6289 40.3184 42.855 39.9171C44.4998 36.9922 46.1689 34.0818 47.8294 31.1656C47.9253 30.9976 48.0026 30.8208 48.0985 30.6282ZM27.2534 30.5977C26.9929 30.5832 26.8011 30.5615 26.6107 30.5615C24.5938 30.5586 22.5768 30.5745 20.5599 30.5485C20.0961 30.5427 19.8556 30.7035 19.6294 31.1048C17.9847 34.0239 16.3127 36.9285 14.6522 39.8389C14.5563 40.007 14.4733 40.1822 14.353 40.4155C14.6164 40.43 14.8082 40.4474 14.9986 40.4488C17.0156 40.4502 19.0325 40.4372 21.0494 40.4604C21.5046 40.4662 21.7552 40.3242 21.9842 39.9157C23.6247 36.9937 25.2966 34.0891 26.9557 31.1787C27.0516 31.0106 27.1332 30.8324 27.2534 30.5977Z" fill="#F3BA2F"/>
<path d="M30.8731 69.0024C30.7485 68.9155 30.6211 68.83 30.4995 68.7388C29.9941 68.3635 29.8152 67.8536 29.997 67.2611C30.1788 66.6657 30.6283 66.3252 31.2395 66.3281C31.8436 66.331 32.296 66.6469 32.482 67.2553C32.6753 67.8898 32.4706 68.3969 31.9367 68.7692C31.8107 68.8576 31.6718 68.9242 31.5373 69.001H30.8716L30.8731 69.0024Z" fill="#F3BA2F"/>
<path d="M26.0846 54.5569C26.0846 52.4012 26.0803 50.2456 26.086 48.0899C26.0903 46.6123 27.0866 46.0139 28.3448 46.7455C32.0738 48.9128 35.7999 51.0872 39.5203 53.269C40.7729 54.0035 40.7686 55.1827 39.5118 55.9201C35.7899 58.1018 32.0652 60.2777 28.3363 62.445C27.078 63.1765 26.0903 62.5782 26.086 61.0919C26.0803 58.9131 26.0846 56.7357 26.0846 54.5569ZM28.7786 59.0739C31.3538 57.5701 33.8517 56.1127 36.4556 54.5931C33.846 53.0691 31.3466 51.6088 28.7786 50.1094V59.0739Z" fill="#F3BA2F"/>
<path d="M28.2128 69.9981H10.902C10.8705 69.9691 10.8419 69.9228 10.8046 69.9126C6.53169 68.8522 4.50759 66.2373 4.50759 61.7739C4.50759 51.6722 4.51332 41.5719 4.49471 31.4702C4.49471 30.7662 4.38162 30.0418 4.20126 29.3595C3.72601 27.5631 3.16344 25.7914 2.6796 23.9979C2.40619 22.9853 2.07981 21.9582 2.0154 20.9223C1.79209 17.3354 4.01516 14.2888 7.54374 13.2515C18.4072 10.0557 29.2763 6.87298 40.1441 3.68876C43.2232 2.78623 46.3051 1.89529 49.3871 1C49.964 1 50.5408 1 51.1177 1C51.2222 1.03332 51.3253 1.07968 51.4312 1.09996C54.3099 1.62438 56.3626 3.23388 57.3131 6.03274C58.1763 8.57229 58.8377 11.1843 59.5877 13.7629C60.0329 15.2971 59.7638 15.7925 58.2608 16.2329C44.2638 20.3342 30.2669 24.4383 16.27 28.5424C16.0639 28.6033 15.8649 28.6917 15.663 28.7684C15.6759 28.8003 15.6874 28.8336 15.7003 28.8655C15.9436 28.8655 16.187 28.8655 16.4317 28.8655C31.0084 28.8655 45.5851 28.8655 60.1618 28.8655C61.483 28.8655 61.9869 29.2958 61.9869 30.5127C61.994 41.1547 62.0184 51.7982 61.974 62.4403C61.9597 65.8809 59.927 68.6059 56.8436 69.6243C56.407 69.7692 55.9561 69.8735 55.5123 69.9966H38.2001C38.0756 69.9083 37.9496 69.8228 37.8251 69.733C37.3627 69.3983 37.1795 68.9362 37.2897 68.3813C37.4014 67.8236 37.7621 67.4716 38.3104 67.3557C38.568 67.3006 38.8386 67.3035 39.1034 67.3035C44.0749 67.3006 49.045 67.3021 54.0165 67.3006C57.3675 67.3006 59.3229 65.3406 59.3258 61.9651C59.3301 56.2834 59.3272 50.6016 59.3258 44.9199C59.3258 44.6794 59.3057 44.4403 59.2943 44.1941H7.17156C7.17156 44.4432 7.17156 44.6446 7.17156 44.8445C7.17156 50.6161 7.16726 56.3877 7.17299 62.1592C7.17585 65.2783 9.17705 67.2934 12.2633 67.3006C14.7269 67.3064 17.1904 67.3006 19.6526 67.3006C22.3151 67.3006 24.9791 67.2963 27.6416 67.3035C28.5721 67.3064 29.1404 67.7381 29.2191 68.5074C29.2978 69.2781 28.834 69.6968 28.2128 69.9966V69.9981ZM41.7702 6.02405C42.0694 6.26888 42.2698 6.4094 42.443 6.5789C45.1456 9.20247 47.8726 11.8029 50.528 14.4757C51.2394 15.1913 51.8378 15.4217 52.8069 15.0508C54.0981 14.5554 55.4594 14.2439 56.8565 13.8339C56.1307 11.3827 55.5081 8.97792 54.6978 6.64119C53.9678 4.53769 51.6202 3.33963 49.4701 3.80756C48.5855 4.00023 47.7166 4.27258 46.8448 4.52611C45.2115 5.00127 43.5825 5.48948 41.7702 6.02405ZM18.4201 25.1076C18.3685 25.0076 18.3499 24.9367 18.3055 24.8932C15.2207 21.8901 12.1359 18.8869 9.03963 15.8969C8.92797 15.7882 8.68462 15.7375 8.52716 15.7723C5.8589 16.3662 4.27283 18.7855 4.77814 21.512C4.9084 22.2146 5.12885 22.8998 5.32496 23.5879C5.78876 25.2177 6.26257 26.8446 6.74784 28.5251C10.6729 27.3748 14.5365 26.2434 18.4172 25.1062L18.4201 25.1076ZM59.3 31.5601C57.4634 31.5601 55.6913 31.5774 53.9191 31.5485C53.441 31.5412 53.1705 31.6789 52.9257 32.1135C51.2838 35.0384 49.6104 37.943 47.9484 40.8563C47.854 41.0229 47.781 41.2025 47.6879 41.3967H59.3V31.5601ZM7.20735 41.4503C9.02818 41.4503 10.7989 41.4329 12.5682 41.4618C13.0463 41.4691 13.3169 41.3329 13.5602 40.8998C15.1892 37.9951 16.8497 35.1108 18.4974 32.2178C18.6019 32.0338 18.6963 31.8455 18.8295 31.5934H7.20735V41.4503ZM48.438 16.3039C48.4938 16.2228 48.5482 16.1417 48.6041 16.0606C48.3951 15.9374 48.1532 15.849 47.9828 15.6839C45.4978 13.282 43.0228 10.8699 40.542 8.46364C39.9995 7.93776 39.5099 7.15113 38.8715 6.98887C38.2345 6.82662 37.4357 7.28441 36.7143 7.49302C35.1268 7.9537 33.5421 8.43032 31.9561 8.90114C31.9074 8.97792 31.8587 9.0547 31.81 9.13148C32.0147 9.25897 32.2495 9.35603 32.4199 9.51973C35.1282 12.1404 37.8566 14.7408 40.512 17.4136C41.2263 18.1322 41.8232 18.3408 42.8023 17.9946C44.6518 17.3426 46.5571 16.8573 48.4394 16.3025L48.438 16.3039ZM38.5408 19.2013C35.3172 16.0663 32.2008 13.0328 29.0731 10.0123C28.9614 9.90508 28.7052 9.85872 28.5506 9.90363C26.3404 10.5353 24.1374 11.1857 21.9315 11.8318C21.8699 11.9115 21.8084 11.9926 21.7482 12.0723C21.9601 12.1926 22.2092 12.2751 22.3795 12.4388C24.9948 14.9668 27.6531 17.4513 30.1767 20.0676C31.1086 21.0339 31.9017 21.286 33.1513 20.8224C34.8677 20.1864 36.6584 19.7547 38.5408 19.1999V19.2013ZM28.4504 22.1624C28.386 22.0465 28.3717 22.0002 28.3416 21.9712C25.2553 18.9695 22.1705 15.9664 19.0742 12.9749C18.9612 12.8662 18.7164 12.7967 18.5704 12.8387C16.3401 13.4718 14.1156 14.1266 11.8854 14.777C11.914 14.8668 11.9155 14.9219 11.9427 14.948C15.0389 17.9714 18.1366 20.9933 21.2429 24.0052C21.3474 24.1066 21.5707 24.1761 21.7053 24.137C23.9398 23.4952 26.1686 22.8346 28.4504 22.1624ZM26.7741 41.4503C29.1046 41.4503 31.3176 41.4372 33.5307 41.4618C33.973 41.4662 34.1949 41.3083 34.4067 40.9316C36.0515 38.014 37.7206 35.1093 39.3811 32.1989C39.4856 32.0164 39.5801 31.8281 39.7218 31.5601C37.3842 31.5601 35.1697 31.5745 32.9567 31.5485C32.5143 31.5427 32.2882 31.6991 32.0777 32.0743C30.4215 35.0123 28.7438 37.9372 27.0747 40.8664C26.9888 41.0171 26.9144 41.1764 26.7741 41.4488V41.4503ZM50.0985 31.6282C49.9811 31.5963 49.9182 31.5659 49.8566 31.5659C47.6378 31.563 45.4176 31.5499 43.1988 31.5803C42.9841 31.5832 42.6935 31.8179 42.5733 32.0265C40.8584 34.9877 39.1664 37.9633 37.4715 40.936C37.3914 41.0779 37.3384 41.2358 37.2453 41.4503C39.5285 41.4503 41.7244 41.4358 43.9203 41.4618C44.3784 41.4676 44.6289 41.3184 44.855 40.9171C46.4998 37.9922 48.1689 35.0818 49.8294 32.1656C49.9253 31.9976 50.0026 31.8208 50.0985 31.6282ZM29.2534 31.5977C28.9929 31.5832 28.8011 31.5615 28.6107 31.5615C26.5938 31.5586 24.5768 31.5745 22.5599 31.5485C22.0961 31.5427 21.8556 31.7035 21.6294 32.1048C19.9847 35.0239 18.3127 37.9285 16.6522 40.8389C16.5563 41.007 16.4733 41.1822 16.353 41.4155C16.6164 41.43 16.8082 41.4474 16.9986 41.4488C19.0156 41.4502 21.0325 41.4372 23.0494 41.4604C23.5046 41.4662 23.7552 41.3242 23.9842 40.9157C25.6247 37.9937 27.2966 35.0891 28.9557 32.1787C29.0516 32.0106 29.1332 31.8324 29.2534 31.5977Z" fill="url(#paint0_linear_5293_3654)"/>
<path d="M32.8731 70.0024C32.7485 69.9155 32.6211 69.83 32.4995 69.7388C31.9941 69.3635 31.8152 68.8536 31.997 68.2611C32.1788 67.6657 32.6283 67.3252 33.2395 67.3281C33.8436 67.331 34.296 67.6469 34.482 68.2553C34.6753 68.8898 34.4706 69.3969 33.9367 69.7692C33.8107 69.8576 33.6718 69.9242 33.5373 70.001H32.8716L32.8731 70.0024Z" fill="url(#paint1_linear_5293_3654)"/>
<path d="M28.0846 55.5569C28.0846 53.4012 28.0803 51.2456 28.086 49.0899C28.0903 47.6123 29.0866 47.0139 30.3448 47.7455C34.0738 49.9128 37.7999 52.0872 41.5203 54.269C42.7729 55.0035 42.7686 56.1827 41.5118 56.9201C37.7899 59.1018 34.0652 61.2777 30.3363 63.445C29.078 64.1765 28.0903 63.5782 28.086 62.0919C28.0803 59.9131 28.0846 57.7357 28.0846 55.5569ZM30.7786 60.0739C33.3538 58.5701 35.8517 57.1127 38.4556 55.5931C35.846 54.0691 33.3466 52.6088 30.7786 51.1094V60.0739Z" fill="url(#paint2_linear_5293_3654)"/>
<defs>
<linearGradient id="paint0_linear_5293_3654" x1="32" y1="1" x2="32" y2="69.9981" gradientUnits="userSpaceOnUse">
<stop stop-color="white" stop-opacity="0.66"/>
<stop offset="1" stop-color="#CFCFCF" stop-opacity="0"/>
</linearGradient>
<linearGradient id="paint1_linear_5293_3654" x1="33.2406" y1="67.3281" x2="33.2406" y2="70.0024" gradientUnits="userSpaceOnUse">
<stop stop-color="white" stop-opacity="0.66"/>
<stop offset="1" stop-color="#CFCFCF" stop-opacity="0"/>
</linearGradient>
<linearGradient id="paint2_linear_5293_3654" x1="35.27" y1="47.4336" x2="35.27" y2="63.7567" gradientUnits="userSpaceOnUse">
<stop stop-color="white" stop-opacity="0.66"/>
<stop offset="1" stop-color="#CFCFCF" stop-opacity="0"/>
</linearGradient>
</defs>
</svg>
