<svg width="82" height="117" viewBox="0 0 82 117" fill="none" xmlns="http://www.w3.org/2000/svg">
<path d="M37.8707 117C36.9777 116.432 35.8787 116.409 34.9171 115.978C30.7728 114.116 28.1168 111.027 27.0865 106.622C27.053 106.351 26.9517 106.092 26.7917 105.87C26.6317 105.648 26.4182 105.469 26.1707 105.35C24.0184 104.146 23.1025 102.216 23.1025 99.786C23.1025 93.9497 23.0338 88.0906 23.1254 82.2316C23.1712 78.7343 21.7058 76.2817 18.7751 74.3514C5.95313 65.9943 -0.434939 54.14 0.0229885 38.9473C0.526709 22.0969 12.616 7.13136 28.9869 2.54404C30.6126 2.08985 31.8032 2.63488 32.1924 3.97474C32.5817 5.3146 31.8719 6.40465 30.2462 6.88155C21.9577 9.35689 15.3635 14.1032 10.5324 21.2339C-0.618133 37.6302 4.16723 59.999 21.0877 70.4681C24.2474 72.4211 26.4912 74.9646 27.3384 78.5981C27.4757 79.1431 27.7276 79.2112 28.2084 79.2112H37.0007C37.5273 79.2112 37.7104 79.075 37.7104 78.5072C37.6875 73.6474 37.6875 68.7649 37.7333 63.905C37.7333 63.0648 37.2525 63.2465 36.7717 63.2692C31.1163 63.6098 25.9646 62.1791 21.5685 58.591C14.7683 53.0272 12.181 45.8283 13.6921 37.1987C13.944 35.7907 14.5851 35.2457 16.0275 34.9505C20.1178 34.1255 24.3608 34.4801 28.2542 35.9724L28.7808 36.1541C28.8495 36.1768 28.9182 36.1541 29.1014 36.1314C28.5977 33.6333 28.3687 31.1353 28.7121 28.6145C29.6585 21.8622 33.0014 16.6239 38.7408 12.8996C39.6337 12.3091 40.5267 12.3772 41.3968 12.9677C48.0596 17.4642 51.4254 23.6866 51.4254 31.6803C51.426 32.4393 51.3801 33.1977 51.288 33.9513C51.2193 34.7007 51.0361 35.4274 50.8988 36.2903C52.9759 35.4579 55.1545 34.9005 57.3784 34.6325C59.6973 34.4075 62.0371 34.5377 64.316 35.0186C65.3693 35.223 65.9875 35.8816 66.2622 36.9716C69.1243 48.826 60.4236 61.4524 48.2657 63.0648C46.6049 63.2953 44.9247 63.3561 43.2514 63.2465C42.5416 63.2011 42.2439 63.2919 42.2668 64.1094C42.2974 68.833 42.2974 73.5566 42.2668 78.2802C42.2439 79.0296 42.4958 79.2112 43.2285 79.2112C46.0447 79.1658 48.861 79.1885 51.6772 79.2112C52.2496 79.2112 52.5473 79.0977 52.7076 78.4618C53.5547 75.0327 55.6383 72.5119 58.6377 70.6498C66.8804 65.5174 72.2153 58.2731 74.5278 48.8941C78.9239 31.0899 68.2084 12.4 50.5553 7.08594C50.2207 7.00059 49.8919 6.8944 49.5708 6.76801C49.0112 6.57247 48.5513 6.16716 48.2896 5.63907C48.028 5.11098 47.9855 4.50221 48.1713 3.9434C48.3571 3.3846 48.7564 2.92032 49.2835 2.6502C49.8105 2.38009 50.4233 2.32567 50.9903 2.49863C54.957 3.5547 58.7126 5.27509 62.0951 7.58555C73.8638 15.6474 80.1374 26.7978 80.0001 40.9912C79.8627 55.1846 73.4059 66.4485 61.3166 74.306C58.2943 76.2817 56.806 78.7798 56.8518 82.3679C56.9434 88.1815 56.8518 93.9951 56.8976 99.8087C56.8976 102.352 55.8902 104.237 53.6234 105.441C53.4555 105.524 53.3099 105.646 53.1985 105.796C53.087 105.946 53.013 106.12 52.9823 106.304C51.5856 112.208 47.9222 115.751 41.8776 116.795C41.8219 116.843 41.782 116.906 41.7631 116.977L37.8707 117ZM37.6417 55.1165C37.6188 54.5715 37.6189 54.2989 37.596 54.0491C37.0165 49.7661 34.8403 45.8538 31.4962 43.0835C28.1522 40.3133 23.8832 38.8862 19.5307 39.0836C17.9737 39.1517 17.9508 39.1971 17.8364 40.7414C17.2868 48.7351 23.0567 56.4336 31.0018 58.2958C32.2153 58.591 33.4517 58.909 34.8942 58.6819L30.8873 54.7531C29.4677 53.3451 29.3075 52.0734 30.4065 51.0288C31.5055 49.9841 32.7419 50.1885 34.0699 51.5057L37.6417 55.1165ZM44.9915 58.8181L46.7774 58.7273C51.1892 58.2243 55.2402 56.0674 58.1008 52.6983C60.9613 49.3291 62.4149 45.0027 62.1638 40.6051C62.118 39.4242 61.7059 39.129 60.5839 39.0609C53.6692 38.743 47.0979 42.5354 44.0756 48.7124C43.0666 50.6729 42.4965 52.8264 42.4042 55.0256L46.1134 51.3467C47.304 50.1885 48.632 50.075 49.6395 51.0288C50.6469 51.9826 50.5095 53.3678 49.3647 54.526L44.9915 58.8181ZM42.2668 42.7625L42.6561 42.5354C48.9755 35.4955 48.0596 24.0953 40.7327 18.1C40.1374 17.6004 39.794 17.6686 39.2445 18.1227C32.055 24.0726 31.0705 35.1321 37.0922 42.2175C37.2296 42.3765 37.3212 42.7171 37.7104 42.5581V37.3577C37.6855 36.8721 37.7554 36.3862 37.9165 35.927C38.1212 35.4774 38.4639 35.1036 38.8957 34.8589C39.3275 34.6142 39.8262 34.5111 40.3206 34.5644C40.8587 34.6316 41.3528 34.8936 41.7078 35.3003C42.0629 35.7069 42.2538 36.2294 42.2439 36.7672C42.2897 38.6975 42.2668 40.6505 42.2668 42.7625ZM39.9543 90.4297C43.7551 90.4297 47.5559 90.407 51.3567 90.4524C52.0894 90.4524 52.3641 90.2935 52.3412 89.5213C52.2725 87.8863 52.2954 86.2739 52.3183 84.6388C52.3412 84.0029 52.2267 83.7304 51.4712 83.7304C43.8238 83.7456 36.1764 83.7456 28.529 83.7304C27.7505 83.7304 27.636 84.0256 27.6589 84.6615C27.7047 86.2512 27.7276 87.8408 27.6589 89.4078C27.6131 90.3162 27.9566 90.4524 28.758 90.4524C32.4901 90.407 36.2222 90.4297 39.9543 90.4297ZM39.9772 94.9716H28.5519C28.1169 94.9716 27.636 94.8581 27.6589 95.6075C27.7047 97.1063 27.6589 98.6278 27.6818 100.127C27.7047 101.058 28.2313 101.603 29.2159 101.603H50.7614C51.7917 101.603 52.3183 101.08 52.3183 100.059C52.3183 98.6505 52.2725 97.2653 52.3412 95.88C52.3641 95.1079 52.1123 94.9489 51.3796 94.9489L39.9772 94.9716ZM48.2428 106.19H31.7574C32.5816 109.846 36.2222 112.526 40.2062 112.458C44.1901 112.39 47.6017 109.574 48.2428 106.19Z" fill="#0F4FE3"/>
<path d="M42.4727 3.24735C42.4789 3.54727 42.4239 3.84535 42.3111 4.12367C42.1982 4.40199 42.0298 4.65481 41.8159 4.86693C41.6021 5.07905 41.3472 5.24609 41.0666 5.35803C40.786 5.46996 40.4854 5.52448 40.183 5.51829C39.8644 5.54485 39.5437 5.50492 39.2416 5.40107C38.9395 5.29723 38.6626 5.13177 38.4289 4.91536C38.1952 4.69896 38.0097 4.43639 37.8845 4.14458C37.7593 3.85277 37.6971 3.53819 37.7019 3.22109C37.7067 2.90399 37.7785 2.59141 37.9125 2.30348C38.0465 2.01554 38.2399 1.75864 38.4801 1.54932C38.7203 1.34 39.002 1.18289 39.3071 1.08813C39.6123 0.993367 39.934 0.963042 40.2517 0.99911C40.5464 1.00208 40.8376 1.06259 41.1087 1.17718C41.3798 1.29177 41.6254 1.45821 41.8317 1.66698C42.0379 1.87575 42.2007 2.12276 42.3107 2.39393C42.4206 2.66509 42.4757 2.95508 42.4727 3.24735Z" fill="#0F4FE3"/>
<path d="M38.8707 117C37.9777 116.432 36.8787 116.409 35.9171 115.978C31.7728 114.116 29.1168 111.027 28.0865 106.622C28.053 106.351 27.9517 106.092 27.7917 105.87C27.6317 105.648 27.4182 105.469 27.1707 105.35C25.0184 104.146 24.1025 102.216 24.1025 99.786C24.1025 93.9497 24.0338 88.0906 24.1254 82.2316C24.1712 78.7343 22.7058 76.2817 19.7751 74.3514C6.95313 65.9943 0.565061 54.14 1.02299 38.9473C1.52671 22.0969 13.616 7.13136 29.9869 2.54404C31.6126 2.08985 32.8032 2.63488 33.1924 3.97474C33.5817 5.3146 32.8719 6.40465 31.2462 6.88155C22.9577 9.35689 16.3635 14.1032 11.5324 21.2339C0.381867 37.6302 5.16723 59.999 22.0877 70.4681C25.2474 72.4211 27.4912 74.9646 28.3384 78.5981C28.4757 79.1431 28.7276 79.2112 29.2084 79.2112H38.0007C38.5273 79.2112 38.7104 79.075 38.7104 78.5072C38.6875 73.6474 38.6875 68.7649 38.7333 63.905C38.7333 63.0648 38.2525 63.2465 37.7717 63.2692C32.1163 63.6098 26.9646 62.1791 22.5685 58.591C15.7683 53.0272 13.181 45.8283 14.6921 37.1987C14.944 35.7907 15.5851 35.2457 17.0275 34.9505C21.1178 34.1255 25.3608 34.4801 29.2542 35.9724L29.7808 36.1541C29.8495 36.1768 29.9182 36.1541 30.1014 36.1314C29.5977 33.6333 29.3687 31.1353 29.7121 28.6145C30.6585 21.8622 34.0014 16.6239 39.7408 12.8996C40.6337 12.3091 41.5267 12.3772 42.3968 12.9677C49.0596 17.4642 52.4254 23.6866 52.4254 31.6803C52.426 32.4393 52.3801 33.1977 52.288 33.9513C52.2193 34.7007 52.0361 35.4274 51.8988 36.2903C53.9759 35.4579 56.1545 34.9005 58.3784 34.6325C60.6973 34.4075 63.0371 34.5377 65.316 35.0186C66.3693 35.223 66.9875 35.8816 67.2622 36.9716C70.1243 48.826 61.4236 61.4524 49.2657 63.0648C47.6049 63.2953 45.9247 63.3561 44.2514 63.2465C43.5416 63.2011 43.2439 63.2919 43.2668 64.1094C43.2974 68.833 43.2974 73.5566 43.2668 78.2802C43.2439 79.0296 43.4958 79.2112 44.2285 79.2112C47.0447 79.1658 49.861 79.1885 52.6772 79.2112C53.2496 79.2112 53.5473 79.0977 53.7076 78.4618C54.5547 75.0327 56.6383 72.5119 59.6377 70.6498C67.8804 65.5174 73.2153 58.2731 75.5278 48.8941C79.9239 31.0899 69.2084 12.4 51.5553 7.08594C51.2207 7.00059 50.8919 6.8944 50.5708 6.76801C50.0112 6.57247 49.5513 6.16716 49.2896 5.63907C49.028 5.11098 48.9855 4.50221 49.1713 3.9434C49.3571 3.3846 49.7564 2.92032 50.2835 2.6502C50.8105 2.38009 51.4233 2.32567 51.9903 2.49863C55.957 3.5547 59.7126 5.27509 63.0951 7.58555C74.8638 15.6474 81.1374 26.7978 81.0001 40.9912C80.8627 55.1846 74.4059 66.4485 62.3166 74.306C59.2943 76.2817 57.806 78.7798 57.8518 82.3679C57.9434 88.1815 57.8518 93.9951 57.8976 99.8087C57.8976 102.352 56.8902 104.237 54.6234 105.441C54.4555 105.524 54.3099 105.646 54.1985 105.796C54.087 105.946 54.013 106.12 53.9823 106.304C52.5856 112.208 48.9222 115.751 42.8776 116.795C42.8219 116.843 42.782 116.906 42.7631 116.977L38.8707 117ZM38.6417 55.1165C38.6188 54.5715 38.6189 54.2989 38.596 54.0491C38.0165 49.7661 35.8403 45.8538 32.4962 43.0835C29.1522 40.3133 24.8832 38.8862 20.5307 39.0836C18.9737 39.1517 18.9508 39.1971 18.8364 40.7414C18.2868 48.7351 24.0567 56.4336 32.0018 58.2958C33.2153 58.591 34.4517 58.909 35.8942 58.6819L31.8873 54.7531C30.4677 53.3451 30.3075 52.0734 31.4065 51.0288C32.5055 49.9841 33.7419 50.1885 35.0699 51.5057L38.6417 55.1165ZM45.9915 58.8181L47.7774 58.7273C52.1892 58.2243 56.2402 56.0674 59.1008 52.6983C61.9613 49.3291 63.4149 45.0027 63.1638 40.6051C63.118 39.4242 62.7059 39.129 61.5839 39.0609C54.6692 38.743 48.0979 42.5354 45.0756 48.7124C44.0666 50.6729 43.4965 52.8264 43.4042 55.0256L47.1134 51.3467C48.304 50.1885 49.632 50.075 50.6395 51.0288C51.6469 51.9826 51.5095 53.3678 50.3647 54.526L45.9915 58.8181ZM43.2668 42.7625L43.6561 42.5354C49.9755 35.4955 49.0596 24.0953 41.7327 18.1C41.1374 17.6004 40.794 17.6686 40.2445 18.1227C33.055 24.0726 32.0705 35.1321 38.0922 42.2175C38.2296 42.3765 38.3212 42.7171 38.7104 42.5581V37.3577C38.6855 36.8721 38.7554 36.3862 38.9165 35.927C39.1212 35.4774 39.4639 35.1036 39.8957 34.8589C40.3275 34.6142 40.8262 34.5111 41.3206 34.5644C41.8587 34.6316 42.3528 34.8936 42.7078 35.3003C43.0629 35.7069 43.2538 36.2294 43.2439 36.7672C43.2897 38.6975 43.2668 40.6505 43.2668 42.7625ZM40.9543 90.4297C44.7551 90.4297 48.5559 90.407 52.3567 90.4524C53.0894 90.4524 53.3641 90.2935 53.3412 89.5213C53.2725 87.8863 53.2954 86.2739 53.3183 84.6388C53.3412 84.0029 53.2267 83.7304 52.4712 83.7304C44.8238 83.7456 37.1764 83.7456 29.529 83.7304C28.7505 83.7304 28.636 84.0256 28.6589 84.6615C28.7047 86.2512 28.7276 87.8408 28.6589 89.4078C28.6131 90.3162 28.9566 90.4524 29.758 90.4524C33.4901 90.407 37.2222 90.4297 40.9543 90.4297ZM40.9772 94.9716H29.5519C29.1169 94.9716 28.636 94.8581 28.6589 95.6075C28.7047 97.1063 28.6589 98.6278 28.6818 100.127C28.7047 101.058 29.2313 101.603 30.2159 101.603H51.7614C52.7917 101.603 53.3183 101.08 53.3183 100.059C53.3183 98.6505 53.2725 97.2653 53.3412 95.88C53.3641 95.1079 53.1123 94.9489 52.3796 94.9489L40.9772 94.9716ZM49.2428 106.19H32.7574C33.5816 109.846 37.2222 112.526 41.2062 112.458C45.1901 112.39 48.6017 109.574 49.2428 106.19Z" fill="url(#paint0_linear_4308_2729)"/>
<path d="M43.4727 3.24735C43.4789 3.54727 43.4239 3.84535 43.3111 4.12367C43.1982 4.40199 43.0298 4.65481 42.8159 4.86693C42.6021 5.07905 42.3472 5.24609 42.0666 5.35803C41.786 5.46996 41.4854 5.52448 41.183 5.51829C40.8644 5.54485 40.5437 5.50492 40.2416 5.40107C39.9395 5.29723 39.6626 5.13177 39.4289 4.91536C39.1952 4.69896 39.0097 4.43639 38.8845 4.14458C38.7593 3.85277 38.6971 3.53819 38.7019 3.22109C38.7067 2.90399 38.7785 2.59141 38.9125 2.30348C39.0465 2.01554 39.2399 1.75864 39.4801 1.54932C39.7203 1.34 40.002 1.18289 40.3071 1.08813C40.6123 0.993367 40.934 0.963042 41.2517 0.99911C41.5464 1.00208 41.8376 1.06259 42.1087 1.17718C42.3798 1.29177 42.6254 1.45821 42.8317 1.66698C43.0379 1.87575 43.2007 2.12276 43.3107 2.39393C43.4206 2.66509 43.4757 2.95508 43.4727 3.24735Z" fill="url(#paint1_linear_4308_2729)"/>
<defs>
<linearGradient id="paint0_linear_4308_2729" x1="41.0011" y1="2.38672" x2="41.0011" y2="117" gradientUnits="userSpaceOnUse">
<stop stop-color="white" stop-opacity="0.66"/>
<stop offset="1" stop-color="#969696" stop-opacity="0"/>
</linearGradient>
<linearGradient id="paint1_linear_4308_2729" x1="41.0874" y1="0.984375" x2="41.0874" y2="5.52627" gradientUnits="userSpaceOnUse">
<stop stop-color="white" stop-opacity="0.66"/>
<stop offset="1" stop-color="#969696" stop-opacity="0"/>
</linearGradient>
</defs>
</svg>
