<svg width="92" height="93" viewBox="0 0 92 93" fill="none" xmlns="http://www.w3.org/2000/svg">
<path d="M43.9166 55.2867C43.9166 59.273 41.617 61.5339 37.5852 61.5339H7.33146C3.26976 61.5339 1 59.273 1 55.1677V7.33248C1 3.19747 3.23991 0.996094 7.42107 0.996094H37.5852C41.6469 0.996094 43.9166 3.25697 43.9166 7.33248V55.2867ZM4.58385 55.1975C4.58385 57.3096 5.24087 57.9641 7.36132 57.9641H37.5254C39.6757 57.9641 40.3328 57.3096 40.3328 55.1677V7.33248C40.3328 5.22036 39.6757 4.56589 37.5254 4.56589H7.36132C5.24087 4.56589 4.58385 5.22036 4.58385 7.33248V55.1975Z" fill="#7D5EEA"/>
<path d="M71.4825 20.8982C71.4825 22.1774 71.0345 23.3673 70.706 24.587C66.6244 39.8379 62.5228 55.0889 58.4014 70.3398C57.4159 73.9989 54.3995 75.7243 50.6962 74.7426L26.0572 68.1384C25.8444 68.0927 25.6349 68.0331 25.43 67.96C24.3548 67.6327 23.7874 66.7105 24.086 65.7586C24.3847 64.8066 25.3105 64.2712 26.3857 64.5389L34.6584 66.7403L51.5324 71.262C53.4438 71.7677 54.4592 71.2323 54.9669 69.3284C59.2476 53.5221 63.5084 37.706 67.7493 21.8799C68.2272 20.1545 67.5701 19.0835 65.8379 18.6076L49.5314 14.1156L48.7848 13.9073C47.6797 13.5504 47.1421 12.6876 47.3811 11.7357C47.62 10.7838 48.5757 10.159 49.7404 10.4863L60.1635 13.3421C62.493 13.9966 64.8225 14.5915 67.1221 15.2757C69.4218 15.96 71.5124 18.2506 71.4825 20.8982Z" fill="#7D5EEA"/>
<path d="M91.9701 43.716C91.976 44.7525 91.6972 45.771 91.1637 46.661L66.6442 88.9631C64.8523 92.0272 61.5671 92.8601 58.4611 91.0752L35.8828 78.105C34.6583 77.391 34.2701 76.439 34.8076 75.4574C35.3452 74.4757 36.4503 74.2972 37.7345 75.0409L59.7453 87.6839C61.8359 88.9036 62.6721 88.6656 63.8667 86.5832C71.8109 72.899 79.7452 59.2247 87.6695 45.5603C88.894 43.4184 88.655 42.5855 86.5047 41.3361L73.573 33.9288L73.2743 33.7503C72.1395 33.0661 71.8109 32.0844 72.4082 31.1324C73.0055 30.1805 73.9613 30.0317 75.0364 30.6267L80.3524 33.6908L89.103 38.748C90.9846 39.8487 91.9402 41.5443 91.9701 43.716Z" fill="#7D5EEA"/>
<path d="M42.9166 55.2867C42.9166 59.273 40.617 61.5339 36.5852 61.5339H6.33146C2.26976 61.5339 0 59.273 0 55.1677V7.33248C0 3.19747 2.23991 0.996094 6.42107 0.996094H36.5852C40.6469 0.996094 42.9166 3.25697 42.9166 7.33248V55.2867ZM3.58385 55.1975C3.58385 57.3096 4.24087 57.9641 6.36132 57.9641H36.5254C38.6757 57.9641 39.3328 57.3096 39.3328 55.1677V7.33248C39.3328 5.22036 38.6757 4.56589 36.5254 4.56589H6.36132C4.24087 4.56589 3.58385 5.22036 3.58385 7.33248V55.1975Z" fill="url(#paint0_linear_4308_2889)"/>
<path d="M70.4825 20.8982C70.4825 22.1774 70.0345 23.3673 69.706 24.587C65.6244 39.8379 61.5228 55.0889 57.4014 70.3398C56.4159 73.9989 53.3995 75.7243 49.6962 74.7426L25.0572 68.1384C24.8444 68.0927 24.6349 68.0331 24.43 67.96C23.3548 67.6327 22.7874 66.7105 23.086 65.7586C23.3847 64.8066 24.3105 64.2712 25.3857 64.5389L33.6584 66.7403L50.5324 71.262C52.4438 71.7677 53.4592 71.2323 53.9669 69.3284C58.2476 53.5221 62.5084 37.706 66.7493 21.8799C67.2272 20.1545 66.5701 19.0835 64.8379 18.6076L48.5314 14.1156L47.7848 13.9073C46.6797 13.5504 46.1421 12.6876 46.3811 11.7357C46.62 10.7838 47.5757 10.159 48.7404 10.4863L59.1635 13.3421C61.493 13.9966 63.8225 14.5915 66.1221 15.2757C68.4218 15.96 70.5124 18.2506 70.4825 20.8982Z" fill="url(#paint1_linear_4308_2889)"/>
<path d="M90.9701 43.716C90.976 44.7525 90.6972 45.771 90.1637 46.661L65.6442 88.9631C63.8523 92.0272 60.5671 92.8601 57.4611 91.0752L34.8828 78.105C33.6583 77.391 33.2701 76.439 33.8076 75.4574C34.3452 74.4757 35.4503 74.2972 36.7345 75.0409L58.7453 87.6839C60.8359 88.9036 61.6721 88.6656 62.8667 86.5832C70.8109 72.899 78.7452 59.2247 86.6695 45.5603C87.894 43.4184 87.655 42.5855 85.5047 41.3361L72.573 33.9288L72.2743 33.7503C71.1395 33.0661 70.8109 32.0844 71.4082 31.1324C72.0055 30.1805 72.9613 30.0317 74.0364 30.6267L79.3524 33.6908L88.103 38.748C89.9846 39.8487 90.9402 41.5443 90.9701 43.716Z" fill="url(#paint2_linear_4308_2889)"/>
<defs>
<linearGradient id="paint0_linear_4308_2889" x1="45.4851" y1="0.996094" x2="45.4851" y2="92.0039" gradientUnits="userSpaceOnUse">
<stop stop-color="white" stop-opacity="0.66"/>
<stop offset="1" stop-color="#969696" stop-opacity="0"/>
</linearGradient>
<linearGradient id="paint1_linear_4308_2889" x1="45.4851" y1="0.996094" x2="45.4851" y2="92.0039" gradientUnits="userSpaceOnUse">
<stop stop-color="white" stop-opacity="0.66"/>
<stop offset="1" stop-color="#969696" stop-opacity="0"/>
</linearGradient>
<linearGradient id="paint2_linear_4308_2889" x1="45.4851" y1="0.996094" x2="45.4851" y2="92.0039" gradientUnits="userSpaceOnUse">
<stop stop-color="white" stop-opacity="0.66"/>
<stop offset="1" stop-color="#969696" stop-opacity="0"/>
</linearGradient>
</defs>
</svg>
