<svg width="83" height="83" viewBox="0 0 83 83" fill="none" xmlns="http://www.w3.org/2000/svg">
<path d="M52.375 51.0454C52.649 53.3083 52.9252 55.5917 53.1991 57.8659C52.221 57.918 51.3109 57.9656 50.3102 58.0177C50.0521 55.9564 49.785 53.8406 49.511 51.6547C43.3868 52.2278 37.3328 52.298 31.1882 51.5935C31.0568 53.7659 30.9278 55.9246 30.7987 58.0675C29.8456 57.9928 28.9309 57.9226 27.9279 57.8456C28.0502 55.5826 28.1747 53.2766 28.3038 50.9185C24.6043 49.6364 22.4422 47.0586 21.8762 43.065C18.2899 45.4616 14.8033 47.7925 11.3416 50.1053C10.8073 49.3011 10.3002 48.5355 9.75 47.7087C10.4654 47.2262 11.2035 46.7256 11.9461 46.2295C14.946 44.2157 17.9413 42.1951 20.957 40.2017C21.4664 39.8665 21.7222 39.5222 21.7652 38.8675C22.1365 33.0731 24.1832 27.9922 28.3785 23.8876C31.1859 21.1399 34.5389 19.4591 38.4602 18.8588C38.3289 18.843 38.1999 18.8181 38.0686 18.8113C37.9282 18.8022 37.7856 18.809 37.6452 18.809C35.3291 18.809 33.013 18.8135 30.6969 18.809C29.5897 18.8067 28.9717 18.2993 28.9513 17.4C28.9309 16.46 29.5535 15.9276 30.7059 15.9231C32.6734 15.9163 34.6408 15.9231 36.8188 15.9231C34.3193 13.0078 31.9443 10.2374 29.4516 7.33111C30.9233 6.56773 32.2839 5.86325 33.7443 5.10666C34.0793 5.94026 34.3555 6.63795 34.6385 7.33337C35.1004 8.47731 35.8091 8.9077 36.6762 8.57698C37.532 8.25079 37.7788 7.41266 37.3373 6.29817C36.6309 4.51544 35.9155 2.73724 35.157 0.841249C38.707 -0.291362 42.1959 -0.261914 45.8206 0.818597C45.4833 1.68844 45.1754 2.49033 44.8607 3.29222C44.4169 4.4203 43.946 5.53932 43.5249 6.67646C43.2215 7.49194 43.5702 8.28024 44.2992 8.57245C45.0418 8.8692 45.8229 8.5498 46.1829 7.74565C46.5474 6.9279 46.8621 6.0875 47.2583 5.10666C48.6914 5.85419 50.0498 6.5632 51.5237 7.33111C49.0469 10.2283 46.6855 12.9919 44.2449 15.8483C44.5505 15.8823 44.7543 15.9231 44.9603 15.9231C46.767 15.9276 48.576 15.9186 50.3826 15.9299C51.4264 15.9344 52.0263 16.4509 52.0467 17.3275C52.0671 18.2427 51.4513 18.809 50.3781 18.8113C47.7541 18.8203 45.1301 18.8135 42.4948 18.8702C45.8161 19.3594 48.791 20.637 51.363 22.7754C56.0337 26.658 58.5264 31.723 59.1037 37.7055C59.2441 39.1688 59.7014 40.0613 60.9534 40.8519C64.4355 43.0514 67.8203 45.405 71.2548 47.7064C70.7273 48.497 70.2201 49.2604 69.6564 50.1098C66.2128 47.8084 62.7149 45.4707 59.1988 43.1216C57.34 48.531 56.7921 49.1675 52.3841 51.0522L52.375 51.0454ZM38.3402 39.128C36.9048 39.1326 36.1736 40.2856 36.7781 41.2188C37.1765 41.835 37.7788 42.3582 38.3878 42.7841C38.784 43.0605 39.0444 43.2824 39.1372 43.7808C39.2662 44.4785 39.8028 44.8296 40.4888 44.8319C41.1748 44.8341 41.7137 44.4853 41.8495 43.7899C41.9469 43.287 42.1891 43.0446 42.6215 42.809C44.3286 41.8712 45.1459 39.9526 44.7135 38.043C44.3015 36.2308 42.6985 34.8875 40.7763 34.738C40.525 34.7176 40.1877 34.7494 40.0451 34.6066C39.6783 34.2329 39.2549 33.8116 39.1168 33.3359C38.9493 32.7537 39.3025 32.1421 39.9047 32.0198C40.3915 31.9224 40.9552 32.1104 41.4646 32.2463C41.6435 32.2939 41.7544 32.5793 41.9106 32.7401C42.4608 33.3087 43.2215 33.388 43.826 32.9508C44.4441 32.5023 44.6592 31.6369 44.1588 31.0027C43.697 30.4205 43.0494 29.9879 42.5106 29.4623C42.2729 29.2313 42.0035 28.964 41.9174 28.665C41.7091 27.9424 41.2586 27.5188 40.5432 27.5006C39.787 27.4803 39.307 27.9016 39.0806 28.6604C38.9923 28.9594 38.7387 29.2834 38.4693 29.4419C37.5297 29.9947 36.8347 30.7354 36.4475 31.7525C35.4061 34.4821 37.2875 37.3861 40.2579 37.6035C41.0005 37.6579 41.6118 37.8595 41.8404 38.6138C42.051 39.3025 41.8608 39.9186 41.211 40.2946C40.5296 40.6888 39.9296 40.5098 39.3749 39.9707C38.9946 39.6015 38.5531 39.2934 38.3425 39.1235L38.3402 39.128Z" fill="#F3BA2F"/>
<path d="M80.9875 69.4177H69.5428C69.5428 67.0686 69.3028 64.7332 69.6039 62.4702C69.9865 59.5889 72.812 57.634 75.6149 57.899C78.6646 58.1867 80.9128 60.5199 80.9784 63.5349C81.0214 65.4739 80.9875 67.4175 80.9875 69.4154V69.4177Z" fill="#F3BA2F"/>
<path d="M11.5402 69.4264H0.0457193C0.027607 69.1229 -0.00409056 68.851 0.000437513 68.5815C0.0411902 66.5541 -0.0969158 64.4995 0.179297 62.5016C0.570975 59.6791 3.30367 57.6835 6.0839 57.8896C9.11318 58.1139 11.4316 60.3927 11.5266 63.3375C11.5923 65.3354 11.538 67.3379 11.538 69.4264H11.5402Z" fill="#F3BA2F"/>
<path d="M23.2503 80.9643C23.2503 78.6515 23.0284 76.3455 23.3046 74.1007C23.6646 71.1808 26.4109 69.2916 29.4538 69.4909C32.2249 69.6722 34.5456 71.9986 34.6859 74.8912C34.7833 76.8892 34.7041 78.8939 34.7041 80.9643H23.248H23.2503Z" fill="#F3BA2F"/>
<path d="M57.813 81.0001H46.1895C46.28 78.5808 46.1487 76.1661 46.5132 73.8261C46.9524 71.0172 49.7327 69.2526 52.7099 69.4995C55.4086 69.7238 57.6908 72.0615 57.7994 74.8409C57.8787 76.866 57.8153 78.8957 57.8153 81.0001H57.813Z" fill="#F3BA2F"/>
<path d="M26.0529 63.63C26.0687 62.0172 27.3773 60.7419 28.9825 60.7781C30.547 60.8121 31.8216 62.1033 31.8262 63.6572C31.8307 65.2361 30.4927 66.5703 28.9124 66.5612C27.3139 66.5521 26.037 65.2429 26.0529 63.6278V63.63Z" fill="#F3BA2F"/>
<path d="M54.9332 63.7831C54.8834 65.3462 53.5635 66.5988 52.0058 66.5603C50.4142 66.5218 49.1147 65.1627 49.1645 63.5883C49.2165 61.9891 50.5704 60.7183 52.1575 60.7795C53.7786 60.8429 54.983 62.1454 54.931 63.7831H54.9332Z" fill="#F3BA2F"/>
<path d="M5.77648 54.9618C4.16449 54.9596 2.87172 53.6571 2.88984 52.0578C2.90795 50.5061 4.20071 49.2104 5.75158 49.1878C7.34093 49.1651 8.65634 50.4699 8.66086 52.0737C8.66539 53.7046 7.40885 54.9641 5.77875 54.9618H5.77648Z" fill="#F3BA2F"/>
<path d="M75.1662 54.9599C73.5429 54.9441 72.3068 53.6665 72.3294 52.0264C72.352 50.4589 73.6358 49.1881 75.1957 49.1836C76.776 49.1813 78.1072 50.5178 78.0982 52.0989C78.0891 53.6982 76.7805 54.9758 75.1662 54.9599Z" fill="#F3BA2F"/>
<path d="M54.375 53.0454C54.649 55.3083 54.9252 57.5917 55.1991 59.8659C54.221 59.918 53.3109 59.9656 52.3102 60.0177C52.0521 57.9564 51.785 55.8406 51.511 53.6547C45.3868 54.2278 39.3328 54.298 33.1882 53.5935C33.0568 55.7659 32.9278 57.9246 32.7987 60.0675C31.8456 59.9928 30.9309 59.9226 29.9279 59.8456C30.0502 57.5826 30.1747 55.2766 30.3038 52.9185C26.6043 51.6364 24.4422 49.0586 23.8762 45.065C20.2899 47.4616 16.8033 49.7925 13.3416 52.1053C12.8073 51.3011 12.3002 50.5355 11.75 49.7087C12.4654 49.2262 13.2035 48.7256 13.9461 48.2295C16.946 46.2157 19.9413 44.1951 22.957 42.2017C23.4664 41.8665 23.7222 41.5222 23.7652 40.8675C24.1365 35.0731 26.1832 29.9922 30.3785 25.8876C33.1859 23.1399 36.5389 21.4591 40.4602 20.8588C40.3289 20.843 40.1999 20.8181 40.0686 20.8113C39.9282 20.8022 39.7856 20.809 39.6452 20.809C37.3291 20.809 35.013 20.8135 32.6969 20.809C31.5897 20.8067 30.9717 20.2993 30.9513 19.4C30.9309 18.46 31.5535 17.9276 32.7059 17.9231C34.6734 17.9163 36.6408 17.9231 38.8188 17.9231C36.3193 15.0078 33.9443 12.2374 31.4516 9.33111C32.9233 8.56773 34.2839 7.86325 35.7443 7.10666C36.0793 7.94026 36.3555 8.63795 36.6385 9.33337C37.1004 10.4773 37.8091 10.9077 38.6762 10.577C39.532 10.2508 39.7788 9.41266 39.3373 8.29817C38.6309 6.51544 37.9155 4.73724 37.157 2.84125C40.707 1.70864 44.1959 1.73809 47.8206 2.8186C47.4833 3.68844 47.1754 4.49033 46.8607 5.29222C46.4169 6.4203 45.946 7.53932 45.5249 8.67646C45.2215 9.49194 45.5702 10.2802 46.2992 10.5725C47.0418 10.8692 47.8229 10.5498 48.1829 9.74565C48.5474 8.9279 48.8621 8.0875 49.2583 7.10666C50.6914 7.85419 52.0498 8.5632 53.5237 9.33111C51.0469 12.2283 48.6855 14.9919 46.2449 17.8483C46.5505 17.8823 46.7543 17.9231 46.9603 17.9231C48.767 17.9276 50.576 17.9186 52.3826 17.9299C53.4264 17.9344 54.0263 18.4509 54.0467 19.3275C54.0671 20.2427 53.4513 20.809 52.3781 20.8113C49.7541 20.8203 47.1301 20.8135 44.4948 20.8702C47.8161 21.3594 50.791 22.637 53.363 24.7754C58.0337 28.658 60.5264 33.723 61.1037 39.7055C61.2441 41.1688 61.7014 42.0613 62.9534 42.8519C66.4355 45.0514 69.8203 47.405 73.2548 49.7064C72.7273 50.497 72.2201 51.2604 71.6564 52.1098C68.2128 49.8084 64.7149 47.4707 61.1988 45.1216C59.34 50.531 58.7921 51.1675 54.3841 53.0522L54.375 53.0454ZM40.3402 41.128C38.9048 41.1326 38.1736 42.2856 38.7781 43.2188C39.1765 43.835 39.7788 44.3582 40.3878 44.7841C40.784 45.0605 41.0444 45.2824 41.1372 45.7808C41.2662 46.4785 41.8028 46.8296 42.4888 46.8319C43.1748 46.8341 43.7137 46.4853 43.8495 45.7899C43.9469 45.287 44.1891 45.0446 44.6215 44.809C46.3286 43.8712 47.1459 41.9526 46.7135 40.043C46.3015 38.2308 44.6985 36.8875 42.7763 36.738C42.525 36.7176 42.1877 36.7494 42.0451 36.6066C41.6783 36.2329 41.2549 35.8116 41.1168 35.3359C40.9493 34.7537 41.3025 34.1421 41.9047 34.0198C42.3915 33.9224 42.9552 34.1104 43.4646 34.2463C43.6435 34.2939 43.7544 34.5793 43.9106 34.7401C44.4608 35.3087 45.2215 35.388 45.826 34.9508C46.4441 34.5023 46.6592 33.6369 46.1588 33.0027C45.697 32.4205 45.0494 31.9879 44.5106 31.4623C44.2729 31.2313 44.0035 30.964 43.9174 30.665C43.7091 29.9424 43.2586 29.5188 42.5432 29.5006C41.787 29.4803 41.307 29.9016 41.0806 30.6604C40.9923 30.9594 40.7387 31.2834 40.4693 31.4419C39.5297 31.9947 38.8347 32.7354 38.4475 33.7525C37.4061 36.4821 39.2875 39.3861 42.2579 39.6035C43.0005 39.6579 43.6118 39.8595 43.8404 40.6138C44.051 41.3025 43.8608 41.9186 43.211 42.2946C42.5296 42.6888 41.9296 42.5098 41.3749 41.9707C40.9946 41.6015 40.5531 41.2934 40.3425 41.1235L40.3402 41.128Z" fill="url(#paint0_linear_5004_348)"/>
<path d="M82.9875 71.4177H71.5428C71.5428 69.0686 71.3028 66.7332 71.6039 64.4702C71.9865 61.5889 74.812 59.634 77.6149 59.899C80.6646 60.1867 82.9128 62.5199 82.9784 65.5349C83.0214 67.4739 82.9875 69.4175 82.9875 71.4154V71.4177Z" fill="url(#paint1_linear_5004_348)"/>
<path d="M13.5402 71.4264H2.04572C2.02761 71.1229 1.99591 70.851 2.00044 70.5815C2.04119 68.5541 1.90308 66.4995 2.1793 64.5016C2.57097 61.6791 5.30367 59.6835 8.0839 59.8896C11.1132 60.1139 13.4316 62.3927 13.5266 65.3375C13.5923 67.3354 13.538 69.3379 13.538 71.4264H13.5402Z" fill="url(#paint2_linear_5004_348)"/>
<path d="M25.2503 82.9643C25.2503 80.6515 25.0284 78.3455 25.3046 76.1007C25.6646 73.1808 28.4109 71.2916 31.4538 71.4909C34.2249 71.6722 36.5456 73.9986 36.6859 76.8912C36.7833 78.8892 36.7041 80.8939 36.7041 82.9643H25.248H25.2503Z" fill="url(#paint3_linear_5004_348)"/>
<path d="M59.813 83.0001H48.1895C48.28 80.5808 48.1487 78.1661 48.5132 75.8261C48.9524 73.0172 51.7327 71.2526 54.7099 71.4995C57.4086 71.7238 59.6908 74.0615 59.7994 76.8409C59.8787 78.866 59.8153 80.8957 59.8153 83.0001H59.813Z" fill="url(#paint4_linear_5004_348)"/>
<path d="M28.0529 65.63C28.0687 64.0172 29.3773 62.7419 30.9825 62.7781C32.547 62.8121 33.8216 64.1033 33.8262 65.6572C33.8307 67.2361 32.4927 68.5703 30.9124 68.5612C29.3139 68.5521 28.037 67.2429 28.0529 65.6278V65.63Z" fill="url(#paint5_linear_5004_348)"/>
<path d="M56.9332 65.7831C56.8834 67.3462 55.5635 68.5988 54.0058 68.5603C52.4142 68.5218 51.1147 67.1627 51.1645 65.5883C51.2165 63.9891 52.5704 62.7183 54.1575 62.7795C55.7786 62.8429 56.983 64.1454 56.931 65.7831H56.9332Z" fill="url(#paint6_linear_5004_348)"/>
<path d="M7.77648 56.9618C6.16449 56.9596 4.87172 55.6571 4.88984 54.0578C4.90795 52.5061 6.20071 51.2104 7.75158 51.1878C9.34093 51.1651 10.6563 52.4699 10.6609 54.0737C10.6654 55.7046 9.40885 56.9641 7.77875 56.9618H7.77648Z" fill="url(#paint7_linear_5004_348)"/>
<path d="M77.1662 56.9599C75.5429 56.9441 74.3068 55.6665 74.3294 54.0264C74.352 52.4589 75.6358 51.1881 77.1957 51.1836C78.776 51.1813 80.1072 52.5178 80.0982 54.0989C80.0891 55.6982 78.7805 56.9758 77.1662 56.9599Z" fill="url(#paint8_linear_5004_348)"/>
<defs>
<linearGradient id="paint0_linear_5004_348" x1="42.5024" y1="2" x2="42.5024" y2="60.0675" gradientUnits="userSpaceOnUse">
<stop stop-color="white" stop-opacity="0.66"/>
<stop offset="1" stop-color="#CFCFCF" stop-opacity="0"/>
</linearGradient>
<linearGradient id="paint1_linear_5004_348" x1="77.2262" y1="59.875" x2="77.2262" y2="71.4177" gradientUnits="userSpaceOnUse">
<stop stop-color="white" stop-opacity="0.66"/>
<stop offset="1" stop-color="#CFCFCF" stop-opacity="0"/>
</linearGradient>
<linearGradient id="paint2_linear_5004_348" x1="7.77954" y1="59.875" x2="7.77954" y2="71.4264" gradientUnits="userSpaceOnUse">
<stop stop-color="white" stop-opacity="0.66"/>
<stop offset="1" stop-color="#CFCFCF" stop-opacity="0"/>
</linearGradient>
<linearGradient id="paint3_linear_5004_348" x1="30.9502" y1="71.4766" x2="30.9502" y2="82.9643" gradientUnits="userSpaceOnUse">
<stop stop-color="white" stop-opacity="0.66"/>
<stop offset="1" stop-color="#CFCFCF" stop-opacity="0"/>
</linearGradient>
<linearGradient id="paint4_linear_5004_348" x1="54.0144" y1="71.4766" x2="54.0144" y2="83.0001" gradientUnits="userSpaceOnUse">
<stop stop-color="white" stop-opacity="0.66"/>
<stop offset="1" stop-color="#CFCFCF" stop-opacity="0"/>
</linearGradient>
<linearGradient id="paint5_linear_5004_348" x1="30.9395" y1="62.7773" x2="30.9395" y2="68.5613" gradientUnits="userSpaceOnUse">
<stop stop-color="white" stop-opacity="0.66"/>
<stop offset="1" stop-color="#CFCFCF" stop-opacity="0"/>
</linearGradient>
<linearGradient id="paint6_linear_5004_348" x1="54.0482" y1="62.7773" x2="54.0482" y2="68.5612" gradientUnits="userSpaceOnUse">
<stop stop-color="white" stop-opacity="0.66"/>
<stop offset="1" stop-color="#CFCFCF" stop-opacity="0"/>
</linearGradient>
<linearGradient id="paint7_linear_5004_348" x1="7.77526" y1="51.1875" x2="7.77526" y2="56.9618" gradientUnits="userSpaceOnUse">
<stop stop-color="white" stop-opacity="0.66"/>
<stop offset="1" stop-color="#CFCFCF" stop-opacity="0"/>
</linearGradient>
<linearGradient id="paint8_linear_5004_348" x1="77.2137" y1="51.1836" x2="77.2137" y2="56.9601" gradientUnits="userSpaceOnUse">
<stop stop-color="white" stop-opacity="0.66"/>
<stop offset="1" stop-color="#CFCFCF" stop-opacity="0"/>
</linearGradient>
</defs>
</svg>
