<svg width="78" height="54" viewBox="0 0 78 54" fill="none" xmlns="http://www.w3.org/2000/svg">
<path d="M76.4854 38.0601C76.3195 39.4696 76.2642 40.8791 76.0154 42.2604C75.7539 44.0398 75.3469 45.7937 74.7988 47.5038C74.3654 48.8887 73.4539 50.0663 72.2335 50.818C71.0132 51.5697 69.5668 51.8445 68.1627 51.5914C67.2394 51.4304 66.3562 51.0856 65.5636 50.5766C62.8498 48.7674 60.3855 46.5963 58.2363 44.121C56.8815 42.6833 55.4713 41.302 54.2824 39.6669C53.7726 39.0553 53.1363 38.5662 52.4192 38.2348C51.7022 37.9033 50.9221 37.7378 50.1349 37.75H26.4111C25.6008 37.7452 24.7994 37.922 24.0636 38.2678C23.3278 38.6137 22.6755 39.1202 22.1529 39.7515C19.3572 43.1656 16.2664 46.3167 12.9178 49.1671C12.2265 49.7309 11.48 50.2101 10.7334 50.7175C9.99594 51.1933 9.16742 51.5032 8.30315 51.6267C7.43888 51.7501 6.55872 51.6843 5.72138 51.4335C4.88405 51.1827 4.10879 50.7528 3.44731 50.1724C2.78584 49.592 2.25337 48.8745 1.8854 48.0676C1.14169 46.3216 0.675033 44.466 0.502896 42.5705C-0.58837 34.6045 0.101663 26.49 2.52135 18.8343C3.76691 14.713 5.63247 10.8139 8.05138 7.27621C10.0634 4.00755 13.1968 1.6195 16.8412 0.577254C20.4856 -0.464993 24.38 -0.0868046 27.7659 1.63815C29.2174 2.29075 30.6138 3.06389 31.9411 3.94975C33.3536 4.92324 35.0196 5.44358 36.7246 5.44384C37.637 5.44384 38.5771 5.44384 39.4896 5.44384C41.377 5.4949 43.2299 4.92125 44.7707 3.80879C47.5856 1.78066 50.8573 0.510388 54.2824 0.115864C56.7541 -0.173281 59.2572 0.193893 61.5487 1.18176C63.8402 2.16962 65.8424 3.74462 67.3609 5.75393C70.5613 9.85069 72.9299 14.5559 74.3287 19.5954C75.5211 23.4647 76.2363 27.4704 76.4578 31.5199C76.4445 31.7922 76.4445 32.0651 76.4578 32.3374L76.4854 38.0601ZM23.9502 17.5375C23.9502 15.9025 23.9502 14.3802 23.9502 12.8579C23.9502 12.435 23.9502 12.2095 23.4248 12.0968C22.112 11.6092 20.6847 11.5403 19.3326 11.8994C19.217 11.9131 19.1052 11.9506 19.0043 12.0097C18.9033 12.0688 18.8152 12.1482 18.7453 12.2432C18.6755 12.3382 18.6253 12.4466 18.5979 12.562C18.5706 12.6774 18.5665 12.7973 18.5861 12.9143C18.5861 14.4366 18.5861 15.9306 18.5861 17.5375C17.01 17.5375 15.5169 17.5375 14.0514 17.5375C13.8214 17.5039 13.5875 17.561 13.3974 17.6972C13.2073 17.8334 13.0753 18.0384 13.0284 18.2704C12.5824 19.5177 12.5824 20.8853 13.0284 22.1325C13.0516 22.2743 13.1025 22.4099 13.1782 22.5312C13.2538 22.6525 13.3526 22.757 13.4687 22.8385C13.5848 22.9201 13.7158 22.977 13.8539 23.0058C13.9921 23.0346 14.1345 23.0349 14.2727 23.0064C15.2681 23.0064 16.2635 23.0064 17.2589 23.0064H18.4478C18.4478 24.5851 18.4478 26.0228 18.4478 27.4605C18.4223 27.6748 18.4685 27.8916 18.5789 28.0758C18.6893 28.2599 18.8575 28.4007 19.0561 28.4753C19.645 28.7767 20.2905 28.9452 20.9489 28.9695C21.6073 28.9939 22.2632 28.8734 22.8718 28.6163C23.1605 28.5548 23.4154 28.3837 23.5849 28.1377C23.7543 27.8916 23.8256 27.589 23.7843 27.2914C23.7843 25.8818 23.7843 24.4723 23.7843 23.0064H28.5125C28.6378 23.0025 28.761 22.973 28.875 22.9197C28.989 22.8665 29.0913 22.7905 29.1761 22.6963C29.5702 22.0178 29.7782 21.2438 29.7782 20.4552C29.7782 19.6666 29.5702 18.8926 29.1761 18.2141C29.1144 17.996 28.9829 17.8053 28.8024 17.6725C28.622 17.5396 28.4031 17.4722 28.1807 17.4811C26.9088 17.5375 25.4157 17.5093 24.0331 17.5093L23.9502 17.5375ZM67.4715 19.2007C67.4714 18.362 67.2267 17.5423 66.7685 16.8457C66.3103 16.1492 65.6592 15.6073 64.8981 15.289C64.137 14.9706 63.3003 14.8902 62.4943 15.058C61.6883 15.2258 60.9494 15.6342 60.3716 16.2312C59.7938 16.8282 59.4032 17.5869 59.2495 18.4109C59.0958 19.2348 59.1858 20.0868 59.5083 20.8584C59.8307 21.63 60.3709 22.2864 61.0602 22.7442C61.7495 23.202 62.5567 23.4405 63.3793 23.4293C63.9286 23.433 64.4732 23.3255 64.9814 23.1129C65.4896 22.9003 65.9513 22.5869 66.3398 22.1909C66.7282 21.7948 67.0356 21.3241 67.2441 20.8059C67.4526 20.2878 67.5581 19.7326 67.5544 19.1725L67.4715 19.2007ZM57.2133 12.9425C57.2078 12.1141 56.9623 11.306 56.5075 10.6195C56.0527 9.93314 55.409 9.39915 54.6573 9.08474C53.9056 8.77032 53.0796 8.68952 52.283 8.85249C51.4864 9.01546 50.7548 9.41492 50.1803 10.0006C49.6058 10.5864 49.214 11.3322 49.0542 12.1444C48.8943 12.9565 48.9736 13.7987 49.282 14.5651C49.5904 15.3314 50.1141 15.9877 50.7874 16.4514C51.4606 16.9151 52.2533 17.1654 53.0658 17.171C53.6115 17.1748 54.1524 17.068 54.6573 16.8568C55.1622 16.6456 55.6208 16.3343 56.0067 15.9409C56.3926 15.5475 56.6979 15.0798 56.9051 14.5651C57.1122 14.0504 57.217 13.4988 57.2133 12.9425ZM57.2133 24.5569C57.206 23.4403 56.7658 22.372 55.9888 21.5851C55.2118 20.7981 54.161 20.3565 53.0658 20.3565C51.9658 20.3565 50.9108 20.802 50.133 21.595C49.3552 22.3881 48.9183 23.4636 48.9183 24.5851C48.9183 25.7066 49.3552 26.7821 50.133 27.5751C50.9108 28.3681 51.9658 28.8136 53.0658 28.8136C53.6151 28.8174 54.1597 28.7098 54.6679 28.4972C55.1761 28.2846 55.6378 27.9712 56.0263 27.5752C56.4147 27.1792 56.7221 26.7084 56.9306 26.1903C57.1391 25.6722 57.2446 25.1169 57.2409 24.5569H57.2133Z" fill="#F3BA2F"/>
<path d="M77.9991 40.3726C77.8332 41.7821 77.7779 43.1916 77.5291 44.5729C77.2676 46.3523 76.8606 48.1062 76.3124 49.8163C75.879 51.2012 74.9676 52.3788 73.7472 53.1305C72.5268 53.8822 71.0804 54.157 69.6764 53.9039C68.7531 53.7429 67.8699 53.3981 67.0773 52.8891C64.3635 51.0799 61.8992 48.9088 59.75 46.4335C58.3952 44.9958 56.985 43.6145 55.7961 41.9794C55.2862 41.3678 54.65 40.8787 53.9329 40.5473C53.2159 40.2158 52.4357 40.0503 51.6485 40.0625H27.9247C27.1145 40.0577 26.3131 40.2345 25.5773 40.5803C24.8415 40.9262 24.1892 41.4327 23.6666 42.064C20.8709 45.4781 17.7801 48.6292 14.4315 51.4796C13.7402 52.0434 12.9937 52.5226 12.2471 53.03C11.5096 53.5058 10.6811 53.8157 9.81682 53.9392C8.95255 54.0626 8.07239 53.9968 7.23506 53.746C6.39772 53.4952 5.62246 53.0653 4.96099 52.4849C4.29951 51.9045 3.76704 51.187 3.39907 50.3801C2.65537 48.6341 2.18871 46.7785 2.01657 44.883C0.925302 36.917 1.61533 28.8025 4.03503 21.1468C5.28058 17.0255 7.14614 13.1264 9.56505 9.58871C11.577 6.32005 14.7104 3.932 18.3548 2.88975C21.9992 1.84751 25.8937 2.2257 29.2796 3.95065C30.7311 4.60325 32.1275 5.37639 33.4548 6.26225C34.8673 7.23574 36.5332 7.75608 38.2382 7.75634C39.1507 7.75634 40.0908 7.75634 41.0032 7.75634C42.8907 7.8074 44.7435 7.23375 46.2844 6.12129C49.0993 4.09316 52.371 2.82289 55.7961 2.42836C58.2678 2.13922 60.7709 2.50639 63.0624 3.49426C65.3539 4.48212 67.3561 6.05712 68.8746 8.06643C72.075 12.1632 74.4436 16.8684 75.8424 21.9079C77.0348 25.7772 77.75 29.7829 77.9715 33.8324C77.9582 34.1047 77.9582 34.3776 77.9715 34.6499L77.9991 40.3726ZM25.4639 19.85C25.4639 18.215 25.4639 16.6927 25.4639 15.1704C25.4639 14.7475 25.4639 14.522 24.9385 14.4093C23.6257 13.9217 22.1984 13.8528 20.8463 14.2119C20.7306 14.2256 20.6189 14.2631 20.5179 14.3222C20.417 14.3813 20.3289 14.4607 20.259 14.5557C20.1891 14.6507 20.139 14.7591 20.1116 14.8745C20.0842 14.9899 20.0802 15.1098 20.0997 15.2268C20.0997 16.7491 20.0997 18.2431 20.0997 19.85C18.5237 19.85 17.0306 19.85 15.5651 19.85C15.3351 19.8164 15.1012 19.8735 14.9111 20.0097C14.721 20.1459 14.589 20.3509 14.5421 20.5829C14.0961 21.8302 14.0961 23.1978 14.5421 24.445C14.5653 24.5868 14.6162 24.7224 14.6918 24.8437C14.7675 24.965 14.8663 25.0695 14.9824 25.151C15.0985 25.2326 15.2295 25.2895 15.3676 25.3183C15.5057 25.3471 15.6481 25.3474 15.7863 25.3189C16.7817 25.3189 17.7771 25.3189 18.7725 25.3189H19.9615C19.9615 26.8976 19.9615 28.3353 19.9615 29.773C19.936 29.9873 19.9822 30.2041 20.0926 30.3883C20.203 30.5724 20.3711 30.7132 20.5698 30.7878C21.1586 31.0892 21.8042 31.2577 22.4626 31.282C23.121 31.3064 23.7768 31.1859 24.3855 30.9288C24.6742 30.8673 24.9291 30.6962 25.0986 30.4502C25.268 30.2041 25.3393 29.9015 25.298 29.6039C25.298 28.1943 25.298 26.7848 25.298 25.3189H30.0261C30.1514 25.315 30.2747 25.2855 30.3887 25.2322C30.5026 25.179 30.605 25.103 30.6897 25.0088C31.0839 24.3303 31.2919 23.5563 31.2919 22.7677C31.2919 21.9791 31.0839 21.2051 30.6897 20.5266C30.6281 20.3085 30.4965 20.1178 30.3161 19.985C30.1357 19.8521 29.9167 19.7847 29.6943 19.7936C28.4224 19.85 26.9293 19.8218 25.5468 19.8218L25.4639 19.85ZM68.9852 21.5132C68.9851 20.6745 68.7404 19.8548 68.2822 19.1582C67.8239 18.4617 67.1729 17.9198 66.4118 17.6015C65.6507 17.2831 64.814 17.2027 64.0079 17.3705C63.2019 17.5383 62.4631 17.9467 61.8853 18.5437C61.3075 19.1407 60.9169 19.8994 60.7632 20.7234C60.6095 21.5473 60.6995 22.3993 61.0219 23.1709C61.3443 23.9425 61.8845 24.5989 62.5738 25.0567C63.2631 25.5145 64.0704 25.753 64.8929 25.7418C65.4423 25.7455 65.9868 25.638 66.495 25.4254C67.0033 25.2128 67.465 24.8994 67.8534 24.5034C68.2419 24.1073 68.5493 23.6366 68.7578 23.1184C68.9663 22.6003 69.0718 22.0451 69.0681 21.485L68.9852 21.5132ZM58.727 15.255C58.7215 14.4266 58.4759 13.6185 58.0211 12.932C57.5663 12.2456 56.9226 11.7117 56.171 11.3972C55.4193 11.0828 54.5932 11.002 53.7966 11.165C53 11.328 52.2685 11.7274 51.694 12.3131C51.1195 12.8989 50.7277 13.6447 50.5678 14.4569C50.408 15.269 50.4873 16.1112 50.7956 16.8776C51.104 17.6439 51.6278 18.3002 52.301 18.7639C52.9743 19.2276 53.767 19.4779 54.5794 19.4835C55.1251 19.4873 55.6661 19.3805 56.171 19.1693C56.6758 18.9581 57.1345 18.6468 57.5204 18.2534C57.9062 17.86 58.2116 17.3923 58.4187 16.8776C58.6259 16.3629 58.7306 15.8113 58.727 15.255ZM58.727 26.8694C58.7197 25.7528 58.2795 24.6845 57.5025 23.8976C56.7254 23.1106 55.6747 22.669 54.5794 22.669C53.4795 22.669 52.4245 23.1145 51.6467 23.9075C50.8689 24.7006 50.4319 25.7761 50.4319 26.8976C50.4319 28.0191 50.8689 29.0946 51.6467 29.8876C52.4245 30.6806 53.4795 31.1261 54.5794 31.1261C55.1288 31.1299 55.6733 31.0223 56.1816 30.8097C56.6898 30.5971 57.1515 30.2837 57.5399 29.8877C57.9284 29.4917 58.2358 29.0209 58.4443 28.5028C58.6528 27.9847 58.7583 27.4294 58.7546 26.8694H58.727Z" fill="url(#paint0_linear_4911_77)"/>
<defs>
<linearGradient id="paint0_linear_4911_77" x1="17.0379" y1="8.09838" x2="66.1733" y2="45.4035" gradientUnits="userSpaceOnUse">
<stop stop-color="white" stop-opacity="0.66"/>
<stop offset="1" stop-color="#CECECE" stop-opacity="0"/>
</linearGradient>
</defs>
</svg>
