<svg width="99" height="64" viewBox="0 0 99 64" fill="none" xmlns="http://www.w3.org/2000/svg">
<path d="M0 42.22C0.412178 41.4714 0.262304 40.6479 0.337246 39.8618C1.4239 30.2789 3.37237 20.9206 7.86885 12.2735C9.70492 8.71738 12.0281 5.53556 15.2881 3.1024C18.548 0.669247 21.9204 -0.116849 25.7424 0.10775C29.5644 0.332349 33.6113 1.45535 37.5082 2.39118C40.6183 3.10241 43.7284 3.8885 46.9508 4.2254C49.2365 4.45 51.4099 3.92593 53.6206 3.47673C58.3045 2.57834 62.8759 1.15588 67.5972 0.332351C74.8665 -0.940376 80.637 1.45534 85.0961 7.29491C88.7682 12.1612 90.904 17.7013 92.5527 23.466C94.8384 31.2896 96.1499 39.2254 96 47.3484C95.9626 50.942 95.6253 54.5356 94.0141 57.8671C92.1031 61.7602 88.7307 63.5195 84.4216 62.8457C80.9368 62.2842 77.9766 60.5997 75.1288 58.6906C72.1248 56.6978 69.3035 54.443 66.6979 51.9527C62.8009 48.1719 57.9672 46.5623 52.7213 45.9259C47.9709 45.3369 43.1517 45.6545 38.5199 46.8618C35.4099 47.6853 32.5996 49.0329 30.2389 51.204C27.2787 53.8617 24.281 56.4446 20.9836 58.6532C17.6862 60.8618 15.2506 62.2468 11.8782 62.8083C7.15694 63.6318 3.48478 61.573 1.68618 57.1559C0.864738 55.0733 0.37179 52.8761 0.224861 50.6425C0.18739 50.3805 0.337237 50.0436 0 49.8938V48.7708C0.374707 47.4232 0.112412 46.0382 0.187354 44.6532C0.187354 44.2789 0.374707 43.8297 0 43.5302V42.22ZM4.45903 46.3003C4.44583 47.7749 4.50837 49.2492 4.64638 50.7174C4.77921 52.2012 5.10676 53.6611 5.62061 55.0596C6.59485 57.7922 8.50588 58.8778 11.3162 58.3163C13.3771 57.9045 15.2506 56.9687 17.0492 55.8831C20.6838 53.6746 23.8689 50.8671 27.0539 48.0222C30.2389 45.1773 33.274 43.7922 36.9462 42.7441C43.2501 40.9324 49.9038 40.7009 56.3185 42.0703C60.9649 43.0061 65.2365 44.8029 68.7588 48.1345C70.8808 50.161 73.1205 52.0608 75.466 53.8243C78.089 55.7334 80.7494 57.4928 83.897 58.3537C87.0445 59.2147 89.3302 58.204 90.4918 54.8725C91.3536 52.2896 91.5785 49.6693 91.5785 47.0115C91.6534 39.5997 90.4169 32.3751 88.4684 25.2254C87.0445 19.9099 85.0961 14.7815 81.7237 10.327C78.3513 5.87245 74.4169 4.11309 69.0586 4.67459C65.1241 5.04892 61.3396 6.09705 57.5551 7.10774C51.3724 8.7548 45.2647 8.94198 39.082 7.22005C35.2225 6.17192 31.363 5.08636 27.3911 4.63716C23.4192 4.18797 19.5972 5.04893 16.4871 7.96871C13.377 10.8885 11.8033 13.8083 10.3794 17.2521C6.5876 26.4745 4.57872 36.331 4.45903 46.3003Z" fill="#C63127"/>
<path d="M0 43.5312C0.374707 43.8307 0.187354 44.2799 0.187354 44.6542C0.112412 46.0393 0.374707 47.4243 0 48.7719V43.5312Z" fill="#C63127"/>
<path d="M39.0447 25.2635C39.0251 26.8549 38.4604 28.3916 37.4445 29.6176C36.4286 30.8436 35.0229 31.6849 33.4616 32.0014C32.8995 32.1137 32.6747 32.2635 32.5623 32.8998C32.2249 34.4809 31.3501 35.8966 30.0865 36.9065C28.8229 37.9163 27.2483 38.4582 25.6302 38.4399C24.0302 38.4121 22.4898 37.8292 21.2729 36.7911C20.056 35.753 19.2385 34.3244 18.9604 32.7501C18.8855 32.226 18.6607 32.1137 18.211 32.0389C14.8386 31.3651 12.5529 28.7822 12.403 25.4132C12.3352 23.8755 12.7963 22.3609 13.7098 21.1214C14.6233 19.8819 15.9341 18.9922 17.4241 18.6004C18.4358 18.3009 18.8855 17.964 19.1852 16.8784C19.6023 15.4172 20.4963 14.1372 21.7252 13.2419C22.9541 12.3466 24.4473 11.8874 25.9674 11.9373C29.3773 12.1619 31.9627 14.3704 32.5997 17.6271C32.5997 17.8257 32.6787 18.0161 32.8192 18.1565C32.9598 18.2969 33.1504 18.3758 33.3491 18.3758C34.9563 18.6743 36.4074 19.5276 37.4486 20.7867C38.4897 22.0458 39.0547 23.6304 39.0447 25.2635ZM34.7356 25.1512C34.7457 24.5221 34.5078 23.9143 34.0731 23.459C33.6384 23.0038 33.0418 22.7376 32.4124 22.718H30.9135C29.2274 22.718 28.3281 21.8196 28.2906 20.0977C28.321 19.5102 28.2959 18.9211 28.2157 18.3383C27.8784 16.9533 26.8667 16.1298 25.5178 16.2795C24.8917 16.3274 24.3083 16.615 23.8893 17.0823C23.4704 17.5497 23.2484 18.1606 23.2696 18.7875V20.0228C23.2696 21.8196 22.3702 22.6806 20.5716 22.718C20.0096 22.7554 19.41 22.718 18.8854 22.7929C18.2859 22.868 17.738 23.1699 17.3546 23.6365C16.9712 24.1031 16.7815 24.6988 16.8246 25.3009C16.8512 25.9015 17.0995 26.471 17.5216 26.8995C17.9437 27.3281 18.5096 27.5854 19.1103 27.6218C19.6723 27.6592 20.2344 27.6218 20.7964 27.6218C22.2578 27.6592 23.1946 28.5202 23.2696 29.9801V31.4774C23.307 33.0121 24.2438 34.0228 25.6676 34.0603C26.0061 34.0864 26.3462 34.0416 26.6663 33.9287C26.9864 33.8158 27.2793 33.6373 27.5263 33.4047C27.7732 33.172 27.9688 32.8904 28.1004 32.5779C28.2321 32.2653 28.2968 31.9287 28.2906 31.5897C28.3281 31.103 28.2906 30.6538 28.2906 30.1672C28.3281 28.7073 29.1524 27.8464 30.6138 27.7715C31.2508 27.7341 31.9253 27.7715 32.5623 27.6966C32.8726 27.673 33.1752 27.5883 33.4527 27.4474C33.7302 27.3065 33.977 27.1121 34.179 26.8755C34.381 26.639 34.5341 26.3648 34.6296 26.0689C34.7252 25.7729 34.7612 25.4611 34.7356 25.1512Z" fill="#C63127"/>
<path d="M72.9928 16.7293C72.9928 17.8313 72.5546 18.8882 71.7746 19.6674C70.9946 20.4466 69.9367 20.8844 68.8336 20.8844C67.7305 20.8844 66.6725 20.4466 65.8925 19.6674C65.1125 18.8882 64.6743 17.8313 64.6743 16.7293C64.6743 16.1836 64.7819 15.6433 64.9909 15.1392C65.1999 14.6351 65.5063 14.1771 65.8925 13.7912C66.2787 13.4054 66.7373 13.0993 67.2419 12.8905C67.7465 12.6817 68.2874 12.5742 68.8336 12.5742C69.3798 12.5742 69.9206 12.6817 70.4252 12.8905C70.9299 13.0993 71.3884 13.4054 71.7746 13.7912C72.1608 14.1771 72.4672 14.6351 72.6762 15.1392C72.8852 15.6433 72.9928 16.1836 72.9928 16.7293Z" fill="#C63127"/>
<path d="M60.3277 21.0343C60.9096 20.9792 61.4966 21.0462 62.0512 21.2308C62.6057 21.4155 63.1155 21.7139 63.5478 22.1068C63.9802 22.4998 64.3257 22.9786 64.562 23.5127C64.7984 24.0467 64.9206 24.6242 64.9206 25.2081C64.9206 25.7921 64.7984 26.3696 64.562 26.9036C64.3257 27.4377 63.9802 27.9165 63.5478 28.3094C63.1155 28.7024 62.6057 29.0008 62.0512 29.1854C61.4966 29.3701 60.9096 29.437 60.3277 29.3819C59.2242 29.3625 58.172 28.9133 57.3951 28.1302C56.6182 27.3471 56.1781 26.2919 56.1685 25.1894C56.1685 24.0874 56.6067 23.0306 57.3867 22.2513C58.1667 21.4721 59.2246 21.0343 60.3277 21.0343Z" fill="#C63127"/>
<path d="M73.1426 25.1496C73.2457 24.1112 73.7327 23.1486 74.5085 22.4498C75.2843 21.7511 76.2931 21.3665 77.3376 21.3711C78.3821 21.3758 79.3874 21.7695 80.1569 22.4751C80.9263 23.1808 81.4047 24.1478 81.4985 25.1871C81.5038 25.7405 81.3973 26.2894 81.1854 26.8008C80.9735 27.3122 80.6606 27.7757 80.2654 28.1635C79.8701 28.5514 79.4006 28.8557 78.885 29.0582C78.3694 29.2607 77.8182 29.3573 77.2644 29.3421C76.1644 29.3225 75.1161 28.8721 74.3451 28.088C73.5742 27.3039 73.1424 26.2487 73.1426 25.1496Z" fill="#C63127"/>
<path d="M72.9931 33.7228C72.9782 34.5444 72.7197 35.3431 72.2504 36.018C71.7811 36.6929 71.122 37.2135 70.3564 37.5142C69.5909 37.8149 68.7533 37.8821 67.9496 37.7072C67.1459 37.5324 66.4121 37.1234 65.841 36.5319C65.27 35.9405 64.8872 35.1932 64.7413 34.3845C64.5953 33.5758 64.6927 32.742 65.0211 31.9886C65.3494 31.2352 65.8941 30.5959 66.5861 30.1517C67.2781 29.7075 68.0864 29.4782 68.9088 29.4928C69.455 29.5026 69.994 29.6198 70.4949 29.8376C70.9958 30.0555 71.4488 30.3698 71.8281 30.7626C72.2074 31.1554 72.5055 31.619 72.7054 32.1269C72.9053 32.6348 73.0031 33.1771 72.9931 33.7228Z" fill="#C63127"/>
<path d="M2 43.22C2.41218 42.4714 2.2623 41.6479 2.33725 40.8618C3.4239 31.2789 5.37237 21.9206 9.86885 13.2735C11.7049 9.71738 14.0281 6.53556 17.2881 4.1024C20.548 1.66925 23.9204 0.883151 27.7424 1.10775C31.5644 1.33235 35.6113 2.45535 39.5082 3.39118C42.6183 4.10241 45.7284 4.8885 48.9508 5.2254C51.2365 5.45 53.4099 4.92593 55.6206 4.47673C60.3045 3.57834 64.8759 2.15588 69.5972 1.33235C76.8665 0.0596241 82.637 2.45534 87.0961 8.29491C90.7682 13.1612 92.904 18.7013 94.5527 24.466C96.8384 32.2896 98.1499 40.2254 98 48.3484C97.9626 51.942 97.6253 55.5356 96.0141 58.8671C94.1031 62.7602 90.7307 64.5195 86.4216 63.8457C82.9368 63.2842 79.9766 61.5997 77.1288 59.6906C74.1248 57.6978 71.3035 55.443 68.6979 52.9527C64.8009 49.1719 59.9672 47.5623 54.7213 46.9259C49.9709 46.3369 45.1517 46.6545 40.5199 47.8618C37.4099 48.6853 34.5996 50.0329 32.2389 52.204C29.2787 54.8617 26.281 57.4446 22.9836 59.6532C19.6862 61.8618 17.2506 63.2468 13.8782 63.8083C9.15694 64.6318 5.48478 62.573 3.68618 58.1559C2.86474 56.0733 2.37179 53.8761 2.22486 51.6425C2.18739 51.3805 2.33724 51.0436 2 50.8938V49.7708C2.37471 48.4232 2.11241 47.0382 2.18735 45.6532C2.18735 45.2789 2.37471 44.8297 2 44.5302V43.22ZM6.45903 47.3003C6.44583 48.7749 6.50837 50.2492 6.64638 51.7174C6.77921 53.2012 7.10676 54.6611 7.62061 56.0596C8.59485 58.7922 10.5059 59.8778 13.3162 59.3163C15.3771 58.9045 17.2506 57.9687 19.0492 56.8831C22.6838 54.6746 25.8689 51.8671 29.0539 49.0222C32.2389 46.1773 35.274 44.7922 38.9462 43.7441C45.2501 41.9324 51.9038 41.7009 58.3185 43.0703C62.9649 44.0061 67.2365 45.8029 70.7588 49.1345C72.8808 51.161 75.1205 53.0608 77.466 54.8243C80.089 56.7334 82.7494 58.4928 85.897 59.3537C89.0445 60.2147 91.3302 59.204 92.4918 55.8725C93.3536 53.2896 93.5785 50.6693 93.5785 48.0115C93.6534 40.5997 92.4169 33.3751 90.4684 26.2254C89.0445 20.9099 87.0961 15.7815 83.7237 11.327C80.3513 6.87245 76.4169 5.11309 71.0586 5.67459C67.1241 6.04892 63.3396 7.09705 59.5551 8.10774C53.3724 9.7548 47.2647 9.94198 41.082 8.22005C37.2225 7.17192 33.363 6.08636 29.3911 5.63716C25.4192 5.18797 21.5972 6.04893 18.4871 8.96871C15.377 11.8885 13.8033 14.8083 12.3794 18.2521C8.5876 27.4745 6.57872 37.331 6.45903 47.3003Z" fill="url(#paint0_linear_4530_14)"/>
<path d="M2 44.5312C2.37471 44.8307 2.18735 45.2799 2.18735 45.6542C2.11241 47.0393 2.37471 48.4243 2 49.7719V44.5312Z" fill="url(#paint1_linear_4530_14)"/>
<path d="M41.0447 26.2635C41.0251 27.8549 40.4604 29.3916 39.4445 30.6176C38.4286 31.8436 37.0229 32.6849 35.4616 33.0014C34.8995 33.1137 34.6747 33.2635 34.5623 33.8998C34.2249 35.4809 33.3501 36.8966 32.0865 37.9065C30.8229 38.9163 29.2483 39.4582 27.6302 39.4399C26.0302 39.4121 24.4898 38.8292 23.2729 37.7911C22.056 36.753 21.2385 35.3244 20.9604 33.7501C20.8855 33.226 20.6607 33.1137 20.211 33.0389C16.8386 32.3651 14.5529 29.7822 14.403 26.4132C14.3352 24.8755 14.7963 23.3609 15.7098 22.1214C16.6233 20.8819 17.9341 19.9922 19.4241 19.6004C20.4358 19.3009 20.8855 18.964 21.1852 17.8784C21.6023 16.4172 22.4963 15.1372 23.7252 14.2419C24.9541 13.3466 26.4473 12.8874 27.9674 12.9373C31.3773 13.1619 33.9627 15.3704 34.5997 18.6271C34.5997 18.8257 34.6787 19.0161 34.8192 19.1565C34.9598 19.2969 35.1504 19.3758 35.3491 19.3758C36.9563 19.6743 38.4074 20.5276 39.4486 21.7867C40.4897 23.0458 41.0547 24.6304 41.0447 26.2635ZM36.7356 26.1512C36.7457 25.5221 36.5078 24.9143 36.0731 24.459C35.6384 24.0038 35.0418 23.7376 34.4124 23.718H32.9135C31.2274 23.718 30.3281 22.8196 30.2906 21.0977C30.321 20.5102 30.2959 19.9211 30.2157 19.3383C29.8784 17.9533 28.8667 17.1298 27.5178 17.2795C26.8917 17.3274 26.3083 17.615 25.8893 18.0823C25.4704 18.5497 25.2484 19.1606 25.2696 19.7875V21.0228C25.2696 22.8196 24.3702 23.6806 22.5716 23.718C22.0096 23.7554 21.41 23.718 20.8854 23.7929C20.2859 23.868 19.738 24.1699 19.3546 24.6365C18.9712 25.1031 18.7815 25.6988 18.8246 26.3009C18.8512 26.9015 19.0995 27.471 19.5216 27.8995C19.9437 28.3281 20.5096 28.5854 21.1103 28.6218C21.6723 28.6592 22.2344 28.6218 22.7964 28.6218C24.2578 28.6592 25.1946 29.5202 25.2696 30.9801V32.4774C25.307 34.0121 26.2438 35.0228 27.6676 35.0603C28.0061 35.0864 28.3462 35.0416 28.6663 34.9287C28.9864 34.8158 29.2793 34.6373 29.5263 34.4047C29.7732 34.172 29.9688 33.8904 30.1004 33.5779C30.2321 33.2653 30.2968 32.9287 30.2906 32.5897C30.3281 32.103 30.2906 31.6538 30.2906 31.1672C30.3281 29.7073 31.1524 28.8464 32.6138 28.7715C33.2508 28.7341 33.9253 28.7715 34.5623 28.6966C34.8726 28.673 35.1752 28.5883 35.4527 28.4474C35.7302 28.3065 35.977 28.1121 36.179 27.8755C36.381 27.639 36.5341 27.3648 36.6296 27.0689C36.7252 26.7729 36.7612 26.4611 36.7356 26.1512Z" fill="url(#paint2_linear_4530_14)"/>
<path d="M74.9928 17.7293C74.9928 18.8313 74.5546 19.8882 73.7746 20.6674C72.9946 21.4466 71.9367 21.8844 70.8336 21.8844C69.7305 21.8844 68.6725 21.4466 67.8925 20.6674C67.1125 19.8882 66.6743 18.8313 66.6743 17.7293C66.6743 17.1836 66.7819 16.6433 66.9909 16.1392C67.1999 15.6351 67.5063 15.1771 67.8925 14.7912C68.2787 14.4054 68.7373 14.0993 69.2419 13.8905C69.7465 13.6817 70.2874 13.5742 70.8336 13.5742C71.3798 13.5742 71.9206 13.6817 72.4252 13.8905C72.9299 14.0993 73.3884 14.4054 73.7746 14.7912C74.1608 15.1771 74.4672 15.6351 74.6762 16.1392C74.8852 16.6433 74.9928 17.1836 74.9928 17.7293Z" fill="url(#paint3_linear_4530_14)"/>
<path d="M62.3277 22.0343C62.9096 21.9792 63.4966 22.0462 64.0512 22.2308C64.6057 22.4155 65.1155 22.7139 65.5478 23.1068C65.9802 23.4998 66.3257 23.9786 66.562 24.5127C66.7984 25.0467 66.9206 25.6242 66.9206 26.2081C66.9206 26.7921 66.7984 27.3696 66.562 27.9036C66.3257 28.4377 65.9802 28.9165 65.5478 29.3094C65.1155 29.7024 64.6057 30.0008 64.0512 30.1854C63.4966 30.3701 62.9096 30.437 62.3277 30.3819C61.2242 30.3625 60.172 29.9133 59.3951 29.1302C58.6182 28.3471 58.1781 27.2919 58.1685 26.1894C58.1685 25.0874 58.6067 24.0306 59.3867 23.2513C60.1667 22.4721 61.2246 22.0343 62.3277 22.0343Z" fill="url(#paint4_linear_4530_14)"/>
<path d="M75.1426 26.1496C75.2457 25.1112 75.7327 24.1486 76.5085 23.4498C77.2843 22.7511 78.2931 22.3665 79.3376 22.3711C80.3821 22.3758 81.3874 22.7695 82.1569 23.4751C82.9263 24.1808 83.4047 25.1478 83.4985 26.1871C83.5038 26.7405 83.3973 27.2894 83.1854 27.8008C82.9735 28.3122 82.6606 28.7757 82.2654 29.1635C81.8701 29.5514 81.4006 29.8557 80.885 30.0582C80.3694 30.2607 79.8182 30.3573 79.2644 30.3421C78.1644 30.3225 77.1161 29.8721 76.3451 29.088C75.5742 28.3039 75.1424 27.2487 75.1426 26.1496Z" fill="url(#paint5_linear_4530_14)"/>
<path d="M74.9931 34.7228C74.9782 35.5444 74.7197 36.3431 74.2504 37.018C73.7811 37.6929 73.122 38.2135 72.3564 38.5142C71.5909 38.8149 70.7533 38.8821 69.9496 38.7072C69.1459 38.5324 68.4121 38.1234 67.841 37.5319C67.27 36.9405 66.8872 36.1932 66.7413 35.3845C66.5953 34.5758 66.6927 33.742 67.0211 32.9886C67.3494 32.2352 67.8941 31.5959 68.5861 31.1517C69.2781 30.7075 70.0864 30.4782 70.9088 30.4928C71.455 30.5026 71.994 30.6198 72.4949 30.8376C72.9958 31.0555 73.4488 31.3698 73.8281 31.7626C74.2074 32.1554 74.5055 32.619 74.7054 33.1269C74.9053 33.6348 75.0031 34.1771 74.9931 34.7228Z" fill="url(#paint6_linear_4530_14)"/>
<defs>
<linearGradient id="paint0_linear_4530_14" x1="50.0058" y1="1" x2="50.0058" y2="63.9865" gradientUnits="userSpaceOnUse">
<stop stop-color="white" stop-opacity="0.66"/>
<stop offset="1" stop-color="#969696" stop-opacity="0"/>
</linearGradient>
<linearGradient id="paint1_linear_4530_14" x1="50.0058" y1="1" x2="50.0058" y2="63.9865" gradientUnits="userSpaceOnUse">
<stop stop-color="white" stop-opacity="0.66"/>
<stop offset="1" stop-color="#969696" stop-opacity="0"/>
</linearGradient>
<linearGradient id="paint2_linear_4530_14" x1="50.0058" y1="1" x2="50.0058" y2="63.9865" gradientUnits="userSpaceOnUse">
<stop stop-color="white" stop-opacity="0.66"/>
<stop offset="1" stop-color="#969696" stop-opacity="0"/>
</linearGradient>
<linearGradient id="paint3_linear_4530_14" x1="50.0058" y1="1" x2="50.0058" y2="63.9865" gradientUnits="userSpaceOnUse">
<stop stop-color="white" stop-opacity="0.66"/>
<stop offset="1" stop-color="#969696" stop-opacity="0"/>
</linearGradient>
<linearGradient id="paint4_linear_4530_14" x1="50.0058" y1="1" x2="50.0058" y2="63.9865" gradientUnits="userSpaceOnUse">
<stop stop-color="white" stop-opacity="0.66"/>
<stop offset="1" stop-color="#969696" stop-opacity="0"/>
</linearGradient>
<linearGradient id="paint5_linear_4530_14" x1="50.0058" y1="1" x2="50.0058" y2="63.9865" gradientUnits="userSpaceOnUse">
<stop stop-color="white" stop-opacity="0.66"/>
<stop offset="1" stop-color="#969696" stop-opacity="0"/>
</linearGradient>
<linearGradient id="paint6_linear_4530_14" x1="50.0058" y1="1" x2="50.0058" y2="63.9865" gradientUnits="userSpaceOnUse">
<stop stop-color="white" stop-opacity="0.66"/>
<stop offset="1" stop-color="#969696" stop-opacity="0"/>
</linearGradient>
</defs>
</svg>
