<svg width="92" height="92" viewBox="0 0 92 92" fill="none" xmlns="http://www.w3.org/2000/svg">
<path d="M3.08009 90.9769C1.91707 90.4544 0.777789 89.8132 0.374294 88.5071C-0.124765 86.9228 -0.124765 85.2233 0.374294 83.6389C0.500432 83.2223 0.713864 82.8374 1.00035 82.5099C1.28684 82.1823 1.6398 81.9195 2.03574 81.7391C2.58165 81.4542 2.67659 81.098 2.67659 80.5518C2.65286 77.2509 2.65286 73.9737 2.67659 70.6966C2.66074 70.3956 2.66869 70.0939 2.70034 69.7942C2.71869 69.4814 2.85752 69.1878 3.08768 68.9752C3.31784 68.7627 3.62139 68.6476 3.93454 68.6543C4.25096 68.6272 4.56567 68.7231 4.81322 68.9221C5.06077 69.1211 5.22213 69.408 5.26371 69.723C5.32372 70.0438 5.34761 70.3704 5.33492 70.6966C5.33492 73.95 5.33492 77.2034 5.31119 80.4568C5.31119 81.0267 5.45359 81.2404 6.04697 81.1929C6.67109 81.1455 7.29792 81.1455 7.92204 81.1929C8.53915 81.2404 8.70529 81.0505 8.70529 80.433C8.68155 77.1559 8.68155 73.9025 8.68155 70.6491C8.70528 68.4881 8.63409 66.3271 8.75276 64.1661C8.89517 61.3401 10.3905 59.3216 12.9776 58.253C15.5647 57.1843 17.9382 57.6355 20.0269 59.4166C21.7121 60.8414 22.4004 62.7412 22.4004 64.926C22.4004 70.0554 22.4241 75.1611 22.3766 80.2906C22.3766 81.0505 22.5665 81.2405 23.3023 81.2167C24.7264 81.1455 26.1505 81.1455 27.5746 81.1929C28.1917 81.2167 28.3579 81.0267 28.3341 80.4093C28.3104 75.2086 28.3104 69.9842 28.3341 64.7835C28.3341 61.2689 30.5415 58.5617 33.8881 57.8493C37.8756 57.0181 41.9106 60.0578 41.9818 64.1186C42.1004 69.4855 42.053 74.8524 42.0055 80.2193C42.0055 81.0505 42.2666 81.2404 43.0261 81.1929C44.4502 81.1455 45.8743 81.1455 47.2984 81.1929C47.9155 81.2167 48.0105 81.003 48.0105 80.4568C48.0105 75.1611 47.9867 69.8417 48.0105 64.546C48.0105 62.7322 48.7306 60.9926 50.0126 59.7099C51.2945 58.4273 53.0332 57.7068 54.8461 57.7068C56.6591 57.7068 58.3978 58.4273 59.6797 59.7099C60.9616 60.9926 61.6818 62.7322 61.6818 64.546C61.7293 69.7942 61.7293 75.0186 61.6818 80.2668C61.6581 81.098 61.9192 81.2404 62.6549 81.1929C64.0078 81.1455 65.3845 81.1455 66.7374 81.1929C67.4731 81.2404 67.6868 81.0505 67.663 80.2906C67.6393 75.1611 67.6393 70.0554 67.663 64.926C67.663 61.6488 69.372 59.1316 72.2202 58.1105C76.7298 56.4957 81.3107 59.8203 81.3581 64.7835C81.4056 69.7467 81.3819 75.0899 81.3344 80.2431C81.3344 81.0267 81.5243 81.2642 82.3075 81.1929C83.0908 81.1217 84.2538 81.1692 85.2507 81.1929C85.6304 81.1929 85.7966 81.0742 85.7491 80.6943C85.7373 80.5441 85.7373 80.3932 85.7491 80.2431C85.7491 71.3853 85.7254 62.5275 85.7728 53.6935C85.7728 52.8861 85.583 52.7198 84.7997 52.7198C58.6121 52.7515 32.4166 52.7515 6.21311 52.7198C5.47733 52.7198 5.31119 52.9098 5.31119 53.646C5.35866 56.8756 5.33492 60.1053 5.33492 63.3349C5.34365 63.687 5.30371 64.0386 5.21624 64.3798C5.14324 64.6588 4.96927 64.9008 4.72807 65.0588C4.48686 65.2167 4.19561 65.2794 3.91082 65.2347C3.62981 65.2393 3.35629 65.1439 3.13896 64.9656C2.92164 64.7873 2.77462 64.5377 2.72407 64.2611C2.67333 63.9392 2.65741 63.6127 2.67659 63.2874C2.66077 59.947 2.66077 56.5986 2.67659 53.2423C2.67659 52.7436 2.55792 52.4586 2.08322 52.1974C0.730322 51.4612 0.0657417 50.2501 0.0657417 48.7065V43.5533C0.0894767 41.2023 1.7272 39.5163 4.07696 39.4688C5.61974 39.4213 5.61974 39.4213 5.69094 37.9252C5.78588 35.6455 7.39987 34.1019 9.70216 34.0781C13.2624 34.0544 16.7989 34.0544 20.3592 34.1019C20.9763 34.1019 21.2136 33.9119 21.3798 33.3182C22.4307 29.8583 24.2296 26.672 26.649 23.9855C27.1237 23.4155 27.6933 23.2256 28.3816 23.5818C29.0699 23.938 29.1411 24.4367 29.0225 25.0779C28.9246 25.3643 28.7622 25.6243 28.5478 25.8378C25.508 29.2635 23.594 33.5412 23.065 38.0914C23.0175 38.4002 23.0175 38.6851 22.97 38.9938C22.9226 39.3026 23.0887 39.5163 23.4685 39.4688C23.6106 39.4569 23.7535 39.4569 23.8957 39.4688C38.3266 39.4688 52.7337 39.445 67.1409 39.4925C67.9953 39.4925 68.1615 39.2551 68.0903 38.4714C67.0222 27.7613 58.2402 19.141 47.4645 18.2624C42.5426 17.819 37.612 19.0127 33.4372 21.6582L33.2948 21.7532C32.4166 22.2994 31.6333 22.1807 31.1823 21.492C30.7314 20.8033 30.9924 20.0909 31.8232 19.5447C33.8191 18.2247 36.0039 17.2158 38.3028 16.5526C39.9657 16.0241 41.6879 15.705 43.4296 15.6027C44.0467 15.6027 44.2129 15.3652 44.2129 14.7715C44.1891 10.497 44.2129 6.22244 44.2129 1.97166C44.2129 0.333088 44.5689 0.000620392 46.1828 0.000620392H60.8274C61.5157 0.000620392 62.2277 -0.0468758 62.6312 0.689293C63.0347 1.42546 62.655 2.01915 62.2752 2.63658C61.8954 3.25401 61.2308 4.41764 60.6612 5.29629C60.3526 5.77124 60.3052 6.12745 60.6375 6.62614C61.2783 7.55229 61.8005 8.54968 62.3939 9.49958C62.7499 10.0458 62.9872 10.592 62.6549 11.2331C62.3227 11.8743 61.7055 11.9456 61.041 11.9218C56.6025 11.9218 52.1641 11.9456 47.7256 11.9218C47.0373 11.8981 46.8 12.0643 46.8712 12.7767C46.9424 13.4891 46.6101 14.7715 47.0136 15.3652C47.4171 15.9589 48.675 15.6502 49.5295 15.8164C59.5773 17.7637 66.2864 23.5659 69.6568 33.2232C69.8941 33.8881 70.1077 34.1256 70.8435 34.1256C74.2614 34.0781 77.6555 34.1019 81.0733 34.1019C83.8028 34.1019 85.4168 35.6455 85.3693 38.3527C85.3456 39.2788 85.583 39.54 86.5086 39.5163C88.9296 39.445 89.9977 40.2524 90.9945 42.6747V49.7752C90.4724 50.915 89.8315 51.9362 88.5973 52.4586C88.3362 52.5773 88.4074 52.8623 88.4074 53.076V80.8605C88.4074 81.1217 88.3599 81.4067 88.6685 81.5492C89.9027 82.0479 90.5198 83.0928 90.9945 84.2564V87.9847C90.4249 89.4808 89.3806 90.5494 87.814 91.0006L3.08009 90.9769ZM45.637 42.1285H4.52792C3.12755 42.1285 2.7478 42.5322 2.72407 43.9333V48.0178C2.72407 49.7752 3.03262 50.0839 4.78901 50.0839H86.8172C87.8853 50.0364 88.3362 49.6089 88.3362 48.564V44.1233C88.3362 42.461 88.0039 42.1285 86.39 42.1285H45.637ZM45.542 83.8527H4.43299C3.12756 83.8527 2.7478 84.2564 2.72407 85.5387V86.3461C2.72407 87.9847 3.05635 88.3172 4.69407 88.3172H85.7491C88.265 88.3172 88.3362 88.2459 88.3362 85.7287C88.3362 84.1851 88.0039 83.8527 86.4612 83.8527H45.542ZM50.6688 72.4064C50.6688 75.0661 50.6925 77.7258 50.645 80.3855C50.645 81.0742 50.8587 81.2167 51.4995 81.1929H58.3114C58.9048 81.2167 59.0472 81.0505 59.0472 80.4805C59.0235 75.2324 59.0472 70.0079 59.0235 64.7598C59.0235 62.2663 57.2434 60.414 54.8936 60.3902C52.5438 60.3665 50.6925 62.2188 50.6688 64.7835V72.4064ZM11.3873 72.4539H11.3636C11.3636 75.1136 11.3636 77.7733 11.3399 80.433C11.3399 80.9792 11.4348 81.2167 12.0519 81.1929H19.0775C19.6471 81.2167 19.7421 81.003 19.7421 80.4805V64.7598C19.7579 63.8362 19.484 62.931 18.9588 62.1713C18.4721 61.4795 17.7881 60.9507 16.9962 60.6542C16.2043 60.3576 15.3415 60.307 14.5204 60.509C12.7402 61.0077 11.4585 62.4325 11.3873 64.2848C11.3161 66.992 11.3873 69.723 11.3873 72.4539ZM70.3451 72.4064H70.3214C70.3214 75.0899 70.3213 77.7971 70.2976 80.4805C70.2976 81.003 70.3926 81.2167 70.9859 81.1929H77.9878C78.6049 81.2167 78.7235 80.9792 78.7235 80.433C78.6998 75.2324 78.6998 70.0079 78.6998 64.8073C78.7153 64.156 78.594 63.5088 78.3438 62.9075C77.9586 62.0486 77.3008 61.3409 76.4725 60.8943C75.6442 60.4478 74.6917 60.2873 73.7629 60.4377C71.9353 60.7465 70.4163 62.3138 70.3688 64.2373C70.2739 66.9445 70.3451 69.6755 70.3451 72.4064ZM39.3709 72.3827C39.3709 69.818 39.3709 67.277 39.3472 64.736C39.3235 62.195 37.5671 60.3902 35.1936 60.3902C32.8201 60.3902 31.0162 62.2663 30.9924 64.736C30.9924 69.9842 31.0162 75.2324 30.9924 80.4805C30.9687 81.0742 31.1586 81.2167 31.7282 81.1929H38.6589C39.2522 81.2167 39.3709 81.0267 39.3709 80.4568C39.3472 77.7733 39.3709 75.0661 39.3709 72.3827ZM59.1422 2.66033C55.1547 2.66033 51.3333 2.68408 47.512 2.63658C46.9186 2.63658 46.8474 2.87406 46.8712 3.349C46.8949 5.03507 46.8949 6.74488 46.8474 8.43094C46.8474 9.07212 46.9898 9.2621 47.6782 9.2621C50.645 9.21461 53.6356 9.23835 56.6263 9.23835H59.1184C58.62 8.38345 58.2165 7.64728 57.7418 6.93486C57.5281 6.65081 57.4125 6.3049 57.4125 5.94935C57.4125 5.59379 57.5281 5.24788 57.7418 4.96382C58.2165 4.2514 58.62 3.51524 59.1422 2.66033ZM14.2593 39.4688H18.2468C20.2405 39.4688 20.2168 39.4688 20.4778 37.5215C20.5728 36.8803 20.4304 36.7141 19.7658 36.7378H10.3905C8.58661 36.7378 8.32552 37.0228 8.32552 38.8039C8.32552 39.35 8.46794 39.4925 9.01384 39.4688C10.7702 39.445 12.5029 39.4688 14.2593 39.4688ZM76.7298 39.4688H82.0464C82.2838 39.4688 82.5923 39.635 82.711 39.2551C83.2095 37.9015 82.4499 36.7616 81.0496 36.7616H72.7186C72.0065 36.7616 71.1046 36.4529 70.6774 36.8803C70.2502 37.3078 70.8198 38.1627 70.7486 38.8276C70.6774 39.4925 70.9147 39.4688 71.4132 39.4688C73.1933 39.445 74.9734 39.4688 76.7298 39.4688Z" fill="#0F4FE3"/>
<path d="M4.08009 91.9769C2.91707 91.4544 1.77779 90.8132 1.37429 89.5071C0.875235 87.9228 0.875235 86.2233 1.37429 84.6389C1.50043 84.2223 1.71386 83.8374 2.00035 83.5099C2.28684 83.1823 2.6398 82.9195 3.03574 82.7391C3.58165 82.4542 3.67659 82.098 3.67659 81.5518C3.65286 78.2509 3.65286 74.9737 3.67659 71.6966C3.66074 71.3956 3.66869 71.0939 3.70034 70.7942C3.71869 70.4814 3.85752 70.1878 4.08768 69.9752C4.31784 69.7627 4.62139 69.6476 4.93454 69.6543C5.25096 69.6272 5.56567 69.7231 5.81322 69.9221C6.06077 70.1211 6.22213 70.408 6.26371 70.723C6.32372 71.0438 6.34761 71.3704 6.33492 71.6966C6.33492 74.95 6.33492 78.2034 6.31119 81.4568C6.31119 82.0267 6.45359 82.2404 7.04697 82.1929C7.67109 82.1455 8.29792 82.1455 8.92204 82.1929C9.53915 82.2404 9.70529 82.0505 9.70529 81.433C9.68155 78.1559 9.68155 74.9025 9.68155 71.6491C9.70528 69.4881 9.63409 67.3271 9.75276 65.1661C9.89517 62.3401 11.3905 60.3216 13.9776 59.253C16.5647 58.1843 18.9382 58.6355 21.0269 60.4166C22.7121 61.8414 23.4004 63.7412 23.4004 65.926C23.4004 71.0554 23.4241 76.1611 23.3766 81.2906C23.3766 82.0505 23.5665 82.2405 24.3023 82.2167C25.7264 82.1455 27.1505 82.1455 28.5746 82.1929C29.1917 82.2167 29.3579 82.0267 29.3341 81.4093C29.3104 76.2086 29.3104 70.9842 29.3341 65.7835C29.3341 62.2689 31.5415 59.5617 34.8881 58.8493C38.8756 58.0181 42.9106 61.0578 42.9818 65.1186C43.1004 70.4855 43.053 75.8524 43.0055 81.2193C43.0055 82.0505 43.2666 82.2404 44.0261 82.1929C45.4502 82.1455 46.8743 82.1455 48.2984 82.1929C48.9155 82.2167 49.0105 82.003 49.0105 81.4568C49.0105 76.1611 48.9867 70.8417 49.0105 65.546C49.0105 63.7322 49.7306 61.9926 51.0126 60.7099C52.2945 59.4273 54.0332 58.7068 55.8461 58.7068C57.6591 58.7068 59.3978 59.4273 60.6797 60.7099C61.9616 61.9926 62.6818 63.7322 62.6818 65.546C62.7293 70.7942 62.7293 76.0186 62.6818 81.2668C62.6581 82.098 62.9192 82.2404 63.6549 82.1929C65.0078 82.1455 66.3845 82.1455 67.7374 82.1929C68.4731 82.2404 68.6868 82.0505 68.663 81.2906C68.6393 76.1611 68.6393 71.0554 68.663 65.926C68.663 62.6488 70.372 60.1316 73.2202 59.1105C77.7298 57.4957 82.3107 60.8203 82.3581 65.7835C82.4056 70.7467 82.3819 76.0899 82.3344 81.2431C82.3344 82.0267 82.5243 82.2642 83.3075 82.1929C84.0908 82.1217 85.2538 82.1692 86.2507 82.1929C86.6304 82.1929 86.7966 82.0742 86.7491 81.6943C86.7373 81.5441 86.7373 81.3932 86.7491 81.2431C86.7491 72.3853 86.7254 63.5275 86.7728 54.6935C86.7728 53.8861 86.583 53.7198 85.7997 53.7198C59.6121 53.7515 33.4166 53.7515 7.21311 53.7198C6.47733 53.7198 6.31119 53.9098 6.31119 54.646C6.35866 57.8756 6.33492 61.1053 6.33492 64.3349C6.34365 64.687 6.30371 65.0386 6.21624 65.3798C6.14324 65.6588 5.96927 65.9008 5.72807 66.0588C5.48686 66.2167 5.19561 66.2794 4.91082 66.2347C4.62981 66.2393 4.35629 66.1439 4.13896 65.9656C3.92164 65.7873 3.77462 65.5377 3.72407 65.2611C3.67333 64.9392 3.65741 64.6127 3.67659 64.2874C3.66077 60.947 3.66077 57.5986 3.67659 54.2423C3.67659 53.7436 3.55792 53.4586 3.08322 53.1974C1.73032 52.4612 1.06574 51.2501 1.06574 49.7065V44.5533C1.08948 42.2023 2.7272 40.5163 5.07696 40.4688C6.61974 40.4213 6.61974 40.4213 6.69094 38.9252C6.78588 36.6455 8.39987 35.1019 10.7022 35.0781C14.2624 35.0544 17.7989 35.0544 21.3592 35.1019C21.9763 35.1019 22.2136 34.9119 22.3798 34.3182C23.4307 30.8583 25.2296 27.672 27.649 24.9855C28.1237 24.4155 28.6933 24.2256 29.3816 24.5818C30.0699 24.938 30.1411 25.4367 30.0225 26.0779C29.9246 26.3643 29.7622 26.6243 29.5478 26.8378C26.508 30.2635 24.594 34.5412 24.065 39.0914C24.0175 39.4002 24.0175 39.6851 23.97 39.9938C23.9226 40.3026 24.0887 40.5163 24.4685 40.4688C24.6106 40.4569 24.7535 40.4569 24.8957 40.4688C39.3266 40.4688 53.7337 40.445 68.1409 40.4925C68.9953 40.4925 69.1615 40.2551 69.0903 39.4714C68.0222 28.7613 59.2402 20.141 48.4645 19.2624C43.5426 18.819 38.612 20.0127 34.4372 22.6582L34.2948 22.7532C33.4166 23.2994 32.6333 23.1807 32.1823 22.492C31.7314 21.8033 31.9924 21.0909 32.8232 20.5447C34.8191 19.2247 37.0039 18.2158 39.3028 17.5526C40.9657 17.0241 42.6879 16.705 44.4296 16.6027C45.0467 16.6027 45.2129 16.3652 45.2129 15.7715C45.1891 11.497 45.2129 7.22244 45.2129 2.97166C45.2129 1.33309 45.5689 1.00062 47.1828 1.00062H61.8274C62.5157 1.00062 63.2277 0.953124 63.6312 1.68929C64.0347 2.42546 63.655 3.01915 63.2752 3.63658C62.8954 4.25401 62.2308 5.41764 61.6612 6.29629C61.3526 6.77124 61.3052 7.12745 61.6375 7.62614C62.2783 8.55229 62.8005 9.54968 63.3939 10.4996C63.7499 11.0458 63.9872 11.592 63.6549 12.2331C63.3227 12.8743 62.7055 12.9456 62.041 12.9218C57.6025 12.9218 53.1641 12.9456 48.7256 12.9218C48.0373 12.8981 47.8 13.0643 47.8712 13.7767C47.9424 14.4891 47.6101 15.7715 48.0136 16.3652C48.4171 16.9589 49.675 16.6502 50.5295 16.8164C60.5773 18.7637 67.2864 24.5659 70.6568 34.2232C70.8941 34.8881 71.1077 35.1256 71.8435 35.1256C75.2614 35.0781 78.6555 35.1019 82.0733 35.1019C84.8028 35.1019 86.4168 36.6455 86.3693 39.3527C86.3456 40.2788 86.583 40.54 87.5086 40.5163C89.9296 40.445 90.9977 41.2524 91.9945 43.6747V50.7752C91.4724 51.915 90.8315 52.9362 89.5973 53.4586C89.3362 53.5773 89.4074 53.8623 89.4074 54.076V81.8605C89.4074 82.1217 89.3599 82.4067 89.6685 82.5492C90.9027 83.0479 91.5198 84.0928 91.9945 85.2564V88.9847C91.4249 90.4808 90.3806 91.5494 88.814 92.0006L4.08009 91.9769ZM46.637 43.1285H5.52792C4.12755 43.1285 3.7478 43.5322 3.72407 44.9333V49.0178C3.72407 50.7752 4.03262 51.0839 5.78901 51.0839H87.8172C88.8853 51.0364 89.3362 50.6089 89.3362 49.564V45.1233C89.3362 43.461 89.0039 43.1285 87.39 43.1285H46.637ZM46.542 84.8527H5.43299C4.12756 84.8527 3.7478 85.2564 3.72407 86.5387V87.3461C3.72407 88.9847 4.05635 89.3172 5.69407 89.3172H86.7491C89.265 89.3172 89.3362 89.2459 89.3362 86.7287C89.3362 85.1851 89.0039 84.8527 87.4612 84.8527H46.542ZM51.6688 73.4064C51.6688 76.0661 51.6925 78.7258 51.645 81.3855C51.645 82.0742 51.8587 82.2167 52.4995 82.1929H59.3114C59.9048 82.2167 60.0472 82.0505 60.0472 81.4805C60.0235 76.2324 60.0472 71.0079 60.0235 65.7598C60.0235 63.2663 58.2434 61.414 55.8936 61.3902C53.5438 61.3665 51.6925 63.2188 51.6688 65.7835V73.4064ZM12.3873 73.4539H12.3636C12.3636 76.1136 12.3636 78.7733 12.3399 81.433C12.3399 81.9792 12.4348 82.2167 13.0519 82.1929H20.0775C20.6471 82.2167 20.7421 82.003 20.7421 81.4805V65.7598C20.7579 64.8362 20.484 63.931 19.9588 63.1713C19.4721 62.4795 18.7881 61.9507 17.9962 61.6542C17.2043 61.3576 16.3415 61.307 15.5204 61.509C13.7402 62.0077 12.4585 63.4325 12.3873 65.2848C12.3161 67.992 12.3873 70.723 12.3873 73.4539ZM71.3451 73.4064H71.3214C71.3214 76.0899 71.3213 78.7971 71.2976 81.4805C71.2976 82.003 71.3926 82.2167 71.9859 82.1929H78.9878C79.6049 82.2167 79.7235 81.9792 79.7235 81.433C79.6998 76.2324 79.6998 71.0079 79.6998 65.8073C79.7153 65.156 79.594 64.5088 79.3438 63.9075C78.9586 63.0486 78.3008 62.3409 77.4725 61.8943C76.6442 61.4478 75.6917 61.2873 74.7629 61.4377C72.9353 61.7465 71.4163 63.3138 71.3688 65.2373C71.2739 67.9445 71.3451 70.6755 71.3451 73.4064ZM40.3709 73.3827C40.3709 70.818 40.3709 68.277 40.3472 65.736C40.3235 63.195 38.5671 61.3902 36.1936 61.3902C33.8201 61.3902 32.0162 63.2663 31.9924 65.736C31.9924 70.9842 32.0162 76.2324 31.9924 81.4805C31.9687 82.0742 32.1586 82.2167 32.7282 82.1929H39.6589C40.2522 82.2167 40.3709 82.0267 40.3709 81.4568C40.3472 78.7733 40.3709 76.0661 40.3709 73.3827ZM60.1422 3.66033C56.1547 3.66033 52.3333 3.68408 48.512 3.63658C47.9186 3.63658 47.8474 3.87406 47.8712 4.349C47.8949 6.03507 47.8949 7.74488 47.8474 9.43094C47.8474 10.0721 47.9898 10.2621 48.6782 10.2621C51.645 10.2146 54.6356 10.2384 57.6263 10.2384H60.1184C59.62 9.38345 59.2165 8.64728 58.7418 7.93486C58.5281 7.65081 58.4125 7.3049 58.4125 6.94935C58.4125 6.59379 58.5281 6.24788 58.7418 5.96382C59.2165 5.2514 59.62 4.51524 60.1422 3.66033ZM15.2593 40.4688H19.2468C21.2405 40.4688 21.2168 40.4688 21.4778 38.5215C21.5728 37.8803 21.4304 37.7141 20.7658 37.7378H11.3905C9.58661 37.7378 9.32552 38.0228 9.32552 39.8039C9.32552 40.35 9.46794 40.4925 10.0138 40.4688C11.7702 40.445 13.5029 40.4688 15.2593 40.4688ZM77.7298 40.4688H83.0464C83.2838 40.4688 83.5923 40.635 83.711 40.2551C84.2095 38.9015 83.4499 37.7616 82.0496 37.7616H73.7186C73.0065 37.7616 72.1046 37.4529 71.6774 37.8803C71.2502 38.3078 71.8198 39.1627 71.7486 39.8276C71.6774 40.4925 71.9147 40.4688 72.4132 40.4688C74.1933 40.445 75.9734 40.4688 77.7298 40.4688Z" fill="url(#paint0_linear_4300_2651)"/>
<defs>
<linearGradient id="paint0_linear_4300_2651" x1="46.4973" y1="1" x2="46.4973" y2="92.0006" gradientUnits="userSpaceOnUse">
<stop stop-color="white" stop-opacity="0.66"/>
<stop offset="1" stop-color="#969696" stop-opacity="0"/>
</linearGradient>
</defs>
</svg>
