<svg width="91" height="91" viewBox="0 0 91 91" fill="none" xmlns="http://www.w3.org/2000/svg">
<path d="M44.4129 17.3363C56.4553 17.3363 66.0282 25.7889 67.5303 37.1949C67.6319 38.0738 67.6829 38.9579 67.6831 39.8427C67.6831 41.1921 66.8683 42.1086 65.6717 42.1595C64.4751 42.2104 63.4822 41.3194 63.4568 39.9445C63.3295 35.6673 62.0819 31.7465 59.3068 28.4622C54.4186 22.7083 48.2319 20.5697 40.8231 22.0973C39.0918 22.4537 38.048 22.1228 37.5897 20.9771C37.4748 20.696 37.4219 20.3935 37.4344 20.0901C37.447 19.7868 37.5248 19.4897 37.6625 19.2191C37.8002 18.9485 37.9946 18.7107 38.2325 18.522C38.4703 18.3333 38.7461 18.1981 39.0409 18.1256C40.7809 17.5904 42.5925 17.3243 44.4129 17.3363Z" fill="#0F4FE3"/>
<path d="M57.4231 45.6759C57.6286 50.5143 56.8551 55.3445 55.149 59.8768C53.4428 64.4091 50.839 68.5503 47.4938 72.0521C46.4245 73.1978 45.1261 73.3251 44.1586 72.434C43.1912 71.5429 43.2675 70.2954 44.3368 69.1497C48.4845 64.8267 51.3187 59.4143 52.5094 53.5429C53.0695 50.7933 53.1968 48.0182 53.1714 45.2176C53.1374 43.5712 53.1374 41.9163 53.1714 40.253C53.1714 38.8018 54.0115 37.8852 55.31 37.9107C56.6084 37.9361 57.3977 38.8272 57.3977 40.2275C57.3977 41.6278 57.4231 43.3845 57.4231 45.6759Z" fill="#0F4FE3"/>
<path d="M10.8062 0.00186387H19.2843C19.7973 -0.0202248 20.2992 0.154688 20.6874 0.490771C21.0756 0.826854 21.3205 1.29865 21.372 1.8095C21.4993 2.85334 20.9392 3.84627 19.9717 4.12633C19.536 4.21265 19.0916 4.24683 18.6478 4.22817C14.1669 4.25363 9.71146 4.25363 5.23055 4.22817C4.41584 4.20271 4.23762 4.43185 4.23762 5.2211C4.28854 9.8293 4.2631 14.4375 4.2631 19.0202C4.2631 20.3187 3.55023 21.2098 2.48092 21.3625C1.41162 21.5153 0.0367751 20.5987 0.0113154 19.1475C-0.0141443 16.3979 0.0113154 13.6737 0.0113154 10.9495V2.49691C0.0113154 0.765651 0.775118 0.0273236 2.50638 0.00186387H10.8062Z" fill="#0F4FE3"/>
<path d="M89.9857 10.7968V19.2749C89.9983 19.7734 89.8298 20.2595 89.5115 20.6434C89.1932 21.0272 88.7466 21.2827 88.2544 21.3626C87.7706 21.4514 87.271 21.3708 86.8397 21.1343C86.4084 20.8978 86.0718 20.5198 85.8867 20.0641C85.7472 19.6376 85.6953 19.1873 85.7339 18.7402C85.7339 14.2338 85.7085 9.72749 85.7594 5.22113C85.7594 4.40642 85.5048 4.25365 84.741 4.25365C80.1837 4.27911 75.6009 4.27911 71.0437 4.25365C69.6943 4.25365 68.8287 3.61716 68.625 2.57331C68.4213 1.52947 69.3124 0.0273438 70.84 0.0273438H87.4906C89.2473 0.0528034 89.9857 0.791141 89.9857 2.54786V10.8223V10.7968Z" fill="#0F4FE3"/>
<path d="M0.0113154 79.2832C0.0113154 76.4317 -0.0141443 73.5802 0.0113154 70.7287C0.000440611 70.2159 0.178723 69.7171 0.512118 69.3274C0.845513 68.9376 1.31068 68.6843 1.81895 68.6156C2.86279 68.4883 3.85575 69.0484 4.1358 70.0158C4.2422 70.414 4.28516 70.8264 4.2631 71.2379C4.2631 75.7443 4.28854 80.2506 4.23762 84.7825C4.23762 85.5717 4.46675 85.7499 5.25601 85.7499C9.66053 85.699 14.0651 85.7245 18.4696 85.7245H19.4371C19.9796 85.7509 20.4898 85.9903 20.8569 86.3908C21.224 86.7912 21.4182 87.3203 21.3975 87.8631C21.372 88.9833 20.5828 89.8999 19.4371 89.9253C17.884 90.0017 16.331 89.9762 14.7779 89.9762H2.50638C0.749659 89.9762 0.0113154 89.2379 0.0113154 87.4812V79.2832Z" fill="#0F4FE3"/>
<path d="M89.9858 79.4085C89.9858 82.1581 90.0113 84.9332 89.9858 87.6829C89.9604 89.185 89.1711 89.9742 87.669 89.9742C82.0933 89.9997 76.4922 89.9997 70.9165 89.9742C69.7454 89.9742 68.9052 89.3887 68.6506 88.4467C68.5351 87.9994 68.564 87.527 68.7332 87.0972C68.9024 86.6673 69.2032 86.302 69.5926 86.0535C70.1018 85.7225 70.6619 85.7225 71.2475 85.7225C75.7539 85.7225 80.2602 85.697 84.7666 85.7479C85.5559 85.7479 85.7595 85.5442 85.7595 84.755C85.7086 80.1468 85.7341 75.5386 85.7341 70.9304C85.7341 69.6065 86.4724 68.7154 87.6181 68.6136C88.7638 68.5117 89.9604 69.3774 89.9858 70.8286C90.0113 73.68 89.9858 76.5315 89.9858 79.4085Z" fill="#0F4FE3"/>
<path d="M47.1373 45.3189C47.2901 48.7305 46.9082 52.7022 45.4061 56.5212C44.2293 59.5832 42.4649 62.3854 40.2123 64.7701C38.7866 66.2468 37.3354 67.698 35.8587 69.1492C34.8403 70.1676 33.5419 70.2185 32.6508 69.302C31.7597 68.3854 31.8361 67.1379 32.8544 66.1195C33.8728 65.1011 35.6295 63.3953 36.9535 61.995C40.7979 57.9215 42.7328 53.0332 42.8601 47.4575C42.911 45.0643 42.8601 42.6966 42.8601 40.3034C42.8856 38.8267 43.7003 37.9102 44.9733 37.9102C46.2462 37.9102 47.1119 38.8012 47.1119 40.2779C47.1119 41.7546 47.1373 43.2058 47.1373 45.3189Z" fill="#0F4FE3"/>
<path d="M22.2884 44.2477C22.3139 40.8616 22.1102 37.4754 23.0522 34.1402C24.2233 30.0667 26.2601 26.5278 29.3408 23.5999C30.4355 22.5306 31.683 22.4797 32.5996 23.4471C33.5161 24.4146 33.3888 25.6112 32.345 26.6296C28.3733 30.4995 26.5147 35.2095 26.5402 40.7088C26.5656 43.8913 26.5656 47.0483 26.5402 50.2307C26.5677 50.6942 26.4399 51.1536 26.1771 51.5363C25.9143 51.919 25.5314 52.2032 25.089 52.3439C24.6639 52.4794 24.2072 52.4787 23.7826 52.3417C23.358 52.2048 22.9869 51.9385 22.7212 51.5801C22.4035 51.1368 22.2504 50.5966 22.2884 50.0525V44.2477Z" fill="#0F4FE3"/>
<path d="M32.574 40.9642C32.3261 37.7193 33.3691 34.5078 35.4764 32.0279C39.0917 27.6742 45.4821 26.3249 50.4976 28.8709C51.6942 29.4819 52.2034 30.5767 51.7706 31.6714C51.3378 32.7662 50.0139 33.3772 48.69 32.7662C46.9228 31.8577 44.8806 31.6398 42.9616 32.1552C39.3463 33.1226 36.9276 36.2032 36.8512 40.0222C36.8258 41.2443 36.8512 42.4409 36.8258 43.6375C36.8003 44.8341 35.9092 45.9543 34.6872 45.9288C33.4651 45.9034 32.5995 44.9868 32.574 43.612V40.9642Z" fill="#0F4FE3"/>
<path d="M67.683 51.5032C67.3266 57.4863 64.9079 62.8073 60.2997 67.0846C59.2049 68.103 57.881 68.1284 57.0154 67.1609C56.1497 66.1935 56.2771 64.9969 57.3718 63.9785C61.2672 60.3377 63.253 55.8314 63.4312 50.4849C63.4821 49.0336 64.3478 48.1426 65.6462 48.1935C66.9447 48.2444 67.683 49.1609 67.683 50.5612V51.5032Z" fill="#0F4FE3"/>
<path d="M24.9364 60.1094C24.911 59.702 25.2419 59.1674 25.7002 58.7091L28.9845 55.4248C29.6642 54.7553 30.278 54.0221 30.8176 53.2353C31.6578 51.9623 32.9053 51.6568 33.9746 52.3951C35.0439 53.1335 35.2222 54.3555 34.3311 55.6285C33.8963 56.33 33.3931 56.9866 32.8289 57.5889C31.4541 59.0401 30.0538 60.4404 28.6281 61.8407C27.9407 62.5281 27.1005 62.7572 26.184 62.3244C25.2674 61.8916 24.9364 61.2806 24.9364 60.1094Z" fill="#0F4FE3"/>
<path d="M45.4129 18.3363C57.4553 18.3363 67.0282 26.7889 68.5303 38.1949C68.6319 39.0738 68.6829 39.9579 68.6831 40.8427C68.6831 42.1921 67.8683 43.1086 66.6717 43.1595C65.4751 43.2104 64.4822 42.3194 64.4568 40.9445C64.3295 36.6673 63.0819 32.7465 60.3068 29.4622C55.4186 23.7083 49.2319 21.5697 41.8231 23.0973C40.0918 23.4537 39.048 23.1228 38.5897 21.9771C38.4748 21.696 38.4219 21.3935 38.4344 21.0901C38.447 20.7868 38.5248 20.4897 38.6625 20.2191C38.8002 19.9485 38.9946 19.7107 39.2325 19.522C39.4703 19.3333 39.7461 19.1981 40.0409 19.1256C41.7809 18.5904 43.5925 18.3243 45.4129 18.3363Z" fill="url(#paint0_linear_4300_2647)"/>
<path d="M58.4231 46.6759C58.6286 51.5143 57.8551 56.3445 56.149 60.8768C54.4428 65.4091 51.839 69.5503 48.4938 73.0521C47.4245 74.1978 46.1261 74.3251 45.1586 73.434C44.1912 72.5429 44.2675 71.2954 45.3368 70.1497C49.4845 65.8267 52.3187 60.4143 53.5094 54.5429C54.0695 51.7933 54.1968 49.0182 54.1714 46.2176C54.1374 44.5712 54.1374 42.9163 54.1714 41.253C54.1714 39.8018 55.0115 38.8852 56.31 38.9107C57.6084 38.9361 58.3977 39.8272 58.3977 41.2275C58.3977 42.6278 58.4231 44.3845 58.4231 46.6759Z" fill="url(#paint1_linear_4300_2647)"/>
<path d="M11.8062 1.00186H20.2843C20.7973 0.979775 21.2992 1.15469 21.6874 1.49077C22.0756 1.82685 22.3205 2.29865 22.372 2.8095C22.4993 3.85334 21.9392 4.84627 20.9717 5.12633C20.536 5.21265 20.0916 5.24683 19.6478 5.22817C15.1669 5.25363 10.7115 5.25363 6.23055 5.22817C5.41584 5.20271 5.23762 5.43185 5.23762 6.2211C5.28854 10.8293 5.2631 15.4375 5.2631 20.0202C5.2631 21.3187 4.55023 22.2098 3.48092 22.3625C2.41162 22.5153 1.03678 21.5987 1.01132 20.1475C0.985856 17.3979 1.01132 14.6737 1.01132 11.9495V3.49691C1.01132 1.76565 1.77512 1.02732 3.50638 1.00186H11.8062Z" fill="url(#paint2_linear_4300_2647)"/>
<path d="M90.9857 11.7968V20.2749C90.9983 20.7734 90.8298 21.2595 90.5115 21.6434C90.1932 22.0272 89.7466 22.2827 89.2544 22.3626C88.7706 22.4514 88.271 22.3708 87.8397 22.1343C87.4084 21.8978 87.0718 21.5198 86.8867 21.0641C86.7472 20.6376 86.6953 20.1873 86.7339 19.7402C86.7339 15.2338 86.7085 10.7275 86.7594 6.22113C86.7594 5.40642 86.5048 5.25365 85.741 5.25365C81.1837 5.27911 76.6009 5.27911 72.0437 5.25365C70.6943 5.25365 69.8287 4.61716 69.625 3.57331C69.4213 2.52947 70.3124 1.02734 71.84 1.02734H88.4906C90.2473 1.0528 90.9857 1.79114 90.9857 3.54786V11.8223V11.7968Z" fill="url(#paint3_linear_4300_2647)"/>
<path d="M1.01132 80.2832C1.01132 77.4317 0.985856 74.5802 1.01132 71.7287C1.00044 71.2159 1.17872 70.7171 1.51212 70.3274C1.84551 69.9376 2.31068 69.6843 2.81895 69.6156C3.86279 69.4883 4.85575 70.0484 5.1358 71.0158C5.2422 71.414 5.28516 71.8264 5.2631 72.2379C5.2631 76.7443 5.28854 81.2506 5.23762 85.7825C5.23762 86.5717 5.46675 86.7499 6.25601 86.7499C10.6605 86.699 15.0651 86.7245 19.4696 86.7245H20.4371C20.9796 86.7509 21.4898 86.9903 21.8569 87.3908C22.224 87.7912 22.4182 88.3203 22.3975 88.8631C22.372 89.9833 21.5828 90.8999 20.4371 90.9253C18.884 91.0017 17.331 90.9762 15.7779 90.9762H3.50638C1.74966 90.9762 1.01132 90.2379 1.01132 88.4812V80.2832Z" fill="url(#paint4_linear_4300_2647)"/>
<path d="M90.9858 80.4085C90.9858 83.1581 91.0113 85.9332 90.9858 88.6829C90.9604 90.185 90.1711 90.9742 88.669 90.9742C83.0933 90.9997 77.4922 90.9997 71.9165 90.9742C70.7454 90.9742 69.9052 90.3887 69.6506 89.4467C69.5351 88.9994 69.564 88.527 69.7332 88.0972C69.9024 87.6673 70.2032 87.302 70.5926 87.0535C71.1018 86.7225 71.6619 86.7225 72.2475 86.7225C76.7539 86.7225 81.2602 86.697 85.7666 86.7479C86.5559 86.7479 86.7595 86.5442 86.7595 85.755C86.7086 81.1468 86.7341 76.5386 86.7341 71.9304C86.7341 70.6065 87.4724 69.7154 88.6181 69.6136C89.7638 69.5117 90.9604 70.3774 90.9858 71.8286C91.0113 74.68 90.9858 77.5315 90.9858 80.4085Z" fill="url(#paint5_linear_4300_2647)"/>
<path d="M48.1373 46.3189C48.2901 49.7305 47.9082 53.7022 46.4061 57.5212C45.2293 60.5832 43.4649 63.3854 41.2123 65.7701C39.7866 67.2468 38.3354 68.698 36.8587 70.1492C35.8403 71.1676 34.5419 71.2185 33.6508 70.302C32.7597 69.3854 32.8361 68.1379 33.8544 67.1195C34.8728 66.1011 36.6295 64.3953 37.9535 62.995C41.7979 58.9215 43.7328 54.0332 43.8601 48.4575C43.911 46.0643 43.8601 43.6966 43.8601 41.3034C43.8856 39.8267 44.7003 38.9102 45.9733 38.9102C47.2462 38.9102 48.1119 39.8012 48.1119 41.2779C48.1119 42.7546 48.1373 44.2058 48.1373 46.3189Z" fill="url(#paint6_linear_4300_2647)"/>
<path d="M23.2884 45.2477C23.3139 41.8616 23.1102 38.4754 24.0522 35.1402C25.2233 31.0667 27.2601 27.5278 30.3408 24.5999C31.4355 23.5306 32.683 23.4797 33.5996 24.4471C34.5161 25.4146 34.3888 26.6112 33.345 27.6296C29.3733 31.4995 27.5147 36.2095 27.5402 41.7088C27.5656 44.8913 27.5656 48.0483 27.5402 51.2307C27.5677 51.6942 27.4399 52.1536 27.1771 52.5363C26.9143 52.919 26.5314 53.2032 26.089 53.3439C25.6639 53.4794 25.2072 53.4787 24.7826 53.3417C24.358 53.2048 23.9869 52.9385 23.7212 52.5801C23.4035 52.1368 23.2504 51.5966 23.2884 51.0525V45.2477Z" fill="url(#paint7_linear_4300_2647)"/>
<path d="M33.574 41.9642C33.3261 38.7193 34.3691 35.5078 36.4764 33.0279C40.0917 28.6742 46.4821 27.3249 51.4976 29.8709C52.6942 30.4819 53.2034 31.5767 52.7706 32.6714C52.3378 33.7662 51.0139 34.3772 49.69 33.7662C47.9228 32.8577 45.8806 32.6398 43.9616 33.1552C40.3463 34.1226 37.9276 37.2032 37.8512 41.0222C37.8258 42.2443 37.8512 43.4409 37.8258 44.6375C37.8003 45.8341 36.9092 46.9543 35.6872 46.9288C34.4651 46.9034 33.5995 45.9868 33.574 44.612V41.9642Z" fill="url(#paint8_linear_4300_2647)"/>
<path d="M68.683 52.5032C68.3266 58.4863 65.9079 63.8073 61.2997 68.0846C60.2049 69.103 58.881 69.1284 58.0154 68.1609C57.1497 67.1935 57.2771 65.9969 58.3718 64.9785C62.2672 61.3377 64.253 56.8314 64.4312 51.4849C64.4821 50.0336 65.3478 49.1426 66.6462 49.1935C67.9447 49.2444 68.683 50.1609 68.683 51.5612V52.5032Z" fill="url(#paint9_linear_4300_2647)"/>
<path d="M25.9364 61.1094C25.911 60.702 26.2419 60.1674 26.7002 59.7091L29.9845 56.4248C30.6642 55.7553 31.278 55.0221 31.8176 54.2353C32.6578 52.9623 33.9053 52.6568 34.9746 53.3951C36.0439 54.1335 36.2222 55.3555 35.3311 56.6285C34.8963 57.33 34.3931 57.9866 33.8289 58.5889C32.4541 60.0401 31.0538 61.4404 29.6281 62.8407C28.9407 63.5281 28.1005 63.7572 27.184 63.3244C26.2674 62.8916 25.9364 62.2806 25.9364 61.1094Z" fill="url(#paint10_linear_4300_2647)"/>
<defs>
<linearGradient id="paint0_linear_4300_2647" x1="53.5578" y1="18.3359" x2="53.5578" y2="43.1616" gradientUnits="userSpaceOnUse">
<stop stop-color="white" stop-opacity="0.66"/>
<stop offset="1" stop-color="#969696" stop-opacity="0"/>
</linearGradient>
<linearGradient id="paint1_linear_4300_2647" x1="51.4682" y1="38.9102" x2="51.4682" y2="74.0188" gradientUnits="userSpaceOnUse">
<stop stop-color="white" stop-opacity="0.66"/>
<stop offset="1" stop-color="#969696" stop-opacity="0"/>
</linearGradient>
<linearGradient id="paint2_linear_4300_2647" x1="11.695" y1="1" x2="11.695" y2="22.3791" gradientUnits="userSpaceOnUse">
<stop stop-color="white" stop-opacity="0.66"/>
<stop offset="1" stop-color="#969696" stop-opacity="0"/>
</linearGradient>
<linearGradient id="paint3_linear_4300_2647" x1="80.2913" y1="1.02734" x2="80.2913" y2="22.3978" gradientUnits="userSpaceOnUse">
<stop stop-color="white" stop-opacity="0.66"/>
<stop offset="1" stop-color="#969696" stop-opacity="0"/>
</linearGradient>
<linearGradient id="paint4_linear_4300_2647" x1="11.6995" y1="69.5977" x2="11.6995" y2="90.9803" gradientUnits="userSpaceOnUse">
<stop stop-color="white" stop-opacity="0.66"/>
<stop offset="1" stop-color="#969696" stop-opacity="0"/>
</linearGradient>
<linearGradient id="paint5_linear_4300_2647" x1="80.2891" y1="69.6055" x2="80.2891" y2="90.9933" gradientUnits="userSpaceOnUse">
<stop stop-color="white" stop-opacity="0.66"/>
<stop offset="1" stop-color="#969696" stop-opacity="0"/>
</linearGradient>
<linearGradient id="paint6_linear_4300_2647" x1="40.6006" y1="38.9102" x2="40.6006" y2="70.9532" gradientUnits="userSpaceOnUse">
<stop stop-color="white" stop-opacity="0.66"/>
<stop offset="1" stop-color="#969696" stop-opacity="0"/>
</linearGradient>
<linearGradient id="paint7_linear_4300_2647" x1="28.7485" y1="23.7578" x2="28.7485" y2="53.445" gradientUnits="userSpaceOnUse">
<stop stop-color="white" stop-opacity="0.66"/>
<stop offset="1" stop-color="#969696" stop-opacity="0"/>
</linearGradient>
<linearGradient id="paint8_linear_4300_2647" x1="43.2305" y1="28.5898" x2="43.2305" y2="46.9293" gradientUnits="userSpaceOnUse">
<stop stop-color="white" stop-opacity="0.66"/>
<stop offset="1" stop-color="#969696" stop-opacity="0"/>
</linearGradient>
<linearGradient id="paint9_linear_4300_2647" x1="63.0651" y1="49.1914" x2="63.0651" y2="68.8679" gradientUnits="userSpaceOnUse">
<stop stop-color="white" stop-opacity="0.66"/>
<stop offset="1" stop-color="#969696" stop-opacity="0"/>
</linearGradient>
<linearGradient id="paint10_linear_4300_2647" x1="30.9183" y1="53" x2="30.9183" y2="63.5444" gradientUnits="userSpaceOnUse">
<stop stop-color="white" stop-opacity="0.66"/>
<stop offset="1" stop-color="#969696" stop-opacity="0"/>
</linearGradient>
</defs>
</svg>
