<svg width="92" height="93" viewBox="0 0 92 93" fill="none" xmlns="http://www.w3.org/2000/svg">
<path d="M90.9971 49.3816C90.5934 50.3707 90.6647 51.4588 90.4985 52.4973C88.9074 62.8832 84.3954 71.6865 77.0337 78.8824C76.535 79.377 76.3925 79.7479 76.6062 80.4403C77.2712 82.7895 76.3925 85.1881 74.4215 86.5729C72.4504 87.9577 69.9807 87.8835 68.1522 86.3256C67.701 85.9299 67.3922 85.9547 66.9173 86.202C53.9829 92.6313 41.0485 92.6231 28.114 86.1772C27.6628 85.9547 27.3779 85.9299 26.9505 86.2514C26.0647 86.934 24.9928 87.3045 23.8909 87.3089C22.789 87.3134 21.7144 86.9516 20.8236 86.2762C18.9001 84.8914 18.0927 82.6906 18.6626 80.2919C18.7338 80.0966 18.7422 79.8826 18.6866 79.6819C18.6309 79.4812 18.5141 79.3048 18.3539 79.1791C10.3273 71.4392 5.69652 61.8941 4.31918 50.618C4.12111 49.0277 4.04171 47.4238 4.0817 45.8207C4.10545 45.3509 3.93921 45.1283 3.5355 44.9552C1.04202 43.8919 -0.264071 41.6664 0.0446453 39.0699C0.353361 36.4734 2.08692 34.5446 4.81787 34.149C5.50654 34.0501 5.55405 33.6049 5.69654 33.1351C6.76135 29.0916 8.37673 25.2278 10.4935 21.6612C11.0634 20.6968 11.7996 20.499 12.5358 21.0924C13.2719 21.6859 13.2482 22.2794 12.7495 23.1202C10.9256 26.2196 9.49672 29.5529 8.49871 33.0362C8.45699 33.114 8.42506 33.1971 8.40372 33.2835C8.07125 34.1984 7.92877 35.0392 8.9974 35.5585C9.18849 35.6457 9.34108 35.8046 9.42486 36.0036C9.87606 37.0669 10.636 36.968 11.5384 36.7702C16.2931 35.774 21.1271 35.2441 25.9768 35.1876C26.5467 35.1628 26.9029 35.0392 27.2591 34.4704C28.5178 32.4922 30.3463 31.6761 32.6023 31.9729C33.1248 32.0471 33.4572 31.9729 33.7897 31.5031C36.2587 27.997 39.0941 24.7873 42.2437 21.9332C42.6237 21.6117 42.7187 21.3397 42.505 20.8452C42.1233 19.9346 42.0317 18.9207 42.2437 17.952C42.3625 17.4327 42.1488 17.2596 41.7926 17.037C37.8272 14.6374 33.6023 12.7365 29.2065 11.3742C28.8502 11.2753 28.684 11.2753 28.4228 11.6463C26.5942 14.3169 23.9108 15.034 21.1323 13.5256C20.7524 13.3278 20.5862 13.4267 20.3012 13.674C19.1817 14.7243 18.1194 15.8388 17.119 17.0123C16.3591 17.8778 15.6467 17.9767 15.0055 17.3585C14.3643 16.7403 14.3881 16.0479 15.1005 15.1824C16.1302 13.9494 17.2411 12.7926 18.4251 11.7204C18.8288 11.3495 18.9713 11.0775 18.7813 10.484C18.3776 9.33069 18.3622 8.06875 18.7376 6.90508C19.113 5.74142 19.8569 4.74508 20.8474 4.07941C22.9371 2.59571 25.4068 2.74408 27.4016 4.49979C27.525 4.64322 27.6943 4.7349 27.8779 4.75766C28.0615 4.78042 28.2468 4.7327 28.399 4.62343C35.6182 0.914192 43.2649 -0.520047 51.2915 0.172344C56.4302 0.592288 61.4481 2.0097 66.0861 4.35142C66.6086 4.62343 66.941 4.5987 67.416 4.20305C69.2208 2.74408 71.5243 2.69462 73.4478 3.98049C75.3714 5.26636 76.3925 7.665 75.8226 9.98946C75.6801 10.5829 75.7276 10.9786 76.2263 11.3001L76.6062 11.671C77.6749 12.8579 78.6248 13.674 80.5008 13.1547C82.3769 12.6354 84.3479 13.8718 85.464 15.7759C86.5801 17.6799 86.5801 19.7571 85.3928 21.6859C85.1078 22.1558 85.0365 22.4525 85.3215 22.9718C88.4562 28.6346 90.2135 34.7424 90.8309 41.246C90.8309 41.4191 90.7122 41.6911 90.9971 41.79V49.3816ZM24.1482 69.7577C24.1482 71.637 24.2195 73.5164 24.362 75.371C24.4095 75.915 24.5757 76.1128 25.0744 76.2117C26.2603 76.4292 27.3173 77.1216 28.0191 78.1405C28.3753 78.6351 28.6603 78.5856 29.1115 78.4126C33.1956 76.7969 37.1568 74.8626 40.9614 72.6261C49.7669 67.3705 57.5479 60.4423 63.9014 52.2006C64.1626 51.8297 64.2576 51.6071 63.9964 51.162C63.3454 50.0797 63.1002 48.7856 63.3077 47.527C63.3789 47.0324 63.2127 46.8346 62.8327 46.6367C54.9565 42.5675 46.4933 39.8694 37.7793 38.6495C37.3043 38.6001 37.0431 38.6495 36.8531 39.243C36.4629 40.5358 35.6311 41.6348 34.5152 42.332C33.3993 43.0293 32.0766 43.2763 30.7975 43.0264C30.2038 42.9275 30.0613 43.1253 29.8476 43.5952C26.0949 51.7632 24.1474 60.703 24.1482 69.7577ZM47.0882 88.205C53.69 88.205 60.268 86.5976 65.5874 83.8033C66.0149 83.5808 66.2286 83.3829 66.1574 82.7895C65.8012 79.7726 67.2973 77.3987 70.0757 76.4837C70.2436 76.4591 70.3962 76.3686 70.5021 76.2307C70.6081 76.0928 70.6594 75.9179 70.6456 75.7419C70.8477 73.564 70.9428 71.3769 70.9306 69.1889C70.9069 68.1009 71.4055 67.5074 72.2605 67.5074C73.1154 67.5074 73.5666 68.1009 73.5903 69.1889C73.6421 71.4687 73.539 73.7494 73.2816 76.0139C73.1629 76.9289 73.9703 76.7805 74.3027 77.1514C74.6352 77.5223 74.8727 77.2009 75.1101 76.9536C78.9917 73.2279 82.1516 68.7622 84.4191 63.7982C84.6329 63.353 84.6328 63.0563 84.2529 62.6854C80.7493 59.0448 76.9428 55.7347 72.8779 52.7941C72.5929 52.5963 72.3555 52.3737 71.9755 52.7199C71.5955 53.0661 71.4768 53.2639 71.5955 53.7832C72.1523 55.8543 72.5807 57.9606 72.8779 60.0889C73.0441 61.3006 72.6879 61.9188 71.8092 62.0672C70.9306 62.2155 70.3844 61.6715 70.2182 60.5093C70.0045 58.9267 69.6482 57.3688 69.3633 55.8109C69.1496 54.6734 68.9358 53.6348 67.4872 53.8327C67.3648 53.834 67.2435 53.8088 67.131 53.7585C66.5136 53.3628 66.1811 53.6348 65.7774 54.1541C56.3497 66.2463 44.7135 75.1237 30.75 80.6628C29.7051 81.0832 29.064 81.5036 29.0877 82.8142C29.0877 83.4077 29.1352 83.6302 29.6339 83.9022C35.0742 86.6646 41.0359 88.1343 47.0882 88.205ZM24.5282 38.0313C20.1587 38.3033 15.8129 38.971 11.4909 39.6139C11.0634 39.6634 10.731 39.7376 10.7072 40.3558C10.5647 42.5566 9.40112 44.0403 7.50133 44.8316C6.86015 45.1283 6.71765 45.4498 6.7414 46.1175C7.05011 53.8821 9.28239 61.0286 12.9632 67.73C14.8071 71.1134 17.1286 74.1893 19.85 76.8547C20.0162 77.0278 20.1587 77.3245 20.4674 77.2751C21.1323 77.1514 21.7735 76.2859 21.726 75.5935C20.7761 64.0702 22.6047 53.0166 27.4016 42.5566C27.7578 41.7653 27.8291 41.1965 27.2354 40.5289C26.9742 40.2569 26.8792 39.8365 26.713 39.4655C26.5467 39.0946 26.6892 38.2044 26.1905 38.0066C25.6918 37.8088 25.0744 38.0066 24.5282 38.0313ZM69.7432 42.8533C70.1944 43.0264 70.2657 42.6308 70.4319 42.334C73.6603 36.6425 76.2347 30.5754 78.1023 24.2577C78.2448 23.7631 78.1736 23.5405 77.7699 23.2191C75.8701 21.7601 74.8727 19.1636 75.8226 17.0123C76.5587 15.3802 75.9888 14.6384 74.9202 13.8223C74.7694 13.7193 74.6334 13.5944 74.5165 13.4514C74.2315 13.0558 73.9703 13.1052 73.5666 13.3772C72.3973 14.1896 70.9686 14.4919 69.5876 14.219C68.2066 13.9462 66.9834 13.1201 66.1811 11.9183C65.9436 11.5473 65.7774 11.399 65.2787 11.5473C61.109 12.9071 57.0954 14.7397 53.3101 17.0123C52.8826 17.2596 52.7164 17.5068 52.8351 18.0261C53.0437 18.9026 52.96 19.8269 52.5976 20.6473C52.3127 21.3397 52.5501 21.6859 53.0251 22.1063C58.7347 27.4041 63.4389 33.7705 66.8935 40.8751C67.4397 42.0126 67.8672 43.1253 69.387 42.7791C69.482 42.7544 69.6245 42.8286 69.7432 42.8533ZM85.7965 60.2867C85.8677 60.0642 85.9627 59.8911 86.0339 59.6933C87.2442 56.1557 87.9795 52.461 88.2187 48.7139C88.7887 40.1579 87.1501 32.1213 83.1605 24.6286C83.018 24.3566 82.923 23.8126 82.5193 24.0598C82.1156 24.3071 80.9995 23.8126 80.667 24.9253C78.7659 31.5217 76.0942 37.8501 72.7117 43.7683C72.4979 44.1639 72.4742 44.4112 72.7829 44.8069C73.29 45.4313 73.654 46.1677 73.8473 46.9603C74.0407 47.7528 74.0584 48.5808 73.899 49.3816C73.804 49.9503 73.9228 50.1976 74.3502 50.4944C76.7522 52.1837 79.0521 54.0253 81.237 56.0088C82.7568 57.3935 84.2529 58.8525 85.7965 60.2867ZM44.6185 23.6395C44.4048 23.59 44.286 23.7384 44.1673 23.862C41.0838 26.6684 38.2974 29.8103 35.8557 33.234C35.737 33.4071 35.642 33.506 35.7607 33.778C36.6869 35.6079 36.9006 35.781 38.9429 36.0283C39.1186 36.0392 39.2932 36.064 39.4653 36.1025C48.0119 37.438 56.305 40.1581 64.0439 44.1639C64.3763 44.337 64.6613 44.5596 65.065 44.1639C65.4687 43.7683 65.16 43.4715 65.0412 43.1748C61.641 35.8935 56.8961 29.3813 51.0778 24.0104C50.7216 23.6889 50.4841 23.59 50.0092 23.8373C48.3468 24.7522 46.6608 24.7028 44.9985 23.8373L44.6185 23.6395ZM47.5394 2.76881C41.3176 2.81827 35.4045 4.15359 29.8001 6.99734C29.4439 7.19516 29.0877 7.29408 29.1589 7.91229C29.2302 8.53049 29.5152 8.57995 29.9426 8.70359C34.5302 10.1226 38.9388 12.1067 43.0749 14.6136C43.4549 14.8362 43.7161 14.9104 44.1198 14.5642C46.2333 12.8085 48.8455 12.8332 50.9828 14.5889C51.3628 14.8857 51.5765 14.8609 51.9564 14.6384C55.9289 12.2003 60.1712 10.2738 64.5901 8.90142C65.5162 8.62941 65.1837 7.91228 65.35 7.39299C65.5162 6.8737 64.97 6.84897 64.685 6.72533C59.2706 4.05468 53.5238 2.81827 47.5394 2.76881ZM21.1561 8.70359C21.1558 9.45168 21.4363 10.1703 21.9376 10.7061C22.4389 11.242 23.1213 11.5527 23.8395 11.5721C24.556 11.5596 25.2401 11.2593 25.749 10.734C26.2579 10.2087 26.5522 9.49896 26.5705 8.75305C26.5705 7.14571 25.4543 5.90929 23.9345 5.88457C22.4147 5.85984 21.1798 7.0468 21.1561 8.70359ZM5.38781 42.5319C6.95514 42.5319 8.09502 41.2954 8.07127 39.6139C8.06819 39.2449 7.9949 38.8801 7.85569 38.5407C7.71647 38.2012 7.51406 37.8939 7.26015 37.6364C7.00623 37.3789 6.70586 37.1763 6.37635 37.0404C6.04683 36.9044 5.69471 36.8378 5.34033 36.8444C4.62016 36.8638 3.93653 37.1788 3.43836 37.7207C2.94019 38.2626 2.66783 38.9875 2.6806 39.7376C2.68059 40.1066 2.75078 40.472 2.88711 40.8126C3.02345 41.1533 3.22324 41.4624 3.47494 41.7222C3.72665 41.982 4.0253 42.1873 4.35361 42.3263C4.68193 42.4652 5.03342 42.5351 5.38781 42.5319ZM31.7474 40.331C32.1099 40.3378 32.4699 40.2681 32.8057 40.1261C33.1416 39.984 33.4463 39.7726 33.7016 39.5045C33.9568 39.2364 34.1572 38.9173 34.2907 38.5663C34.4242 38.2154 34.488 37.8399 34.4784 37.4626C34.418 36.757 34.1069 36.1002 33.606 35.6209C33.1051 35.1415 32.4504 34.8742 31.7701 34.8711C31.0898 34.868 30.4329 35.1294 29.928 35.6041C29.4231 36.0789 29.1065 36.7328 29.0402 37.4378C29.0274 37.8151 29.0881 38.1912 29.2187 38.5434C29.3492 38.8955 29.547 39.2165 29.8 39.4869C30.053 39.7573 30.356 39.9715 30.6907 40.1166C31.0254 40.2617 31.3849 40.3346 31.7474 40.331ZM71.3106 48.343C71.3205 47.9646 71.2559 47.5881 71.1207 47.2368C70.9855 46.8854 70.7825 46.5667 70.5244 46.3002C70.2662 46.0337 69.9584 45.8251 69.6198 45.6874C69.2812 45.5496 68.9191 45.4856 68.5559 45.4992C67.8544 45.5184 67.1874 45.8205 66.6957 46.3418C66.204 46.8631 65.9258 47.5628 65.9199 48.2935C65.9069 49.0419 66.1752 49.7659 66.6677 50.311C67.1601 50.8562 67.8378 51.1793 68.5559 51.2115C68.9194 51.2182 69.2805 51.1486 69.6176 51.0068C69.9547 50.865 70.261 50.654 70.5181 50.3862C70.7752 50.1185 70.9778 49.7996 71.114 49.4486C71.2501 49.0975 71.317 48.7215 71.3106 48.343ZM47.5394 16.0479C46.8192 16.0479 46.1282 16.3441 45.6167 16.872C45.1052 17.4 44.8147 18.117 44.8085 18.8669C44.8142 19.6131 45.0966 20.3282 45.5966 20.8627C46.0967 21.3972 46.7757 21.7099 47.4919 21.7354C47.8546 21.7387 48.2142 21.6667 48.5499 21.5237C48.8855 21.3808 49.1904 21.1696 49.4469 20.9026C49.7033 20.6356 49.9061 20.318 50.0434 19.9685C50.1807 19.619 50.2498 19.2445 50.2466 18.8669C50.2498 18.4958 50.1819 18.1277 50.047 17.7842C49.9121 17.4407 49.7128 17.1286 49.4608 16.8662C49.2087 16.6038 48.909 16.3962 48.5792 16.2558C48.2493 16.1152 47.8958 16.0446 47.5394 16.0479ZM71.4768 79.0802C71.1207 79.0668 70.7657 79.1288 70.4333 79.2623C70.1008 79.3957 69.7978 79.598 69.5426 79.8569C69.2873 80.1158 69.0851 80.4258 68.9482 80.7684C68.8112 81.1109 68.7424 81.4788 68.7459 81.8498C68.7011 82.2382 68.7345 82.6321 68.8439 83.0063C68.9534 83.3806 69.1364 83.727 69.3813 84.0236C69.6263 84.3202 69.9279 84.5604 70.2669 84.729C70.6059 84.8977 70.9749 84.991 71.3504 85.003C71.7259 85.0151 72.0997 84.9456 72.448 84.7991C72.7963 84.6525 73.1115 84.4321 73.3736 84.1518C73.6356 83.8715 73.8388 83.5374 73.9702 83.1709C74.1015 82.8044 74.1581 82.4134 74.1365 82.0229C74.184 80.3414 73.0441 79.1049 71.4768 79.0802ZM21.1561 81.7014C21.1623 82.4471 21.4495 83.1603 21.9558 83.6876C22.4622 84.2149 23.1472 84.514 23.8633 84.5204C24.5775 84.5077 25.259 84.2066 25.764 83.6807C26.2691 83.1548 26.5583 82.4451 26.5705 81.7014C26.5582 80.9381 26.2616 80.2095 25.7432 79.6697C25.2247 79.1298 24.5251 78.8209 23.792 78.8082C23.076 78.834 22.3985 79.1518 21.9054 79.693C21.4123 80.2342 21.1432 80.9555 21.1561 81.7014ZM70.6219 5.85984C69.9057 5.85973 69.2182 6.15254 68.7074 6.67519C68.1966 7.19785 67.9034 7.90853 67.8909 8.65413C67.8778 9.03241 67.9393 9.40946 68.0716 9.76202C68.2039 10.1146 68.4042 10.4352 68.6601 10.704C68.916 10.9728 69.2221 11.1841 69.5596 11.3249C69.897 11.4657 70.2585 11.533 70.6219 11.5226C70.9781 11.5294 71.3319 11.461 71.662 11.3214C71.9921 11.1818 72.2916 10.974 72.5424 10.7106C72.7933 10.4471 72.9902 10.1334 73.1213 9.78844C73.2524 9.44349 73.315 9.07445 73.3053 8.70359C73.3055 7.95788 73.0243 7.24195 72.5223 6.71004C72.0204 6.17814 71.3379 5.87281 70.6219 5.85984ZM83.588 18.6444C83.5785 18.0869 83.4105 17.5449 83.1052 17.0869C82.8 16.6289 82.3711 16.2754 81.873 16.0712C81.3748 15.867 80.8296 15.8211 80.3064 15.9395C79.7832 16.0578 79.3055 16.3351 78.9336 16.7362C78.5617 17.1372 78.3124 17.6441 78.2172 18.1927C78.1219 18.7414 78.185 19.3071 78.3985 19.8183C78.612 20.3296 78.9663 20.7635 79.4166 21.0651C79.8669 21.3667 80.3929 21.5225 80.9282 21.5128C81.6442 21.4934 82.3243 21.1818 82.8218 20.6453C83.3193 20.1087 83.5944 19.3902 83.588 18.6444Z" fill="#0F4FE3"/>
<path d="M91.9971 50.3816C91.5934 51.3707 91.6647 52.4588 91.4985 53.4973C89.9074 63.8832 85.3954 72.6865 78.0337 79.8824C77.535 80.377 77.3925 80.7479 77.6062 81.4403C78.2712 83.7895 77.3925 86.1881 75.4215 87.5729C73.4504 88.9577 70.9807 88.8835 69.1522 87.3256C68.701 86.9299 68.3922 86.9547 67.9173 87.202C54.9829 93.6313 42.0485 93.6231 29.114 87.1772C28.6628 86.9547 28.3779 86.9299 27.9505 87.2514C27.0647 87.934 25.9928 88.3045 24.8909 88.3089C23.789 88.3134 22.7144 87.9516 21.8236 87.2762C19.9001 85.8914 19.0927 83.6906 19.6626 81.2919C19.7338 81.0966 19.7422 80.8826 19.6866 80.6819C19.6309 80.4812 19.5141 80.3048 19.3539 80.1791C11.3273 72.4392 6.69652 62.8941 5.31918 51.618C5.12111 50.0277 5.04171 48.4238 5.0817 46.8207C5.10545 46.3509 4.93921 46.1283 4.5355 45.9552C2.04202 44.8919 0.735929 42.6664 1.04465 40.0699C1.35336 37.4734 3.08692 35.5446 5.81787 35.149C6.50654 35.0501 6.55405 34.6049 6.69654 34.1351C7.76135 30.0916 9.37673 26.2278 11.4935 22.6612C12.0634 21.6968 12.7996 21.499 13.5358 22.0924C14.2719 22.6859 14.2482 23.2794 13.7495 24.1202C11.9256 27.2196 10.4967 30.5529 9.49871 34.0362C9.45699 34.114 9.42506 34.1971 9.40372 34.2835C9.07125 35.1984 8.92877 36.0392 9.9974 36.5585C10.1885 36.6457 10.3411 36.8046 10.4249 37.0036C10.8761 38.0669 11.636 37.968 12.5384 37.7702C17.2931 36.774 22.1271 36.2441 26.9768 36.1876C27.5467 36.1628 27.9029 36.0392 28.2591 35.4704C29.5178 33.4922 31.3463 32.6761 33.6023 32.9729C34.1248 33.0471 34.4572 32.9729 34.7897 32.5031C37.2587 28.997 40.0941 25.7873 43.2437 22.9332C43.6237 22.6117 43.7187 22.3397 43.505 21.8452C43.1233 20.9346 43.0317 19.9207 43.2437 18.952C43.3625 18.4327 43.1488 18.2596 42.7926 18.037C38.8272 15.6374 34.6023 13.7365 30.2065 12.3742C29.8502 12.2753 29.684 12.2753 29.4228 12.6463C27.5942 15.3169 24.9108 16.034 22.1323 14.5256C21.7524 14.3278 21.5862 14.4267 21.3012 14.674C20.1817 15.7243 19.1194 16.8388 18.119 18.0123C17.3591 18.8778 16.6467 18.9767 16.0055 18.3585C15.3643 17.7403 15.3881 17.0479 16.1005 16.1824C17.1302 14.9494 18.2411 13.7926 19.4251 12.7204C19.8288 12.3495 19.9713 12.0775 19.7813 11.484C19.3776 10.3307 19.3622 9.06875 19.7376 7.90508C20.113 6.74142 20.8569 5.74508 21.8474 5.07941C23.9371 3.59571 26.4068 3.74408 28.4016 5.49979C28.525 5.64322 28.6943 5.7349 28.8779 5.75766C29.0615 5.78042 29.2468 5.7327 29.399 5.62343C36.6182 1.91419 44.2649 0.479953 52.2915 1.17234C57.4302 1.59229 62.4481 3.0097 67.0861 5.35142C67.6086 5.62343 67.941 5.5987 68.416 5.20305C70.2208 3.74408 72.5243 3.69462 74.4478 4.98049C76.3714 6.26636 77.3925 8.665 76.8226 10.9895C76.6801 11.5829 76.7276 11.9786 77.2263 12.3001L77.6062 12.671C78.6749 13.8579 79.6248 14.674 81.5008 14.1547C83.3769 13.6354 85.3479 14.8718 86.464 16.7759C87.5801 18.6799 87.5801 20.7571 86.3928 22.6859C86.1078 23.1558 86.0365 23.4525 86.3215 23.9718C89.4562 29.6346 91.2135 35.7424 91.8309 42.246C91.8309 42.4191 91.7122 42.6911 91.9971 42.79V50.3816ZM25.1482 70.7577C25.1482 72.637 25.2195 74.5164 25.362 76.371C25.4095 76.915 25.5757 77.1128 26.0744 77.2117C27.2603 77.4292 28.3173 78.1216 29.0191 79.1405C29.3753 79.6351 29.6603 79.5856 30.1115 79.4126C34.1956 77.7969 38.1568 75.8626 41.9614 73.6261C50.7669 68.3705 58.5479 61.4423 64.9014 53.2006C65.1626 52.8297 65.2576 52.6071 64.9964 52.162C64.3454 51.0797 64.1002 49.7856 64.3077 48.527C64.3789 48.0324 64.2127 47.8346 63.8327 47.6367C55.9565 43.5675 47.4933 40.8694 38.7793 39.6495C38.3043 39.6001 38.0431 39.6495 37.8531 40.243C37.4629 41.5358 36.6311 42.6348 35.5152 43.332C34.3993 44.0293 33.0766 44.2763 31.7975 44.0264C31.2038 43.9275 31.0613 44.1253 30.8476 44.5952C27.0949 52.7632 25.1474 61.703 25.1482 70.7577ZM48.0882 89.205C54.69 89.205 61.268 87.5976 66.5874 84.8033C67.0149 84.5808 67.2286 84.3829 67.1574 83.7895C66.8012 80.7726 68.2973 78.3987 71.0757 77.4837C71.2436 77.4591 71.3962 77.3686 71.5021 77.2307C71.6081 77.0928 71.6594 76.9179 71.6456 76.7419C71.8477 74.564 71.9428 72.3769 71.9306 70.1889C71.9069 69.1009 72.4055 68.5074 73.2605 68.5074C74.1154 68.5074 74.5666 69.1009 74.5903 70.1889C74.6421 72.4687 74.539 74.7494 74.2816 77.0139C74.1629 77.9289 74.9703 77.7805 75.3027 78.1514C75.6352 78.5223 75.8727 78.2009 76.1101 77.9536C79.9917 74.2279 83.1516 69.7622 85.4191 64.7982C85.6329 64.353 85.6328 64.0563 85.2529 63.6854C81.7493 60.0448 77.9428 56.7347 73.8779 53.7941C73.5929 53.5963 73.3555 53.3737 72.9755 53.7199C72.5955 54.0661 72.4768 54.2639 72.5955 54.7832C73.1523 56.8543 73.5807 58.9606 73.8779 61.0889C74.0441 62.3006 73.6879 62.9188 72.8092 63.0672C71.9306 63.2155 71.3844 62.6715 71.2182 61.5093C71.0045 59.9267 70.6482 58.3688 70.3633 56.8109C70.1496 55.6734 69.9358 54.6348 68.4872 54.8327C68.3648 54.834 68.2435 54.8088 68.131 54.7585C67.5136 54.3628 67.1811 54.6348 66.7774 55.1541C57.3497 67.2463 45.7135 76.1237 31.75 81.6628C30.7051 82.0832 30.064 82.5036 30.0877 83.8142C30.0877 84.4077 30.1352 84.6302 30.6339 84.9022C36.0742 87.6646 42.0359 89.1343 48.0882 89.205ZM25.5282 39.0313C21.1587 39.3033 16.8129 39.971 12.4909 40.6139C12.0634 40.6634 11.731 40.7376 11.7072 41.3558C11.5647 43.5566 10.4011 45.0403 8.50133 45.8316C7.86015 46.1283 7.71765 46.4498 7.7414 47.1175C8.05011 54.8821 10.2824 62.0286 13.9632 68.73C15.8071 72.1134 18.1286 75.1893 20.85 77.8547C21.0162 78.0278 21.1587 78.3245 21.4674 78.2751C22.1323 78.1514 22.7735 77.2859 22.726 76.5935C21.7761 65.0702 23.6047 54.0166 28.4016 43.5566C28.7578 42.7653 28.8291 42.1965 28.2354 41.5289C27.9742 41.2569 27.8792 40.8365 27.713 40.4655C27.5467 40.0946 27.6892 39.2044 27.1905 39.0066C26.6918 38.8088 26.0744 39.0066 25.5282 39.0313ZM70.7432 43.8533C71.1944 44.0264 71.2657 43.6308 71.4319 43.334C74.6603 37.6425 77.2347 31.5754 79.1023 25.2577C79.2448 24.7631 79.1736 24.5405 78.7699 24.2191C76.8701 22.7601 75.8727 20.1636 76.8226 18.0123C77.5587 16.3802 76.9888 15.6384 75.9202 14.8223C75.7694 14.7193 75.6334 14.5944 75.5165 14.4514C75.2315 14.0558 74.9703 14.1052 74.5666 14.3772C73.3973 15.1896 71.9686 15.4919 70.5876 15.219C69.2066 14.9462 67.9834 14.1201 67.1811 12.9183C66.9436 12.5473 66.7774 12.399 66.2787 12.5473C62.109 13.9071 58.0954 15.7397 54.3101 18.0123C53.8826 18.2596 53.7164 18.5068 53.8351 19.0261C54.0437 19.9026 53.96 20.8269 53.5976 21.6473C53.3127 22.3397 53.5501 22.6859 54.0251 23.1063C59.7347 28.4041 64.4389 34.7705 67.8935 41.8751C68.4397 43.0126 68.8672 44.1253 70.387 43.7791C70.482 43.7544 70.6245 43.8286 70.7432 43.8533ZM86.7965 61.2867C86.8677 61.0642 86.9627 60.8911 87.0339 60.6933C88.2442 57.1557 88.9795 53.461 89.2187 49.7139C89.7887 41.1579 88.1501 33.1213 84.1605 25.6286C84.018 25.3566 83.923 24.8126 83.5193 25.0598C83.1156 25.3071 81.9995 24.8126 81.667 25.9253C79.7659 32.5217 77.0942 38.8501 73.7117 44.7683C73.4979 45.1639 73.4742 45.4112 73.7829 45.8069C74.29 46.4313 74.654 47.1677 74.8473 47.9603C75.0407 48.7528 75.0584 49.5808 74.899 50.3816C74.804 50.9503 74.9228 51.1976 75.3502 51.4944C77.7522 53.1837 80.0521 55.0253 82.237 57.0088C83.7568 58.3935 85.2529 59.8525 86.7965 61.2867ZM45.6185 24.6395C45.4048 24.59 45.286 24.7384 45.1673 24.862C42.0838 27.6684 39.2974 30.8103 36.8557 34.234C36.737 34.4071 36.642 34.506 36.7607 34.778C37.6869 36.6079 37.9006 36.781 39.9429 37.0283C40.1186 37.0392 40.2932 37.064 40.4653 37.1025C49.0119 38.438 57.305 41.1581 65.0439 45.1639C65.3763 45.337 65.6613 45.5596 66.065 45.1639C66.4687 44.7683 66.16 44.4715 66.0412 44.1748C62.641 36.8935 57.8961 30.3813 52.0778 25.0104C51.7216 24.6889 51.4841 24.59 51.0092 24.8373C49.3468 25.7522 47.6608 25.7028 45.9985 24.8373L45.6185 24.6395ZM48.5394 3.76881C42.3176 3.81827 36.4045 5.15359 30.8001 7.99734C30.4439 8.19516 30.0877 8.29408 30.1589 8.91229C30.2302 9.53049 30.5152 9.57995 30.9426 9.70359C35.5302 11.1226 39.9388 13.1067 44.0749 15.6136C44.4549 15.8362 44.7161 15.9104 45.1198 15.5642C47.2333 13.8085 49.8455 13.8332 51.9828 15.5889C52.3628 15.8857 52.5765 15.8609 52.9564 15.6384C56.9289 13.2003 61.1712 11.2738 65.5901 9.90142C66.5162 9.62941 66.1837 8.91228 66.35 8.39299C66.5162 7.8737 65.97 7.84897 65.685 7.72533C60.2706 5.05468 54.5238 3.81827 48.5394 3.76881ZM22.1561 9.70359C22.1558 10.4517 22.4363 11.1703 22.9376 11.7061C23.4389 12.242 24.1213 12.5527 24.8395 12.5721C25.556 12.5596 26.2401 12.2593 26.749 11.734C27.2579 11.2087 27.5522 10.499 27.5705 9.75305C27.5705 8.14571 26.4543 6.90929 24.9345 6.88457C23.4147 6.85984 22.1798 8.0468 22.1561 9.70359ZM6.38781 43.5319C7.95514 43.5319 9.09502 42.2954 9.07127 40.6139C9.06819 40.2449 8.9949 39.8801 8.85569 39.5407C8.71647 39.2012 8.51406 38.8939 8.26015 38.6364C8.00623 38.3789 7.70586 38.1763 7.37635 38.0404C7.04683 37.9044 6.69471 37.8378 6.34033 37.8444C5.62016 37.8638 4.93653 38.1788 4.43836 38.7207C3.94019 39.2626 3.66783 39.9875 3.6806 40.7376C3.68059 41.1066 3.75078 41.472 3.88711 41.8126C4.02345 42.1533 4.22324 42.4624 4.47494 42.7222C4.72665 42.982 5.0253 43.1873 5.35361 43.3263C5.68193 43.4652 6.03342 43.5351 6.38781 43.5319ZM32.7474 41.331C33.1099 41.3378 33.4699 41.2681 33.8057 41.1261C34.1416 40.984 34.4463 40.7726 34.7016 40.5045C34.9568 40.2364 35.1572 39.9173 35.2907 39.5663C35.4242 39.2154 35.488 38.8399 35.4784 38.4626C35.418 37.757 35.1069 37.1002 34.606 36.6209C34.1051 36.1415 33.4504 35.8742 32.7701 35.8711C32.0898 35.868 31.4329 36.1294 30.928 36.6041C30.4231 37.0789 30.1065 37.7328 30.0402 38.4378C30.0274 38.8151 30.0881 39.1912 30.2187 39.5434C30.3492 39.8955 30.547 40.2165 30.8 40.4869C31.053 40.7573 31.356 40.9715 31.6907 41.1166C32.0254 41.2617 32.3849 41.3346 32.7474 41.331ZM72.3106 49.343C72.3205 48.9646 72.2559 48.5881 72.1207 48.2368C71.9855 47.8854 71.7825 47.5667 71.5244 47.3002C71.2662 47.0337 70.9584 46.8251 70.6198 46.6874C70.2812 46.5496 69.9191 46.4856 69.5559 46.4992C68.8544 46.5184 68.1874 46.8205 67.6957 47.3418C67.204 47.8631 66.9258 48.5628 66.9199 49.2935C66.9069 50.0419 67.1752 50.7659 67.6677 51.311C68.1601 51.8562 68.8378 52.1793 69.5559 52.2115C69.9194 52.2182 70.2805 52.1486 70.6176 52.0068C70.9547 51.865 71.261 51.654 71.5181 51.3862C71.7752 51.1185 71.9778 50.7996 72.114 50.4486C72.2501 50.0975 72.317 49.7215 72.3106 49.343ZM48.5394 17.0479C47.8192 17.0479 47.1282 17.3441 46.6167 17.872C46.1052 18.4 45.8147 19.117 45.8085 19.8669C45.8142 20.6131 46.0966 21.3282 46.5966 21.8627C47.0967 22.3972 47.7757 22.7099 48.4919 22.7354C48.8546 22.7387 49.2142 22.6667 49.5499 22.5237C49.8855 22.3808 50.1904 22.1696 50.4469 21.9026C50.7033 21.6356 50.9061 21.318 51.0434 20.9685C51.1807 20.619 51.2498 20.2445 51.2466 19.8669C51.2498 19.4958 51.1819 19.1277 51.047 18.7842C50.9121 18.4407 50.7128 18.1286 50.4608 17.8662C50.2087 17.6038 49.909 17.3962 49.5792 17.2558C49.2493 17.1152 48.8958 17.0446 48.5394 17.0479ZM72.4768 80.0802C72.1207 80.0668 71.7657 80.1288 71.4333 80.2623C71.1008 80.3957 70.7978 80.598 70.5426 80.8569C70.2873 81.1158 70.0851 81.4258 69.9482 81.7684C69.8112 82.1109 69.7424 82.4788 69.7459 82.8498C69.7011 83.2382 69.7345 83.6321 69.8439 84.0063C69.9534 84.3806 70.1364 84.727 70.3813 85.0236C70.6263 85.3202 70.9279 85.5604 71.2669 85.729C71.6059 85.8977 71.9749 85.991 72.3504 86.003C72.7259 86.0151 73.0997 85.9456 73.448 85.7991C73.7963 85.6525 74.1115 85.4321 74.3736 85.1518C74.6356 84.8715 74.8388 84.5374 74.9702 84.1709C75.1015 83.8044 75.1581 83.4134 75.1365 83.0229C75.184 81.3414 74.0441 80.1049 72.4768 80.0802ZM22.1561 82.7014C22.1623 83.4471 22.4495 84.1603 22.9558 84.6876C23.4622 85.2149 24.1472 85.514 24.8633 85.5204C25.5775 85.5077 26.259 85.2066 26.764 84.6807C27.2691 84.1548 27.5583 83.4451 27.5705 82.7014C27.5582 81.9381 27.2616 81.2095 26.7432 80.6697C26.2247 80.1298 25.5251 79.8209 24.792 79.8082C24.076 79.834 23.3985 80.1518 22.9054 80.693C22.4123 81.2342 22.1432 81.9555 22.1561 82.7014ZM71.6219 6.85984C70.9057 6.85973 70.2182 7.15254 69.7074 7.67519C69.1966 8.19785 68.9034 8.90853 68.8909 9.65413C68.8778 10.0324 68.9393 10.4095 69.0716 10.762C69.2039 11.1146 69.4042 11.4352 69.6601 11.704C69.916 11.9728 70.2221 12.1841 70.5596 12.3249C70.897 12.4657 71.2585 12.533 71.6219 12.5226C71.9781 12.5294 72.3319 12.461 72.662 12.3214C72.9921 12.1818 73.2916 11.974 73.5424 11.7106C73.7933 11.4471 73.9902 11.1334 74.1213 10.7884C74.2524 10.4435 74.315 10.0744 74.3053 9.70359C74.3055 8.95788 74.0243 8.24195 73.5223 7.71004C73.0204 7.17814 72.3379 6.87281 71.6219 6.85984ZM84.588 19.6444C84.5785 19.0869 84.4105 18.5449 84.1052 18.0869C83.8 17.6289 83.3711 17.2754 82.873 17.0712C82.3748 16.867 81.8296 16.8211 81.3064 16.9395C80.7832 17.0578 80.3055 17.3351 79.9336 17.7362C79.5617 18.1372 79.3124 18.6441 79.2172 19.1927C79.1219 19.7414 79.185 20.3071 79.3985 20.8183C79.612 21.3296 79.9663 21.7635 80.4166 22.0651C80.8669 22.3667 81.3929 22.5225 81.9282 22.5128C82.6442 22.4934 83.3243 22.1818 83.8218 21.6453C84.3193 21.1087 84.5944 20.3902 84.588 19.6444Z" fill="url(#paint0_linear_4308_2739)"/>
<defs>
<linearGradient id="paint0_linear_4308_2739" x1="46.4986" y1="1.00391" x2="46.4986" y2="92.0178" gradientUnits="userSpaceOnUse">
<stop stop-color="white" stop-opacity="0.66"/>
<stop offset="1" stop-color="#969696" stop-opacity="0"/>
</linearGradient>
</defs>
</svg>
