<svg width="92" height="92" viewBox="0 0 92 92" fill="none" xmlns="http://www.w3.org/2000/svg">
<path d="M58.6685 79.7311C54.7141 81.2381 50.5307 82.0566 46.2999 82.1511C45.9088 82.1755 45.7866 82.3955 45.6399 82.6644C42.4622 88.2215 37.6793 90.9919 31.2913 90.9756C26.1581 91.0081 21.0248 91.0081 15.8916 90.9756C8.11843 90.9756 1.86077 85.8667 0.296356 78.2889C-0.192523 75.82 0.10081 73.3511 0.0274784 70.8822C0.00303441 70.2711 0.418594 70.4666 0.711921 70.4666C3.17261 70.4503 5.64143 70.4503 8.11842 70.4666C8.68063 70.4666 8.92508 70.3688 8.8273 69.7822C8.7908 69.5391 8.7908 69.2919 8.8273 69.0488C8.92508 67.9733 8.77843 67.1911 7.65401 66.5555C6.04071 65.6266 5.52738 63.5488 6.08959 61.7644C6.38332 60.9101 6.92749 60.164 7.65124 59.6234C8.37498 59.0827 9.24476 58.7726 10.1473 58.7333H11.2473C10.6284 57.0036 10.1061 55.2409 9.68284 53.4533C8.39313 47.6454 8.55264 41.6093 10.1473 35.8777C10.2345 35.623 10.2556 35.3503 10.2086 35.0852C10.1616 34.8201 10.048 34.5713 9.8784 34.3621C7.43401 30.728 4.99776 27.0777 2.56966 23.411C-2.73468 15.271 0.491914 4.61318 9.31618 1.09318C17.676 -2.23127 27.1603 2.85318 28.9936 11.6776C29.0425 11.971 29.1158 12.2643 29.2136 12.631C30.6802 12.0199 32.098 11.3354 33.589 10.871C44.7844 7.2206 55.3604 8.5243 65.3173 14.7821C66.0017 15.2221 66.2951 15.1488 66.6862 14.4888C67.0846 13.8365 67.5429 13.2227 68.055 12.6554C68.5439 12.1421 68.3972 11.8732 67.9572 11.4332C65.3173 8.81763 62.7018 6.17763 60.0374 3.56207C59.6463 3.14652 59.5241 2.92651 60.0129 2.48651C60.9174 1.67984 61.6263 0.384286 62.6773 0.0665073C63.7284 -0.251271 64.9506 0.653177 66.0995 1.01984C69.0328 1.97318 71.9416 2.92651 74.8504 3.95318C75.5593 4.19762 75.9993 4.12429 76.586 3.58651C77.6925 2.54679 79.0867 1.86472 80.5867 1.62925C82.0866 1.39378 83.6228 1.61586 84.9947 2.26651C86.3896 2.90855 87.5582 3.95673 88.3476 5.2739C89.1371 6.59106 89.5105 8.11586 89.419 9.64875C89.3655 11.5033 88.5943 13.2648 87.268 14.5621C86.828 15.0021 86.7791 15.3443 86.9746 15.9065C88.2946 19.7688 89.5657 23.6554 90.8857 27.5177C91.0812 28.1043 91.0568 28.4954 90.5679 28.9354C89.8439 29.5535 89.1658 30.2234 88.539 30.9399C88.1235 31.4043 87.8791 31.4043 87.4146 30.9399C84.8236 28.2754 82.1592 25.6843 79.5437 23.0199C79.0792 22.5554 78.8104 22.5065 78.3215 22.9465C77.7054 23.4993 77.0429 23.9982 76.3415 24.4377C75.8038 24.7799 75.7793 25.0243 76.1215 25.5377C78.7203 29.4291 80.5154 33.8006 81.4014 38.3955C82.9169 46.1688 82.0288 53.6733 78.737 60.9088L78.3948 61.6666H86.4124C88.6368 61.6666 90.3723 63.0599 90.8123 65.1866C90.8933 65.5804 90.9262 65.9827 90.9101 66.3844V86.2578C90.9101 89.1178 89.0768 90.9756 86.2413 90.9756H63.3373C60.5018 90.9756 58.6685 89.1178 58.6685 86.2578V79.7311ZM87.2435 26.491C87.2435 26.5643 87.268 26.6866 87.3657 26.6132C87.4635 26.5399 87.3657 26.4666 87.3657 26.3688C86.388 23.4599 85.4347 20.5265 84.4325 17.4954C83.3814 18.4732 82.428 19.4021 81.4503 20.2821C81.1814 20.551 81.3525 20.6732 81.5236 20.8688L87.2435 26.491ZM64.6084 3.6354C64.5351 3.6354 64.4129 3.58651 64.3884 3.61096C64.364 3.6354 64.4373 3.73318 64.5106 3.75763L70.1328 9.47764C70.3039 9.64875 70.4505 9.81986 70.6949 9.55097L73.506 6.56874L64.6084 3.6354ZM74.8015 88.0422H86.2413C87.3902 88.0422 87.9768 87.5044 87.9768 86.4044V66.2622C87.9768 65.1377 87.4146 64.6 86.2658 64.6C85.1169 64.6 83.9436 64.6244 82.7947 64.5755C82.1836 64.5511 82.0858 64.7711 82.1103 65.3088C82.1347 66.8 82.1103 68.2911 82.1347 69.7822C82.1347 70.2711 82.0614 70.4666 81.4992 70.4666C77.0259 70.4422 72.5283 70.4422 68.055 70.4666C67.5661 70.4666 67.4439 70.32 67.4439 69.8555C67.4684 68.2911 67.4439 66.7511 67.4684 65.1866C67.4684 64.6977 67.3217 64.5755 66.8573 64.5755C65.7573 64.6244 64.6573 64.6 63.5573 64.6C62.0662 64.6 61.6018 65.0644 61.6018 66.5555V86.0622C61.6018 87.6022 62.0663 88.0422 63.6307 88.0422H74.8015ZM43.9044 79.2422H16.0627C15.4516 79.2422 15.1339 79.0955 14.865 78.5333C14.1561 76.9933 13.3494 75.4777 12.6161 73.9377C12.5415 73.7452 12.4049 73.583 12.2279 73.4767C12.0508 73.3705 11.8434 73.3263 11.6384 73.3511H4.96518C2.93633 73.3511 2.93631 73.3511 2.96075 75.38C2.97352 78.7129 4.29981 81.9063 6.6519 84.2676C9.004 86.6289 12.1922 87.9676 15.525 87.9933C20.9678 88.0259 26.4025 88.0259 31.8291 87.9933C33.4513 88.0121 35.0614 87.7108 36.5671 87.1068C38.0729 86.5028 39.4448 85.6079 40.6044 84.4733C42.1479 83.0523 43.2866 81.2472 43.9044 79.2422ZM45.4932 44.0666H56.493C57.0552 44.091 57.2019 43.9444 57.1775 43.3821C57.0535 38.9573 56.6206 34.5466 55.8819 30.1821C55.7597 29.5221 55.5153 29.3754 54.8797 29.3754C48.6221 29.4243 42.3644 29.4243 36.1067 29.3754C35.4223 29.3754 35.1779 29.571 35.0801 30.231C34.3345 34.5622 33.8934 38.9404 33.7601 43.3333C33.7357 43.9688 33.9312 44.091 34.5179 44.0666H45.4932ZM45.5421 46.9999H34.469C33.9068 46.9999 33.7357 47.1221 33.7601 47.7088C33.9068 51.2777 34.1757 54.8222 34.6646 58.3666C34.6722 58.5297 34.734 58.6856 34.8403 58.8096C34.9466 58.9336 35.0912 59.0186 35.2512 59.0511C35.7461 59.2127 36.2041 59.4709 36.5985 59.8108C36.9929 60.1507 37.316 60.5654 37.5489 61.0311C37.7934 61.5444 38.0867 61.6911 38.6489 61.6911H54.8553C55.5642 61.7155 55.7597 61.4711 55.8819 60.8355C56.6155 56.5027 57.0565 52.1254 57.2019 47.7333C57.2019 47.0977 56.9819 46.9999 56.4197 46.9999H45.5421ZM2.96075 14.9043C2.96075 17.3977 3.49854 19.4754 4.84296 21.5043C7.67845 25.831 10.5628 30.1332 13.4472 34.4355C14.1561 35.511 15.1827 35.5355 15.8916 34.4844C18.8249 30.1088 21.7582 25.7332 24.6426 21.3088C26.427 18.5221 26.8425 15.4177 26.1336 12.2399C24.8137 6.39763 19.3382 2.41318 13.5694 3.04874C10.6395 3.34179 7.92558 4.72132 5.96206 6.91562C3.99854 9.10992 2.92781 11.9599 2.96075 14.9043ZM58.693 61.6177L59.1818 61.6666H74.4838C74.9482 61.6666 75.1438 61.4955 75.3638 61.1044C77.5225 56.9179 78.8035 52.3346 79.1281 47.6355C79.1526 47.0733 79.0059 46.9755 78.4926 46.9999H60.7218C60.2574 46.9999 60.1107 47.1221 60.1107 47.611C60.0151 52.3104 59.5409 56.9945 58.693 61.6177ZM21.3671 46.9999H12.4939C12.0783 46.9999 11.7606 46.9266 11.8095 47.5866C12.0609 51.1801 12.852 54.7153 14.1561 58.0733C14.3516 58.5622 14.5961 58.7333 15.1583 58.7333H31.0957C31.7068 58.7333 31.7802 58.5622 31.7068 58.0244C31.1446 54.6022 30.9491 51.1555 30.8513 47.7088C30.8513 47.0977 30.6313 46.9755 30.0691 46.9755L21.3671 46.9999ZM11.8095 43.9933L12.2495 44.0666H30.1913C30.7535 44.091 30.8269 43.871 30.8269 43.4066C30.9002 40.8888 31.0469 38.3955 31.3157 35.9021C31.5846 33.4088 31.878 31.5999 32.2202 29.3999C29.1891 29.3999 26.2314 29.4243 23.2737 29.3999C22.8092 29.3754 22.6382 29.6443 22.4426 29.9377L18.5316 35.8044C16.9916 38.1266 15.3539 38.6644 12.6895 37.7355C12.1881 39.7868 11.8934 41.8832 11.8095 43.9933ZM58.693 29.4488C59.5342 34.0643 60.0001 38.7403 60.0863 43.431C60.1107 43.9199 60.2329 44.0666 60.7463 44.0666H78.517C78.957 44.0666 79.1526 44.0177 79.1037 43.4799C78.7659 37.7289 76.9471 32.1629 73.8238 27.3221C73.6527 27.0777 73.5793 26.6866 73.0905 26.6377C73.1333 26.9094 73.1904 27.1786 73.2616 27.4443C73.7504 29.4488 74.2393 31.4532 74.7771 33.4577C74.8658 33.6957 74.8781 33.9554 74.8124 34.2007C74.7467 34.446 74.6062 34.6648 74.4104 34.8266C73.1149 36.0244 71.8683 37.2955 70.6461 38.5666C70.1572 39.0799 69.9372 39.2021 69.5705 38.4199C68.4217 35.9999 67.175 33.6288 66.0262 31.2332C65.7573 30.671 65.4884 30.5488 64.9262 30.7443C63.8751 31.0621 62.7507 30.9399 61.9685 30.2066C61.1863 29.4732 59.9396 29.351 58.693 29.4488ZM82.0859 4.49096C80.4725 4.46652 79.3726 4.93096 78.3459 5.93318C76.8793 7.37541 75.4371 8.81764 74.0193 10.2843C69.5323 14.8767 65.9133 20.2431 63.3373 26.1243C63.1173 26.6377 62.8484 27.1266 63.3618 27.6399C63.8751 28.1532 64.364 27.8599 64.8773 27.6399C72.9683 24.2177 79.4948 18.6688 85.3613 12.2888C86.7057 10.8465 86.9013 9.03763 86.0702 7.25319C85.2391 5.46874 83.748 4.56429 82.0859 4.49096ZM35.9112 26.4421H55.0508C54.7819 25.5132 54.4886 24.6577 54.2931 23.7777C54.0975 22.8977 53.5842 21.6021 52.2887 21.2354C51.7265 21.0888 51.9464 20.8443 52.2153 20.5754C52.4842 20.3065 52.9975 20.0377 52.6798 19.3777C51.8976 17.6665 51.042 15.9799 49.8443 14.4888C46.9843 10.9199 43.9533 10.9199 41.1178 14.5376C38.2823 18.1554 37.0601 22.1643 35.9112 26.4421ZM46.9354 79.0955C52.0931 75.4778 53.3642 69.9777 55.0753 64.6733L54.7086 64.6H38.4045C38.0134 64.6 37.7934 64.6977 37.6467 65.0644C37.3912 65.7234 36.9278 66.2812 36.3268 66.6533C35.9112 66.9222 35.8868 67.1177 36.1067 67.5333C37.5001 70.2711 38.8689 73.0333 40.2133 75.7955C40.4578 76.26 40.7267 76.3577 41.2155 76.3577H46.3488C46.8132 76.3577 46.9843 76.48 46.9354 76.9689C46.8865 77.4578 46.9354 78.1911 46.9354 79.0955ZM37.2312 76.3089C35.8623 73.5711 34.5179 70.9555 33.2468 68.2911C32.929 67.68 32.5868 67.5088 31.9268 67.5088H13.3494C11.7606 67.5088 11.7606 67.5089 11.7606 69.1222C11.7606 70.7355 11.7606 70.4911 13.0806 70.4177C13.8628 70.3689 14.2783 70.5889 14.5961 71.3222C15.2561 72.8378 16.0627 74.28 16.7716 75.7466C16.9427 76.1133 17.1383 76.3089 17.5782 76.3089H37.2312ZM38.9178 12.5576H38.5756C35.4739 13.2013 32.4785 14.2794 29.678 15.7599C29.2869 15.9554 29.238 16.2488 29.2136 16.591C28.9936 19.3777 27.9425 21.8221 26.3536 24.0954C25.8159 24.8532 25.327 25.6354 24.7648 26.491H32.2446C32.7335 26.491 32.929 26.3443 33.0513 25.8554C33.3935 24.5191 33.7846 23.1747 34.2246 21.8221C35.3246 18.5221 36.7178 15.3688 38.9178 12.5576ZM22.027 64.6H33.6379C34.5668 64.6 35.2023 63.9888 35.2023 63.1577C35.2023 62.3266 34.5912 61.74 33.6624 61.6911H10.8073C10.5626 61.6743 10.3169 61.6825 10.0739 61.7155C9.7522 61.7531 9.45303 61.8997 9.22622 62.131C8.9994 62.3622 8.85862 62.6642 8.8273 62.9866C8.75397 63.7199 9.12064 64.2088 9.78062 64.5022C10.0935 64.6147 10.4274 64.6564 10.7584 64.6244L22.027 64.6ZM51.9464 78.5822C54.1464 78.2155 56.1019 77.5555 58.033 76.8466C58.5463 76.6511 58.6685 76.3577 58.6685 75.82C58.6441 72.7155 58.6685 69.6111 58.6685 66.4822C58.6685 66.0666 58.7419 65.6511 58.7419 65.2111C58.7419 64.7711 59.133 64.6733 58.5952 64.6C58.0574 64.5266 58.033 64.6733 57.9108 65.0889C56.713 69.8555 55.0997 74.4755 51.9464 78.5822ZM74.8015 64.6H72.6016C70.3283 64.6 70.3528 64.6 70.3772 66.8733C70.3772 67.3866 70.5238 67.5333 71.0372 67.5333C72.9927 67.5089 74.9482 67.5333 76.9037 67.5333C79.2992 67.5333 79.2992 67.5333 79.2015 65.1377C79.177 64.6977 79.0792 64.5755 78.6392 64.5755L74.8015 64.6ZM64.3151 17.9354L64.3884 17.6665C60.6674 15.104 56.4561 13.3395 52.0198 12.4843C53.1083 13.8738 54.035 15.3828 54.7819 16.9821C55.0508 17.5688 55.2953 17.691 55.6619 17.1043C56.3219 16.1265 57.2019 15.9554 58.2285 16.4199L58.4974 16.4932L64.3151 17.9354ZM56.8352 20.2332L60.1352 21.8954C61.7729 22.7266 61.7485 22.7021 62.5307 21.0888C62.7507 20.6488 62.6773 20.5265 62.2373 20.4288C61.0151 20.1354 59.8174 19.891 58.6197 19.4999C57.7886 19.2554 57.2508 19.4265 56.8352 20.2332ZM70.7439 34.191C71.6238 33.7021 71.7461 33.1155 71.4772 32.3088C71.2083 31.5021 71.0616 30.7199 70.8416 29.9377C70.3528 28.0554 70.3772 28.0554 68.715 29.0577C68.4217 29.2288 68.3239 29.351 68.495 29.6932C69.2772 31.1599 69.9861 32.6755 70.7439 34.191ZM57.373 23.8021C57.593 24.6577 57.7885 25.3421 57.9352 26.051C58.0085 26.3199 58.1063 26.491 58.4241 26.4666H59.7929C60.2574 26.491 60.2329 26.1488 60.3063 25.8799C60.3796 25.611 60.5507 25.3666 60.1596 25.1954L57.373 23.8021Z" fill="#0F4FE3"/>
<path d="M64.3887 3.61231C64.4131 3.58787 64.5353 3.63676 64.6087 3.63676L64.3887 3.61231Z" fill="#0F4FE3"/>
<path d="M77.7839 82.1758C79.1772 82.1758 79.1772 82.1758 79.1772 83.618C79.1772 85.0602 79.1772 85.1091 77.6617 85.1091C76.1462 85.1091 76.244 85.1091 76.244 83.6669C76.244 82.2247 76.2439 82.1758 77.7839 82.1758Z" fill="#0F4FE3"/>
<path d="M83.6503 85.1091C82.1103 85.1091 82.1104 85.1091 82.1104 83.5447C82.1104 81.9802 82.1103 82.1758 83.5036 82.1758C84.897 82.1758 85.0436 82.1758 85.0436 83.7647C85.0436 85.3536 85.0436 85.1091 83.6503 85.1091Z" fill="#0F4FE3"/>
<path d="M39.6268 38.1994C41.069 38.1994 41.069 38.1994 41.069 39.6905C41.069 41.1816 41.069 41.1327 39.6024 41.1327C38.1357 41.1327 38.1357 41.1327 38.1357 39.6416C38.1357 38.1505 38.1357 38.1994 39.6268 38.1994Z" fill="#0F4FE3"/>
<path d="M45.4932 38.1992C46.9354 38.1992 46.9354 38.1992 46.9354 39.5926C46.9354 40.9859 46.9354 41.1326 45.4443 41.1326C43.9533 41.1326 44.0021 41.1326 44.0021 39.7392C44.0021 38.3459 44.0021 38.1992 45.4932 38.1992Z" fill="#0F4FE3"/>
<path d="M52.8019 39.7391C52.8019 41.1324 52.8019 41.1324 51.4331 41.1324C50.0642 41.1324 49.8687 41.1324 49.8687 39.5924C49.8687 38.0524 49.8686 38.1991 51.2375 38.1991C52.6064 38.1991 52.8019 38.1991 52.8019 39.7391Z" fill="#0F4FE3"/>
<path d="M52.8019 51.3269C52.8019 52.8669 52.8019 52.8669 51.2375 52.8669C49.6731 52.8669 49.8687 52.8669 49.8687 51.4736C49.8687 50.0803 49.8687 49.9336 51.4331 49.9336C52.9975 49.9336 52.8019 49.9336 52.8019 51.3269Z" fill="#0F4FE3"/>
<path d="M41.069 51.4003C41.069 52.8669 41.069 52.8669 39.6024 52.8669C38.1357 52.8669 38.1357 52.8669 38.1357 51.4003C38.1357 49.9336 38.1357 49.9336 39.6024 49.9336C41.069 49.9336 41.069 49.9336 41.069 51.4003Z" fill="#0F4FE3"/>
<path d="M44.002 51.3269C44.002 49.9336 44.002 49.9336 45.4442 49.9336C46.8863 49.9336 46.9352 49.9336 46.9352 51.3758C46.9352 52.818 46.9352 52.8669 45.493 52.8669C44.0508 52.8669 44.002 52.8669 44.002 51.3269Z" fill="#0F4FE3"/>
<path d="M14.6939 5.95703C16.4354 5.95704 18.1377 6.47377 19.5853 7.44181C21.033 8.40986 22.1609 9.78568 22.8262 11.3951C23.4915 13.0045 23.6643 14.7752 23.3228 16.4829C22.9813 18.1906 22.1407 19.7585 20.9076 20.9882C19.6745 22.218 18.1042 23.0542 16.3956 23.3909C14.687 23.7277 12.9169 23.55 11.3094 22.8802C9.70185 22.2104 8.32921 21.0786 7.36522 19.6283C6.40123 18.1779 5.88924 16.4741 5.89408 14.7326C5.90055 12.4029 6.83053 10.1709 8.48012 8.52585C10.1297 6.88081 12.3643 5.95702 14.6939 5.95703ZM20.536 14.7082C20.5312 13.5479 20.1824 12.415 19.5337 11.453C18.8851 10.4909 17.9657 9.74279 16.8919 9.30324C15.8181 8.86368 14.6381 8.75241 13.501 8.98352C12.364 9.21463 11.321 9.77773 10.504 10.6016C9.68697 11.4255 9.13258 12.4731 8.91096 13.6121C8.68934 14.751 8.81043 15.9301 9.25891 17.0003C9.70739 18.0704 10.4631 18.9835 11.4305 19.6241C12.398 20.2647 13.5336 20.6041 14.6939 20.5993C15.4643 20.5961 16.2266 20.4412 16.9371 20.1434C17.6476 19.8456 18.2926 19.4107 18.8351 18.8637C19.3775 18.3167 19.807 17.6681 20.0988 16.9551C20.3907 16.2421 20.5392 15.4786 20.536 14.7082Z" fill="#0F4FE3"/>
<path d="M81.0105 12.1667C80.7172 11.7756 80.5216 11.4578 80.2772 11.1889C79.0061 9.91779 79.0305 9.94224 80.2772 8.62223C80.8883 7.96223 81.2305 7.91334 81.866 8.59779C83.1127 9.96668 83.1371 9.9178 81.8171 11.2622C81.5727 11.5067 81.3772 11.7511 81.0105 12.1667Z" fill="#0F4FE3"/>
<path d="M72.8951 16.0547C73.1377 16.387 73.3988 16.7053 73.6773 17.008C74.8507 18.2303 74.8262 18.1814 73.7018 19.428C73.0418 20.1614 72.6751 20.0636 72.0396 19.3791C70.8418 18.0836 70.793 18.108 72.064 16.8614L72.8951 16.0547Z" fill="#0F4FE3"/>
<path d="M78.957 14.0721L78.6637 14.3898C77.026 16.2965 76.9526 16.2965 75.2416 14.4632C74.9727 14.1698 74.8993 14.0232 75.2171 13.6809C76.8548 11.8721 77.1237 11.8476 78.6881 13.7543L78.957 14.0721Z" fill="#0F4FE3"/>
<path d="M19.1182 70.4688C20.536 70.4688 20.536 70.4687 20.536 71.8621C20.536 73.2554 20.536 73.3776 19.0449 73.3776C17.5538 73.3776 17.6027 73.3776 17.6027 71.9843C17.6027 70.591 17.6027 70.4688 19.1182 70.4688Z" fill="#0F4FE3"/>
<path d="M26.4025 71.9827C26.4025 73.3761 26.4025 73.3761 24.9848 73.3761C23.567 73.3761 23.4692 73.3761 23.4692 71.8605C23.4692 70.345 23.4692 70.4672 24.9114 70.4672C26.3536 70.4672 26.4025 70.4672 26.4025 71.9827Z" fill="#0F4FE3"/>
<path d="M30.7292 73.3776C29.3359 73.3776 29.3359 73.3776 29.3359 72.0332C29.3359 70.6887 29.3359 70.4688 30.8759 70.4688C32.4159 70.4688 32.2692 70.4688 32.2692 71.8132C32.2692 73.1576 32.2692 73.3776 30.7292 73.3776Z" fill="#0F4FE3"/>
<path d="M59.6685 80.7311C55.7141 82.2381 51.5307 83.0566 47.2999 83.1511C46.9088 83.1755 46.7866 83.3955 46.6399 83.6644C43.4622 89.2215 38.6793 91.9919 32.2913 91.9756C27.1581 92.0081 22.0248 92.0081 16.8916 91.9756C9.11843 91.9756 2.86077 86.8667 1.29636 79.2889C0.807477 76.82 1.10081 74.3511 1.02748 71.8822C1.00303 71.2711 1.41859 71.4666 1.71192 71.4666C4.17261 71.4503 6.64143 71.4503 9.11842 71.4666C9.68063 71.4666 9.92508 71.3688 9.8273 70.7822C9.7908 70.5391 9.7908 70.2919 9.8273 70.0488C9.92508 68.9733 9.77843 68.1911 8.65401 67.5555C7.04071 66.6266 6.52738 64.5488 7.08959 62.7644C7.38332 61.9101 7.92749 61.164 8.65124 60.6234C9.37498 60.0827 10.2448 59.7726 11.1473 59.7333H12.2473C11.6284 58.0036 11.1061 56.2409 10.6828 54.4533C9.39313 48.6454 9.55264 42.6093 11.1473 36.8777C11.2345 36.623 11.2556 36.3503 11.2086 36.0852C11.1616 35.8201 11.048 35.5713 10.8784 35.3621C8.43401 31.728 5.99776 28.0777 3.56966 24.411C-1.73468 16.271 1.49191 5.61318 10.3162 2.09318C18.676 -1.23127 28.1603 3.85318 29.9936 12.6776C30.0425 12.971 30.1158 13.2643 30.2136 13.631C31.6802 13.0199 33.098 12.3354 34.589 11.871C45.7844 8.2206 56.3604 9.5243 66.3173 15.7821C67.0017 16.2221 67.2951 16.1488 67.6862 15.4888C68.0846 14.8365 68.5429 14.2227 69.055 13.6554C69.5439 13.1421 69.3972 12.8732 68.9572 12.4332C66.3173 9.81763 63.7018 7.17763 61.0374 4.56207C60.6463 4.14652 60.5241 3.92651 61.0129 3.48651C61.9174 2.67984 62.6263 1.38429 63.6773 1.06651C64.7284 0.748729 65.9506 1.65318 67.0995 2.01984C70.0328 2.97318 72.9416 3.92651 75.8504 4.95318C76.5593 5.19762 76.9993 5.12429 77.586 4.58651C78.6925 3.54679 80.0867 2.86472 81.5867 2.62925C83.0866 2.39378 84.6228 2.61586 85.9947 3.26651C87.3896 3.90855 88.5582 4.95673 89.3476 6.2739C90.1371 7.59106 90.5105 9.11586 90.419 10.6487C90.3655 12.5033 89.5943 14.2648 88.268 15.5621C87.828 16.0021 87.7791 16.3443 87.9746 16.9065C89.2946 20.7688 90.5657 24.6554 91.8857 28.5177C92.0812 29.1043 92.0568 29.4954 91.5679 29.9354C90.8439 30.5535 90.1658 31.2234 89.539 31.9399C89.1235 32.4043 88.8791 32.4043 88.4146 31.9399C85.8236 29.2754 83.1592 26.6843 80.5437 24.0199C80.0792 23.5554 79.8104 23.5065 79.3215 23.9465C78.7054 24.4993 78.0429 24.9982 77.3415 25.4377C76.8038 25.7799 76.7793 26.0243 77.1215 26.5377C79.7203 30.4291 81.5154 34.8006 82.4014 39.3955C83.9169 47.1688 83.0288 54.6733 79.737 61.9088L79.3948 62.6666H87.4124C89.6368 62.6666 91.3723 64.0599 91.8123 66.1866C91.8933 66.5804 91.9262 66.9827 91.9101 67.3844V87.2578C91.9101 90.1178 90.0768 91.9756 87.2413 91.9756H64.3373C61.5018 91.9756 59.6685 90.1178 59.6685 87.2578V80.7311ZM88.2435 27.491C88.2435 27.5643 88.268 27.6866 88.3657 27.6132C88.4635 27.5399 88.3657 27.4666 88.3657 27.3688C87.388 24.4599 86.4347 21.5265 85.4325 18.4954C84.3814 19.4732 83.428 20.4021 82.4503 21.2821C82.1814 21.551 82.3525 21.6732 82.5236 21.8688L88.2435 27.491ZM65.6084 4.6354C65.5351 4.6354 65.4129 4.58651 65.3884 4.61096C65.364 4.6354 65.4373 4.73318 65.5106 4.75763L71.1328 10.4776C71.3039 10.6487 71.4505 10.8199 71.6949 10.551L74.506 7.56874L65.6084 4.6354ZM75.8015 89.0422H87.2413C88.3902 89.0422 88.9768 88.5044 88.9768 87.4044V67.2622C88.9768 66.1377 88.4146 65.6 87.2658 65.6C86.1169 65.6 84.9436 65.6244 83.7947 65.5755C83.1836 65.5511 83.0858 65.7711 83.1103 66.3088C83.1347 67.8 83.1103 69.2911 83.1347 70.7822C83.1347 71.2711 83.0614 71.4666 82.4992 71.4666C78.0259 71.4422 73.5283 71.4422 69.055 71.4666C68.5661 71.4666 68.4439 71.32 68.4439 70.8555C68.4684 69.2911 68.4439 67.7511 68.4684 66.1866C68.4684 65.6977 68.3217 65.5755 67.8573 65.5755C66.7573 65.6244 65.6573 65.6 64.5573 65.6C63.0662 65.6 62.6018 66.0644 62.6018 67.5555V87.0622C62.6018 88.6022 63.0663 89.0422 64.6307 89.0422H75.8015ZM44.9044 80.2422H17.0627C16.4516 80.2422 16.1339 80.0955 15.865 79.5333C15.1561 77.9933 14.3494 76.4777 13.6161 74.9377C13.5415 74.7452 13.4049 74.583 13.2279 74.4767C13.0508 74.3705 12.8434 74.3263 12.6384 74.3511H5.96518C3.93633 74.3511 3.93631 74.3511 3.96075 76.38C3.97352 79.7129 5.29981 82.9063 7.6519 85.2676C10.004 87.6289 13.1922 88.9676 16.525 88.9933C21.9678 89.0259 27.4025 89.0259 32.8291 88.9933C34.4513 89.0121 36.0614 88.7108 37.5671 88.1068C39.0729 87.5028 40.4448 86.6079 41.6044 85.4733C43.1479 84.0523 44.2866 82.2472 44.9044 80.2422ZM46.4932 45.0666H57.493C58.0552 45.091 58.2019 44.9444 58.1775 44.3821C58.0535 39.9573 57.6206 35.5466 56.8819 31.1821C56.7597 30.5221 56.5153 30.3754 55.8797 30.3754C49.6221 30.4243 43.3644 30.4243 37.1067 30.3754C36.4223 30.3754 36.1779 30.571 36.0801 31.231C35.3345 35.5622 34.8934 39.9404 34.7601 44.3333C34.7357 44.9688 34.9312 45.091 35.5179 45.0666H46.4932ZM46.5421 47.9999H35.469C34.9068 47.9999 34.7357 48.1221 34.7601 48.7088C34.9068 52.2777 35.1757 55.8222 35.6646 59.3666C35.6722 59.5297 35.734 59.6856 35.8403 59.8096C35.9466 59.9336 36.0912 60.0186 36.2512 60.0511C36.7461 60.2127 37.2041 60.4709 37.5985 60.8108C37.9929 61.1507 38.316 61.5654 38.5489 62.0311C38.7934 62.5444 39.0867 62.6911 39.6489 62.6911H55.8553C56.5642 62.7155 56.7597 62.4711 56.8819 61.8355C57.6155 57.5027 58.0565 53.1254 58.2019 48.7333C58.2019 48.0977 57.9819 47.9999 57.4197 47.9999H46.5421ZM3.96075 15.9043C3.96075 18.3977 4.49854 20.4754 5.84296 22.5043C8.67845 26.831 11.5628 31.1332 14.4472 35.4355C15.1561 36.511 16.1827 36.5355 16.8916 35.4844C19.8249 31.1088 22.7582 26.7332 25.6426 22.3088C27.427 19.5221 27.8425 16.4177 27.1336 13.2399C25.8137 7.39763 20.3382 3.41318 14.5694 4.04874C11.6395 4.34179 8.92558 5.72132 6.96206 7.91562C4.99854 10.1099 3.92781 12.9599 3.96075 15.9043ZM59.693 62.6177L60.1818 62.6666H75.4838C75.9482 62.6666 76.1438 62.4955 76.3638 62.1044C78.5225 57.9179 79.8035 53.3346 80.1281 48.6355C80.1526 48.0733 80.0059 47.9755 79.4926 47.9999H61.7218C61.2574 47.9999 61.1107 48.1221 61.1107 48.611C61.0151 53.3104 60.5409 57.9945 59.693 62.6177ZM22.3671 47.9999H13.4939C13.0783 47.9999 12.7606 47.9266 12.8095 48.5866C13.0609 52.1801 13.852 55.7153 15.1561 59.0733C15.3516 59.5622 15.5961 59.7333 16.1583 59.7333H32.0957C32.7068 59.7333 32.7802 59.5622 32.7068 59.0244C32.1446 55.6022 31.9491 52.1555 31.8513 48.7088C31.8513 48.0977 31.6313 47.9755 31.0691 47.9755L22.3671 47.9999ZM12.8095 44.9933L13.2495 45.0666H31.1913C31.7535 45.091 31.8269 44.871 31.8269 44.4066C31.9002 41.8888 32.0469 39.3955 32.3157 36.9021C32.5846 34.4088 32.878 32.5999 33.2202 30.3999C30.1891 30.3999 27.2314 30.4243 24.2737 30.3999C23.8092 30.3754 23.6382 30.6443 23.4426 30.9377L19.5316 36.8044C17.9916 39.1266 16.3539 39.6644 13.6895 38.7355C13.1881 40.7868 12.8934 42.8832 12.8095 44.9933ZM59.693 30.4488C60.5342 35.0643 61.0001 39.7403 61.0863 44.431C61.1107 44.9199 61.2329 45.0666 61.7463 45.0666H79.517C79.957 45.0666 80.1526 45.0177 80.1037 44.4799C79.7659 38.7289 77.9471 33.1629 74.8238 28.3221C74.6527 28.0777 74.5793 27.6866 74.0905 27.6377C74.1333 27.9094 74.1904 28.1786 74.2616 28.4443C74.7504 30.4488 75.2393 32.4532 75.7771 34.4577C75.8658 34.6957 75.8781 34.9554 75.8124 35.2007C75.7467 35.446 75.6062 35.6648 75.4104 35.8266C74.1149 37.0244 72.8683 38.2955 71.6461 39.5666C71.1572 40.0799 70.9372 40.2021 70.5705 39.4199C69.4217 36.9999 68.175 34.6288 67.0262 32.2332C66.7573 31.671 66.4884 31.5488 65.9262 31.7443C64.8751 32.0621 63.7507 31.9399 62.9685 31.2066C62.1863 30.4732 60.9396 30.351 59.693 30.4488ZM83.0859 5.49096C81.4725 5.46652 80.3726 5.93096 79.3459 6.93318C77.8793 8.37541 76.4371 9.81764 75.0193 11.2843C70.5323 15.8767 66.9133 21.2431 64.3373 27.1243C64.1173 27.6377 63.8484 28.1266 64.3618 28.6399C64.8751 29.1532 65.364 28.8599 65.8773 28.6399C73.9683 25.2177 80.4948 19.6688 86.3613 13.2888C87.7057 11.8465 87.9013 10.0376 87.0702 8.25319C86.2391 6.46874 84.748 5.56429 83.0859 5.49096ZM36.9112 27.4421H56.0508C55.7819 26.5132 55.4886 25.6577 55.2931 24.7777C55.0975 23.8977 54.5842 22.6021 53.2887 22.2354C52.7265 22.0888 52.9464 21.8443 53.2153 21.5754C53.4842 21.3065 53.9975 21.0377 53.6798 20.3777C52.8976 18.6665 52.042 16.9799 50.8443 15.4888C47.9843 11.9199 44.9533 11.9199 42.1178 15.5376C39.2823 19.1554 38.0601 23.1643 36.9112 27.4421ZM47.9354 80.0955C53.0931 76.4778 54.3642 70.9777 56.0753 65.6733L55.7086 65.6H39.4045C39.0134 65.6 38.7934 65.6977 38.6467 66.0644C38.3912 66.7234 37.9278 67.2812 37.3268 67.6533C36.9112 67.9222 36.8868 68.1177 37.1067 68.5333C38.5001 71.2711 39.8689 74.0333 41.2133 76.7955C41.4578 77.26 41.7267 77.3577 42.2155 77.3577H47.3488C47.8132 77.3577 47.9843 77.48 47.9354 77.9689C47.8865 78.4578 47.9354 79.1911 47.9354 80.0955ZM38.2312 77.3089C36.8623 74.5711 35.5179 71.9555 34.2468 69.2911C33.929 68.68 33.5868 68.5088 32.9268 68.5088H14.3494C12.7606 68.5088 12.7606 68.5089 12.7606 70.1222C12.7606 71.7355 12.7606 71.4911 14.0806 71.4177C14.8628 71.3689 15.2783 71.5889 15.5961 72.3222C16.2561 73.8378 17.0627 75.28 17.7716 76.7466C17.9427 77.1133 18.1383 77.3089 18.5782 77.3089H38.2312ZM39.9178 13.5576H39.5756C36.4739 14.2013 33.4785 15.2794 30.678 16.7599C30.2869 16.9554 30.238 17.2488 30.2136 17.591C29.9936 20.3777 28.9425 22.8221 27.3536 25.0954C26.8159 25.8532 26.327 26.6354 25.7648 27.491H33.2446C33.7335 27.491 33.929 27.3443 34.0513 26.8554C34.3935 25.5191 34.7846 24.1747 35.2246 22.8221C36.3246 19.5221 37.7178 16.3688 39.9178 13.5576ZM23.027 65.6H34.6379C35.5668 65.6 36.2023 64.9888 36.2023 64.1577C36.2023 63.3266 35.5912 62.74 34.6624 62.6911H11.8073C11.5626 62.6743 11.3169 62.6825 11.0739 62.7155C10.7522 62.7531 10.453 62.8997 10.2262 63.131C9.9994 63.3622 9.85862 63.6642 9.8273 63.9866C9.75397 64.7199 10.1206 65.2088 10.7806 65.5022C11.0935 65.6147 11.4274 65.6564 11.7584 65.6244L23.027 65.6ZM52.9464 79.5822C55.1464 79.2155 57.1019 78.5555 59.033 77.8466C59.5463 77.6511 59.6685 77.3577 59.6685 76.82C59.6441 73.7155 59.6685 70.6111 59.6685 67.4822C59.6685 67.0666 59.7419 66.6511 59.7419 66.2111C59.7419 65.7711 60.133 65.6733 59.5952 65.6C59.0574 65.5266 59.033 65.6733 58.9108 66.0889C57.713 70.8555 56.0997 75.4755 52.9464 79.5822ZM75.8015 65.6H73.6016C71.3283 65.6 71.3528 65.6 71.3772 67.8733C71.3772 68.3866 71.5238 68.5333 72.0372 68.5333C73.9927 68.5089 75.9482 68.5333 77.9037 68.5333C80.2992 68.5333 80.2992 68.5333 80.2015 66.1377C80.177 65.6977 80.0792 65.5755 79.6392 65.5755L75.8015 65.6ZM65.3151 18.9354L65.3884 18.6665C61.6674 16.104 57.4561 14.3395 53.0198 13.4843C54.1083 14.8738 55.035 16.3828 55.7819 17.9821C56.0508 18.5688 56.2953 18.691 56.6619 18.1043C57.3219 17.1265 58.2019 16.9554 59.2285 17.4199L59.4974 17.4932L65.3151 18.9354ZM57.8352 21.2332L61.1352 22.8954C62.7729 23.7266 62.7485 23.7021 63.5307 22.0888C63.7507 21.6488 63.6773 21.5265 63.2373 21.4288C62.0151 21.1354 60.8174 20.891 59.6197 20.4999C58.7886 20.2554 58.2508 20.4265 57.8352 21.2332ZM71.7439 35.191C72.6238 34.7021 72.7461 34.1155 72.4772 33.3088C72.2083 32.5021 72.0616 31.7199 71.8416 30.9377C71.3528 29.0554 71.3772 29.0554 69.715 30.0577C69.4217 30.2288 69.3239 30.351 69.495 30.6932C70.2772 32.1599 70.9861 33.6755 71.7439 35.191ZM58.373 24.8021C58.593 25.6577 58.7885 26.3421 58.9352 27.051C59.0085 27.3199 59.1063 27.491 59.4241 27.4666H60.7929C61.2574 27.491 61.2329 27.1488 61.3063 26.8799C61.3796 26.611 61.5507 26.3666 61.1596 26.1954L58.373 24.8021Z" fill="url(#paint0_linear_4300_2610)"/>
<path d="M65.3887 4.61231C65.4131 4.58787 65.5353 4.63676 65.6087 4.63676L65.3887 4.61231Z" fill="url(#paint1_linear_4300_2610)"/>
<path d="M78.7839 83.1758C80.1772 83.1758 80.1772 83.1758 80.1772 84.618C80.1772 86.0602 80.1772 86.1091 78.6617 86.1091C77.1462 86.1091 77.244 86.1091 77.244 84.6669C77.244 83.2247 77.2439 83.1758 78.7839 83.1758Z" fill="url(#paint2_linear_4300_2610)"/>
<path d="M84.6503 86.1091C83.1103 86.1091 83.1104 86.1091 83.1104 84.5447C83.1104 82.9802 83.1103 83.1758 84.5036 83.1758C85.897 83.1758 86.0436 83.1758 86.0436 84.7647C86.0436 86.3536 86.0436 86.1091 84.6503 86.1091Z" fill="url(#paint3_linear_4300_2610)"/>
<path d="M40.6268 39.1994C42.069 39.1994 42.069 39.1994 42.069 40.6905C42.069 42.1816 42.069 42.1327 40.6024 42.1327C39.1357 42.1327 39.1357 42.1327 39.1357 40.6416C39.1357 39.1505 39.1357 39.1994 40.6268 39.1994Z" fill="url(#paint4_linear_4300_2610)"/>
<path d="M46.4932 39.1992C47.9354 39.1992 47.9354 39.1992 47.9354 40.5926C47.9354 41.9859 47.9354 42.1326 46.4443 42.1326C44.9533 42.1326 45.0021 42.1326 45.0021 40.7392C45.0021 39.3459 45.0021 39.1992 46.4932 39.1992Z" fill="url(#paint5_linear_4300_2610)"/>
<path d="M53.8019 40.7391C53.8019 42.1324 53.8019 42.1324 52.4331 42.1324C51.0642 42.1324 50.8687 42.1324 50.8687 40.5924C50.8687 39.0524 50.8686 39.1991 52.2375 39.1991C53.6064 39.1991 53.8019 39.1991 53.8019 40.7391Z" fill="url(#paint6_linear_4300_2610)"/>
<path d="M53.8019 52.3269C53.8019 53.8669 53.8019 53.8669 52.2375 53.8669C50.6731 53.8669 50.8687 53.8669 50.8687 52.4736C50.8687 51.0803 50.8687 50.9336 52.4331 50.9336C53.9975 50.9336 53.8019 50.9336 53.8019 52.3269Z" fill="url(#paint7_linear_4300_2610)"/>
<path d="M42.069 52.4003C42.069 53.8669 42.069 53.8669 40.6024 53.8669C39.1357 53.8669 39.1357 53.8669 39.1357 52.4003C39.1357 50.9336 39.1357 50.9336 40.6024 50.9336C42.069 50.9336 42.069 50.9336 42.069 52.4003Z" fill="url(#paint8_linear_4300_2610)"/>
<path d="M45.002 52.3269C45.002 50.9336 45.002 50.9336 46.4442 50.9336C47.8863 50.9336 47.9352 50.9336 47.9352 52.3758C47.9352 53.818 47.9352 53.8669 46.493 53.8669C45.0508 53.8669 45.002 53.8669 45.002 52.3269Z" fill="url(#paint9_linear_4300_2610)"/>
<path d="M15.6939 6.95703C17.4354 6.95704 19.1377 7.47377 20.5853 8.44181C22.033 9.40986 23.1609 10.7857 23.8262 12.3951C24.4915 14.0045 24.6643 15.7752 24.3228 17.4829C23.9813 19.1906 23.1407 20.7585 21.9076 21.9882C20.6745 23.218 19.1042 24.0542 17.3956 24.3909C15.687 24.7277 13.9169 24.55 12.3094 23.8802C10.7018 23.2104 9.32921 22.0786 8.36522 20.6283C7.40123 19.1779 6.88924 17.4741 6.89408 15.7326C6.90055 13.4029 7.83053 11.1709 9.48012 9.52585C11.1297 7.88081 13.3643 6.95702 15.6939 6.95703ZM21.536 15.7082C21.5312 14.5479 21.1824 13.415 20.5337 12.453C19.8851 11.4909 18.9657 10.7428 17.8919 10.3032C16.8181 9.86368 15.6381 9.75241 14.501 9.98352C13.364 10.2146 12.321 10.7777 11.504 11.6016C10.687 12.4255 10.1326 13.4731 9.91096 14.6121C9.68934 15.751 9.81043 16.9301 10.2589 18.0003C10.7074 19.0704 11.4631 19.9835 12.4305 20.6241C13.398 21.2647 14.5336 21.6041 15.6939 21.5993C16.4643 21.5961 17.2266 21.4412 17.9371 21.1434C18.6476 20.8456 19.2926 20.4107 19.8351 19.8637C20.3775 19.3167 20.807 18.6681 21.0988 17.9551C21.3907 17.2421 21.5392 16.4786 21.536 15.7082Z" fill="url(#paint10_linear_4300_2610)"/>
<path d="M82.0105 13.1667C81.7172 12.7756 81.5216 12.4578 81.2772 12.1889C80.0061 10.9178 80.0305 10.9422 81.2772 9.62223C81.8883 8.96223 82.2305 8.91334 82.866 9.59779C84.1127 10.9667 84.1371 10.9178 82.8171 12.2622C82.5727 12.5067 82.3772 12.7511 82.0105 13.1667Z" fill="url(#paint11_linear_4300_2610)"/>
<path d="M73.8951 17.0547C74.1377 17.387 74.3988 17.7053 74.6773 18.008C75.8507 19.2303 75.8262 19.1814 74.7018 20.428C74.0418 21.1614 73.6751 21.0636 73.0396 20.3791C71.8418 19.0836 71.793 19.108 73.064 17.8614L73.8951 17.0547Z" fill="url(#paint12_linear_4300_2610)"/>
<path d="M79.957 15.0721L79.6637 15.3898C78.026 17.2965 77.9526 17.2965 76.2416 15.4632C75.9727 15.1698 75.8993 15.0232 76.2171 14.6809C77.8548 12.8721 78.1237 12.8476 79.6881 14.7543L79.957 15.0721Z" fill="url(#paint13_linear_4300_2610)"/>
<path d="M20.1182 71.4688C21.536 71.4688 21.536 71.4687 21.536 72.8621C21.536 74.2554 21.536 74.3776 20.0449 74.3776C18.5538 74.3776 18.6027 74.3776 18.6027 72.9843C18.6027 71.591 18.6027 71.4688 20.1182 71.4688Z" fill="url(#paint14_linear_4300_2610)"/>
<path d="M27.4025 72.9827C27.4025 74.3761 27.4025 74.3761 25.9848 74.3761C24.567 74.3761 24.4692 74.3761 24.4692 72.8605C24.4692 71.345 24.4692 71.4672 25.9114 71.4672C27.3536 71.4672 27.4025 71.4672 27.4025 72.9827Z" fill="url(#paint15_linear_4300_2610)"/>
<path d="M31.7292 74.3776C30.3359 74.3776 30.3359 74.3776 30.3359 73.0332C30.3359 71.6887 30.3359 71.4688 31.8759 71.4688C33.4159 71.4688 33.2692 71.4688 33.2692 72.8132C33.2692 74.1576 33.2692 74.3776 31.7292 74.3776Z" fill="url(#paint16_linear_4300_2610)"/>
<defs>
<linearGradient id="paint0_linear_4300_2610" x1="46.5" y1="1" x2="46.5" y2="92" gradientUnits="userSpaceOnUse">
<stop stop-color="white" stop-opacity="0.66"/>
<stop offset="1" stop-color="#969696" stop-opacity="0"/>
</linearGradient>
<linearGradient id="paint1_linear_4300_2610" x1="65.4987" y1="4.60547" x2="65.4987" y2="4.63676" gradientUnits="userSpaceOnUse">
<stop stop-color="white" stop-opacity="0.66"/>
<stop offset="1" stop-color="#969696" stop-opacity="0"/>
</linearGradient>
<linearGradient id="paint2_linear_4300_2610" x1="78.71" y1="83.1758" x2="78.71" y2="86.1091" gradientUnits="userSpaceOnUse">
<stop stop-color="white" stop-opacity="0.66"/>
<stop offset="1" stop-color="#969696" stop-opacity="0"/>
</linearGradient>
<linearGradient id="paint3_linear_4300_2610" x1="84.577" y1="83.168" x2="84.577" y2="86.1227" gradientUnits="userSpaceOnUse">
<stop stop-color="white" stop-opacity="0.66"/>
<stop offset="1" stop-color="#969696" stop-opacity="0"/>
</linearGradient>
<linearGradient id="paint4_linear_4300_2610" x1="40.6024" y1="39.1992" x2="40.6024" y2="42.1329" gradientUnits="userSpaceOnUse">
<stop stop-color="white" stop-opacity="0.66"/>
<stop offset="1" stop-color="#969696" stop-opacity="0"/>
</linearGradient>
<linearGradient id="paint5_linear_4300_2610" x1="46.4687" y1="39.1992" x2="46.4687" y2="42.1326" gradientUnits="userSpaceOnUse">
<stop stop-color="white" stop-opacity="0.66"/>
<stop offset="1" stop-color="#969696" stop-opacity="0"/>
</linearGradient>
<linearGradient id="paint6_linear_4300_2610" x1="52.3353" y1="39.1953" x2="52.3353" y2="42.1324" gradientUnits="userSpaceOnUse">
<stop stop-color="white" stop-opacity="0.66"/>
<stop offset="1" stop-color="#969696" stop-opacity="0"/>
</linearGradient>
<linearGradient id="paint7_linear_4300_2610" x1="52.3353" y1="50.9336" x2="52.3353" y2="53.8669" gradientUnits="userSpaceOnUse">
<stop stop-color="white" stop-opacity="0.66"/>
<stop offset="1" stop-color="#969696" stop-opacity="0"/>
</linearGradient>
<linearGradient id="paint8_linear_4300_2610" x1="40.6024" y1="50.9336" x2="40.6024" y2="53.8669" gradientUnits="userSpaceOnUse">
<stop stop-color="white" stop-opacity="0.66"/>
<stop offset="1" stop-color="#969696" stop-opacity="0"/>
</linearGradient>
<linearGradient id="paint9_linear_4300_2610" x1="46.4686" y1="50.9336" x2="46.4686" y2="53.8669" gradientUnits="userSpaceOnUse">
<stop stop-color="white" stop-opacity="0.66"/>
<stop offset="1" stop-color="#969696" stop-opacity="0"/>
</linearGradient>
<linearGradient id="paint10_linear_4300_2610" x1="15.6939" y1="6.95703" x2="15.6939" y2="24.5571" gradientUnits="userSpaceOnUse">
<stop stop-color="white" stop-opacity="0.66"/>
<stop offset="1" stop-color="#969696" stop-opacity="0"/>
</linearGradient>
<linearGradient id="paint11_linear_4300_2610" x1="82.0685" y1="9.10547" x2="82.0685" y2="13.1667" gradientUnits="userSpaceOnUse">
<stop stop-color="white" stop-opacity="0.66"/>
<stop offset="1" stop-color="#969696" stop-opacity="0"/>
</linearGradient>
<linearGradient id="paint12_linear_4300_2610" x1="73.8386" y1="17.0547" x2="73.8386" y2="20.9367" gradientUnits="userSpaceOnUse">
<stop stop-color="white" stop-opacity="0.66"/>
<stop offset="1" stop-color="#969696" stop-opacity="0"/>
</linearGradient>
<linearGradient id="paint13_linear_4300_2610" x1="77.9824" y1="13.3242" x2="77.9824" y2="16.8291" gradientUnits="userSpaceOnUse">
<stop stop-color="white" stop-opacity="0.66"/>
<stop offset="1" stop-color="#969696" stop-opacity="0"/>
</linearGradient>
<linearGradient id="paint14_linear_4300_2610" x1="20.0693" y1="71.4688" x2="20.0693" y2="74.3776" gradientUnits="userSpaceOnUse">
<stop stop-color="white" stop-opacity="0.66"/>
<stop offset="1" stop-color="#969696" stop-opacity="0"/>
</linearGradient>
<linearGradient id="paint15_linear_4300_2610" x1="25.9359" y1="71.4648" x2="25.9359" y2="74.3761" gradientUnits="userSpaceOnUse">
<stop stop-color="white" stop-opacity="0.66"/>
<stop offset="1" stop-color="#969696" stop-opacity="0"/>
</linearGradient>
<linearGradient id="paint16_linear_4300_2610" x1="31.8045" y1="71.4688" x2="31.8045" y2="74.3776" gradientUnits="userSpaceOnUse">
<stop stop-color="white" stop-opacity="0.66"/>
<stop offset="1" stop-color="#969696" stop-opacity="0"/>
</linearGradient>
</defs>
</svg>
