<svg width="67" height="68" viewBox="0 0 67 68" fill="none" xmlns="http://www.w3.org/2000/svg">
<path d="M57.5232 26.4518C59.5192 27.2747 61.1757 28.5323 62.4351 30.2893C63.4717 31.7356 64.1167 33.3435 64.361 35.1042C64.5191 36.2522 64.1239 36.6906 62.9741 36.6906C58.3586 36.6924 53.7432 36.6852 49.126 36.7067C48.8421 36.7067 48.5637 36.9439 48.2726 37.0427C47.8666 37.181 47.4516 37.3966 47.0383 37.3984C41.5713 37.4218 36.1043 37.4146 30.6373 37.4146C29.7642 37.4146 28.8892 37.4344 28.0161 37.402C27.7196 37.3912 27.2777 37.3409 27.1591 37.1487C26.8213 36.6025 26.3452 36.6906 25.8674 36.6906C21.4082 36.6906 16.9491 36.6906 12.49 36.6906C11.1066 36.6906 10.7347 36.2881 10.9647 34.9497C11.6258 31.0852 13.7745 28.3472 17.294 26.662C17.4144 26.6045 17.5402 26.556 17.6605 26.4985C17.6965 26.4806 17.7252 26.4446 17.7558 26.4177C15.0842 23.0491 15.0285 19.8188 17.5995 17.388C19.8721 15.2411 23.406 15.1567 25.7362 17.212C27.1214 18.4336 27.831 19.9769 27.8238 21.8346C27.8167 23.6617 27.0621 25.1619 25.8602 26.2811C27.2992 27.2944 28.7149 28.2915 30.1271 29.285C31.1799 28.6131 32.3584 27.8621 33.5855 27.0788C32.0135 25.5374 31.2499 23.6186 31.7009 21.3262C31.9991 19.8152 32.7932 18.5935 34.0257 17.6701C36.5175 15.8052 40.0317 16.1574 42.1337 18.4516C44.0812 20.5788 44.5267 24.3516 41.6971 27.0806C42.8828 27.8334 44.0758 28.5916 45.2723 29.3515C45.8831 28.8359 46.5299 28.2107 47.2557 27.7004C47.9618 27.2046 48.7505 26.8237 49.4961 26.3979C46.2712 23.2 47.3545 19.2816 49.2949 17.4312C51.6178 15.216 55.1895 15.1441 57.5861 17.2964C60.2163 19.6571 60.2001 22.9125 57.5196 26.4518H57.5232ZM29.1713 35.2066H46.1095C45.5364 32.2081 42.4103 28.6616 37.7662 28.6221C33.6681 28.5862 29.8666 31.4787 29.1713 35.2066ZM13.223 34.4646C13.3451 34.5041 13.3649 34.5167 13.3865 34.5167C17.8168 34.5257 22.2472 34.5383 26.6776 34.5203C26.8537 34.5203 27.0962 34.2724 27.1932 34.0801C27.5939 33.2842 27.9065 32.4434 28.3431 31.6691C28.5712 31.2631 28.5694 31.0295 28.246 30.7007C25.8153 28.2268 22.8958 27.307 19.547 28.1676C16.279 29.0084 14.2237 31.1912 13.223 34.4646ZM62.0255 34.5401C61.9824 34.3173 61.9734 34.1825 61.9303 34.0586C60.8236 30.8337 58.6353 28.7604 55.2865 28.0687C52.0185 27.395 49.2392 28.3975 46.9449 30.8032C46.6952 31.0655 46.7365 31.2631 46.8928 31.5649C47.3168 32.3752 47.7246 33.198 48.0552 34.0478C48.2061 34.4377 48.3786 34.5472 48.7721 34.5454C51.1921 34.5293 53.6121 34.5383 56.0303 34.5383C57.9993 34.5383 59.9702 34.5383 62.0237 34.5383L62.0255 34.5401ZM53.5186 25.6973C55.7015 25.6973 57.4388 23.9564 57.428 21.7753C57.419 19.6266 55.6943 17.8929 53.5528 17.8785C51.3897 17.8641 49.6057 19.6194 49.5949 21.7735C49.5841 23.9294 51.3502 25.6973 53.5186 25.6973ZM25.6697 21.7951C25.6715 19.6158 23.9306 17.8749 21.7514 17.8785C19.6188 17.8821 17.8618 19.6248 17.8456 21.7555C17.8276 23.924 19.5757 25.6901 21.7442 25.6973C23.9324 25.7044 25.6679 23.9797 25.6697 21.7951ZM41.548 22.5442C41.5516 20.3686 39.7999 18.6133 37.6296 18.6205C35.4953 18.6277 33.74 20.3668 33.7184 22.4975C33.6969 24.6462 35.4647 26.4446 37.617 26.4626C39.7711 26.4806 41.5444 24.7127 41.548 22.5442Z" fill="#F3BA2F"/>
<path d="M17.1824 58.511C17.592 59.2351 17.9765 59.8908 18.3376 60.5609C19.1281 62.0323 18.7095 63.6008 17.2776 64.4542C16.2015 65.0955 15.1091 65.7118 14.0042 66.3046C12.5256 67.0987 10.95 66.6711 10.1236 65.2177C6.86818 59.4974 3.62534 53.7716 0.396874 48.0351C-0.415184 46.5925 0.0537254 44.9953 1.48561 44.1491C2.52583 43.5347 3.58222 42.9454 4.64041 42.3615C6.19267 41.5045 7.77726 41.9483 8.67375 43.4772C8.85162 43.7808 9.02229 44.0898 9.2289 44.4509C9.83974 44.0988 10.3949 43.7772 10.9536 43.4592C13.8318 41.8207 16.6865 40.1355 19.5988 38.5581C21.9631 37.279 24.4173 37.1748 26.9918 38.0964C30.1484 39.2247 33.3696 40.1697 36.564 41.1883C36.8407 41.2764 37.1281 41.3285 37.4138 41.386C40.8291 42.0741 42.2681 44.8103 40.8237 48.2471C41.5765 47.895 42.2071 47.6543 42.7856 47.3201C46.6824 45.069 50.5648 42.7945 54.4562 40.5362C56.0731 39.5984 57.7619 38.8546 59.6537 38.6498C61.9587 38.4018 63.9763 39.5624 64.6985 41.5908C65.4908 43.8132 64.6878 46.1343 62.6846 47.3686C55.7479 51.6463 48.7969 55.9024 41.8747 60.2016C39.4044 61.7359 36.8299 62.1204 34.029 61.3496C29.3704 60.0687 24.6957 58.8452 20.0336 57.575C19.4299 57.4097 18.9197 57.3989 18.4023 57.7924C18.0501 58.0601 17.6369 58.2469 17.186 58.5074L17.1824 58.511ZM16.1188 56.6336C16.7746 56.2563 17.3962 55.9419 17.9675 55.5557C18.5783 55.1424 19.1694 55.1263 19.8701 55.3185C24.8772 56.6839 29.8933 58.0206 34.9093 59.3536C36.8425 59.8675 38.6858 59.6231 40.3997 58.5685C47.5142 54.192 54.6305 49.8209 61.7234 45.4103C62.1546 45.1426 62.5355 44.6037 62.69 44.1114C63.3026 42.1621 61.9498 40.5847 59.9106 40.7913C58.2901 40.9548 56.8564 41.6303 55.4749 42.4334C51.6032 44.6827 47.7298 46.9284 43.8689 49.1975C41.846 50.3869 39.6882 50.7947 37.4066 50.3006C35.0459 49.7904 32.7067 49.1885 30.3604 48.6118C29.622 48.4304 28.8854 48.2328 28.1667 47.9866C27.6008 47.7926 27.3942 47.3327 27.5056 46.7488C27.6062 46.217 28.0733 45.8918 28.6518 45.9457C28.8494 45.9637 29.0453 46.0283 29.2393 46.0787C31.6198 46.7003 33.9931 47.356 36.3843 47.9363C37.8647 48.2956 38.9786 47.5986 39.2625 46.2601C39.5266 45.0097 38.675 43.8563 37.2718 43.5491C36.4203 43.3622 35.5525 43.2167 34.7243 42.949C31.7437 41.9878 28.7722 41.0015 25.8096 39.9882C24.4119 39.5103 23.0339 39.4942 21.6703 40.0134C20.878 40.3152 20.1 40.6745 19.3634 41.0931C16.444 42.7532 13.5443 44.4473 10.6392 46.1307C10.5296 46.1936 10.4326 46.2763 10.3033 46.3679C12.249 49.8048 14.1767 53.2093 16.117 56.6354L16.1188 56.6336ZM16.6326 62.0593C16.5248 61.8114 16.462 61.6191 16.3649 61.4467C13.1958 55.8395 10.023 50.2342 6.84662 44.6324C6.49809 44.018 6.21602 43.9497 5.58542 44.3018C4.66736 44.8139 3.7547 45.3331 2.84203 45.8541C2.06411 46.2978 2.00302 46.5152 2.44498 47.2967C4.08347 50.1982 5.72555 53.0979 7.36584 55.9976C8.86419 58.644 10.3643 61.2904 11.8591 63.9385C12.116 64.3931 12.4142 64.7308 12.9784 64.4164C14.0527 63.82 15.1271 63.2199 16.1853 62.5929C16.3739 62.4815 16.4853 62.239 16.6326 62.0575V62.0593Z" fill="#F3BA2F"/>
<path d="M16.4867 13.1876C16.7041 12.381 16.9089 11.3659 17.2592 10.4047C17.5377 9.63757 17.3527 9.18123 16.7041 8.74107C16.0016 8.26497 15.371 7.68647 14.7045 7.15828C14.1565 6.7253 13.9104 6.18632 14.1529 5.50721C14.3847 4.86044 14.8967 4.59634 15.5633 4.57119C16.5693 4.53167 17.5754 4.45621 18.5815 4.44363C19.0127 4.43824 19.2031 4.28194 19.3415 3.8813C19.6667 2.93091 20.0493 1.99848 20.4015 1.05707C20.644 0.408497 21.0734 -0.0101077 21.7938 0.00426501C22.4783 0.0168411 22.8933 0.412091 23.1251 1.04449C23.479 2.00926 23.8707 2.96145 24.2084 3.93161C24.3414 4.31248 24.548 4.43465 24.9414 4.44184C25.9475 4.4598 26.9536 4.53346 27.9597 4.57119C28.6245 4.59634 29.1526 4.85146 29.3772 5.49823C29.609 6.16297 29.3934 6.71991 28.8364 7.15828C28.028 7.79427 27.2411 8.4626 26.4218 9.08422C26.1038 9.32676 26.0374 9.54774 26.1577 9.93041C26.4506 10.8682 26.6841 11.8258 26.9464 12.7726C27.1333 13.4481 27.1009 14.0733 26.4811 14.5207C25.8649 14.9627 25.272 14.8225 24.6809 14.4183C23.8689 13.8631 23.0263 13.3493 22.2178 12.7906C21.898 12.5696 21.6627 12.5552 21.3321 12.7834C20.45 13.3942 19.5553 13.9907 18.6354 14.5458C17.6311 15.1531 16.4741 14.5117 16.4849 13.1894L16.4867 13.1876ZM17.7192 6.54744L17.6545 6.76123C18.1036 7.12414 18.5402 7.50322 19.0037 7.84457C19.6882 8.34762 19.8912 8.97463 19.6325 9.78489C19.4529 10.3508 19.3271 10.9347 19.1421 11.6444C19.7888 11.224 20.3206 10.8952 20.8326 10.5413C21.4633 10.1047 22.0723 10.1083 22.7011 10.5395C23.2095 10.888 23.7323 11.2132 24.3863 11.6372C24.1887 10.8772 24.0539 10.2682 23.8707 9.67709C23.6389 8.93151 23.8635 8.37277 24.46 7.90925C24.9414 7.53556 25.405 7.13851 25.8757 6.75225C25.8577 6.68398 25.8379 6.61571 25.82 6.54744C25.2235 6.54744 24.6288 6.55642 24.0324 6.54564C23.2509 6.53127 22.7316 6.15937 22.4747 5.40481C22.2789 4.8317 22.0435 4.27116 21.7669 3.55253C21.4902 4.27296 21.2584 4.82631 21.0662 5.39223C20.8129 6.1432 20.3009 6.52768 19.5175 6.54384C18.9193 6.55642 18.3192 6.54564 17.7192 6.54564V6.54744Z" fill="#F3BA2F"/>
<path d="M32.3578 13.1999C32.5824 12.3771 32.8124 11.3494 33.1483 10.3577C33.3837 9.66241 33.2813 9.21686 32.6453 8.79466C31.9033 8.3006 31.2386 7.68796 30.5415 7.12563C30.0187 6.70523 29.7923 6.17524 30.0223 5.52308C30.2504 4.87451 30.7535 4.59963 31.4218 4.57088C32.4513 4.52776 33.4789 4.4595 34.5084 4.43973C34.8785 4.43255 35.0653 4.31397 35.1893 3.96184C35.5306 2.99168 35.9133 2.03769 36.2708 1.07293C36.5116 0.424358 36.9302 -0.00143293 37.6524 0.00395683C38.3728 0.00934659 38.7842 0.438731 39.0214 1.0891C39.3663 2.0341 39.7454 2.96653 40.0796 3.91513C40.2089 4.28343 40.3904 4.43794 40.8018 4.44153C41.8079 4.45231 42.814 4.52956 43.8219 4.56909C44.5118 4.59604 45.0489 4.85474 45.2699 5.54463C45.4891 6.22913 45.2232 6.76092 44.677 7.19031C43.8847 7.81372 43.114 8.4605 42.3145 9.07493C42.0109 9.30849 41.9049 9.51689 42.0307 9.91393C42.3343 10.8715 42.5696 11.8525 42.8391 12.8208C43.0224 13.4784 42.9523 14.0694 42.3756 14.5114C41.8528 14.912 41.2833 14.8815 40.5772 14.4252C39.7508 13.8898 38.9154 13.367 38.1141 12.7975C37.7602 12.5459 37.514 12.5729 37.1709 12.81C36.2888 13.4209 35.3959 14.0227 34.4724 14.5707C33.5005 15.1474 32.3632 14.497 32.3596 13.2035L32.3578 13.1999ZM41.7396 6.7753C41.7235 6.69984 41.7091 6.62438 41.6929 6.54893C41.0982 6.54893 40.5018 6.55791 39.9071 6.54713C39.1274 6.53276 38.6082 6.16086 38.3531 5.4063C38.1572 4.82959 37.9183 4.26726 37.6452 3.55761C37.3739 4.25648 37.135 4.80444 36.9481 5.37216C36.6912 6.15727 36.1594 6.53635 35.351 6.54893C34.7581 6.55791 34.1652 6.54893 33.5723 6.54893C33.5562 6.6172 33.54 6.68547 33.5238 6.75374C33.9838 7.12563 34.4311 7.51369 34.9072 7.86583C35.5683 8.35629 35.757 8.97073 35.5216 9.75224C35.3474 10.3307 35.2108 10.9218 35.0204 11.6512C35.6474 11.2434 36.1486 10.9506 36.6122 10.6074C37.3254 10.0792 38.0027 10.1098 38.7052 10.62C39.1633 10.9524 39.6502 11.2452 40.279 11.6566C40.0832 10.9344 39.9628 10.3918 39.7867 9.86722C39.4993 9.01025 39.6969 8.34731 40.4425 7.81911C40.8952 7.49932 41.3084 7.12383 41.7378 6.7735L41.7396 6.7753Z" fill="#F3BA2F"/>
<path d="M53.5235 12.5097C52.548 13.1475 51.5868 13.7637 50.64 14.3979C50.0561 14.7895 49.4722 14.9692 48.8363 14.5362C48.2721 14.1517 48.1266 13.6074 48.3566 12.745C48.6045 11.8162 48.8398 10.8838 49.1183 9.9639C49.2387 9.56685 49.1884 9.31533 48.8363 9.05303C48.0296 8.45117 47.2606 7.79721 46.4737 7.16841C45.9348 6.73902 45.6545 6.21622 45.9006 5.52453C46.1414 4.84362 46.6732 4.58851 47.363 4.56515C48.3691 4.53102 49.3752 4.45556 50.3831 4.43759C50.7514 4.43041 50.9401 4.31722 51.064 3.9615C51.4036 2.99134 51.788 2.03556 52.1456 1.07259C52.3863 0.425814 52.8049 -0.0035708 53.5271 2.23796e-05C54.2494 0.00361555 54.6608 0.436593 54.8997 1.08336C55.2483 2.02657 55.6256 2.9608 55.9597 3.9094C56.0891 4.2777 56.2669 4.434 56.6784 4.43759C57.6844 4.44837 58.6905 4.52563 59.6984 4.56515C60.3865 4.5921 60.9219 4.84901 61.1483 5.5389C61.3746 6.22879 61.098 6.75519 60.559 7.18278C59.7865 7.79542 59.0337 8.43141 58.245 9.02069C57.8893 9.28658 57.7869 9.53631 57.9216 9.97288C58.2252 10.9556 58.4642 11.9563 58.7408 12.9462C58.9169 13.5768 58.7714 14.1086 58.2522 14.5003C57.7024 14.9153 57.1293 14.865 56.567 14.4949C55.5591 13.8337 54.5494 13.1762 53.5253 12.5079L53.5235 12.5097ZM57.6323 6.76597C57.6072 6.69411 57.582 6.62045 57.5551 6.54859C56.9784 6.54859 56.4017 6.55398 55.825 6.54859C55.0165 6.5396 54.4793 6.16591 54.2188 5.3808C54.0284 4.80949 53.7894 4.25255 53.52 3.55367C53.2469 4.26153 53.0061 4.81488 52.8193 5.3844C52.5606 6.1731 52.0198 6.5396 51.2131 6.55038C50.6221 6.55757 50.031 6.55038 49.4399 6.55038C49.4273 6.61865 49.4148 6.68872 49.4004 6.75699C49.8801 7.14505 50.3526 7.54389 50.843 7.91758C51.4575 8.3847 51.6102 8.98296 51.4108 9.70339C51.2455 10.3017 51.0856 10.8999 50.8826 11.6509C51.5257 11.2341 52.0521 10.9143 52.5534 10.5604C53.2038 10.1022 53.8272 10.104 54.4775 10.5568C54.9752 10.9017 55.4944 11.2143 56.1394 11.6293C55.9346 10.8532 55.7944 10.2478 55.6148 9.65129C55.3992 8.93625 55.6058 8.3847 56.1789 7.93555C56.6676 7.55288 57.1455 7.15583 57.6288 6.76597H57.6323Z" fill="#F3BA2F"/>
<path d="M6.56847 47.291C6.57207 47.9593 6.03668 48.4965 5.37734 48.4803C4.74314 48.4659 4.2401 47.9467 4.2383 47.3071C4.23471 46.6334 4.7647 46.107 5.42944 46.1214C6.06723 46.1358 6.56488 46.646 6.56847 47.2928V47.291Z" fill="#F3BA2F"/>
<path d="M59.5232 27.4518C61.5192 28.2747 63.1757 29.5323 64.4351 31.2893C65.4717 32.7356 66.1167 34.3435 66.361 36.1042C66.5191 37.2522 66.1239 37.6906 64.9741 37.6906C60.3586 37.6924 55.7432 37.6852 51.126 37.7067C50.8421 37.7067 50.5637 37.9439 50.2726 38.0427C49.8666 38.181 49.4516 38.3966 49.0383 38.3984C43.5713 38.4218 38.1043 38.4146 32.6373 38.4146C31.7642 38.4146 30.8892 38.4344 30.0161 38.402C29.7196 38.3912 29.2777 38.3409 29.1591 38.1487C28.8213 37.6025 28.3452 37.6906 27.8674 37.6906C23.4082 37.6906 18.9491 37.6906 14.49 37.6906C13.1066 37.6906 12.7347 37.2881 12.9647 35.9497C13.6258 32.0852 15.7745 29.3472 19.294 27.662C19.4144 27.6045 19.5402 27.556 19.6605 27.4985C19.6965 27.4806 19.7252 27.4446 19.7558 27.4177C17.0842 24.0491 17.0285 20.8188 19.5995 18.388C21.8721 16.2411 25.406 16.1567 27.7362 18.212C29.1214 19.4336 29.831 20.9769 29.8238 22.8346C29.8167 24.6617 29.0621 26.1619 27.8602 27.2811C29.2992 28.2944 30.7149 29.2915 32.1271 30.285C33.1799 29.6131 34.3584 28.8621 35.5855 28.0788C34.0135 26.5374 33.2499 24.6186 33.7009 22.3262C33.9991 20.8152 34.7932 19.5935 36.0257 18.6701C38.5175 16.8052 42.0317 17.1574 44.1337 19.4516C46.0812 21.5788 46.5267 25.3516 43.6971 28.0806C44.8828 28.8334 46.0758 29.5916 47.2723 30.3515C47.8831 29.8359 48.5299 29.2107 49.2557 28.7004C49.9618 28.2046 50.7505 27.8237 51.4961 27.3979C48.2712 24.2 49.3545 20.2816 51.2949 18.4312C53.6178 16.216 57.1895 16.1441 59.5861 18.2964C62.2163 20.6571 62.2001 23.9125 59.5196 27.4518H59.5232ZM31.1713 36.2066H48.1095C47.5364 33.2081 44.4103 29.6616 39.7662 29.6221C35.6681 29.5862 31.8666 32.4787 31.1713 36.2066ZM15.223 35.4646C15.3451 35.5041 15.3649 35.5167 15.3865 35.5167C19.8168 35.5257 24.2472 35.5383 28.6776 35.5203C28.8537 35.5203 29.0962 35.2724 29.1932 35.0801C29.5939 34.2842 29.9065 33.4434 30.3431 32.6691C30.5712 32.2631 30.5694 32.0295 30.246 31.7007C27.8153 29.2268 24.8958 28.307 21.547 29.1676C18.279 30.0084 16.2237 32.1912 15.223 35.4646ZM64.0255 35.5401C63.9824 35.3173 63.9734 35.1825 63.9303 35.0586C62.8236 31.8337 60.6353 29.7604 57.2865 29.0687C54.0185 28.395 51.2392 29.3975 48.9449 31.8032C48.6952 32.0655 48.7365 32.2631 48.8928 32.5649C49.3168 33.3752 49.7246 34.198 50.0552 35.0478C50.2061 35.4377 50.3786 35.5472 50.7721 35.5454C53.1921 35.5293 55.6121 35.5383 58.0303 35.5383C59.9993 35.5383 61.9702 35.5383 64.0237 35.5383L64.0255 35.5401ZM55.5186 26.6973C57.7015 26.6973 59.4388 24.9564 59.428 22.7753C59.419 20.6266 57.6943 18.8929 55.5528 18.8785C53.3897 18.8641 51.6057 20.6194 51.5949 22.7735C51.5841 24.9294 53.3502 26.6973 55.5186 26.6973ZM27.6697 22.7951C27.6715 20.6158 25.9306 18.8749 23.7514 18.8785C21.6188 18.8821 19.8618 20.6248 19.8456 22.7555C19.8276 24.924 21.5757 26.6901 23.7442 26.6973C25.9324 26.7044 27.6679 24.9797 27.6697 22.7951ZM43.548 23.5442C43.5516 21.3686 41.7999 19.6133 39.6296 19.6205C37.4953 19.6277 35.74 21.3668 35.7184 23.4975C35.6969 25.6462 37.4647 27.4446 39.617 27.4626C41.7711 27.4806 43.5444 25.7127 43.548 23.5442Z" fill="url(#paint0_linear_5293_3649)"/>
<path d="M19.1824 59.511C19.592 60.2351 19.9765 60.8908 20.3376 61.5609C21.1281 63.0323 20.7095 64.6008 19.2776 65.4542C18.2015 66.0955 17.1091 66.7118 16.0042 67.3046C14.5256 68.0987 12.95 67.6711 12.1236 66.2177C8.86818 60.4974 5.62534 54.7716 2.39687 49.0351C1.58482 47.5925 2.05373 45.9953 3.48561 45.1491C4.52583 44.5347 5.58222 43.9454 6.64041 43.3615C8.19267 42.5045 9.77726 42.9483 10.6738 44.4772C10.8516 44.7808 11.0223 45.0898 11.2289 45.4509C11.8397 45.0988 12.3949 44.7772 12.9536 44.4592C15.8318 42.8207 18.6865 41.1355 21.5988 39.5581C23.9631 38.279 26.4173 38.1748 28.9918 39.0964C32.1484 40.2247 35.3696 41.1697 38.564 42.1883C38.8407 42.2764 39.1281 42.3285 39.4138 42.386C42.8291 43.0741 44.2681 45.8103 42.8237 49.2471C43.5765 48.895 44.2071 48.6543 44.7856 48.3201C48.6824 46.069 52.5648 43.7945 56.4562 41.5362C58.0731 40.5984 59.7619 39.8546 61.6537 39.6498C63.9587 39.4018 65.9763 40.5624 66.6985 42.5908C67.4908 44.8132 66.6878 47.1343 64.6846 48.3686C57.7479 52.6463 50.7969 56.9024 43.8747 61.2016C41.4044 62.7359 38.8299 63.1204 36.029 62.3496C31.3704 61.0687 26.6957 59.8452 22.0336 58.575C21.4299 58.4097 20.9197 58.3989 20.4023 58.7924C20.0501 59.0601 19.6369 59.2469 19.186 59.5074L19.1824 59.511ZM18.1188 57.6336C18.7746 57.2563 19.3962 56.9419 19.9675 56.5557C20.5783 56.1424 21.1694 56.1263 21.8701 56.3185C26.8772 57.6839 31.8933 59.0206 36.9093 60.3536C38.8425 60.8675 40.6858 60.6231 42.3997 59.5685C49.5142 55.192 56.6305 50.8209 63.7234 46.4103C64.1546 46.1426 64.5355 45.6037 64.69 45.1114C65.3026 43.1621 63.9498 41.5847 61.9106 41.7913C60.2901 41.9548 58.8564 42.6303 57.4749 43.4334C53.6032 45.6827 49.7298 47.9284 45.8689 50.1975C43.846 51.3869 41.6882 51.7947 39.4066 51.3006C37.0459 50.7904 34.7067 50.1885 32.3604 49.6118C31.622 49.4304 30.8854 49.2328 30.1667 48.9866C29.6008 48.7926 29.3942 48.3327 29.5056 47.7488C29.6062 47.217 30.0733 46.8918 30.6518 46.9457C30.8494 46.9637 31.0453 47.0283 31.2393 47.0787C33.6198 47.7003 35.9931 48.356 38.3843 48.9363C39.8647 49.2956 40.9786 48.5986 41.2625 47.2601C41.5266 46.0097 40.675 44.8563 39.2718 44.5491C38.4203 44.3622 37.5525 44.2167 36.7243 43.949C33.7437 42.9878 30.7722 42.0015 27.8096 40.9882C26.4119 40.5103 25.0339 40.4942 23.6703 41.0134C22.878 41.3152 22.1 41.6745 21.3634 42.0931C18.444 43.7532 15.5443 45.4473 12.6392 47.1307C12.5296 47.1936 12.4326 47.2763 12.3033 47.3679C14.249 50.8048 16.1767 54.2093 18.117 57.6354L18.1188 57.6336ZM18.6326 63.0593C18.5248 62.8114 18.462 62.6191 18.3649 62.4467C15.1958 56.8395 12.023 51.2342 8.84662 45.6324C8.49809 45.018 8.21602 44.9497 7.58542 45.3018C6.66736 45.8139 5.7547 46.3331 4.84203 46.8541C4.06411 47.2978 4.00302 47.5152 4.44498 48.2967C6.08347 51.1982 7.72555 54.0979 9.36584 56.9976C10.8642 59.644 12.3643 62.2904 13.8591 64.9385C14.116 65.3931 14.4142 65.7308 14.9784 65.4164C16.0527 64.82 17.1271 64.2199 18.1853 63.5929C18.3739 63.4815 18.4853 63.239 18.6326 63.0575V63.0593Z" fill="url(#paint1_linear_5293_3649)"/>
<path d="M18.4867 14.1876C18.7041 13.381 18.9089 12.3659 19.2592 11.4047C19.5377 10.6376 19.3527 10.1812 18.7041 9.74107C18.0016 9.26497 17.371 8.68647 16.7045 8.15828C16.1565 7.7253 15.9104 7.18632 16.1529 6.50721C16.3847 5.86044 16.8967 5.59634 17.5633 5.57119C18.5693 5.53167 19.5754 5.45621 20.5815 5.44363C21.0127 5.43824 21.2031 5.28194 21.3415 4.8813C21.6667 3.93091 22.0493 2.99848 22.4015 2.05707C22.644 1.4085 23.0734 0.989892 23.7938 1.00427C24.4783 1.01684 24.8933 1.41209 25.1251 2.04449C25.479 3.00926 25.8707 3.96145 26.2084 4.93161C26.3414 5.31248 26.548 5.43465 26.9414 5.44184C27.9475 5.4598 28.9536 5.53346 29.9597 5.57119C30.6245 5.59634 31.1526 5.85146 31.3772 6.49823C31.609 7.16297 31.3934 7.71991 30.8364 8.15828C30.028 8.79427 29.2411 9.4626 28.4218 10.0842C28.1038 10.3268 28.0374 10.5477 28.1577 10.9304C28.4506 11.8682 28.6841 12.8258 28.9464 13.7726C29.1333 14.4481 29.1009 15.0733 28.4811 15.5207C27.8649 15.9627 27.272 15.8225 26.6809 15.4183C25.8689 14.8631 25.0263 14.3493 24.2178 13.7906C23.898 13.5696 23.6627 13.5552 23.3321 13.7834C22.45 14.3942 21.5553 14.9907 20.6354 15.5458C19.6311 16.1531 18.4741 15.5117 18.4849 14.1894L18.4867 14.1876ZM19.7192 7.54744L19.6545 7.76123C20.1036 8.12414 20.5402 8.50322 21.0037 8.84457C21.6882 9.34762 21.8912 9.97463 21.6325 10.7849C21.4529 11.3508 21.3271 11.9347 21.1421 12.6444C21.7888 12.224 22.3206 11.8952 22.8326 11.5413C23.4633 11.1047 24.0723 11.1083 24.7011 11.5395C25.2095 11.888 25.7323 12.2132 26.3863 12.6372C26.1887 11.8772 26.0539 11.2682 25.8707 10.6771C25.6389 9.93151 25.8635 9.37277 26.46 8.90925C26.9414 8.53556 27.405 8.13851 27.8757 7.75225C27.8577 7.68398 27.8379 7.61571 27.82 7.54744C27.2235 7.54744 26.6288 7.55642 26.0324 7.54564C25.2509 7.53127 24.7316 7.15937 24.4747 6.40481C24.2789 5.8317 24.0435 5.27116 23.7669 4.55253C23.4902 5.27296 23.2584 5.82631 23.0662 6.39223C22.8129 7.1432 22.3009 7.52768 21.5175 7.54384C20.9193 7.55642 20.3192 7.54564 19.7192 7.54564V7.54744Z" fill="url(#paint2_linear_5293_3649)"/>
<path d="M34.3578 14.1999C34.5824 13.3771 34.8124 12.3494 35.1483 11.3577C35.3837 10.6624 35.2813 10.2169 34.6453 9.79466C33.9033 9.3006 33.2386 8.68796 32.5415 8.12563C32.0187 7.70523 31.7923 7.17524 32.0223 6.52308C32.2504 5.87451 32.7535 5.59963 33.4218 5.57088C34.4513 5.52776 35.4789 5.4595 36.5084 5.43973C36.8785 5.43255 37.0653 5.31397 37.1893 4.96184C37.5306 3.99168 37.9133 3.03769 38.2708 2.07293C38.5116 1.42436 38.9302 0.998567 39.6524 1.00396C40.3728 1.00935 40.7842 1.43873 41.0214 2.0891C41.3663 3.0341 41.7454 3.96653 42.0796 4.91513C42.2089 5.28343 42.3904 5.43794 42.8018 5.44153C43.8079 5.45231 44.814 5.52956 45.8219 5.56909C46.5118 5.59604 47.0489 5.85474 47.2699 6.54463C47.4891 7.22913 47.2232 7.76092 46.677 8.19031C45.8847 8.81372 45.114 9.4605 44.3145 10.0749C44.0109 10.3085 43.9049 10.5169 44.0307 10.9139C44.3343 11.8715 44.5696 12.8525 44.8391 13.8208C45.0224 14.4784 44.9523 15.0694 44.3756 15.5114C43.8528 15.912 43.2833 15.8815 42.5772 15.4252C41.7508 14.8898 40.9154 14.367 40.1141 13.7975C39.7602 13.5459 39.514 13.5729 39.1709 13.81C38.2888 14.4209 37.3959 15.0227 36.4724 15.5707C35.5005 16.1474 34.3632 15.497 34.3596 14.2035L34.3578 14.1999ZM43.7396 7.7753C43.7235 7.69984 43.7091 7.62438 43.6929 7.54893C43.0982 7.54893 42.5018 7.55791 41.9071 7.54713C41.1274 7.53276 40.6082 7.16086 40.3531 6.4063C40.1572 5.82959 39.9183 5.26726 39.6452 4.55761C39.3739 5.25648 39.135 5.80444 38.9481 6.37216C38.6912 7.15727 38.1594 7.53635 37.351 7.54893C36.7581 7.55791 36.1652 7.54893 35.5723 7.54893C35.5562 7.6172 35.54 7.68547 35.5238 7.75374C35.9838 8.12563 36.4311 8.51369 36.9072 8.86583C37.5683 9.35629 37.757 9.97073 37.5216 10.7522C37.3474 11.3307 37.2108 11.9218 37.0204 12.6512C37.6474 12.2434 38.1486 11.9506 38.6122 11.6074C39.3254 11.0792 40.0027 11.1098 40.7052 11.62C41.1633 11.9524 41.6502 12.2452 42.279 12.6566C42.0832 11.9344 41.9628 11.3918 41.7867 10.8672C41.4993 10.0103 41.6969 9.34731 42.4425 8.81911C42.8952 8.49932 43.3084 8.12383 43.7378 7.7735L43.7396 7.7753Z" fill="url(#paint3_linear_5293_3649)"/>
<path d="M55.5235 13.5097C54.548 14.1475 53.5868 14.7637 52.64 15.3979C52.0561 15.7895 51.4722 15.9692 50.8363 15.5362C50.2721 15.1517 50.1266 14.6074 50.3566 13.745C50.6045 12.8162 50.8398 11.8838 51.1183 10.9639C51.2387 10.5669 51.1884 10.3153 50.8363 10.053C50.0296 9.45117 49.2606 8.79721 48.4737 8.16841C47.9348 7.73902 47.6545 7.21622 47.9006 6.52453C48.1414 5.84362 48.6732 5.58851 49.363 5.56515C50.3691 5.53102 51.3752 5.45556 52.3831 5.43759C52.7514 5.43041 52.9401 5.31722 53.064 4.9615C53.4036 3.99134 53.788 3.03556 54.1456 2.07259C54.3863 1.42581 54.8049 0.996429 55.5271 1.00002C56.2494 1.00362 56.6608 1.43659 56.8997 2.08336C57.2483 3.02657 57.6256 3.9608 57.9597 4.9094C58.0891 5.2777 58.2669 5.434 58.6784 5.43759C59.6844 5.44837 60.6905 5.52563 61.6984 5.56515C62.3865 5.5921 62.9219 5.84901 63.1483 6.5389C63.3746 7.22879 63.098 7.75519 62.559 8.18278C61.7865 8.79542 61.0337 9.43141 60.245 10.0207C59.8893 10.2866 59.7869 10.5363 59.9216 10.9729C60.2252 11.9556 60.4642 12.9563 60.7408 13.9462C60.9169 14.5768 60.7714 15.1086 60.2522 15.5003C59.7024 15.9153 59.1293 15.865 58.567 15.4949C57.5591 14.8337 56.5494 14.1762 55.5253 13.5079L55.5235 13.5097ZM59.6323 7.76597C59.6072 7.69411 59.582 7.62045 59.5551 7.54859C58.9784 7.54859 58.4017 7.55398 57.825 7.54859C57.0165 7.5396 56.4793 7.16591 56.2188 6.3808C56.0284 5.80949 55.7894 5.25255 55.52 4.55367C55.2469 5.26153 55.0061 5.81488 54.8193 6.3844C54.5606 7.1731 54.0198 7.5396 53.2131 7.55038C52.6221 7.55757 52.031 7.55038 51.4399 7.55038C51.4273 7.61865 51.4148 7.68872 51.4004 7.75699C51.8801 8.14505 52.3526 8.54389 52.843 8.91758C53.4575 9.3847 53.6102 9.98296 53.4108 10.7034C53.2455 11.3017 53.0856 11.8999 52.8826 12.6509C53.5257 12.2341 54.0521 11.9143 54.5534 11.5604C55.2038 11.1022 55.8272 11.104 56.4775 11.5568C56.9752 11.9017 57.4944 12.2143 58.1394 12.6293C57.9346 11.8532 57.7944 11.2478 57.6148 10.6513C57.3992 9.93625 57.6058 9.3847 58.1789 8.93555C58.6676 8.55288 59.1455 8.15583 59.6288 7.76597H59.6323Z" fill="url(#paint4_linear_5293_3649)"/>
<path d="M8.56847 48.291C8.57207 48.9593 8.03668 49.4965 7.37734 49.4803C6.74314 49.4659 6.2401 48.9467 6.2383 48.3071C6.23471 47.6334 6.7647 47.107 7.42944 47.1214C8.06723 47.1358 8.56488 47.646 8.56847 48.2928V48.291Z" fill="url(#paint5_linear_5293_3649)"/>
<defs>
<linearGradient id="paint0_linear_5293_3649" x1="39.6479" y1="16.7227" x2="39.6479" y2="38.4206" gradientUnits="userSpaceOnUse">
<stop stop-color="white" stop-opacity="0.66"/>
<stop offset="1" stop-color="#CFCFCF" stop-opacity="0"/>
</linearGradient>
<linearGradient id="paint1_linear_5293_3649" x1="34.5" y1="38.4883" x2="34.5" y2="67.6988" gradientUnits="userSpaceOnUse">
<stop stop-color="white" stop-opacity="0.66"/>
<stop offset="1" stop-color="#CFCFCF" stop-opacity="0"/>
</linearGradient>
<linearGradient id="paint2_linear_5293_3649" x1="23.7644" y1="1.00391" x2="23.7644" y2="15.7932" gradientUnits="userSpaceOnUse">
<stop stop-color="white" stop-opacity="0.66"/>
<stop offset="1" stop-color="#CFCFCF" stop-opacity="0"/>
</linearGradient>
<linearGradient id="paint3_linear_5293_3649" x1="39.6397" y1="1.00391" x2="39.6397" y2="15.7911" gradientUnits="userSpaceOnUse">
<stop stop-color="white" stop-opacity="0.66"/>
<stop offset="1" stop-color="#CFCFCF" stop-opacity="0"/>
</linearGradient>
<linearGradient id="paint4_linear_5293_3649" x1="55.5191" y1="1" x2="55.5191" y2="15.7924" gradientUnits="userSpaceOnUse">
<stop stop-color="white" stop-opacity="0.66"/>
<stop offset="1" stop-color="#CFCFCF" stop-opacity="0"/>
</linearGradient>
<linearGradient id="paint5_linear_5293_3649" x1="7.40339" y1="47.1211" x2="7.40339" y2="49.4807" gradientUnits="userSpaceOnUse">
<stop stop-color="white" stop-opacity="0.66"/>
<stop offset="1" stop-color="#CFCFCF" stop-opacity="0"/>
</linearGradient>
</defs>
</svg>
