<svg width="91" height="91" viewBox="0 0 91 91" fill="none" xmlns="http://www.w3.org/2000/svg">
<path d="M0 33.5536C0.424223 32.4 0.377088 31.1757 0.636336 29.975C3.34665 17.0967 10.912 8.0796 22.9552 3.06486C34.9984 -1.94989 47.3009 -0.890437 58.3307 6.8318C66.5795 12.5999 71.5759 20.6282 73.4849 30.5165C73.587 30.9846 73.592 31.4686 73.4997 31.9388C73.4073 32.4089 73.2196 32.8551 72.948 33.25C72.6764 33.6448 72.3267 33.9799 71.9204 34.2346C71.5142 34.4893 71.0601 34.6581 70.586 34.7308C68.6535 35.0839 66.9094 33.7655 66.5088 31.6466C65.7546 27.55 64.2934 23.736 61.8895 20.3457C55.5497 11.3286 46.8295 6.8318 35.8233 7.18495C21.2112 7.65582 9.66286 18.1797 7.54175 32.6118C5.49134 46.6202 12.4674 59.0982 25.477 64.678C26.6554 65.1959 27.7866 65.6903 28.3051 67.0088C28.8236 68.3272 28.5879 69.6692 27.5745 70.7522C26.5611 71.8352 25.0763 72.1177 23.6151 71.5526C17.9534 69.4109 12.9322 65.8616 9.02653 61.2406C4.03012 55.3783 1.01342 48.6214 0.164977 40.9462C0.164977 40.805 0.188544 40.6401 0 40.5931V33.5536Z" fill="#3C3C3D"/>
<path d="M24.8643 90.2671C24.7464 90.0081 24.4636 90.0317 24.2751 89.9375C22.0833 88.878 21.5176 86.2176 23.1203 84.3812C23.5445 83.9104 24.0158 83.463 24.4872 83.0157L47.3481 60.155C47.7875 59.6864 48.3214 59.3161 48.9145 59.0685C49.5076 58.821 50.1465 58.7018 50.789 58.7189C56.3039 58.766 61.7953 58.7189 67.2866 58.7424C67.5297 58.7565 67.7727 58.715 67.9973 58.6212C68.2219 58.5273 68.4221 58.3836 68.5828 58.2009C71.8038 54.952 75.0483 51.7187 78.3164 48.5011C78.0807 48.2185 77.7979 48.3598 77.5622 48.3598H71.1282C68.8657 48.3362 67.3573 46.8766 67.3809 44.8047C67.4044 42.7329 68.9128 41.3203 71.1046 41.3203H86.6359C88.7806 41.3203 90.2889 42.8271 90.2889 44.9695V60.2963C90.2654 62.5094 88.8277 64.0162 86.7773 64.0397C84.7269 64.0633 83.2421 62.5094 83.2421 60.2728C83.2421 58.0361 83.2421 55.9408 83.2421 53.7512C82.8886 53.7512 82.7708 54.0338 82.6058 54.1986C79.212 57.5888 75.7711 60.9791 72.4009 64.3929C71.9569 64.8622 71.4189 65.2326 70.822 65.4801C70.225 65.7276 69.5825 65.8465 68.9364 65.829C63.5629 65.7819 58.1894 65.829 52.8159 65.7819C52.4589 65.7713 52.1038 65.8372 51.7745 65.9753C51.4452 66.1134 51.1493 66.3204 50.9069 66.5824C43.6165 73.8966 36.3262 81.1872 29.0358 88.4542C28.2816 89.2312 27.4803 89.9375 26.4433 90.2906L24.8643 90.2671Z" fill="#3C3C3D"/>
<path d="M57.671 90.268C56.4454 89.6794 55.3849 88.9731 55.1256 87.5134C55.071 87.226 55.0395 86.9347 55.0313 86.6423C55.0078 82.6164 55.0078 78.614 55.0313 74.5881C55.0215 73.7143 55.3407 72.8687 55.9257 72.2189C56.5106 71.5692 57.3186 71.1627 58.1895 71.0801C59.0573 70.993 59.9265 71.2316 60.6279 71.7494C61.3293 72.2673 61.8127 73.0274 61.9839 73.8818C62.0504 74.2309 62.0819 74.5858 62.0782 74.9412V85.7476C62.0782 88.5493 61.5597 89.3498 59.0615 90.268H57.671Z" fill="#3C3C3D"/>
<path d="M71.7643 90.268C70.5624 89.6794 69.4783 88.9731 69.2426 87.5134C69.1687 87.2287 69.1292 86.9363 69.1247 86.6423C69.1247 82.6164 69.1012 78.614 69.1247 74.588C69.1146 73.7996 69.3707 73.0307 69.8517 72.4055C70.3327 71.7803 71.0105 71.3352 71.7758 71.142C72.5411 70.9489 73.3492 71.0189 74.0698 71.3408C74.7903 71.6628 75.3813 72.2178 75.7473 72.9165C76.065 73.5083 76.2118 74.1767 76.1716 74.847V85.7476C76.1716 88.5493 75.6531 89.3498 73.1784 90.268H71.7643Z" fill="#3C3C3D"/>
<path d="M85.8815 90.2685C84.656 89.6799 83.5954 88.9736 83.3362 87.5139C83.2816 87.2265 83.25 86.9352 83.2419 86.6428C83.2419 82.6169 83.2184 78.6145 83.2419 74.5886C83.2419 72.8935 84.326 71.575 85.9758 71.1512C86.7248 70.9791 87.5097 71.0588 88.2087 71.3781C88.9076 71.6975 89.4814 72.2384 89.8409 72.917C90.1656 73.5069 90.3206 74.1751 90.2887 74.8476V85.7482C90.2887 88.5498 89.7702 89.3503 87.2956 90.2685H85.8815Z" fill="#3C3C3D"/>
<path d="M43.5536 90.2661C42.328 89.6775 41.2675 88.9712 41.0082 87.5115C40.8433 86.4756 40.7726 85.4162 41.0554 84.3803C41.2635 83.5908 41.7443 82.9003 42.4127 82.4307C43.0812 81.9611 43.8943 81.7427 44.7084 81.814C45.5197 81.8783 46.284 82.2202 46.8723 82.7821C47.4605 83.344 47.8367 84.0914 47.9372 84.8982C48.0117 85.6502 48.0038 86.4081 47.9137 87.1584C47.7015 88.9006 46.5938 89.8423 44.9677 90.2661H43.5536Z" fill="#3C3C3D"/>
<path d="M33.6314 18.6508C33.6382 18.0987 33.6855 17.5479 33.7728 17.0027C33.912 16.1482 34.3648 15.376 35.0428 14.8367C35.7208 14.2974 36.5755 14.0295 37.4404 14.0854C38.3054 14.1412 39.1185 14.5167 39.7214 15.1387C40.3243 15.7607 40.6737 16.5847 40.7017 17.45C40.7724 18.2976 40.4661 19.2864 40.8431 19.9456C41.2202 20.6049 42.2101 20.7226 42.8936 21.1464C44.5905 22.227 45.9212 23.7944 46.7116 25.6431C47.5364 27.5031 46.853 29.5043 45.1089 30.3518C43.3649 31.1994 41.3145 30.5166 40.3482 28.6802C39.3819 26.8439 38.2507 26.3259 36.7659 26.5613C34.8569 26.8674 33.5842 28.3506 33.7021 30.2106C33.8199 32.0705 35.1633 33.4596 37.143 33.5302C39.9476 33.6479 42.4458 34.4484 44.4962 36.426C49.5869 41.3702 48.7855 50.7169 41.3381 53.8246C40.8667 54.0365 40.7017 54.2955 40.7253 54.7899C40.7489 55.2843 40.8196 56.3673 40.6075 57.1678C40.3881 57.9822 39.886 58.6922 39.1909 59.1709C38.4958 59.6497 37.653 59.8659 36.813 59.7811C35.0926 59.5928 33.6078 58.1566 33.7256 56.4144C33.8435 54.6722 33.3957 53.8246 31.7931 53.1183C30.1904 52.412 28.4935 50.5285 27.5508 48.5744C26.6081 46.6203 27.3387 44.6898 29.0356 43.8187C30.7325 42.9476 32.83 43.5597 33.8435 45.3961C34.8569 47.2325 36.3181 47.9388 37.9443 47.5856C39.5705 47.2325 40.8667 45.6315 40.7017 43.8422C40.5368 42.0529 39.1934 40.6874 37.2608 40.5932C34.7155 40.499 32.4058 39.8163 30.4497 38.1682C24.652 33.3183 25.6654 24.0657 32.3822 20.699C33.3957 20.2046 34.0084 19.7337 33.6314 18.6508Z" fill="#3C3C3D"/>
<path d="M0.707031 34.2606C1.13125 33.107 1.08412 31.8827 1.34337 30.682C4.05368 17.8038 11.619 8.78663 23.6622 3.77189C35.7054 -1.24286 48.0079 -0.183406 59.0377 7.53883C67.2865 13.307 72.2829 21.3353 74.1919 31.2235C74.294 31.6916 74.2991 32.1757 74.2067 32.6458C74.1144 33.1159 73.9266 33.5622 73.655 33.957C73.3834 34.3519 73.0337 34.687 72.6275 34.9416C72.2212 35.1963 71.7671 35.3652 71.2931 35.4378C69.3605 35.7909 67.6165 34.4725 67.2158 32.3536C66.4616 28.257 65.0004 24.443 62.5965 21.0528C56.2567 12.0356 47.5366 7.53883 36.5303 7.89198C21.9182 8.36285 10.3699 18.8868 8.24878 33.3189C6.19837 47.3272 13.1745 59.8052 26.184 65.385C27.3624 65.903 28.4937 66.3974 29.0121 67.7158C29.5306 69.0342 29.295 70.3762 28.2815 71.4592C27.2681 72.5422 25.7833 72.8247 24.3221 72.2597C18.6604 70.1179 13.6392 66.5686 9.73356 61.9477C4.73715 56.0854 1.72045 49.3284 0.872008 41.6532C0.872008 41.512 0.895575 41.3472 0.707031 41.3001V34.2606Z" fill="url(#paint0_linear_4300_2474)"/>
<path d="M25.5711 90.9741C25.4532 90.7151 25.1704 90.7387 24.9819 90.6445C22.7901 89.5851 22.2244 86.9246 23.827 85.0883C24.2513 84.6174 24.7226 84.1701 25.194 83.7227L48.0549 60.8621C48.4943 60.3934 49.0282 60.0231 49.6213 59.7756C50.2144 59.528 50.8533 59.4088 51.4958 59.4259C57.0107 59.473 62.5021 59.4259 67.9934 59.4495C68.2364 59.4635 68.4795 59.422 68.7041 59.3282C68.9287 59.2344 69.1289 59.0907 69.2896 58.908C72.5106 55.659 75.7551 52.4257 79.0232 49.2081C78.7875 48.9256 78.5047 49.0668 78.269 49.0668H71.835C69.5724 49.0433 68.0641 47.5836 68.0877 45.5118C68.1112 43.44 69.6196 42.0273 71.8114 42.0273H87.3427C89.4874 42.0273 90.9957 43.5341 90.9957 45.6766V61.0033C90.9722 63.2164 89.5345 64.7232 87.4841 64.7467C85.4337 64.7703 83.9489 63.2164 83.9489 60.9798C83.9489 58.7432 83.9489 56.6478 83.9489 54.4583C83.5954 54.4583 83.4776 54.7408 83.3126 54.9056C79.9188 58.2958 76.4779 61.6861 73.1076 65.0999C72.6637 65.5692 72.1257 65.9397 71.5287 66.1871C70.9318 66.4346 70.2893 66.5535 69.6432 66.536C64.2697 66.489 58.8962 66.536 53.5227 66.489C53.1657 66.4783 52.8106 66.5443 52.4813 66.6823C52.1519 66.8204 51.8561 67.0274 51.6137 67.2894C44.3233 74.6036 37.033 81.8942 29.7426 89.1613C28.9884 89.9382 28.1871 90.6445 27.1501 90.9977L25.5711 90.9741Z" fill="url(#paint1_linear_4300_2474)"/>
<path d="M58.378 90.975C57.1525 90.3864 56.0919 89.6801 55.8326 88.2204C55.778 87.933 55.7465 87.6417 55.7384 87.3493C55.7148 83.3234 55.7148 79.321 55.7384 75.2951C55.7286 74.4213 56.0478 73.5757 56.6327 72.926C57.2176 72.2762 58.0256 71.8697 58.8965 71.7871C59.7643 71.7 60.6335 71.9386 61.3349 72.4565C62.0363 72.9744 62.5197 73.7345 62.6909 74.5888C62.7574 74.938 62.789 75.2929 62.7852 75.6482V86.4547C62.7852 89.2563 62.2667 90.0568 59.7685 90.975H58.378Z" fill="url(#paint2_linear_4300_2474)"/>
<path d="M72.4714 90.975C71.2694 90.3864 70.1853 89.6801 69.9496 88.2204C69.8758 87.9357 69.8362 87.6433 69.8318 87.3493C69.8318 83.3234 69.8082 79.321 69.8318 75.2951C69.8217 74.5066 70.0778 73.7378 70.5588 73.1126C71.0397 72.4873 71.7176 72.0422 72.4829 71.8491C73.2481 71.6559 74.0563 71.7259 74.7768 72.0479C75.4974 72.3698 76.0883 72.9249 76.4544 73.6235C76.772 74.2153 76.9189 74.8837 76.8786 75.554V86.4546C76.8786 89.2563 76.3601 90.0568 73.8855 90.975H72.4714Z" fill="url(#paint3_linear_4300_2474)"/>
<path d="M86.5886 90.9755C85.363 90.387 84.3025 89.6806 84.0432 88.221C83.9886 87.9336 83.9571 87.6423 83.949 87.3499C83.949 83.3239 83.9254 79.3216 83.949 75.2956C83.949 73.6005 85.0331 72.2821 86.6828 71.8583C87.4318 71.6861 88.2168 71.7659 88.9157 72.0852C89.6147 72.4045 90.1885 72.9454 90.548 73.624C90.8726 74.214 91.0276 74.8821 90.9958 75.5546V86.4552C90.9958 89.2569 90.4773 90.0573 88.0026 90.9755H86.5886Z" fill="url(#paint4_linear_4300_2474)"/>
<path d="M44.2606 90.9731C43.0351 90.3846 41.9745 89.6782 41.7153 88.2186C41.5503 87.1826 41.4796 86.1232 41.7624 85.0873C41.9705 84.2978 42.4513 83.6073 43.1198 83.1377C43.7882 82.6681 44.6014 82.4497 45.4154 82.5211C46.2268 82.5853 46.9911 82.9272 47.5793 83.4891C48.1676 84.051 48.5437 84.7984 48.6443 85.6052C48.7188 86.3572 48.7109 87.1151 48.6207 87.8654C48.4086 89.6076 47.3009 90.5494 45.6747 90.9731H44.2606Z" fill="url(#paint5_linear_4300_2474)"/>
<path d="M34.3384 19.3578C34.3452 18.8057 34.3925 18.2549 34.4798 17.7097C34.619 16.8552 35.0718 16.083 35.7498 15.5437C36.4278 15.0044 37.2826 14.7366 38.1475 14.7924C39.0124 14.8483 39.8255 15.2238 40.4284 15.8458C41.0313 16.4678 41.3808 17.2917 41.4088 18.1571C41.4795 19.0046 41.1731 19.9935 41.5502 20.6527C41.9273 21.3119 42.9171 21.4296 43.6006 21.8534C45.2975 22.9341 46.6282 24.5014 47.4186 26.3502C48.2435 28.2101 47.56 30.2113 45.816 31.0589C44.0719 31.9064 42.0215 31.2237 41.0552 29.3873C40.089 27.5509 38.9577 27.0329 37.4729 27.2684C35.5639 27.5744 34.2912 29.0577 34.4091 30.9176C34.5269 32.7775 35.8703 34.1666 37.85 34.2372C40.6546 34.3549 43.1528 35.1554 45.2032 37.1331C50.2939 42.0772 49.4926 51.4239 42.0451 54.5317C41.5737 54.7435 41.4088 55.0025 41.4323 55.4969C41.4559 55.9913 41.5266 57.0743 41.3145 57.8748C41.0951 58.6892 40.5931 59.3992 39.898 59.878C39.2029 60.3567 38.3601 60.573 37.5201 60.4881C35.7996 60.2998 34.3148 58.8636 34.4327 57.1214C34.5505 55.3792 34.1027 54.5317 32.5001 53.8253C30.8975 53.119 29.2006 51.2356 28.2579 49.2815C27.3151 47.3274 28.0457 45.3968 29.7426 44.5257C31.4395 43.6546 33.5371 44.2667 34.5505 46.1031C35.5639 47.9395 37.0251 48.6458 38.6513 48.2926C40.2775 47.9395 41.5737 46.3385 41.4088 44.5492C41.2438 42.7599 39.9004 41.3944 37.9679 41.3002C35.4225 41.2061 33.1129 40.5233 31.1567 38.8753C25.359 34.0253 26.3724 24.7728 33.0893 21.4061C34.1027 20.9116 34.7155 20.4408 34.3384 19.3578Z" fill="url(#paint6_linear_4300_2474)"/>
<defs>
<linearGradient id="paint0_linear_4300_2474" x1="37.4897" y1="0.707031" x2="37.4897" y2="72.544" gradientUnits="userSpaceOnUse">
<stop stop-color="white" stop-opacity="0.66"/>
<stop offset="1" stop-color="#969696" stop-opacity="0"/>
</linearGradient>
<linearGradient id="paint1_linear_4300_2474" x1="56.9525" y1="42.0273" x2="56.9525" y2="90.9977" gradientUnits="userSpaceOnUse">
<stop stop-color="white" stop-opacity="0.66"/>
<stop offset="1" stop-color="#969696" stop-opacity="0"/>
</linearGradient>
<linearGradient id="paint2_linear_4300_2474" x1="59.2531" y1="71.7695" x2="59.2531" y2="90.975" gradientUnits="userSpaceOnUse">
<stop stop-color="white" stop-opacity="0.66"/>
<stop offset="1" stop-color="#969696" stop-opacity="0"/>
</linearGradient>
<linearGradient id="paint3_linear_4300_2474" x1="73.3532" y1="71.7422" x2="73.3532" y2="90.975" gradientUnits="userSpaceOnUse">
<stop stop-color="white" stop-opacity="0.66"/>
<stop offset="1" stop-color="#969696" stop-opacity="0"/>
</linearGradient>
<linearGradient id="paint4_linear_4300_2474" x1="87.4692" y1="71.7695" x2="87.4692" y2="90.9755" gradientUnits="userSpaceOnUse">
<stop stop-color="white" stop-opacity="0.66"/>
<stop offset="1" stop-color="#969696" stop-opacity="0"/>
</linearGradient>
<linearGradient id="paint5_linear_4300_2474" x1="45.1328" y1="82.5078" x2="45.1328" y2="90.9731" gradientUnits="userSpaceOnUse">
<stop stop-color="white" stop-opacity="0.66"/>
<stop offset="1" stop-color="#969696" stop-opacity="0"/>
</linearGradient>
<linearGradient id="paint6_linear_4300_2474" x1="37.9044" y1="14.7852" x2="37.9044" y2="60.5062" gradientUnits="userSpaceOnUse">
<stop stop-color="white" stop-opacity="0.66"/>
<stop offset="1" stop-color="#969696" stop-opacity="0"/>
</linearGradient>
</defs>
</svg>
