<svg width="78" height="79" viewBox="0 0 78 79" fill="none" xmlns="http://www.w3.org/2000/svg">
<path d="M4.86159 0L33.5878 13.5217V0L39.4824 2.76689C47.6395 6.61649 55.7758 10.4901 63.9536 14.3157C64.5971 14.6284 64.7631 14.9893 64.7631 15.7593C64.7493 34.9751 64.7355 54.2071 64.7216 73.455C64.7216 74.2009 64.8254 74.4655 65.5519 74.4415C66.8595 74.3452 68.1879 74.3934 69.5162 74.4174C69.9521 74.4174 70.0974 74.2971 70.0766 73.7919C70.0628 72.1077 70.0628 70.4235 70.0766 68.7393C70.0954 68.5712 70.0589 68.401 69.9743 68.2628C69.8896 68.1245 69.7631 68.0283 69.62 67.9934C65.6349 66.3573 64.2858 61.4972 66.7142 57.5273C66.984 57.0702 66.818 56.7334 66.7557 56.3484C66.5875 54.9905 66.8702 53.6093 67.5468 52.4838C68.2234 51.3583 69.2434 50.5725 70.4005 50.2853C71.5577 49.9981 72.7658 50.2308 73.7806 50.9365C74.7955 51.6422 75.5414 52.7681 75.8675 54.0868C76.0475 54.8078 76.0618 55.5709 75.909 56.3003C75.8476 56.5675 75.84 56.8475 75.8868 57.1187C75.9336 57.3898 76.0335 57.6449 76.1789 57.8642C76.6734 58.7095 76.9937 59.6753 77.115 60.6869C77.2363 61.6985 77.1555 62.7289 76.8787 63.6985C76.6018 64.6682 76.1365 65.5511 75.5185 66.2791C74.9005 67.0071 74.1465 67.5607 73.3146 67.8972C72.7334 68.1137 72.5466 68.3784 72.5673 69.0761C72.6296 70.64 72.6088 72.2039 72.5881 73.7437C72.5673 74.2731 72.7126 74.4174 73.1485 74.3934C73.9372 74.3693 74.7052 74.4174 75.4939 74.3934C75.8468 74.3693 75.9506 74.4896 75.9713 74.9227C76.0543 77.2806 76.0751 77.2806 74.0203 77.2806H0.876459C0.191514 77.2806 -0.0368038 77.0881 0.00470798 76.27C0.0462198 74.3693 0.00471304 74.3693 1.64443 74.3693H4.36345C4.73705 74.3934 4.90311 74.2971 4.86159 73.84C4.85119 73.6316 4.85119 73.4228 4.86159 73.2144V0ZM36.12 4.30673V5.00447C36.12 26.0168 36.1131 47.0131 36.0992 67.9934C36.0992 68.6912 36.2653 68.8114 36.8464 68.8114C45.0658 68.7954 53.2782 68.8034 61.4837 68.8355C62.2309 68.8355 62.3139 68.5709 62.3139 67.825C62.2862 51.0632 62.2862 34.2934 62.3139 17.5156C62.3139 16.842 62.1479 16.5532 61.6082 16.2886L42.2222 7.16986L36.12 4.30673ZM7.3523 33.708C7.3523 43.2197 7.34538 52.7234 7.33154 62.219C7.33154 62.8446 7.39381 63.1093 8.03725 63.1093C11.6073 63.0611 15.198 63.0611 18.7681 63.0852C19.2869 63.1092 19.3907 62.9168 19.3907 62.3393V10.6826C19.3907 10.0571 19.2039 9.81646 18.7265 9.59992L8.2448 4.71575C7.3523 4.30673 7.3523 4.30673 7.3523 5.36537V33.708ZM21.7984 11.1398V13.9548C21.8192 14.6284 21.6116 15.5187 21.9229 15.9277C22.2343 16.3367 23.023 16.072 23.6249 16.072C25.6175 16.0961 25.5967 16.072 25.5345 18.3818C25.5345 18.8871 25.3892 18.9833 24.9948 18.9592C24.1231 18.9352 23.2306 18.9833 22.3588 18.9592C21.9229 18.9352 21.7777 19.0555 21.7984 19.5848C21.8192 21.1728 21.7984 22.7607 21.8192 24.3487C21.8192 25.0705 21.5286 26.0088 21.9437 26.4178C22.3588 26.8268 23.0645 26.5141 23.6664 26.5141C25.5552 26.5381 25.5345 26.5381 25.5345 28.7035C25.5345 29.2328 25.4515 29.4494 24.9533 29.4253C24.1023 29.3772 23.2306 29.4494 22.3796 29.4013C21.8814 29.3531 21.7777 29.5697 21.7984 30.099C21.8192 31.687 21.7984 33.2749 21.7984 34.8629C21.8192 35.5606 21.6324 36.4508 21.9229 36.8598C22.2135 37.2689 23.023 37.0042 23.6249 37.0042C25.6382 37.0283 25.6175 37.0042 25.5345 39.338C25.5137 39.7711 25.4307 39.9155 25.0571 39.8914C24.1646 39.8673 23.2928 39.9155 22.4003 39.8673C21.9437 39.8433 21.7777 39.9876 21.7984 40.5651C21.8192 42.1771 21.7984 43.8132 21.7984 45.4252C21.7984 47.5425 21.7984 47.5425 23.6457 47.5425C25.493 47.5425 25.6383 47.5425 25.5345 49.9003C25.5137 50.3334 25.3892 50.4537 25.0363 50.4297C24.1231 50.4297 23.2098 50.4537 22.3173 50.4297C21.9022 50.4056 21.7984 50.55 21.7984 51.0312C21.8192 52.6672 21.7984 54.3274 21.7984 55.9634C21.7984 58.0326 21.7984 58.0326 23.6042 58.0326C25.4099 58.0326 25.5967 58.0326 25.5345 60.3424C25.5301 60.3469 25.5265 60.3524 25.5241 60.3586C25.5217 60.3649 25.5204 60.3716 25.5204 60.3784C25.5204 60.3853 25.5217 60.392 25.5241 60.3982C25.5265 60.4045 25.5301 60.41 25.5345 60.4145C25.576 60.8236 25.4099 60.9438 25.0778 60.9198H23.0645C21.7776 60.9198 21.7984 60.9198 21.7984 62.4356C21.7984 62.9649 21.9022 63.0852 22.3588 63.0852H33.0896C33.5255 63.0852 33.65 62.9408 33.65 62.4356C33.6085 60.8235 33.6293 59.2115 33.6293 57.5755C33.6293 56.8055 33.8576 55.771 33.5255 55.3379C33.1934 54.9048 32.1971 55.1695 31.5122 55.1695C29.5611 55.1454 29.5819 55.1695 29.6234 52.9078C29.6441 52.3545 29.8102 52.2582 30.2253 52.2582C31.1801 52.3063 32.1349 52.2582 33.0896 52.2823C33.5463 52.3063 33.65 52.1139 33.65 51.6327C33.6085 49.9003 33.65 48.144 33.6293 46.4116C33.6085 45.6177 33.9199 44.5109 33.5047 44.1019C33.0896 43.6929 32.1764 43.9575 31.4707 43.9575C29.5819 43.9575 29.5819 43.9575 29.6234 41.72C29.6234 41.2147 29.7479 41.0463 30.1838 41.0463C31.1801 41.0944 32.1556 41.0463 33.1519 41.0703C33.5047 41.0944 33.65 40.9741 33.6293 40.541V34.4057C33.65 34.0208 33.5463 33.8764 33.1934 33.9005C32.8406 33.9245 32.0518 33.9005 31.4914 33.9005C29.5404 33.9005 29.5611 33.9005 29.6234 31.6148C29.6441 31.1336 29.7479 31.0133 30.163 31.0133H33.1104C33.5047 31.0133 33.65 30.917 33.65 30.4358C33.6085 28.4389 33.6085 26.4659 33.65 24.493C33.65 23.9878 33.5255 23.8194 33.0689 23.8434C32.1147 23.9076 31.1579 23.8996 30.2046 23.8194C28.98 23.675 29.8517 22.5682 29.6649 21.9186C29.4781 21.269 29.4573 20.884 30.2253 20.9562C30.9933 21.0284 32.0518 20.9322 32.9443 20.9803C33.4632 21.0043 33.6915 20.884 33.65 20.2104C33.5878 19.2814 33.5878 18.3483 33.65 17.4194C33.6915 16.7938 33.4632 16.5532 32.9858 16.3608L25.8873 13.0164L21.7984 11.1398ZM49.1547 71.6986H37.5521C36.0577 71.6986 36.0785 71.6987 36.037 73.4069C36.0162 74.1768 36.1615 74.4415 36.8879 74.4174C44.8375 74.3934 52.7662 74.4174 60.7157 74.4174C62.2517 74.4174 62.2309 74.4174 62.2724 72.5889C62.2724 71.8911 62.1479 71.6746 61.5252 71.6746C57.3948 71.7227 53.2644 71.6986 49.1547 71.6986ZM68.0218 61.2326C68.0218 63.4701 69.0804 65.01 70.554 65.419C71.2751 65.6296 72.0364 65.5517 72.7145 65.198C73.3926 64.8442 73.9478 64.2354 74.2901 63.4702C75.0373 61.8581 74.7675 59.9333 73.5014 58.7785C72.7749 58.1048 72.6296 57.6717 73.1693 56.7334C73.7089 55.795 73.4391 53.798 72.2768 53.1725C71.8637 52.952 71.4015 52.8867 70.9548 52.986C70.5082 53.0852 70.0995 53.3439 69.786 53.7259C69.439 54.1422 69.2316 54.6884 69.2012 55.2663C69.1708 55.8441 69.3193 56.4155 69.62 56.8777C70.0974 57.6476 70.0559 58.0807 69.3502 58.6341C68.6445 59.1875 68.0218 60.4145 68.0218 61.2326ZM33.6293 70.231C33.6293 69.0039 33.6085 67.7769 33.6293 66.5498C33.65 66.0927 33.5462 65.9243 33.1311 65.9483H29.9555C29.5819 65.9483 29.4573 66.0686 29.4573 66.5017C29.4712 68.9558 29.4712 71.4099 29.4573 73.864C29.4573 74.2971 29.5819 74.4174 29.9347 74.4174C30.9864 74.4014 32.0449 74.4014 33.1104 74.4174C33.5255 74.4174 33.65 74.3212 33.65 73.84C33.6085 72.637 33.6293 71.434 33.6293 70.231ZM7.3523 70.1347C7.3523 71.3377 7.37306 72.5407 7.3523 73.7437C7.33155 74.2009 7.39382 74.4415 7.8712 74.4174C8.88824 74.3693 9.90527 74.3934 10.9016 74.4174C11.2959 74.4174 11.462 74.3452 11.4412 73.84C11.4274 71.4019 11.4274 68.9719 11.4412 66.5498C11.4412 66.0686 11.3167 65.9483 10.9223 65.9483C9.90527 65.9724 8.88824 65.9964 7.89195 65.9483C7.41457 65.9243 7.33155 66.1649 7.3523 66.622C7.37306 67.8009 7.3523 68.9799 7.3523 70.1347ZM16.6925 70.255C16.6925 69.6295 16.7132 69.0039 16.6925 68.3784C16.6717 67.7528 17.0038 66.4776 16.5472 66.0686C16.0905 65.6596 15.198 65.9964 14.5131 65.9483C13.8281 65.9002 13.9112 66.1408 13.9112 66.6701C13.9527 68.4265 13.9112 70.2069 13.9319 71.9633C13.9319 72.7332 13.6413 73.7678 14.0357 74.2249C14.4301 74.6821 15.4263 74.3212 16.132 74.3934C16.8377 74.4655 16.7132 74.2971 16.6925 73.7678C16.6717 72.5889 16.6925 71.434 16.6925 70.255ZM27.0704 70.2069C27.0704 69.5573 27.0912 68.9318 27.0704 68.3062C27.0497 67.6806 27.361 66.4536 26.9459 66.0927C26.5308 65.7318 25.5967 65.9964 24.9118 65.9243C24.2268 65.8521 24.3514 66.0927 24.3514 66.5739C24.3514 68.3543 24.3099 70.1107 24.3099 71.8911C24.3099 72.6851 24.0608 73.7919 24.4136 74.2249C24.7665 74.658 25.8251 74.3212 26.5515 74.3934C27.278 74.4655 27.0912 74.249 27.0704 73.7919C27.0497 72.5889 27.0704 71.3859 27.0704 70.2069ZM21.7984 70.1829C21.7984 69.5573 21.8192 68.9077 21.7984 68.2821C21.7777 67.6566 22.089 66.4776 21.6739 66.0686C21.2588 65.6596 20.387 65.9964 19.7228 65.9243C19.0586 65.8521 19.1624 66.0927 19.1624 66.5979C19.1832 68.3784 19.1417 70.1829 19.1417 71.9633C19.1417 72.7573 18.9133 73.7919 19.2454 74.2249C19.5775 74.658 20.5531 74.3212 21.238 74.3934C21.9229 74.4655 21.8192 74.2971 21.8192 73.7678C21.7776 72.5648 21.7984 71.3618 21.7984 70.1829Z" fill="#F3BA2F"/>
<path d="M55.4443 27.3047H54.9046C54.365 27.2566 53.4725 27.5453 53.3479 27.1844C53.2234 26.8235 53.2649 25.5484 53.2441 24.7063C53.2441 24.4175 53.431 24.4175 53.6178 24.4175H57.2708C57.5614 24.3935 57.7274 24.4897 57.7067 24.8506C57.6858 24.9125 57.6858 24.9812 57.7067 25.0431C57.7897 27.3047 57.7897 27.3047 55.4443 27.3047Z" fill="#F3BA2F"/>
<path d="M55.4859 57.4287H56.1085C56.6274 57.4769 57.3954 57.14 57.5822 57.549C57.769 57.9581 57.686 59.1851 57.686 60.0032C57.686 60.3641 57.4161 60.3159 57.2086 60.3159H53.7216C53.3688 60.3159 53.2442 60.1956 53.2235 59.7626C53.1197 57.4047 53.1197 57.4287 55.1122 57.4287H55.4859Z" fill="#F3BA2F"/>
<path d="M55.4236 40.5122H55.1122C53.0366 40.5122 53.0574 40.5122 53.2442 38.0821C53.2649 37.7453 53.348 37.625 53.6385 37.625C54.8424 37.6491 56.067 37.6491 57.2708 37.625C57.6444 37.625 57.6859 37.8175 57.7067 38.1543C57.8312 40.5122 57.8312 40.5122 55.8179 40.5122H55.4236Z" fill="#F3BA2F"/>
<path d="M55.4231 47.0864H55.1118C53.0155 47.0864 53.0155 47.0864 53.2438 44.6564C53.2645 44.3195 53.3476 44.1992 53.6589 44.1992H57.2912C57.6025 44.1992 57.7063 44.3436 57.7063 44.6804C57.7063 45.0173 57.6855 44.7285 57.7063 44.7767C57.8308 47.0864 57.8308 47.0864 55.4231 47.0864Z" fill="#F3BA2F"/>
<path d="M42.7826 27.3035H42.4713C40.3957 27.3035 40.3749 27.2794 40.6032 24.8494C40.6448 24.5125 40.7485 24.4163 41.0184 24.4163H44.5884C44.9412 24.3923 45.0658 24.5607 45.0243 24.9456V25.0178C44.9828 25.7637 45.3149 26.8704 44.8997 27.1591C44.4846 27.4479 43.5091 27.2313 42.7826 27.2313V27.3035Z" fill="#F3BA2F"/>
<path d="M42.7614 60.3169H41.0594C40.7066 60.3409 40.582 60.1725 40.6028 59.7876C40.6125 59.7609 40.6175 59.7323 40.6175 59.7034C40.6175 59.6744 40.6125 59.6458 40.6028 59.6192C40.5613 57.4297 40.5613 57.4297 42.4501 57.4297H43.6954C45.0238 57.4297 45.0238 57.4297 45.0238 58.9455C45.0238 60.4612 45.0238 60.3169 43.8407 60.3169H42.7614Z" fill="#F3BA2F"/>
<path d="M55.4443 33.9032C55.2645 33.9153 55.0843 33.9153 54.9046 33.9032C54.365 33.8551 53.514 34.1679 53.3687 33.7829C53.2234 33.3979 53.2649 32.1468 53.2441 31.3288C53.2441 30.9919 53.4517 31.016 53.6178 31.016C54.8424 31.016 56.0462 31.0401 57.2708 31.016C57.6236 31.016 57.7274 31.1844 57.6859 31.5453C57.6444 31.9062 57.7067 31.6175 57.6859 31.6416C57.6444 32.3874 57.9765 33.4701 57.5614 33.7829C57.1463 34.0957 56.1707 33.8551 55.4443 33.8551V33.9032Z" fill="#F3BA2F"/>
<path d="M55.4857 53.7036H55.112C53.0364 53.7036 53.0364 53.7036 53.244 51.2736C53.2648 50.9127 53.3478 50.8164 53.6384 50.8164H57.2914C57.6027 50.8164 57.7273 50.9367 57.6858 51.2736V51.3698C57.8103 53.7036 57.8103 53.7036 55.4857 53.7036Z" fill="#F3BA2F"/>
<path d="M42.8244 33.9022C42.264 33.9022 41.6829 33.8782 41.1224 33.9263C40.562 33.9744 40.6035 33.7579 40.6035 33.3007C40.562 31.015 40.5413 31.0391 42.5339 31.0391C43.2188 31.0391 43.883 31.0632 44.5679 31.015C45.2529 30.9669 45.0246 31.1594 45.0246 31.5925C45.1076 33.9022 45.1076 33.9022 43.1358 33.9022H42.8244Z" fill="#F3BA2F"/>
<path d="M42.8044 40.5122H42.493C40.3967 40.5122 40.4175 40.5122 40.6043 38.0821C40.625 37.7453 40.708 37.625 41.0194 37.625C42.2025 37.6491 43.3856 37.6491 44.5894 37.625C44.9007 37.625 45.0875 37.7212 45.0253 38.1303V38.2024C45.1083 40.5122 45.1083 40.5122 42.8044 40.5122Z" fill="#F3BA2F"/>
<path d="M42.7404 47.0854C42.2216 47.0573 41.7017 47.0654 41.1837 47.1095C40.6856 47.1576 40.6025 46.917 40.6025 46.3877C40.6025 44.1982 40.5818 44.1982 42.4706 44.1982H44.4839C44.8783 44.1741 45.0236 44.2945 45.0443 44.7756C45.1273 47.0854 45.1274 47.0854 43.1348 47.0854H42.7404Z" fill="#F3BA2F"/>
<path d="M42.7616 53.7036C42.1804 53.7036 41.62 53.6795 41.0388 53.7036C40.4576 53.7277 40.6237 53.5833 40.6029 53.1983C40.4784 50.8164 40.4784 50.8164 42.5332 50.8164H43.1559C45.2315 50.8164 45.2315 50.8164 45.024 53.2705C45.0032 53.6074 44.9202 53.7277 44.6088 53.7036C44.2975 53.6795 43.3842 53.7036 42.7616 53.7036Z" fill="#F3BA2F"/>
<path d="M12.1262 27.3103C11.545 27.3103 10.9846 27.2621 10.4034 27.3103C9.82224 27.3584 9.80149 26.8772 9.92603 26.5163C10.0506 26.1554 9.2826 24.6637 10.3827 24.4712C11.4827 24.2787 12.7073 24.4231 13.8904 24.4231C14.2018 24.399 14.3263 24.5193 14.347 24.9043C14.4923 27.3103 14.5131 27.3103 12.4375 27.3103H12.1262Z" fill="#F3BA2F"/>
<path d="M12.1466 57.4297H12.458C14.5751 57.4297 14.5751 57.4297 14.3468 59.8598C14.3053 60.2207 14.2222 60.3169 13.9316 60.3169H10.3409C10.0088 60.3169 9.8635 60.1725 9.90501 59.7876V59.6913C9.80123 57.4297 9.80123 57.4297 12.1466 57.4297Z" fill="#F3BA2F"/>
<path d="M12.1264 40.5185C11.566 40.5185 10.9848 40.4944 10.4244 40.5425C9.86399 40.5907 9.82248 39.9892 9.92626 39.6523C10.03 39.3155 9.32434 37.8719 10.3829 37.6794C11.4414 37.4869 12.7075 37.6553 13.8699 37.6313C14.2642 37.6313 14.3265 37.7997 14.3473 38.2087C14.4095 40.5185 14.4303 40.5185 12.4377 40.5185H12.1264Z" fill="#F3BA2F"/>
<path d="M12.1052 47.0864H11.7108C9.71828 47.0864 9.63525 46.9661 9.88432 44.6564C9.92583 44.2955 10.0504 44.1992 10.341 44.1992H13.911C14.2638 44.1992 14.3676 44.3436 14.3261 44.7285V44.8248C14.2846 45.5466 14.6167 46.6533 14.2223 46.9421C13.8279 47.2308 12.8109 47.0383 12.1052 47.0383V47.0864Z" fill="#F3BA2F"/>
<path d="M12.2507 33.9028H11.7733C9.69775 33.9028 9.71851 33.9028 9.90531 31.4728C9.92607 31.1119 10.0091 31.0156 10.2997 31.0156C11.5243 31.0397 12.7281 31.0397 13.9527 31.0156C14.2641 31.0156 14.3678 31.16 14.3263 31.4968V31.569C14.3263 32.3149 14.5546 33.3976 14.2433 33.7344C13.932 34.0712 12.8111 33.8066 12.2507 33.9028Z" fill="#F3BA2F"/>
<path d="M12.0844 50.8164H12.458C14.3468 50.8164 14.3468 50.8164 14.3468 52.9818C14.3468 53.5352 14.243 53.7517 13.7241 53.7277C12.6033 53.6795 11.5032 53.6795 10.3824 53.7036C10.0088 53.7277 9.90502 53.6074 9.88426 53.1743C9.80124 50.8164 9.80125 50.8164 11.7731 50.8164H12.0844Z" fill="#F3BA2F"/>
<path d="M5.68972 1.71484L34.4159 15.2365V1.71484L40.3106 4.48174C48.4676 8.33133 56.6039 12.205 64.7818 16.0305C65.4252 16.3433 65.5913 16.7042 65.5913 17.4741C65.5774 36.69 65.5636 55.9219 65.5498 75.1699C65.5498 75.9157 65.6535 76.1804 66.38 76.1563C67.6876 76.0601 69.016 76.1082 70.3444 76.1323C70.7802 76.1323 70.9255 76.012 70.9048 75.5067C70.8909 73.8225 70.8909 72.1383 70.9048 70.4541C70.9236 70.286 70.887 70.1158 70.8024 69.9776C70.7177 69.8394 70.5912 69.7432 70.4481 69.7083C66.463 68.0722 65.1139 63.2121 67.5423 59.2422C67.8121 58.785 67.6461 58.4482 67.5838 58.0632C67.4156 56.7054 67.6983 55.3241 68.3749 54.1986C69.0515 53.0731 70.0715 52.2874 71.2287 52.0002C72.3858 51.7129 73.5939 51.9457 74.6088 52.6513C75.6236 53.357 76.3695 54.4829 76.6957 55.8016C76.8757 56.5226 76.89 57.2857 76.7372 58.0151C76.6758 58.2823 76.6682 58.5623 76.7149 58.8335C76.7617 59.1047 76.8617 59.3597 77.007 59.579C77.5015 60.4243 77.8218 61.3901 77.9431 62.4017C78.0645 63.4133 77.9836 64.4437 77.7068 65.4134C77.43 66.383 76.9646 67.2659 76.3466 67.9939C75.7286 68.7219 74.9746 69.2755 74.1427 69.612C73.5615 69.8286 73.3747 70.0932 73.3955 70.791C73.4577 72.3549 73.437 73.9187 73.4162 75.4586C73.3955 75.9879 73.5408 76.1323 73.9766 76.1082C74.7654 76.0841 75.5333 76.1323 76.322 76.1082C76.6749 76.0841 76.7787 76.2044 76.7994 76.6375C76.8825 78.9954 76.9032 78.9954 74.8484 78.9954H1.70458C1.01964 78.9954 0.791321 78.8029 0.832833 77.9849C0.874345 76.0841 0.832838 76.0842 2.47255 76.0842H5.19157C5.56518 76.1082 5.73123 76.012 5.68972 75.5548C5.67932 75.3465 5.67932 75.1376 5.68972 74.9293V1.71484ZM36.9481 6.02157V6.71931C36.9481 27.7317 36.9412 48.728 36.9274 69.7083C36.9274 70.406 37.0934 70.5263 37.6746 70.5263C45.8939 70.5103 54.1063 70.5183 62.3118 70.5504C63.059 70.5504 63.142 70.2857 63.142 69.5398C63.1144 52.7781 63.1144 36.0083 63.142 19.2305C63.142 18.5568 62.976 18.2681 62.4364 18.0034L43.0504 8.88471L36.9481 6.02157ZM8.18043 35.4228C8.18043 44.9345 8.1735 54.4382 8.15966 63.9339C8.15966 64.5594 8.22194 64.8241 8.86537 64.8241C12.4354 64.776 16.0262 64.776 19.5962 64.8C20.1151 64.8241 20.2189 64.6316 20.2189 64.0542V12.3975C20.2189 11.7719 20.032 11.5313 19.5547 11.3148L9.07293 6.4306C8.18043 6.02158 8.18043 6.02157 8.18043 7.08021V35.4228ZM22.6265 12.8546V15.6696C22.6473 16.3433 22.4397 17.2335 22.7511 17.6425C23.0624 18.0515 23.8511 17.7869 24.4531 17.7869C26.4456 17.8109 26.4249 17.7869 26.3626 20.0966C26.3626 20.6019 26.2173 20.6981 25.8229 20.6741C24.9512 20.65 24.0587 20.6981 23.1869 20.6741C22.7511 20.65 22.6058 20.7703 22.6265 21.2996C22.6473 22.8876 22.6265 24.4756 22.6473 26.0635C22.6473 26.7853 22.3567 27.7236 22.7718 28.1327C23.1869 28.5417 23.8926 28.2289 24.4946 28.2289C26.3834 28.253 26.3626 28.253 26.3626 30.4184C26.3626 30.9477 26.2796 31.1642 25.7814 31.1402C24.9304 31.092 24.0587 31.1642 23.2077 31.1161C22.7096 31.068 22.6058 31.2845 22.6265 31.8138C22.6473 33.4018 22.6265 34.9898 22.6265 36.5777C22.6473 37.2754 22.4605 38.1657 22.7511 38.5747C23.0416 38.9837 23.8511 38.719 24.4531 38.719C26.4664 38.7431 26.4456 38.719 26.3626 41.0529C26.3418 41.4859 26.2588 41.6303 25.8852 41.6062C24.9927 41.5822 24.121 41.6303 23.2285 41.5822C22.7718 41.5581 22.6058 41.7025 22.6265 42.2799C22.6473 43.8919 22.6265 45.528 22.6265 47.14C22.6265 49.2573 22.6265 49.2573 24.4738 49.2573C26.3211 49.2573 26.4664 49.2573 26.3626 51.6152C26.3418 52.0483 26.2173 52.1686 25.8644 52.1445C24.9512 52.1445 24.0379 52.1686 23.1454 52.1445C22.7303 52.1204 22.6265 52.2648 22.6265 52.746C22.6473 54.3821 22.6265 56.0422 22.6265 57.6783C22.6265 59.7474 22.6265 59.7474 24.4323 59.7474C26.2381 59.7474 26.4249 59.7474 26.3626 62.0572C26.3582 62.0617 26.3546 62.0673 26.3522 62.0735C26.3498 62.0797 26.3485 62.0865 26.3485 62.0933C26.3485 62.1001 26.3498 62.1069 26.3522 62.1131C26.3546 62.1193 26.3582 62.1249 26.3626 62.1294C26.4041 62.5384 26.2381 62.6587 25.906 62.6346H23.8926C22.6058 62.6346 22.6265 62.6346 22.6265 64.1504C22.6265 64.6797 22.7303 64.8 23.1869 64.8H33.9178C34.3536 64.8 34.4781 64.6557 34.4781 64.1504C34.4366 62.5384 34.4574 60.9264 34.4574 59.2903C34.4574 58.5204 34.6857 57.4858 34.3536 57.0527C34.0215 56.6196 33.0253 56.8843 32.3403 56.8843C30.3893 56.8602 30.41 56.8843 30.4515 54.6227C30.4723 54.0693 30.6383 53.973 31.0534 53.973C32.0082 54.0212 32.963 53.9731 33.9178 53.9971C34.3744 54.0212 34.4781 53.8287 34.4781 53.3475C34.4366 51.6152 34.4782 49.8588 34.4574 48.1265C34.4366 47.3325 34.748 46.2257 34.3329 45.8167C33.9178 45.4077 33.0045 45.6724 32.2988 45.6724C30.41 45.6724 30.41 45.6724 30.4515 43.4348C30.4515 42.9295 30.5761 42.7611 31.0119 42.7611C32.0082 42.8092 32.9837 42.7611 33.98 42.7852C34.3329 42.8092 34.4782 42.6889 34.4574 42.2559V36.1206C34.4782 35.7356 34.3744 35.5913 34.0215 35.6153C33.6687 35.6394 32.8799 35.6153 32.3195 35.6153C30.3685 35.6153 30.3892 35.6153 30.4515 33.3296C30.4723 32.8484 30.576 32.7281 30.9912 32.7281H33.9385C34.3329 32.7281 34.4781 32.6319 34.4781 32.1507C34.4366 30.1537 34.4366 28.1808 34.4781 26.2079C34.4781 25.7026 34.3536 25.5342 33.897 25.5583C32.9428 25.6224 31.986 25.6144 31.0327 25.5342C29.8081 25.3898 30.6798 24.2831 30.493 23.6335C30.3062 22.9838 30.2855 22.5989 31.0534 22.6711C31.8214 22.7432 32.8799 22.647 33.7724 22.6951C34.2913 22.7192 34.5197 22.5989 34.4781 21.9252C34.4159 20.9963 34.4159 20.0632 34.4781 19.1342C34.5197 18.5087 34.2914 18.2681 33.814 18.0756L26.7154 14.7313L22.6265 12.8546ZM49.9828 73.4135H38.3803C36.8858 73.4135 36.9066 73.4135 36.8651 75.1217C36.8443 75.8917 36.9896 76.1563 37.7161 76.1323C45.6656 76.1082 53.5943 76.1323 61.5439 76.1323C63.0798 76.1323 63.059 76.1323 63.1005 74.3037C63.1005 73.606 62.976 73.3894 62.3533 73.3894C58.2229 73.4376 54.0925 73.4135 49.9828 73.4135ZM68.8499 62.9474C68.8499 65.185 69.9085 66.7248 71.3822 67.1338C72.1032 67.3444 72.8645 67.2665 73.5426 66.9128C74.2208 66.5591 74.776 65.9502 75.1182 65.185C75.8654 63.573 75.5956 61.6482 74.3295 60.4933C73.603 59.8196 73.4577 59.3865 73.9974 58.4482C74.537 57.5099 74.2672 55.5129 73.1049 54.8873C72.6918 54.6668 72.2296 54.6016 71.783 54.7008C71.3363 54.8001 70.9276 55.0588 70.6142 55.4407C70.2672 55.857 70.0598 56.4033 70.0293 56.9811C69.9989 57.5589 70.1474 58.1304 70.4481 58.5926C70.9255 59.3625 70.884 59.7956 70.1783 60.3489C69.4726 60.9023 68.8499 62.1294 68.8499 62.9474ZM34.4574 71.9458C34.4574 70.7188 34.4366 69.4917 34.4574 68.2647C34.4782 67.8075 34.3744 67.6391 33.9593 67.6632H30.7836C30.41 67.6632 30.2855 67.7835 30.2855 68.2165C30.2993 70.6707 30.2993 73.1248 30.2855 75.5789C30.2855 76.012 30.41 76.1323 30.7629 76.1323C31.8145 76.1162 32.873 76.1162 33.9385 76.1323C34.3536 76.1323 34.4781 76.036 34.4781 75.5548C34.4366 74.3518 34.4574 73.1488 34.4574 71.9458ZM8.18043 71.8496C8.18043 73.0526 8.20118 74.2556 8.18043 75.4586C8.15967 75.9157 8.22194 76.1563 8.69933 76.1323C9.71636 76.0842 10.7334 76.1082 11.7297 76.1323C12.124 76.1323 12.2901 76.0601 12.2693 75.5548C12.2555 73.1168 12.2555 70.6867 12.2693 68.2647C12.2693 67.7835 12.1448 67.6632 11.7504 67.6632C10.7334 67.6872 9.71636 67.7113 8.72008 67.6632C8.24269 67.6391 8.15967 67.8797 8.18043 68.3368C8.20118 69.5158 8.18043 70.6947 8.18043 71.8496ZM17.5206 71.9699C17.5206 71.3443 17.5413 70.7188 17.5206 70.0932C17.4998 69.4677 17.8319 68.1925 17.3753 67.7835C16.9187 67.3745 16.0262 67.7113 15.3412 67.6632C14.6563 67.6151 14.7393 67.8556 14.7393 68.385C14.7808 70.1413 14.7393 71.9218 14.76 73.6782C14.76 74.4481 14.4695 75.4826 14.8638 75.9398C15.2582 76.3969 16.2545 76.036 16.9602 76.1082C17.6659 76.1804 17.5413 76.012 17.5206 75.4827C17.4998 74.3037 17.5206 73.1488 17.5206 71.9699ZM27.8985 71.9218C27.8985 71.2722 27.9193 70.6466 27.8985 70.021C27.8778 69.3955 28.1891 68.1684 27.774 67.8075C27.3589 67.4466 26.4249 67.7113 25.7399 67.6391C25.055 67.5669 25.1795 67.8075 25.1795 68.2887C25.1795 70.0692 25.138 71.8255 25.138 73.606C25.138 74.4 24.8889 75.5067 25.2418 75.9398C25.5946 76.3729 26.6532 76.036 27.3796 76.1082C28.1061 76.1804 27.9193 75.9638 27.8985 75.5067C27.8778 74.3037 27.8985 73.1007 27.8985 71.9218ZM22.6265 71.8977C22.6265 71.2722 22.6473 70.6225 22.6265 69.997C22.6058 69.3714 22.9171 68.1925 22.502 67.7835C22.0869 67.3745 21.2151 67.7113 20.5509 67.6391C19.8868 67.5669 19.9905 67.8075 19.9905 68.3128C20.0113 70.0932 19.9698 71.8977 19.9698 73.6782C19.9698 74.4721 19.7415 75.5067 20.0736 75.9398C20.4057 76.3729 21.3812 76.036 22.0661 76.1082C22.7511 76.1804 22.6473 76.012 22.6473 75.4827C22.6058 74.2797 22.6265 73.0767 22.6265 71.8977Z" fill="url(#paint0_linear_4911_24)"/>
<path d="M56.2724 29.0196H55.7327C55.1931 28.9715 54.3006 29.2602 54.176 28.8993C54.0515 28.5384 54.093 27.2632 54.0723 26.4211C54.0723 26.1324 54.2591 26.1324 54.4459 26.1324H58.0989C58.3895 26.1083 58.5555 26.2046 58.5348 26.5655C58.5139 26.6273 58.5139 26.6961 58.5348 26.7579C58.6178 29.0196 58.6178 29.0196 56.2724 29.0196Z" fill="url(#paint1_linear_4911_24)"/>
<path d="M56.314 59.1436H56.9367C57.4556 59.1917 58.2235 58.8549 58.4103 59.2639C58.5971 59.6729 58.5141 60.9 58.5141 61.718C58.5141 62.0789 58.2443 62.0308 58.0367 62.0308H54.5497C54.1969 62.0308 54.0723 61.9105 54.0516 61.4774C53.9478 59.1195 53.9478 59.1436 55.9404 59.1436H56.314Z" fill="url(#paint2_linear_4911_24)"/>
<path d="M56.2517 42.227H55.9403C53.8647 42.227 53.8855 42.227 54.0723 39.797C54.0931 39.4601 54.1761 39.3398 54.4667 39.3398C55.6705 39.3639 56.8951 39.3639 58.099 39.3398C58.4726 39.3398 58.5141 39.5323 58.5348 39.8692C58.6594 42.227 58.6594 42.227 56.646 42.227H56.2517Z" fill="url(#paint3_linear_4911_24)"/>
<path d="M56.2513 48.8013H55.9399C53.8436 48.8013 53.8436 48.8013 54.0719 46.3712C54.0927 46.0344 54.1757 45.9141 54.487 45.9141H58.1193C58.4306 45.9141 58.5344 46.0584 58.5344 46.3953C58.5344 46.7321 58.5137 46.4434 58.5344 46.4915C58.659 48.8013 58.659 48.8013 56.2513 48.8013Z" fill="url(#paint4_linear_4911_24)"/>
<path d="M43.6107 29.0184H43.2994C41.2238 29.0184 41.2031 28.9943 41.4314 26.5642C41.4729 26.2274 41.5767 26.1312 41.8465 26.1312H45.4165C45.7694 26.1071 45.8939 26.2755 45.8524 26.6605V26.7327C45.8109 27.4785 46.143 28.5853 45.7279 28.874C45.3127 29.1627 44.3372 28.9462 43.6107 28.9462V29.0184Z" fill="url(#paint5_linear_4911_24)"/>
<path d="M43.5895 62.0317H41.8876C41.5347 62.0558 41.4102 61.8874 41.4309 61.5024C41.4406 61.4758 41.4456 61.4471 41.4456 61.4182C41.4456 61.3893 41.4406 61.3606 41.4309 61.334C41.3894 59.1445 41.3894 59.1445 43.2782 59.1445H44.5236C45.8519 59.1445 45.8519 59.1445 45.8519 60.6603C45.8519 62.1761 45.8519 62.0317 44.6688 62.0317H43.5895Z" fill="url(#paint6_linear_4911_24)"/>
<path d="M56.2724 35.618C56.0927 35.6301 55.9125 35.6301 55.7327 35.618C55.1931 35.5699 54.3421 35.8827 54.1968 35.4977C54.0515 35.1128 54.093 33.8617 54.0723 33.0436C54.0723 32.7068 54.2798 32.7308 54.4459 32.7308C55.6705 32.7308 56.8743 32.7549 58.0989 32.7308C58.4518 32.7308 58.5555 32.8993 58.514 33.2602C58.4725 33.6211 58.5348 33.3323 58.514 33.3564C58.4725 34.1023 58.8046 35.185 58.3895 35.4977C57.9744 35.8105 56.9988 35.5699 56.2724 35.5699V35.618Z" fill="url(#paint7_linear_4911_24)"/>
<path d="M56.3138 55.4184H55.9402C53.8646 55.4184 53.8646 55.4185 54.0721 52.9884C54.0929 52.6275 54.1759 52.5312 54.4665 52.5312H58.1195C58.4309 52.5312 58.5554 52.6516 58.5139 52.9884V53.0846C58.6384 55.4184 58.6384 55.4184 56.3138 55.4184Z" fill="url(#paint8_linear_4911_24)"/>
<path d="M43.6526 35.6171C43.0922 35.6171 42.511 35.593 41.9506 35.6411C41.3902 35.6892 41.4317 35.4727 41.4317 35.0156C41.3902 32.7299 41.3694 32.7539 43.362 32.7539C44.0469 32.7539 44.7111 32.778 45.396 32.7299C46.081 32.6818 45.8527 32.8742 45.8527 33.3073C45.9357 35.6171 45.9357 35.6171 43.9639 35.6171H43.6526Z" fill="url(#paint9_linear_4911_24)"/>
<path d="M43.6325 42.227H43.3212C41.2248 42.227 41.2456 42.227 41.4324 39.797C41.4531 39.4601 41.5362 39.3398 41.8475 39.3398C43.0306 39.3639 44.2137 39.3639 45.4175 39.3398C45.7289 39.3398 45.9157 39.4361 45.8534 39.8451V39.9173C45.9364 42.227 45.9364 42.227 43.6325 42.227Z" fill="url(#paint10_linear_4911_24)"/>
<path d="M43.5685 48.8002C43.0497 48.7722 42.5299 48.7802 42.0118 48.8243C41.5137 48.8724 41.4307 48.6318 41.4307 48.1025C41.4307 45.9131 41.4099 45.913 43.2987 45.913H45.312C45.7064 45.889 45.8517 46.0093 45.8724 46.4905C45.9555 48.8002 45.9555 48.8002 43.9629 48.8002H43.5685Z" fill="url(#paint11_linear_4911_24)"/>
<path d="M43.5897 55.4184C43.0085 55.4184 42.4481 55.3944 41.8669 55.4184C41.2858 55.4425 41.4518 55.2982 41.4311 54.9132C41.3065 52.5313 41.3065 52.5312 43.3614 52.5312H43.984C46.0596 52.5312 46.0596 52.5313 45.8521 54.9854C45.8313 55.3222 45.7483 55.4425 45.437 55.4184C45.1256 55.3944 44.2124 55.4184 43.5897 55.4184Z" fill="url(#paint12_linear_4911_24)"/>
<path d="M12.9543 29.0251C12.3731 29.0251 11.8127 28.977 11.2315 29.0251C10.6504 29.0732 10.6296 28.592 10.7542 28.2311C10.8787 27.8702 10.1107 26.3785 11.2108 26.186C12.3108 25.9935 13.5354 26.1379 14.7185 26.1379C15.0299 26.1138 15.1544 26.2341 15.1752 26.6191C15.3204 29.0251 15.3412 29.0251 13.2656 29.0251H12.9543Z" fill="url(#paint13_linear_4911_24)"/>
<path d="M12.9748 59.1445H13.2861C15.4032 59.1445 15.4032 59.1445 15.1749 61.5746C15.1334 61.9355 15.0504 62.0317 14.7598 62.0317H11.169C10.8369 62.0317 10.6916 61.8874 10.7331 61.5024V61.4062C10.6294 59.1445 10.6294 59.1445 12.9748 59.1445Z" fill="url(#paint14_linear_4911_24)"/>
<path d="M12.9545 42.2333C12.3941 42.2333 11.8129 42.2093 11.2525 42.2574C10.6921 42.3055 10.6506 41.704 10.7544 41.3672C10.8582 41.0303 10.1525 39.5867 11.211 39.3943C12.2696 39.2018 13.5357 39.3702 14.698 39.3461C15.0924 39.3461 15.1546 39.5145 15.1754 39.9236C15.2377 42.2333 15.2584 42.2333 13.2659 42.2333H12.9545Z" fill="url(#paint15_linear_4911_24)"/>
<path d="M12.9333 48.8013H12.539C10.5464 48.8013 10.4634 48.681 10.7124 46.3712C10.754 46.0103 10.8785 45.9141 11.1691 45.9141H14.7391C15.0919 45.9141 15.1957 46.0584 15.1542 46.4434V46.5396C15.1127 47.2614 15.4448 48.3682 15.0504 48.6569C14.6561 48.9456 13.639 48.7531 12.9333 48.7531V48.8013Z" fill="url(#paint16_linear_4911_24)"/>
<path d="M13.0789 35.6177H12.6015C10.5259 35.6177 10.5466 35.6177 10.7334 33.1876C10.7542 32.8267 10.8372 32.7305 11.1278 32.7305C12.3524 32.7545 13.5562 32.7545 14.7808 32.7305C15.0922 32.7305 15.196 32.8748 15.1544 33.2117V33.2838C15.1544 34.0297 15.3828 35.1124 15.0714 35.4492C14.7601 35.7861 13.6393 35.5214 13.0789 35.6177Z" fill="url(#paint17_linear_4911_24)"/>
<path d="M12.9125 52.5312H13.2861C15.1749 52.5312 15.1749 52.5312 15.1749 54.6966C15.1749 55.25 15.0711 55.4666 14.5522 55.4425C13.4314 55.3944 12.3314 55.3944 11.2105 55.4184C10.8369 55.4425 10.7331 55.3222 10.7124 54.8891C10.6294 52.5313 10.6294 52.5312 12.6012 52.5312H12.9125Z" fill="url(#paint18_linear_4911_24)"/>
<defs>
<linearGradient id="paint0_linear_4911_24" x1="39.413" y1="1.71484" x2="39.413" y2="78.9954" gradientUnits="userSpaceOnUse">
<stop stop-color="white" stop-opacity="0.66"/>
<stop offset="1" stop-color="#969696" stop-opacity="0"/>
</linearGradient>
<linearGradient id="paint1_linear_4911_24" x1="56.3156" y1="26.1289" x2="56.3156" y2="29.0837" gradientUnits="userSpaceOnUse">
<stop stop-color="white" stop-opacity="0.66"/>
<stop offset="1" stop-color="#969696" stop-opacity="0"/>
</linearGradient>
<linearGradient id="paint2_linear_4911_24" x1="56.2745" y1="59.0586" x2="56.2745" y2="62.0329" gradientUnits="userSpaceOnUse">
<stop stop-color="white" stop-opacity="0.66"/>
<stop offset="1" stop-color="#969696" stop-opacity="0"/>
</linearGradient>
<linearGradient id="paint3_linear_4911_24" x1="56.2863" y1="39.3398" x2="56.2863" y2="42.227" gradientUnits="userSpaceOnUse">
<stop stop-color="white" stop-opacity="0.66"/>
<stop offset="1" stop-color="#969696" stop-opacity="0"/>
</linearGradient>
<linearGradient id="paint4_linear_4911_24" x1="56.2745" y1="45.9141" x2="56.2745" y2="48.8013" gradientUnits="userSpaceOnUse">
<stop stop-color="white" stop-opacity="0.66"/>
<stop offset="1" stop-color="#969696" stop-opacity="0"/>
</linearGradient>
<linearGradient id="paint5_linear_4911_24" x1="43.637" y1="26.1289" x2="43.637" y2="29.0241" gradientUnits="userSpaceOnUse">
<stop stop-color="white" stop-opacity="0.66"/>
<stop offset="1" stop-color="#969696" stop-opacity="0"/>
</linearGradient>
<linearGradient id="paint6_linear_4911_24" x1="43.6364" y1="59.1445" x2="43.6364" y2="62.0354" gradientUnits="userSpaceOnUse">
<stop stop-color="white" stop-opacity="0.66"/>
<stop offset="1" stop-color="#969696" stop-opacity="0"/>
</linearGradient>
<linearGradient id="paint7_linear_4911_24" x1="56.3365" y1="32.7305" x2="56.3365" y2="35.6926" gradientUnits="userSpaceOnUse">
<stop stop-color="white" stop-opacity="0.66"/>
<stop offset="1" stop-color="#969696" stop-opacity="0"/>
</linearGradient>
<linearGradient id="paint8_linear_4911_24" x1="56.2703" y1="52.5312" x2="56.2703" y2="55.4184" gradientUnits="userSpaceOnUse">
<stop stop-color="white" stop-opacity="0.66"/>
<stop offset="1" stop-color="#969696" stop-opacity="0"/>
</linearGradient>
<linearGradient id="paint9_linear_4911_24" x1="43.6551" y1="32.7227" x2="43.6551" y2="35.6477" gradientUnits="userSpaceOnUse">
<stop stop-color="white" stop-opacity="0.66"/>
<stop offset="1" stop-color="#969696" stop-opacity="0"/>
</linearGradient>
<linearGradient id="paint10_linear_4911_24" x1="43.6156" y1="39.3398" x2="43.6156" y2="42.227" gradientUnits="userSpaceOnUse">
<stop stop-color="white" stop-opacity="0.66"/>
<stop offset="1" stop-color="#969696" stop-opacity="0"/>
</linearGradient>
<linearGradient id="paint11_linear_4911_24" x1="43.6644" y1="45.9102" x2="43.6644" y2="48.8303" gradientUnits="userSpaceOnUse">
<stop stop-color="white" stop-opacity="0.66"/>
<stop offset="1" stop-color="#969696" stop-opacity="0"/>
</linearGradient>
<linearGradient id="paint12_linear_4911_24" x1="43.6633" y1="52.5312" x2="43.6633" y2="55.4214" gradientUnits="userSpaceOnUse">
<stop stop-color="white" stop-opacity="0.66"/>
<stop offset="1" stop-color="#969696" stop-opacity="0"/>
</linearGradient>
<linearGradient id="paint13_linear_4911_24" x1="12.9202" y1="26.0859" x2="12.9202" y2="29.0284" gradientUnits="userSpaceOnUse">
<stop stop-color="white" stop-opacity="0.66"/>
<stop offset="1" stop-color="#969696" stop-opacity="0"/>
</linearGradient>
<linearGradient id="paint14_linear_4911_24" x1="12.987" y1="59.1445" x2="12.987" y2="62.0317" gradientUnits="userSpaceOnUse">
<stop stop-color="white" stop-opacity="0.66"/>
<stop offset="1" stop-color="#969696" stop-opacity="0"/>
</linearGradient>
<linearGradient id="paint15_linear_4911_24" x1="12.9066" y1="39.3008" x2="12.9066" y2="42.2601" gradientUnits="userSpaceOnUse">
<stop stop-color="white" stop-opacity="0.66"/>
<stop offset="1" stop-color="#969696" stop-opacity="0"/>
</linearGradient>
<linearGradient id="paint16_linear_4911_24" x1="12.929" y1="45.9141" x2="12.929" y2="48.816" gradientUnits="userSpaceOnUse">
<stop stop-color="white" stop-opacity="0.66"/>
<stop offset="1" stop-color="#969696" stop-opacity="0"/>
</linearGradient>
<linearGradient id="paint17_linear_4911_24" x1="12.9447" y1="32.7305" x2="12.9447" y2="35.6267" gradientUnits="userSpaceOnUse">
<stop stop-color="white" stop-opacity="0.66"/>
<stop offset="1" stop-color="#969696" stop-opacity="0"/>
</linearGradient>
<linearGradient id="paint18_linear_4911_24" x1="12.9307" y1="52.5312" x2="12.9307" y2="55.4443" gradientUnits="userSpaceOnUse">
<stop stop-color="white" stop-opacity="0.66"/>
<stop offset="1" stop-color="#969696" stop-opacity="0"/>
</linearGradient>
</defs>
</svg>
