<svg width="90" height="90" viewBox="0 0 90 90" fill="none" xmlns="http://www.w3.org/2000/svg">
<path d="M5.60953 0L38.7551 15.6019V0L45.5566 3.19257C54.9686 7.63441 64.3567 12.104 73.7927 16.5181C74.5351 16.879 74.7267 17.2954 74.7267 18.1838C74.7107 40.3559 74.6948 62.5466 74.6788 84.7558C74.6788 85.6164 74.7985 85.9218 75.6367 85.894C77.1455 85.783 78.6783 85.8385 80.211 85.8662C80.714 85.8662 80.8816 85.7274 80.8576 85.1444C80.8417 83.2011 80.8417 81.2578 80.8576 79.3145C80.8793 79.1205 80.8372 78.9242 80.7395 78.7647C80.6418 78.6052 80.4959 78.4942 80.3308 78.4539C75.7325 76.5661 74.1758 70.9583 76.9779 66.3777C77.2892 65.8502 77.0976 65.4615 77.0258 65.0174C76.8317 63.4506 77.1579 61.8568 77.9386 60.5582C78.7193 59.2596 79.8962 58.3529 81.2314 58.0215C82.5666 57.6901 83.9605 57.9586 85.1315 58.7729C86.3025 59.5871 87.1631 60.8863 87.5395 62.4078C87.7472 63.2398 87.7637 64.1202 87.5873 64.9618C87.5165 65.2702 87.5077 65.5932 87.5617 65.9061C87.6157 66.219 87.731 66.5133 87.8987 66.7663C88.4693 67.7417 88.8388 68.856 88.9788 70.0233C89.1188 71.1905 89.0255 72.3795 88.7061 73.4983C88.3867 74.6171 87.8498 75.6358 87.1367 76.4758C86.4237 77.3158 85.5536 77.9546 84.5937 78.3429C83.9231 78.5927 83.7076 78.8981 83.7315 79.7032C83.8034 81.5077 83.7794 83.3122 83.7555 85.0889C83.7315 85.6997 83.8992 85.8662 84.4021 85.8385C85.3122 85.8107 86.1983 85.8662 87.1084 85.8385C87.5155 85.8107 87.6352 85.9495 87.6592 86.4492C87.755 89.1699 87.7789 89.1699 85.408 89.1699H1.0113C0.220977 89.1699 -0.0424659 88.9478 0.00543229 88.0039C0.0533305 85.8107 0.00543812 85.8107 1.89742 85.8107H5.03475C5.46583 85.8385 5.65743 85.7274 5.60953 85.2C5.59753 84.9596 5.59753 84.7186 5.60953 84.4782V0ZM41.6769 4.9693V5.77438C41.6769 30.0194 41.6689 54.2459 41.653 78.4539C41.653 79.259 41.8445 79.3978 42.5151 79.3978C51.999 79.3793 61.4748 79.3886 70.9427 79.4256C71.8049 79.4256 71.9007 79.1202 71.9007 78.2596C71.8687 58.9191 71.8687 39.5694 71.9007 20.2104C71.9007 19.433 71.7091 19.0999 71.0864 18.7945L48.7179 8.27292L41.6769 4.9693ZM8.48343 38.8938C8.48343 49.8689 8.47543 60.8346 8.45947 71.7912C8.45947 72.513 8.53132 72.8184 9.27374 72.8184C13.393 72.7628 17.5362 72.7628 21.6554 72.7906C22.2542 72.8183 22.3739 72.5963 22.3739 71.93V12.3261C22.3739 11.6043 22.1584 11.3267 21.6075 11.0768L9.51323 5.44125C8.48342 4.96931 8.48343 4.9693 8.48343 6.19081V38.8938ZM25.152 12.8536V16.1017C25.176 16.879 24.9365 17.9061 25.2957 18.3781C25.6549 18.85 26.565 18.5447 27.2595 18.5447C29.5586 18.5724 29.5347 18.5447 29.4628 21.2098C29.4628 21.7928 29.2952 21.9038 28.8402 21.876C27.8343 21.8483 26.8045 21.9038 25.7986 21.876C25.2957 21.8483 25.1281 21.9871 25.152 22.5978C25.176 24.4301 25.152 26.2624 25.1759 28.0946C25.1759 28.9275 24.8407 30.0102 25.3197 30.4821C25.7986 30.954 26.6129 30.5931 27.3074 30.5931C29.4868 30.6209 29.4628 30.6209 29.4628 33.1194C29.4628 33.7302 29.3671 33.98 28.7923 33.9523C27.8104 33.8968 26.8045 33.98 25.8226 33.9245C25.2478 33.869 25.1281 34.1189 25.152 34.7296C25.176 36.5619 25.152 38.3941 25.152 40.2264C25.176 41.0315 24.9604 42.0586 25.2957 42.5306C25.631 43.0025 26.565 42.6971 27.2595 42.6971C29.5826 42.7249 29.5586 42.6971 29.4628 45.39C29.4389 45.8897 29.3431 46.0563 28.912 46.0285C27.8822 46.0008 26.8763 46.0563 25.8465 46.0008C25.3197 45.973 25.1281 46.1396 25.152 46.8058C25.176 48.6659 25.152 50.5536 25.152 52.4137C25.152 54.8567 25.152 54.8567 27.2835 54.8567C29.415 54.8567 29.5826 54.8567 29.4628 57.5773C29.4389 58.077 29.2952 58.2158 28.8881 58.1881C27.8343 58.1881 26.7805 58.2158 25.7507 58.1881C25.2717 58.1603 25.152 58.3269 25.152 58.8821C25.176 60.7699 25.152 62.6854 25.152 64.5732C25.152 66.9607 25.152 66.9607 27.2356 66.9607C29.3192 66.9607 29.5347 66.9607 29.4628 69.6258C29.4577 69.631 29.4537 69.6374 29.4509 69.6446C29.4481 69.6518 29.4466 69.6595 29.4466 69.6674C29.4466 69.6753 29.4481 69.6831 29.4509 69.6903C29.4537 69.6974 29.4577 69.7038 29.4628 69.7091C29.5107 70.181 29.3191 70.3198 28.936 70.292H26.6129C25.128 70.292 25.152 70.292 25.152 72.041C25.152 72.6518 25.2718 72.7906 25.7986 72.7906H38.1803C38.6833 72.7906 38.8269 72.624 38.8269 72.041C38.779 70.181 38.803 68.321 38.803 66.4332C38.803 65.5448 39.0664 64.3511 38.6833 63.8514C38.3001 63.3517 37.1505 63.6571 36.3602 63.6571C34.109 63.6293 34.1329 63.6571 34.1808 61.0475C34.2048 60.409 34.3964 60.2979 34.8753 60.2979C35.977 60.3534 37.0787 60.2979 38.1803 60.3257C38.7072 60.3534 38.8269 60.1314 38.8269 59.5761C38.779 57.5773 38.827 55.5507 38.803 53.5519C38.7791 52.6358 39.1383 51.3587 38.6593 50.8868C38.1803 50.4148 37.1266 50.7202 36.3123 50.7202C34.1329 50.7202 34.1329 50.7202 34.1808 48.1384C34.1808 47.5554 34.3245 47.3611 34.8275 47.3611C35.977 47.4166 37.1026 47.3611 38.2522 47.3888C38.6593 47.4166 38.827 47.2778 38.803 46.7781V39.6989C38.827 39.2547 38.7072 39.0882 38.3001 39.1159C37.8929 39.1437 36.9829 39.1159 36.3362 39.1159C34.085 39.1159 34.109 39.1159 34.1808 36.4786C34.2048 35.9233 34.3245 35.7845 34.8035 35.7845H38.2043C38.6593 35.7845 38.8269 35.6735 38.8269 35.1183C38.779 32.8141 38.779 30.5376 38.8269 28.2612C38.8269 27.6782 38.6833 27.4839 38.1564 27.5116C37.0554 27.5857 35.9514 27.5764 34.8514 27.4839C33.4384 27.3173 34.4443 26.0403 34.2287 25.2907C34.0132 24.5411 33.9892 24.097 34.8753 24.1802C35.7615 24.2635 36.9829 24.1525 38.0127 24.208C38.6114 24.2358 38.8748 24.097 38.8269 23.3196C38.7551 22.2478 38.7551 21.1711 38.8269 20.0993C38.8748 19.3775 38.6114 19.0999 38.0606 18.8778L29.87 15.019L25.152 12.8536ZM56.717 82.7292H43.3294C41.6051 82.7292 41.629 82.7292 41.5811 84.7003C41.5571 85.5886 41.7248 85.894 42.563 85.8662C51.7355 85.8385 60.8841 85.8662 70.0566 85.8662C71.8288 85.8662 71.8049 85.8662 71.8528 83.7564C71.8528 82.9513 71.7091 82.7014 70.9906 82.7014C66.2247 82.757 61.4589 82.7292 56.717 82.7292ZM78.4867 70.6529C78.4867 73.2348 79.7081 75.0115 81.4085 75.4834C82.2405 75.7264 83.1189 75.6366 83.9014 75.2284C84.6838 74.8203 85.3244 74.1178 85.7193 73.2348C86.5815 71.3748 86.2701 69.1538 84.8092 67.8213C83.971 67.044 83.8034 66.5443 84.4261 65.4616C85.0487 64.3789 84.7374 62.0747 83.3962 61.3529C82.9196 61.0984 82.3863 61.0231 81.8709 61.1376C81.3556 61.2521 80.884 61.5507 80.5223 61.9914C80.1219 62.4717 79.8826 63.102 79.8475 63.7688C79.8124 64.4355 79.9838 65.0948 80.3308 65.6281C80.8816 66.5165 80.8337 67.0162 80.0194 67.6547C79.2052 68.2932 78.4867 69.7091 78.4867 70.6529ZM38.803 81.0357C38.803 79.6199 38.7791 78.2041 38.803 76.7882C38.827 76.2608 38.7072 76.0664 38.2282 76.0942H34.564C34.1329 76.0942 33.9892 76.233 33.9892 76.7327C34.0052 79.5644 34.0052 82.396 33.9892 85.2277C33.9892 85.7274 34.1329 85.8662 34.5401 85.8662C35.7535 85.8477 36.9749 85.8477 38.2043 85.8662C38.6833 85.8662 38.8269 85.7552 38.8269 85.2C38.779 83.8119 38.803 82.4238 38.803 81.0357ZM8.48343 80.9247C8.48343 82.3128 8.50737 83.7008 8.48343 85.0889C8.45948 85.6164 8.53132 85.894 9.08215 85.8662C10.2557 85.8107 11.4292 85.8385 12.5787 85.8662C13.0338 85.8662 13.2253 85.783 13.2014 85.2C13.1854 82.3868 13.1854 79.5829 13.2014 76.7882C13.2014 76.233 13.0577 76.0942 12.6027 76.0942C11.4292 76.122 10.2557 76.1497 9.1061 76.0942C8.55527 76.0664 8.45948 76.3441 8.48343 76.8715C8.50737 78.2318 8.48343 79.5921 8.48343 80.9247ZM19.2605 81.0635C19.2605 80.3417 19.2845 79.6199 19.2605 78.8981C19.2366 78.1763 19.6198 76.705 19.0929 76.233C18.566 75.7611 17.5362 76.1497 16.7459 76.0942C15.9555 76.0387 16.0513 76.3163 16.0513 76.927C16.0992 78.9536 16.0513 81.008 16.0753 83.0346C16.0753 83.9229 15.74 85.1167 16.195 85.6441C16.6501 86.1716 17.7996 85.7552 18.6139 85.8385C19.4282 85.9218 19.2845 85.7274 19.2605 85.1167C19.2366 83.7564 19.2605 82.4238 19.2605 81.0635ZM31.2351 81.008C31.2351 80.2584 31.259 79.5366 31.2351 78.8148C31.2111 78.093 31.5704 76.6772 31.0914 76.2608C30.6124 75.8443 29.5347 76.1497 28.7444 76.0664C27.9541 75.9831 28.0977 76.2608 28.0977 76.816C28.0977 78.8703 28.0498 80.8969 28.0498 82.9513C28.0498 83.8674 27.7625 85.1444 28.1696 85.6441C28.5767 86.1438 29.7981 85.7552 30.6364 85.8385C31.4746 85.9218 31.259 85.6719 31.2351 85.1444C31.2111 83.7564 31.2351 82.3683 31.2351 81.008ZM25.152 80.9802C25.152 80.2584 25.176 79.5089 25.152 78.7871C25.1281 78.0653 25.4873 76.705 25.0083 76.233C24.5293 75.7611 23.5235 76.1497 22.7571 76.0664C21.9907 75.9831 22.1105 76.2608 22.1105 76.8438C22.1344 78.8981 22.0865 80.9802 22.0865 83.0346C22.0865 83.9507 21.8231 85.1444 22.2063 85.6441C22.5895 86.1438 23.7151 85.7552 24.5054 85.8385C25.2957 85.9218 25.1759 85.7274 25.1759 85.1167C25.128 83.7286 25.152 82.3405 25.152 80.9802Z" fill="#3C3C3D"/>
<path d="M63.9737 31.5073H63.351C62.7283 31.4517 61.6985 31.7849 61.5548 31.3685C61.4111 30.952 61.459 29.4807 61.4351 28.509C61.4351 28.1759 61.6506 28.1759 61.8662 28.1759H66.0812C66.4165 28.1481 66.6081 28.2592 66.5841 28.6756C66.5601 28.747 66.5601 28.8263 66.5841 28.8977C66.6799 31.5073 66.6799 31.5073 63.9737 31.5073Z" fill="#3C3C3D"/>
<path d="M64.0214 66.266H64.7399C65.3386 66.3216 66.2247 65.9329 66.4403 66.4049C66.6558 66.8768 66.56 68.2926 66.56 69.2365C66.56 69.6529 66.2487 69.5974 66.0092 69.5974H61.9858C61.5786 69.5974 61.4349 69.4586 61.411 68.9589C61.2912 66.2383 61.2912 66.266 63.5903 66.266H64.0214Z" fill="#3C3C3D"/>
<path d="M63.9495 46.7454H63.5902C61.1953 46.7454 61.2193 46.7454 61.4348 43.9415C61.4588 43.5529 61.5546 43.4141 61.8899 43.4141C63.2789 43.4418 64.6919 43.4418 66.081 43.4141C66.512 43.4141 66.5599 43.6362 66.5839 44.0248C66.7276 46.7454 66.7276 46.7454 64.4045 46.7454H63.9495Z" fill="#3C3C3D"/>
<path d="M63.9495 54.3314H63.5902C61.1714 54.3314 61.1714 54.3314 61.4348 51.5275C61.4588 51.1388 61.5546 51 61.9138 51H66.1049C66.4641 51 66.5839 51.1666 66.5839 51.5552C66.5839 51.9439 66.5599 51.6108 66.5839 51.6663C66.7276 54.3314 66.7276 54.3314 63.9495 54.3314Z" fill="#3C3C3D"/>
<path d="M49.3647 31.5058H49.0054C46.6105 31.5058 46.5866 31.4781 46.85 28.6742C46.8979 28.2855 47.0177 28.1745 47.329 28.1745H51.4483C51.8554 28.1467 51.9991 28.341 51.9512 28.7852V28.8685C51.9033 29.7291 52.2865 31.0061 51.8075 31.3393C51.3285 31.6724 50.2029 31.4226 49.3647 31.4226V31.5058Z" fill="#3C3C3D"/>
<path d="M49.3407 69.597H47.3768C46.9697 69.6248 46.826 69.4304 46.8499 68.9862C46.8611 68.9555 46.8669 68.9225 46.8669 68.8891C46.8669 68.8557 46.8611 68.8227 46.8499 68.7919C46.8021 66.2656 46.8021 66.2656 48.9814 66.2656H50.4184C51.9511 66.2656 51.9511 66.2656 51.9511 68.0146C51.9511 69.7636 51.9511 69.597 50.586 69.597H49.3407Z" fill="#3C3C3D"/>
<path d="M63.9737 39.117C63.7663 39.1309 63.5584 39.1309 63.351 39.117C62.7283 39.0614 61.7464 39.4223 61.5787 38.9782C61.4111 38.534 61.459 37.0904 61.4351 36.1465C61.4351 35.7578 61.6746 35.7856 61.8662 35.7856C63.2792 35.7856 64.6682 35.8134 66.0812 35.7856C66.4883 35.7856 66.6081 35.9799 66.5602 36.3963C66.5123 36.8128 66.5841 36.4796 66.5602 36.5074C66.5123 37.368 66.8955 38.6173 66.4165 38.9782C65.9375 39.3391 64.8119 39.0614 63.9737 39.0614V39.117Z" fill="#3C3C3D"/>
<path d="M64.0215 61.9642H63.5904C61.1955 61.9642 61.1955 61.9642 61.435 59.1603C61.4589 58.7439 61.5547 58.6328 61.89 58.6328H66.1051C66.4643 58.6328 66.608 58.7716 66.5601 59.1603V59.2713C66.7038 61.9642 66.7038 61.9642 64.0215 61.9642Z" fill="#3C3C3D"/>
<path d="M49.4124 39.117C48.7658 39.117 48.0952 39.0893 47.4486 39.1448C46.8019 39.2003 46.8498 38.9505 46.8498 38.423C46.8019 35.7857 46.778 35.8134 49.0771 35.8134C49.8674 35.8134 50.6338 35.8412 51.4241 35.7857C52.2144 35.7301 51.951 35.9522 51.951 36.4519C52.0468 39.117 52.0468 39.117 49.7716 39.117H49.4124Z" fill="#3C3C3D"/>
<path d="M49.3884 46.7454H49.0292C46.6103 46.7454 46.6342 46.7454 46.8498 43.9415C46.8737 43.5529 46.9695 43.4141 47.3288 43.4141C48.6939 43.4418 50.059 43.4418 51.448 43.4141C51.8073 43.4141 52.0228 43.5251 51.951 43.9971V44.0803C52.0468 46.7454 52.0467 46.7454 49.3884 46.7454Z" fill="#3C3C3D"/>
<path d="M49.3166 54.3308C48.718 54.2984 48.1182 54.3077 47.5205 54.3586C46.9457 54.4141 46.8499 54.1365 46.8499 53.5257C46.8499 50.9994 46.8259 50.9994 49.0053 50.9994H51.3284C51.7834 50.9717 51.951 51.1105 51.975 51.6657C52.0708 54.3308 52.0708 54.3308 49.7717 54.3308H49.3166Z" fill="#3C3C3D"/>
<path d="M49.3407 61.9642C48.6701 61.9642 48.0235 61.9364 47.3529 61.9642C46.6823 61.992 46.8739 61.8254 46.85 61.3812C46.7063 58.6328 46.7063 58.6328 49.0773 58.6328H49.7957C52.1907 58.6328 52.1907 58.6328 51.9512 61.4645C51.9272 61.8531 51.8314 61.992 51.4722 61.9642C51.1129 61.9364 50.0592 61.9642 49.3407 61.9642Z" fill="#3C3C3D"/>
<path d="M13.9917 31.5124C13.3211 31.5124 12.6745 31.4569 12.0039 31.5124C11.3333 31.568 11.3094 31.0127 11.4531 30.5963C11.5968 30.1799 10.7107 28.4587 11.98 28.2366C13.2493 28.0145 14.6623 28.1811 16.0274 28.1811C16.3866 28.1533 16.5303 28.2921 16.5542 28.7363C16.7219 31.5124 16.7459 31.5124 14.3509 31.5124H13.9917Z" fill="#3C3C3D"/>
<path d="M14.0156 66.2656H14.3749C16.8177 66.2656 16.8177 66.2656 16.5542 69.0695C16.5063 69.486 16.4105 69.597 16.0752 69.597H11.932C11.5489 69.597 11.3812 69.4304 11.4291 68.9862V68.8752C11.3094 66.2656 11.3094 66.2656 14.0156 66.2656Z" fill="#3C3C3D"/>
<path d="M13.9918 46.7509C13.3452 46.7509 12.6746 46.7231 12.028 46.7786C11.3813 46.8342 11.3334 46.1401 11.4532 45.7515C11.5729 45.3628 10.7586 43.6971 11.9801 43.475C13.2015 43.2529 14.6623 43.4473 16.0035 43.4195C16.4585 43.4195 16.5304 43.6138 16.5543 44.0858C16.6262 46.7509 16.6501 46.7509 14.351 46.7509H13.9918Z" fill="#3C3C3D"/>
<path d="M13.9677 54.3314H13.5126C11.2135 54.3314 11.1177 54.1926 11.4051 51.5275C11.453 51.1111 11.5967 51 11.932 51H16.0512C16.4584 51 16.5781 51.1666 16.5302 51.6108V51.7218C16.4823 52.5546 16.8655 53.8317 16.4105 54.1648C15.9554 54.498 14.7819 54.2759 13.9677 54.2759V54.3314Z" fill="#3C3C3D"/>
<path d="M14.1355 39.1165H13.5846C11.1897 39.1165 11.2137 39.1165 11.4292 36.3126C11.4532 35.8962 11.5489 35.7852 11.8842 35.7852C13.2972 35.8129 14.6863 35.8129 16.0993 35.7852C16.4585 35.7852 16.5783 35.9517 16.5304 36.3404V36.4237C16.5304 37.2843 16.7938 38.5335 16.4346 38.9222C16.0753 39.3109 14.7821 39.0055 14.1355 39.1165Z" fill="#3C3C3D"/>
<path d="M13.9439 58.6328H14.375C16.5544 58.6328 16.5544 58.6328 16.5544 61.1313C16.5544 61.7699 16.4346 62.0197 15.8359 61.992C14.5427 61.9364 13.2734 61.9364 11.9801 61.9642C11.549 61.992 11.4293 61.8531 11.4053 61.3534C11.3095 58.6328 11.3095 58.6328 13.5847 58.6328H13.9439Z" fill="#3C3C3D"/>
<path d="M6.56754 0.828125L39.7131 16.4301V0.828125L46.5146 4.02069C55.9267 8.46253 65.3147 12.9321 74.7507 17.3462C75.4931 17.7071 75.6847 18.1235 75.6847 19.0119C75.6687 41.1841 75.6528 63.3747 75.6368 85.5839C75.6368 86.4445 75.7565 86.7499 76.5948 86.7221C78.1036 86.6111 79.6363 86.6666 81.169 86.6944C81.672 86.6944 81.8396 86.5555 81.8157 85.9726C81.7997 84.0293 81.7997 82.086 81.8157 80.1427C81.8373 79.9487 81.7952 79.7523 81.6975 79.5928C81.5999 79.4333 81.4539 79.3223 81.2888 79.2821C76.6906 77.3943 75.1339 71.7865 77.9359 67.2058C78.2472 66.6783 78.0556 66.2897 77.9838 65.8455C77.7897 64.2787 78.1159 62.685 78.8966 61.3863C79.6773 60.0877 80.8542 59.181 82.1894 58.8496C83.5246 58.5182 84.9185 58.7868 86.0895 59.601C87.2605 60.4152 88.1211 61.7144 88.4975 63.2359C88.7052 64.0679 88.7217 64.9483 88.5453 65.79C88.4745 66.0983 88.4657 66.4214 88.5197 66.7343C88.5737 67.0471 88.689 67.3414 88.8567 67.5945C89.4273 68.5698 89.7968 69.6842 89.9368 70.8514C90.0768 72.0187 89.9835 73.2076 89.6641 74.3264C89.3447 75.4452 88.8078 76.4639 88.0947 77.3039C87.3817 78.144 86.5116 78.7827 85.5517 79.171C84.8811 79.4209 84.6656 79.7262 84.6895 80.5313C84.7614 82.3358 84.7374 84.1403 84.7135 85.917C84.6895 86.5278 84.8572 86.6944 85.3601 86.6666C86.2702 86.6388 87.1563 86.6944 88.0664 86.6666C88.4735 86.6388 88.5933 86.7776 88.6172 87.2774C88.713 89.998 88.7369 89.998 86.366 89.998H1.96931C1.17899 89.998 0.915542 89.7759 0.96344 88.832C1.01134 86.6388 0.963446 86.6388 2.85543 86.6388H5.99275C6.42384 86.6666 6.61544 86.5556 6.56754 86.0281C6.55554 85.7877 6.55554 85.5467 6.56754 85.3063V0.828125ZM42.6349 5.79743V6.60251C42.6349 30.8475 42.6269 55.074 42.611 79.2821C42.611 80.0871 42.8025 80.2259 43.4731 80.2259C52.957 80.2074 62.4328 80.2167 71.9007 80.2537C72.7629 80.2537 72.8587 79.9483 72.8587 79.0877C72.8267 59.7472 72.8267 40.3975 72.8587 21.0385C72.8587 20.2612 72.6671 19.928 72.0444 19.6226L49.6759 9.10104L42.6349 5.79743ZM9.44143 39.722C9.44143 50.697 9.43344 61.6628 9.41747 72.6193C9.41747 73.3411 9.48933 73.6465 10.2318 73.6465C14.351 73.591 18.4942 73.5909 22.6134 73.6187C23.2122 73.6465 23.3319 73.4244 23.3319 72.7581V13.1542C23.3319 12.4324 23.1164 12.1548 22.5655 11.905L10.4712 6.26938C9.44143 5.79743 9.44143 5.79743 9.44143 7.01893V39.722ZM26.11 13.6817V16.9298C26.134 17.7071 25.8945 18.7343 26.2537 19.2062C26.6129 19.6782 27.523 19.3728 28.2175 19.3728C30.5166 19.4005 30.4927 19.3728 30.4209 22.0379C30.4209 22.6209 30.2532 22.7319 29.7982 22.7042C28.7923 22.6764 27.7625 22.7319 26.7566 22.7042C26.2537 22.6764 26.0861 22.8152 26.11 23.426C26.134 25.2582 26.11 27.0905 26.134 28.9227C26.134 29.7556 25.7987 30.8383 26.2777 31.3102C26.7566 31.7822 27.5709 31.4213 28.2654 31.4213C30.4448 31.449 30.4209 31.449 30.4209 33.9476C30.4209 34.5583 30.3251 34.8082 29.7503 34.7804C28.7684 34.7249 27.7625 34.8082 26.7806 34.7526C26.2058 34.6971 26.0861 34.947 26.11 35.5577C26.134 37.39 26.11 39.2222 26.11 41.0545C26.134 41.8596 25.9184 42.8868 26.2537 43.3587C26.589 43.8306 27.523 43.5253 28.2175 43.5253C30.5406 43.553 30.5166 43.5253 30.4209 46.2181C30.3969 46.7178 30.3011 46.8844 29.87 46.8566C28.8402 46.8289 27.8344 46.8844 26.8045 46.8289C26.2777 46.8011 26.0861 46.9677 26.11 47.634C26.134 49.494 26.11 51.3818 26.11 53.2418C26.11 55.6848 26.11 55.6848 28.2415 55.6848C30.373 55.6848 30.5406 55.6848 30.4209 58.4054C30.3969 58.9051 30.2532 59.0439 29.8461 59.0162C28.7923 59.0162 27.7386 59.0439 26.7087 59.0162C26.2298 58.9884 26.11 59.155 26.11 59.7102C26.134 61.598 26.11 63.5135 26.11 65.4013C26.11 67.7888 26.11 67.7888 28.1936 67.7888C30.2772 67.7888 30.4927 67.7888 30.4209 70.4539C30.4158 70.4591 30.4117 70.4655 30.4089 70.4727C30.4061 70.4799 30.4046 70.4877 30.4046 70.4955C30.4046 70.5034 30.4061 70.5112 30.4089 70.5184C30.4117 70.5256 30.4158 70.532 30.4209 70.5372C30.4688 71.0091 30.2772 71.1479 29.894 71.1202H27.5709C26.0861 71.1202 26.11 71.1202 26.11 72.8691C26.11 73.4799 26.2298 73.6187 26.7566 73.6187H39.1383C39.6413 73.6187 39.785 73.4521 39.785 72.8691C39.7371 71.0091 39.761 69.1491 39.761 67.2613C39.761 66.373 40.0245 65.1792 39.6413 64.6795C39.2581 64.1798 38.1085 64.4852 37.3182 64.4852C35.067 64.4574 35.0909 64.4852 35.1388 61.8756C35.1628 61.2371 35.3544 61.126 35.8334 61.126C36.935 61.1816 38.0367 61.126 39.1383 61.1538C39.6652 61.1816 39.785 60.9595 39.785 60.4043C39.7371 58.4054 39.785 56.3788 39.761 54.38C39.7371 53.4639 40.0963 52.1868 39.6173 51.7149C39.1383 51.243 38.0846 51.5483 37.2703 51.5483C35.0909 51.5483 35.0909 51.5483 35.1388 48.9665C35.1388 48.3835 35.2825 48.1892 35.7855 48.1892C36.935 48.2447 38.0606 48.1892 39.2102 48.217C39.6173 48.2447 39.785 48.1059 39.761 47.6062V40.527C39.785 40.0829 39.6652 39.9163 39.2581 39.944C38.8509 39.9718 37.9409 39.944 37.2942 39.944C35.043 39.944 35.067 39.944 35.1388 37.3067C35.1628 36.7515 35.2825 36.6127 35.7615 36.6127H39.1623C39.6173 36.6127 39.785 36.5016 39.785 35.9464C39.7371 33.6422 39.7371 31.3657 39.785 29.0893C39.785 28.5063 39.6413 28.312 39.1144 28.3397C38.0134 28.4138 36.9094 28.4045 35.8094 28.312C34.3964 28.1454 35.4023 26.8684 35.1867 26.1188C34.9712 25.3693 34.9472 24.9251 35.8334 25.0084C36.7195 25.0917 37.9409 24.9806 38.9707 25.0361C39.5694 25.0639 39.8329 24.9251 39.785 24.1478C39.7131 23.0759 39.7131 21.9993 39.785 20.9274C39.8329 20.2056 39.5694 19.928 39.0186 19.7059L30.828 15.8471L26.11 13.6817ZM57.675 83.5573H44.2874C42.5631 83.5573 42.587 83.5573 42.5391 85.5284C42.5152 86.4167 42.6828 86.7221 43.521 86.6944C52.6935 86.6666 61.8421 86.6944 71.0146 86.6944C72.7868 86.6944 72.7629 86.6944 72.8108 84.5845C72.8108 83.7794 72.6671 83.5296 71.9486 83.5296C67.1828 83.5851 62.4169 83.5573 57.675 83.5573ZM79.4447 71.4811C79.4447 74.0629 80.6661 75.8396 82.3665 76.3116C83.1985 76.5546 84.0769 76.4647 84.8594 76.0565C85.6418 75.6484 86.2824 74.9459 86.6773 74.0629C87.5395 72.2029 87.2281 69.982 85.7673 68.6494C84.929 67.8721 84.7614 67.3724 85.3841 66.2897C86.0068 65.207 85.6954 62.9028 84.3542 62.181C83.8776 61.9265 83.3443 61.8513 82.829 61.9658C82.3136 62.0803 81.842 62.3788 81.4804 62.8195C81.08 63.2999 80.8407 63.9302 80.8055 64.5969C80.7704 65.2636 80.9418 65.923 81.2888 66.4562C81.8396 67.3446 81.7917 67.8443 80.9774 68.4828C80.1632 69.1213 79.4447 70.5372 79.4447 71.4811ZM39.761 81.8639C39.761 80.448 39.7371 79.0322 39.761 77.6164C39.785 77.0889 39.6652 76.8946 39.1862 76.9223H35.522C35.0909 76.9223 34.9472 77.0611 34.9472 77.5608C34.9632 80.3925 34.9632 83.2242 34.9472 86.0558C34.9472 86.5555 35.0909 86.6944 35.4981 86.6944C36.7115 86.6759 37.9329 86.6759 39.1623 86.6944C39.6413 86.6944 39.785 86.5833 39.785 86.0281C39.7371 84.64 39.761 83.2519 39.761 81.8639ZM9.44143 81.7528C9.44143 83.1409 9.46538 84.529 9.44143 85.917C9.41748 86.4445 9.48933 86.7221 10.0402 86.6944C11.2137 86.6388 12.3872 86.6666 13.5367 86.6944C13.9918 86.6944 14.1833 86.6111 14.1594 86.0281C14.1434 83.2149 14.1434 80.411 14.1594 77.6164C14.1594 77.0611 14.0157 76.9223 13.5607 76.9223C12.3872 76.9501 11.2137 76.9779 10.0641 76.9223C9.51327 76.8946 9.41748 77.1722 9.44143 77.6996C9.46538 79.06 9.44143 80.4203 9.44143 81.7528ZM20.2185 81.8916C20.2185 81.1698 20.2425 80.448 20.2185 79.7262C20.1946 79.0044 20.5778 77.5331 20.0509 77.0611C19.524 76.5892 18.4942 76.9779 17.7039 76.9223C16.9136 76.8668 17.0093 77.1444 17.0093 77.7552C17.0572 79.7818 17.0093 81.8361 17.0333 83.8627C17.0333 84.7511 16.698 85.9448 17.153 86.4723C17.6081 86.9997 18.7576 86.5833 19.5719 86.6666C20.3862 86.7499 20.2425 86.5556 20.2185 85.9448C20.1946 84.5845 20.2185 83.2519 20.2185 81.8916ZM32.1931 81.8361C32.1931 81.0866 32.217 80.3647 32.1931 79.643C32.1691 78.9212 32.5284 77.5053 32.0494 77.0889C31.5704 76.6725 30.4927 76.9778 29.7024 76.8946C28.9121 76.8113 29.0557 77.0889 29.0557 77.6441C29.0557 79.6985 29.0078 81.7251 29.0078 83.7794C29.0078 84.6955 28.7205 85.9726 29.1276 86.4723C29.5347 86.972 30.7561 86.5833 31.5944 86.6666C32.4326 86.7499 32.217 86.5 32.1931 85.9726C32.1691 84.5845 32.1931 83.1964 32.1931 81.8361ZM26.11 81.8083C26.11 81.0865 26.134 80.337 26.11 79.6152C26.0861 78.8934 26.4453 77.5331 25.9663 77.0611C25.4873 76.5892 24.4815 76.9778 23.7151 76.8946C22.9487 76.8113 23.0685 77.0889 23.0685 77.6719C23.0924 79.7262 23.0445 81.8083 23.0445 83.8627C23.0445 84.7788 22.7811 85.9726 23.1643 86.4723C23.5475 86.972 24.6731 86.5833 25.4634 86.6666C26.2537 86.7499 26.134 86.5556 26.134 85.9448C26.0861 84.5567 26.11 83.1687 26.11 81.8083Z" fill="url(#paint0_linear_4300_2537)"/>
<path d="M64.9317 32.3354H64.309C63.6863 32.2799 62.6565 32.613 62.5128 32.1966C62.3691 31.7802 62.417 30.3088 62.3931 29.3371C62.3931 29.004 62.6086 29.004 62.8242 29.004H67.0392C67.3745 28.9762 67.5661 29.0873 67.5421 29.5037C67.5181 29.5751 67.5181 29.6544 67.5421 29.7258C67.6379 32.3354 67.6379 32.3354 64.9317 32.3354Z" fill="url(#paint1_linear_4300_2537)"/>
<path d="M64.9794 67.0942H65.6979C66.2966 67.1497 67.1828 66.761 67.3983 67.233C67.6138 67.7049 67.518 69.1208 67.518 70.0646C67.518 70.4811 67.2067 70.4255 66.9672 70.4255H62.9438C62.5366 70.4255 62.3929 70.2867 62.369 69.787C62.2492 67.0664 62.2492 67.0942 64.5483 67.0942H64.9794Z" fill="url(#paint2_linear_4300_2537)"/>
<path d="M64.9075 47.5736H64.5483C62.1533 47.5736 62.1773 47.5736 62.3928 44.7697C62.4168 44.381 62.5126 44.2422 62.8479 44.2422C64.2369 44.2699 65.6499 44.2699 67.039 44.2422C67.47 44.2422 67.5179 44.4643 67.5419 44.8529C67.6856 47.5736 67.6856 47.5736 65.3625 47.5736H64.9075Z" fill="url(#paint3_linear_4300_2537)"/>
<path d="M64.9075 55.1595H64.5483C62.1294 55.1595 62.1294 55.1595 62.3928 52.3556C62.4168 51.9669 62.5126 51.8281 62.8718 51.8281H67.0629C67.4222 51.8281 67.5419 51.9947 67.5419 52.3834C67.5419 52.772 67.5179 52.4389 67.5419 52.4944C67.6856 55.1595 67.6856 55.1595 64.9075 55.1595Z" fill="url(#paint4_linear_4300_2537)"/>
<path d="M50.3227 32.334H49.9634C47.5685 32.334 47.5446 32.3062 47.808 29.5023C47.8559 29.1136 47.9757 29.0026 48.287 29.0026H52.4063C52.8134 28.9748 52.9571 29.1692 52.9092 29.6133V29.6966C52.8613 30.5572 53.2445 31.8343 52.7655 32.1674C52.2865 32.5005 51.1609 32.2507 50.3227 32.2507V32.334Z" fill="url(#paint5_linear_4300_2537)"/>
<path d="M50.2987 70.4251H48.3349C47.9277 70.4529 47.784 70.2586 47.808 69.8144C47.8192 69.7836 47.8249 69.7506 47.8249 69.7172C47.8249 69.6838 47.8192 69.6508 47.808 69.6201C47.7601 67.0938 47.7601 67.0938 49.9394 67.0938H51.3764C52.9091 67.0938 52.9091 67.0937 52.9091 68.8427C52.9091 70.5917 52.9091 70.4251 51.544 70.4251H50.2987Z" fill="url(#paint6_linear_4300_2537)"/>
<path d="M64.9317 39.9451C64.7243 39.959 64.5164 39.959 64.309 39.9451C63.6863 39.8896 62.7044 40.2505 62.5368 39.8063C62.3691 39.3621 62.417 37.9185 62.3931 36.9746C62.3931 36.586 62.6326 36.6137 62.8242 36.6137C64.2372 36.6137 65.6262 36.6415 67.0392 36.6137C67.4463 36.6137 67.5661 36.808 67.5182 37.2245C67.4703 37.6409 67.5421 37.3078 67.5182 37.3355C67.4703 38.1961 67.8535 39.4454 67.3745 39.8063C66.8955 40.1672 65.7699 39.8896 64.9317 39.8896V39.9451Z" fill="url(#paint7_linear_4300_2537)"/>
<path d="M64.9795 62.7923H64.5484C62.1535 62.7923 62.1535 62.7923 62.393 59.9884C62.417 59.572 62.5128 59.4609 62.848 59.4609H67.0631C67.4223 59.4609 67.566 59.5998 67.5181 59.9884V60.0995C67.6618 62.7923 67.6618 62.7923 64.9795 62.7923Z" fill="url(#paint8_linear_4300_2537)"/>
<path d="M50.3704 39.9452C49.7238 39.9452 49.0532 39.9174 48.4066 39.9729C47.7599 40.0285 47.8078 39.7786 47.8078 39.2511C47.7599 36.6138 47.736 36.6416 50.0351 36.6416C50.8254 36.6416 51.5918 36.6693 52.3821 36.6138C53.1724 36.5583 52.909 36.7804 52.909 37.2801C53.0048 39.9452 53.0048 39.9452 50.7297 39.9452H50.3704Z" fill="url(#paint9_linear_4300_2537)"/>
<path d="M50.3464 47.5736H49.9872C47.5683 47.5736 47.5923 47.5736 47.8078 44.7697C47.8317 44.381 47.9275 44.2422 48.2868 44.2422C49.6519 44.2699 51.017 44.2699 52.406 44.2422C52.7653 44.2422 52.9808 44.3532 52.909 44.8252V44.9085C53.0048 47.5736 53.0048 47.5736 50.3464 47.5736Z" fill="url(#paint10_linear_4300_2537)"/>
<path d="M50.2746 55.1589C49.676 55.1266 49.0762 55.1358 48.4785 55.1867C47.9037 55.2422 47.8079 54.9646 47.8079 54.3539C47.8079 51.8276 47.7839 51.8276 49.9633 51.8276H52.2864C52.7414 51.7998 52.909 51.9386 52.933 52.4938C53.0288 55.1589 53.0288 55.1589 50.7297 55.1589H50.2746Z" fill="url(#paint11_linear_4300_2537)"/>
<path d="M50.2987 62.7923C49.6281 62.7923 48.9815 62.7646 48.3109 62.7923C47.6404 62.8201 47.8319 62.6535 47.808 62.2093C47.6643 59.4609 47.6643 59.4609 50.0353 59.4609H50.7538C53.1487 59.4609 53.1487 59.4609 52.9092 62.2926C52.8852 62.6813 52.7894 62.8201 52.4302 62.7923C52.071 62.7646 51.0172 62.7923 50.2987 62.7923Z" fill="url(#paint12_linear_4300_2537)"/>
<path d="M14.9497 32.3406C14.2791 32.3406 13.6325 32.285 12.9619 32.3406C12.2913 32.3961 12.2674 31.8409 12.4111 31.4244C12.5548 31.008 11.6687 29.2868 12.938 29.0647C14.2073 28.8426 15.6203 29.0092 16.9854 29.0092C17.3446 28.9814 17.4883 29.1202 17.5123 29.5644C17.6799 32.3406 17.7039 32.3406 15.3089 32.3406H14.9497Z" fill="url(#paint13_linear_4300_2537)"/>
<path d="M14.9736 67.0938H15.3329C17.7757 67.0938 17.7757 67.0938 17.5122 69.8977C17.4643 70.3141 17.3685 70.4251 17.0332 70.4251H12.8901C12.5069 70.4251 12.3392 70.2586 12.3871 69.8144V69.7033C12.2674 67.0938 12.2674 67.0938 14.9736 67.0938Z" fill="url(#paint14_linear_4300_2537)"/>
<path d="M14.9498 47.579C14.3032 47.579 13.6326 47.5513 12.986 47.6068C12.3393 47.6623 12.2914 46.9683 12.4112 46.5796C12.5309 46.1909 11.7167 44.5253 12.9381 44.3032C14.1595 44.0811 15.6204 44.2754 16.9615 44.2476C17.4165 44.2476 17.4884 44.442 17.5123 44.9139C17.5842 47.579 17.6081 47.579 15.309 47.579H14.9498Z" fill="url(#paint15_linear_4300_2537)"/>
<path d="M14.9257 55.1595H14.4706C12.1715 55.1595 12.0757 55.0207 12.3631 52.3556C12.411 51.9392 12.5547 51.8281 12.89 51.8281H17.0092C17.4164 51.8281 17.5361 51.9947 17.4882 52.4389V52.5499C17.4403 53.3828 17.8235 54.6598 17.3685 54.9929C16.9134 55.3261 15.7399 55.104 14.9257 55.104V55.1595Z" fill="url(#paint16_linear_4300_2537)"/>
<path d="M15.0935 39.9447H14.5426C12.1477 39.9447 12.1717 39.9447 12.3872 37.1407C12.4112 36.7243 12.507 36.6133 12.8422 36.6133C14.2552 36.641 15.6443 36.641 17.0573 36.6133C17.4165 36.6133 17.5363 36.7799 17.4884 37.1685V37.2518C17.4884 38.1124 17.7518 39.3617 17.3926 39.7503C17.0333 40.139 15.7401 39.8336 15.0935 39.9447Z" fill="url(#paint17_linear_4300_2537)"/>
<path d="M14.902 59.4609H15.333C17.5124 59.4609 17.5124 59.4609 17.5124 61.9595C17.5124 62.598 17.3927 62.8478 16.7939 62.8201C15.5007 62.7646 14.2314 62.7646 12.9381 62.7923C12.507 62.8201 12.3873 62.6813 12.3633 62.1816C12.2675 59.4609 12.2676 59.4609 14.5427 59.4609H14.902Z" fill="url(#paint18_linear_4300_2537)"/>
<defs>
<linearGradient id="paint0_linear_4300_2537" x1="45.479" y1="0.828125" x2="45.479" y2="89.998" gradientUnits="userSpaceOnUse">
<stop stop-color="white" stop-opacity="0.66"/>
<stop offset="1" stop-color="#969696" stop-opacity="0"/>
</linearGradient>
<linearGradient id="paint1_linear_4300_2537" x1="64.9816" y1="29" x2="64.9816" y2="32.4093" gradientUnits="userSpaceOnUse">
<stop stop-color="white" stop-opacity="0.66"/>
<stop offset="1" stop-color="#969696" stop-opacity="0"/>
</linearGradient>
<linearGradient id="paint2_linear_4300_2537" x1="64.9339" y1="66.9961" x2="64.9339" y2="70.428" gradientUnits="userSpaceOnUse">
<stop stop-color="white" stop-opacity="0.66"/>
<stop offset="1" stop-color="#969696" stop-opacity="0"/>
</linearGradient>
<linearGradient id="paint3_linear_4300_2537" x1="64.9475" y1="44.2422" x2="64.9475" y2="47.5736" gradientUnits="userSpaceOnUse">
<stop stop-color="white" stop-opacity="0.66"/>
<stop offset="1" stop-color="#969696" stop-opacity="0"/>
</linearGradient>
<linearGradient id="paint4_linear_4300_2537" x1="64.9343" y1="51.8281" x2="64.9343" y2="55.1595" gradientUnits="userSpaceOnUse">
<stop stop-color="white" stop-opacity="0.66"/>
<stop offset="1" stop-color="#969696" stop-opacity="0"/>
</linearGradient>
<linearGradient id="paint5_linear_4300_2537" x1="50.353" y1="29" x2="50.353" y2="32.3406" gradientUnits="userSpaceOnUse">
<stop stop-color="white" stop-opacity="0.66"/>
<stop offset="1" stop-color="#969696" stop-opacity="0"/>
</linearGradient>
<linearGradient id="paint6_linear_4300_2537" x1="50.3528" y1="67.0938" x2="50.3528" y2="70.4294" gradientUnits="userSpaceOnUse">
<stop stop-color="white" stop-opacity="0.66"/>
<stop offset="1" stop-color="#969696" stop-opacity="0"/>
</linearGradient>
<linearGradient id="paint7_linear_4300_2537" x1="65.0056" y1="36.6133" x2="65.0056" y2="40.0311" gradientUnits="userSpaceOnUse">
<stop stop-color="white" stop-opacity="0.66"/>
<stop offset="1" stop-color="#969696" stop-opacity="0"/>
</linearGradient>
<linearGradient id="paint8_linear_4300_2537" x1="64.9294" y1="59.4609" x2="64.9294" y2="62.7923" gradientUnits="userSpaceOnUse">
<stop stop-color="white" stop-opacity="0.66"/>
<stop offset="1" stop-color="#969696" stop-opacity="0"/>
</linearGradient>
<linearGradient id="paint9_linear_4300_2537" x1="50.3733" y1="36.6055" x2="50.3733" y2="39.9805" gradientUnits="userSpaceOnUse">
<stop stop-color="white" stop-opacity="0.66"/>
<stop offset="1" stop-color="#969696" stop-opacity="0"/>
</linearGradient>
<linearGradient id="paint10_linear_4300_2537" x1="50.3269" y1="44.2422" x2="50.3269" y2="47.5736" gradientUnits="userSpaceOnUse">
<stop stop-color="white" stop-opacity="0.66"/>
<stop offset="1" stop-color="#969696" stop-opacity="0"/>
</linearGradient>
<linearGradient id="paint11_linear_4300_2537" x1="50.3853" y1="51.8242" x2="50.3853" y2="55.1936" gradientUnits="userSpaceOnUse">
<stop stop-color="white" stop-opacity="0.66"/>
<stop offset="1" stop-color="#969696" stop-opacity="0"/>
</linearGradient>
<linearGradient id="paint12_linear_4300_2537" x1="50.3836" y1="59.4609" x2="50.3836" y2="62.7957" gradientUnits="userSpaceOnUse">
<stop stop-color="white" stop-opacity="0.66"/>
<stop offset="1" stop-color="#969696" stop-opacity="0"/>
</linearGradient>
<linearGradient id="paint13_linear_4300_2537" x1="14.9104" y1="28.9492" x2="14.9104" y2="32.3444" gradientUnits="userSpaceOnUse">
<stop stop-color="white" stop-opacity="0.66"/>
<stop offset="1" stop-color="#969696" stop-opacity="0"/>
</linearGradient>
<linearGradient id="paint14_linear_4300_2537" x1="14.9878" y1="67.0938" x2="14.9878" y2="70.4251" gradientUnits="userSpaceOnUse">
<stop stop-color="white" stop-opacity="0.66"/>
<stop offset="1" stop-color="#969696" stop-opacity="0"/>
</linearGradient>
<linearGradient id="paint15_linear_4300_2537" x1="14.8945" y1="44.1953" x2="14.8945" y2="47.6099" gradientUnits="userSpaceOnUse">
<stop stop-color="white" stop-opacity="0.66"/>
<stop offset="1" stop-color="#969696" stop-opacity="0"/>
</linearGradient>
<linearGradient id="paint16_linear_4300_2537" x1="14.9207" y1="51.8281" x2="14.9207" y2="55.1765" gradientUnits="userSpaceOnUse">
<stop stop-color="white" stop-opacity="0.66"/>
<stop offset="1" stop-color="#969696" stop-opacity="0"/>
</linearGradient>
<linearGradient id="paint17_linear_4300_2537" x1="14.9387" y1="36.6133" x2="14.9387" y2="39.955" gradientUnits="userSpaceOnUse">
<stop stop-color="white" stop-opacity="0.66"/>
<stop offset="1" stop-color="#969696" stop-opacity="0"/>
</linearGradient>
<linearGradient id="paint18_linear_4300_2537" x1="14.9229" y1="59.4609" x2="14.9229" y2="62.8221" gradientUnits="userSpaceOnUse">
<stop stop-color="white" stop-opacity="0.66"/>
<stop offset="1" stop-color="#969696" stop-opacity="0"/>
</linearGradient>
</defs>
</svg>
