<svg width="51" height="51" viewBox="0 0 51 51" fill="none" xmlns="http://www.w3.org/2000/svg">
<path d="M49.9845 26.5686C49.8608 27.4842 49.7835 28.3999 49.5979 29.2999C47.6956 38.8596 42.2517 45.4551 32.9722 48.6365C29.7419 49.7536 26.3169 50.1909 22.9107 49.9209C19.5045 49.6509 16.1904 48.6796 13.1749 47.0674C10.1594 45.4552 7.50739 43.2368 5.38422 40.5506C3.26104 37.8644 1.71229 34.7679 0.834562 31.4545C-0.0431613 28.141 -0.231022 24.6816 0.282704 21.292C0.796429 17.9025 2.00072 14.6555 3.82044 11.7537C5.64017 8.85191 8.03628 6.35749 10.8593 4.42608C13.6823 2.49467 16.8717 1.1677 20.2285 0.527962C21.3111 0.326217 22.3937 0.202064 23.4918 0.046875H26.5849C27.4974 0.171026 28.4099 0.279658 29.3069 0.434847C30.2039 0.590035 31.0854 0.807299 31.967 1.04008C32.3628 1.15121 32.6984 1.41557 32.9 1.77499C33.1016 2.13442 33.1526 2.55948 33.0418 2.95666C32.9311 3.35384 32.6676 3.69061 32.3094 3.89288C31.9512 4.09515 31.5276 4.14635 31.1318 4.03522C28.4368 3.25397 25.6171 3.00106 22.8267 3.29032C18.2357 3.78072 13.9188 5.72268 10.4995 8.83573C7.0802 11.9488 4.73546 16.0718 3.80391 20.6094C2.97479 24.3644 3.17705 28.2748 4.38911 31.9235C5.60118 35.5722 7.77758 38.8223 10.6861 41.3271C13.8021 44.2163 17.7372 46.0604 21.9452 46.6035C25.5466 47.1353 29.2235 46.752 32.6391 45.4886C36.0547 44.2253 39.0998 42.1224 41.4957 39.3724C43.8916 36.6223 45.5617 33.3131 46.3531 29.7477C47.1444 26.1824 47.0317 22.4747 46.0253 18.9644C45.9206 18.7186 45.8808 18.4498 45.91 18.1841C45.9392 17.9184 46.0363 17.6648 46.1918 17.4478C46.3474 17.2308 46.5562 17.0578 46.798 16.9456C47.0398 16.8334 47.3064 16.7857 47.5719 16.8073C47.9015 16.8102 48.2202 16.9255 48.476 17.1342C48.7317 17.3428 48.9091 17.6325 48.9793 17.9557C49.3195 19.5075 49.5979 21.1991 49.9072 22.8286L50 23.4493L49.9845 26.5686Z" fill="#410EAD"/>
<path d="M49.9871 9.49755C49.7153 9.89194 49.4209 10.2702 49.1055 10.6304C47.5589 12.2754 45.8422 13.8894 44.2338 15.5344C43.8029 15.998 43.2098 16.2761 42.579 16.3103C40.2282 16.5276 37.9393 16.7604 35.5266 17.0242C35.2937 17.0687 35.0818 17.1886 34.9235 17.3656C32.0623 20.2211 29.2011 23.1076 26.34 25.9786C26.1521 26.1976 25.9109 26.3641 25.6399 26.462C25.3689 26.5599 25.0773 26.5858 24.7934 26.5373C24.5212 26.4834 24.2684 26.3569 24.0616 26.1713C23.8548 25.9856 23.7016 25.7475 23.618 25.482C23.5301 25.2165 23.5153 24.9322 23.5752 24.659C23.6351 24.3858 23.7674 24.134 23.9583 23.9301C24.3449 23.5111 24.747 23.1231 25.1491 22.7196L32.6809 15.1775C32.9131 14.9572 33.0562 14.6589 33.083 14.3394C33.2996 12.0116 33.547 9.68377 33.7635 7.35594C33.7955 6.76348 34.0562 6.20681 34.4904 5.80405C36.1452 4.17457 37.7846 2.49854 39.4394 0.853537C39.7797 0.52764 40.1818 0.27934 40.5375 0H41.3263C41.6992 0.157063 42.0143 0.4267 42.2277 0.771515C42.4411 1.11633 42.5422 1.51923 42.5171 1.92434C42.5171 3.47622 42.7646 5.12122 42.8728 6.71967C42.8728 6.99901 42.9966 7.10764 43.2749 7.12316C44.8215 7.23179 46.4763 7.41802 48.0693 7.48009C48.4718 7.4617 48.8703 7.56797 49.2106 7.78451C49.5509 8.00105 49.8165 8.31736 49.9716 8.69056L49.9871 9.49755ZM39.656 5.10571L36.9495 7.82151C36.8794 7.94441 36.8421 8.08339 36.8412 8.225C36.7175 9.35788 36.5938 10.4752 36.4855 11.6081C36.4082 12.3375 36.3463 13.0514 36.2844 13.7963C38.1249 13.61 39.8879 13.4238 41.6665 13.2686C42.0011 13.2444 42.3125 13.0882 42.5326 12.8341L44.6205 10.7235C44.715 10.6262 44.8029 10.5225 44.8834 10.4132L43.3368 10.2735L41.7902 10.1649C40.3674 10.1649 39.888 9.60618 39.7952 8.19396C39.8261 7.20075 39.7333 6.22307 39.656 5.10571Z" fill="#410EAD"/>
<path d="M25.098 42.2394C20.7981 42.3222 16.6238 40.7825 13.401 37.9248C10.1783 35.0672 8.14184 31.0998 7.69466 26.8077C7.24747 22.5156 8.42211 18.2114 10.9862 14.7467C13.5502 11.282 17.3169 8.90924 21.5409 8.09786C24.21 7.50714 26.9831 7.5871 29.614 8.33063C29.9543 8.41861 30.2546 8.62023 30.4654 8.90231C30.6762 9.18439 30.7851 9.5301 30.7739 9.88252C30.8097 10.2308 30.718 10.5803 30.516 10.8658C30.3139 11.1513 30.0154 11.3534 29.6759 11.4344C29.3192 11.5121 28.95 11.5121 28.5933 11.4344C26.0225 10.7401 23.3061 10.8105 20.7745 11.6371C18.2428 12.4636 16.0052 14.0107 14.3339 16.0901C12.8122 17.9379 11.7867 20.1455 11.3546 22.503C10.9225 24.8605 11.0983 27.2897 11.8652 29.5599C12.6321 31.8301 13.9647 33.8658 15.7364 35.4737C17.5081 37.0816 19.6601 38.2083 21.9879 38.7468C24.3157 39.2853 26.742 39.2176 29.0364 38.5503C31.3308 37.8829 33.4171 36.638 35.0971 34.9339C36.777 33.2297 37.9949 31.1228 38.635 28.8134C39.2751 26.504 39.3161 24.0687 38.7543 21.7389C38.6452 21.3346 38.6189 20.9123 38.6769 20.4974C38.7762 20.1675 38.9821 19.8802 39.2621 19.6807C39.5421 19.4812 39.8804 19.3809 40.2235 19.3956C40.5686 19.3818 40.9084 19.4843 41.1887 19.6868C41.469 19.8893 41.6736 20.1802 41.7701 20.5129C42.2072 22.0834 42.4156 23.709 42.3887 25.3393C42.3243 29.2279 40.9527 32.9807 38.4964 35.9891C36.0401 38.9975 32.6431 41.0851 28.8562 41.9135C28.4327 42.0137 28.0042 42.0914 27.5725 42.1463C26.6601 42.1307 25.8868 42.1773 25.098 42.2394Z" fill="#410EAD"/>
<path d="M25.3159 18.7889C23.7473 18.7248 22.2131 19.2615 21.0242 20.2902C19.8353 21.319 19.0806 22.7628 18.9131 24.3292C18.8502 25.1443 18.9478 25.964 19.2006 26.7413C19.4533 27.5186 19.8561 28.2384 20.386 28.8595C20.916 29.4806 21.5626 29.9908 22.2891 30.3612C23.0155 30.7315 23.8076 30.9546 24.62 31.0178C25.4324 31.081 26.2492 30.983 27.0239 30.7294C27.7985 30.4758 28.5158 30.0716 29.1348 29.5398C30.3848 28.4659 31.1585 26.9377 31.2857 25.2913C31.2698 25.0795 31.2698 24.8668 31.2857 24.6551C31.3349 24.2435 31.5451 23.8684 31.8699 23.6122C32.1948 23.3561 32.6077 23.24 33.0179 23.2894C33.428 23.3388 33.8019 23.5496 34.0571 23.8756C34.3123 24.2016 34.4281 24.6159 34.3788 25.0275C34.4 26.4086 34.1025 27.7758 33.5095 29.0223C32.9166 30.2688 32.0443 31.3607 30.9609 32.2127C29.5666 33.3796 27.8617 34.1104 26.0575 34.3145C24.2533 34.5186 22.429 34.1872 20.8107 33.3612C19.1924 32.5352 17.8511 31.251 16.953 29.6676C16.0549 28.0842 15.6395 26.2713 15.7581 24.4533C15.8267 23.2186 16.1397 22.0101 16.6788 20.8981C17.2179 19.7861 17.9723 18.793 18.8981 17.9768C19.8238 17.1606 20.9023 16.5376 22.0706 16.1441C23.2389 15.7506 24.4735 15.5946 25.7026 15.6851C25.9523 15.6758 26.2012 15.7193 26.433 15.8129C26.6649 15.9064 26.8744 16.048 27.0481 16.2283C27.2439 16.4449 27.3748 16.7127 27.4255 17.0007C27.4763 17.2887 27.4449 17.5853 27.3349 17.8562C27.225 18.1271 27.041 18.3613 26.8042 18.5318C26.5674 18.7023 26.2874 18.8022 25.9964 18.82L25.3159 18.7889Z" fill="#410EAD"/>
<path d="M50.9845 27.5686C50.8608 28.4842 50.7835 29.3999 50.5979 30.2999C48.6956 39.8596 43.2517 46.4551 33.9722 49.6365C30.7419 50.7536 27.3169 51.1909 23.9107 50.9209C20.5045 50.6509 17.1904 49.6796 14.1749 48.0674C11.1594 46.4552 8.50739 44.2368 6.38422 41.5506C4.26104 38.8644 2.71229 35.7679 1.83456 32.4545C0.956839 29.141 0.768978 25.6816 1.2827 22.292C1.79643 18.9025 3.00072 15.6555 4.82044 12.7537C6.64017 9.85191 9.03628 7.35749 11.8593 5.42608C14.6823 3.49467 17.8717 2.1677 21.2285 1.52796C22.3111 1.32622 23.3937 1.20206 24.4918 1.04688H27.5849C28.4974 1.17103 29.4099 1.27966 30.3069 1.43485C31.2039 1.59004 32.0854 1.8073 32.967 2.04008C33.3628 2.15121 33.6984 2.41557 33.9 2.77499C34.1016 3.13442 34.1526 3.55948 34.0418 3.95666C33.9311 4.35384 33.6676 4.69061 33.3094 4.89288C32.9512 5.09515 32.5276 5.14635 32.1318 5.03522C29.4368 4.25397 26.6171 4.00106 23.8267 4.29032C19.2357 4.78072 14.9188 6.72268 11.4995 9.83573C8.0802 12.9488 5.73546 17.0718 4.80391 21.6094C3.97479 25.3644 4.17705 29.2748 5.38911 32.9235C6.60118 36.5722 8.77758 39.8223 11.6861 42.3271C14.8021 45.2163 18.7372 47.0604 22.9452 47.6035C26.5466 48.1353 30.2235 47.752 33.6391 46.4886C37.0547 45.2253 40.0998 43.1224 42.4957 40.3724C44.8916 37.6223 46.5617 34.3131 47.3531 30.7477C48.1444 27.1824 48.0317 23.4747 47.0253 19.9644C46.9206 19.7186 46.8808 19.4498 46.91 19.1841C46.9392 18.9184 47.0363 18.6648 47.1918 18.4478C47.3474 18.2308 47.5562 18.0578 47.798 17.9456C48.0398 17.8334 48.3064 17.7857 48.5719 17.8073C48.9015 17.8102 49.2202 17.9255 49.476 18.1342C49.7317 18.3428 49.9091 18.6325 49.9793 18.9557C50.3195 20.5075 50.5979 22.1991 50.9072 23.8286L51 24.4493L50.9845 27.5686Z" fill="url(#paint0_linear_849_1711)"/>
<path d="M50.9871 10.4975C50.7153 10.8919 50.4209 11.2702 50.1055 11.6304C48.5589 13.2754 46.8422 14.8894 45.2338 16.5344C44.8029 16.998 44.2098 17.2761 43.579 17.3103C41.2282 17.5276 38.9393 17.7604 36.5266 18.0242C36.2937 18.0687 36.0818 18.1886 35.9235 18.3656C33.0623 21.2211 30.2011 24.1076 27.34 26.9786C27.1521 27.1976 26.9109 27.3641 26.6399 27.462C26.3689 27.5599 26.0773 27.5858 25.7934 27.5373C25.5212 27.4834 25.2684 27.3569 25.0616 27.1713C24.8548 26.9856 24.7016 26.7475 24.618 26.482C24.5301 26.2165 24.5153 25.9322 24.5752 25.659C24.6351 25.3858 24.7674 25.134 24.9583 24.9301C25.3449 24.5111 25.747 24.1231 26.1491 23.7196L33.6809 16.1775C33.9131 15.9572 34.0562 15.6589 34.083 15.3394C34.2996 13.0116 34.547 10.6838 34.7635 8.35594C34.7955 7.76348 35.0562 7.20681 35.4904 6.80405C37.1452 5.17457 38.7846 3.49854 40.4394 1.85354C40.7797 1.52764 41.1818 1.27934 41.5375 1H42.3263C42.6992 1.15706 43.0143 1.4267 43.2277 1.77152C43.4411 2.11633 43.5422 2.51923 43.5171 2.92434C43.5171 4.47622 43.7646 6.12122 43.8728 7.71967C43.8728 7.99901 43.9966 8.10764 44.2749 8.12316C45.8215 8.23179 47.4763 8.41802 49.0693 8.48009C49.4718 8.4617 49.8703 8.56797 50.2106 8.78451C50.5509 9.00105 50.8165 9.31736 50.9716 9.69056L50.9871 10.4975ZM40.656 6.10571L37.9495 8.82151C37.8794 8.94441 37.8421 9.08339 37.8412 9.225C37.7175 10.3579 37.5938 11.4752 37.4855 12.6081C37.4082 13.3375 37.3463 14.0514 37.2844 14.7963C39.1249 14.61 40.8879 14.4238 42.6665 14.2686C43.0011 14.2444 43.3125 14.0882 43.5326 13.8341L45.6205 11.7235C45.715 11.6262 45.8029 11.5225 45.8834 11.4132L44.3368 11.2735L42.7902 11.1649C41.3674 11.1649 40.888 10.6062 40.7952 9.19396C40.8261 8.20075 40.7333 7.22307 40.656 6.10571Z" fill="url(#paint1_linear_849_1711)"/>
<path d="M26.098 43.2394C21.7981 43.3222 17.6238 41.7825 14.401 38.9248C11.1783 36.0672 9.14184 32.0998 8.69466 27.8077C8.24747 23.5156 9.42211 19.2114 11.9862 15.7467C14.5502 12.282 18.3169 9.90924 22.5409 9.09786C25.21 8.50714 27.9831 8.5871 30.614 9.33063C30.9543 9.41861 31.2546 9.62023 31.4654 9.90231C31.6762 10.1844 31.7851 10.5301 31.7739 10.8825C31.8097 11.2308 31.718 11.5803 31.516 11.8658C31.3139 12.1513 31.0154 12.3534 30.6759 12.4344C30.3192 12.5121 29.95 12.5121 29.5933 12.4344C27.0225 11.7401 24.3061 11.8105 21.7745 12.6371C19.2428 13.4636 17.0052 15.0107 15.3339 17.0901C13.8122 18.9379 12.7867 21.1455 12.3546 23.503C11.9225 25.8605 12.0983 28.2897 12.8652 30.5599C13.6321 32.8301 14.9647 34.8658 16.7364 36.4737C18.5081 38.0816 20.6601 39.2083 22.9879 39.7468C25.3157 40.2853 27.742 40.2176 30.0364 39.5503C32.3308 38.8829 34.4171 37.638 36.0971 35.9339C37.777 34.2297 38.9949 32.1228 39.635 29.8134C40.2751 27.504 40.3161 25.0687 39.7543 22.7389C39.6452 22.3346 39.6189 21.9123 39.6769 21.4974C39.7762 21.1675 39.9821 20.8802 40.2621 20.6807C40.5421 20.4812 40.8804 20.3809 41.2235 20.3956C41.5686 20.3818 41.9084 20.4843 42.1887 20.6868C42.469 20.8893 42.6736 21.1802 42.7701 21.5129C43.2072 23.0834 43.4156 24.709 43.3887 26.3393C43.3243 30.2279 41.9527 33.9807 39.4964 36.9891C37.0401 39.9975 33.6431 42.0851 29.8562 42.9135C29.4327 43.0137 29.0042 43.0914 28.5725 43.1463C27.6601 43.1307 26.8868 43.1773 26.098 43.2394Z" fill="url(#paint2_linear_849_1711)"/>
<path d="M26.3159 19.7889C24.7473 19.7248 23.2131 20.2615 22.0242 21.2902C20.8353 22.319 20.0806 23.7628 19.9131 25.3292C19.8502 26.1443 19.9478 26.964 20.2006 27.7413C20.4533 28.5186 20.8561 29.2384 21.386 29.8595C21.916 30.4806 22.5626 30.9908 23.2891 31.3612C24.0155 31.7315 24.8076 31.9546 25.62 32.0178C26.4324 32.081 27.2492 31.983 28.0239 31.7294C28.7985 31.4758 29.5158 31.0716 30.1348 30.5398C31.3848 29.4659 32.1585 27.9377 32.2857 26.2913C32.2698 26.0795 32.2698 25.8668 32.2857 25.6551C32.3349 25.2435 32.5451 24.8684 32.8699 24.6122C33.1948 24.3561 33.6077 24.24 34.0179 24.2894C34.428 24.3388 34.8019 24.5496 35.0571 24.8756C35.3123 25.2016 35.4281 25.6159 35.3788 26.0275C35.4 27.4086 35.1025 28.7758 34.5095 30.0223C33.9166 31.2688 33.0443 32.3607 31.9609 33.2127C30.5666 34.3796 28.8617 35.1104 27.0575 35.3145C25.2533 35.5186 23.429 35.1872 21.8107 34.3612C20.1924 33.5352 18.8511 32.251 17.953 30.6676C17.0549 29.0842 16.6395 27.2713 16.7581 25.4533C16.8267 24.2186 17.1397 23.0101 17.6788 21.8981C18.2179 20.7861 18.9723 19.793 19.8981 18.9768C20.8238 18.1606 21.9023 17.5376 23.0706 17.1441C24.2389 16.7506 25.4735 16.5946 26.7026 16.6851C26.9523 16.6758 27.2012 16.7193 27.433 16.8129C27.6649 16.9064 27.8744 17.048 28.0481 17.2283C28.2439 17.4449 28.3748 17.7127 28.4255 18.0007C28.4763 18.2887 28.4449 18.5853 28.3349 18.8562C28.225 19.1271 28.041 19.3613 27.8042 19.5318C27.5674 19.7023 27.2874 19.8022 26.9964 19.82L26.3159 19.7889Z" fill="url(#paint3_linear_849_1711)"/>
<defs>
<linearGradient id="paint0_linear_849_1711" x1="7" y1="7.54053" x2="43.9634" y2="45.04" gradientUnits="userSpaceOnUse">
<stop stop-color="white" stop-opacity="0.66"/>
<stop offset="1" stop-color="#CECECE" stop-opacity="0"/>
</linearGradient>
<linearGradient id="paint1_linear_849_1711" x1="27.7128" y1="4.45292" x2="47.3689" y2="24.2899" gradientUnits="userSpaceOnUse">
<stop stop-color="white" stop-opacity="0.66"/>
<stop offset="1" stop-color="#CECECE" stop-opacity="0"/>
</linearGradient>
<linearGradient id="paint2_linear_849_1711" x1="12.7763" y1="13.1966" x2="38.3292" y2="39.2854" gradientUnits="userSpaceOnUse">
<stop stop-color="white" stop-opacity="0.66"/>
<stop offset="1" stop-color="#CECECE" stop-opacity="0"/>
</linearGradient>
<linearGradient id="paint3_linear_849_1711" x1="18.9765" y1="19.0928" x2="32.8245" y2="33.0821" gradientUnits="userSpaceOnUse">
<stop stop-color="white" stop-opacity="0.66"/>
<stop offset="1" stop-color="#CECECE" stop-opacity="0"/>
</linearGradient>
</defs>
</svg>
