<svg width="92" height="92" viewBox="0 0 92 92" fill="none" xmlns="http://www.w3.org/2000/svg">
<path d="M43.9836 78.6233H36.5099C35.1424 78.6233 34.6654 78.1417 34.6336 76.7291C34.6018 74.7707 34.7607 72.8123 34.4427 70.8539C34.1247 68.8955 32.8526 66.6481 31.2942 64.9466C22.7711 55.604 26.651 40.5147 38.5771 36.5337C45.9236 34.0937 54.0969 36.9189 58.3267 43.372C62.5565 49.8251 62.2703 58.8145 56.9274 64.6897C54.3832 67.4829 53.2064 70.6291 53.3654 74.3533C53.3972 75.188 53.3972 76.0549 53.3654 76.8896C53.3336 77.7243 52.8566 78.6233 51.6163 78.6233C49.072 78.6554 46.5278 78.6233 43.9836 78.6233ZM43.8882 75.7338C45.6055 75.7338 47.3229 75.6375 49.0085 75.7338C50.1534 75.8301 50.5668 75.5412 50.5032 74.2891C50.2488 69.8265 51.7753 66.1023 54.7648 62.7313C58.8355 58.1724 59.6306 52.7146 57.0546 47.1283C54.4786 41.542 49.8989 38.5242 43.761 38.6205C37.623 38.7168 33.2024 41.7668 30.8172 47.353C28.432 52.9393 29.3861 58.1403 33.2342 62.7955C34.0662 63.701 34.8315 64.6668 35.524 65.685C37.2414 68.446 37.6548 71.496 37.5276 74.6744C37.4958 75.477 37.6866 75.7659 38.5453 75.7338C40.3263 75.6696 42.1072 75.7338 43.8882 75.7338Z" fill="#0F4FE3"/>
<path d="M14.4067 90.9856C11.608 90.9856 8.77758 91.0177 5.97892 90.9856C2.16257 90.9535 0 88.7704 0 84.9499V70.31C0 66.1043 2.73503 63.3111 6.93301 63.3111C12.1487 63.279 17.3962 63.3111 22.6119 63.3111C23.5977 63.3111 24.361 63.5359 24.52 64.6596C24.679 65.7832 23.9476 66.2327 22.7073 66.2327H10.7176C9.35004 66.2327 8.01433 66.2006 6.67861 66.2327C4.3888 66.2969 2.89406 67.8058 2.89406 70.1174C2.87285 75.1258 2.87285 80.1341 2.89406 85.1425C2.89406 87.0688 3.81635 88.0641 5.72452 88.0641H23.1843C24.8699 88.0641 25.9194 87.0688 25.9512 85.5599C25.983 84.051 24.8699 82.9915 23.1525 82.9915H9.73168C8.49137 82.9915 7.7599 82.2852 7.98252 81.2899C8.20514 80.2947 8.714 80.1021 9.54087 80.1021C14.2795 80.1021 19.0499 80.0699 23.7886 80.1342C26.5554 80.1663 28.7816 82.6062 28.8452 85.3673C28.9088 88.1283 26.8734 90.793 24.043 90.9214C21.2125 91.0498 17.6188 90.9535 14.4067 90.9535V90.9856Z" fill="#0F4FE3"/>
<path d="M59.7257 30.5619H69.1075C69.4183 30.5797 69.729 30.5253 70.0157 30.4028C70.3024 30.2804 70.5575 30.0932 70.7613 29.8556C74.0052 26.5381 77.2597 23.2527 80.5248 19.9994C81.2343 19.261 82.1393 18.7443 83.1318 18.5109C84.1243 18.2775 85.1623 18.3373 86.1221 18.6831C88.2211 19.3894 89.4614 20.8983 89.843 23.1136C90.2247 25.3288 89.3978 26.8377 87.9667 28.2825C83.493 32.7986 78.9982 37.3147 74.4822 41.8308C74.1669 42.1234 73.9183 42.4816 73.7535 42.8807C73.5888 43.2798 73.5119 43.7103 73.5281 44.1423C73.6235 46.7428 73.5599 49.3433 73.5599 51.9438C73.5599 53.1638 72.9875 53.9022 72.097 53.8059C71.2065 53.7096 70.6659 52.9712 70.6659 51.9438C70.6977 48.8297 70.6977 45.7155 70.6659 42.5692C70.6659 41.7345 71.0793 41.1887 71.62 40.6108C76.3056 35.9235 80.9594 31.2254 85.5814 26.5167C85.9104 26.2275 86.2088 25.9047 86.4719 25.5535C86.875 25.0516 87.0731 24.4133 87.0258 23.7689C86.9786 23.1246 86.6894 22.5227 86.2175 22.0862C85.7598 21.6348 85.1537 21.369 84.5145 21.3394C83.8753 21.3098 83.2477 21.5185 82.751 21.9257C82.4492 22.1757 82.1624 22.4437 81.8923 22.7283C78.6484 26.003 75.3727 29.2777 72.1606 32.5845C71.9071 32.8647 71.5972 33.087 71.2516 33.2365C70.9061 33.386 70.5329 33.4592 70.157 33.4514H49.9304C48.9445 33.3872 48.2448 32.7451 48.3402 31.9103C48.4357 31.0756 49.0081 30.5298 49.9622 30.5298L59.7257 30.5619Z" fill="#0F4FE3"/>
<path d="M13.707 61.1297C11.7027 61.136 9.74175 60.541 8.07308 59.4202C6.40442 58.2993 5.10328 56.7033 4.33485 54.8346C3.56641 52.9659 3.36533 50.9088 3.75714 48.9245C4.14895 46.9403 5.11599 45.1182 6.53547 43.6898C7.95494 42.2614 9.76284 41.2909 11.7297 40.9017C13.6965 40.5124 15.7336 40.7219 17.5823 41.5035C19.431 42.2852 21.0079 43.6037 22.1129 45.2917C23.2179 46.9798 23.8011 48.9612 23.7885 50.9845C23.7717 53.6755 22.7032 56.251 20.8153 58.1509C18.9273 60.0507 16.3727 61.1212 13.707 61.1297ZM13.6434 58.2081C15.0752 58.2208 16.4784 57.8034 17.6746 57.009C18.8709 56.2145 19.8061 55.0789 20.3613 53.7466C20.9165 52.4142 21.0667 50.9452 20.7928 49.5264C20.5189 48.1076 19.8332 46.8031 18.823 45.7787C17.8127 44.7543 16.5235 44.0564 15.1193 43.7736C13.7151 43.4908 12.2593 43.6359 10.937 44.1905C9.61472 44.7451 8.48568 45.6841 7.69341 46.8882C6.90114 48.0922 6.48146 49.5069 6.48771 50.9524C6.496 52.8686 7.25156 54.7044 8.59081 56.0624C9.93007 57.4204 11.7452 58.1912 13.6434 58.2081Z" fill="#0F4FE3"/>
<path d="M64.21 66.2324C64.2101 64.2091 64.8057 62.2314 65.9212 60.5504C67.0368 58.8695 68.6219 57.5611 70.4755 56.7913C72.329 56.0214 74.3673 55.825 76.3317 56.2268C78.296 56.6286 80.0978 57.6105 81.5083 59.048C82.9188 60.4855 83.8744 62.3136 84.2538 64.3003C84.6332 66.287 84.4192 68.3428 83.6391 70.2065C82.859 72.0703 81.548 73.658 79.8723 74.7682C78.1967 75.8783 76.2321 76.4608 74.2279 76.4417C71.5597 76.4248 69.0069 75.3406 67.129 73.4269C65.2512 71.5132 64.2015 68.926 64.21 66.2324ZM67.1041 66.2003C67.0978 67.6444 67.5166 69.0578 68.3075 70.2612C69.0983 71.4646 70.2255 72.4037 71.5459 72.9592C72.8664 73.5148 74.3205 73.6618 75.7239 73.3816C77.1272 73.1015 78.4165 72.4067 79.428 71.3856C80.4396 70.3644 81.1278 69.0629 81.4053 67.6462C81.6829 66.2295 81.5372 64.7615 80.9869 63.4286C80.4366 62.0956 79.5063 60.9577 78.3142 60.1594C77.1222 59.361 75.722 58.9382 74.2915 58.9445C72.3904 58.9613 70.5719 59.7311 69.2276 61.0882C67.8833 62.4453 67.1207 64.2811 67.1041 66.2003Z" fill="#0F4FE3"/>
<path d="M28.8136 4.92314e-05C30.8048 -0.00620173 32.7532 0.582945 34.4131 1.69317C36.0731 2.8034 37.3702 4.38498 38.1408 6.23845C38.9115 8.09193 39.1211 10.1343 38.7434 12.1079C38.3657 14.0815 37.4175 15.898 36.0183 17.3283C34.6192 18.7586 32.8319 19.7386 30.8817 20.1447C28.9316 20.5508 26.906 20.3648 25.0604 19.6103C23.2148 18.8557 21.6319 17.5663 20.5114 15.9047C19.3908 14.2431 18.7827 12.2837 18.7639 10.2736C18.7555 8.93292 19.0088 7.60366 19.5093 6.36176C20.0098 5.11986 20.7477 3.98966 21.681 3.03566C22.6142 2.08166 23.7244 1.32256 24.9482 0.801713C26.172 0.280863 27.4855 0.00845493 28.8136 4.92314e-05ZM28.8454 17.4331C30.2696 17.433 31.6617 17.0058 32.845 16.2056C34.0284 15.4055 34.9495 14.2685 35.4916 12.9389C36.0337 11.6094 36.1723 10.1472 35.8897 8.73802C35.6072 7.32883 34.9163 6.03613 33.9048 5.02401C32.8932 4.01188 31.6066 3.32595 30.2082 3.05328C28.8098 2.78061 27.3627 2.93349 26.0505 3.49251C24.7383 4.05154 23.6203 4.99152 22.8382 6.19313C22.0561 7.39475 21.6453 8.80382 21.6579 10.2415C21.6747 12.1547 22.4394 13.9838 23.7854 15.3307C25.1315 16.6775 26.9501 17.4331 28.8454 17.4331Z" fill="#0F4FE3"/>
<path d="M71.3976 18.202C71.3975 20.2253 70.8018 22.203 69.6863 23.8839C68.5708 25.5649 66.9856 26.8733 65.1321 27.6431C63.2785 28.4129 61.2402 28.6094 59.2758 28.2076C57.3115 27.8058 55.5097 26.8239 54.0992 25.3864C52.6887 23.9489 51.7331 22.1208 51.3537 20.1341C50.9744 18.1474 51.1883 16.0916 51.9684 14.2279C52.7485 12.3641 54.0596 10.7764 55.7352 9.66622C57.4108 8.55607 59.3755 7.97355 61.3796 7.99264C64.0453 8.01803 66.5932 9.10486 68.4692 11.0167C70.3453 12.9286 71.3977 15.5109 71.3976 18.202ZM61.2524 10.9142C59.826 10.9269 58.4353 11.3659 57.2558 12.1758C56.0764 12.9857 55.161 14.1302 54.6253 15.4648C54.0896 16.7994 53.9575 18.2643 54.2458 19.6746C54.5341 21.0849 55.2298 22.3774 56.2451 23.3889C57.2604 24.4004 58.5497 25.0856 59.9505 25.358C61.3512 25.6304 62.8004 25.4778 64.1153 24.9194C65.4302 24.3611 66.5517 23.422 67.3384 22.2208C68.125 21.0195 68.5415 19.6099 68.5353 18.1699C68.5185 16.2341 67.7427 14.3839 66.3779 13.0241C65.013 11.6643 63.1701 10.9056 61.2524 10.9142Z" fill="#0F4FE3"/>
<path d="M29.1315 23.2767C32.4072 23.2767 35.651 23.373 38.8949 23.2446C43.0929 23.084 46.6231 26.0056 46.1778 31.2066C46.0824 32.1698 45.6054 32.7476 44.6831 32.7155C43.7608 32.6834 43.3156 32.1377 43.2838 31.2387C43.252 30.3398 43.3156 30.1792 43.2838 29.6656C43.2513 28.7539 42.8738 27.8894 42.2288 27.2503C41.5839 26.6113 40.7208 26.2462 39.8172 26.2303C32.757 26.1982 25.7285 26.1982 18.6683 26.2303C16.6647 26.2303 15.2336 27.7393 15.2018 29.7619C15.17 31.7845 15.17 34.1603 15.17 36.3434C15.1963 36.7085 15.1749 37.0755 15.1064 37.435C15.0441 37.7761 14.854 38.0798 14.5757 38.2831C14.2973 38.4864 13.952 38.5736 13.6116 38.5265C13.4419 38.5308 13.2731 38.5008 13.1151 38.4382C12.957 38.3755 12.813 38.2816 12.6915 38.1619C12.57 38.0423 12.4734 37.8992 12.4075 37.7413C12.3416 37.5834 12.3077 37.4137 12.3077 37.2423C12.2759 34.3208 12.0533 31.3992 12.4349 28.5098C12.8166 25.6203 15.3608 23.4372 18.223 23.3409C21.8486 23.2446 25.5059 23.3088 29.1315 23.3088V23.2767Z" fill="#0F4FE3"/>
<path d="M73.9734 79.332H84.055C88.5392 79.332 91.624 83.0241 90.8926 87.4546C90.7336 88.2572 90.2565 88.7709 89.4296 88.7388C89.249 88.7475 89.0684 88.719 88.899 88.6552C88.7295 88.5913 88.5746 88.4934 88.4438 88.3673C88.3129 88.2412 88.2088 88.0896 88.1377 87.9217C88.0667 87.7537 88.0301 87.573 88.0303 87.3904C87.9985 86.9088 88.0303 86.4272 88.0303 85.9456C87.9349 83.7946 86.4402 82.2215 84.3412 82.2215C77.4082 82.1894 70.4433 82.1894 63.5103 82.2215C61.4431 82.2215 59.9801 83.7625 59.8847 85.8815C59.9059 86.3953 59.8953 86.91 59.8529 87.4225C59.8491 87.6053 59.8085 87.7853 59.7336 87.9517C59.6586 88.1182 59.551 88.2675 59.4171 88.3906C59.2833 88.5137 59.126 88.6081 58.9549 88.6679C58.7838 88.7278 58.6024 88.7519 58.4218 88.7388C57.5949 88.7388 57.1497 88.2572 57.0225 87.4225C56.3228 82.9278 59.3441 79.332 63.8601 79.332H73.9734Z" fill="#0F4FE3"/>
<path d="M43.7926 89.5405C42.6159 89.4763 41.2166 89.7011 39.8491 89.2195C36.0645 87.839 34.9833 84.5643 35.4285 81.1612C35.4481 81.0004 35.4991 80.8451 35.5787 80.7045C35.6584 80.5638 35.7649 80.4406 35.8922 80.342C36.0195 80.2434 36.165 80.1713 36.3202 80.1301C36.4753 80.0888 36.6371 80.0792 36.796 80.1017C37.137 80.0749 37.4747 80.1844 37.7365 80.4066C37.9982 80.6288 38.163 80.9459 38.1953 81.2896C38.2488 81.8872 38.2701 82.4874 38.2589 83.0875C38.2755 84.0159 38.6503 84.9011 39.3037 85.5547C39.9571 86.2083 40.8374 86.5787 41.7572 86.5869C43.2838 86.619 44.7785 86.619 46.2733 86.5869C47.1956 86.5784 48.0772 86.2026 48.7264 85.5412C49.3756 84.8799 49.7398 83.9864 49.7398 83.0553C49.7716 82.5417 49.708 81.9959 49.7716 81.4822C49.8352 80.9685 50.344 80.0696 51.2663 80.1017C52.1886 80.1338 52.5703 80.6796 52.6339 81.5785C53.1427 86.9722 49.3899 89.8295 45.4146 89.5405H43.7926Z" fill="#0F4FE3"/>
<path d="M43.1246 60.7414C45.5416 56.664 47.895 52.7472 50.2167 48.7983L50.5347 48.2846C51.1071 47.3536 51.934 47.0647 52.6973 47.5462C53.4605 48.0278 53.5559 48.8304 52.9835 49.8578L52.1248 51.3025L44.9373 63.4061C43.856 65.2361 42.9656 65.2682 41.6299 63.5345L35.0466 54.8983C34.4742 54.1278 34.4106 53.3251 35.2375 52.7151C36.0643 52.1051 36.7322 52.362 37.3046 53.1004L37.9725 53.9351L43.1246 60.7414Z" fill="#0F4FE3"/>
<path d="M44.9836 79.6233H37.5099C36.1424 79.6233 35.6654 79.1417 35.6336 77.7291C35.6018 75.7707 35.7607 73.8123 35.4427 71.8539C35.1247 69.8955 33.8526 67.6481 32.2942 65.9466C23.7711 56.604 27.651 41.5147 39.5771 37.5337C46.9236 35.0937 55.0969 37.9189 59.3267 44.372C63.5565 50.8251 63.2703 59.8145 57.9274 65.6897C55.3832 68.4829 54.2064 71.6291 54.3654 75.3533C54.3972 76.188 54.3972 77.0549 54.3654 77.8896C54.3336 78.7243 53.8566 79.6233 52.6163 79.6233C50.072 79.6554 47.5278 79.6233 44.9836 79.6233ZM44.8882 76.7338C46.6055 76.7338 48.3229 76.6375 50.0085 76.7338C51.1534 76.8301 51.5668 76.5412 51.5032 75.2891C51.2488 70.8265 52.7753 67.1023 55.7648 63.7313C59.8355 59.1724 60.6306 53.7146 58.0546 48.1283C55.4786 42.542 50.8989 39.5242 44.761 39.6205C38.623 39.7168 34.2024 42.7668 31.8172 48.353C29.432 53.9393 30.3861 59.1403 34.2342 63.7955C35.0662 64.701 35.8315 65.6668 36.524 66.685C38.2414 69.446 38.6548 72.496 38.5276 75.6744C38.4958 76.477 38.6866 76.7659 39.5453 76.7338C41.3263 76.6696 43.1072 76.7338 44.8882 76.7338Z" fill="url(#paint0_linear_4300_2689)"/>
<path d="M15.4067 91.9856C12.608 91.9856 9.77758 92.0177 6.97892 91.9856C3.16257 91.9535 1 89.7704 1 85.9499V71.31C1 67.1043 3.73503 64.3111 7.93301 64.3111C13.1487 64.279 18.3962 64.3111 23.6119 64.3111C24.5977 64.3111 25.361 64.5359 25.52 65.6596C25.679 66.7832 24.9476 67.2327 23.7073 67.2327H11.7176C10.35 67.2327 9.01433 67.2006 7.67861 67.2327C5.3888 67.2969 3.89406 68.8058 3.89406 71.1174C3.87285 76.1258 3.87285 81.1341 3.89406 86.1425C3.89406 88.0688 4.81635 89.0641 6.72452 89.0641H24.1843C25.8699 89.0641 26.9194 88.0688 26.9512 86.5599C26.983 85.051 25.8699 83.9915 24.1525 83.9915H10.7317C9.49137 83.9915 8.7599 83.2852 8.98252 82.2899C9.20514 81.2947 9.714 81.1021 10.5409 81.1021C15.2795 81.1021 20.0499 81.0699 24.7886 81.1342C27.5554 81.1663 29.7816 83.6062 29.8452 86.3673C29.9088 89.1283 27.8734 91.793 25.043 91.9214C22.2125 92.0498 18.6188 91.9535 15.4067 91.9535V91.9856Z" fill="url(#paint1_linear_4300_2689)"/>
<path d="M60.7257 31.5619H70.1075C70.4183 31.5797 70.729 31.5253 71.0157 31.4028C71.3024 31.2804 71.5575 31.0932 71.7613 30.8556C75.0052 27.5381 78.2597 24.2527 81.5248 20.9994C82.2343 20.261 83.1393 19.7443 84.1318 19.5109C85.1243 19.2775 86.1623 19.3373 87.1221 19.6831C89.2211 20.3894 90.4614 21.8983 90.843 24.1136C91.2247 26.3288 90.3978 27.8377 88.9667 29.2825C84.493 33.7986 79.9982 38.3147 75.4822 42.8308C75.1669 43.1234 74.9183 43.4816 74.7535 43.8807C74.5888 44.2798 74.5119 44.7103 74.5281 45.1423C74.6235 47.7428 74.5599 50.3433 74.5599 52.9438C74.5599 54.1638 73.9875 54.9022 73.097 54.8059C72.2065 54.7096 71.6659 53.9712 71.6659 52.9438C71.6977 49.8297 71.6977 46.7155 71.6659 43.5692C71.6659 42.7345 72.0793 42.1887 72.62 41.6108C77.3056 36.9235 81.9594 32.2254 86.5814 27.5167C86.9104 27.2275 87.2088 26.9047 87.4719 26.5535C87.875 26.0516 88.0731 25.4133 88.0258 24.7689C87.9786 24.1246 87.6894 23.5227 87.2175 23.0862C86.7598 22.6348 86.1537 22.369 85.5145 22.3394C84.8753 22.3098 84.2477 22.5185 83.751 22.9257C83.4492 23.1757 83.1624 23.4437 82.8923 23.7283C79.6484 27.003 76.3727 30.2777 73.1606 33.5845C72.9071 33.8647 72.5972 34.087 72.2516 34.2365C71.9061 34.386 71.5329 34.4592 71.157 34.4514H50.9304C49.9445 34.3872 49.2448 33.7451 49.3402 32.9103C49.4357 32.0756 50.0081 31.5298 50.9622 31.5298L60.7257 31.5619Z" fill="url(#paint2_linear_4300_2689)"/>
<path d="M14.707 62.1297C12.7027 62.136 10.7417 61.541 9.07308 60.4202C7.40442 59.2993 6.10328 57.7033 5.33485 55.8346C4.56641 53.9659 4.36533 51.9088 4.75714 49.9245C5.14895 47.9403 6.11599 46.1182 7.53547 44.6898C8.95494 43.2614 10.7628 42.2909 12.7297 41.9017C14.6965 41.5124 16.7336 41.7219 18.5823 42.5035C20.431 43.2852 22.0079 44.6037 23.1129 46.2917C24.2179 47.9798 24.8011 49.9612 24.7885 51.9845C24.7717 54.6755 23.7032 57.251 21.8153 59.1509C19.9273 61.0507 17.3727 62.1212 14.707 62.1297ZM14.6434 59.2081C16.0752 59.2208 17.4784 58.8034 18.6746 58.009C19.8709 57.2145 20.8061 56.0789 21.3613 54.7466C21.9165 53.4142 22.0667 51.9452 21.7928 50.5264C21.5189 49.1076 20.8332 47.8031 19.823 46.7787C18.8127 45.7543 17.5235 45.0564 16.1193 44.7736C14.7151 44.4908 13.2593 44.6359 11.937 45.1905C10.6147 45.7451 9.48568 46.6841 8.69341 47.8882C7.90114 49.0922 7.48146 50.5069 7.48771 51.9524C7.496 53.8686 8.25156 55.7044 9.59081 57.0624C10.9301 58.4204 12.7452 59.1912 14.6434 59.2081Z" fill="url(#paint3_linear_4300_2689)"/>
<path d="M65.21 67.2324C65.2101 65.2091 65.8057 63.2314 66.9212 61.5504C68.0368 59.8695 69.6219 58.5611 71.4755 57.7913C73.329 57.0214 75.3673 56.825 77.3317 57.2268C79.296 57.6286 81.0978 58.6105 82.5083 60.048C83.9188 61.4855 84.8744 63.3136 85.2538 65.3003C85.6332 67.287 85.4192 69.3428 84.6391 71.2065C83.859 73.0703 82.548 74.658 80.8723 75.7682C79.1967 76.8783 77.2321 77.4608 75.2279 77.4417C72.5597 77.4248 70.0069 76.3406 68.129 74.4269C66.2512 72.5132 65.2015 69.926 65.21 67.2324ZM68.1041 67.2003C68.0978 68.6444 68.5166 70.0578 69.3075 71.2612C70.0983 72.4646 71.2255 73.4037 72.5459 73.9592C73.8664 74.5148 75.3205 74.6618 76.7239 74.3816C78.1272 74.1015 79.4165 73.4067 80.428 72.3856C81.4396 71.3644 82.1278 70.0629 82.4053 68.6462C82.6829 67.2295 82.5372 65.7615 81.9869 64.4286C81.4366 63.0956 80.5063 61.9577 79.3142 61.1594C78.1222 60.361 76.722 59.9382 75.2915 59.9445C73.3904 59.9613 71.5719 60.7311 70.2276 62.0882C68.8833 63.4453 68.1207 65.2811 68.1041 67.2003Z" fill="url(#paint4_linear_4300_2689)"/>
<path d="M29.8136 1.00005C31.8048 0.993798 33.7532 1.58295 35.4131 2.69317C37.0731 3.8034 38.3702 5.38498 39.1408 7.23845C39.9115 9.09193 40.1211 11.1343 39.7434 13.1079C39.3657 15.0815 38.4175 16.898 37.0183 18.3283C35.6192 19.7586 33.8319 20.7386 31.8817 21.1447C29.9316 21.5508 27.906 21.3648 26.0604 20.6103C24.2148 19.8557 22.6319 18.5663 21.5114 16.9047C20.3908 15.2431 19.7827 13.2837 19.7639 11.2736C19.7555 9.93292 20.0088 8.60366 20.5093 7.36176C21.0098 6.11986 21.7477 4.98966 22.681 4.03566C23.6142 3.08166 24.7244 2.32256 25.9482 1.80171C27.172 1.28086 28.4855 1.00845 29.8136 1.00005ZM29.8454 18.4331C31.2696 18.433 32.6617 18.0058 33.845 17.2056C35.0284 16.4055 35.9495 15.2685 36.4916 13.9389C37.0337 12.6094 37.1723 11.1472 36.8897 9.73802C36.6072 8.32883 35.9163 7.03613 34.9048 6.02401C33.8932 5.01188 32.6066 4.32595 31.2082 4.05328C29.8098 3.78061 28.3627 3.93349 27.0505 4.49251C25.7383 5.05154 24.6203 5.99152 23.8382 7.19313C23.0561 8.39475 22.6453 9.80382 22.6579 11.2415C22.6747 13.1547 23.4394 14.9838 24.7854 16.3307C26.1315 17.6775 27.9501 18.4331 29.8454 18.4331Z" fill="url(#paint5_linear_4300_2689)"/>
<path d="M72.3976 19.202C72.3975 21.2253 71.8018 23.203 70.6863 24.8839C69.5708 26.5649 67.9856 27.8733 66.1321 28.6431C64.2785 29.4129 62.2402 29.6094 60.2758 29.2076C58.3115 28.8058 56.5097 27.8239 55.0992 26.3864C53.6887 24.9489 52.7331 23.1208 52.3537 21.1341C51.9744 19.1474 52.1883 17.0916 52.9684 15.2279C53.7485 13.3641 55.0596 11.7764 56.7352 10.6662C58.4108 9.55607 60.3755 8.97355 62.3796 8.99264C65.0453 9.01803 67.5932 10.1049 69.4692 12.0167C71.3453 13.9286 72.3977 16.5109 72.3976 19.202ZM62.2524 11.9142C60.826 11.9269 59.4353 12.3659 58.2558 13.1758C57.0764 13.9857 56.161 15.1302 55.6253 16.4648C55.0896 17.7994 54.9575 19.2643 55.2458 20.6746C55.5341 22.0849 56.2298 23.3774 57.2451 24.3889C58.2604 25.4004 59.5497 26.0856 60.9505 26.358C62.3512 26.6304 63.8004 26.4778 65.1153 25.9194C66.4302 25.3611 67.5517 24.422 68.3384 23.2208C69.125 22.0195 69.5415 20.6099 69.5353 19.1699C69.5185 17.2341 68.7427 15.3839 67.3779 14.0241C66.013 12.6643 64.1701 11.9056 62.2524 11.9142Z" fill="url(#paint6_linear_4300_2689)"/>
<path d="M30.1315 24.2767C33.4072 24.2767 36.651 24.373 39.8949 24.2446C44.0929 24.084 47.6231 27.0056 47.1778 32.2066C47.0824 33.1698 46.6054 33.7476 45.6831 33.7155C44.7608 33.6834 44.3156 33.1377 44.2838 32.2387C44.252 31.3398 44.3156 31.1792 44.2838 30.6656C44.2513 29.7539 43.8738 28.8894 43.2288 28.2503C42.5839 27.6113 41.7208 27.2462 40.8172 27.2303C33.757 27.1982 26.7285 27.1982 19.6683 27.2303C17.6647 27.2303 16.2336 28.7393 16.2018 30.7619C16.17 32.7845 16.17 35.1603 16.17 37.3434C16.1963 37.7085 16.1749 38.0755 16.1064 38.435C16.0441 38.7761 15.854 39.0798 15.5757 39.2831C15.2973 39.4864 14.952 39.5736 14.6116 39.5265C14.4419 39.5308 14.2731 39.5008 14.1151 39.4382C13.957 39.3755 13.813 39.2816 13.6915 39.1619C13.57 39.0423 13.4734 38.8992 13.4075 38.7413C13.3416 38.5834 13.3077 38.4137 13.3077 38.2423C13.2759 35.3208 13.0533 32.3992 13.4349 29.5098C13.8166 26.6203 16.3608 24.4372 19.223 24.3409C22.8486 24.2446 26.5059 24.3088 30.1315 24.3088V24.2767Z" fill="url(#paint7_linear_4300_2689)"/>
<path d="M74.9734 80.332H85.055C89.5392 80.332 92.624 84.0241 91.8926 88.4546C91.7336 89.2572 91.2565 89.7709 90.4296 89.7388C90.249 89.7475 90.0684 89.719 89.899 89.6552C89.7295 89.5913 89.5746 89.4934 89.4438 89.3673C89.3129 89.2412 89.2088 89.0896 89.1377 88.9217C89.0667 88.7537 89.0301 88.573 89.0303 88.3904C88.9985 87.9088 89.0303 87.4272 89.0303 86.9456C88.9349 84.7946 87.4402 83.2215 85.3412 83.2215C78.4082 83.1894 71.4433 83.1894 64.5103 83.2215C62.4431 83.2215 60.9801 84.7625 60.8847 86.8815C60.9059 87.3953 60.8953 87.91 60.8529 88.4225C60.8491 88.6053 60.8085 88.7853 60.7336 88.9517C60.6586 89.1182 60.551 89.2675 60.4171 89.3906C60.2833 89.5137 60.126 89.6081 59.9549 89.6679C59.7838 89.7278 59.6024 89.7519 59.4218 89.7388C58.5949 89.7388 58.1497 89.2572 58.0225 88.4225C57.3228 83.9278 60.3441 80.332 64.8601 80.332H74.9734Z" fill="url(#paint8_linear_4300_2689)"/>
<path d="M44.7926 90.5405C43.6159 90.4763 42.2166 90.7011 40.8491 90.2195C37.0645 88.839 35.9833 85.5643 36.4285 82.1612C36.4481 82.0004 36.4991 81.8451 36.5787 81.7045C36.6584 81.5638 36.7649 81.4406 36.8922 81.342C37.0195 81.2434 37.165 81.1713 37.3202 81.1301C37.4753 81.0888 37.6371 81.0792 37.796 81.1017C38.137 81.0749 38.4747 81.1844 38.7365 81.4066C38.9982 81.6288 39.163 81.9459 39.1953 82.2896C39.2488 82.8872 39.2701 83.4874 39.2589 84.0875C39.2755 85.0159 39.6503 85.9011 40.3037 86.5547C40.9571 87.2083 41.8374 87.5787 42.7572 87.5869C44.2838 87.619 45.7785 87.619 47.2733 87.5869C48.1956 87.5784 49.0772 87.2026 49.7264 86.5412C50.3756 85.8799 50.7398 84.9864 50.7398 84.0553C50.7716 83.5417 50.708 82.9959 50.7716 82.4822C50.8352 81.9685 51.344 81.0696 52.2663 81.1017C53.1886 81.1338 53.5703 81.6796 53.6339 82.5785C54.1427 87.9722 50.3899 90.8295 46.4146 90.5405H44.7926Z" fill="url(#paint9_linear_4300_2689)"/>
<path d="M44.1246 61.7414C46.5416 57.664 48.895 53.7472 51.2167 49.7983L51.5347 49.2846C52.1071 48.3536 52.934 48.0647 53.6973 48.5462C54.4605 49.0278 54.5559 49.8304 53.9835 50.8578L53.1248 52.3025L45.9373 64.4061C44.856 66.2361 43.9656 66.2682 42.6299 64.5345L36.0466 55.8983C35.4742 55.1278 35.4106 54.3251 36.2375 53.7151C37.0643 53.1051 37.7322 53.362 38.3046 54.1004L38.9725 54.9351L44.1246 61.7414Z" fill="url(#paint10_linear_4300_2689)"/>
<defs>
<linearGradient id="paint0_linear_4300_2689" x1="44.9756" y1="36.6641" x2="44.9756" y2="79.6375" gradientUnits="userSpaceOnUse">
<stop stop-color="white" stop-opacity="0.66"/>
<stop offset="1" stop-color="#969696" stop-opacity="0"/>
</linearGradient>
<linearGradient id="paint1_linear_4300_2689" x1="15.4233" y1="64.2969" x2="15.4233" y2="91.9999" gradientUnits="userSpaceOnUse">
<stop stop-color="white" stop-opacity="0.66"/>
<stop offset="1" stop-color="#969696" stop-opacity="0"/>
</linearGradient>
<linearGradient id="paint2_linear_4300_2689" x1="70.1337" y1="19.3711" x2="70.1337" y2="54.8143" gradientUnits="userSpaceOnUse">
<stop stop-color="white" stop-opacity="0.66"/>
<stop offset="1" stop-color="#969696" stop-opacity="0"/>
</linearGradient>
<linearGradient id="paint3_linear_4300_2689" x1="14.6753" y1="41.7109" x2="14.6753" y2="62.1297" gradientUnits="userSpaceOnUse">
<stop stop-color="white" stop-opacity="0.66"/>
<stop offset="1" stop-color="#969696" stop-opacity="0"/>
</linearGradient>
<linearGradient id="paint4_linear_4300_2689" x1="75.3233" y1="57.0234" x2="75.3233" y2="77.4422" gradientUnits="userSpaceOnUse">
<stop stop-color="white" stop-opacity="0.66"/>
<stop offset="1" stop-color="#969696" stop-opacity="0"/>
</linearGradient>
<linearGradient id="paint5_linear_4300_2689" x1="29.8451" y1="1" x2="29.8451" y2="21.3546" gradientUnits="userSpaceOnUse">
<stop stop-color="white" stop-opacity="0.66"/>
<stop offset="1" stop-color="#969696" stop-opacity="0"/>
</linearGradient>
<linearGradient id="paint6_linear_4300_2689" x1="62.2842" y1="8.99219" x2="62.2842" y2="29.411" gradientUnits="userSpaceOnUse">
<stop stop-color="white" stop-opacity="0.66"/>
<stop offset="1" stop-color="#969696" stop-opacity="0"/>
</linearGradient>
<linearGradient id="paint7_linear_4300_2689" x1="30.2151" y1="24.2383" x2="30.2151" y2="39.539" gradientUnits="userSpaceOnUse">
<stop stop-color="white" stop-opacity="0.66"/>
<stop offset="1" stop-color="#969696" stop-opacity="0"/>
</linearGradient>
<linearGradient id="paint8_linear_4300_2689" x1="74.9609" y1="80.332" x2="74.9609" y2="89.7423" gradientUnits="userSpaceOnUse">
<stop stop-color="white" stop-opacity="0.66"/>
<stop offset="1" stop-color="#969696" stop-opacity="0"/>
</linearGradient>
<linearGradient id="paint9_linear_4300_2689" x1="45.0074" y1="81.0898" x2="45.0074" y2="90.5605" gradientUnits="userSpaceOnUse">
<stop stop-color="white" stop-opacity="0.66"/>
<stop offset="1" stop-color="#969696" stop-opacity="0"/>
</linearGradient>
<linearGradient id="paint10_linear_4300_2689" x1="44.9839" y1="48.3164" x2="44.9839" y2="65.8073" gradientUnits="userSpaceOnUse">
<stop stop-color="white" stop-opacity="0.66"/>
<stop offset="1" stop-color="#969696" stop-opacity="0"/>
</linearGradient>
</defs>
</svg>
