<svg width="94" height="92" viewBox="0 0 94 92" fill="none" xmlns="http://www.w3.org/2000/svg">
<path d="M51.085 91.9941H43.7965C43.7015 91.709 43.4641 91.8278 43.2742 91.8041C41.302 91.6071 39.3436 91.2898 37.4101 90.8539C12.1495 85.1293 -3.3298 59.0954 3.6976 34.2016C10.2976 10.8756 33.7065 -3.11528 57.4714 2.063C75.6572 6.02985 89.9256 21.3984 92.5134 39.7599C92.6559 40.8051 92.6321 41.8978 93.012 42.9192V50.2115C92.7271 50.3065 92.8458 50.5678 92.8221 50.7341C92.6321 52.1118 92.4897 53.5133 92.2285 54.8672C88.5012 74.1314 73.4492 88.5973 54.1476 91.4953C53.1268 91.6615 52.0821 91.614 51.085 91.9941ZM50.1828 25.1515C50.1828 31.1849 50.2066 37.2421 50.1828 43.2755C50.1828 43.8456 50.3253 44.0118 50.8951 44.0118H64.7599C65.306 44.0118 65.4959 43.8693 65.5197 43.2992C65.7091 40.5825 66.1381 37.8879 66.8017 35.2468C68.3617 29.1243 71.184 23.3959 75.0874 18.4292C75.3248 18.1204 75.7284 17.8829 75.2061 17.3841C68.3449 11.0181 60.2729 7.31254 50.9188 6.45741C50.2541 6.40991 50.1828 6.62368 50.1828 7.21752C50.2066 13.1797 50.1828 19.1656 50.1828 25.1515ZM44.8648 25.2465V7.28879C44.8886 6.64744 44.7936 6.38615 44.0339 6.45741C34.7273 7.3363 26.7028 11.0181 19.8653 17.3841C19.4617 17.7641 19.6042 17.9779 19.8653 18.3105C25.6107 25.6266 28.792 33.9403 29.528 43.2042C29.5755 43.8693 29.7417 44.0118 30.3827 44.0118H44.0576C44.7224 44.0118 44.8886 43.8456 44.8886 43.2042C44.8411 37.2183 44.8648 31.2324 44.8648 25.2465ZM44.8648 67.9792C44.8648 62.0408 44.8411 56.0787 44.8886 50.1165C44.8886 49.4514 44.7224 49.3089 44.0576 49.3089C39.4756 49.3326 34.8698 49.3326 30.2877 49.3089C29.7417 49.3089 29.528 49.4276 29.5043 50.0215C29.3584 52.0841 29.0569 54.1328 28.6021 56.1499C27.1612 62.8811 24.1876 69.1889 19.9128 74.5827C19.6754 74.8915 19.3668 75.129 19.8653 75.5804C26.7028 81.9463 34.7273 85.6044 44.0339 86.507C44.7936 86.5783 44.8886 86.317 44.8648 85.6756V67.9792ZM50.1828 67.9792C50.1828 73.9176 50.2066 79.8322 50.1828 85.7706C50.1828 86.3645 50.2778 86.5545 50.9426 86.507C60.2966 85.6519 68.3449 81.9463 75.2061 75.5804C75.6809 75.129 75.3723 74.8915 75.1349 74.5827C73.3415 72.3409 71.7823 69.9212 70.4816 67.3616C67.716 62.0488 66.0525 56.2314 65.5909 50.259C65.5434 49.5939 65.401 49.2851 64.57 49.3089C60.0592 49.3564 55.5246 49.3326 50.99 49.3089C50.3253 49.3089 50.1828 49.4752 50.1828 50.1403C50.2066 56.0786 50.1828 62.0408 50.1828 67.9792ZM15.8531 21.826C10.9149 28.287 8.11346 35.4605 7.49619 43.4892C7.47245 43.9881 7.6861 43.9881 8.04222 43.9881H23.6639C24.21 43.9881 24.2575 43.7981 24.21 43.323C23.9938 40.6948 23.5248 38.0936 22.8093 35.5556C21.4145 30.5663 19.0508 25.9008 15.8531 21.826ZM79.1709 43.9881H86.7918C87.3853 43.9881 87.599 43.9168 87.5515 43.2517C86.9497 35.7233 84.2338 28.5184 79.7169 22.4673C79.2421 21.826 79.0759 21.9448 78.6485 22.4911C74.0665 28.7145 71.5024 35.6743 70.8377 43.3705C70.7902 43.9406 71.0039 43.9881 71.455 43.9881H79.1709ZM15.948 49.3326C13.4077 49.3326 10.8437 49.3564 8.3034 49.3089C7.63864 49.3089 7.47244 49.4514 7.54366 50.1403C8.22592 57.4746 10.9026 64.482 15.2833 70.4021C15.7818 71.1147 15.9955 71.0197 16.4703 70.3783C20.8791 64.366 23.556 57.2595 24.21 49.8315C24.2575 49.1901 23.9013 49.3326 23.569 49.3326H15.948ZM79.2183 49.3326H71.5024C71.0039 49.3326 70.7902 49.4039 70.8614 49.9977C71.0514 51.4705 71.2175 52.9432 71.5262 54.3922C72.6806 60.2717 75.1568 65.8115 78.7672 70.5921C78.9809 70.8771 79.0996 71.3285 79.5507 70.7346C84.078 64.7309 86.8407 57.5821 87.5278 50.0928C87.5752 49.4039 87.3616 49.3326 86.768 49.3326C84.2515 49.3564 81.7349 49.3326 79.2183 49.3326Z" fill="#C63127"/>
<path d="M49.085 91.9941H41.7965C41.7015 91.709 41.4641 91.8278 41.2742 91.8041C39.302 91.6071 37.3436 91.2898 35.4101 90.8539C10.1495 85.1293 -5.3298 59.0954 1.6976 34.2016C8.29765 10.8756 31.7065 -3.11528 55.4714 2.063C73.6572 6.02985 87.9256 21.3984 90.5134 39.7599C90.6559 40.8051 90.6321 41.8978 91.012 42.9192V50.2115C90.7271 50.3065 90.8458 50.5678 90.8221 50.7341C90.6321 52.1118 90.4897 53.5133 90.2285 54.8672C86.5012 74.1314 71.4492 88.5973 52.1476 91.4953C51.1268 91.6615 50.0821 91.614 49.085 91.9941ZM48.1828 25.1515C48.1828 31.1849 48.2066 37.2421 48.1828 43.2755C48.1828 43.8456 48.3253 44.0118 48.8951 44.0118H62.7599C63.306 44.0118 63.4959 43.8693 63.5197 43.2992C63.7091 40.5825 64.1381 37.8879 64.8017 35.2468C66.3617 29.1243 69.184 23.3959 73.0874 18.4292C73.3248 18.1204 73.7284 17.8829 73.2061 17.3841C66.3449 11.0181 58.2729 7.31254 48.9188 6.45741C48.2541 6.40991 48.1828 6.62368 48.1828 7.21752C48.2066 13.1797 48.1828 19.1656 48.1828 25.1515ZM42.8648 25.2465V7.28879C42.8886 6.64744 42.7936 6.38615 42.0339 6.45741C32.7273 7.3363 24.7028 11.0181 17.8653 17.3841C17.4617 17.7641 17.6042 17.9779 17.8653 18.3105C23.6107 25.6266 26.792 33.9403 27.528 43.2042C27.5755 43.8693 27.7417 44.0118 28.3827 44.0118H42.0576C42.7224 44.0118 42.8886 43.8456 42.8886 43.2042C42.8411 37.2183 42.8648 31.2324 42.8648 25.2465ZM42.8648 67.9792C42.8648 62.0408 42.8411 56.0787 42.8886 50.1165C42.8886 49.4514 42.7224 49.3089 42.0576 49.3089C37.4756 49.3326 32.8698 49.3326 28.2877 49.3089C27.7417 49.3089 27.528 49.4276 27.5043 50.0215C27.3584 52.0841 27.0569 54.1328 26.6021 56.1499C25.1612 62.8811 22.1876 69.1889 17.9128 74.5827C17.6754 74.8915 17.3668 75.129 17.8653 75.5804C24.7028 81.9463 32.7273 85.6044 42.0339 86.507C42.7936 86.5783 42.8886 86.317 42.8648 85.6756V67.9792ZM48.1828 67.9792C48.1828 73.9176 48.2066 79.8322 48.1828 85.7706C48.1828 86.3645 48.2778 86.5545 48.9426 86.507C58.2966 85.6519 66.3449 81.9463 73.2061 75.5804C73.6809 75.129 73.3723 74.8915 73.1349 74.5827C71.3415 72.3409 69.7823 69.9212 68.4816 67.3616C65.716 62.0488 64.0525 56.2314 63.5909 50.259C63.5434 49.5939 63.401 49.2851 62.57 49.3089C58.0592 49.3564 53.5246 49.3326 48.99 49.3089C48.3253 49.3089 48.1828 49.4752 48.1828 50.1403C48.2066 56.0786 48.1828 62.0408 48.1828 67.9792ZM13.8531 21.826C8.91491 28.287 6.11346 35.4605 5.49619 43.4892C5.47245 43.9881 5.6861 43.9881 6.04222 43.9881H21.6639C22.21 43.9881 22.2575 43.7981 22.21 43.323C21.9938 40.6948 21.5248 38.0936 20.8093 35.5556C19.4145 30.5663 17.0508 25.9008 13.8531 21.826ZM84.7918 43.9881C85.3853 43.9881 85.599 43.9168 85.5515 43.2517C84.9497 35.7233 82.2338 28.5184 77.7169 22.4673C77.2421 21.826 77.0759 21.9448 76.6485 22.4911C72.0665 28.7145 69.5024 35.6743 68.8377 43.3705C68.7902 43.9406 69.0039 43.9881 69.455 43.9881H84.7918ZM13.948 49.3326C11.4077 49.3326 8.8437 49.3564 6.3034 49.3089C5.63864 49.3089 5.47244 49.4514 5.54366 50.1403C6.22592 57.4746 8.90259 64.482 13.2833 70.4021C13.7818 71.1147 13.9955 71.0197 14.4703 70.3783C18.8791 64.366 21.556 57.2595 22.21 49.8315C22.2575 49.1901 21.9013 49.3326 21.569 49.3326H13.948ZM77.2183 49.3326H69.5024C69.0039 49.3326 68.7902 49.4039 68.8614 49.9977C69.0514 51.4705 69.2175 52.9432 69.5262 54.3922C70.6806 60.2717 73.1568 65.8115 76.7672 70.5921C76.9809 70.8771 77.0996 71.3285 77.5507 70.7346C82.078 64.7309 84.8407 57.5821 85.5278 50.0928C85.5752 49.4039 85.3616 49.3326 84.768 49.3326C82.2515 49.3564 79.7349 49.3326 77.2183 49.3326Z" fill="url(#paint0_linear_4530_5)"/>
<defs>
<linearGradient id="paint0_linear_4530_5" x1="45.506" y1="0.988281" x2="45.506" y2="91.9941" gradientUnits="userSpaceOnUse">
<stop stop-color="white" stop-opacity="0.66"/>
<stop offset="1" stop-color="#969696" stop-opacity="0"/>
</linearGradient>
</defs>
</svg>
