<svg width="66" height="66" viewBox="0 0 66 66" fill="none" xmlns="http://www.w3.org/2000/svg">
<path d="M28.1663 2.37718C29.3344 2.28946 30.5026 2.20175 31.672 2.11393C31.8437 2.1363 32.0155 2.17754 32.1878 2.17593C35.2526 2.16109 38.2648 2.56948 41.1597 3.56207C51.5749 7.13262 58.31 14.2116 61.2334 24.8553C61.5314 25.9397 61.711 27.0569 61.946 28.1585L62.2093 31.6642C62.1881 31.8345 62.1467 32.005 62.1481 32.1749C62.1699 36.371 61.3861 40.4212 59.6124 44.2157C54.838 54.4278 46.8362 60.3936 35.6598 61.9278C30.3109 62.6619 25.081 61.8962 20.1713 59.6259C9.91483 54.8825 3.93986 46.8601 2.39641 35.662C1.65576 30.2922 2.45754 25.0572 4.71048 20.1161C8.71562 11.3292 15.4075 5.64186 24.7424 3.10895C25.8678 2.80411 27.0247 2.61776 28.1663 2.37718ZM32.0065 15.8581L32.009 15.8579C32.1215 17.3565 32.2479 18.8542 32.3378 20.3545C32.3609 20.728 32.4997 20.9505 32.8034 21.1556C35.9995 23.3255 39.1923 25.5019 42.3714 27.697C42.7101 27.9309 42.9695 27.9316 43.327 27.7801C46.2862 26.5267 49.2485 25.2806 52.2213 24.0577C52.6415 23.8851 52.7994 23.6403 52.8641 23.2112C53.2589 20.5715 53.6881 17.9367 54.0765 15.295C54.1133 15.0479 54.0213 14.7111 53.8633 14.519C50.6978 10.6433 46.774 7.80411 42.0972 6.01865C41.8781 5.93563 41.5543 5.94862 41.344 6.05002C38.2382 7.54735 35.146 9.07513 32.0404 10.575C31.688 10.745 31.6267 10.951 31.6571 11.3051C31.7873 12.8213 31.8926 14.3406 32.0065 15.8581ZM29.8858 16.0035C29.7702 14.4647 29.646 12.9279 29.5467 11.388C29.5263 11.0659 29.4155 10.9143 29.1022 10.817C25.7679 9.79067 22.4384 8.74509 19.1031 7.72261C18.9084 7.66294 18.6293 7.68516 18.4542 7.78393C14.0605 10.2732 10.582 13.6984 8.01898 18.0483C7.91852 18.2196 7.89932 18.5005 7.9605 18.6949C8.76696 21.3023 9.59798 23.9016 10.4119 26.5072C10.513 26.8307 10.648 27.0195 11.0136 27.1092C14.2126 27.8926 17.4028 28.7094 20.6017 29.4916C20.8159 29.5435 21.1503 29.4705 21.3093 29.3238C24.1971 26.6669 27.0699 23.9947 29.9276 21.3061C30.1052 21.1391 30.2275 20.8064 30.214 20.5593C30.1313 19.0383 30.001 17.5208 29.8869 16.0021L29.8858 16.0035ZM60.141 32.8104C60.1051 32.7514 60.0385 32.5688 59.9156 32.4408C57.8702 30.3192 55.8225 28.2016 53.7571 26.0992C53.6399 25.9808 53.3311 25.9259 53.1735 25.9906C50.1117 27.2517 47.0574 28.5299 44.0109 29.8276C43.8229 29.9072 43.6189 30.158 43.5835 30.357C42.9252 34.0993 42.2874 37.8451 41.6622 41.5925C41.6329 41.7722 41.6872 42.0263 41.803 42.1598C43.4292 44.0296 45.0682 45.887 46.7215 47.7333C46.8342 47.8584 47.1015 47.9478 47.2649 47.9104C50.2662 47.2179 53.2637 46.5081 56.2577 45.7846C56.4555 45.7371 56.6948 45.5869 56.7877 45.415C58.898 41.5259 60.007 37.3644 60.1422 32.809L60.141 32.8104ZM19.8601 50.016C19.9397 49.9358 20.094 49.8272 20.1887 49.6804C21.499 47.6455 22.8067 45.6096 24.0932 43.5602C24.2057 43.3818 24.2408 43.0769 24.1753 42.8754C23.0062 39.2791 21.8213 35.6891 20.6154 32.1056C20.5458 31.8993 20.2878 31.6669 20.0747 31.6124C16.8865 30.7879 13.6908 29.9979 10.5006 29.1811C10.2002 29.1042 10.045 29.1675 9.87433 29.4094C8.1814 31.7979 6.47394 34.1773 4.78496 36.5679C4.67682 36.7208 4.61224 36.9674 4.64465 37.1476C5.39831 41.2988 7.01094 45.0846 9.46603 48.5201C9.82757 49.0256 10.2013 49.2569 10.8335 49.2925C12.7023 49.3977 14.566 49.5851 16.4323 49.7396C17.5396 49.8315 18.6478 49.9182 19.8601 50.016ZM21.8235 51.1113C23.9812 53.99 26.1196 56.8474 28.2712 59.695C28.369 59.8237 28.589 59.9028 28.7619 59.9251C32.7535 60.4488 36.6656 60.0468 40.5012 58.8623C40.7055 58.7991 40.9167 58.5768 41.0136 58.3743C42.3864 55.529 43.7356 52.6715 45.1058 49.8251C45.2669 49.4894 45.2224 49.2825 44.9778 49.0088C43.4264 47.2795 41.8881 45.5404 40.3663 43.7849C40.0919 43.4681 39.8212 43.3675 39.4095 43.401C35.3026 43.7232 31.1945 44.0468 27.0837 44.3165C26.362 44.3643 25.9369 44.6053 25.5602 45.2216C24.3515 47.2009 23.0782 49.1411 21.8209 51.1103L21.8235 51.1113Z" fill="#F3BA2F"/>
<path d="M29.1663 3.37718C30.3344 3.28946 31.5026 3.20175 32.672 3.11393C32.8437 3.1363 33.0155 3.17754 33.1878 3.17593C36.2526 3.16109 39.2648 3.56948 42.1597 4.56207C52.5749 8.13262 59.31 15.2116 62.2334 25.8553C62.5314 26.9397 62.711 28.0569 62.946 29.1585L63.2093 32.6642C63.1881 32.8345 63.1467 33.005 63.1481 33.1749C63.1699 37.371 62.3861 41.4212 60.6124 45.2157C55.838 55.4278 47.8362 61.3936 36.6598 62.9278C31.3109 63.6619 26.081 62.8962 21.1713 60.6259C10.9148 55.8825 4.93986 47.8601 3.39641 36.662C2.65576 31.2922 3.45754 26.0572 5.71048 21.1161C9.71562 12.3292 16.4075 6.64186 25.7424 4.10895C26.8678 3.80411 28.0247 3.61776 29.1663 3.37718ZM33.0065 16.8581L33.009 16.8579C33.1215 18.3565 33.2479 19.8542 33.3378 21.3545C33.3609 21.728 33.4997 21.9505 33.8034 22.1556C36.9995 24.3255 40.1923 26.5019 43.3714 28.697C43.7101 28.9309 43.9695 28.9316 44.327 28.7801C47.2862 27.5267 50.2485 26.2806 53.2213 25.0577C53.6415 24.8851 53.7994 24.6403 53.8641 24.2112C54.2589 21.5715 54.6881 18.9367 55.0765 16.295C55.1133 16.0479 55.0213 15.7111 54.8633 15.519C51.6978 11.6433 47.774 8.80411 43.0972 7.01865C42.8781 6.93563 42.5543 6.94862 42.344 7.05002C39.2382 8.54735 36.146 10.0751 33.0404 11.575C32.688 11.745 32.6267 11.951 32.6571 12.3051C32.7873 13.8213 32.8926 15.3406 33.0065 16.8581ZM30.8858 17.0035C30.7702 15.4647 30.646 13.9279 30.5467 12.388C30.5263 12.0659 30.4155 11.9143 30.1022 11.817C26.7679 10.7907 23.4384 9.74509 20.1031 8.72261C19.9084 8.66294 19.6293 8.68516 19.4542 8.78393C15.0605 11.2732 11.582 14.6984 9.01898 19.0483C8.91852 19.2196 8.89932 19.5005 8.9605 19.6949C9.76696 22.3023 10.598 24.9016 11.4119 27.5072C11.513 27.8307 11.648 28.0195 12.0136 28.1092C15.2126 28.8926 18.4028 29.7094 21.6017 30.4916C21.8159 30.5435 22.1503 30.4705 22.3093 30.3238C25.1971 27.6669 28.0699 24.9947 30.9276 22.3061C31.1052 22.1391 31.2275 21.8064 31.214 21.5593C31.1313 20.0383 31.001 18.5208 30.8869 17.0021L30.8858 17.0035ZM61.141 33.8104C61.1051 33.7514 61.0385 33.5688 60.9156 33.4408C58.8702 31.3192 56.8225 29.2016 54.7571 27.0992C54.6399 26.9808 54.3311 26.9259 54.1735 26.9906C51.1117 28.2517 48.0574 29.5299 45.0109 30.8276C44.8229 30.9072 44.6189 31.158 44.5835 31.357C43.9252 35.0993 43.2874 38.8451 42.6622 42.5925C42.6329 42.7722 42.6872 43.0263 42.803 43.1598C44.4292 45.0296 46.0682 46.887 47.7215 48.7333C47.8342 48.8584 48.1015 48.9478 48.2649 48.9104C51.2662 48.2179 54.2637 47.5081 57.2577 46.7846C57.4555 46.7371 57.6948 46.5869 57.7877 46.415C59.898 42.5259 61.007 38.3644 61.1422 33.809L61.141 33.8104ZM20.8601 51.016C20.9397 50.9358 21.094 50.8272 21.1887 50.6804C22.499 48.6455 23.8067 46.6096 25.0932 44.5602C25.2057 44.3818 25.2408 44.0769 25.1753 43.8754C24.0062 40.2791 22.8213 36.6891 21.6154 33.1056C21.5458 32.8993 21.2878 32.6669 21.0747 32.6124C17.8865 31.7879 14.6908 30.9979 11.5006 30.1811C11.2002 30.1042 11.045 30.1675 10.8743 30.4094C9.1814 32.7979 7.47394 35.1773 5.78496 37.5679C5.67682 37.7208 5.61224 37.9674 5.64465 38.1476C6.39831 42.2988 8.01094 46.0846 10.466 49.5201C10.8276 50.0256 11.2013 50.2569 11.8335 50.2925C13.7023 50.3977 15.566 50.5851 17.4323 50.7396C18.5396 50.8315 19.6478 50.9182 20.8601 51.016ZM22.8235 52.1113C24.9812 54.99 27.1196 57.8474 29.2712 60.695C29.369 60.8237 29.589 60.9028 29.7619 60.9251C33.7535 61.4488 37.6656 61.0468 41.5012 59.8623C41.7055 59.7991 41.9167 59.5768 42.0136 59.3743C43.3864 56.529 44.7356 53.6715 46.1058 50.8251C46.2669 50.4894 46.2224 50.2825 45.9778 50.0088C44.4264 48.2795 42.8881 46.5404 41.3663 44.7849C41.0919 44.4681 40.8212 44.3675 40.4095 44.401C36.3026 44.7232 32.1945 45.0468 28.0837 45.3165C27.362 45.3643 26.9369 45.6053 26.5602 46.2216C25.3515 48.2009 24.0782 50.1411 22.8209 52.1103L22.8235 52.1113Z" fill="url(#paint0_linear_5293_3656)"/>
<defs>
<linearGradient id="paint0_linear_5293_3656" x1="30.9158" y1="3.24581" x2="35.4085" y2="63.0774" gradientUnits="userSpaceOnUse">
<stop stop-color="white" stop-opacity="0.66"/>
<stop offset="1" stop-color="#CFCFCF" stop-opacity="0"/>
</linearGradient>
</defs>
</svg>
