<svg width="93" height="91" viewBox="0 0 93 91" fill="none" xmlns="http://www.w3.org/2000/svg">
<path d="M57.7163 90.9859C57.3376 90.6743 56.8475 90.7188 56.402 90.652C47.3354 89.2942 40.2069 84.8198 34.9718 77.3626C32.0549 73.2413 30.2657 68.4301 29.7814 63.4054C29.6923 62.6041 29.4027 62.3369 28.623 62.2479C22.1851 61.5801 16.5268 58.9979 11.6928 54.7907C7.99205 51.5793 5.11916 47.5251 3.31677 42.9705C2.2689 40.3322 1.55787 37.5724 1.2005 34.7565C1.17822 34.6006 1.24504 34.4003 1 34.3113V28.1006C1.35643 27.8335 1.26732 27.4106 1.31188 27.0544C2.87124 16.6366 8.32901 8.86777 17.4847 3.77017C23.6553 0.34209 30.3606 -0.726408 37.3109 0.475647C48.0037 2.34551 55.7114 8.289 60.5454 17.95C61.9957 20.904 62.9084 24.0924 63.2409 27.3661C63.3745 28.6572 63.3745 28.6349 64.6666 28.7907C68.8755 29.3118 72.9363 30.6745 76.6068 32.7976C77.1192 33.1092 77.0969 33.3096 76.7851 33.7325C76.4732 34.1554 76.1836 35.0681 75.6935 35.2685C75.2034 35.4688 74.6465 34.7787 74.0896 34.4893C70.1563 32.4875 65.8266 31.3849 61.4142 31.2616C48.6051 30.7719 35.5956 39.676 32.6774 54.4123C30.4051 66.0099 35.9298 78.3198 46.1102 84.2856C51.6125 87.4911 57.5381 88.8489 63.8424 88.1143C72.9089 87.0459 79.9929 82.5938 84.9606 74.8695C88.1381 69.9693 89.6606 64.1805 89.3045 58.3524C88.859 50.1383 85.473 43.3267 79.2132 37.962C78.6118 37.4722 78.5004 37.1828 79.035 36.5596C80.1934 35.2017 80.1711 35.1572 81.53 36.4037C87.1883 41.5236 90.6411 47.801 91.7104 55.3695C93.5148 68.3027 87.0769 81.0801 75.6267 87.2239C72.0263 89.1612 68.0855 90.3857 64.0206 90.8301C63.8646 90.8301 63.6641 90.7411 63.575 90.9859H57.7163ZM13.8091 53.0322C18.2644 56.7274 23.2766 58.9311 28.9349 59.6435C29.5364 59.7102 29.4918 59.4431 29.5141 59.0647C29.5469 57.1477 29.7708 55.2387 30.1824 53.3661C32.8333 42.0801 39.6054 34.4003 50.4095 30.2822C52.3253 29.5476 52.3476 29.5921 51.9912 27.7445C50.2759 19.1298 43.9493 12.9859 35.3283 11.5167C24.6355 9.71366 14.1655 17.3267 12.517 28.0784C11.0022 38.0732 16.8164 47.4003 26.4399 50.4277C27.0191 50.6058 27.9102 50.5167 28.1107 50.9842C28.3111 51.4517 27.977 52.2308 27.8656 52.8541C27.8486 52.9118 27.8411 52.972 27.8433 53.0322C27.7988 53.4328 27.6206 53.4996 27.2419 53.3883C26.284 53.0989 25.3038 52.8763 24.3682 52.5202C22.2592 51.7303 20.2778 50.6353 18.4871 49.2702C18.2421 49.0921 18.0193 48.8027 17.6184 49.2034C16.3932 50.4945 15.1234 51.7188 13.8091 53.0322ZM6.70282 32.5972H4.31922C3.82914 32.575 3.74003 32.7308 3.76231 33.2205C4.29695 39.9431 6.83648 45.7827 11.3809 50.7393C11.6928 51.0732 11.871 51.2291 12.272 50.8061C13.3413 49.6709 14.4551 48.5578 15.5912 47.4893C15.9253 47.1554 15.8808 46.9551 15.5912 46.6435C12.1383 42.837 10.1334 38.4072 9.68788 33.2873C9.64333 32.7976 9.4874 32.5527 8.93049 32.5972C8.37357 32.6417 7.43795 32.5972 6.70282 32.5972ZM34.0808 2.79072C33.6798 2.65716 33.5907 2.90202 33.5907 3.3027C33.613 4.39346 33.5907 5.48421 33.613 6.57497C33.613 7.22052 33.4348 8.02188 33.7244 8.48935C34.014 8.95681 34.8827 8.66743 35.4842 8.80099H35.6624C39.807 9.41396 43.6925 11.1893 46.8676 13.9209C47.2685 14.2548 47.469 14.188 47.8032 13.8541C48.8725 12.7411 49.9417 11.6503 51.0556 10.5818C51.412 10.2479 51.4343 10.0698 51.0333 9.71366C46.177 5.55099 40.541 3.23593 34.0808 2.79072ZM30.9175 5.72907C30.9175 4.9277 30.8952 4.12634 30.9175 3.32497C30.9398 2.5236 30.8061 2.76846 30.316 2.79072C23.9672 3.23593 18.4203 5.55099 13.5863 9.66914C13.163 10.0253 13.0294 10.2256 13.4972 10.6486C14.611 11.6726 15.6803 12.7633 16.705 13.8541C17.0837 14.2325 17.3065 14.2548 17.7075 13.8986C19.0849 12.6927 20.6215 11.6816 22.2742 10.8935C24.7692 9.6914 27.3755 8.89003 30.1601 8.71195C30.7616 8.66743 30.9621 8.44483 30.9175 7.8438C30.8729 7.24277 30.9175 6.41914 30.9175 5.72907ZM6.56916 29.926H7.52705C8.19535 29.926 8.95276 30.1263 9.44285 29.837C9.93293 29.5476 9.64333 28.6794 9.77699 28.0784C9.77699 28.0339 9.79927 27.9671 9.79927 27.9003C10.418 23.7646 12.1854 19.8853 14.9006 16.7034C15.2348 16.325 15.2125 16.1246 14.8561 15.7907C13.7645 14.7222 12.6507 13.6315 11.6037 12.5185C11.2027 12.0733 11.0245 12.1846 10.6903 12.5852C6.54688 17.438 4.20784 23.0253 3.76231 29.3917C3.74003 29.837 3.82914 29.9483 4.25239 29.9483C5.03208 29.9037 5.78947 29.926 6.56916 29.926ZM55.4441 29.0133C56.9366 28.6572 58.4737 28.6126 60.0108 28.5459C60.6345 28.5459 60.7459 28.3232 60.6122 27.7667C60.4786 27.2102 60.3672 26.1195 60.189 25.3181C59.2053 20.585 57.0189 16.1847 53.8401 12.5407C53.4614 12.1178 53.3055 12.1178 52.9268 12.5185C51.8798 13.6092 50.8328 14.6777 49.719 15.7017C49.2734 16.1246 49.3403 16.3917 49.6967 16.7924C50.4237 17.6053 51.0726 18.4848 51.6348 19.4191C53.2867 22.0877 54.35 25.0778 54.7535 28.1897C54.798 28.5236 54.6198 29.2137 55.4441 29.0133Z" fill="#0F4FE3"/>
<path d="M84.9161 59.7329C84.9384 72.9555 74.0897 83.8185 60.8128 83.8853C47.536 83.9521 36.5536 72.9332 36.6204 59.7329C36.6873 46.5325 47.5137 35.625 60.7683 35.625C74.0229 35.625 84.8939 46.4658 84.9161 59.7329ZM82.2429 59.7774C82.2875 48.024 72.5972 38.3407 60.7683 38.3185C48.9394 38.2962 39.2713 48.024 39.3159 59.7774C39.3393 65.4458 41.6016 70.8757 45.6106 74.8859C49.6197 78.8962 55.0512 81.1625 60.7237 81.1918C72.4635 81.2808 82.1984 71.5753 82.2429 59.7774Z" fill="#0F4FE3"/>
<path d="M32.2762 18.4855C32.2651 18.6635 32.2651 18.8419 32.2762 19.0198C32.3876 19.6208 32.1426 19.7989 31.5411 19.8434C25.5487 20.3999 21.4052 24.5403 20.826 30.5729C20.7815 31.1294 20.6256 31.3075 20.0686 31.3075C17.9969 31.2852 17.9969 31.3075 18.2642 29.2373C19.1107 22.6482 25.0809 17.2835 31.6748 17.1277C32.1426 17.1054 32.3431 17.2167 32.2762 17.6842C32.2094 18.1516 32.2762 18.2184 32.2762 18.4855Z" fill="#0F4FE3"/>
<path d="M18.0861 35.4907C18.0861 34.1328 18.0861 34.1328 19.4895 34.1328C20.893 34.1328 20.7593 34.1328 20.7593 35.4239C20.7593 36.715 20.7593 36.9821 19.3782 36.9821C17.997 36.9821 18.0861 36.9821 18.0861 35.4907Z" fill="#0F4FE3"/>
<path d="M61.0354 58.4203C61.9042 58.4203 62.7729 58.3981 63.6194 58.4426C65.9808 58.5539 67.5624 60.0008 67.7852 62.3382C67.8742 63.4568 67.8742 64.5808 67.7852 65.6994C67.5624 68.1258 65.8471 69.595 63.3521 69.6618C62.1269 69.684 62.1269 69.684 62.1269 70.9306C62.1269 72.5556 62.1269 72.5111 60.4339 72.5779C59.6542 72.6001 59.3201 72.4221 59.4092 71.5762C59.4983 70.7303 59.6096 70.2628 59.3423 69.8399C59.075 69.4169 58.2731 69.7063 57.6939 69.6395C55.4217 69.3947 53.9291 67.881 53.7509 65.5881C53.7063 64.7645 53.7509 63.9186 53.7286 63.095C53.7063 62.7388 53.8177 62.5385 54.2187 62.583H54.3078C56.4241 62.494 56.4241 62.494 56.4241 64.5864C56.4241 66.6789 56.8028 66.9683 58.8077 66.9683H63.1739C64.5551 66.946 65.112 66.3895 65.1342 65.0316C65.1491 64.3193 65.1491 63.607 65.1342 62.8947C65.0897 61.6703 64.5551 61.1361 63.3298 61.1138C61.6591 61.0916 60.0106 61.1138 58.3399 61.1138C55.4662 61.0916 53.7732 59.3998 53.7286 56.5282C53.7063 55.8159 53.7063 55.1258 53.7286 54.4135C53.7732 51.5642 55.4217 49.9169 58.2731 49.8724C59.4314 49.8279 59.4314 49.8279 59.4314 48.6703C59.4314 46.934 59.4314 46.9786 61.1913 46.9118C61.971 46.8895 62.216 47.0899 62.1492 47.869C62.0824 48.6481 61.9487 49.2491 62.2383 49.6943C62.5279 50.1395 63.3298 49.8279 63.8868 49.8947C66.0253 50.1395 67.4733 51.4974 67.7629 53.6344C67.8185 54.04 67.8408 54.4494 67.8297 54.8587C67.8297 57.0179 67.8297 56.9957 65.6689 56.9066C65.2011 56.8844 65.112 56.7508 65.1342 56.3501C65.1565 55.9494 65.1565 54.97 65.1342 54.3022C65.0897 53.1224 64.5328 52.5881 63.3521 52.5659H58.2062C56.9587 52.5881 56.4464 53.1224 56.4241 54.369C56.4018 55.1481 56.4018 55.9049 56.4241 56.684C56.4686 57.8193 56.981 58.3313 58.1171 58.4203H61.0354Z" fill="#0F4FE3"/>
<path d="M46.5557 61.1106C45.0855 61.1106 45.0854 61.1106 45.0854 59.6192C45.0854 58.1278 45.0854 58.4171 46.3107 58.4171C47.9369 58.4171 47.9369 58.4172 47.9369 59.7973C47.9369 61.1774 47.9369 61.1106 46.5557 61.1106Z" fill="#0F4FE3"/>
<path d="M74.9807 61.1108C73.5773 61.1108 73.5773 61.1107 73.5773 59.7306V59.5525C73.4213 58.6399 73.7332 58.3505 74.6911 58.395C76.4287 58.4618 76.4064 58.4173 76.4509 60.1536C76.4732 60.8882 76.3173 61.2666 75.493 61.1108C75.3224 61.0997 75.1513 61.0997 74.9807 61.1108Z" fill="#0F4FE3"/>
<path d="M56.7163 90.9859C56.3376 90.6743 55.8475 90.7188 55.402 90.652C46.3354 89.2942 39.2069 84.8198 33.9718 77.3626C31.0549 73.2413 29.2657 68.4301 28.7814 63.4054C28.6923 62.6041 28.4027 62.3369 27.623 62.2479C21.1851 61.5801 15.5268 58.9979 10.6928 54.7907C6.99205 51.5793 4.11916 47.5251 2.31677 42.9705C1.2689 40.3322 0.55787 37.5724 0.200495 34.7565C0.178218 34.6006 0.245043 34.4003 0 34.3113V28.1006C0.356426 27.8335 0.267325 27.4106 0.311878 27.0544C1.87124 16.6366 7.32901 8.86777 16.4847 3.77017C22.6553 0.34209 29.3606 -0.726408 36.3109 0.475647C47.0037 2.34551 54.7114 8.289 59.5454 17.95C60.9957 20.904 61.9084 24.0924 62.2409 27.3661C62.3745 28.6572 62.3745 28.6349 63.6666 28.7907C67.8755 29.3118 71.9363 30.6745 75.6068 32.7976C76.1192 33.1092 76.0969 33.3096 75.7851 33.7325C75.4732 34.1554 75.1836 35.0681 74.6935 35.2685C74.2034 35.4688 73.6465 34.7787 73.0896 34.4893C69.1563 32.4875 64.8266 31.3849 60.4142 31.2616C47.6051 30.7719 34.5956 39.676 31.6774 54.4123C29.4051 66.0099 34.9298 78.3198 45.1102 84.2856C50.6125 87.4911 56.5381 88.8489 62.8424 88.1143C71.9089 87.0459 78.9929 82.5938 83.9606 74.8695C87.1381 69.9693 88.6606 64.1805 88.3045 58.3524C87.859 50.1383 84.473 43.3267 78.2132 37.962C77.6118 37.4722 77.5004 37.1828 78.035 36.5596C79.1934 35.2017 79.1711 35.1572 80.53 36.4037C86.1883 41.5236 89.6411 47.801 90.7104 55.3695C92.5148 68.3027 86.0769 81.0801 74.6267 87.2239C71.0263 89.1612 67.0855 90.3857 63.0206 90.8301C62.8646 90.8301 62.6641 90.7411 62.575 90.9859H56.7163ZM12.8091 53.0322C17.2644 56.7274 22.2766 58.9311 27.9349 59.6435C28.5364 59.7102 28.4918 59.4431 28.5141 59.0647C28.5469 57.1477 28.7708 55.2387 29.1824 53.3661C31.8333 42.0801 38.6054 34.4003 49.4095 30.2822C51.3253 29.5476 51.3476 29.5921 50.9912 27.7445C49.2759 19.1298 42.9493 12.9859 34.3283 11.5167C23.6355 9.71366 13.1655 17.3267 11.517 28.0784C10.0022 38.0732 15.8164 47.4003 25.4399 50.4277C26.0191 50.6058 26.9102 50.5167 27.1107 50.9842C27.3111 51.4517 26.977 52.2308 26.8656 52.8541C26.8486 52.9118 26.8411 52.972 26.8433 53.0322C26.7988 53.4328 26.6206 53.4996 26.2419 53.3883C25.284 53.0989 24.3038 52.8763 23.3682 52.5202C21.2592 51.7303 19.2778 50.6353 17.4871 49.2702C17.2421 49.0921 17.0193 48.8027 16.6184 49.2034C15.3932 50.4945 14.1234 51.7188 12.8091 53.0322ZM5.70282 32.5972H3.31922C2.82914 32.575 2.74003 32.7308 2.76231 33.2205C3.29695 39.9431 5.83648 45.7827 10.3809 50.7393C10.6928 51.0732 10.871 51.2291 11.272 50.8061C12.3413 49.6709 13.4551 48.5578 14.5912 47.4893C14.9253 47.1554 14.8808 46.9551 14.5912 46.6435C11.1383 42.837 9.13342 38.4072 8.68788 33.2873C8.64333 32.7976 8.4874 32.5527 7.93049 32.5972C7.37357 32.6417 6.43795 32.5972 5.70282 32.5972ZM33.0808 2.79072C32.6798 2.65716 32.5907 2.90202 32.5907 3.3027C32.613 4.39346 32.5907 5.48421 32.613 6.57497C32.613 7.22052 32.4348 8.02188 32.7244 8.48935C33.014 8.95681 33.8827 8.66743 34.4842 8.80099H34.6624C38.807 9.41396 42.6925 11.1893 45.8676 13.9209C46.2685 14.2548 46.469 14.188 46.8032 13.8541C47.8725 12.7411 48.9417 11.6503 50.0556 10.5818C50.412 10.2479 50.4343 10.0698 50.0333 9.71366C45.177 5.55099 39.541 3.23593 33.0808 2.79072ZM29.9175 5.72907C29.9175 4.9277 29.8952 4.12634 29.9175 3.32497C29.9398 2.5236 29.8061 2.76846 29.316 2.79072C22.9672 3.23593 17.4203 5.55099 12.5863 9.66914C12.163 10.0253 12.0294 10.2256 12.4972 10.6486C13.611 11.6726 14.6803 12.7633 15.705 13.8541C16.0837 14.2325 16.3065 14.2548 16.7075 13.8986C18.0849 12.6927 19.6215 11.6816 21.2742 10.8935C23.7692 9.6914 26.3755 8.89003 29.1601 8.71195C29.7616 8.66743 29.9621 8.44483 29.9175 7.8438C29.8729 7.24277 29.9175 6.41914 29.9175 5.72907ZM5.56916 29.926H6.52705C7.19535 29.926 7.95276 30.1263 8.44285 29.837C8.93293 29.5476 8.64333 28.6794 8.77699 28.0784C8.77699 28.0339 8.79927 27.9671 8.79927 27.9003C9.41796 23.7646 11.1854 19.8853 13.9006 16.7034C14.2348 16.325 14.2125 16.1246 13.8561 15.7907C12.7645 14.7222 11.6507 13.6315 10.6037 12.5185C10.2027 12.0733 10.0245 12.1846 9.69033 12.5852C5.54688 17.438 3.20784 23.0253 2.76231 29.3917C2.74003 29.837 2.82914 29.9483 3.25239 29.9483C4.03208 29.9037 4.78947 29.926 5.56916 29.926ZM54.4441 29.0133C55.9366 28.6572 57.4737 28.6126 59.0108 28.5459C59.6345 28.5459 59.7459 28.3232 59.6122 27.7667C59.4786 27.2102 59.3672 26.1195 59.189 25.3181C58.2053 20.585 56.0189 16.1847 52.8401 12.5407C52.4614 12.1178 52.3055 12.1178 51.9268 12.5185C50.8798 13.6092 49.8328 14.6777 48.719 15.7017C48.2734 16.1246 48.3403 16.3917 48.6967 16.7924C49.4237 17.6053 50.0726 18.4848 50.6348 19.4191C52.2867 22.0877 53.35 25.0778 53.7535 28.1897C53.798 28.5236 53.6198 29.2137 54.4441 29.0133Z" fill="url(#paint0_linear_4308_2709)"/>
<path d="M83.9161 59.7329C83.9384 72.9555 73.0897 83.8185 59.8128 83.8853C46.536 83.9521 35.5536 72.9332 35.6204 59.7329C35.6873 46.5325 46.5137 35.625 59.7683 35.625C73.0229 35.625 83.8939 46.4658 83.9161 59.7329ZM81.2429 59.7774C81.2875 48.024 71.5972 38.3407 59.7683 38.3185C47.9394 38.2962 38.2713 48.024 38.3159 59.7774C38.3393 65.4458 40.6016 70.8757 44.6106 74.8859C48.6197 78.8962 54.0512 81.1625 59.7237 81.1918C71.4635 81.2808 81.1984 71.5753 81.2429 59.7774Z" fill="url(#paint1_linear_4308_2709)"/>
<path d="M31.2762 18.4855C31.2651 18.6635 31.2651 18.8419 31.2762 19.0198C31.3876 19.6208 31.1426 19.7989 30.5411 19.8434C24.5487 20.3999 20.4052 24.5403 19.826 30.5729C19.7815 31.1294 19.6256 31.3075 19.0686 31.3075C16.9969 31.2852 16.9969 31.3075 17.2642 29.2373C18.1107 22.6482 24.0809 17.2835 30.6748 17.1277C31.1426 17.1054 31.3431 17.2167 31.2762 17.6842C31.2094 18.1516 31.2762 18.2184 31.2762 18.4855Z" fill="url(#paint2_linear_4308_2709)"/>
<path d="M17.0861 35.4907C17.0861 34.1328 17.0861 34.1328 18.4895 34.1328C19.893 34.1328 19.7593 34.1328 19.7593 35.4239C19.7593 36.715 19.7593 36.9821 18.3782 36.9821C16.997 36.9821 17.0861 36.9821 17.0861 35.4907Z" fill="url(#paint3_linear_4308_2709)"/>
<path d="M60.0354 58.4203C60.9042 58.4203 61.7729 58.3981 62.6194 58.4426C64.9808 58.5539 66.5624 60.0008 66.7852 62.3382C66.8742 63.4568 66.8742 64.5808 66.7852 65.6994C66.5624 68.1258 64.8471 69.595 62.3521 69.6618C61.1269 69.684 61.1269 69.684 61.1269 70.9306C61.1269 72.5556 61.1269 72.5111 59.4339 72.5779C58.6542 72.6001 58.3201 72.4221 58.4092 71.5762C58.4983 70.7303 58.6096 70.2628 58.3423 69.8399C58.075 69.4169 57.2731 69.7063 56.6939 69.6395C54.4217 69.3947 52.9291 67.881 52.7509 65.5881C52.7063 64.7645 52.7509 63.9186 52.7286 63.095C52.7063 62.7388 52.8177 62.5385 53.2187 62.583H53.3078C55.4241 62.494 55.4241 62.494 55.4241 64.5864C55.4241 66.6789 55.8028 66.9683 57.8077 66.9683H62.1739C63.5551 66.946 64.112 66.3895 64.1342 65.0316C64.1491 64.3193 64.1491 63.607 64.1342 62.8947C64.0897 61.6703 63.5551 61.1361 62.3298 61.1138C60.6591 61.0916 59.0106 61.1138 57.3399 61.1138C54.4662 61.0916 52.7732 59.3998 52.7286 56.5282C52.7063 55.8159 52.7063 55.1258 52.7286 54.4135C52.7732 51.5642 54.4217 49.9169 57.2731 49.8724C58.4314 49.8279 58.4314 49.8279 58.4314 48.6703C58.4314 46.934 58.4314 46.9786 60.1913 46.9118C60.971 46.8895 61.216 47.0899 61.1492 47.869C61.0824 48.6481 60.9487 49.2491 61.2383 49.6943C61.5279 50.1395 62.3298 49.8279 62.8868 49.8947C65.0253 50.1395 66.4733 51.4974 66.7629 53.6344C66.8185 54.04 66.8408 54.4494 66.8297 54.8587C66.8297 57.0179 66.8297 56.9957 64.6689 56.9066C64.2011 56.8844 64.112 56.7508 64.1342 56.3501C64.1565 55.9494 64.1565 54.97 64.1342 54.3022C64.0897 53.1224 63.5328 52.5881 62.3521 52.5659H57.2062C55.9587 52.5881 55.4464 53.1224 55.4241 54.369C55.4018 55.1481 55.4018 55.9049 55.4241 56.684C55.4686 57.8193 55.981 58.3313 57.1171 58.4203H60.0354Z" fill="url(#paint4_linear_4308_2709)"/>
<path d="M45.5557 61.1106C44.0855 61.1106 44.0854 61.1106 44.0854 59.6192C44.0854 58.1278 44.0854 58.4171 45.3107 58.4171C46.9369 58.4171 46.9369 58.4172 46.9369 59.7973C46.9369 61.1774 46.9369 61.1106 45.5557 61.1106Z" fill="url(#paint5_linear_4308_2709)"/>
<path d="M73.9807 61.1108C72.5773 61.1108 72.5773 61.1107 72.5773 59.7306V59.5525C72.4213 58.6399 72.7332 58.3505 73.6911 58.395C75.4287 58.4618 75.4064 58.4173 75.4509 60.1536C75.4732 60.8882 75.3173 61.2666 74.493 61.1108C74.3224 61.0997 74.1513 61.0997 73.9807 61.1108Z" fill="url(#paint6_linear_4308_2709)"/>
<defs>
<linearGradient id="paint0_linear_4308_2709" x1="45.5055" y1="0" x2="45.5055" y2="90.9859" gradientUnits="userSpaceOnUse">
<stop stop-color="white" stop-opacity="0.66"/>
<stop offset="1" stop-color="#969696" stop-opacity="0"/>
</linearGradient>
<linearGradient id="paint1_linear_4308_2709" x1="59.7681" y1="35.625" x2="59.7681" y2="83.8856" gradientUnits="userSpaceOnUse">
<stop stop-color="white" stop-opacity="0.66"/>
<stop offset="1" stop-color="#969696" stop-opacity="0"/>
</linearGradient>
<linearGradient id="paint2_linear_4308_2709" x1="24.222" y1="17.125" x2="24.222" y2="31.3075" gradientUnits="userSpaceOnUse">
<stop stop-color="white" stop-opacity="0.66"/>
<stop offset="1" stop-color="#969696" stop-opacity="0"/>
</linearGradient>
<linearGradient id="paint3_linear_4308_2709" x1="18.4239" y1="34.1328" x2="18.4239" y2="36.9821" gradientUnits="userSpaceOnUse">
<stop stop-color="white" stop-opacity="0.66"/>
<stop offset="1" stop-color="#969696" stop-opacity="0"/>
</linearGradient>
<linearGradient id="paint4_linear_4308_2709" x1="59.7819" y1="46.9102" x2="59.7819" y2="72.5797" gradientUnits="userSpaceOnUse">
<stop stop-color="white" stop-opacity="0.66"/>
<stop offset="1" stop-color="#969696" stop-opacity="0"/>
</linearGradient>
<linearGradient id="paint5_linear_4308_2709" x1="45.5112" y1="58.3945" x2="45.5112" y2="61.1112" gradientUnits="userSpaceOnUse">
<stop stop-color="white" stop-opacity="0.66"/>
<stop offset="1" stop-color="#969696" stop-opacity="0"/>
</linearGradient>
<linearGradient id="paint6_linear_4308_2709" x1="73.996" y1="58.3906" x2="73.996" y2="61.1454" gradientUnits="userSpaceOnUse">
<stop stop-color="white" stop-opacity="0.66"/>
<stop offset="1" stop-color="#969696" stop-opacity="0"/>
</linearGradient>
</defs>
</svg>
