<svg width="92" height="91" viewBox="0 0 92 91" fill="none" xmlns="http://www.w3.org/2000/svg">
<path d="M82.5734 91C81.6965 90.449 81.4334 89.7269 81.4773 88.7959C81.543 87.2377 81.4773 85.6606 81.5211 84.1025C81.5211 83.5514 81.3676 83.3614 80.71 83.3804C79.285 83.4184 77.8381 83.4184 76.4132 83.3994C74.9882 83.3804 74.5498 82.8483 74.5059 81.7463C74.4621 80.9862 74.484 80.2071 74.484 79.4471V43.382C74.484 41.2728 74.8786 40.9308 77.2681 40.9308C78.3423 40.9308 79.4385 40.8928 80.5346 40.9498C81.28 40.9878 81.543 40.8168 81.5211 40.1327C81.4553 38.0046 81.4992 35.8764 81.4992 33.7292C81.4992 32.5321 82.1568 31.829 83.253 31.848C84.3491 31.867 84.9848 32.5701 85.0068 33.7482C85.0068 35.8384 85.0506 37.9095 84.9629 39.9807C84.941 40.8358 85.2698 41.0068 86.1687 40.9498C87.3963 40.8928 88.624 40.9308 89.8516 40.9498C91.0793 40.9688 91.9781 41.5199 91.9781 42.774C92.0073 55.7204 92.0073 68.6605 91.9781 81.5942C91.9781 82.8293 91.3643 83.3804 89.9393 83.3994C88.5144 83.4184 87.1332 83.4184 85.7302 83.3804C85.1383 83.3804 84.9848 83.5514 84.9848 84.0455C85.0287 85.6416 84.9629 87.2377 85.0068 88.8339C85.0506 89.7839 84.7437 90.506 83.801 91H82.5734ZM77.9916 62.2126C77.9916 68.0081 78.0135 73.8226 77.9916 79.6181C77.9916 80.1501 78.0793 80.3971 78.8027 80.3781C81.7622 80.3401 84.7437 80.3401 87.7032 80.3781C88.339 80.3781 88.5144 80.2451 88.5144 79.6941C88.4851 68.0271 88.4851 56.3601 88.5144 44.6931C88.5144 44.0851 88.2732 43.9711 87.6375 43.9711C84.7437 43.9901 81.828 44.0091 78.9342 43.9711C78.145 43.9521 77.9697 44.1611 77.9916 44.8071C78.0135 50.6026 77.9916 56.4171 77.9916 62.2126Z" fill="#3C3C3D"/>
<path d="M1 30.4048V11.2322C1 9.57908 1.54806 9.10404 3.43339 9.08504C4.68297 9.08504 5.95447 9.06603 7.20405 9.10404C7.8398 9.12304 8.01518 8.97103 8.01518 8.41998C7.97133 6.1968 7.99325 3.99261 7.99325 1.76942C7.99325 1.10436 8.2344 0.534313 8.93592 0.192284C9.20462 0.0572331 9.51194 -0.00908733 9.82233 0.00100125C10.1327 0.0110898 10.4334 0.0971753 10.6897 0.24929C11.3255 0.591319 11.5008 1.14237 11.5008 1.76942C11.4789 3.84059 11.5666 5.93077 11.457 7.98294C11.4132 8.97103 11.8078 9.18004 12.8162 9.10404C13.8246 9.02803 15.2057 9.08504 16.3895 9.10404C17.5734 9.12304 18.4722 9.63609 18.4941 10.8712C18.516 12.1063 18.4941 13.6644 18.4941 15.0515V49.3304C18.4941 51.1736 18.0557 51.5536 15.9292 51.5536C14.7234 51.5536 13.5396 51.5916 12.3339 51.5536C11.6762 51.5156 11.457 51.6866 11.4789 52.2757C11.5228 53.9668 11.5008 55.658 11.4789 57.3491C11.4789 58.4702 10.7993 59.1543 9.76897 59.1543C8.73862 59.1543 8.01518 58.4512 7.99325 57.3491C7.97133 55.639 7.97133 53.9098 7.99325 52.1997C8.01518 51.7056 7.86172 51.5346 7.26982 51.5536C5.91063 51.5916 4.52951 51.5726 3.17032 51.5536C1.81113 51.5346 1 51.0216 1 49.6725V30.4048ZM4.48567 30.3098C4.48567 36.1243 4.50759 41.9578 4.48567 47.7913C4.48567 48.2284 4.44182 48.5514 5.20911 48.5514C8.2344 48.5134 11.2816 48.5134 14.3069 48.5324C14.8331 48.5514 15.0084 48.4184 15.0084 47.9433C14.9938 36.2383 14.9938 24.5207 15.0084 12.7904C15.0084 12.2393 14.7892 12.1063 14.1973 12.1253C11.2816 12.1443 8.38786 12.1633 5.47217 12.1063C4.66104 12.0873 4.46374 12.2963 4.48567 12.9994C4.50759 18.7569 4.48567 24.5333 4.48567 30.3098Z" fill="#3C3C3D"/>
<path d="M25.5093 50.0126V30.916C25.5093 29.2629 26.0354 28.8069 27.9427 28.8069C29.1703 28.8069 30.398 28.7689 31.6256 28.8259C32.3272 28.8449 32.5464 28.6928 32.5245 28.0468C32.4806 25.8996 32.5025 23.7334 32.5245 21.5672C32.5245 20.4081 33.1383 19.7621 34.2125 19.7241C35.2867 19.6861 36.0101 20.4081 36.0101 21.5672C36.032 23.7714 36.032 25.9566 35.9882 28.1418C35.9882 28.7118 36.1855 28.8449 36.7993 28.8259C38.1585 28.7879 39.5396 28.8069 40.8988 28.8069C42.258 28.8069 43.0034 29.3769 43.0034 30.593V69.4893C43.0034 70.7054 42.3457 71.2564 40.9207 71.2754C39.4958 71.2944 38.1804 71.3135 36.8213 71.2565C36.1197 71.2374 35.9882 71.4465 36.0101 71.9975C36.0394 73.7457 36.0394 75.4938 36.0101 77.242C35.9882 78.04 35.5717 78.6101 34.629 78.8001C33.6863 78.9901 33.1821 78.6861 32.7218 78.078C32.4806 77.755 32.5245 77.394 32.5245 77.0329C32.5245 75.4178 32.4587 73.7837 32.5464 72.1495C32.5683 71.3705 32.2833 71.2184 31.4503 71.2565C30.2226 71.3135 28.9949 71.2754 27.7673 71.2754C26.0793 71.2754 25.5093 70.7814 25.5093 69.2993V50.0126ZM29.0169 50.1267C29.0169 55.9221 29.0388 61.7176 28.9949 67.5321C28.9949 68.1022 29.1484 68.2732 29.828 68.2542C32.8094 68.2352 35.769 68.2352 38.7504 68.2542C39.4081 68.2732 39.5177 68.0832 39.5177 67.5701C39.5031 55.9031 39.5031 44.2362 39.5177 32.5692C39.5177 31.9041 39.2546 31.8281 38.597 31.8281C35.7471 31.8661 32.9191 31.8851 30.0911 31.8091C29.1265 31.7901 28.9949 32.0751 28.9949 32.8162C29.0388 38.5737 29.0169 44.3502 29.0169 50.1267Z" fill="#3C3C3D"/>
<path d="M49.9966 43.9737V24.8011C49.9966 23.262 50.5446 22.7679 52.2984 22.7489C53.548 22.7489 54.8195 22.7299 56.091 22.7679C56.7706 22.8059 57.0117 22.6729 56.9898 22.0079C56.946 19.8227 56.9679 17.6375 56.9898 15.4333C56.9898 14.4452 57.5379 13.7992 58.4586 13.6851C59.3794 13.5711 60.4536 14.1982 60.4755 15.3193C60.4974 17.5425 60.4974 19.7467 60.4536 21.9698C60.4536 22.5779 60.5851 22.8059 61.3305 22.7679C62.6896 22.7109 64.0708 22.7489 65.4299 22.7679C66.7891 22.7869 67.4468 23.3 67.4687 24.4781C67.4907 25.6562 67.4687 27.3853 67.4687 28.8294V63.0323C67.4687 64.7995 66.9864 65.2175 64.9477 65.2175C63.72 65.2175 62.4923 65.2555 61.2647 65.2175C60.6289 65.1985 60.4536 65.3505 60.4536 65.9016C60.4974 67.5927 60.4755 69.2648 60.4755 70.956C60.4755 72.0961 59.8178 72.7801 58.7655 72.7991C57.7133 72.8181 56.9898 72.0961 56.9679 70.937C56.9679 69.3029 56.946 67.6687 56.9898 66.0536C57.0117 65.4265 56.8802 65.1605 56.0691 65.1985C54.8195 65.2745 53.548 65.2175 52.2765 65.2175C50.5885 65.2175 49.9966 64.7045 49.9966 63.2603C49.9746 56.8378 49.9966 50.4153 49.9966 43.9737ZM53.4822 43.9927C53.4822 49.8072 53.4749 55.609 53.4603 61.3982C53.4603 61.9872 53.5699 62.2153 54.3372 62.2153C57.2748 62.1772 60.2124 62.1772 63.15 62.2153C63.8296 62.2153 63.9831 62.0442 63.9831 61.4742C63.9538 49.8072 63.9538 38.1465 63.9831 26.4922C63.9831 25.8652 63.7419 25.7702 63.1281 25.7702C60.2124 25.8082 57.3187 25.8082 54.403 25.7702C53.6357 25.7512 53.4603 25.9222 53.4603 26.5872C53.5041 32.4017 53.4822 38.1972 53.4822 43.9927Z" fill="#3C3C3D"/>
<path d="M81.5734 91C80.6965 90.449 80.4334 89.7269 80.4773 88.7959C80.543 87.2377 80.4773 85.6606 80.5211 84.1025C80.5211 83.5514 80.3676 83.3614 79.71 83.3804C78.285 83.4184 76.8381 83.4184 75.4132 83.3994C73.9882 83.3804 73.5498 82.8483 73.5059 81.7463C73.4621 80.9862 73.484 80.2071 73.484 79.4471V43.382C73.484 41.2728 73.8786 40.9308 76.2681 40.9308C77.3423 40.9308 78.4385 40.8928 79.5346 40.9498C80.28 40.9878 80.543 40.8168 80.5211 40.1327C80.4553 38.0046 80.4992 35.8764 80.4992 33.7292C80.4992 32.5321 81.1568 31.829 82.253 31.848C83.3491 31.867 83.9848 32.5701 84.0068 33.7482C84.0068 35.8384 84.0506 37.9095 83.9629 39.9807C83.941 40.8358 84.2698 41.0068 85.1687 40.9498C86.3963 40.8928 87.624 40.9308 88.8516 40.9498C90.0793 40.9688 90.9781 41.5199 90.9781 42.774C91.0073 55.7204 91.0073 68.6605 90.9781 81.5942C90.9781 82.8293 90.3643 83.3804 88.9393 83.3994C87.5144 83.4184 86.1332 83.4184 84.7302 83.3804C84.1383 83.3804 83.9848 83.5514 83.9848 84.0455C84.0287 85.6416 83.9629 87.2377 84.0068 88.8339C84.0506 89.7839 83.7437 90.506 82.801 91H81.5734ZM76.9916 62.2126C76.9916 68.0081 77.0135 73.8226 76.9916 79.6181C76.9916 80.1501 77.0793 80.3971 77.8027 80.3781C80.7622 80.3401 83.7437 80.3401 86.7032 80.3781C87.339 80.3781 87.5144 80.2451 87.5144 79.6941C87.4851 68.0271 87.4851 56.3601 87.5144 44.6931C87.5144 44.0851 87.2732 43.9711 86.6375 43.9711C83.7437 43.9901 80.828 44.0091 77.9343 43.9711C77.145 43.9521 76.9697 44.1611 76.9916 44.8071C77.0135 50.6026 76.9916 56.4171 76.9916 62.2126Z" fill="url(#paint0_linear_4300_2495)"/>
<path d="M0 30.4048V11.2322C0 9.57908 0.548062 9.10404 2.43339 9.08504C3.68297 9.08504 4.95447 9.06603 6.20405 9.10404C6.8398 9.12304 7.01518 8.97103 7.01518 8.41998C6.97133 6.1968 6.99326 3.99261 6.99326 1.76942C6.99326 1.10436 7.23441 0.534313 7.93592 0.192284C8.20462 0.0572331 8.51194 -0.00908733 8.82233 0.00100125C9.13271 0.0110898 9.43345 0.0971753 9.68972 0.24929C10.3255 0.591319 10.5008 1.14237 10.5008 1.76942C10.4789 3.84059 10.5666 5.93077 10.457 7.98294C10.4132 8.97103 10.8078 9.18004 11.8162 9.10404C12.8246 9.02803 14.2057 9.08504 15.3896 9.10404C16.5734 9.12304 17.4722 9.63609 17.4941 10.8712C17.516 12.1063 17.4941 13.6644 17.4941 15.0515V49.3304C17.4941 51.1736 17.0557 51.5536 14.9292 51.5536C13.7234 51.5536 12.5396 51.5916 11.3339 51.5536C10.6762 51.5156 10.457 51.6866 10.4789 52.2757C10.5228 53.9668 10.5008 55.658 10.4789 57.3491C10.4789 58.4702 9.79933 59.1543 8.76897 59.1543C7.73862 59.1543 7.01518 58.4512 6.99326 57.3491C6.97133 55.639 6.97133 53.9098 6.99326 52.1997C7.01518 51.7056 6.86172 51.5346 6.26982 51.5536C4.91063 51.5916 3.52951 51.5726 2.17032 51.5536C0.811129 51.5346 0 51.0216 0 49.6725V30.4048ZM3.48567 30.3098C3.48567 36.1243 3.50759 41.9578 3.48567 47.7913C3.48567 48.2284 3.44182 48.5514 4.20911 48.5514C7.23441 48.5134 10.2816 48.5134 13.3069 48.5324C13.8331 48.5514 14.0084 48.4184 14.0084 47.9433C13.9938 36.2383 13.9938 24.5207 14.0084 12.7904C14.0084 12.2393 13.7892 12.1063 13.1973 12.1253C10.2816 12.1443 7.38786 12.1633 4.47218 12.1063C3.66105 12.0873 3.46374 12.2963 3.48567 12.9994C3.50759 18.7569 3.48567 24.5333 3.48567 30.3098Z" fill="url(#paint1_linear_4300_2495)"/>
<path d="M24.5093 50.0126V30.916C24.5093 29.2629 25.0354 28.8069 26.9427 28.8069C28.1703 28.8069 29.398 28.7689 30.6256 28.8259C31.3272 28.8449 31.5464 28.6928 31.5245 28.0468C31.4806 25.8996 31.5025 23.7334 31.5245 21.5672C31.5245 20.4081 32.1383 19.7621 33.2125 19.7241C34.2867 19.6861 35.0101 20.4081 35.0101 21.5672C35.0321 23.7714 35.032 25.9566 34.9882 28.1418C34.9882 28.7118 35.1855 28.8449 35.7993 28.8259C37.1585 28.7879 38.5396 28.8069 39.8988 28.8069C41.258 28.8069 42.0034 29.3769 42.0034 30.593V69.4893C42.0034 70.7054 41.3457 71.2564 39.9208 71.2754C38.4958 71.2944 37.1804 71.3135 35.8213 71.2565C35.1197 71.2374 34.9882 71.4465 35.0101 71.9975C35.0394 73.7457 35.0394 75.4938 35.0101 77.242C34.9882 78.04 34.5717 78.6101 33.629 78.8001C32.6863 78.9901 32.1821 78.6861 31.7218 78.078C31.4806 77.755 31.5245 77.394 31.5245 77.0329C31.5245 75.4178 31.4587 73.7837 31.5464 72.1495C31.5683 71.3705 31.2833 71.2184 30.4503 71.2565C29.2226 71.3135 27.9949 71.2754 26.7673 71.2754C25.0793 71.2754 24.5093 70.7814 24.5093 69.2993V50.0126ZM28.0169 50.1267C28.0169 55.9221 28.0388 61.7176 27.9949 67.5321C27.9949 68.1022 28.1484 68.2732 28.828 68.2542C31.8095 68.2352 34.769 68.2352 37.7504 68.2542C38.4081 68.2732 38.5177 68.0832 38.5177 67.5701C38.5031 55.9031 38.5031 44.2362 38.5177 32.5692C38.5177 31.9041 38.2546 31.8281 37.597 31.8281C34.7471 31.8661 31.9191 31.8851 29.0911 31.8091C28.1265 31.7901 27.9949 32.0751 27.9949 32.8162C28.0388 38.5737 28.0169 44.3502 28.0169 50.1267Z" fill="url(#paint2_linear_4300_2495)"/>
<path d="M48.9966 43.9737V24.8011C48.9966 23.262 49.5446 22.7679 51.2984 22.7489C52.548 22.7489 53.8195 22.7299 55.091 22.7679C55.7706 22.8059 56.0117 22.6729 55.9898 22.0079C55.946 19.8227 55.9679 17.6375 55.9898 15.4333C55.9898 14.4452 56.5379 13.7992 57.4586 13.6851C58.3794 13.5711 59.4536 14.1982 59.4755 15.3193C59.4974 17.5425 59.4974 19.7467 59.4536 21.9698C59.4536 22.5779 59.5851 22.8059 60.3305 22.7679C61.6896 22.7109 63.0708 22.7489 64.4299 22.7679C65.7891 22.7869 66.4468 23.3 66.4687 24.4781C66.4907 25.6562 66.4687 27.3853 66.4687 28.8294V63.0323C66.4687 64.7995 65.9864 65.2175 63.9477 65.2175C62.72 65.2175 61.4923 65.2555 60.2647 65.2175C59.6289 65.1985 59.4536 65.3505 59.4536 65.9016C59.4974 67.5927 59.4755 69.2648 59.4755 70.956C59.4755 72.0961 58.8178 72.7801 57.7655 72.7991C56.7133 72.8181 55.9898 72.0961 55.9679 70.937C55.9679 69.3029 55.946 67.6687 55.9898 66.0536C56.0117 65.4265 55.8802 65.1605 55.0691 65.1985C53.8195 65.2745 52.548 65.2175 51.2765 65.2175C49.5885 65.2175 48.9966 64.7045 48.9966 63.2603C48.9746 56.8378 48.9966 50.4153 48.9966 43.9737ZM52.4822 43.9927C52.4822 49.8072 52.4749 55.609 52.4603 61.3982C52.4603 61.9872 52.5699 62.2153 53.3372 62.2153C56.2748 62.1772 59.2124 62.1772 62.15 62.2153C62.8296 62.2153 62.9831 62.0442 62.9831 61.4742C62.9538 49.8072 62.9538 38.1465 62.9831 26.4922C62.9831 25.8652 62.7419 25.7702 62.1281 25.7702C59.2124 25.8082 56.3187 25.8082 53.403 25.7702C52.6357 25.7512 52.4603 25.9222 52.4603 26.5872C52.5041 32.4017 52.4822 38.1972 52.4822 43.9927Z" fill="url(#paint3_linear_4300_2495)"/>
<defs>
<linearGradient id="paint0_linear_4300_2495" x1="82.2393" y1="31.8477" x2="82.2393" y2="91" gradientUnits="userSpaceOnUse">
<stop stop-color="white" stop-opacity="0.66"/>
<stop offset="1" stop-color="#969696" stop-opacity="0"/>
</linearGradient>
<linearGradient id="paint1_linear_4300_2495" x1="8.75192" y1="0" x2="8.75192" y2="59.1543" gradientUnits="userSpaceOnUse">
<stop stop-color="white" stop-opacity="0.66"/>
<stop offset="1" stop-color="#969696" stop-opacity="0"/>
</linearGradient>
<linearGradient id="paint2_linear_4300_2495" x1="33.2563" y1="19.7227" x2="33.2563" y2="78.8563" gradientUnits="userSpaceOnUse">
<stop stop-color="white" stop-opacity="0.66"/>
<stop offset="1" stop-color="#969696" stop-opacity="0"/>
</linearGradient>
<linearGradient id="paint3_linear_4300_2495" x1="57.7326" y1="13.6719" x2="57.7326" y2="72.7995" gradientUnits="userSpaceOnUse">
<stop stop-color="white" stop-opacity="0.66"/>
<stop offset="1" stop-color="#969696" stop-opacity="0"/>
</linearGradient>
</defs>
</svg>
