<svg width="78" height="78" viewBox="0 0 78 78" fill="none" xmlns="http://www.w3.org/2000/svg">
<path d="M19.5 61.75H22.75V71.5H29.25V61.75H32.5C33.362 61.75 34.1886 61.4076 34.7981 60.7981C35.4076 60.1886 35.75 59.362 35.75 58.5V19.5C35.75 18.638 35.4076 17.8114 34.7981 17.2019C34.1886 16.5924 33.362 16.25 32.5 16.25H29.25V6.5H22.75V16.25H19.5C18.638 16.25 17.8114 16.5924 17.2019 17.2019C16.5924 17.8114 16.25 18.638 16.25 19.5V58.5C16.25 59.362 16.5924 60.1886 17.2019 60.7981C17.8114 61.4076 18.638 61.75 19.5 61.75ZM22.75 22.75H29.25V55.25H22.75V22.75ZM45.5 55.25H48.75V65H55.25V55.25H58.5C59.362 55.25 60.1886 54.9076 60.7981 54.2981C61.4076 53.6886 61.75 52.862 61.75 52V26C61.75 25.138 61.4076 24.3114 60.7981 23.7019C60.1886 23.0924 59.362 22.75 58.5 22.75H55.25V13H48.75V22.75H45.5C44.638 22.75 43.8114 23.0924 43.2019 23.7019C42.5924 24.3114 42.25 25.138 42.25 26V52C42.25 52.862 42.5924 53.6886 43.2019 54.2981C43.8114 54.9076 44.638 55.25 45.5 55.25ZM48.75 29.25H55.25V48.75H48.75V29.25Z" fill="#F3BA2F"/>
<path d="M20.5 62.75H23.75V72.5H30.25V62.75H33.5C34.362 62.75 35.1886 62.4076 35.7981 61.7981C36.4076 61.1886 36.75 60.362 36.75 59.5V20.5C36.75 19.638 36.4076 18.8114 35.7981 18.2019C35.1886 17.5924 34.362 17.25 33.5 17.25H30.25V7.5H23.75V17.25H20.5C19.638 17.25 18.8114 17.5924 18.2019 18.2019C17.5924 18.8114 17.25 19.638 17.25 20.5V59.5C17.25 60.362 17.5924 61.1886 18.2019 61.7981C18.8114 62.4076 19.638 62.75 20.5 62.75ZM23.75 23.75H30.25V56.25H23.75V23.75ZM46.5 56.25H49.75V66H56.25V56.25H59.5C60.362 56.25 61.1886 55.9076 61.7981 55.2981C62.4076 54.6886 62.75 53.862 62.75 53V27C62.75 26.138 62.4076 25.3114 61.7981 24.7019C61.1886 24.0924 60.362 23.75 59.5 23.75H56.25V14H49.75V23.75H46.5C45.638 23.75 44.8114 24.0924 44.2019 24.7019C43.5924 25.3114 43.25 26.138 43.25 27V53C43.25 53.862 43.5924 54.6886 44.2019 55.2981C44.8114 55.9076 45.638 56.25 46.5 56.25ZM49.75 30.25H56.25V49.75H49.75V30.25Z" fill="url(#paint0_linear_4911_65)"/>
<defs>
<linearGradient id="paint0_linear_4911_65" x1="40" y1="7.5" x2="40" y2="72.5" gradientUnits="userSpaceOnUse">
<stop stop-color="white" stop-opacity="0.66"/>
<stop offset="1" stop-color="#969696" stop-opacity="0"/>
</linearGradient>
</defs>
</svg>
