<svg width="94" height="95" viewBox="0 0 94 95" fill="none" xmlns="http://www.w3.org/2000/svg">
<path d="M81.8124 13.201C81.7503 15.4961 80.7564 18.2565 79.1413 20.7997C78.6754 21.5441 78.6754 21.7922 79.4829 22.2264L91.379 28.7086C92.5282 29.3289 93.0562 30.1043 92.9941 31.469C92.9009 33.64 92.963 35.8111 92.9941 37.9822C93.0262 38.4062 92.9272 38.8297 92.7106 39.1958C92.494 39.5618 92.1701 39.8527 91.7827 40.0292L71.9042 50.9156C71.5332 51.1232 71.114 51.2296 70.6888 51.2242C70.2635 51.2188 69.8471 51.1016 69.4816 50.8846L49.572 40.0292C49.1842 39.8505 48.8588 39.5601 48.6374 39.1954C48.416 38.8306 48.3088 38.4082 48.3296 37.9822C48.3917 35.7181 48.3917 33.485 48.3296 31.2209C48.2985 30.1043 48.7644 29.422 49.7273 28.9257C53.7962 26.6926 57.834 24.4285 61.9029 22.2574C62.7104 21.8232 62.7104 21.5751 62.2445 20.8307C60.5052 18.1014 59.418 15.1239 59.5112 11.8053C59.7287 5.88138 65.3816 0.670793 71.283 1.01196C77.1845 1.35313 81.8124 6.59473 81.8124 13.201ZM52.0879 33.9192C52.0879 34.8497 52.1189 35.625 52.0568 36.3694C51.9947 37.1138 52.2742 37.2068 52.7401 37.4549C58.4966 40.5564 64.2427 43.689 69.9785 46.8526C70.1799 46.9899 70.418 47.0634 70.6618 47.0634C70.9057 47.0634 71.1439 46.9899 71.3452 46.8526L88.6146 37.4239C88.9563 37.2378 89.2979 37.1138 89.2669 36.5865C89.2358 36.0592 89.2669 34.9117 89.2669 33.9502L88.0245 34.6015L72.2459 43.2858C71.1898 43.8751 70.2581 43.9061 69.202 43.2858C66.0339 41.5179 62.8657 39.8121 59.6665 38.0752L52.0879 33.9192ZM78.1163 12.4566C77.961 9.72726 76.7496 7.37011 74.1716 5.85036C72.8982 5.07498 71.5315 4.54772 70.0096 4.82686C64.6051 5.78833 61.8407 10.9989 64.015 16.0544C65.5369 19.5591 67.8664 22.5676 70.1959 25.5451C70.5997 26.0413 70.8171 25.9172 71.1588 25.483C73.2709 22.8157 75.2898 20.0864 76.8428 17.0469C77.5572 15.6822 78.1163 14.2555 78.1163 12.4566ZM54.2 30.7246L54.728 31.0658L69.9475 39.4089C70.1723 39.5485 70.4328 39.6198 70.6975 39.6143C70.9622 39.6088 71.2195 39.5267 71.4383 39.3779C74.7307 37.548 78.0541 35.7491 81.3776 33.9502L87.1859 30.7556C83.6139 28.8017 80.2284 27.0028 76.8739 25.1108C76.1595 24.7387 76.0663 25.2969 75.8489 25.6071C75.6315 25.9173 76.0974 26.1343 76.3459 26.2584C77.188 26.6398 77.964 27.1528 78.6443 27.7782C80.4147 29.546 80.4147 31.9652 78.6443 33.7331C78.1474 34.2244 77.5826 34.6422 76.9671 34.9737C74.2648 36.3384 71.4073 36.5865 68.4876 36.2143C66.5308 35.9662 64.6672 35.3769 63.0831 34.0743C60.7847 32.1513 60.7847 29.3289 63.0831 27.437C63.6544 26.9789 64.2804 26.5935 64.9468 26.2894C65.1952 26.1654 65.9097 26.1964 65.4748 25.5761C65.04 24.9558 65.071 24.7697 64.4188 25.1419C61.0953 27.0028 57.7097 28.8017 54.2 30.7246ZM70.8793 32.6476C71.8111 32.7406 73.0224 32.4925 74.1716 32.0893C75.3209 31.6861 76.0663 31.562 76.0663 30.8177C76.0663 30.0733 74.9481 29.8252 74.2027 29.546C73.4573 29.2669 73.0535 29.0498 72.4633 29.7321C71.1278 31.2519 70.1649 31.2519 68.8604 29.7321C68.4255 29.2359 68.0528 29.1118 67.4937 29.3599C66.921 29.5762 66.361 29.8248 65.8165 30.1043C65.0089 30.5075 64.9468 31.0037 65.7854 31.469C67.2763 32.3374 68.8604 32.6165 70.8793 32.6476Z" fill="#C63127"/>
<path d="M26.1527 41.9213C40.5025 41.9213 52.0879 53.614 52.0879 68.0361C52.088 71.4636 51.4084 74.8571 50.0884 78.0209C48.7683 81.1847 46.8339 84.0562 44.3967 86.4697C41.9596 88.8831 39.0679 90.7907 35.8887 92.0825C32.7094 93.3743 29.3054 94.0246 25.8731 93.9959C11.4923 93.9959 0 82.3032 0 67.726C0 53.1488 11.7407 41.9213 26.1527 41.9213ZM26.0284 45.6431C13.6975 45.7361 3.6651 55.8161 3.72722 67.9741C3.73524 70.9265 4.32868 73.8481 5.47327 76.5703C6.61787 79.2925 8.29096 81.7614 10.396 83.8346C12.5011 85.9078 14.9965 87.5442 17.7382 88.6495C20.4799 89.7547 23.4136 90.3069 26.3701 90.2741C38.5146 90.15 48.4228 79.977 48.3607 67.788C48.2986 55.599 38.1108 45.55 26.0284 45.6431Z" fill="#C63127"/>
<path d="M43.8881 8.45554C42.9563 7.52508 42.2419 6.87377 41.5586 6.16042C40.8753 5.44707 40.6889 4.14443 41.4654 3.36905C42.2419 2.59367 43.329 2.62468 44.1677 3.46209C46.0313 5.26098 47.8638 7.09088 49.6653 8.9518C49.857 9.12061 50.0105 9.32821 50.1157 9.56082C50.2209 9.79344 50.2752 10.0457 50.2752 10.301C50.2752 10.5562 50.2209 10.8085 50.1157 11.0411C50.0105 11.2737 49.857 11.4813 49.6653 11.6501C47.8431 13.5317 45.9795 15.3926 44.0745 17.2329C43.904 17.4054 43.7009 17.5424 43.477 17.6359C43.253 17.7295 43.0127 17.7776 42.77 17.7776C42.5272 17.7776 42.2869 17.7295 42.063 17.6359C41.839 17.5424 41.6359 17.4054 41.4654 17.2329C40.72 16.4885 40.6889 15.403 41.4654 14.5345C41.8249 14.1291 42.2087 13.7459 42.6147 13.387L43.8881 12.1774H42.5215C37.7072 12.1774 32.9239 12.1464 28.1096 12.1774C21.7733 12.2084 16.7726 16.1784 15.2507 22.3194C14.9872 23.4476 14.862 24.6037 14.8779 25.7621C14.909 30.5074 14.909 35.2217 14.8779 39.9361C14.8779 41.0526 14.2567 41.797 13.3249 41.921C12.8956 41.9899 12.4556 41.9067 12.0813 41.6858C11.7069 41.4649 11.4217 41.1202 11.275 40.7114C11.18 40.3791 11.1484 40.0319 11.1818 39.6879C11.1818 34.6945 11.1507 29.701 11.1818 24.7076C11.2128 16.8917 17.3628 9.82023 25.0967 8.64165C26.0938 8.49112 27.1012 8.41853 28.1096 8.42453L43.8881 8.45554Z" fill="#C63127"/>
<path d="M58.4552 86.6147C59.3249 87.4522 60.0393 88.1345 60.7226 88.8478C61.4059 89.5612 61.6234 90.8638 60.8158 91.6392C60.0082 92.4146 58.9522 92.3526 58.0514 91.4841C56.25 89.7163 54.4795 87.9484 52.7091 86.1495C51.7773 85.188 51.7773 84.2266 52.7091 83.2961C54.4795 81.4662 56.281 79.6363 58.1135 77.8685C58.9522 77.0621 60.0704 77.031 60.8158 77.7754C61.5612 78.5198 61.5923 79.6673 60.7537 80.5358C59.915 81.4042 59.3249 81.9314 58.331 82.8619C62.0893 82.7068 65.5059 83.2651 68.8604 82.2416C74.3891 80.5668 78.0542 75.6043 78.0852 69.5874C78.1474 64.749 78.0852 59.9106 78.1163 55.0722C78.1163 53.9557 78.7375 53.2113 79.6693 53.0872C80.6011 52.9632 81.3465 53.3664 81.6882 54.2658C81.7922 54.5965 81.8343 54.9434 81.8125 55.2893C81.8125 60.3448 81.8435 65.3693 81.8125 70.3938C81.7503 78.1166 75.5383 85.2191 67.8975 86.3356C64.8536 86.8008 61.8097 86.3976 58.4552 86.6147Z" fill="#C63127"/>
<path d="M76.2525 12.1763C76.2524 13.2818 75.9238 14.3624 75.308 15.2811C74.6923 16.1999 73.8173 16.9154 72.7939 17.337C71.7705 17.7586 70.6448 17.8673 69.5594 17.6494C68.4741 17.4315 67.478 16.8967 66.6973 16.1128C65.9167 15.3289 65.3867 14.3313 65.1745 13.2463C64.9623 12.1613 65.0774 11.0379 65.5054 10.0183C65.9333 8.99876 66.6547 8.12901 67.5782 7.51932C68.5017 6.90962 69.5856 6.58741 70.6927 6.59355C71.4266 6.58939 72.154 6.73119 72.8325 7.01066C73.5109 7.29013 74.1269 7.70169 74.6444 8.22134C75.1619 8.74099 75.5706 9.35833 75.8467 10.0374C76.1228 10.7164 76.2607 11.4435 76.2525 12.1763ZM70.6616 14.0062C70.9244 14.0403 71.1915 14.018 71.445 13.9409C71.6985 13.8638 71.9326 13.7335 72.1317 13.5589C72.3308 13.3842 72.4903 13.1692 72.5996 12.9281C72.7088 12.687 72.7653 12.4254 72.7653 12.1608C72.7653 11.8962 72.7088 11.6346 72.5996 11.3935C72.4903 11.1524 72.3308 10.9374 72.1317 10.7627C71.9326 10.5881 71.6985 10.4579 71.445 10.3807C71.1915 10.3036 70.9244 10.2813 70.6616 10.3154C70.2127 10.3736 69.8004 10.593 69.5017 10.9326C69.2029 11.2722 69.0381 11.7088 69.0381 12.1608C69.0381 12.6128 69.2029 13.0494 69.5017 13.389C69.8004 13.7286 70.2127 13.948 70.6616 14.0062Z" fill="#C63127"/>
<path d="M26.0904 47.5032C28.7822 47.5073 31.4466 48.0422 33.9308 49.0774C36.4149 50.1126 38.6698 51.6276 40.566 53.5354C42.4621 55.4432 43.9622 57.7063 44.98 60.1946C45.9978 62.6829 46.5133 65.3475 46.4969 68.0354C46.4969 79.2629 37.3653 88.4434 26.1836 88.4124C15.0019 88.3814 5.5907 79.3559 5.5907 68.0664C5.56598 65.367 6.07867 62.6895 7.09896 60.1897C8.11926 57.6898 9.62682 55.4172 11.5341 53.504C13.4414 51.5908 15.7104 50.0752 18.2092 49.045C20.7081 48.0149 23.387 47.4908 26.0904 47.5032ZM42.7697 68.0043C42.8318 58.9479 35.3463 51.3181 26.2457 51.2251C17.1451 51.132 9.38004 58.6687 9.31792 67.8182C9.2558 76.9678 16.7102 84.5975 25.8419 84.6906C28.0523 84.711 30.245 84.295 32.2938 83.4663C34.3427 82.6377 36.2072 81.4128 37.7804 79.8621C39.3535 78.3114 40.6042 76.4655 41.4604 74.4306C42.3167 72.3956 42.7616 70.2116 42.7697 68.0043Z" fill="#C63127"/>
<path d="M33.5139 64.7189C33.5761 65.7114 32.2715 66.8899 32.3026 68.0065C32.3336 69.123 33.514 70.2396 33.4829 71.6353C33.4518 73.8374 32.489 75.5122 30.5632 76.5357C29.911 76.9079 29.6936 77.2801 29.7557 77.9624C29.8022 78.4265 29.8022 78.894 29.7557 79.3581C29.7084 79.8245 29.4807 80.254 29.121 80.5552C28.7613 80.8565 28.2981 81.0056 27.8299 80.9709C26.805 80.9089 26.2148 80.3506 26.0595 79.3271C26.0284 79.0177 26.0284 78.706 26.0595 78.3966C26.0284 77.3111 25.5625 76.9699 24.5065 77.2491C24.1959 77.3421 24.1959 77.5282 24.1959 77.7453C24.2169 78.252 24.2065 78.7596 24.1648 79.2651C24.1487 79.7313 23.9518 80.1731 23.6157 80.4971C23.2796 80.8212 22.8306 81.0022 22.3633 81.0019C21.8925 81.0195 21.4329 80.8553 21.0801 80.5435C20.7272 80.2316 20.5083 79.7959 20.4687 79.3271C20.4066 78.6758 20.655 77.8383 20.3134 77.4352C19.9717 77.032 19.102 77.3421 18.4498 77.2801C17.9829 77.2411 17.5479 77.0279 17.2313 76.6831C16.9147 76.3382 16.7398 75.887 16.7415 75.4192C16.7242 74.9522 16.8897 74.4969 17.2027 74.1495C17.5157 73.8022 17.9518 73.5901 18.4187 73.5582C19.071 73.4962 19.9407 73.8374 20.3134 73.4032C20.6861 72.9689 20.4687 72.0075 20.4687 71.2941C20.4687 68.5958 20.4376 65.9285 20.4997 63.2612C20.4997 62.5478 20.3444 62.2687 19.599 62.3927C19.2165 62.4237 18.8322 62.4237 18.4498 62.3927C17.9802 62.361 17.5408 62.15 17.2228 61.8035C16.9048 61.4571 16.7324 61.0017 16.7415 60.5318C16.7245 60.0598 16.8942 59.6001 17.2138 59.2519C17.5334 58.9037 17.9774 58.695 18.4498 58.6709H18.574C20.3444 58.5468 20.3444 58.5468 20.4687 56.748C20.4728 56.2544 20.6731 55.7827 21.0255 55.4366C21.3779 55.0906 21.8536 54.8984 22.3478 54.9025C22.8421 54.9067 23.3145 55.1067 23.661 55.4586C24.0076 55.8105 24.2 56.2854 24.1959 56.779V57.5854C24.1959 58.5779 24.8482 59.0121 25.78 58.6709C26.0906 58.5468 26.0285 58.3297 26.0285 58.1126C26.0285 57.8955 26.0284 57.1822 26.0595 56.7169C26.1098 56.2674 26.3224 55.8515 26.6575 55.5471C26.9926 55.2427 27.4273 55.0706 27.8803 55.063C28.3332 55.0554 28.7735 55.2128 29.1186 55.5058C29.4638 55.7988 29.6903 56.2073 29.7557 56.6549C29.7709 56.7369 29.7709 56.821 29.7557 56.903C29.5693 58.2057 29.8799 59.1051 31.2155 59.8495C32.5511 60.5938 33.4518 62.4238 33.5139 64.7189ZM26.2459 66.1146C26.7844 66.1353 27.3237 66.1249 27.861 66.0836C28.1235 66.1198 28.3907 66.0997 28.6447 66.0246C28.8988 65.9496 29.134 65.8213 29.3345 65.6483C29.535 65.4753 29.6962 65.2617 29.8075 65.0216C29.9187 64.7814 29.9774 64.5204 29.9796 64.2558C29.9819 63.9912 29.9276 63.7292 29.8204 63.4873C29.7132 63.2453 29.5555 63.0289 29.358 62.8526C29.1604 62.6763 28.9275 62.5441 28.6747 62.4648C28.4219 62.3855 28.1551 62.3609 27.8921 62.3927C26.8671 62.3617 25.811 62.3927 24.786 62.3927C24.3512 62.3617 24.1338 62.4858 24.1648 62.951C24.2063 63.3009 24.2166 63.6538 24.1959 64.0055C24.1959 66.1146 24.1959 66.1146 26.2459 66.1146ZM26.3391 69.8364C24.1959 69.8364 24.1959 69.8364 24.1959 71.9765V73.031C24.1648 73.4032 24.2891 73.5582 24.6929 73.5582C25.78 73.5272 26.8671 73.5893 27.9542 73.5272C28.4403 73.5033 28.8987 73.2935 29.2341 72.9412C29.5695 72.589 29.7563 72.1213 29.7557 71.6353C29.7263 71.1678 29.5271 70.7271 29.1954 70.3959C28.8637 70.0646 28.4223 69.8657 27.9542 69.8364C27.4261 69.8054 26.8671 69.8364 26.3391 69.8364Z" fill="#C63127"/>
<path d="M82.8124 14.201C82.7503 16.4961 81.7564 19.2565 80.1413 21.7997C79.6754 22.5441 79.6754 22.7922 80.4829 23.2264L92.379 29.7086C93.5282 30.3289 94.0562 31.1043 93.9941 32.469C93.9009 34.64 93.963 36.8111 93.9941 38.9822C94.0262 39.4062 93.9272 39.8297 93.7106 40.1958C93.494 40.5618 93.1701 40.8527 92.7827 41.0292L72.9042 51.9156C72.5332 52.1232 72.114 52.2296 71.6888 52.2242C71.2635 52.2188 70.8471 52.1016 70.4816 51.8846L50.572 41.0292C50.1842 40.8505 49.8588 40.5601 49.6374 40.1954C49.416 39.8306 49.3088 39.4082 49.3296 38.9822C49.3917 36.7181 49.3917 34.485 49.3296 32.2209C49.2985 31.1043 49.7644 30.422 50.7273 29.9257C54.7962 27.6926 58.834 25.4285 62.9029 23.2574C63.7104 22.8232 63.7104 22.5751 63.2445 21.8307C61.5052 19.1014 60.418 16.1239 60.5112 12.8053C60.7287 6.88138 66.3816 1.67079 72.283 2.01196C78.1845 2.35313 82.8124 7.59473 82.8124 14.201ZM53.0879 34.9192C53.0879 35.8497 53.1189 36.625 53.0568 37.3694C52.9947 38.1138 53.2742 38.2068 53.7401 38.4549C59.4966 41.5564 65.2427 44.689 70.9785 47.8526C71.1799 47.9899 71.418 48.0634 71.6618 48.0634C71.9057 48.0634 72.1439 47.9899 72.3452 47.8526L89.6146 38.4239C89.9563 38.2378 90.2979 38.1138 90.2669 37.5865C90.2358 37.0592 90.2669 35.9117 90.2669 34.9502L89.0245 35.6015L73.2459 44.2858C72.1898 44.8751 71.2581 44.9061 70.202 44.2858C67.0339 42.5179 63.8657 40.8121 60.6665 39.0752L53.0879 34.9192ZM79.1163 13.4566C78.961 10.7273 77.7496 8.37011 75.1716 6.85036C73.8982 6.07498 72.5315 5.54772 71.0096 5.82686C65.6051 6.78833 62.8407 11.9989 65.015 17.0544C66.5369 20.5591 68.8664 23.5676 71.1959 26.5451C71.5997 27.0413 71.8171 26.9172 72.1588 26.483C74.2709 23.8157 76.2898 21.0864 77.8428 18.0469C78.5572 16.6822 79.1163 15.2555 79.1163 13.4566ZM55.2 31.7246L55.728 32.0658L70.9475 40.4089C71.1723 40.5485 71.4328 40.6198 71.6975 40.6143C71.9622 40.6088 72.2195 40.5267 72.4383 40.3779C75.7307 38.548 79.0541 36.7491 82.3776 34.9502L88.1859 31.7556C84.6139 29.8017 81.2284 28.0028 77.8739 26.1108C77.1595 25.7387 77.0663 26.2969 76.8489 26.6071C76.6315 26.9173 77.0974 27.1343 77.3459 27.2584C78.188 27.6398 78.964 28.1528 79.6443 28.7782C81.4147 30.546 81.4147 32.9652 79.6443 34.7331C79.1474 35.2244 78.5826 35.6422 77.9671 35.9737C75.2648 37.3384 72.4073 37.5865 69.4876 37.2143C67.5308 36.9662 65.6672 36.3769 64.0831 35.0743C61.7847 33.1513 61.7847 30.3289 64.0831 28.437C64.6544 27.9789 65.2804 27.5935 65.9468 27.2894C66.1952 27.1654 66.9097 27.1964 66.4748 26.5761C66.04 25.9558 66.071 25.7697 65.4188 26.1419C62.0953 28.0028 58.7097 29.8017 55.2 31.7246ZM71.8793 33.6476C72.8111 33.7406 74.0224 33.4925 75.1716 33.0893C76.3209 32.6861 77.0663 32.562 77.0663 31.8177C77.0663 31.0733 75.9481 30.8252 75.2027 30.546C74.4573 30.2669 74.0535 30.0498 73.4633 30.7321C72.1278 32.2519 71.1649 32.2519 69.8604 30.7321C69.4255 30.2359 69.0528 30.1118 68.4937 30.3599C67.921 30.5762 67.361 30.8248 66.8165 31.1043C66.0089 31.5075 65.9468 32.0037 66.7854 32.469C68.2763 33.3374 69.8604 33.6165 71.8793 33.6476Z" fill="url(#paint0_linear_4530_8)"/>
<path d="M27.1527 42.9213C41.5025 42.9213 53.0879 54.614 53.0879 69.0361C53.088 72.4636 52.4084 75.8571 51.0884 79.0209C49.7683 82.1847 47.8339 85.0562 45.3967 87.4697C42.9596 89.8831 40.0679 91.7907 36.8887 93.0825C33.7094 94.3743 30.3054 95.0246 26.8731 94.9959C12.4923 94.9959 1 83.3032 1 68.726C1 54.1488 12.7407 42.9213 27.1527 42.9213ZM27.0284 46.6431C14.6975 46.7361 4.6651 56.8161 4.72722 68.9741C4.73524 71.9265 5.32868 74.8481 6.47327 77.5703C7.61787 80.2925 9.29096 82.7614 11.396 84.8346C13.5011 86.9078 15.9965 88.5442 18.7382 89.6495C21.4799 90.7547 24.4136 91.3069 27.3701 91.2741C39.5146 91.15 49.4228 80.977 49.3607 68.788C49.2986 56.599 39.1108 46.55 27.0284 46.6431Z" fill="url(#paint1_linear_4530_8)"/>
<path d="M44.8881 9.45554C43.9563 8.52508 43.2419 7.87377 42.5586 7.16042C41.8753 6.44707 41.6889 5.14443 42.4654 4.36905C43.2419 3.59367 44.329 3.62468 45.1677 4.46209C47.0313 6.26098 48.8638 8.09088 50.6653 9.9518C50.857 10.1206 51.0105 10.3282 51.1157 10.5608C51.2209 10.7934 51.2752 11.0457 51.2752 11.301C51.2752 11.5562 51.2209 11.8085 51.1157 12.0411C51.0105 12.2737 50.857 12.4813 50.6653 12.6501C48.8431 14.5317 46.9795 16.3926 45.0745 18.2329C44.904 18.4054 44.7009 18.5424 44.477 18.6359C44.253 18.7295 44.0127 18.7776 43.77 18.7776C43.5272 18.7776 43.2869 18.7295 43.063 18.6359C42.839 18.5424 42.6359 18.4054 42.4654 18.2329C41.72 17.4885 41.6889 16.403 42.4654 15.5345C42.8249 15.1291 43.2087 14.7459 43.6147 14.387L44.8881 13.1774H43.5215C38.7072 13.1774 33.9239 13.1464 29.1096 13.1774C22.7733 13.2084 17.7726 17.1784 16.2507 23.3194C15.9872 24.4476 15.862 25.6037 15.8779 26.7621C15.909 31.5074 15.909 36.2217 15.8779 40.9361C15.8779 42.0526 15.2567 42.797 14.3249 42.921C13.8956 42.9899 13.4556 42.9067 13.0813 42.6858C12.7069 42.4649 12.4217 42.1202 12.275 41.7114C12.18 41.3791 12.1484 41.0319 12.1818 40.6879C12.1818 35.6945 12.1507 30.701 12.1818 25.7076C12.2128 17.8917 18.3628 10.8202 26.0967 9.64165C27.0938 9.49112 28.1012 9.41853 29.1096 9.42453L44.8881 9.45554Z" fill="url(#paint2_linear_4530_8)"/>
<path d="M59.4552 87.6147C60.3249 88.4522 61.0393 89.1345 61.7226 89.8478C62.4059 90.5612 62.6234 91.8638 61.8158 92.6392C61.0082 93.4146 59.9522 93.3526 59.0514 92.4841C57.25 90.7163 55.4795 88.9484 53.7091 87.1495C52.7773 86.188 52.7773 85.2266 53.7091 84.2961C55.4795 82.4662 57.281 80.6363 59.1135 78.8685C59.9522 78.0621 61.0704 78.031 61.8158 78.7754C62.5612 79.5198 62.5923 80.6673 61.7537 81.5358C60.915 82.4042 60.3249 82.9314 59.331 83.8619C63.0893 83.7068 66.5059 84.2651 69.8604 83.2416C75.3891 81.5668 79.0542 76.6043 79.0852 70.5874C79.1474 65.749 79.0852 60.9106 79.1163 56.0722C79.1163 54.9557 79.7375 54.2113 80.6693 54.0872C81.6011 53.9632 82.3465 54.3664 82.6882 55.2658C82.7922 55.5965 82.8343 55.9434 82.8125 56.2893C82.8125 61.3448 82.8435 66.3693 82.8125 71.3938C82.7503 79.1166 76.5383 86.2191 68.8975 87.3356C65.8536 87.8008 62.8097 87.3976 59.4552 87.6147Z" fill="url(#paint3_linear_4530_8)"/>
<path d="M77.2525 13.1763C77.2524 14.2818 76.9238 15.3624 76.308 16.2811C75.6923 17.1999 74.8173 17.9154 73.7939 18.337C72.7705 18.7586 71.6448 18.8673 70.5594 18.6494C69.4741 18.4315 68.478 17.8967 67.6973 17.1128C66.9167 16.3289 66.3867 15.3313 66.1745 14.2463C65.9623 13.1613 66.0774 12.0379 66.5054 11.0183C66.9333 9.99876 67.6547 9.12901 68.5782 8.51932C69.5017 7.90962 70.5856 7.58741 71.6927 7.59355C72.4266 7.58939 73.154 7.73119 73.8325 8.01066C74.5109 8.29013 75.1269 8.70169 75.6444 9.22134C76.1619 9.74099 76.5706 10.3583 76.8467 11.0374C77.1228 11.7164 77.2607 12.4435 77.2525 13.1763ZM71.6616 15.0062C71.9244 15.0403 72.1915 15.018 72.445 14.9409C72.6985 14.8638 72.9326 14.7335 73.1317 14.5589C73.3308 14.3842 73.4903 14.1692 73.5996 13.9281C73.7088 13.687 73.7653 13.4254 73.7653 13.1608C73.7653 12.8962 73.7088 12.6346 73.5996 12.3935C73.4903 12.1524 73.3308 11.9374 73.1317 11.7627C72.9326 11.5881 72.6985 11.4579 72.445 11.3807C72.1915 11.3036 71.9244 11.2813 71.6616 11.3154C71.2127 11.3736 70.8004 11.593 70.5017 11.9326C70.2029 12.2722 70.0381 12.7088 70.0381 13.1608C70.0381 13.6128 70.2029 14.0494 70.5017 14.389C70.8004 14.7286 71.2127 14.948 71.6616 15.0062Z" fill="url(#paint4_linear_4530_8)"/>
<path d="M27.0904 48.5032C29.7822 48.5073 32.4466 49.0422 34.9308 50.0774C37.4149 51.1126 39.6698 52.6276 41.566 54.5354C43.4621 56.4432 44.9622 58.7063 45.98 61.1946C46.9978 63.6829 47.5133 66.3475 47.4969 69.0354C47.4969 80.2629 38.3653 89.4434 27.1836 89.4124C16.0019 89.3814 6.5907 80.3559 6.5907 69.0664C6.56598 66.367 7.07867 63.6895 8.09896 61.1897C9.11926 58.6898 10.6268 56.4172 12.5341 54.504C14.4414 52.5908 16.7104 51.0752 19.2092 50.045C21.7081 49.0149 24.387 48.4908 27.0904 48.5032ZM43.7697 69.0043C43.8318 59.9479 36.3463 52.3181 27.2457 52.2251C18.1451 52.132 10.38 59.6687 10.3179 68.8182C10.2558 77.9678 17.7102 85.5975 26.8419 85.6906C29.0523 85.711 31.245 85.295 33.2938 84.4663C35.3427 83.6377 37.2072 82.4128 38.7804 80.8621C40.3535 79.3114 41.6042 77.4655 42.4604 75.4306C43.3167 73.3956 43.7616 71.2116 43.7697 69.0043Z" fill="url(#paint5_linear_4530_8)"/>
<path d="M34.5139 65.7189C34.5761 66.7114 33.2715 67.8899 33.3026 69.0065C33.3336 70.123 34.514 71.2396 34.4829 72.6353C34.4518 74.8374 33.489 76.5122 31.5632 77.5357C30.911 77.9079 30.6936 78.2801 30.7557 78.9624C30.8022 79.4265 30.8022 79.894 30.7557 80.3581C30.7084 80.8245 30.4807 81.254 30.121 81.5552C29.7613 81.8565 29.2981 82.0056 28.8299 81.9709C27.805 81.9089 27.2148 81.3506 27.0595 80.3271C27.0284 80.0177 27.0284 79.706 27.0595 79.3966C27.0284 78.3111 26.5625 77.9699 25.5065 78.2491C25.1959 78.3421 25.1959 78.5282 25.1959 78.7453C25.2169 79.252 25.2065 79.7596 25.1648 80.2651C25.1487 80.7313 24.9518 81.1731 24.6157 81.4971C24.2796 81.8212 23.8306 82.0022 23.3633 82.0019C22.8925 82.0195 22.4329 81.8553 22.0801 81.5435C21.7272 81.2316 21.5083 80.7959 21.4687 80.3271C21.4066 79.6758 21.655 78.8383 21.3134 78.4352C20.9717 78.032 20.102 78.3421 19.4498 78.2801C18.9829 78.2411 18.5479 78.0279 18.2313 77.6831C17.9147 77.3382 17.7398 76.887 17.7415 76.4192C17.7242 75.9522 17.8897 75.4969 18.2027 75.1495C18.5157 74.8022 18.9518 74.5901 19.4187 74.5582C20.071 74.4962 20.9407 74.8374 21.3134 74.4032C21.6861 73.9689 21.4687 73.0075 21.4687 72.2941C21.4687 69.5958 21.4376 66.9285 21.4997 64.2612C21.4997 63.5478 21.3444 63.2687 20.599 63.3927C20.2165 63.4237 19.8322 63.4237 19.4498 63.3927C18.9802 63.361 18.5408 63.15 18.2228 62.8035C17.9048 62.4571 17.7324 62.0017 17.7415 61.5318C17.7245 61.0598 17.8942 60.6001 18.2138 60.2519C18.5334 59.9037 18.9774 59.695 19.4498 59.6709H19.574C21.3444 59.5468 21.3444 59.5468 21.4687 57.748C21.4728 57.2544 21.6731 56.7827 22.0255 56.4366C22.3779 56.0906 22.8536 55.8984 23.3478 55.9025C23.8421 55.9067 24.3145 56.1067 24.661 56.4586C25.0076 56.8105 25.2 57.2854 25.1959 57.779V58.5854C25.1959 59.5779 25.8482 60.0121 26.78 59.6709C27.0906 59.5468 27.0285 59.3297 27.0285 59.1126C27.0285 58.8955 27.0284 58.1822 27.0595 57.7169C27.1098 57.2674 27.3224 56.8515 27.6575 56.5471C27.9926 56.2427 28.4273 56.0706 28.8803 56.063C29.3332 56.0554 29.7735 56.2128 30.1186 56.5058C30.4638 56.7988 30.6903 57.2073 30.7557 57.6549C30.7709 57.7369 30.7709 57.821 30.7557 57.903C30.5693 59.2057 30.8799 60.1051 32.2155 60.8495C33.5511 61.5938 34.4518 63.4238 34.5139 65.7189ZM27.2459 67.1146C27.7844 67.1353 28.3237 67.1249 28.861 67.0836C29.1235 67.1198 29.3907 67.0997 29.6447 67.0246C29.8988 66.9496 30.134 66.8213 30.3345 66.6483C30.535 66.4753 30.6962 66.2617 30.8075 66.0216C30.9187 65.7814 30.9774 65.5204 30.9796 65.2558C30.9819 64.9912 30.9276 64.7292 30.8204 64.4873C30.7132 64.2453 30.5555 64.0289 30.358 63.8526C30.1604 63.6763 29.9275 63.5441 29.6747 63.4648C29.4219 63.3855 29.1551 63.3609 28.8921 63.3927C27.8671 63.3617 26.811 63.3927 25.786 63.3927C25.3512 63.3617 25.1338 63.4858 25.1648 63.951C25.2063 64.3009 25.2166 64.6538 25.1959 65.0055C25.1959 67.1146 25.1959 67.1146 27.2459 67.1146ZM27.3391 70.8364C25.1959 70.8364 25.1959 70.8364 25.1959 72.9765V74.031C25.1648 74.4032 25.2891 74.5582 25.6929 74.5582C26.78 74.5272 27.8671 74.5893 28.9542 74.5272C29.4403 74.5033 29.8987 74.2935 30.2341 73.9412C30.5695 73.589 30.7563 73.1213 30.7557 72.6353C30.7263 72.1678 30.5271 71.7271 30.1954 71.3959C29.8637 71.0646 29.4223 70.8657 28.9542 70.8364C28.4261 70.8054 27.8671 70.8364 27.3391 70.8364Z" fill="url(#paint6_linear_4530_8)"/>
<defs>
<linearGradient id="paint0_linear_4530_8" x1="47.5" y1="1.99609" x2="47.5" y2="94.9968" gradientUnits="userSpaceOnUse">
<stop stop-color="white" stop-opacity="0.66"/>
<stop offset="1" stop-color="#969696" stop-opacity="0"/>
</linearGradient>
<linearGradient id="paint1_linear_4530_8" x1="47.5" y1="1.99609" x2="47.5" y2="94.9968" gradientUnits="userSpaceOnUse">
<stop stop-color="white" stop-opacity="0.66"/>
<stop offset="1" stop-color="#969696" stop-opacity="0"/>
</linearGradient>
<linearGradient id="paint2_linear_4530_8" x1="47.5" y1="1.99609" x2="47.5" y2="94.9968" gradientUnits="userSpaceOnUse">
<stop stop-color="white" stop-opacity="0.66"/>
<stop offset="1" stop-color="#969696" stop-opacity="0"/>
</linearGradient>
<linearGradient id="paint3_linear_4530_8" x1="47.5" y1="1.99609" x2="47.5" y2="94.9968" gradientUnits="userSpaceOnUse">
<stop stop-color="white" stop-opacity="0.66"/>
<stop offset="1" stop-color="#969696" stop-opacity="0"/>
</linearGradient>
<linearGradient id="paint4_linear_4530_8" x1="47.5" y1="1.99609" x2="47.5" y2="94.9968" gradientUnits="userSpaceOnUse">
<stop stop-color="white" stop-opacity="0.66"/>
<stop offset="1" stop-color="#969696" stop-opacity="0"/>
</linearGradient>
<linearGradient id="paint5_linear_4530_8" x1="47.5" y1="1.99609" x2="47.5" y2="94.9968" gradientUnits="userSpaceOnUse">
<stop stop-color="white" stop-opacity="0.66"/>
<stop offset="1" stop-color="#969696" stop-opacity="0"/>
</linearGradient>
<linearGradient id="paint6_linear_4530_8" x1="47.5" y1="1.99609" x2="47.5" y2="94.9968" gradientUnits="userSpaceOnUse">
<stop stop-color="white" stop-opacity="0.66"/>
<stop offset="1" stop-color="#969696" stop-opacity="0"/>
</linearGradient>
</defs>
</svg>
