<svg width="119" height="17" viewBox="0 0 119 17" fill="none" xmlns="http://www.w3.org/2000/svg">
<path d="M7.39524 3.72727C7.3228 3.11553 7.029 2.64062 6.51385 2.30256C5.9987 1.96449 5.36683 1.79545 4.61825 1.79545C4.0709 1.79545 3.59197 1.884 3.18146 2.06108C2.77498 2.23816 2.45703 2.48165 2.22763 2.79155C2.00225 3.10144 1.88956 3.4536 1.88956 3.84801C1.88956 4.17803 1.96804 4.46177 2.125 4.69922C2.28598 4.93265 2.49124 5.12784 2.74077 5.2848C2.99029 5.43774 3.25189 5.56451 3.52557 5.66513C3.79924 5.76172 4.05078 5.8402 4.28018 5.90057L5.53587 6.23864C5.85784 6.32315 6.21603 6.43987 6.61044 6.58878C7.00888 6.73769 7.3892 6.94093 7.75142 7.19851C8.11766 7.45206 8.41951 7.77805 8.65696 8.17649C8.89441 8.57493 9.01314 9.06392 9.01314 9.64347C9.01314 10.3116 8.83807 10.9152 8.48793 11.4545C8.14181 11.9938 7.63471 12.4225 6.96662 12.7404C6.30256 13.0584 5.49562 13.2173 4.54581 13.2173C3.66039 13.2173 2.8937 13.0745 2.24574 12.7887C1.6018 12.503 1.0947 12.1045 0.724432 11.5934C0.358191 11.0823 0.150923 10.4886 0.102628 9.8125H1.64808C1.68833 10.2794 1.84529 10.6657 2.11896 10.9716C2.39666 11.2734 2.7468 11.4988 3.16939 11.6477C3.596 11.7926 4.05481 11.8651 4.54581 11.8651C5.11731 11.8651 5.63045 11.7725 6.08523 11.5874C6.54001 11.3982 6.90021 11.1366 7.16584 10.8026C7.43146 10.4645 7.56428 10.0701 7.56428 9.61932C7.56428 9.20881 7.44957 8.87476 7.22017 8.61719C6.99077 8.35961 6.68892 8.15033 6.31463 7.98935C5.94034 7.82836 5.53587 7.6875 5.10121 7.56676L3.5799 7.1321C2.61399 6.8544 1.84931 6.45798 1.28587 5.94283C0.72242 5.42767 0.440696 4.75355 0.440696 3.92045C0.440696 3.22822 0.627841 2.62453 1.00213 2.10938C1.38045 1.5902 1.88755 1.18774 2.52344 0.901988C3.16335 0.612215 3.87772 0.467329 4.66655 0.467329C5.46342 0.467329 6.17176 0.610203 6.79155 0.895951C7.41134 1.17767 7.90234 1.56404 8.26456 2.05504C8.6308 2.54605 8.82398 3.10346 8.84411 3.72727H7.39524ZM11.2815 16.4773V3.72727H12.6579V5.20028H12.827C12.9316 5.0393 13.0765 4.83404 13.2616 4.58452C13.4508 4.33097 13.7204 4.10559 14.0706 3.90838C14.4247 3.70715 14.9037 3.60653 15.5074 3.60653C16.2881 3.60653 16.9764 3.80173 17.572 4.19212C18.1676 4.5825 18.6325 5.13589 18.9665 5.85227C19.3006 6.56865 19.4676 7.41383 19.4676 8.38778C19.4676 9.36979 19.3006 10.221 18.9665 10.9414C18.6325 11.6578 18.1697 12.2132 17.578 12.6076C16.9864 12.998 16.3042 13.1932 15.5315 13.1932C14.9359 13.1932 14.459 13.0946 14.1008 12.8974C13.7426 12.6961 13.4669 12.4687 13.2737 12.2152C13.0805 11.9576 12.9316 11.7443 12.827 11.5753H12.7062V16.4773H11.2815ZM12.6821 8.36364C12.6821 9.06392 12.7847 9.6817 12.99 10.217C13.1952 10.7482 13.4951 11.1648 13.8895 11.4666C14.2839 11.7644 14.7668 11.9134 15.3383 11.9134C15.934 11.9134 16.431 11.7564 16.8295 11.4425C17.2319 11.1245 17.5338 10.6979 17.735 10.1626C17.9403 9.62334 18.0429 9.02367 18.0429 8.36364C18.0429 7.71165 17.9423 7.12405 17.741 6.60085C17.5438 6.07363 17.244 5.65708 16.8415 5.35121C16.4431 5.04131 15.942 4.88636 15.3383 4.88636C14.7588 4.88636 14.2718 5.03326 13.8774 5.32706C13.483 5.61683 13.1852 6.02332 12.9839 6.54652C12.7827 7.0657 12.6821 7.6714 12.6821 8.36364ZM21.6409 13V3.72727H23.0173V5.12784H23.1139C23.2829 4.66903 23.5888 4.29676 24.0315 4.01101C24.4742 3.72526 24.9733 3.58239 25.5287 3.58239C25.6333 3.58239 25.7641 3.5844 25.9211 3.58842C26.078 3.59245 26.1968 3.59848 26.2773 3.60653V5.0554C26.229 5.04332 26.1183 5.02521 25.9452 5.00106C25.7762 4.97289 25.5971 4.95881 25.4079 4.95881C24.9572 4.95881 24.5547 5.05339 24.2006 5.24254C23.8504 5.42767 23.5727 5.68525 23.3675 6.01527C23.1662 6.34126 23.0656 6.71354 23.0656 7.1321V13H21.6409ZM27.9661 13V3.72727H29.3908V13H27.9661ZM28.6905 2.18182C28.4128 2.18182 28.1734 2.08724 27.9721 1.89808C27.7749 1.70893 27.6763 1.48153 27.6763 1.21591C27.6763 0.950284 27.7749 0.722893 27.9721 0.533735C28.1734 0.344578 28.4128 0.25 28.6905 0.25C28.9682 0.25 29.2057 0.344578 29.4029 0.533735C29.6041 0.722893 29.7047 0.950284 29.7047 1.21591C29.7047 1.48153 29.6041 1.70893 29.4029 1.89808C29.2057 2.08724 28.9682 2.18182 28.6905 2.18182ZM33.425 7.42188V13H32.0003V3.72727H33.3767V5.17614H33.4974C33.7148 4.70526 34.0448 4.32694 34.4875 4.04119C34.9302 3.75142 35.5017 3.60653 36.202 3.60653C36.8298 3.60653 37.3792 3.73532 37.8501 3.9929C38.3209 4.24645 38.6872 4.63281 38.9488 5.15199C39.2104 5.66714 39.3412 6.31913 39.3412 7.10795V13H37.9165V7.20455C37.9165 6.47609 37.7273 5.90862 37.349 5.50213C36.9707 5.09162 36.4515 4.88636 35.7915 4.88636C35.3367 4.88636 34.9302 4.98497 34.572 5.18217C34.2178 5.37938 33.9381 5.66714 33.7329 6.04545C33.5276 6.42377 33.425 6.88258 33.425 7.42188ZM45.9773 3.72727V4.93466H41.1719V3.72727H45.9773ZM42.5724 1.50568H43.9972V10.3438C43.9972 10.7462 44.0555 11.0481 44.1722 11.2493C44.293 11.4465 44.4459 11.5793 44.631 11.6477C44.8202 11.7121 45.0194 11.7443 45.2287 11.7443C45.3857 11.7443 45.5144 11.7363 45.6151 11.7202C45.7157 11.7 45.7962 11.6839 45.8565 11.6719L46.1463 12.9517C46.0497 12.9879 45.9149 13.0241 45.7418 13.0604C45.5688 13.1006 45.3494 13.1207 45.0838 13.1207C44.6813 13.1207 44.2869 13.0342 43.9006 12.8612C43.5182 12.6881 43.2003 12.4245 42.9467 12.0703C42.6972 11.7161 42.5724 11.2694 42.5724 10.7301V1.50568ZM52.7296 13V0.636363H56.9071C57.8771 0.636363 58.6699 0.811434 59.2857 1.16158C59.9055 1.50769 60.3643 1.97656 60.6621 2.56818C60.9599 3.1598 61.1088 3.81984 61.1088 4.5483C61.1088 5.27675 60.9599 5.9388 60.6621 6.53445C60.3683 7.13009 59.9135 7.60499 59.2978 7.95916C58.682 8.3093 57.8932 8.48438 56.9313 8.48438H53.937V7.15625H56.883C57.5471 7.15625 58.0803 7.04155 58.4828 6.81214C58.8852 6.58274 59.177 6.27285 59.3581 5.88246C59.5433 5.48804 59.6358 5.04332 59.6358 4.5483C59.6358 4.05327 59.5433 3.61056 59.3581 3.22017C59.177 2.82978 58.8832 2.52391 58.4767 2.30256C58.0703 2.07718 57.531 1.96449 56.8588 1.96449H54.2267V13H52.7296ZM64.7521 0.636363V13H63.3274V0.636363H64.7521ZM70.0903 13.2173C69.5027 13.2173 68.9694 13.1067 68.4905 12.8853C68.0116 12.6599 67.6312 12.3359 67.3495 11.9134C67.0678 11.4867 66.9269 10.9716 66.9269 10.3679C66.9269 9.83665 67.0316 9.40601 67.2409 9.07599C67.4501 8.74195 67.7298 8.48035 68.08 8.29119C68.4301 8.10204 68.8165 7.96117 69.2391 7.86861C69.6657 7.77202 70.0943 7.69555 70.5249 7.6392C71.0884 7.56676 71.5452 7.51243 71.8953 7.47621C72.2495 7.43596 72.5071 7.36955 72.6681 7.27699C72.8331 7.18442 72.9156 7.02344 72.9156 6.79403V6.74574C72.9156 6.15009 72.7526 5.68726 72.4266 5.35724C72.1046 5.02723 71.6156 4.86222 70.9596 4.86222C70.2794 4.86222 69.7462 5.01113 69.3598 5.30895C68.9735 5.60677 68.7018 5.92472 68.5448 6.26278L67.1926 5.77983C67.434 5.21638 67.756 4.7777 68.1585 4.46378C68.565 4.14583 69.0077 3.92448 69.4866 3.79972C69.9695 3.67093 70.4445 3.60653 70.9113 3.60653C71.2091 3.60653 71.5512 3.64276 71.9376 3.7152C72.328 3.78362 72.7043 3.92649 73.0665 4.14382C73.4327 4.36115 73.7366 4.68916 73.9781 5.12784C74.2195 5.56652 74.3403 6.15412 74.3403 6.89062V13H72.9156V11.7443H72.8431C72.7465 11.9455 72.5856 12.1609 72.3602 12.3903C72.1348 12.6197 71.835 12.8149 71.4607 12.9759C71.0864 13.1368 70.6296 13.2173 70.0903 13.2173ZM70.3076 11.9375C70.8711 11.9375 71.346 11.8268 71.7323 11.6055C72.1227 11.3841 72.4165 11.0984 72.6137 10.7482C72.815 10.3981 72.9156 10.0298 72.9156 9.64347V8.33949C72.8552 8.41193 72.7224 8.47834 72.5171 8.53871C72.3159 8.59505 72.0825 8.64536 71.8169 8.68963C71.5552 8.72988 71.2997 8.7661 71.0502 8.7983C70.8047 8.82647 70.6054 8.85062 70.4525 8.87074C70.0822 8.91903 69.7361 8.99751 69.4142 9.10618C69.0962 9.21082 68.8386 9.36979 68.6414 9.5831C68.4482 9.79238 68.3517 10.0781 68.3517 10.4403C68.3517 10.9354 68.5348 11.3097 68.901 11.5632C69.2713 11.8127 69.7401 11.9375 70.3076 11.9375ZM78.3654 7.42188V13H76.9407V3.72727H78.3171V5.17614H78.4379C78.6552 4.70526 78.9852 4.32694 79.4279 4.04119C79.8706 3.75142 80.4421 3.60653 81.1424 3.60653C81.7702 3.60653 82.3196 3.73532 82.7905 3.9929C83.2614 4.24645 83.6276 4.63281 83.8892 5.15199C84.1508 5.66714 84.2816 6.31913 84.2816 7.10795V13H82.8569V7.20455C82.8569 6.47609 82.6677 5.90862 82.2894 5.50213C81.9111 5.09162 81.3919 4.88636 80.7319 4.88636C80.2771 4.88636 79.8706 4.98497 79.5124 5.18217C79.1583 5.37938 78.8786 5.66714 78.6733 6.04545C78.468 6.42377 78.3654 6.88258 78.3654 7.42188ZM88.3097 7.42188V13H86.885V3.72727H88.2615V5.17614H88.3822C88.5995 4.70526 88.9295 4.32694 89.3722 4.04119C89.815 3.75142 90.3865 3.60653 91.0867 3.60653C91.7146 3.60653 92.2639 3.73532 92.7348 3.9929C93.2057 4.24645 93.5719 4.63281 93.8335 5.15199C94.0951 5.66714 94.2259 6.31913 94.2259 7.10795V13H92.8012V7.20455C92.8012 6.47609 92.6121 5.90862 92.2338 5.50213C91.8554 5.09162 91.3363 4.88636 90.6762 4.88636C90.2214 4.88636 89.815 4.98497 89.4568 5.18217C89.1026 5.37938 88.8229 5.66714 88.6176 6.04545C88.4124 6.42377 88.3097 6.88258 88.3097 7.42188ZM96.8294 13V3.72727H98.2541V13H96.8294ZM97.5538 2.18182C97.2761 2.18182 97.0366 2.08724 96.8354 1.89808C96.6382 1.70893 96.5396 1.48153 96.5396 1.21591C96.5396 0.950284 96.6382 0.722893 96.8354 0.533735C97.0366 0.344578 97.2761 0.25 97.5538 0.25C97.8315 0.25 98.069 0.344578 98.2662 0.533735C98.4674 0.722893 98.568 0.950284 98.568 1.21591C98.568 1.48153 98.4674 1.70893 98.2662 1.89808C98.069 2.08724 97.8315 2.18182 97.5538 2.18182ZM102.288 7.42188V13H100.864V3.72727H102.24V5.17614H102.361C102.578 4.70526 102.908 4.32694 103.351 4.04119C103.793 3.75142 104.365 3.60653 105.065 3.60653C105.693 3.60653 106.242 3.73532 106.713 3.9929C107.184 4.24645 107.55 4.63281 107.812 5.15199C108.074 5.66714 108.204 6.31913 108.204 7.10795V13H106.78V7.20455C106.78 6.47609 106.591 5.90862 106.212 5.50213C105.834 5.09162 105.315 4.88636 104.655 4.88636C104.2 4.88636 103.793 4.98497 103.435 5.18217C103.081 5.37938 102.801 5.66714 102.596 6.04545C102.391 6.42377 102.288 6.88258 102.288 7.42188ZM114.551 16.6705C113.863 16.6705 113.271 16.5819 112.776 16.4048C112.281 16.2318 111.868 16.0024 111.538 15.7166C111.212 15.4349 110.953 15.133 110.76 14.8111L111.895 14.0142C112.023 14.1832 112.186 14.3764 112.384 14.5938C112.581 14.8151 112.85 15.0063 113.192 15.1673C113.539 15.3323 113.991 15.4148 114.551 15.4148C115.299 15.4148 115.917 15.2337 116.404 14.8714C116.891 14.5092 117.135 13.9418 117.135 13.169V11.2855H117.014C116.909 11.4545 116.76 11.6638 116.567 11.9134C116.378 12.1589 116.104 12.3782 115.746 12.5714C115.392 12.7605 114.913 12.8551 114.309 12.8551C113.561 12.8551 112.889 12.678 112.293 12.3239C111.701 11.9697 111.232 11.4545 110.886 10.7784C110.544 10.1023 110.373 9.28125 110.373 8.31534C110.373 7.36553 110.54 6.53847 110.874 5.83416C111.208 5.12583 111.673 4.57848 112.269 4.19212C112.864 3.80173 113.553 3.60653 114.333 3.60653C114.937 3.60653 115.416 3.70715 115.77 3.90838C116.128 4.10559 116.402 4.33097 116.591 4.58452C116.784 4.83404 116.933 5.0393 117.038 5.20028H117.183V3.72727H118.559V13.2656C118.559 14.0625 118.378 14.7105 118.016 15.2095C117.658 15.7126 117.175 16.0808 116.567 16.3143C115.963 16.5517 115.291 16.6705 114.551 16.6705ZM114.502 11.5753C115.074 11.5753 115.557 11.4445 115.951 11.1829C116.346 10.9213 116.646 10.545 116.851 10.054C117.056 9.56297 117.159 8.97538 117.159 8.29119C117.159 7.62311 117.058 7.0335 116.857 6.52237C116.656 6.01125 116.358 5.6108 115.963 5.32102C115.569 5.03125 115.082 4.88636 114.502 4.88636C113.899 4.88636 113.396 5.0393 112.993 5.34517C112.595 5.65104 112.295 6.06155 112.094 6.5767C111.897 7.09186 111.798 7.66335 111.798 8.29119C111.798 8.93513 111.899 9.50462 112.1 9.99964C112.305 10.4906 112.607 10.877 113.005 11.1587C113.408 11.4364 113.907 11.5753 114.502 11.5753Z" fill="black"/>
</svg>
