<svg width="350" height="72" viewBox="0 0 350 72" fill="none" xmlns="http://www.w3.org/2000/svg">
<g clip-path="url(#clip0_2875_761)">
<path d="M6.21812 35.7125C6.16182 35.7121 6.10569 35.7065 6.05047 35.6957C5.25812 35.6037 3.57564 35.5562 2.89606 35.5562C2.15211 35.5539 1.40899 35.6058 0.672713 35.7115H0.590884C0.474548 35.7273 0.356176 35.7059 0.25286 35.6506C0.149543 35.5953 0.066628 35.5089 0.0160864 35.4038C-0.0467821 35.2058 0.0769591 34.9753 0.346396 34.7882C1.57512 33.7189 2.46549 32.3197 2.91003 30.7596L3.03777 30.4627C4.08258 28.1372 15.0606 1.17069 15.2822 0.518548C15.4408 0.183075 15.6205 0 15.7991 0C15.9777 0 16.0985 0.133595 16.2092 0.377036C16.4088 0.805531 27.8439 28.8348 28.4516 30.3677C29.5114 32.8496 30.6031 34.4825 31.3755 34.7378C31.7557 34.9208 31.9832 35.1771 31.9383 35.3939C31.9034 35.5769 31.6849 35.6848 31.3256 35.7036H31.1061C30.8436 35.7036 30.5133 35.6779 30.1291 35.6482C29.5902 35.6076 28.9216 35.5562 28.1712 35.5562C27.2162 35.5562 24.441 35.6551 23.951 35.6957H23.8682C23.6117 35.6957 23.4401 35.6165 23.3752 35.4701C23.2814 35.2573 23.4122 34.9208 23.7185 34.5913C24.0987 34.2539 24.1596 33.6225 23.9031 32.6576C23.3623 30.6982 21.0461 24.6488 20.5182 23.5979C20.3963 23.394 20.2179 23.2291 20.0041 23.123C19.7904 23.0168 19.5504 22.9738 19.3127 22.9992C10.574 22.9992 10.4074 22.9992 10.3135 23.0447C9.97614 23.1945 9.68732 23.4344 9.47929 23.7374C9.2358 24.4183 6.4656 31.5374 6.28098 31.9382C6.04456 32.3618 5.94008 32.8454 5.98075 33.3278C6.02143 33.8103 6.20543 34.2699 6.50951 34.6487C6.61313 34.7468 6.68576 34.8726 6.71854 35.0109C6.75132 35.1492 6.74284 35.2939 6.69412 35.4275C6.654 35.5178 6.58699 35.5938 6.50209 35.6453C6.41719 35.6967 6.31845 35.7212 6.21911 35.7155L6.21812 35.7125ZM15.0686 9.40907C14.875 9.40907 14.6275 9.68022 14.4938 10.0375C14.3092 10.5867 11.4452 18.2946 10.8774 19.5603C10.7866 19.8077 10.7427 19.9958 10.8215 20.1096C10.9003 20.2234 11.05 20.2501 11.3404 20.2501H18.715C18.7873 20.2566 18.86 20.2449 18.9265 20.216C18.993 20.1871 19.051 20.142 19.0952 20.0848C19.1494 19.9661 19.1767 19.8371 19.1751 19.7068C19.1736 19.5765 19.1432 19.4481 19.0862 19.3308C18.9864 19.1477 17.8947 16.3184 16.9387 13.8217C16.2002 11.8801 15.4927 10.0513 15.3301 9.67132C15.2732 9.49913 15.1824 9.40808 15.0696 9.40808L15.0686 9.40907Z" fill="#55524F"/>
<path d="M42.3019 34.9208C41.792 34.6902 41.6992 34.0965 41.5625 33.1741C41.4198 32.0747 41.3779 31.0584 41.33 29.9985C41.284 29.766 41.3296 29.5249 41.4574 29.3247C41.5852 29.1245 41.7856 28.9805 42.0172 28.9223C42.2488 28.8642 42.4941 28.8962 42.7026 29.0119C42.9111 29.1276 43.067 29.3181 43.1382 29.5443C43.7872 30.7616 44.7858 31.7606 46.0076 32.4148C47.2294 33.0691 48.6194 33.3492 50.0018 33.2197C56.7717 33.2197 58.3035 25.5394 53.4796 22.0481C51.1145 20.3411 47.4073 17.6692 45.4114 16.2471C41.0975 13.1645 41.6513 5.76038 45.5941 2.67779C47.7769 1.13073 50.4334 0.382604 53.1103 0.561045C54.1761 0.561045 56.7278 1.11027 58.0261 1.11027C58.3953 1.11027 59.2315 1.01725 59.0918 1.84257C58.9531 3.12905 59.1377 4.88063 59.0918 5.57137C59.0918 7.13394 57.7945 7.2705 57.096 5.98304C56.6312 4.99626 55.8673 4.17809 54.9108 3.64282C53.9544 3.10755 52.8532 2.88191 51.7612 2.99743C50.6705 3.03434 49.6205 3.41692 48.7652 4.08903C47.9099 4.76113 47.2943 5.68738 47.0088 6.73187C46.7232 7.77636 46.7828 8.88411 47.1787 9.89257C47.5746 10.901 48.286 11.7571 49.2085 12.3353C50.6854 13.4337 56.6769 17.3951 57.8903 18.4064C62.7602 22.5944 61.6944 31.3325 56.5461 34.0005C54.1908 35.3027 51.538 35.9842 48.8413 35.9797C46.6081 36.1225 44.3714 35.7605 42.2999 34.9208" fill="#55524F"/>
<path d="M81.073 35.7019C79.9472 35.6 78.8159 35.5693 77.6861 35.6099C76.5101 35.5694 75.3327 35.6001 74.1605 35.7019C73.3721 35.7475 73.1406 35.2883 73.7434 34.8756C74.6664 34.3264 75.2742 32.8964 75.1404 27.2844V4.33275C75.1693 3.82232 75.0792 3.31216 74.8772 2.84179C74.6753 2.37142 74.3669 1.95346 73.9759 1.62027C73.5588 1.25115 73.6975 0.792969 74.2064 0.792969C74.9 0.792969 76.5265 0.883022 77.6861 0.930523C78.8457 0.883022 80.2827 0.792969 80.9752 0.792969C81.4872 0.792969 81.6249 1.25115 81.2078 1.62027C80.8107 1.94576 80.5015 2.36412 80.3081 2.83765C80.1148 3.31118 80.0433 3.82498 80.1001 4.33275C79.9155 5.4312 80.0073 21.4894 80.0073 27.2854C80.0073 32.9429 80.606 34.2304 81.4842 34.8766C82.1827 35.2883 81.9482 35.7485 81.0671 35.7029" fill="#55524F"/>
<path d="M97.4642 35.7115C97.4079 35.7111 97.3518 35.7055 97.2966 35.6947C96.5062 35.6027 94.8237 35.5552 94.1442 35.5552C93.3995 35.5529 92.6558 35.6049 91.9188 35.7105H91.837C91.7207 35.7263 91.6023 35.705 91.499 35.6496C91.3956 35.5943 91.3127 35.5079 91.2622 35.4028C91.1993 35.2049 91.3231 34.9743 91.5905 34.7872C92.8248 33.7125 93.7184 32.3059 94.1631 30.7378L94.2829 30.4578C95.3217 28.1481 106.305 1.18158 106.529 0.518548C106.688 0.183075 106.868 0 107.046 0C107.225 0 107.346 0.133595 107.454 0.377036C107.639 0.772874 118.965 28.5191 119.7 30.3677C120.759 32.8506 121.851 34.4844 122.622 34.7378C123.002 34.9208 123.227 35.1771 123.184 35.3939C123.15 35.5769 122.931 35.6848 122.575 35.7036H122.355C122.093 35.7036 121.762 35.6779 121.378 35.6482C120.839 35.6076 120.171 35.5562 119.42 35.5562C118.467 35.5562 115.69 35.6551 115.198 35.6957H115.115C114.859 35.6957 114.689 35.6185 114.624 35.4701C114.531 35.2573 114.663 34.9208 114.97 34.5893C115.35 34.2539 115.409 33.6205 115.154 32.6557C114.611 30.6874 112.293 24.6399 111.767 23.5959C111.645 23.3918 111.466 23.2269 111.252 23.1207C111.038 23.0146 110.798 22.9717 110.56 22.9972C101.823 22.9972 101.656 22.9972 101.563 23.0427C101.224 23.191 100.935 23.4311 100.728 23.7354C100.479 24.4351 97.6997 31.5532 97.5241 31.9382C97.2873 32.3619 97.183 32.8459 97.2244 33.3285C97.2658 33.8112 97.4511 34.2708 97.7566 34.6487C97.8602 34.7468 97.9329 34.8726 97.9656 35.0109C97.9984 35.1492 97.9899 35.2939 97.9412 35.4275C97.9009 35.5183 97.8335 35.5946 97.748 35.6462C97.6625 35.6977 97.5631 35.7219 97.4632 35.7155L97.4642 35.7115ZM106.315 9.40808C106.115 9.40808 105.874 9.67923 105.742 10.0365C105.542 10.6223 102.661 18.36 102.125 19.5594C102.033 19.8068 101.989 19.9948 102.07 20.1086C102.15 20.2224 102.298 20.2491 102.589 20.2491H109.963C110.036 20.2557 110.109 20.2438 110.176 20.2148C110.243 20.1857 110.301 20.1403 110.345 20.0828C110.399 19.964 110.426 19.8349 110.424 19.7046C110.422 19.5743 110.392 19.446 110.334 19.3288C110.235 19.1457 109.143 16.3165 108.187 13.8197C107.448 11.8781 106.741 10.0493 106.578 9.67033C106.514 9.50012 106.428 9.40116 106.315 9.40116V9.40808Z" fill="#55524F"/>
<path d="M167.637 1.57537C166.749 2.2196 166.195 3.50707 166.195 9.07255C166.195 14.6836 166.147 34.6041 166.147 35.6125C166.147 36.4863 165.313 36.5774 164.756 36.0262C159.38 30.6913 147.415 17.5742 139.296 9.07354C138.597 8.34124 138.09 7.87811 138.046 9.25661C138.046 11.4654 138.089 22.0907 138.089 27.387C137.951 32.9525 138.509 34.2855 139.434 34.9307C140.037 35.3463 139.853 35.8955 138.972 35.758C138.273 35.7125 136.885 35.5749 136.002 35.5749C135.256 35.5599 134.51 35.6212 133.776 35.758C132.895 35.8055 132.669 35.3463 133.359 34.9307C134.282 34.3369 134.836 32.8159 134.836 27.3415C134.836 22.6904 134.884 8.02457 134.884 3.83561C134.929 3.39491 134.843 2.95086 134.639 2.55714C134.434 2.16341 134.119 1.83686 133.732 1.61694C132.988 1.25376 133.452 0.748073 133.963 0.748073C134.567 0.748073 134.983 0.841095 136.143 0.885627C137.302 0.841095 137.489 0.793594 138.184 0.793594C138.694 0.793594 138.973 1.25376 139.107 1.57537C139.72 2.41422 140.387 3.21314 141.103 3.96723C142.447 5.43183 154.553 17.49 161.972 25.5404C162.76 26.3677 162.944 26.1342 162.944 25.2643L162.763 9.11906C162.809 3.55358 162.064 2.17309 161.232 1.57537C160.534 1.16172 160.768 0.699583 161.649 0.748073C162.429 0.890636 163.224 0.936839 164.015 0.885627C164.898 0.885627 166.519 0.842084 167.216 0.748073C168.097 0.610519 168.235 1.16172 167.633 1.57537" fill="#55524F"/>
<path d="M212.076 35.7484C211.136 35.7484 209.88 35.69 208.778 35.6405C207.915 35.6 207.171 35.5673 206.735 35.5673C205.702 35.5418 204.668 35.5865 203.641 35.7009C203.571 35.715 203.5 35.7223 203.429 35.7227C203.337 35.7345 203.243 35.7169 203.161 35.6725C203.08 35.628 203.014 35.5589 202.975 35.4753C202.955 35.3577 202.972 35.2369 203.024 35.1294C203.076 35.0219 203.16 34.9329 203.265 34.8746C204.131 34.3046 204.642 32.8439 204.521 27.3339C204.521 23.3923 204.501 14.2712 204.49 8.82844V4.29511C204.525 3.79764 204.453 3.29841 204.279 2.83068C204.104 2.36296 203.831 1.93748 203.478 1.58262C203.391 1.51155 203.327 1.41672 203.294 1.30993C203.261 1.20314 203.26 1.08909 203.292 0.98194C203.325 0.906955 203.381 0.843951 203.451 0.801597C203.522 0.759243 203.604 0.73962 203.686 0.745427C204.014 0.745427 204.425 0.769177 204.922 0.794907C205.62 0.833501 206.484 0.881001 207.442 0.881001C207.948 0.881001 208.595 0.850324 209.339 0.794907C210.283 0.734541 211.348 0.667249 212.404 0.667249C213.836 0.574497 215.27 0.825701 216.583 1.39955C217.713 1.95694 218.669 2.80662 219.352 3.85875C220.035 4.91088 220.418 6.12637 220.461 7.37671C220.461 11.3598 219.043 13.7715 215.996 14.9679C215.754 15.0391 215.596 15.1945 215.596 15.3509C215.596 15.5072 215.729 15.6022 215.955 15.6586C217.257 15.6511 218.54 15.9663 219.688 16.5755C220.836 17.1847 221.813 18.0686 222.529 19.147C223.466 20.8307 223.922 22.7362 223.847 24.658C223.89 26.9412 223.234 29.1837 221.967 31.0904C220.773 32.549 219.265 33.7244 217.553 34.5303C215.842 35.3363 213.97 35.7525 212.076 35.7484ZM211.492 2.90868C210.515 2.90868 208.698 2.90868 208.698 3.92005V30.458C208.634 30.9453 208.734 31.4399 208.983 31.8646C209.233 32.2893 209.617 32.6201 210.076 32.8054C210.747 33.0102 211.445 33.1152 212.147 33.1171C213.236 33.1123 214.309 32.8619 215.286 32.3848C217.715 31.2368 219.248 29.5832 219.378 24.8886C219.483 23.5452 219.226 22.1981 218.631 20.9864C218.037 19.7746 217.128 18.742 215.997 17.9951C214.836 17.3077 213.523 16.9141 212.174 16.8491H212.119C211.919 16.8465 211.728 16.7698 211.583 16.6343C211.437 16.4987 211.348 16.3141 211.333 16.1168C211.301 15.8808 211.354 15.6412 211.483 15.4402C211.612 15.2391 211.808 15.0897 212.037 15.0184C215.04 13.9011 216.379 12.6522 216.379 8.21094C216.377 4.69589 214.733 2.90868 211.492 2.90868Z" fill="#55524F"/>
<path d="M238.643 35.7125C238.587 35.7121 238.53 35.7065 238.475 35.6957C237.683 35.6037 236 35.5562 235.321 35.5562C234.577 35.5539 233.834 35.6058 233.098 35.7115H233.016C232.899 35.7273 232.781 35.7059 232.678 35.6506C232.574 35.5953 232.491 35.5089 232.441 35.4038C232.378 35.2058 232.502 34.9753 232.771 34.7882C234 33.7189 234.89 32.3197 235.335 30.7596L235.463 30.4627C236.507 28.1372 247.485 1.17069 247.707 0.518548C247.866 0.183075 248.045 0 248.224 0C248.403 0 248.523 0.133595 248.634 0.377036C248.834 0.805531 260.269 28.8348 260.876 30.3677C261.936 32.8496 263.028 34.4825 263.8 34.7378C264.181 34.9208 264.408 35.1771 264.363 35.3939C264.328 35.5769 264.11 35.6848 263.75 35.7036H263.531C263.268 35.7036 262.938 35.6779 262.554 35.6482C262.015 35.6076 261.346 35.5562 260.596 35.5562C259.641 35.5562 256.866 35.6551 256.376 35.6957H256.293C256.037 35.6957 255.865 35.6165 255.8 35.4701C255.706 35.2573 255.837 34.9208 256.143 34.5913C256.524 34.2539 256.584 33.6225 256.328 32.6576C255.787 30.6982 253.471 24.6488 252.943 23.5979C252.821 23.394 252.643 23.2291 252.429 23.123C252.215 23.0168 251.975 22.9738 251.738 22.9992C242.999 22.9992 242.832 22.9992 242.738 23.0447C242.401 23.1945 242.112 23.4344 241.904 23.7374C241.661 24.4183 238.89 31.5374 238.706 31.9382C238.469 32.3618 238.365 32.8454 238.406 33.3278C238.446 33.8103 238.63 34.2699 238.934 34.6487C239.038 34.7468 239.111 34.8726 239.143 35.0109C239.176 35.1492 239.168 35.2939 239.119 35.4275C239.079 35.5178 239.012 35.5938 238.927 35.6453C238.842 35.6967 238.743 35.7212 238.644 35.7155L238.643 35.7125ZM247.493 9.40907C247.3 9.40907 247.052 9.68022 246.919 10.0375C246.734 10.5867 243.87 18.2946 243.302 19.5603C243.211 19.8077 243.167 19.9958 243.246 20.1096C243.325 20.2234 243.475 20.2501 243.765 20.2501H251.14C251.212 20.2566 251.285 20.2449 251.351 20.216C251.418 20.1871 251.476 20.142 251.52 20.0848C251.574 19.9661 251.602 19.8371 251.6 19.7068C251.598 19.5765 251.568 19.4481 251.511 19.3308C251.411 19.1477 250.319 16.3184 249.364 13.8217C248.625 11.8801 247.918 10.0513 247.755 9.67132C247.698 9.49913 247.607 9.40808 247.494 9.40808L247.493 9.40907Z" fill="#55524F"/>
<path d="M308.817 1.57537C307.928 2.2196 307.375 3.50707 307.375 9.07255C307.375 14.6836 307.329 34.6041 307.329 35.6125C307.329 36.4863 306.494 36.5774 305.932 36.0262C300.56 30.6913 288.593 17.5742 280.474 9.07354C279.775 8.34124 279.269 7.87811 279.223 9.25661C279.223 11.4654 279.269 22.0907 279.269 27.387C279.131 32.9525 279.687 34.2855 280.614 34.9307C281.217 35.3463 281.031 35.8955 280.15 35.758C279.451 35.7125 278.063 35.5749 277.18 35.5749C276.437 35.5606 275.695 35.6219 274.965 35.758C274.084 35.8055 273.858 35.3463 274.546 34.9307C275.469 34.3369 276.023 32.8159 276.023 27.3415C276.023 22.6904 276.071 8.02457 276.071 3.83561C276.115 3.39406 276.029 2.94935 275.823 2.55549C275.617 2.16164 275.3 1.83558 274.911 1.61694C274.168 1.25376 274.636 0.748073 275.143 0.748073C275.742 0.748073 276.163 0.841095 277.322 0.885627C278.482 0.841095 278.667 0.793594 279.362 0.793594C279.872 0.793594 280.151 1.25376 280.285 1.57537C280.897 2.41512 281.564 3.21412 282.281 3.96723C283.625 5.43183 295.733 17.49 303.149 25.5404C303.936 26.3677 304.122 26.1342 304.122 25.2643L303.941 9.11906C303.989 3.55358 303.242 2.17309 302.41 1.57537C301.711 1.16172 301.946 0.699583 302.829 0.748073C303.609 0.890636 304.404 0.936839 305.195 0.885627C306.076 0.885627 307.698 0.842084 308.393 0.748073C309.277 0.610519 309.414 1.16172 308.813 1.57537" fill="#55524F"/>
<path d="M349.492 35.6584C349.073 35.7019 347.078 35.796 345.456 35.8415C344.708 35.9042 343.957 35.7675 343.281 35.4456C342.605 35.1237 342.027 34.6283 341.609 34.0107C340.777 32.8559 331.544 20.3484 331.175 19.8922C330.711 19.3429 330.294 18.7423 329.831 19.0649C329.505 19.2954 329.505 19.3855 329.505 20.0297C329.457 22.6027 329.505 25.3666 329.505 27.3438C329.551 32.9548 329.969 34.3343 330.896 34.9785C331.5 35.3922 331.361 35.8543 330.479 35.8058C329.308 35.6877 328.131 35.6418 326.954 35.6683C325.87 35.6415 324.785 35.6875 323.707 35.8058C322.919 35.8533 322.686 35.3922 323.292 34.9785C324.215 34.4293 324.821 32.9093 324.681 27.3438C324.681 21.5933 324.635 5.49355 324.635 4.34562C324.669 3.83077 324.586 3.31506 324.393 2.83583C324.201 2.35661 323.903 1.92585 323.522 1.57475C323.105 1.25313 323.247 0.792969 323.754 0.792969C324.453 0.792969 325.786 0.885001 326.953 0.885001C328.119 0.885001 329.781 0.792969 330.479 0.792969C330.991 0.792969 331.129 1.25313 330.712 1.57475C330.322 1.91942 330.016 2.34634 329.816 2.82402C329.615 3.3017 329.525 3.81796 329.552 4.33473C329.506 5.6212 329.506 9.80818 329.506 15.3747C329.506 15.8803 329.784 15.9684 330.245 15.4667C332.564 12.9818 339.294 3.96561 339.986 2.90872C340.492 2.03491 340.123 0.83948 341.148 0.83948C341.797 0.83948 343.235 0.885001 343.742 0.885001C344.341 0.885001 346.061 0.885001 346.383 0.83948C346.898 0.792969 346.941 1.48569 346.435 1.84986C345.312 2.49355 344.268 3.26541 343.326 4.14968C342.261 5.34511 336.462 12.5207 334.277 15.1896C333.765 15.8338 333.908 15.8823 334.229 16.2465C336.411 19.0075 344.387 29.8623 345.733 31.4704C346.614 32.5293 347.729 34.461 349.398 34.5985C350.186 34.6441 350.186 35.6109 349.491 35.6574" fill="#55524F"/>
<path d="M22.9199 71.9131C22.2533 71.9734 21.5813 71.8986 20.9447 71.6934C20.3081 71.4883 19.7202 71.1569 19.2167 70.7195C18.7132 70.2821 18.3046 69.7478 18.0157 69.1491C17.7268 68.5503 17.5637 67.8995 17.5361 67.2363C17.5361 65.2215 18.6907 63.6134 21.1705 62.1894C20.2273 61.0896 19.6952 59.7011 19.6637 58.2577C19.7074 57.3808 20.0914 56.5547 20.7353 55.9521C21.3792 55.3496 22.2332 55.0172 23.1185 55.0247H23.1723C23.6059 54.9802 24.0441 55.0238 24.4601 55.1528C24.8761 55.2818 25.2613 55.4936 25.592 55.7751C25.9228 56.0566 26.1923 56.402 26.384 56.7902C26.5756 57.1785 26.6855 57.6013 26.707 58.0331C26.707 60.2745 25.4346 61.1463 23.9607 62.1429C25.4329 63.9019 27.0006 65.5801 28.6569 67.17C28.6567 67.1679 28.657 67.1658 28.6577 67.1639C28.6584 67.1619 28.6594 67.1601 28.6608 67.1585C28.6622 67.157 28.6639 67.1557 28.6658 67.1548C28.6677 67.1539 28.6697 67.1533 28.6718 67.1532C28.6778 67.1532 28.6868 67.1661 28.6938 67.1809L28.7028 67.1997C28.7076 67.2118 28.7156 67.2224 28.726 67.2304C28.7363 67.2384 28.7486 67.2435 28.7617 67.2452C28.7986 67.2452 28.8425 67.2066 28.9004 67.1294C29.2134 66.6368 29.4108 66.0808 29.478 65.5023C29.5452 64.9239 29.4804 64.3379 29.2886 63.7876C29.1957 63.4442 29.0215 63.1277 28.7807 62.8644C28.5398 62.6011 28.2391 62.3985 27.9035 62.2735C27.8276 62.2538 27.76 62.2107 27.7104 62.1504C27.6609 62.0901 27.6321 62.0157 27.628 61.938C27.6269 61.8528 27.653 61.7695 27.7024 61.6998C27.7519 61.6302 27.8222 61.5778 27.9035 61.5501C28.1612 61.4538 28.4354 61.4084 28.7108 61.4165H28.9213C29.4272 61.3885 29.9285 61.5249 30.3491 61.8052C30.7696 62.0854 31.0865 62.4941 31.2514 62.9692C31.525 63.887 31.5412 64.8614 31.2984 65.7878C31.0556 66.7141 30.563 67.5573 29.8733 68.2269C30.2615 68.5752 30.5359 68.8345 30.7804 69.0621C31.1646 69.4283 31.443 69.6826 31.8881 70.0517C32.4384 70.6037 33.1674 70.9453 33.9468 71.0166C34.028 71.0152 34.1067 71.0441 34.1674 71.0977C34.228 71.1512 34.2661 71.2254 34.2741 71.3055C34.2877 71.386 34.2737 71.4687 34.2345 71.5404C34.1952 71.6121 34.133 71.6687 34.0576 71.7014C33.502 71.7983 32.9392 71.8496 32.3751 71.8548C32.2753 71.8548 32.1685 71.8637 32.0608 71.8716C31.8941 71.8805 31.7225 71.8914 31.5438 71.8914C30.8642 71.9096 30.2005 71.686 29.6727 71.261C29.7066 71.2872 29.7371 71.3175 29.7636 71.3511C29.2206 70.9574 28.7155 70.5148 28.2547 70.029C27.5577 70.7105 26.7189 71.2328 25.7971 71.5593C24.8752 71.8858 23.8926 72.0086 22.9179 71.9191L22.9199 71.9131ZM21.9679 63.2403C21.3253 63.5756 20.7862 64.077 20.4077 64.6915C20.0293 65.306 19.8256 66.0106 19.8184 66.7306C19.7832 67.2386 19.8582 67.7481 20.0384 68.2248C20.2186 68.7016 20.4997 69.1345 20.8628 69.4944C21.2259 69.8543 21.6626 70.1329 22.1435 70.3113C22.6243 70.4897 23.1382 70.5638 23.6503 70.5287H23.7312C25.0371 70.5058 26.2844 69.9869 27.2159 69.0789C25.9396 67.8914 24.1982 65.8489 22.7981 64.2111V64.2012C22.4968 63.8568 22.2263 63.5332 21.9679 63.2403ZM23.0546 56.1895C22.0976 56.2558 21.5996 56.9386 21.5996 58.1687C21.6843 59.3127 22.1972 60.3839 23.0376 61.1721C23.5385 60.8567 23.9472 60.4166 24.223 59.8957C24.4988 59.3747 24.632 58.7912 24.6093 58.2033C24.6093 56.808 24.1313 56.1885 23.0596 56.1885L23.0546 56.1895Z" fill="#55524F"/>
<path d="M72.7342 57.9703C72.2023 56.5641 70.5867 56.2138 68.8583 56.2138C65.7398 56.2138 62.4128 58.0119 62.4128 63.1103C62.4128 69.0825 66.2907 70.6431 68.5699 70.6431C70.287 70.7906 71.9947 70.2712 73.333 69.1943C73.6433 68.8865 74.0185 68.8648 73.8868 69.412C73.7541 69.8514 73.774 70.271 73.5984 70.839C73.4138 71.3684 73.2661 71.3476 72.9777 71.4545C71.5117 71.8024 70.0104 71.983 68.5031 71.9929C67.344 72.0484 66.186 71.8639 65.1028 71.4512C64.0196 71.0384 63.035 70.4063 62.2117 69.5953C61.3885 68.7844 60.7446 67.8122 60.3212 66.7408C59.8977 65.6694 59.704 64.5222 59.7524 63.3725C59.7524 58.6224 63.4327 54.9609 69.1238 54.9609C70.3652 54.9609 73.6144 55.2232 73.4437 55.9921C73.3549 56.4315 73.333 57.2232 73.2442 57.9475C73.2442 58.3137 72.8899 58.3137 72.7342 57.9693" fill="#55524F"/>
<path d="M86.6903 71.8174C86.665 71.8196 86.6397 71.8196 86.6144 71.8174C86.2452 71.7719 85.4469 71.7482 85.1096 71.7482C84.7537 71.7435 84.398 71.7667 84.0458 71.8174H84.0079C83.9495 71.8272 83.8895 71.8173 83.8374 71.7893C83.7853 71.7614 83.7442 71.7169 83.7205 71.6631C83.6905 71.5641 83.7504 71.4582 83.8772 71.3662C84.4686 70.8578 84.8993 70.1908 85.1176 69.4454L85.1784 69.3029C85.6514 68.246 90.9055 55.3437 91.0242 55.0052C91.1001 54.8439 91.1849 54.7578 91.2697 54.7578C91.3545 54.7578 91.4114 54.8241 91.4693 54.9409C91.604 55.2318 97.2701 69.1376 97.318 69.2584C97.822 70.4459 98.3449 71.2237 98.7151 71.3484C98.8997 71.4325 99.0035 71.5572 98.9846 71.6601C98.9656 71.763 98.8648 71.7996 98.6942 71.8105H98.5944C98.4686 71.8105 98.312 71.7977 98.1293 71.7828C97.8709 71.763 97.5496 71.7373 97.1893 71.7373C96.7383 71.7373 95.416 71.7798 95.1725 71.8066H95.1316C95.0079 71.8066 94.927 71.768 94.8951 71.6967C94.8492 71.5978 94.9121 71.4335 95.0598 71.2742C95.2444 71.1148 95.2703 70.813 95.1486 70.3588C94.8861 69.4098 93.7804 66.5261 93.529 66.0352C93.4715 65.9395 93.3881 65.8618 93.2882 65.8109C93.1884 65.76 93.0761 65.7379 92.9642 65.7473C88.7919 65.7473 88.717 65.7473 88.6731 65.769C88.511 65.8387 88.3725 65.9531 88.274 66.0986C88.1612 66.4113 86.834 69.8086 86.7472 70.0085C86.6339 70.2106 86.5837 70.4416 86.6031 70.6721C86.6225 70.9025 86.7105 71.1221 86.8559 71.3029C86.9044 71.3492 86.9386 71.4081 86.9547 71.4729C86.9708 71.5377 86.968 71.6057 86.9467 71.669C86.9275 71.7191 86.8916 71.7611 86.8449 71.7881C86.7983 71.8151 86.7437 71.8255 86.6903 71.8174ZM90.9264 59.2496C90.8266 59.2496 90.7069 59.403 90.653 59.5514C90.5602 59.8295 89.188 63.5098 88.9246 64.0966C88.8817 64.2154 88.8597 64.3054 88.8987 64.3599C88.9376 64.4143 89.0074 64.4262 89.1461 64.4262H92.6588C92.6938 64.4295 92.7291 64.4239 92.7614 64.4101C92.7936 64.3963 92.8219 64.3746 92.8434 64.347C92.8691 64.2893 92.8824 64.227 92.8824 64.1639C92.8824 64.1009 92.8691 64.0385 92.8434 63.9808C92.7915 63.8908 92.2447 62.4717 91.7647 61.2209C91.4134 60.3302 91.111 59.5504 91.0442 59.3763C91.0162 59.2941 90.9743 59.2496 90.9204 59.2496H90.9264Z" fill="#55524F"/>
<path d="M119.775 59.1778C119.794 59.8418 119.667 60.5021 119.402 61.1121C119.137 61.7221 118.74 62.267 118.239 62.7085C117.739 63.15 117.147 63.4774 116.505 63.6676C115.863 63.8577 115.187 63.906 114.525 63.8091C114.414 63.7947 114.312 63.7415 114.238 63.6591C114.163 63.5767 114.121 63.4706 114.118 63.3599C114.116 63.2493 114.154 63.1414 114.224 63.0559C114.295 62.9704 114.395 62.9129 114.505 62.8937C114.658 62.8294 114.689 62.9195 114.924 62.8512C116.894 62.5147 117.405 61.4173 117.359 59.3282C117.393 58.9367 117.349 58.5423 117.228 58.168C117.107 57.7938 116.911 57.4473 116.654 57.1488C116.396 56.8503 116.081 56.6058 115.726 56.4296C115.372 56.2535 114.986 56.1492 114.59 56.1229C113.992 56.1229 113.086 56.1447 113.086 56.5841V68.3603C113.017 68.9297 113.092 69.507 113.305 70.0403C113.517 70.5736 113.86 71.0461 114.303 71.4152C114.591 71.6131 114.525 71.9406 114.103 71.8763C113.86 71.8763 112.626 71.7427 112.256 71.7427H112.236C111.993 71.7427 110.818 71.81 110.376 71.8545C110.007 71.9189 109.888 71.6566 110.177 71.4587C110.62 71.1984 110.915 70.4493 110.841 67.7705V56.8028C110.782 55.9478 110.519 55.6618 110.319 55.5074C110.12 55.353 110.187 55.1116 110.428 55.1116C110.851 55.1116 111.536 55.1977 112.4 55.1759C114.018 54.9708 115.661 55.0543 117.25 55.4223C118.013 55.7109 118.666 56.2282 119.118 56.9022C119.571 57.5762 119.8 58.3734 119.775 59.1828" fill="#55524F"/>
<path d="M135.161 71.8025C134.623 71.7522 134.083 71.7369 133.543 71.757C132.984 71.7373 132.424 71.7525 131.867 71.8025C131.498 71.8243 131.379 71.6046 131.668 71.4067C132.113 71.1434 132.406 70.4636 132.334 67.7837V56.8289C132.348 56.5851 132.304 56.3416 132.208 56.1169C132.112 55.8922 131.965 55.6924 131.779 55.5326C131.572 55.3564 131.639 55.1367 131.882 55.1367C132.213 55.1367 132.99 55.1803 133.545 55.203C134.097 55.1803 134.783 55.1367 135.116 55.1367C135.357 55.1367 135.426 55.3564 135.226 55.5326C135.037 55.6883 134.889 55.8882 134.796 56.1145C134.704 56.3407 134.669 56.5862 134.696 56.8289C134.607 57.3544 134.652 65.0208 134.652 67.7897C134.652 70.4893 134.94 71.1048 135.359 71.4126C135.693 71.6105 135.583 71.8322 135.16 71.8084" fill="#55524F"/>
<path d="M158.172 55.331C158.172 56.0109 158.261 56.7956 158.261 57.2192C158.261 57.4844 157.892 57.4844 157.729 57.331C157.106 56.7547 156.299 56.4127 155.448 56.3642C154.907 56.2759 154.358 56.2463 153.81 56.2761C153.323 56.3186 153.411 56.758 153.387 57.1915V67.695C153.387 70.3739 153.631 71.1438 154.054 71.4288C154.384 71.6267 154.276 71.8484 153.854 71.8246C153.324 71.7663 152.791 71.7439 152.258 71.7573C151.71 71.744 151.163 71.7665 150.618 71.8246C150.249 71.8464 150.13 71.6267 150.419 71.4288C150.884 71.1428 151.104 70.4639 151.104 67.7841C151.104 64.9726 151.128 57.7466 151.128 57.2172C151.104 56.756 151.082 56.2741 150.75 56.2741C150.165 56.2541 149.58 56.2836 149.001 56.3622C148.142 56.3782 147.324 56.7249 146.719 57.329C146.56 57.4844 146.19 57.4844 146.19 57.2261C146.19 56.8016 146.279 56.0099 146.279 55.331C146.279 54.9817 146.464 55.0015 146.698 55.0658C147.879 55.2369 149.075 55.2814 150.266 55.1984H154.185C155.375 55.2814 156.571 55.2366 157.751 55.0648C157.995 55.0005 158.172 54.9807 158.172 55.33" fill="#55524F"/>
<path d="M168.873 71.8174C168.848 71.8196 168.822 71.8196 168.797 71.8174C168.428 71.7719 167.628 71.7482 167.29 71.7482C166.935 71.7439 166.58 71.767 166.228 71.8174H166.19C166.132 71.8272 166.072 71.8173 166.02 71.7893C165.968 71.7614 165.927 71.7169 165.903 71.6631C165.873 71.5641 165.933 71.4582 166.062 71.3662C166.645 70.8597 167.07 70.1974 167.284 69.4583L167.352 69.2989C167.847 68.2163 173.094 55.3308 173.205 55.0052C173.281 54.8439 173.365 54.7578 173.45 54.7578C173.535 54.7578 173.592 54.8241 173.65 54.9409C173.75 55.1626 179.216 68.5439 179.497 69.2584C180.003 70.4459 180.526 71.2237 180.894 71.3484C181.078 71.4325 181.182 71.5572 181.163 71.6581C181.144 71.7591 181.043 71.7986 180.872 71.8105H180.772C180.648 71.8105 180.492 71.7977 180.308 71.7828C180.048 71.763 179.726 71.7373 179.364 71.7373C178.915 71.7373 177.595 71.7798 177.349 71.8066H177.31C177.186 71.8066 177.106 71.768 177.074 71.6967C177.028 71.5978 177.091 71.4335 177.236 71.2742C177.421 71.1148 177.449 70.813 177.327 70.3588C177.069 69.4098 175.961 66.533 175.708 66.0352C175.651 65.9391 175.567 65.8609 175.467 65.8099C175.367 65.7589 175.255 65.7372 175.143 65.7473C170.969 65.7473 170.896 65.7473 170.844 65.769C170.682 65.8387 170.543 65.9531 170.445 66.0986C170.328 66.4261 168.999 69.8234 168.916 70.0085C168.803 70.211 168.754 70.4419 168.774 70.6723C168.793 70.9026 168.881 71.1221 169.027 71.3029C169.075 71.3492 169.109 71.4081 169.125 71.4729C169.141 71.5377 169.139 71.6057 169.117 71.669C169.099 71.7169 169.065 71.7573 169.02 71.7841C168.976 71.811 168.924 71.8227 168.873 71.8174ZM173.109 59.2496C173.009 59.2496 172.889 59.403 172.836 59.5514C172.742 59.8334 171.359 63.5217 171.107 64.0966C171.064 64.2154 171.042 64.3054 171.081 64.3589C171.12 64.4123 171.19 64.4262 171.327 64.4262H174.841C174.876 64.4297 174.912 64.4242 174.944 64.4104C174.976 64.3965 175.005 64.3747 175.026 64.347C175.052 64.2893 175.065 64.227 175.065 64.1639C175.065 64.1009 175.052 64.0385 175.026 63.9808C174.978 63.8967 174.494 62.637 174.028 61.4168C173.659 60.4589 173.314 59.5564 173.23 59.3693C173.202 59.2872 173.16 59.2427 173.106 59.2427L173.109 59.2496Z" fill="#55524F"/>
<path d="M201.935 69.2135C201.913 69.6528 201.691 70.9057 201.602 71.4113C201.514 71.7627 201.359 71.8309 201.028 71.8309C200.784 71.8309 197.617 71.7636 196.509 71.7636C196.244 71.7636 192.631 71.8309 192.411 71.8309H192.397C192.027 71.8507 191.909 71.6093 192.197 71.4113C193.037 70.7543 192.838 68.8473 192.838 67.8092V56.8485C192.873 56.6046 192.841 56.3559 192.747 56.128C192.652 55.9001 192.499 55.7013 192.301 55.5521C192.103 55.374 192.167 55.1562 192.412 55.1562C192.744 55.1562 193.187 55.1998 193.741 55.1998C194.295 55.1998 195.182 55.1562 195.512 55.1562C195.756 55.1562 195.824 55.374 195.624 55.5521C195.438 55.7118 195.291 55.9116 195.195 56.1364C195.099 56.3611 195.056 56.6047 195.069 56.8485V67.3679C195.069 68.2268 195.093 68.9067 195.136 69.4094C195.175 69.6753 195.303 69.9203 195.501 70.1044C195.698 70.2884 195.953 70.4007 196.223 70.4227C197.233 70.6056 198.271 70.5531 199.257 70.2694C200.06 70.0573 200.793 69.6407 201.383 69.0611C201.626 68.7958 202.004 68.8631 201.937 69.2144" fill="#55524F"/>
<path d="M238.922 55.331C238.922 56.0109 239.011 56.7956 239.011 57.2192C239.011 57.4844 238.642 57.4844 238.479 57.331C237.855 56.7548 237.048 56.4129 236.197 56.3642C235.656 56.2759 235.107 56.2463 234.56 56.2761C234.072 56.3186 234.16 56.758 234.138 57.1915V67.695C234.138 70.3739 234.382 71.1438 234.803 71.4288C235.135 71.6267 235.025 71.8484 234.603 71.8246C234.073 71.7663 233.54 71.7439 233.007 71.7573C232.459 71.744 231.912 71.7665 231.367 71.8246C230.998 71.8464 230.879 71.6267 231.168 71.4288C231.633 71.1428 231.854 70.4639 231.854 67.7841C231.854 64.9726 231.876 57.7466 231.876 57.2172C231.854 56.756 231.832 56.2741 231.498 56.2741C230.913 56.2542 230.328 56.2836 229.749 56.3622C228.89 56.3786 228.072 56.7253 227.467 57.329C227.308 57.4844 226.938 57.4844 226.938 57.2261C226.938 56.8016 227.029 56.0099 227.029 55.331C227.029 54.9817 227.205 55.0015 227.448 55.0658C228.629 55.237 229.824 55.2815 231.014 55.1984H234.935C236.124 55.2815 237.319 55.2367 238.499 55.0648C238.743 55.0005 238.922 54.9807 238.922 55.33" fill="#55524F"/>
<path d="M261.849 71.7603C261.158 71.8417 260.462 71.8718 259.766 71.8503C259.32 71.8445 258.884 71.7146 258.508 71.4753C258.132 71.2359 257.832 70.8968 257.641 70.4965C256.928 69.2645 254.227 64.0869 254.138 63.9296C253.874 63.4457 254.029 63.0488 254.293 62.9845C254.447 62.9628 254.736 62.8747 254.847 62.8747C256.553 62.369 257.15 61.226 257.107 59.3398C257.127 58.9348 257.066 58.5298 256.928 58.1483C256.789 57.7667 256.575 57.4162 256.299 57.117C256.023 56.8179 255.69 56.5759 255.319 56.4053C254.948 56.2346 254.547 56.1385 254.138 56.1227C253.497 56.1227 252.699 56.1444 252.633 56.5838C252.633 64.9073 252.653 67.7187 252.653 68.7311C252.721 70.4876 253.32 71.213 253.673 71.4525C253.961 71.6504 253.895 71.9136 253.473 71.8483C253.228 71.8483 252.454 71.7365 252.119 71.7365C251.855 71.7365 250.393 71.78 249.951 71.8483C249.509 71.9166 249.463 71.6504 249.751 71.4525C250.216 71.1665 250.418 70.5074 250.418 67.8296C250.418 65.1517 250.395 57.331 250.395 56.8015C250.406 56.561 250.364 56.321 250.272 56.098C250.181 55.8749 250.042 55.6741 249.865 55.5091C249.663 55.331 249.73 55.1133 249.974 55.1133C250.395 55.1133 251.126 55.1994 251.947 55.1776C253.59 55.0498 255.243 55.1463 256.859 55.4646C257.611 55.7684 258.26 56.2796 258.728 56.9377C259.196 57.5958 259.464 58.3731 259.5 59.1775C259.558 60.0415 259.339 60.9014 258.874 61.6346C258.41 62.3678 257.724 62.9369 256.914 63.2606C256.76 63.3269 256.36 63.3942 256.56 63.6545C257.74 65.9249 259.039 68.1328 260.452 70.2689C260.608 70.4985 260.811 70.6931 261.048 70.84C261.284 70.987 261.55 71.083 261.826 71.122C262.136 71.122 262.195 71.6949 261.848 71.7593" fill="#55524F"/>
<path d="M287.587 71.8503C287.254 71.8285 287.099 71.783 286.678 71.783C286.523 71.783 285.658 71.8503 285.414 71.8503C284.973 71.9146 284.906 71.213 284.906 70.5302C284.906 70.3323 284.752 70.3323 284.596 70.4876C283.102 71.47 281.337 71.9686 279.546 71.9146C278.134 71.9816 276.737 71.6048 275.554 70.838C274.932 70.2044 274.457 69.4438 274.162 68.6094C273.868 67.7749 273.76 66.8867 273.847 66.0067C273.847 63.3734 273.871 57.1993 273.871 56.8283C273.882 56.584 273.84 56.3403 273.75 56.1131C273.659 55.8858 273.521 55.68 273.345 55.5091C273.101 55.331 273.208 55.1133 273.455 55.1133C273.744 55.1133 274.505 55.1776 275.027 55.1994C275.581 55.1776 276.202 55.1133 276.49 55.1133C276.733 55.1133 276.8 55.331 276.601 55.5091C276.429 55.6824 276.294 55.8892 276.207 56.1164C276.119 56.3435 276.079 56.5862 276.091 56.8292V65.8999C276.091 70.3352 279.569 71.211 282.76 70.07C283.6 69.7662 284.907 68.5797 284.907 67.5446V56.8273C284.928 56.5775 284.887 56.3265 284.786 56.0965C284.686 55.8665 284.53 55.6647 284.332 55.5091C284.132 55.333 284.221 55.1133 284.464 55.1133C284.753 55.1133 285.595 55.1776 286.149 55.1994C286.703 55.1776 287.232 55.1133 287.565 55.1133C287.808 55.1133 287.875 55.331 287.676 55.5091C287.496 55.6783 287.356 55.8839 287.264 56.1117C287.173 56.3395 287.131 56.5842 287.144 56.8292V67.8504C287.144 70.3758 287.365 71.1467 287.784 71.4525C288.075 71.6504 287.969 71.8721 287.585 71.8483" fill="#55524F"/>
<path d="M301.157 71.4323C300.914 71.3245 300.877 71.0365 300.805 70.5922C300.736 70.0697 300.715 69.5857 300.688 69.082C300.669 68.9719 300.692 68.8584 300.753 68.7645C300.815 68.6706 300.909 68.6031 301.019 68.5755C301.128 68.548 301.244 68.5624 301.343 68.616C301.442 68.6696 301.517 68.7583 301.553 68.8643C301.863 69.4457 302.34 69.9229 302.923 70.2355C303.507 70.5482 304.17 70.6823 304.831 70.6209C305.474 70.6488 306.108 70.4647 306.635 70.0972C307.161 69.7297 307.55 69.1995 307.74 68.5897C307.93 67.9798 307.912 67.3247 307.686 66.7265C307.461 66.1284 307.043 65.6211 306.496 65.284C305.366 64.4705 303.593 63.1939 302.642 62.5131C302.183 62.103 301.817 61.6002 301.568 61.0386C301.32 60.4769 301.196 59.8692 301.204 59.256C301.211 58.6428 301.351 58.0384 301.613 57.4829C301.875 56.9275 302.253 56.434 302.723 56.0352C303.767 55.2941 305.038 54.9368 306.319 55.0248C306.827 55.0248 308.045 55.29 308.666 55.29C308.85 55.29 309.242 55.2425 309.176 55.6394C309.109 56.2549 309.198 57.0881 309.176 57.4206C309.176 58.1678 308.555 58.2361 308.223 57.6186C308.002 57.1469 307.638 56.7557 307.181 56.4997C306.725 56.2438 306.199 56.136 305.678 56.1916C305.158 56.2101 304.658 56.393 304.251 56.7135C303.844 57.0341 303.551 57.4754 303.415 57.9731C303.278 58.4707 303.306 58.9984 303.494 59.4792C303.682 59.9599 304.021 60.3683 304.46 60.6447C305.169 61.1702 308.026 63.0643 308.602 63.5453C309.127 64.0392 309.533 64.6441 309.79 65.3149C310.047 65.9857 310.149 66.7054 310.087 67.4204C310.026 68.1355 309.803 68.8276 309.435 69.4456C309.067 70.0635 308.563 70.5913 307.961 70.99C306.837 71.6114 305.57 71.9362 304.283 71.9331C303.216 72.0036 302.147 71.8324 301.157 71.4323Z" fill="#55524F"/>
<path d="M332.38 55.331C332.38 56.0109 332.469 56.7956 332.469 57.2192C332.469 57.4844 332.1 57.4844 331.937 57.331C331.313 56.7548 330.506 56.4129 329.655 56.3642C329.114 56.2759 328.565 56.2463 328.018 56.2761C327.53 56.3186 327.618 56.758 327.596 57.1915V67.695C327.596 70.3739 327.84 71.1438 328.261 71.4288C328.593 71.6267 328.483 71.8484 328.061 71.8246C327.531 71.7663 326.998 71.7439 326.465 71.7573C325.917 71.744 325.37 71.7665 324.825 71.8246C324.456 71.8464 324.337 71.6267 324.626 71.4288C325.091 71.1428 325.312 70.4639 325.312 67.7841C325.312 64.9726 325.334 57.7466 325.334 57.2172C325.312 56.756 325.29 56.2741 324.956 56.2741C324.371 56.2542 323.786 56.2836 323.207 56.3622C322.348 56.3786 321.53 56.7253 320.925 57.329C320.766 57.4844 320.396 57.4844 320.396 57.2261C320.396 56.8016 320.487 56.0099 320.487 55.331C320.487 54.9817 320.663 55.0015 320.906 55.0658C322.087 55.237 323.282 55.2815 324.472 55.1984H328.393C329.582 55.2815 330.777 55.2367 331.957 55.0648C332.201 55.0005 332.38 54.9807 332.38 55.33" fill="#55524F"/>
</g>
<defs>
<clipPath id="clip0_2875_761">
<rect width="350" height="72" fill="white"/>
</clipPath>
</defs>
</svg>
