<svg width="451" height="406" viewBox="0 0 451 406" fill="none" xmlns="http://www.w3.org/2000/svg">
<path d="M299.916 354.059V64.4445C299.916 55.7551 292.886 48.7109 284.213 48.7109L151.733 48.7109C143.06 48.7109 136.03 55.7551 136.03 64.4445L136.03 354.059C136.03 362.749 143.06 369.793 151.733 369.793H284.213C292.886 369.793 299.916 362.749 299.916 354.059Z" fill="#0D0C26"/>
<path d="M296.561 334.517V68.8879C296.561 67.9154 295.774 67.127 294.803 67.127L141.163 67.127C140.193 67.127 139.406 67.9154 139.406 68.8879L139.406 334.517C139.406 335.489 140.193 336.278 141.163 336.278H294.803C295.774 336.278 296.561 335.489 296.561 334.517Z" fill="white"/>
<path d="M296.549 68.8977V101.919H139.394V68.8977C139.394 67.9309 140.187 67.1367 141.151 67.1367L294.791 67.1367C295.756 67.1367 296.549 67.9309 296.549 68.8977Z" fill="#410EAD"/>
<path d="M217.979 362.415C223.054 362.415 227.168 358.293 227.168 353.208C227.168 348.122 223.054 344 217.979 344C212.903 344 208.789 348.122 208.789 353.208C208.789 358.293 212.903 362.415 217.979 362.415Z" stroke="#EEEFF2" stroke-miterlimit="10"/>
<path d="M217.977 60.0941C219.246 60.0941 220.275 59.0635 220.275 57.7921C220.275 56.5208 219.246 55.4902 217.977 55.4902C216.708 55.4902 215.68 56.5208 215.68 57.7921C215.68 59.0635 216.708 60.0941 217.977 60.0941Z" fill="#EEEFF2"/>
<path fill-rule="evenodd" clip-rule="evenodd" d="M235.589 88.9826C222.919 82.0538 232.086 73.4447 235.589 79.2455C239.093 73.4447 248.259 82.0538 235.589 88.9826Z" stroke="#EEEFF2" stroke-width="1.3" stroke-miterlimit="10"/>
<path d="M263.412 74.8145H267.272L270.27 85.7025H279.574L282.148 78.3939H268.558" stroke="#EEEFF2" stroke-width="1.3" stroke-miterlimit="10" stroke-linecap="round"/>
<path d="M271.464 91.5031C272.277 91.5031 272.935 90.8435 272.935 90.0299C272.935 89.2162 272.277 88.5566 271.464 88.5566C270.652 88.5566 269.994 89.2162 269.994 90.0299C269.994 90.8435 270.652 91.5031 271.464 91.5031Z" fill="#EEEFF2"/>
<path fill-rule="evenodd" clip-rule="evenodd" d="M279.449 89.7525C279.449 88.9353 278.794 88.2793 277.978 88.2793C277.163 88.2793 276.508 88.9353 276.508 89.7525C276.508 90.5697 277.163 91.2257 277.978 91.2257C278.794 91.2257 279.449 90.5697 279.449 89.7525Z" fill="#EEEFF2"/>
<path d="M201.62 78.6721C199.943 76.4162 196.761 75.9558 194.51 77.6362C192.258 79.3166 191.799 82.5047 193.476 84.7606C195.153 87.0165 198.335 87.4769 200.587 85.7965C202.838 84.1161 203.297 80.9279 201.62 78.6721Z" stroke="#EEEFF2" stroke-width="1.3" stroke-miterlimit="10" stroke-linecap="round"/>
<path d="M200.586 85.7969L204.457 89.6871" stroke="#EEEFF2" stroke-width="1.3" stroke-miterlimit="10" stroke-linecap="round"/>
<path d="M150.975 77.8535H167.114" stroke="#EEEFF2" stroke-width="1.3" stroke-miterlimit="10" stroke-linecap="round"/>
<path d="M150.975 82.8711H167.114" stroke="#EEEFF2" stroke-width="1.3" stroke-miterlimit="10" stroke-linecap="round"/>
<path d="M150.975 88.4551H167.114" stroke="#EEEFF2" stroke-width="1.3" stroke-miterlimit="10" stroke-linecap="round"/>
<path d="M203.252 292.449H159.658V307.791H203.252V292.449Z" fill="#0D0C26"/>
<path d="M278.828 292.449H235.234V307.791H278.828V292.449Z" fill="#0D0C26"/>
<path d="M203.252 165.775H159.658V180.749H203.252V165.775Z" fill="#0D0C26"/>
<path d="M278.828 165.775H235.234V180.749H278.828V165.775Z" fill="#0D0C26"/>
<path d="M201.621 290.262H158.027V305.604H201.621V290.262Z" fill="#410EAD"/>
<path d="M277.183 290.262H233.59V305.604H277.183V290.262Z" fill="#410EAD"/>
<path d="M249.216 293.484C249.165 293.052 248.958 292.717 248.594 292.478C248.23 292.24 247.784 292.12 247.256 292.12C246.87 292.12 246.532 292.183 246.242 292.308C245.955 292.433 245.73 292.605 245.569 292.823C245.409 293.042 245.33 293.291 245.33 293.569C245.33 293.802 245.385 294.002 245.496 294.17C245.61 294.335 245.755 294.472 245.931 294.583C246.107 294.691 246.292 294.781 246.485 294.852C246.678 294.92 246.855 294.975 247.017 295.018L247.904 295.257C248.131 295.316 248.384 295.399 248.662 295.504C248.944 295.609 249.212 295.752 249.468 295.934C249.726 296.113 249.939 296.343 250.107 296.624C250.275 296.906 250.358 297.251 250.358 297.66C250.358 298.132 250.235 298.558 249.988 298.938C249.743 299.319 249.385 299.622 248.914 299.846C248.445 300.07 247.875 300.183 247.205 300.183C246.58 300.183 246.039 300.082 245.581 299.88C245.127 299.678 244.769 299.397 244.507 299.036C244.249 298.676 244.103 298.257 244.069 297.779H245.159C245.188 298.109 245.299 298.382 245.492 298.597C245.688 298.811 245.935 298.97 246.233 299.075C246.534 299.177 246.858 299.228 247.205 299.228C247.608 299.228 247.971 299.163 248.292 299.032C248.613 298.899 248.867 298.714 249.054 298.478C249.242 298.24 249.336 297.961 249.336 297.643C249.336 297.353 249.255 297.117 249.093 296.936C248.931 296.754 248.718 296.606 248.453 296.492C248.189 296.379 247.904 296.279 247.597 296.194L246.523 295.887C245.841 295.691 245.301 295.411 244.904 295.048C244.506 294.684 244.307 294.208 244.307 293.62C244.307 293.132 244.439 292.705 244.703 292.342C244.971 291.975 245.328 291.691 245.777 291.49C246.229 291.285 246.733 291.183 247.29 291.183C247.853 291.183 248.353 291.284 248.79 291.485C249.228 291.684 249.574 291.957 249.83 292.303C250.088 292.65 250.225 293.044 250.239 293.484H249.216ZM252.096 300.029V291.302H253.153V295.188H257.806V291.302H258.863V300.029H257.806V296.126H253.153V300.029H252.096ZM268.342 295.666C268.342 296.586 268.176 297.382 267.844 298.052C267.511 298.722 267.055 299.24 266.476 299.603C265.896 299.967 265.234 300.149 264.49 300.149C263.746 300.149 263.084 299.967 262.504 299.603C261.925 299.24 261.469 298.722 261.136 298.052C260.804 297.382 260.638 296.586 260.638 295.666C260.638 294.745 260.804 293.95 261.136 293.279C261.469 292.609 261.925 292.092 262.504 291.728C263.084 291.365 263.746 291.183 264.49 291.183C265.234 291.183 265.896 291.365 266.476 291.728C267.055 292.092 267.511 292.609 267.844 293.279C268.176 293.95 268.342 294.745 268.342 295.666ZM267.32 295.666C267.32 294.91 267.193 294.272 266.94 293.752C266.69 293.232 266.351 292.839 265.922 292.572C265.496 292.305 265.018 292.171 264.49 292.171C263.962 292.171 263.483 292.305 263.054 292.572C262.628 292.839 262.288 293.232 262.036 293.752C261.786 294.272 261.661 294.91 261.661 295.666C261.661 296.421 261.786 297.059 262.036 297.579C262.288 298.099 262.628 298.492 263.054 298.759C263.483 299.026 263.962 299.16 264.49 299.16C265.018 299.16 265.496 299.026 265.922 298.759C266.351 298.492 266.69 298.099 266.94 297.579C267.193 297.059 267.32 296.421 267.32 295.666ZM270.119 300.029V291.302H273.068C273.753 291.302 274.313 291.426 274.747 291.673C275.185 291.917 275.509 292.248 275.719 292.666C275.929 293.083 276.034 293.549 276.034 294.063C276.034 294.578 275.929 295.045 275.719 295.465C275.511 295.886 275.19 296.221 274.756 296.471C274.321 296.718 273.764 296.842 273.085 296.842H270.972V295.904H273.051C273.52 295.904 273.896 295.823 274.18 295.661C274.464 295.499 274.67 295.281 274.798 295.005C274.929 294.727 274.994 294.413 274.994 294.063C274.994 293.714 274.929 293.401 274.798 293.126C274.67 292.85 274.463 292.634 274.176 292.478C273.889 292.319 273.509 292.24 273.034 292.24H271.176V300.029H270.119Z" fill="#EEEFF2"/>
<path d="M166.561 315.929L163.138 315.618L161.783 312.545L160.416 315.664L157.004 316.078L159.6 318.369L158.681 321.868L161.783 320.256L165.183 321.868L164.034 318.369L166.561 315.929Z" fill="#C9AAFF"/>
<path d="M178.589 315.929L175.165 315.618L173.81 312.545L172.443 315.664L169.031 316.078L171.627 318.369L170.708 321.868L173.81 320.256L177.21 321.868L176.061 318.369L178.589 315.929Z" fill="#C9AAFF"/>
<path d="M190.282 315.929L186.859 315.618L185.503 312.545L184.136 315.664L180.725 316.078L183.321 318.369L182.402 321.868L185.503 320.256L188.903 321.868L187.755 318.369L190.282 315.929Z" fill="#C9AAFF"/>
<path d="M197.865 312.545L196.498 315.664L193.086 316.078L195.682 318.369L194.763 321.868L197.865 320.256" fill="#C9AAFF"/>
<path d="M197.863 320.256L201.263 321.868L200.115 318.369L202.642 315.929L199.219 315.618L197.863 312.545" fill="#D1D1D1"/>
<path d="M241.114 315.929L237.691 315.618L236.335 312.545L234.968 315.664L231.557 316.078L234.153 318.369L233.245 321.868L236.335 320.256L239.735 321.868L238.598 318.369L241.114 315.929Z" fill="#C9AAFF"/>
<path d="M253.141 315.929L249.718 315.618L248.363 312.545L246.996 315.664L243.584 316.078L246.18 318.369L245.273 321.868L248.363 320.256L251.763 321.868L250.626 318.369L253.141 315.929Z" fill="#C9AAFF"/>
<path d="M264.835 315.929L261.411 315.618L260.056 312.545L258.689 315.664L255.277 316.078L257.873 318.369L256.966 321.868L260.056 320.256L263.456 321.868L262.307 318.369L264.835 315.929Z" fill="#C9AAFF"/>
<path d="M272.417 312.545L271.05 315.664L267.639 316.078L270.235 318.369L269.327 321.868L272.417 320.256" fill="#C9AAFF"/>
<path d="M272.416 320.256L275.816 321.868L274.679 318.369L277.195 315.929L273.771 315.618L272.416 312.545" fill="#C9AAFF"/>
<path d="M183.157 283.236C194.449 281.41 202.126 270.757 200.303 259.443C198.48 248.128 187.848 240.437 176.556 242.263C165.264 244.09 157.587 254.742 159.41 266.057C161.233 277.371 171.865 285.063 183.157 283.236Z" fill="#D1D1D1"/>
<path d="M201.621 163.588H158.027V178.562H201.621V163.588Z" fill="#410EAD"/>
<path d="M277.183 163.588H233.59V178.562H277.183V163.588Z" fill="#410EAD"/>
<path d="M166.561 189.069L163.138 188.77L161.783 185.686L160.416 188.805L157.004 189.219L159.6 191.509L158.681 195.008L161.783 193.397L165.183 195.008L164.034 191.509L166.561 189.069Z" fill="#C9AAFF"/>
<path d="M178.589 189.069L175.165 188.77L173.81 185.686L172.443 188.805L169.031 189.219L171.627 191.509L170.708 195.008L173.81 193.397L177.21 195.008L176.061 191.509L178.589 189.069Z" fill="#C9AAFF"/>
<path d="M190.282 189.069L186.859 188.77L185.503 185.686L184.136 188.805L180.725 189.219L183.321 191.509L182.402 195.008L185.503 193.397L188.903 195.008L187.755 191.509L190.282 189.069Z" fill="#C9AAFF"/>
<path d="M197.865 185.686L196.498 188.805L193.086 189.219L195.682 191.509L194.763 195.008L197.865 193.397" fill="#C9AAFF"/>
<path d="M197.863 193.397L201.263 195.008L200.115 191.509L202.642 189.069L199.219 188.77L197.863 185.686" fill="#C9AAFF"/>
<path d="M241.114 189.069L237.691 188.77L236.335 185.686L234.968 188.805L231.557 189.219L234.153 191.509L233.245 195.008L236.335 193.397L239.735 195.008L238.598 191.509L241.114 189.069Z" fill="#C9AAFF"/>
<path d="M253.141 189.069L249.718 188.77L248.363 185.686L246.996 188.805L243.584 189.219L246.18 191.509L245.273 195.008L248.363 193.397L251.763 195.008L250.626 191.509L253.141 189.069Z" fill="#C9AAFF"/>
<path d="M264.835 189.069L261.411 188.77L260.056 185.686L258.689 188.805L255.277 189.219L257.873 191.509L256.966 195.008L260.056 193.397L263.456 195.008L262.307 191.509L264.835 189.069Z" fill="#C9AAFF"/>
<path d="M277.196 189.069L273.773 188.77L272.417 185.686L271.05 188.805L267.639 189.219L270.235 191.509L269.327 195.008L272.417 193.397L275.817 195.008L274.68 191.509L277.196 189.069Z" fill="#D1D1D1"/>
<path d="M179.832 154.921C191.271 154.921 200.544 145.631 200.544 134.17C200.544 122.709 191.271 113.418 179.832 113.418C168.394 113.418 159.121 122.709 159.121 134.17C159.121 145.631 168.394 154.921 179.832 154.921Z" fill="#D1D1D1"/>
<path d="M251.762 154.921C263.2 154.921 272.473 145.631 272.473 134.17C272.473 122.709 263.2 113.418 251.762 113.418C240.323 113.418 231.051 122.709 231.051 134.17C231.051 145.631 240.323 154.921 251.762 154.921Z" fill="#D1D1D1"/>
<path d="M200.531 205.09H159.12C157.914 205.09 156.938 204.112 156.938 202.904C156.938 201.695 157.914 200.717 159.12 200.717H200.531C201.737 200.717 202.714 201.695 202.714 202.904C202.714 204.112 201.737 205.09 200.531 205.09Z" fill="#0D0C26"/>
<path d="M200.531 218.19H159.12C157.914 218.19 156.938 217.212 156.938 216.003C156.938 214.795 157.914 213.816 159.12 213.816H200.531C201.737 213.816 202.714 214.795 202.714 216.003C202.714 217.212 201.737 218.19 200.531 218.19Z" fill="#D1D1D1"/>
<path d="M179.464 232.393H159.12C157.914 232.393 156.938 231.415 156.938 230.206C156.938 228.998 157.914 228.02 159.12 228.02H179.464C180.67 228.02 181.646 228.998 181.646 230.206C181.646 231.415 180.67 232.393 179.464 232.393Z" fill="#D1D1D1"/>
<path d="M275.013 205.09H233.602C232.396 205.09 231.42 204.112 231.42 202.904C231.42 201.695 232.396 200.717 233.602 200.717H275.013C276.22 200.717 277.196 201.695 277.196 202.904C277.196 204.112 276.22 205.09 275.013 205.09Z" fill="#0D0C26"/>
<path d="M275.013 218.19H233.602C232.396 218.19 231.42 217.212 231.42 216.003C231.42 214.795 232.396 213.816 233.602 213.816H275.013C276.22 213.816 277.196 214.795 277.196 216.003C277.196 217.212 276.22 218.19 275.013 218.19Z" fill="#D1D1D1"/>
<path d="M253.934 232.393H233.591C232.385 232.393 231.408 231.415 231.408 230.206C231.408 228.998 232.385 228.02 233.591 228.02H253.934C255.141 228.02 256.117 228.998 256.117 230.206C256.117 231.415 255.141 232.393 253.934 232.393Z" fill="#D1D1D1"/>
<path d="M25.3067 338.464C37.608 338.464 47.5801 328.472 47.5801 316.147C47.5801 303.822 37.608 293.83 25.3067 293.83C13.0054 293.83 3.0332 303.822 3.0332 316.147C3.0332 328.472 13.0054 338.464 25.3067 338.464Z" stroke="#4E3289" stroke-miterlimit="10"/>
<path d="M97.9724 120.163C97.9724 120.163 106.243 151.446 86.313 139.924L86.5657 159.456L71.7129 143.93L77.7781 125.077C77.7781 125.077 76.3192 106.754 97.9724 120.163Z" fill="#FFBA26"/>
<path d="M95.3435 130.201C95.2401 130.684 95.3205 131.121 95.5388 131.167C95.7571 131.213 96.0098 130.857 96.1246 130.373C96.228 129.89 96.1476 129.452 95.9294 129.406C95.7111 129.36 95.4584 129.717 95.3435 130.201Z" fill="#0D0C26"/>
<path d="M97.9511 135.735C97.2734 135.781 96.722 135.424 96.4463 134.803C96.3199 134.515 95.8949 134.768 96.0213 135.045C96.3544 135.804 97.1125 136.265 97.9511 136.219C98.2612 136.196 98.2612 135.712 97.9511 135.735Z" fill="#0D0C26"/>
<path d="M95.7089 126.286C95.6744 126.62 96.1224 126.943 96.7083 127.012C97.2941 127.069 97.7996 126.85 97.834 126.517C97.8685 126.183 97.4205 125.861 96.8346 125.792C96.2488 125.723 95.7434 125.953 95.7089 126.286Z" fill="#0D0C26"/>
<path d="M99.0527 126.102L99.5237 126.999L102.866 133.663L99.4433 134.434L99.0527 126.102Z" fill="#FFBA26"/>
<g style="mix-blend-mode:soft-light">
<path d="M99.0527 126.102L99.5237 126.999L102.866 133.663L99.4433 134.434L99.0527 126.102Z" fill="#0D0C26"/>
</g>
<path d="M89.0472 141.421L86.2559 139.844L86.4397 146.496L89.0472 141.421Z" fill="#0D0C26"/>
<path d="M83.3061 129.002C85.7069 130.441 89.3024 128.91 89.9342 126.182C90.1065 125.423 90.095 124.594 90.4856 123.915C91.0369 122.937 92.2661 122.568 93.3918 122.557C94.5175 122.557 95.6318 122.81 96.746 122.741C98.8367 122.615 100.881 121.072 101.18 118.989C101.479 116.917 99.5719 114.696 97.5042 115.018C96.9068 115.11 96.3555 115.387 95.7581 115.49C93.0357 115.95 91.1978 112.9 88.8889 111.381C85.638 109.229 80.6181 110.622 78.9295 114.143C78.539 114.961 78.3092 115.858 77.8383 116.641C76.8963 118.206 75.1388 119.058 73.7374 120.255C72.3474 121.441 71.2676 123.501 72.2211 125.066C72.6116 125.699 73.3009 126.159 73.5536 126.862C73.9786 128.059 72.9792 129.256 72.7035 130.499C72.3245 132.283 73.657 134.159 75.3915 134.7C77.1261 135.24 79.0904 134.619 80.4803 133.445C81.8702 132.271 82.7662 130.602 83.398 128.887" fill="#0D0C26"/>
<path d="M79.9981 128.002C80.5954 126.022 82.6746 124.894 84.6503 125.493C86.6261 126.091 87.7519 128.174 87.1545 130.154C86.5572 132.134 84.478 133.261 82.5023 132.663C80.5265 132.064 79.4007 129.981 79.9981 128.002Z" fill="#FFBA26"/>
<path d="M83.1437 127.586C84.212 127.747 85.0046 128.772 84.7978 129.854C84.7404 130.165 85.2114 130.291 85.2688 129.98C85.51 128.657 84.614 127.31 83.27 127.114C82.9599 127.068 82.8335 127.54 83.1437 127.586Z" fill="#0D0C26"/>
<path d="M49.4296 152.367C49.4296 152.367 68.5671 152.724 51.0838 163.301C37.0925 171.761 22.1363 173.591 23.2276 186.493C23.9283 194.745 45.2828 199.556 59.4578 197.427C68.659 196.046 70.0375 217.143 40.3778 215.336C8.27136 213.379 2.26362 194.653 0.448659 187.103C-1.84876 177.469 3.99817 155.267 33.922 146.808C67.5103 137.313 49.4066 152.367 49.4066 152.367H49.4296Z" fill="#FFBA26"/>
<path d="M28.9822 174.731C34.025 171.417 43.5823 167.849 51.0834 163.314C68.5782 152.737 83.6608 142.62 83.6608 142.62C83.6608 142.62 60.7095 134.471 36.6556 143.264C29.6714 145.819 22.2622 149.997 16.3809 154.9C16.3809 154.9 17.8282 159.884 21.4926 165.765C24.6056 170.772 28.9822 174.743 28.9822 174.743V174.731Z" fill="#C9AAFF"/>
<path d="M34.1762 171.555C28.559 165.996 24.504 159.114 21.908 151.678C21.7816 151.333 21.2302 151.483 21.3566 151.828C23.9871 159.355 28.088 166.33 33.7741 171.958C34.0383 172.223 34.4404 171.809 34.1762 171.555Z" fill="#EEEFF2"/>
<g style="mix-blend-mode:soft-light">
<path d="M1.37999 181.947C3.87269 182.522 6.06672 186.309 6.28498 190.395C6.4458 193.387 5.49237 195.701 3.98756 196.495C1.97732 192.847 1.0124 189.451 0.461023 187.115C0.11641 185.665 -0.044408 183.915 0.0360017 181.982C0.449537 181.855 0.909018 181.843 1.37999 181.958V181.947Z" fill="#0D0C26"/>
</g>
<path d="M88.7725 188L78.1125 216.624C78.1125 216.624 41.0207 226.028 26.4206 205.092C26.4206 205.092 22.9055 141.364 68.314 141.018C100.754 140.777 100.501 157.316 88.784 188.012L88.7725 188Z" fill="#C9AAFF"/>
<path d="M98.9155 387.012L88.3588 386.367L87.75 402.653L92.5516 402.538L92.2874 400.697L98.5823 402.803L124.003 403.068C124.003 403.068 118.386 398.084 110.426 396.162C105.44 394.965 101.27 391.558 98.904 387L98.9155 387.012Z" fill="#0D0C26"/>
<path d="M39.7011 386.056L31.0399 385.4L28.2715 402.078L33.188 401.951L33.9921 400.064L41.5046 402.216L65.3978 402.481C65.3978 402.481 59.5968 397.336 51.3835 395.391C46.3522 394.194 42.1364 390.741 39.7471 386.137L39.7011 386.033V386.056Z" fill="#0D0C26"/>
<path d="M78.5274 215.37C78.5274 215.37 48.7528 217.349 26.376 204.447C26.376 204.447 17.5654 225.51 25.0205 254.709C32.4756 283.921 42.1248 335.265 26.5368 388.243C26.5368 388.243 38.3455 394.47 48.9022 390.729C48.9022 390.729 72.4737 334.183 71.1182 297.502C71.1182 297.502 90.0949 330.788 81.962 389.199C81.962 389.199 94.1613 393.952 105.017 389.878C105.017 389.878 113.149 362.704 113.827 333.504C114.505 304.293 107.728 271.686 97.5615 250.635C87.3954 229.573 81.0201 221.689 78.5274 215.37Z" fill="#410EAD"/>
<path d="M71.0363 298.343C70.4964 287.271 56.62 275.934 50.6926 268.798C43.6051 260.281 39.665 250.175 39.5961 239.092C39.5961 239.092 35.8628 254.71 48.7513 281.205C59.239 302.786 67.0502 331.467 60.9506 355.246C60.9506 355.246 72.2998 324.308 71.0363 298.343Z" fill="#0D0C26"/>
<path d="M70.3349 226.373C62.3859 227.478 54.3104 226.661 46.7404 224.002C46.3614 223.875 46.2005 224.474 46.5796 224.6C54.2645 227.294 62.4433 228.099 70.4957 226.971C70.8863 226.914 70.7255 226.315 70.3349 226.373Z" fill="#EEEFF2"/>
<path d="M69.6799 230.978C62.1444 232.946 53.7473 232.014 46.6138 228.976C46.2463 228.826 45.9361 229.355 46.3037 229.505C53.598 232.613 62.1329 233.579 69.8407 231.565C70.2313 231.462 70.059 230.863 69.6799 230.967V230.978Z" fill="#EEEFF2"/>
<path d="M36.5529 221.54C32.1763 221.448 28.0409 220.021 24.5259 217.409C24.2042 217.167 23.8941 217.708 24.2157 217.938C27.8112 220.62 32.0729 222.07 36.5529 222.162C36.9549 222.162 36.9549 221.552 36.5529 221.54Z" fill="#EEEFF2"/>
<path d="M32.5091 225.877C29.2008 225.601 26.1338 224.347 23.5722 222.24C23.262 221.987 22.8255 222.424 23.1357 222.678C25.8351 224.899 29.017 226.2 32.5091 226.499C32.9112 226.533 32.8997 225.912 32.5091 225.877Z" fill="#EEEFF2"/>
<path d="M75.5742 215.957C75.5972 221.665 76.6425 227.271 78.5953 232.634C80.4792 237.802 83.0638 242.659 85.6714 247.481C88.5202 252.741 91.369 257.99 93.7238 263.491C95.6077 267.911 97.1355 272.48 98.4335 277.107C104.395 298.342 106.233 320.832 105.199 342.815C104.441 358.905 102.006 374.903 97.9281 390.487C97.8247 390.879 98.422 391.04 98.5254 390.649C105.326 364.625 107.6 337.405 105.085 310.623C104.143 300.598 102.546 290.608 100.076 280.847C97.572 270.961 93.9191 261.638 89.1405 252.626C86.0849 246.86 82.7651 241.209 80.2495 235.178C77.6993 229.054 76.2175 222.632 76.1945 215.968C76.1945 215.565 75.5742 215.565 75.5742 215.968V215.957Z" fill="#EEEFF2"/>
<path d="M82.3613 224.507C82.4876 227.5 81.6261 230.964 78.8807 232.587C78.5361 232.794 78.8462 233.324 79.1908 233.116C82.1315 231.39 83.1194 227.73 82.9816 224.507C82.9701 224.104 82.3498 224.104 82.3613 224.507Z" fill="#EEEFF2"/>
<path d="M84.6716 229.168C84.1892 232.253 83.2013 235.061 80.5478 236.926C80.2261 237.156 80.5363 237.685 80.8579 237.455C83.6493 235.499 84.752 232.61 85.2689 229.33C85.3264 228.938 84.7291 228.777 84.6716 229.168Z" fill="#EEEFF2"/>
<path d="M40.2168 219.629C39.4127 223.692 38.9532 227.813 38.8613 231.956C38.8613 232.359 39.4701 232.359 39.4816 231.956C39.5735 227.87 40.01 223.807 40.8141 219.79C40.8945 219.399 40.2972 219.238 40.2168 219.629Z" fill="#EEEFF2"/>
<path d="M42.5156 211.215C42.0102 212.7 41.5507 214.196 41.1487 215.704C41.0453 216.083 41.6426 216.256 41.746 215.865C42.1481 214.357 42.6075 212.861 43.113 211.376C43.2393 210.996 42.642 210.835 42.5156 211.215Z" fill="#EEEFF2"/>
<path d="M84.6484 144.68C84.6484 144.68 102.867 146.636 112.149 165.431C119.581 180.474 117.973 194.643 134.296 194.205C142.773 193.975 148.609 174.466 147.655 159.78C147.023 150.078 168.78 149.79 164.277 180.831C159.533 213.518 139.936 218.053 132.079 219.262C122.073 220.792 99.9378 212.908 93.8841 181.556C87.0837 146.383 84.6599 144.68 84.6599 144.68H84.6484Z" fill="#FFBA26"/>
<path d="M121.948 188.704C119.007 183.26 116.135 173.488 112.149 165.42C102.868 146.625 85.9128 144.047 85.9128 144.047C85.9128 144.047 69.1301 140.801 92.3111 184.273C95.9065 191.006 97.6985 195.207 100.593 200.214C100.593 200.214 105.797 199.155 112.103 195.909C117.468 193.147 121.936 188.716 121.936 188.716L121.948 188.704Z" fill="#C9AAFF"/>
<path d="M146.932 174.58C147.736 167.64 147.196 161.816 146.806 157.914C146.231 148.729 144.991 146.347 146.966 145.599C148.942 144.851 150.286 150.295 150.654 154.243C150.677 154.461 150.688 154.68 150.7 154.899H150.757C150.562 152.942 151.033 151.538 152.193 151.411C153.032 151.319 153.893 152.021 154.502 153.138C154.766 152.102 155.318 151.377 156.076 151.296C156.857 151.204 157.661 151.814 158.27 152.815C158.511 151.906 159.005 151.169 159.683 151.204C162.979 151.423 164.473 165.234 164.932 172.071" fill="#FFBA26"/>
<path d="M119.087 183.442C112.953 188.714 105.578 192.259 97.7784 194.284C97.4108 194.376 97.5716 194.952 97.9392 194.848C105.842 192.8 113.297 189.186 119.512 183.857C119.799 183.615 119.386 183.201 119.098 183.442H119.087Z" fill="#EEEFF2"/>
<g style="mix-blend-mode:soft-light">
<path d="M126.886 217.867C127.69 215.37 131.734 213.448 135.915 213.574C138.971 213.666 141.245 214.84 141.946 216.44C138.063 218.178 134.514 218.88 132.078 219.249C130.562 219.479 128.77 219.49 126.806 219.249C126.714 218.811 126.737 218.351 126.898 217.867H126.886Z" fill="#0D0C26"/>
</g>
<path d="M91.3795 181.786L87.2786 175.18L83.6602 201.237L91.3795 181.786Z" fill="#0D0C26"/>
<path d="M30.0165 174.246C30.0165 174.246 36.0127 157.983 41.1245 152.861C41.1245 152.861 28.6495 163.116 24.7324 170.126C25.8467 171.645 26.6852 172.738 28.9252 174.775L30.005 174.258L30.0165 174.246Z" fill="#0D0C26"/>
<path d="M378.213 151.833C378.213 151.833 358.007 158.278 342.155 149.163C326.314 140.059 329.462 119.1 331.874 111.998L317.515 103.424C317.515 103.424 308.819 118.018 311.484 137.492C314.574 160.085 334.619 183.081 372.228 176.866L378.213 151.821V151.833Z" fill="#FFBA26"/>
<path d="M367.771 118.628C368.552 114.289 373.928 111.838 377.799 111.481C381.671 111.124 386.713 112.666 389.275 115.21C391.033 116.948 392.239 119.284 394.685 120.216C396.834 121.045 399.499 120.562 401.509 121.609C406.356 124.118 402.6 131.784 406.954 134.903C408.527 136.031 410.905 136.295 412.031 137.769C413.582 139.794 411.732 142.522 412.249 144.893C413.076 148.645 419.325 150.164 419.865 153.951C420.371 157.427 415.833 159.717 413.972 162.836C413.111 164.275 412.812 165.944 411.732 167.268C410.285 169.028 407.723 169.8 405.311 170.318C403.22 170.778 401.061 171.123 398.913 170.905C391.481 170.145 386.53 162.894 379.063 162.364C375.801 162.123 372.515 163.251 369.288 162.779C364.899 162.134 361.522 158.186 362.108 154.365C362.418 152.317 363.693 150.383 363.498 148.323C363.222 145.526 360.293 143.339 359.983 140.542C359.592 137.043 364.52 133.51 364.164 130.011C363.958 127.893 362.981 126.052 362.453 123.98C361.419 119.871 364.497 117.892 368.713 118.479" fill="#0D0C26"/>
<path d="M372.977 196.123L365.993 227.084C365.993 227.084 400.787 229.144 418.363 211.604C418.363 211.604 431.159 142.431 390.047 146.252C358.354 149.199 358.434 166.313 372.977 196.123Z" fill="#4E3289"/>
<path d="M347.095 387.573L357.445 386.951L358.042 402.673L353.333 402.558L353.585 400.786L347.417 402.811L322.467 403.065C322.467 403.065 327.981 398.254 335.792 396.412C340.685 395.25 344.775 391.969 347.095 387.573Z" fill="#0D0C26"/>
<path d="M405.208 386.653L413.697 386.02L416.419 402.11L411.595 401.995L410.802 400.176L403.428 402.248L379.982 402.513C379.982 402.513 385.669 397.552 393.732 395.676C398.672 394.525 402.807 391.187 405.151 386.745L405.197 386.653H405.208Z" fill="#0D0C26"/>
<path d="M369.483 209.887C369.483 209.887 396.328 223.882 418.28 211.429C418.28 211.429 426.93 231.743 419.613 259.93C412.295 288.106 402.83 337.643 418.131 388.768C418.131 388.768 406.54 394.776 396.179 391.174C396.179 391.174 373.044 336.618 374.376 301.226C374.376 301.226 355.744 333.338 363.728 389.7C363.728 389.7 351.758 394.293 341.11 390.356C341.11 390.356 333.126 364.138 332.46 335.962C331.794 307.787 338.445 276.32 348.427 256.005C358.409 235.691 367.036 215.987 369.483 209.898V209.887Z" fill="#C9AAFF"/>
<path d="M413.099 215.31C415.994 228.753 414.236 242.564 411.571 255.892C408.895 269.243 405.253 282.41 403.484 295.923C401.141 313.831 400.176 331.729 402.611 349.684C404.484 363.541 407.896 377.157 411.87 390.543C411.985 390.911 412.559 390.761 412.456 390.381C406.115 369.031 401.336 347.083 401.715 324.708C401.865 316.076 402.715 307.478 403.726 298.915C405.334 285.38 408.78 272.213 411.583 258.885C414.581 244.556 416.81 229.662 413.685 215.16C413.605 214.78 413.019 214.941 413.099 215.321V215.31Z" fill="#EEEFF2"/>
<path d="M361.34 358.36C361.34 358.36 355.516 293.389 382.867 250.205C382.867 250.205 374.918 269.311 373.941 302.182C373.941 302.182 371.954 307.085 369.863 312.115C362.879 328.93 361.328 358.36 361.328 358.36H361.34Z" fill="#0D0C26"/>
<path d="M399.211 216.609C402.623 221.558 408.297 224.493 414.293 224.493C414.684 224.493 414.684 223.895 414.293 223.895C408.527 223.895 403.013 221.075 399.728 216.31C399.51 215.988 398.993 216.299 399.211 216.609Z" fill="#EEEFF2"/>
<path d="M394.674 217.403C398.625 224.769 406.425 228.475 414.581 228.533C414.971 228.533 414.971 227.934 414.581 227.934C406.632 227.877 399.05 224.286 395.191 217.104C395.007 216.759 394.49 217.069 394.674 217.403Z" fill="#EEEFF2"/>
<path d="M420.002 218.279C419.232 218.854 418.371 219.199 417.418 219.337C417.038 219.395 417.199 219.97 417.578 219.924C418.578 219.786 419.497 219.418 420.312 218.808C420.622 218.578 420.312 218.06 420.014 218.29L420.002 218.279Z" fill="#EEEFF2"/>
<path d="M418.359 223.111C419.451 223.065 420.484 222.754 421.403 222.156C421.725 221.949 421.426 221.419 421.105 221.638C420.266 222.179 419.359 222.467 418.359 222.513C417.969 222.524 417.969 223.134 418.359 223.111Z" fill="#EEEFF2"/>
<path d="M382.924 215.125C381.787 222.295 381.833 229.569 383.073 236.728C383.142 237.108 383.717 236.947 383.659 236.567C382.442 229.523 382.384 222.341 383.51 215.286C383.567 214.906 382.993 214.745 382.924 215.125Z" fill="#EEEFF2"/>
<path d="M367.437 215.689C369.965 215.816 372.297 214.711 373.882 212.754C374.123 212.455 373.698 212.029 373.457 212.328C371.952 214.17 369.815 215.206 367.437 215.079C367.047 215.056 367.047 215.666 367.437 215.678V215.689Z" fill="#EEEFF2"/>
<path d="M315.514 107.625C317.409 102.894 320.97 96.8519 323.256 97.4619C323.738 97.5885 324.083 97.9684 324.336 98.3712C325.105 97.4389 326.013 96.7023 327.035 97.0936C327.793 97.3929 328.15 98.1065 328.322 98.9351C329.08 98.1755 329.884 97.5425 330.814 97.8993C331.619 98.2101 332.032 98.9237 332.17 99.8099C332.871 99.4186 333.893 99.1654 334.709 99.8099C335.811 100.673 335.214 102.169 334.272 104.678C333.468 106.808 332.09 110.836 331.217 114.139" fill="#FFBA26"/>
<path d="M330.312 104.255C330.806 102.724 331.483 101.285 332.345 99.9154C332.483 99.6968 332.138 99.4896 331.989 99.7083C331.104 101.101 330.415 102.574 329.921 104.139C329.841 104.393 330.231 104.496 330.312 104.243V104.255Z" fill="#0D0C26"/>
<path d="M322.454 102.528C322.948 100.997 323.626 99.5585 324.487 98.1889C324.625 97.9702 324.281 97.763 324.131 97.9817C323.247 99.3743 322.558 100.848 322.064 102.413C321.983 102.666 322.374 102.77 322.454 102.516V102.528Z" fill="#0D0C26"/>
<path d="M326.567 103.262C327.061 101.72 327.716 100.281 328.589 98.9115C328.727 98.6928 328.382 98.4857 328.233 98.7043C327.349 100.097 326.671 101.582 326.177 103.147C326.096 103.4 326.487 103.504 326.567 103.251V103.262Z" fill="#0D0C26"/>
<path d="M376.466 176.062C352.412 180.642 341.557 174.727 341.557 174.727C348.541 163.263 347.381 151.408 347.381 151.408C362.314 154.078 368.333 149.302 378.223 148.186" fill="#4E3289"/>
<path d="M353.608 152.455C354.619 160.8 352.941 169.432 348.312 176.499C348.128 176.787 348.588 177.051 348.772 176.764C353.447 169.628 355.158 160.88 354.136 152.455C354.09 152.122 353.562 152.122 353.608 152.455Z" fill="#A5B7C6"/>
<path d="M398.578 149.315C398.578 149.315 412.788 148.831 424.838 135.216C436.888 121.588 427.101 102.736 422.506 96.7623L433.327 84.1133C433.327 84.1133 446.307 95.197 450.109 114.487C454.52 136.873 442.999 164.979 405.356 170.953L398.59 149.315H398.578Z" fill="#FFBA26"/>
<path d="M436.589 87.4493C433.258 83.5591 427.917 78.9552 425.952 80.2673C425.539 80.5436 425.343 81.0039 425.229 81.4758C424.206 80.8313 423.092 80.417 422.253 81.119C421.622 81.637 421.53 82.4311 421.633 83.2713C420.668 82.7879 419.703 82.4426 418.934 83.0757C418.267 83.6281 418.118 84.4338 418.267 85.3085C417.475 85.1589 416.429 85.2395 415.855 86.1027C415.085 87.2651 416.142 88.5082 417.854 90.5799C419.301 92.3408 421.92 95.7247 423.816 98.579" fill="#FFBA26"/>
<path d="M421.817 88.7037C420.841 87.3801 419.704 86.1947 418.417 85.1588C418.21 84.9977 417.923 85.2854 418.13 85.4465C419.394 86.4594 420.508 87.6103 421.461 88.9109C421.611 89.1181 421.967 88.9109 421.817 88.7037Z" fill="#0D0C26"/>
<path d="M428.698 84.5963C427.722 83.2727 426.585 82.0872 425.298 81.0514C425.091 80.8902 424.804 81.178 425.011 81.3391C426.275 82.352 427.389 83.5029 428.342 84.8035C428.492 85.0107 428.848 84.8035 428.698 84.5963Z" fill="#0D0C26"/>
<path d="M425.034 86.5861C424.058 85.251 422.932 84.054 421.646 83.0182C421.439 82.857 421.152 83.1448 421.359 83.3059C422.622 84.3187 423.725 85.4812 424.678 86.7818C424.828 86.989 425.184 86.7818 425.034 86.5746V86.5861Z" fill="#0D0C26"/>
<path d="M401.073 171.504C425.356 168.868 434.075 159.051 434.075 159.051C423.737 150.396 420.693 139.277 420.693 139.277C410.86 145.596 404.013 142.431 389.758 146.056" fill="#4E3289"/>
<path d="M414.684 142.154C416.453 150.452 420.818 158.175 427.538 163.435C427.802 163.642 428.181 163.274 427.917 163.055C421.266 157.853 416.947 150.234 415.201 142.016C415.132 141.682 414.615 141.82 414.695 142.154H414.684Z" fill="#A5B7C6"/>
<path d="M365.634 219.107C370.344 219.602 375.007 217.484 377.707 213.582C377.925 213.26 377.408 212.961 377.19 213.283C374.605 217.024 370.137 218.992 365.634 218.508C365.255 218.462 365.255 219.072 365.634 219.107Z" fill="#EEEFF2"/>
<path d="M378.431 148.266L378.316 145.147C378.316 145.147 370.815 147.587 370.068 140.9C368.77 129.252 367.748 126.167 372.136 122.093C376.524 118.019 389.286 121.851 389.596 131.692L390.412 145.952C390.412 145.952 388.781 147.656 385.208 148.404C381.463 149.187 378.431 148.266 378.431 148.266Z" fill="#FFBA26"/>
<path d="M377.64 132.545C377.732 133.005 377.64 133.42 377.433 133.454C377.226 133.5 376.985 133.155 376.893 132.695C376.801 132.234 376.893 131.82 377.1 131.785C377.307 131.739 377.548 132.085 377.64 132.545Z" fill="#0D0C26"/>
<path d="M371.675 133.658C371.767 134.119 371.675 134.533 371.468 134.568C371.261 134.602 371.02 134.268 370.928 133.808C370.836 133.348 370.928 132.933 371.135 132.899C371.342 132.853 371.583 133.198 371.675 133.658Z" fill="#0D0C26"/>
<path d="M378.064 145.193C378.064 145.193 381.947 144.169 384.29 141.004L378.432 148.462L378.064 145.182V145.193Z" fill="#0D0C26"/>
<path d="M374.986 138.196C375.778 138.254 376.513 137.851 376.87 137.126C376.996 136.861 376.594 136.62 376.468 136.896C376.18 137.483 375.629 137.782 374.986 137.736C374.687 137.713 374.687 138.185 374.986 138.208V138.196Z" fill="#0D0C26"/>
<g style="mix-blend-mode:soft-light">
<path d="M386.632 133.889C386.034 131.737 383.772 130.459 381.578 131.058C379.383 131.656 378.097 133.878 378.706 136.041C379.303 138.194 381.566 139.471 383.76 138.873C385.954 138.274 387.241 136.053 386.632 133.889Z" fill="#0D0C26"/>
</g>
<path d="M371.413 136.987C371.091 135.848 370.31 134.973 369.322 134.467C369.529 136.285 369.793 138.38 370.069 140.901C370.069 140.981 370.103 141.05 370.115 141.131C371.287 140.141 371.849 138.553 371.413 136.987Z" fill="#FFBA26"/>
<g style="mix-blend-mode:soft-light">
<path d="M371.413 136.987C371.091 135.848 370.31 134.973 369.322 134.467C369.529 136.285 369.793 138.38 370.069 140.901C370.069 140.981 370.103 141.05 370.115 141.131C371.287 140.141 371.849 138.553 371.413 136.987Z" fill="#0D0C26"/>
</g>
<g style="mix-blend-mode:soft-light">
<path d="M372.766 130.321L373.822 130.033L375.442 135.846L372.915 136.525L372.766 130.321Z" fill="#0D0C26"/>
</g>
<path d="M377.364 128.827C377.387 129.149 376.95 129.437 376.388 129.483C375.825 129.529 375.342 129.311 375.319 128.988C375.296 128.666 375.733 128.378 376.296 128.332C376.858 128.286 377.341 128.505 377.364 128.827Z" fill="#0D0C26"/>
<path d="M371.435 129.827C371.607 130.092 371.366 130.564 370.895 130.863C370.424 131.174 369.896 131.197 369.712 130.932C369.54 130.667 369.781 130.195 370.252 129.896C370.723 129.597 371.251 129.562 371.435 129.827Z" fill="#0D0C26"/>
<path d="M393.457 132.326C392.929 130.438 390.941 129.322 389.023 129.84C387.105 130.358 385.979 132.314 386.507 134.202C387.036 136.089 389.023 137.206 390.941 136.688C392.86 136.17 393.985 134.213 393.457 132.326Z" fill="#FFBA26"/>
<path d="M390.379 131.404C389.058 131.565 388.116 132.762 388.334 134.086C388.38 134.385 388.828 134.258 388.782 133.959C388.621 132.958 389.38 131.991 390.379 131.864C390.678 131.83 390.678 131.358 390.379 131.392V131.404Z" fill="#0D0C26"/>
<path d="M370.838 122.75C371.378 124.615 373.423 125.674 375.375 125.984C377.328 126.295 379.338 126.076 381.268 126.468C383.198 126.859 385.174 128.137 385.438 130.07C385.507 130.6 385.461 131.164 385.748 131.612C386.07 132.096 386.736 132.292 387.31 132.153C387.885 132.027 388.367 131.636 388.735 131.187C389.7 130.001 389.964 128.355 389.654 126.871C389.344 125.386 388.517 124.039 387.506 122.9C385.553 120.701 382.807 119.148 379.855 118.871C376.903 118.595 373.802 119.712 371.918 121.956" fill="#0D0C26"/>
<path d="M373.629 151.235C381.521 155.597 391.469 153.399 396.661 145.987C396.856 145.711 396.397 145.446 396.201 145.722C391.182 152.893 381.521 154.999 373.893 150.787C373.595 150.625 373.331 151.074 373.629 151.247V151.235Z" fill="#A5B7C6"/>
<g style="mix-blend-mode:soft-light">
<path d="M314.573 143.95C317.146 144.066 320.007 147.334 320.972 151.271C321.672 154.148 320.765 156.807 319.432 157.866C317.101 154.286 315.596 151.317 314.608 149.141C313.999 147.795 313.16 145.999 312.885 144.1C313.275 143.904 314.079 143.927 314.573 143.95Z" fill="#0D0C26"/>
</g>
<g style="mix-blend-mode:soft-light">
<path d="M449.262 122.6C446.815 121.806 444.954 117.893 445.115 113.853C445.23 110.895 446.827 108.57 448.4 107.914C449.641 110.861 451.088 119.309 450.928 122.899C450.491 122.98 449.733 122.75 449.262 122.6Z" fill="#0D0C26"/>
</g>
<path d="M264.031 274.01L262.17 245.42C262.136 244.902 262.549 244.465 263.066 244.465H317.044C317.595 244.465 318.02 244.96 317.928 245.512L312.966 275.379C312.897 275.817 312.506 276.139 312.058 276.128L264.915 274.85C264.456 274.839 264.077 274.47 264.042 274.01H264.031Z" fill="#FFBA26"/>
<path d="M230.972 327.531L221.139 274.737L320.904 272.631L311.06 326.829L230.972 327.531Z" fill="#C9AAFF"/>
<path d="M352.08 242.359H340.512C335.986 242.359 332.092 245.559 331.185 250.002L306.418 373.925C305.534 378.299 301.743 381.464 297.298 381.567L232.832 382.948" stroke="#D1D1D1" stroke-width="2" stroke-miterlimit="10"/>
<path d="M328.094 262.514H212.557C209.938 262.514 208.008 264.954 208.605 267.509L221.735 323.687C222.16 325.528 223.803 326.829 225.687 326.829H315.286" stroke="#D1D1D1" stroke-width="2" stroke-miterlimit="10"/>
<path d="M247.937 405.001C252.981 405.001 257.069 400.905 257.069 395.851C257.069 390.798 252.981 386.701 247.937 386.701C242.893 386.701 238.805 390.798 238.805 395.851C238.805 400.905 242.893 405.001 247.937 405.001Z" fill="#410EAD"/>
<path d="M243.318 395.851C243.318 393.296 245.386 391.225 247.936 391.225C250.486 391.225 252.554 393.296 252.554 395.851C252.554 398.407 250.486 400.478 247.936 400.478C245.386 400.478 243.318 398.407 243.318 395.851Z" stroke="#EEEFF2" stroke-width="0.92" stroke-miterlimit="10"/>
<path d="M288.683 405.001C293.727 405.001 297.815 400.905 297.815 395.851C297.815 390.798 293.727 386.701 288.683 386.701C283.639 386.701 279.551 390.798 279.551 395.851C279.551 400.905 283.639 405.001 288.683 405.001Z" fill="#410EAD"/>
<path d="M284.062 395.851C284.062 393.296 286.13 391.225 288.68 391.225C291.23 391.225 293.298 393.296 293.298 395.851C293.298 398.407 291.23 400.478 288.68 400.478C286.13 400.478 284.062 398.407 284.062 395.851Z" stroke="#EEEFF2" stroke-width="0.92" stroke-miterlimit="10"/>
<path d="M325.04 283.186H212.627" stroke="#D1D1D1" stroke-width="2" stroke-miterlimit="10"/>
<path d="M320.825 305.006H216.844" stroke="#D1D1D1" stroke-width="2" stroke-miterlimit="10"/>
<path d="M267.43 262.074V326.125" stroke="#D1D1D1" stroke-width="2" stroke-miterlimit="10"/>
<path d="M237.922 262.074L244.941 326.125" stroke="#D1D1D1" stroke-width="2" stroke-miterlimit="10"/>
<path d="M299.042 262.074L292.012 326.125" stroke="#D1D1D1" stroke-width="2" stroke-miterlimit="10"/>
<path d="M363.346 245.882H347.816C345.714 245.882 344.002 244.167 344.002 242.06C344.002 240.196 345.346 238.608 347.172 238.297L363.243 235.546C365.873 235.097 368.136 237.422 367.619 240.035L367.08 242.786C366.735 244.581 365.161 245.87 363.335 245.87L363.346 245.882Z" fill="#410EAD"/>
<path d="M422.299 351.664C430.953 351.664 437.968 344.635 437.968 335.965C437.968 327.294 430.953 320.266 422.299 320.266C413.646 320.266 406.631 327.294 406.631 335.965C406.631 344.635 413.646 351.664 422.299 351.664Z" fill="#0D0C26"/>
<path d="M302.651 2.45361C294.495 -1.25246 284.892 2.37304 281.193 10.5448C277.494 18.7166 281.113 28.3386 289.268 32.0447C297.424 35.7507 307.027 32.1252 310.726 23.9534C314.425 15.7817 310.807 6.15968 302.651 2.45361Z" stroke="#4E3289" stroke-miterlimit="10"/>
<path d="M334.4 52.7616C331.333 51.3689 327.715 52.727 326.325 55.8116C324.935 58.8846 326.291 62.5102 329.369 63.9028C332.436 65.2955 336.055 63.9373 337.444 60.8528C338.834 57.7797 337.479 54.1542 334.4 52.7616Z" fill="#C9AAFF"/>
<path d="M331.896 195.906C325.843 194.283 319.628 197.897 318.009 203.963C316.389 210.028 319.996 216.255 326.05 217.878C332.103 219.5 338.318 215.886 339.937 209.821C341.557 203.755 337.95 197.529 331.896 195.906Z" stroke="#D1D1D1" stroke-miterlimit="10"/>
<path d="M88.4451 77.0272C93.5771 71.8852 93.5771 63.5484 88.4451 58.4064C83.3131 53.2644 74.9926 53.2644 69.8606 58.4064C64.7286 63.5484 64.7286 71.8852 69.8606 77.0272C74.9926 82.1692 83.3132 82.1692 88.4451 77.0272Z" fill="#D1D1D1"/>
<path d="M49.1196 102.68C49.1196 100.194 47.1094 98.1797 44.6282 98.1797C42.147 98.1797 40.1367 100.194 40.1367 102.68C40.1367 105.166 42.147 107.18 44.6282 107.18C47.1094 107.18 49.1196 105.166 49.1196 102.68Z" stroke="#FFBA26" stroke-miterlimit="10"/>
<path d="M119.948 247.317C122.067 247.317 123.785 245.596 123.785 243.473C123.785 241.35 122.067 239.629 119.948 239.629C117.829 239.629 116.111 241.35 116.111 243.473C116.111 245.596 117.829 247.317 119.948 247.317Z" stroke="#0D0C26" stroke-miterlimit="10"/>
</svg>
