<svg width="504" height="428" viewBox="0 0 504 428" fill="none" xmlns="http://www.w3.org/2000/svg">
<path opacity="0.7" d="M252 428C391.176 428 504 415.721 504 400.574C504 385.427 391.176 373.148 252 373.148C112.824 373.148 0 385.427 0 400.574C0 415.721 112.824 428 252 428Z" fill="#E8E4A0"/>
<path d="M103.284 381.609C106.253 385.839 110.259 386.897 115.184 387.461C119.332 387.931 121.877 387.696 123.456 391.832C119.544 395.663 111.249 396.086 105.947 395.874C99.3961 395.616 93.5049 396.039 87.5431 397.919C86.247 394.018 86.1527 386.991 87.9908 383.184C90.5122 377.943 101.446 378.014 103.284 381.633V381.609Z" fill="black"/>
<path d="M104.368 385.254C107.454 389.084 111.366 391.011 116.079 392.186C118.86 392.868 125.576 392.868 124.421 397.615C119.402 400.083 111.225 400.741 105.64 399.871C99.4189 398.908 92.5381 399.213 86.1285 399.448C86.0107 395.406 84.1019 390.635 87.1889 386.946C90.5115 382.974 100.715 382.41 104.368 385.277V385.254Z" fill="black"/>
<path d="M117.165 275.81C117.165 281.145 117.165 286.527 117.895 291.767C118.697 297.455 117.283 301.849 116.434 307.56C114.502 320.58 113.583 333.2 109.836 345.914C107.409 354.186 103.922 365.984 105.17 374.656C105.618 377.805 105.265 381.072 105.83 383.774C106.514 387.064 108.564 387.323 103.992 388.803C97.0642 391.036 92.8226 391.412 86.1302 389.556C86.8843 378.134 84.2451 366.477 85.9888 355.079C87.1199 347.559 87.6148 339.827 88.9816 332.377C90.6311 323.423 89.877 314.657 89.3586 305.539C89.0051 299.617 87.5205 293.788 87.3791 287.843C87.2849 283.941 86.4601 275.622 88.6281 272.167C94.0479 263.519 117.707 266.598 117.188 275.787L117.165 275.81Z" fill="#D0BAFF"/>
<path d="M123.67 252.452C126.78 252.123 129.608 249.538 132.318 248.221C133.096 247.845 136.607 245.331 137.031 247.023C137.29 248.104 134.156 249.467 133.826 250.196C137.172 250.76 144.501 250.36 144.925 252.217C145.067 253.063 144.336 253.627 143.7 254.073C146.127 254.99 143.747 256.329 143.747 256.329C143.747 256.329 145.726 257.363 143.865 258.35C142.074 259.29 140.684 259.384 139.058 259.549C137.408 259.737 135.547 259.643 134.18 259.596C130.716 259.455 126.898 258.938 123.481 259.572C123.317 257.128 122.209 254.426 123.694 252.475L123.67 252.452Z" fill="#FED4CA"/>
<path d="M107.668 182.039C113.347 183.191 116.481 189.066 117.188 194.166C117.706 197.714 119.945 206.504 117.447 209.7C114.148 213.907 105.406 207.726 102.531 205.493C98.077 202.039 93.1755 197.174 94.0946 190.805C95.1314 183.708 102.083 182.086 107.644 182.039H107.668Z" fill="#FED4CA"/>
<path d="M113.509 203.917C112.19 209.487 106.016 228.852 97.0377 220.72C93.4323 217.454 95.9066 211.155 96.2836 207.137C96.802 201.896 96.048 195.598 102.269 193.623C107.854 191.861 115.065 199.687 113.509 203.94V203.917Z" fill="#FED4CA"/>
<path d="M107.88 218.088C103.144 219.921 98.9965 212.542 95.7681 209.98C87.5205 216.161 85.1876 227.653 84.2686 237.5C83.2789 248.052 83.326 259.474 84.245 269.979C84.5985 273.998 84.9284 278.557 86.9785 282.035C93.3881 282.387 99.1379 282.881 105.547 284.197C109.224 284.949 113.418 285.278 117.424 287.158C121.713 283.515 122.278 276.606 123.056 270.378C123.48 266.971 122.278 263.986 122.42 260.931C124.823 260.414 127.203 259.873 129.56 259.333C128.452 256.466 128.311 252.283 129.937 249.603C126.826 250.073 122.208 250.567 119.286 249.58C121.265 244.715 117.872 235.409 116.057 230.732C114.29 226.149 110.19 221.167 107.857 218.088H107.88Z" fill="#8248FD"/>
<path d="M119.169 183.309C120.913 185.048 121.148 187.139 119.287 189.208C117.637 191.017 116.553 190.547 115.752 190.359C113.042 189.725 102.085 185.071 100.742 196.869C95.793 192.85 95.3924 199.877 100.506 202.11C100.577 203.802 100.647 204.53 99.9639 205.212C99.092 206.081 96.9948 206.058 96.0286 207.186C95.3924 199.666 88.7943 193.461 92.4232 185.165C93.5543 182.557 95.9344 182.251 98.1494 181.147C100.836 179.807 102.768 177.504 105.996 177.48C109.036 177.48 118.91 179.314 119.145 183.332L119.169 183.309Z" fill="#343434"/>
<path d="M107.719 221.191C105.292 221.755 102.677 221.638 100.579 220.11C98.1757 218.371 96.7854 215.245 94.0755 213.952C93.8869 213.858 93.9577 213.576 94.1226 213.529C96.2199 212.988 97.9636 215.715 99.2361 216.914C100.461 218.065 101.545 219.287 103.124 219.946C104.585 220.557 106.164 220.815 107.696 221.097C107.743 221.097 107.743 221.168 107.696 221.168L107.719 221.191Z" fill="#410EAD"/>
<path d="M118.65 262.13C116.365 262.671 114.456 263.541 112.052 263.611C110.45 263.658 108.895 263.541 107.292 263.494C104.7 263.423 102.862 264.504 100.506 265.421C98.9505 266.008 97.7251 266.549 96.3348 265.585C94.4261 264.246 93.672 260.838 92.8943 258.911C92.3524 257.595 91.9753 256.185 91.5512 254.822C91.0328 253.177 90.1137 251.813 89.4775 250.239C88.4171 247.607 87.5687 244.74 87.4745 241.896C87.3802 239.052 87.7337 236.232 88.0636 233.436C88.2992 231.438 88.5584 228.947 89.9488 227.372C90.0666 227.231 90.2787 227.372 90.2316 227.537C89.0769 231.908 88.4406 236.82 88.747 241.355C89.0769 246.737 91.5983 251.837 93.0593 257.007C93.7898 259.545 94.7088 263.752 97.9136 264.199C100.176 264.504 102.886 262.883 105.054 262.53C107.481 262.131 110.12 262.718 112.571 262.647C114.597 262.6 116.6 262.083 118.627 261.919C118.768 261.919 118.792 262.13 118.65 262.177V262.13Z" fill="#410EAD"/>
<path d="M115.117 250.309C113.114 250.45 110.428 252.307 108.496 251.931C108.166 251.86 108.001 251.249 107.742 251.202C107.317 251.085 106.634 251.085 106.021 251.132C105.691 251.155 105.526 250.826 105.574 250.544C105.974 248.358 106.257 246.173 106.587 243.987C107.129 240.203 106.987 237.712 106.186 234.046C105.597 231.344 105.644 229.064 103.641 226.855C101.002 223.917 97.6087 223.776 93.9562 223.941C93.7677 223.941 93.7206 223.659 93.9091 223.612C99.8238 221.732 105.597 225.139 106.469 231.391C107.011 235.292 107.6 238.934 107.364 242.93C107.247 244.716 106.375 247.23 106.658 249.087C106.893 250.615 106.634 249.956 108.048 250.121C108.26 250.144 108.378 250.238 108.448 250.426C108.92 251.672 113.75 250.309 115.094 250.262C115.141 250.262 115.141 250.332 115.094 250.332L115.117 250.309Z" fill="#410EAD"/>
<path d="M127.321 251.131C127.321 251.131 127.392 251.813 127.368 251.883C127.321 252.494 127.25 253.082 127.156 253.693C126.944 255.056 127.392 256.584 126.708 257.829C126.591 258.018 126.308 258.018 126.19 257.829C125.531 256.678 125.625 255.009 125.86 253.763C126.049 252.706 126.096 251.765 126.591 250.802C126.661 250.661 126.873 250.567 127.038 250.614C127.085 250.614 127.133 250.661 127.203 250.684C127.392 250.755 127.486 250.99 127.321 251.154V251.131Z" fill="#410EAD"/>
<path d="M117.308 284.433C114.716 283.634 112.501 282.599 109.791 282.388C106.893 282.153 103.994 282.505 101.049 282.247C97.6556 281.965 90.6569 281.542 88.5361 278.228C88.3947 278.016 88.6775 277.758 88.8896 277.875C91.0339 279.097 93.6732 279.191 96.0296 279.638C99.1402 280.226 102.321 281.095 105.503 281.142C109.791 281.213 113.845 281.542 117.332 284.362C117.332 284.362 117.332 284.409 117.308 284.409V284.433Z" fill="#410EAD"/>
<path d="M108.846 286.804C108.704 287.086 108.917 287.627 108.893 287.956C108.869 288.285 108.775 288.614 108.657 288.92C108.469 289.484 108.327 289.977 108.045 290.471C107.055 292.304 106.23 293.503 104.086 294.02C103.803 294.09 103.544 293.714 103.779 293.503C104.416 292.915 105.264 292.586 105.877 291.999C106.419 291.482 107.031 290.4 107.385 289.719C107.668 289.155 108.021 288.473 108.21 287.885C108.351 287.415 108.398 287.11 108.752 286.734C108.799 286.687 108.869 286.734 108.846 286.804Z" fill="#7B3FE4"/>
<path d="M121.9 396.343C119.049 398.176 114.784 398.294 111.485 398.341C107.384 398.411 103.355 396.554 99.2309 396.178C99.1131 396.178 99.1131 396.014 99.2309 396.014C106.842 395.262 114.289 398.176 121.877 396.296C121.9 396.296 121.924 396.319 121.877 396.343H121.9Z" fill="black"/>
<path d="M97.938 396.416C94.8039 397.004 91.1278 397.873 88.1822 396.158C87.9701 396.017 87.9937 395.687 88.2529 395.617C89.4311 395.288 90.8921 396.252 92.1175 396.369C94.0734 396.534 95.9821 396.04 97.9144 396.275C98.0087 396.275 98.0322 396.416 97.9144 396.44L97.938 396.416Z" fill="#004A56"/>
<path d="M121.339 390.588C121.032 390.94 120.702 390.987 120.325 391.222C119.901 391.457 119.642 391.692 119.171 391.763C117.945 391.974 117.12 391.951 115.942 391.551C115.73 391.481 115.754 391.128 115.989 391.128C116.956 391.152 117.827 391.128 118.794 390.94C119.618 390.776 120.349 390.235 121.221 390.282C121.386 390.282 121.433 390.47 121.339 390.564V390.588Z" fill="#004A56"/>
<path d="M109.6 209.7C108.869 209.417 108.162 209.112 107.479 208.759C106.796 208.407 106.136 208.054 105.523 207.608C104.887 207.185 104.274 206.738 103.685 206.268C103.096 205.798 102.531 205.257 101.941 204.74C102.648 206.15 103.803 207.326 105.123 208.219C105.782 208.665 106.513 209.018 107.267 209.276C108.021 209.535 108.799 209.723 109.6 209.7Z" fill="#EDA188"/>
<path d="M230.58 396.694H408.493C421.713 396.694 432.458 386.001 432.458 372.793C432.458 359.609 421.736 348.893 408.493 348.893H230.58V396.67V396.694Z" fill="url(#paint0_linear_4959_689)"/>
<path d="M227.045 400.217H404.958C420.11 400.217 432.458 387.926 432.458 372.791C432.458 357.656 420.133 345.365 404.958 345.365H227.045V352.416H404.958C416.222 352.416 425.388 361.557 425.388 372.791C425.388 384.025 416.222 393.167 404.958 393.167H227.045V400.217Z" fill="#35B0AB"/>
<path d="M230.58 372.487L404.369 371.97V371.383L230.58 371.9V372.487Z" fill="url(#paint1_linear_4959_689)"/>
<path d="M230.58 375.517L404.369 374.976V374.389L230.58 374.929V375.517Z" fill="url(#paint2_linear_4959_689)"/>
<path d="M230.58 388.652L404.369 388.111V387.523L230.58 388.064V388.652Z" fill="url(#paint3_linear_4959_689)"/>
<path d="M245.52 386.209L256.265 380.991L267.105 386.209V359.652H245.52V386.209Z" fill="#ABCE8D"/>
<path d="M246.887 384.728L257.656 379.511L268.472 384.728V359.629H246.887V384.728Z" fill="#C5F0A4"/>
<path d="M230.58 360.005L404.369 359.465V358.877L230.58 359.417V360.005Z" fill="url(#paint4_linear_4959_689)"/>
<path d="M458.449 286.705L249.666 286.705V231.618L458.449 231.618C471.669 231.618 482.414 242.335 482.414 255.519V262.828C482.414 276.012 471.669 286.729 458.449 286.729V286.705Z" fill="url(#paint5_linear_4959_689)"/>
<path d="M245.566 290.771H450.696C468.181 290.771 482.391 276.6 482.391 259.162C482.391 241.724 468.181 227.553 450.696 227.553H245.566V235.684H450.696C463.68 235.684 474.237 246.213 474.237 259.162C474.237 272.111 463.68 282.639 450.696 282.639H245.566V290.771Z" fill="#FB5A5A"/>
<path d="M249.645 258.808L450.014 258.197V257.516L249.645 258.127V258.808Z" fill="url(#paint6_linear_4959_689)"/>
<path d="M249.645 262.287L450.014 261.652V260.994L249.645 261.605V262.287Z" fill="url(#paint7_linear_4959_689)"/>
<path d="M249.645 277.447L450.014 276.812V276.154L249.645 276.765V277.447Z" fill="url(#paint8_linear_4959_689)"/>
<path d="M327.854 277.423L335.63 273.639L343.453 277.423V258.246H327.877L327.854 277.423Z" fill="#ABCE8D"/>
<path d="M328.842 276.342L336.618 272.582L344.442 276.342V258.223H328.842V276.342Z" fill="#C5F0A4"/>
<path d="M249.645 244.428L450.014 243.793V243.111L249.645 243.746V244.428Z" fill="url(#paint9_linear_4959_689)"/>
<path d="M381.794 342.057H203.881C190.661 342.057 179.916 331.364 179.916 318.156C179.916 304.972 190.638 294.256 203.881 294.256H381.794V342.034V342.057Z" fill="url(#paint10_linear_4959_689)"/>
<path d="M385.329 345.58H207.416C192.264 345.58 179.916 333.289 179.916 318.154C179.916 303.02 192.24 290.729 207.416 290.729H385.329V297.779H207.416C196.152 297.779 186.985 306.921 186.985 318.154C186.985 329.388 196.152 338.53 207.416 338.53H385.329V345.58Z" fill="#C5F0A4"/>
<path d="M381.795 317.851L208.006 317.334V316.746L381.795 317.263V317.851Z" fill="url(#paint11_linear_4959_689)"/>
<path d="M381.795 320.88L208.006 320.34V319.752L381.795 320.293V320.88Z" fill="url(#paint12_linear_4959_689)"/>
<path d="M381.795 334.015L208.006 333.474V332.887L381.795 333.427V334.015Z" fill="url(#paint13_linear_4959_689)"/>
<path d="M343.312 331.572L332.543 326.355L321.703 331.572V305.016H343.288L343.312 331.572Z" fill="black"/>
<path d="M341.921 330.091L331.152 324.874L320.336 330.091V304.992H341.921V330.091Z" fill="#35B0AB"/>
<path d="M381.795 305.368L208.006 304.828V304.24L381.795 304.781V305.368Z" fill="url(#paint14_linear_4959_689)"/>
<path d="M424.234 224.52H270.805C259.4 224.52 250.139 215.284 250.139 203.909C250.139 192.535 259.4 183.299 270.805 183.299H424.234V224.496V224.52Z" fill="url(#paint15_linear_4959_689)"/>
<path d="M427.274 227.554H273.845C260.766 227.554 250.139 216.955 250.139 203.912C250.139 190.869 260.766 180.27 273.845 180.27H427.274V186.356H273.845C264.136 186.356 256.242 194.229 256.242 203.912C256.242 213.594 264.136 221.467 273.845 221.467H427.274V227.554Z" fill="#35B0AB"/>
<path d="M424.232 206.262L274.361 205.792V205.299L424.232 205.745V206.262Z" fill="url(#paint16_linear_4959_689)"/>
<path d="M424.232 217.589L274.361 217.142V216.625L424.232 217.095V217.589Z" fill="url(#paint17_linear_4959_689)"/>
<path d="M393.318 222.337L401.095 218.577L408.918 222.337V203.16H393.342L393.318 222.337Z" fill="#ABCE8D"/>
<path d="M394.307 221.28L402.083 217.519L409.906 221.28V203.137H394.307V221.28Z" fill="#C5F0A4"/>
<path d="M424.232 192.891L274.361 192.445V191.928L424.232 192.398V192.891Z" fill="url(#paint18_linear_4959_689)"/>
<path d="M424.232 203.673L274.361 203.203V202.686L424.232 203.156V203.673Z" fill="url(#paint19_linear_4959_689)"/>
<path d="M202.963 420.368L267.176 183.594" stroke="#FB5A5A" stroke-width="2" stroke-miterlimit="10"/>
<path d="M257.018 421.847L321.962 183.311" stroke="#FB5A5A" stroke-width="2" stroke-miterlimit="10"/>
<path d="M258.74 216.893L314.117 216.492" stroke="#FB5A5A" stroke-width="2" stroke-miterlimit="10"/>
<path d="M246.959 259.43L302.336 259.053" stroke="#FB5A5A" stroke-width="2" stroke-miterlimit="10"/>
<path d="M233.998 301.994L289.375 301.594" stroke="#FB5A5A" stroke-width="2" stroke-miterlimit="10"/>
<path d="M221.414 344.529L276.791 344.129" stroke="#FB5A5A" stroke-width="2" stroke-miterlimit="10"/>
<path d="M213.566 387.062L268.943 386.686" stroke="#FB5A5A" stroke-width="2" stroke-miterlimit="10"/>
<path d="M351.208 0H278.959C270.929 0 264.42 6.49195 264.42 14.5002V165.683C264.42 173.691 270.929 180.183 278.959 180.183H351.208C359.238 180.183 365.748 173.691 365.748 165.683V14.5002C365.748 6.49195 359.238 0 351.208 0Z" fill="#434343"/>
<path d="M358.68 14.4772V165.66C358.68 169.773 355.334 173.11 351.21 173.11H278.937C274.813 173.11 271.467 169.773 271.467 165.66V14.4772C271.467 10.3645 274.813 7.02734 278.937 7.02734L351.21 7.02734C355.334 7.02734 358.68 10.3645 358.68 14.4772Z" fill="white"/>
<path d="M349.083 62.5859H281.123V97.4146H349.083V62.5859Z" fill="#D3F0BE"/>
<path d="M307.375 80.0021L318.285 89.426V70.5781L307.375 80.0021Z" fill="white"/>
<path d="M332.189 51.7255H327.688V35.3452C327.688 28.3654 322.009 22.7016 315.011 22.7016C308.012 22.7016 302.333 28.3654 302.333 35.3452V51.7255H297.832V35.3452C297.832 25.8977 305.538 18.2129 315.011 18.2129C324.484 18.2129 332.189 25.8977 332.189 35.3452V51.7255Z" fill="#7B3FE4"/>
<path d="M302.424 34.5039H299.785C297.005 34.5039 294.719 36.7835 294.719 39.5567V47.4295C294.719 50.2027 297.005 52.4823 299.785 52.4823H302.424V34.5039Z" fill="#7B3FE4"/>
<path d="M297.097 39.2266H295.825C294.482 39.2266 293.375 40.3312 293.375 41.6709V45.4786C293.375 46.8183 294.482 47.923 295.825 47.923H297.097V39.2266Z" fill="#7B3FE4"/>
<path d="M327.752 52.4608H330.391C333.172 52.4608 335.458 50.1812 335.458 47.408V39.5351C335.458 36.762 333.172 34.4824 330.391 34.4824H327.752V52.4608Z" fill="#7B3FE4"/>
<path d="M333.076 47.7374H334.348C335.691 47.7374 336.798 46.6327 336.798 45.293V41.4854C336.798 40.1457 335.691 39.041 334.348 39.041H333.076V47.7374Z" fill="#7B3FE4"/>
<path opacity="0.33" d="M312.347 105.26H281.312V150.194H312.347V105.26Z" fill="#7B3FE4"/>
<path opacity="0.33" d="M349.015 105.26H317.98V150.194H349.015V105.26Z" fill="#7B3FE4"/>
<path d="M266.307 162.344H362.144V167.208C362.144 171.439 358.704 174.87 354.462 174.87H273.989C269.747 174.87 266.307 171.439 266.307 167.208V162.344Z" fill="#434343"/>
<path d="M325.213 173.65H304.405C302.308 173.65 300.588 171.935 300.588 169.843C300.588 167.751 302.308 166.035 304.405 166.035H325.213C327.31 166.035 329.03 167.751 329.03 169.843C329.03 171.935 327.31 173.65 325.213 173.65Z" fill="white"/>
<path d="M339.66 118.354C339.612 117.767 339.66 117.109 340.037 116.686C340.343 116.333 340.814 116.192 341.168 115.934C341.898 115.393 342.157 114.429 342.605 113.654C343.053 112.855 343.996 112.15 344.82 112.549C344.773 111.656 344.773 110.669 345.315 109.988C345.857 109.306 347.224 109.236 347.507 110.105C347.672 110.622 347.624 111.468 348.166 111.421C348.402 109.095 348.614 106.745 348.85 104.418C348.944 103.525 349.298 102.373 350.193 102.397C351.088 102.397 351.418 103.572 351.395 104.465C351.3 108.202 349.792 111.962 350.782 115.581C351.065 116.615 351.56 117.626 351.607 118.683C351.678 120.046 351.065 121.362 350.594 122.655C349.957 124.441 349.604 126.321 349.58 128.201C349.557 129.658 349.675 131.28 348.756 132.431C346.258 135.58 343.359 132.455 342.841 129.917C342.04 126.062 339.989 122.373 339.683 118.425L339.66 118.354Z" fill="#FED4CA"/>
<path d="M434.294 227.401C435.401 228.881 437.074 230.08 438.936 230.103C440.515 230.127 442.07 229.351 443.625 229.657C444.474 229.821 445.228 230.315 446.076 230.55C446.901 230.785 447.961 230.667 448.409 229.915C448.527 229.704 448.598 229.445 448.786 229.281C449.045 229.069 449.399 229.116 449.705 229.163C452.227 229.586 454.748 230.009 457.269 230.409C457.623 230.456 457.976 230.526 458.306 230.362C459.107 229.986 459.131 228.576 460.003 228.458C459.319 227.401 458.118 226.79 456.916 226.343C452.062 224.51 446.736 224.463 441.622 223.594C440.232 223.359 438.748 223.006 437.805 221.949C436.768 220.797 436.415 218.846 434.93 218.376C432.951 217.765 431.419 220.233 431.608 221.925C431.796 223.57 433.304 226.061 434.27 227.354L434.294 227.401Z" fill="#FED4CA"/>
<path d="M344.656 213.09C341.97 213.184 339.378 212.126 336.691 212.009C335.207 211.938 333.699 212.149 332.285 212.643C330.565 213.231 328.915 214.312 328.114 215.957C327.313 217.602 327.619 219.834 329.127 220.868C329.787 221.315 330.612 221.503 331.389 221.644C336.008 222.537 340.721 222.866 345.41 222.607C348.285 222.443 351.325 222.02 353.517 220.14C355.355 218.565 356.745 214.547 354.648 212.549C352.433 210.434 347.343 213.019 344.656 213.09Z" fill="black"/>
<path d="M323.049 214.874C321.894 216.214 320.48 217.624 320.48 219.41C320.48 221.102 321.847 222.536 323.402 223.194C324.981 223.828 326.725 223.828 328.398 223.828C329.341 223.828 330.283 223.828 331.226 223.828C332.569 223.828 334.077 223.734 334.949 222.724C336.175 221.314 335.397 219.199 335.208 217.342C334.831 213.746 336.999 210.174 336.41 206.602C336.292 205.944 336.08 205.262 335.609 204.769C334.902 204.017 333.747 203.805 332.711 203.923C327.621 204.487 325.9 211.584 323.049 214.921V214.874Z" fill="#FED4CA"/>
<path d="M333.789 187.305C336.947 179.009 341.683 171.348 347.268 164.462C349.247 162.018 351.627 159.503 354.761 159.174C358.767 158.751 362.114 161.994 364.8 165.026C370.196 171.113 375.498 177.293 379.811 184.179C380.777 185.707 381.696 187.281 382.992 188.551C384.029 189.561 385.301 190.313 386.456 191.183C392.088 195.295 395.764 201.641 401.466 205.683C404.436 207.774 408.253 209.748 408.701 213.344C408.96 215.342 408.041 217.292 407.146 219.102C405.873 221.687 404.506 224.39 402.15 226.035C399.628 227.797 396.4 228.103 393.313 228.338C386.314 228.902 379.174 229.442 372.293 227.985C369.89 227.492 367.439 226.74 365.059 227.304C362.986 227.797 361.147 229.301 359.003 229.325C355.845 229.372 353.489 226.34 350.426 225.612C347.881 225.001 344.464 225.753 343.191 223.473C342.39 222.087 343.026 220.254 344.134 219.102C345.241 217.95 346.749 217.245 348.093 216.399C348.776 215.953 349.436 215.459 349.978 214.848C350.567 214.167 350.944 213.344 351.51 212.639C353.183 210.548 356.01 209.843 358.673 209.466C362.891 208.879 367.18 208.832 371.398 209.349C366.214 203.897 362.184 197.363 359.592 190.313C358.343 186.952 357.377 183.333 354.95 180.654C353.513 190.76 345.736 198.679 341.659 208.009C340.363 210.971 339.327 214.237 336.852 216.305C337.677 215.624 331.739 210.9 331.15 210.548C328.793 209.208 324.575 210.759 325.659 207.492C327.733 201.265 331.432 193.486 333.789 187.328V187.305Z" fill="#8248FD"/>
<path d="M350.099 126.131C351.418 133.769 353.539 141.289 356.414 148.504C365.699 150.361 375.077 146.859 384.103 143.968C393.128 141.078 403.19 138.751 411.767 142.746C413.794 143.686 415.656 144.955 417.659 145.895C420.863 147.423 424.516 148.222 427.084 150.643C429.771 153.181 430.761 156.988 431.538 160.607C435.898 180.724 437.971 201.311 437.712 221.898C435.568 221.874 433.423 223.002 432.245 224.812C430.195 219.994 429.912 214.636 428.993 209.466C427.744 202.533 425.294 195.835 421.759 189.725C421.759 200.465 416.245 211.064 407.455 217.268C405.216 217.621 403.072 216.211 401.588 214.495C400.127 212.78 399.113 210.711 397.629 209.019C395.649 206.716 392.892 205.165 390.983 202.815C388.58 199.854 387.684 195.953 385.469 192.827C384.621 191.629 383.584 190.571 382.924 189.278C382.194 187.868 381.911 186.27 381.628 184.719C380.992 181.123 380.379 177.504 380.026 173.862C379.696 170.289 379.625 166.694 379.861 163.098C379.885 162.699 379.908 162.276 379.696 161.923C379.366 161.383 378.612 161.312 377.952 161.312C368.903 161.242 359.855 161.171 350.806 161.101C349.015 161.101 347.035 161.007 345.669 159.855C344.585 158.915 344.09 157.481 343.713 156.095C341.922 149.702 341.074 143.075 341.215 136.448C341.262 134.591 340.697 129.797 342.487 128.598C343.383 128.011 345.127 128.434 346.187 128.175C347.648 127.846 349.038 127.141 350.122 126.131H350.099Z" fill="#D2B8FF"/>
<path d="M382.499 140.493C382.522 141.574 382.593 142.749 383.324 143.548C384.243 144.582 385.845 144.605 387.235 144.511C392.372 144.159 397.627 143.383 402.034 140.751C406.44 138.119 409.857 133.278 409.41 128.154C409.009 123.642 405.521 119.647 401.186 118.237C396.991 116.874 390.204 117.532 387.07 121.034C382.31 126.345 382.31 133.795 382.499 140.469V140.493Z" fill="#FED4CA"/>
<path d="M397.068 161.292C397.351 161.856 397.633 162.42 398.034 162.89C399.212 164.23 401.309 164.465 403.006 163.83C404.679 163.196 405.999 161.88 407.13 160.493C409.604 157.414 411.395 153.302 410.217 149.541C409.015 145.664 404.962 143.102 403.972 139.154C403.619 137.744 403.666 136.216 403.077 134.9C402.393 133.373 400.932 132.362 399.424 131.634C396.526 130.271 392.991 129.824 390.163 131.281C385.215 133.843 386.252 139.295 388.255 143.337C391.2 149.33 394.146 155.299 397.091 161.292H397.068Z" fill="#FED4CA"/>
<path d="M301.556 225.987C303.983 225.141 307.118 224.836 308.154 224.53C309.545 224.107 322.081 216.728 321.138 215.6C324.438 219.642 330.588 221.099 335.348 218.96C337.28 222.18 338.152 226.034 337.775 229.794C333.274 231.51 328.279 230.053 323.471 230.147C320.738 230.194 318.052 230.758 315.318 231.087C311.288 231.557 307.188 231.486 303.182 230.899C302.075 230.734 299.011 230.687 298.611 229.442C298.069 227.75 299.553 226.692 301.533 226.011L301.556 225.987Z" fill="black"/>
<path d="M383.727 117.06C383.373 118.87 383.468 119.34 384.505 120.868C384.693 121.15 384.905 121.432 385.164 121.62C386.39 122.466 389.477 123.241 390.914 122.865C391.692 122.654 392.54 122.748 393.341 122.936C398.69 124.087 401.495 126.743 402.154 132.172C402.744 130.785 405.029 130.809 405.878 132.054C406.75 133.3 406.302 135.109 405.241 136.19C404.181 137.271 402.626 137.718 401.141 137.953C401.942 139.434 402.767 140.914 403.568 142.371C404.016 143.194 404.77 144.134 405.666 143.875C406.632 143.593 406.655 142.301 406.726 141.29C407.103 137.036 411.863 134.428 412.994 130.315C413.442 128.694 413.253 127.001 413.088 125.333C412.829 122.865 412.57 120.398 412.311 117.954C412.169 116.684 411.18 116.05 410.166 115.251C407.292 112.971 406.585 113.23 403.945 113.018C401.306 112.807 397.536 113.653 394.92 113.676C390.537 113.723 384.552 112.689 383.727 117.06Z" fill="#343434"/>
<path d="M400.833 153.373C402.483 150.271 403.614 146.887 405.664 144.043C405.923 143.667 406.229 143.291 406.677 143.127C407.478 142.821 408.327 143.315 408.986 143.879C412.238 146.558 414.194 150.6 414.689 154.783C415.184 158.966 414.265 163.22 412.45 167.004C411.272 169.471 409.623 171.845 407.266 173.255C403.59 175.441 398.453 174.759 395.484 171.681C393.175 169.26 391.855 164.466 393.646 161.364C394.376 160.118 395.743 159.507 396.804 158.59C398.5 157.157 399.773 155.324 400.809 153.373H400.833Z" fill="#D2B8FF"/>
<path d="M343.219 130.39C345.104 131.048 348.427 131.589 349.464 129.286C349.534 129.121 349.416 128.933 349.228 128.98C348.238 129.262 347.508 129.967 346.471 130.202C345.41 130.437 344.303 130.367 343.219 130.32C343.172 130.32 343.172 130.39 343.219 130.414V130.39Z" fill="#7B3FE4"/>
<path d="M392.396 157.721C392.986 161.011 396.402 163.502 399.466 161.176C400.998 160.001 401.893 157.98 402.482 156.217C403.613 152.88 404.532 150.342 406.936 147.663C406.983 147.616 406.936 147.569 406.865 147.592C404.485 149.566 403.33 151.634 402.364 154.501C401.681 156.499 400.856 158.332 399.23 159.766C396.52 162.163 393.669 160.541 392.444 157.674C392.444 157.651 392.396 157.674 392.396 157.674V157.721Z" fill="#7B3FE4"/>
<path d="M380.333 160.614C382.006 159.392 383.161 157.347 384.292 155.655C384.952 154.644 385.47 153.563 386.177 152.576C386.931 151.495 387.85 150.649 388.392 149.427C388.486 149.239 388.251 149.004 388.086 149.192C387.284 150.085 386.153 150.626 385.376 151.542C384.692 152.341 384.245 153.305 383.797 154.245C382.713 156.477 381.77 158.569 380.262 160.567C380.239 160.614 380.286 160.661 380.333 160.637V160.614Z" fill="#7B3FE4"/>
<path d="M389.971 152.456C388.934 154.572 388.628 157.815 389.052 160.119C389.075 160.307 389.358 160.283 389.405 160.119C389.664 158.849 389.806 157.533 389.971 156.24C390.135 154.995 390.418 153.726 390.183 152.48C390.183 152.386 390.018 152.362 389.994 152.456H389.971Z" fill="#7B3FE4"/>
<path d="M390.891 153.471C390.349 155.516 389.596 158.054 390.726 160.028C390.844 160.217 391.15 160.146 391.15 159.911C391.127 158.83 391.009 157.772 391.056 156.691C391.127 155.633 391.268 154.599 391.292 153.518C391.292 153.283 390.938 153.236 390.891 153.471Z" fill="#7B3FE4"/>
<path d="M419.873 147.924C415.373 148.629 414.194 154.104 413.794 157.865C413.44 161.225 413.77 164.539 414.76 167.759C416.032 171.848 418.436 175.373 418.931 179.721C418.931 179.862 419.143 179.862 419.167 179.721C419.402 173.493 415.655 167.853 415.113 161.648C414.642 156.478 414.571 150.532 419.944 148.018C420.015 147.994 419.944 147.9 419.897 147.924H419.873Z" fill="#7B3FE4"/>
<path d="M432.361 222.256C433.116 221.88 433.799 221.48 434.624 221.269C435.331 221.081 436.061 221.316 436.744 221.034C436.909 220.963 436.957 220.705 436.862 220.564C436.344 219.647 435.001 219.906 434.2 220.235C433.351 220.564 432.526 221.339 432.338 222.256C432.338 222.256 432.338 222.279 432.361 222.279V222.256Z" fill="#7B3FE4"/>
<path d="M391.594 191.52C400.336 192.578 410.799 187.431 413.368 178.477C413.486 178.054 412.826 177.749 412.637 178.172C410.917 182.002 407.642 184.987 404.201 187.314C400.266 189.993 396.236 190.862 391.571 191.426C391.523 191.426 391.523 191.497 391.571 191.497L391.594 191.52Z" fill="#7B3FE4"/>
<path d="M395.272 194.524C397.864 195.699 401.328 194.853 403.85 193.866C407.761 192.338 409.953 189.823 412.522 186.674C412.592 186.58 412.474 186.439 412.38 186.533C411.178 187.685 410.141 189.048 408.845 190.082C407.314 191.304 405.358 192.08 403.543 192.738C400.975 193.678 398.029 194.548 395.272 194.454C395.272 194.454 395.249 194.477 395.272 194.501V194.524Z" fill="#7B3FE4"/>
<path d="M390.933 187.901C393.478 187.126 396.046 185.739 397.625 183.483C399.298 181.086 398.827 178.877 399.133 176.198C399.133 176.057 398.945 176.01 398.874 176.127C397.79 177.913 397.955 180.263 396.942 182.167C395.599 184.682 393.219 186.256 390.862 187.69C390.744 187.76 390.815 187.948 390.956 187.901H390.933Z" fill="#7B3FE4"/>
<path d="M409.689 209.284C411.999 208.132 414.402 206.158 415.651 203.879C417.372 200.706 416.924 196.969 418.479 193.726C418.526 193.609 418.385 193.468 418.291 193.585C416.452 195.818 416.288 198.473 415.51 201.176C414.473 204.748 411.975 206.487 409.501 209.002C409.359 209.143 409.548 209.354 409.713 209.284H409.689Z" fill="#7B3FE4"/>
<path d="M328.204 207.217C330.985 207.969 333.624 209.967 335.556 212.083C335.651 212.177 335.816 212.083 335.792 211.942C335.014 208.792 331.409 206.583 328.251 206.982C328.134 206.982 328.086 207.17 328.228 207.217H328.204Z" fill="#410EAD"/>
<path d="M354.904 178.759C356.647 175.351 354.621 171.309 352.948 168.254C352.878 168.137 352.713 168.184 352.713 168.325C352.831 171.967 354.998 174.999 354.81 178.736C354.81 178.783 354.88 178.806 354.904 178.736V178.759Z" fill="#410EAD"/>
<path d="M356.272 176.573C357.685 174.622 356.578 171.308 355.801 169.287C355.753 169.193 355.636 169.193 355.612 169.31C355.565 170.391 355.777 171.449 355.918 172.507C356.107 173.87 356.036 175.186 356.154 176.526C356.154 176.596 356.225 176.596 356.272 176.549V176.573Z" fill="#410EAD"/>
<path d="M359.733 173.207C363.362 176.027 365.86 180.328 367.957 184.37C370.455 189.188 373.424 193.606 375.215 198.729C375.215 198.776 375.309 198.753 375.309 198.706C373.966 193.066 371.233 188.483 368.263 183.571C365.907 179.646 363.574 175.863 359.78 173.16C359.757 173.16 359.709 173.184 359.733 173.207Z" fill="#410EAD"/>
<path d="M376.843 201.808C377.668 201.103 378.163 199.998 378.823 199.152C379.27 198.565 380.072 197.46 380.873 197.39C381.58 197.319 382.122 198.095 382.711 198.353C384.478 199.152 385.515 196.755 386.081 195.486C386.175 195.251 385.892 194.969 385.703 195.204C384.808 196.238 384.195 197.578 382.664 197.154C381.721 196.896 381.391 196.52 380.354 197.013C378.705 197.813 377.315 200.092 376.678 201.738C376.631 201.855 376.796 201.902 376.867 201.832L376.843 201.808Z" fill="#410EAD"/>
<path d="M372.509 208.603C373.593 208.815 374.842 208.039 375.502 207.216C376.303 206.229 376.657 204.96 377.057 203.785C377.104 203.644 376.869 203.55 376.798 203.691C376.303 204.631 375.902 205.665 375.313 206.558C374.983 207.052 374.583 207.475 374.088 207.757C373.57 208.039 373.004 208.086 372.486 208.345C372.368 208.392 372.391 208.58 372.509 208.603Z" fill="#410EAD"/>
<path d="M345.433 223.406C344.915 219.858 348.614 219.858 350.5 217.954C352.29 216.145 353.139 213.818 355.236 212.243C355.307 212.173 355.307 212.032 355.189 212.055C352.173 212.102 350.617 216.309 348.638 218.001C347.248 219.2 343.902 221.221 345.41 223.406H345.433Z" fill="#410EAD"/>
<path d="M339.849 214.451C341.333 214.827 342.771 215.485 344.326 215.25C345.811 215.039 347.06 214.169 348.497 213.793C348.639 213.746 348.591 213.558 348.474 213.535C347.13 213.37 346.023 213.864 344.727 214.169C343.101 214.592 341.522 214.263 339.872 214.216C339.731 214.216 339.707 214.428 339.849 214.451Z" fill="#004A56"/>
<path d="M301.461 227.968C303.016 228.226 304.312 229.049 305.891 229.237C307.234 229.401 308.672 229.307 310.015 229.331C313.031 229.402 316.047 229.472 319.064 229.119C322.316 228.72 325.473 228.132 328.749 228.367C331.105 228.532 333.297 228.931 335.347 227.498C335.394 227.474 335.394 227.357 335.323 227.38C332.684 227.686 330.398 227.263 327.783 227.098C325.12 226.934 322.433 227.404 319.794 227.827C316.731 228.297 313.644 228.837 310.533 228.955C309.049 229.002 307.423 229.119 305.938 229.002C304.383 228.861 303.016 228.132 301.485 227.968V227.991L301.461 227.968Z" fill="#004A56"/>
<path d="M425.549 190.93C426.775 191.541 428.848 191.094 430.097 190.695C431.417 190.272 432.807 189.472 432.854 187.968C432.854 187.804 432.666 187.757 432.548 187.851C431.417 188.791 430.404 189.566 428.966 189.99C427.882 190.295 426.539 190.201 425.526 190.718C425.432 190.765 425.432 190.906 425.526 190.953L425.549 190.93Z" fill="#7B3FE4"/>
<path d="M428.853 192.832C429.867 192.597 430.715 192.315 431.587 191.704C432.27 191.234 433.166 190.576 433.331 189.706C433.378 189.471 433.095 189.165 432.859 189.353C432.176 189.847 431.705 190.576 431.021 191.093C430.314 191.61 429.513 192.15 428.712 192.503C428.524 192.597 428.665 192.879 428.853 192.832Z" fill="#7B3FE4"/>
<path d="M351.159 154.361C352.361 154.361 353.421 153.868 354.364 153.139C355.142 152.552 356.178 151.682 355.99 150.601C355.943 150.413 355.636 150.319 355.519 150.483C354.388 151.917 353.021 153.609 351.136 154.056C350.947 154.103 350.994 154.385 351.183 154.385L351.159 154.361Z" fill="#7B3FE4"/>
<path d="M354.762 154.808C356.152 154.055 357.942 151.917 357.189 150.248C357.141 150.13 356.953 150.177 356.906 150.295C356.647 151.117 356.411 151.917 355.964 152.669C355.54 153.35 354.998 153.961 354.574 154.643C354.503 154.761 354.644 154.902 354.762 154.831V154.808Z" fill="#7B3FE4"/>
<path d="M389.736 144.04L392.352 143.147C393.2 142.841 394.049 142.536 394.873 142.207C395.698 141.854 396.499 141.478 397.277 141.055C398.055 140.632 398.809 140.115 399.586 139.574C399.162 140.42 398.526 141.172 397.772 141.76C397.018 142.348 396.193 142.841 395.298 143.217C394.402 143.57 393.483 143.828 392.564 143.969C391.621 144.11 390.679 144.157 389.736 144.016V144.04Z" fill="#EDA188"/>
<defs>
<linearGradient id="paint0_linear_4959_689" x1="398.619" y1="393.263" x2="57.5247" y2="302.704" gradientUnits="userSpaceOnUse">
<stop stop-color="white"/>
<stop offset="1" stop-color="#C5F0A4"/>
</linearGradient>
<linearGradient id="paint1_linear_4959_689" x1="364.757" y1="371.923" x2="190.968" y2="371.923" gradientUnits="userSpaceOnUse">
<stop stop-color="white"/>
<stop offset="1" stop-color="#B0B0B0"/>
</linearGradient>
<linearGradient id="paint2_linear_4959_689" x1="368.739" y1="374.953" x2="194.95" y2="374.953" gradientUnits="userSpaceOnUse">
<stop stop-color="white"/>
<stop offset="1" stop-color="#B0B0B0"/>
</linearGradient>
<linearGradient id="paint3_linear_4959_689" x1="393.482" y1="388.088" x2="219.693" y2="388.088" gradientUnits="userSpaceOnUse">
<stop stop-color="white"/>
<stop offset="1" stop-color="#B0B0B0"/>
</linearGradient>
<linearGradient id="paint4_linear_4959_689" x1="404.369" y1="359.441" x2="177.371" y2="359.441" gradientUnits="userSpaceOnUse">
<stop stop-color="white"/>
<stop offset="1" stop-color="#B0B0B0"/>
</linearGradient>
<linearGradient id="paint5_linear_4959_689" x1="444.192" y1="282.545" x2="49.5306" y2="177.744" gradientUnits="userSpaceOnUse">
<stop stop-color="white"/>
<stop offset="1" stop-color="#C5F0A4"/>
</linearGradient>
<linearGradient id="paint6_linear_4959_689" x1="404.346" y1="258.15" x2="203.976" y2="258.15" gradientUnits="userSpaceOnUse">
<stop stop-color="white"/>
<stop offset="1" stop-color="#B0B0B0"/>
</linearGradient>
<linearGradient id="paint7_linear_4959_689" x1="408.941" y1="261.629" x2="208.571" y2="261.629" gradientUnits="userSpaceOnUse">
<stop stop-color="white"/>
<stop offset="1" stop-color="#B0B0B0"/>
</linearGradient>
<linearGradient id="paint8_linear_4959_689" x1="437.455" y1="276.789" x2="237.108" y2="276.789" gradientUnits="userSpaceOnUse">
<stop stop-color="white"/>
<stop offset="1" stop-color="#B0B0B0"/>
</linearGradient>
<linearGradient id="paint9_linear_4959_689" x1="450.014" y1="243.769" x2="188.306" y2="243.769" gradientUnits="userSpaceOnUse">
<stop stop-color="white"/>
<stop offset="1" stop-color="#B0B0B0"/>
</linearGradient>
<linearGradient id="paint10_linear_4959_689" x1="213.755" y1="338.626" x2="554.849" y2="248.067" gradientUnits="userSpaceOnUse">
<stop stop-color="white"/>
<stop offset="1" stop-color="#C5F0A4"/>
</linearGradient>
<linearGradient id="paint11_linear_4959_689" x1="247.618" y1="317.287" x2="421.407" y2="317.287" gradientUnits="userSpaceOnUse">
<stop stop-color="white"/>
<stop offset="1" stop-color="#B0B0B0"/>
</linearGradient>
<linearGradient id="paint12_linear_4959_689" x1="243.659" y1="320.316" x2="417.425" y2="320.316" gradientUnits="userSpaceOnUse">
<stop stop-color="white"/>
<stop offset="1" stop-color="#B0B0B0"/>
</linearGradient>
<linearGradient id="paint13_linear_4959_689" x1="218.916" y1="333.451" x2="392.682" y2="333.451" gradientUnits="userSpaceOnUse">
<stop stop-color="white"/>
<stop offset="1" stop-color="#B0B0B0"/>
</linearGradient>
<linearGradient id="paint14_linear_4959_689" x1="208.006" y1="304.804" x2="435.004" y2="304.804" gradientUnits="userSpaceOnUse">
<stop stop-color="white"/>
<stop offset="1" stop-color="#B0B0B0"/>
</linearGradient>
<linearGradient id="paint15_linear_4959_689" x1="279.335" y1="221.559" x2="573.482" y2="143.471" gradientUnits="userSpaceOnUse">
<stop stop-color="white"/>
<stop offset="1" stop-color="#C5F0A4"/>
</linearGradient>
<linearGradient id="paint16_linear_4959_689" x1="305.113" y1="205.769" x2="454.961" y2="205.769" gradientUnits="userSpaceOnUse">
<stop stop-color="white"/>
<stop offset="1" stop-color="#B0B0B0"/>
</linearGradient>
<linearGradient id="paint17_linear_4959_689" x1="283.764" y1="217.119" x2="433.635" y2="217.119" gradientUnits="userSpaceOnUse">
<stop stop-color="white"/>
<stop offset="1" stop-color="#B0B0B0"/>
</linearGradient>
<linearGradient id="paint18_linear_4959_689" x1="274.361" y1="192.421" x2="470.113" y2="192.421" gradientUnits="userSpaceOnUse">
<stop stop-color="white"/>
<stop offset="1" stop-color="#B0B0B0"/>
</linearGradient>
<linearGradient id="paint19_linear_4959_689" x1="308.53" y1="203.179" x2="458.401" y2="203.179" gradientUnits="userSpaceOnUse">
<stop stop-color="white"/>
<stop offset="1" stop-color="#B0B0B0"/>
</linearGradient>
</defs>
</svg>
