<svg width="392" height="388" viewBox="0 0 392 388" fill="none" xmlns="http://www.w3.org/2000/svg">
<path d="M328.148 108.545C328.148 108.545 330.929 100.533 339.251 100.326C347.582 100.12 344.587 105.261 353.348 104.436C362.11 103.61 358.9 93.7498 372.567 91.6952C386.234 89.6406 392.001 108.545 392.001 108.545H328.148Z" fill="white"/>
<path d="M183.755 12.7045C183.755 12.7045 185.826 6.72005 192.05 6.56752C198.274 6.41499 196.041 10.2551 202.579 9.636C209.116 9.02589 206.722 1.65077 216.927 0.116533C227.133 -1.41771 231.438 12.7045 231.438 12.7045H183.755Z" fill="white"/>
<path d="M0 73.0859C0 73.0859 1.85637 67.7385 7.40756 67.595C12.9677 67.4604 10.9679 70.8877 16.815 70.3404C22.6621 69.7931 20.5188 63.2076 29.6392 61.8348C38.7597 60.4621 42.6069 73.0859 42.6069 73.0859H0Z" fill="white"/>
<path d="M216.02 38.4629H88.8805C74.7796 38.4629 63.3486 49.8992 63.3486 64.0066V362.439C63.3486 376.546 74.7796 387.983 88.8805 387.983H216.02C230.121 387.983 241.552 376.546 241.552 362.439V64.0066C241.552 49.8992 230.121 38.4629 216.02 38.4629Z" fill="#E5EDFD"/>
<path d="M216.029 47.2108C225.284 47.2108 232.817 54.7474 232.817 64.0066V362.448C232.817 371.707 225.284 379.244 216.029 379.244H88.8805C79.6255 379.244 72.0924 371.707 72.0924 362.448V64.0066C72.0924 54.7474 79.6255 47.2108 88.8805 47.2108H216.029ZM216.029 38.4629H88.8805C74.7828 38.4629 63.3486 49.9024 63.3486 64.0066V362.448C63.3486 376.552 74.7828 387.992 88.8805 387.992H216.029C230.126 387.992 241.561 376.552 241.561 362.448V64.0066C241.561 49.9024 230.126 38.4629 216.029 38.4629Z" fill="#060000"/>
<path d="M192.237 39.3418H112.682V48.6011C112.682 52.7014 116.009 56.03 120.107 56.03H184.811C188.91 56.03 192.237 52.7014 192.237 48.6011V39.3418Z" fill="#060000"/>
<path d="M137.648 46.2871H168.158" stroke="white" stroke-width="0.76" stroke-linecap="round" stroke-linejoin="round"/>
<path d="M184.219 259.439H93.3645C89.4369 259.439 86.2529 262.625 86.2529 266.554V342.477C86.2529 346.406 89.4369 349.592 93.3645 349.592H184.219C188.147 349.592 191.331 346.406 191.331 342.477V266.554C191.331 262.625 188.147 259.439 184.219 259.439Z" fill="#9BBDF9"/>
<path d="M124.663 272.055H103.776C102.216 272.055 100.951 273.32 100.951 274.881V295.777C100.951 297.338 102.216 298.603 103.776 298.603H124.663C126.223 298.603 127.487 297.338 127.487 295.777V274.881C127.487 273.32 126.223 272.055 124.663 272.055Z" fill="white"/>
<path d="M136.545 280.426H160.525" stroke="black" stroke-width="1.3" stroke-linecap="round" stroke-linejoin="round"/>
<path d="M136.545 288.967H175.215" stroke="black" stroke-width="1.3" stroke-linecap="round" stroke-linejoin="round"/>
<path d="M100.951 309.648H127.487" stroke="white" stroke-width="1.3" stroke-linecap="round" stroke-linejoin="round"/>
<path d="M100.951 318.469H175.215" stroke="white" stroke-width="1.3" stroke-linecap="round" stroke-linejoin="round"/>
<path d="M100.951 328.186H175.215" stroke="white" stroke-width="1.3" stroke-linecap="round" stroke-linejoin="round"/>
<path d="M46.879 129.857C49.6068 118.419 42.5504 106.935 31.1181 104.206C19.6859 101.477 8.20687 108.536 5.4791 119.974C2.75133 131.412 9.80774 142.896 21.24 145.625C32.6723 148.354 44.1513 141.294 46.879 129.857Z" fill="#DC761C"/>
<path d="M17.6113 125.932L24.2925 130.885L35.7356 119.006" stroke="white" stroke-width="2.14" stroke-linecap="round" stroke-linejoin="round"/>
<path d="M109.318 181.326H38.0675C35.4969 181.326 33.4131 183.411 33.4131 185.983V235.644C33.4131 238.215 35.4969 240.3 38.0675 240.3H109.318C111.889 240.3 113.973 238.215 113.973 235.644V185.983C113.973 183.411 111.889 181.326 109.318 181.326Z" fill="#4479FA"/>
<path d="M86.1084 206.019C86.1084 198.984 80.4137 193.287 73.3828 193.287C66.3519 193.287 60.6572 198.984 60.6572 206.019C60.6572 208.369 61.3029 210.559 62.415 212.452L62.4508 212.497C62.9351 213.322 63.5091 214.085 64.1637 214.775L73.3918 226.996L82.6019 214.784C83.2655 214.085 83.8485 213.313 84.3327 212.488L84.3596 212.452C85.4717 210.559 86.1173 208.369 86.1173 206.019H86.1084ZM73.3828 211.563C70.2888 211.563 67.7778 209.051 67.7778 205.956C67.7778 202.86 70.2888 200.348 73.3828 200.348C76.4768 200.348 78.9878 202.86 78.9878 205.956C78.9878 209.051 76.4768 211.563 73.3828 211.563Z" fill="white"/>
<path d="M213.867 82.498H90.9876C87.06 82.498 83.876 85.6835 83.876 89.613V165.535C83.876 169.465 87.06 172.65 90.9876 172.65H213.867C217.795 172.65 220.979 169.465 220.979 165.535V89.613C220.979 85.6835 217.795 82.498 213.867 82.498Z" fill="white"/>
<path d="M115.936 103.998H97.6236C96.2566 103.998 95.1484 105.107 95.1484 106.474V124.796C95.1484 126.163 96.2566 127.272 97.6236 127.272H115.936C117.303 127.272 118.411 126.163 118.411 124.796V106.474C118.411 105.107 117.303 103.998 115.936 103.998Z" fill="#9BBDF9"/>
<path d="M145.575 103.998H127.262C125.895 103.998 124.787 105.107 124.787 106.474V124.796C124.787 126.163 125.895 127.272 127.262 127.272H145.575C146.942 127.272 148.05 126.163 148.05 124.796V106.474C148.05 105.107 146.942 103.998 145.575 103.998Z" fill="#9BBDF9"/>
<path d="M175.215 103.998H156.902C155.535 103.998 154.427 105.107 154.427 106.474V124.796C154.427 126.163 155.535 127.272 156.902 127.272H175.215C176.582 127.272 177.69 126.163 177.69 124.796V106.474C177.69 105.107 176.582 103.998 175.215 103.998Z" fill="#9BBDF9"/>
<path d="M204.854 103.998H186.542C185.175 103.998 184.066 105.107 184.066 106.474V124.796C184.066 126.163 185.175 127.272 186.542 127.272H204.854C206.221 127.272 207.329 126.163 207.329 124.796V106.474C207.329 105.107 206.221 103.998 204.854 103.998Z" fill="#DC761C"/>
<path d="M115.936 135.391H97.6236C96.2566 135.391 95.1484 136.499 95.1484 137.867V156.188C95.1484 157.556 96.2566 158.664 97.6236 158.664H115.936C117.303 158.664 118.411 157.556 118.411 156.188V137.867C118.411 136.499 117.303 135.391 115.936 135.391Z" fill="#9BBDF9"/>
<path d="M145.575 135.391H127.262C125.895 135.391 124.787 136.499 124.787 137.867V156.188C124.787 157.556 125.895 158.664 127.262 158.664H145.575C146.942 158.664 148.05 157.556 148.05 156.188V137.867C148.05 136.499 146.942 135.391 145.575 135.391Z" fill="#9BBDF9"/>
<path d="M175.215 135.391H156.902C155.535 135.391 154.427 136.499 154.427 137.867V156.188C154.427 157.556 155.535 158.664 156.902 158.664H175.215C176.582 158.664 177.69 157.556 177.69 156.188V137.867C177.69 136.499 176.582 135.391 175.215 135.391Z" fill="#9BBDF9"/>
<path d="M204.854 135.391H186.542C185.175 135.391 184.066 136.499 184.066 137.867V156.188C184.066 157.556 185.175 158.664 186.542 158.664H204.854C206.221 158.664 207.329 157.556 207.329 156.188V137.867C207.329 136.499 206.221 135.391 204.854 135.391Z" fill="#9BBDF9"/>
<path d="M216.325 181.326H135.936C133.365 181.326 131.281 183.411 131.281 185.983V235.644C131.281 238.215 133.365 240.3 135.936 240.3H216.325C218.895 240.3 220.979 238.215 220.979 235.644V185.983C220.979 183.411 218.895 181.326 216.325 181.326Z" fill="white"/>
<path d="M208.793 188.02H145.066C143.699 188.02 142.591 189.128 142.591 190.496V198.948C142.591 200.315 143.699 201.424 145.066 201.424H208.793C210.16 201.424 211.268 200.315 211.268 198.948V190.496C211.268 189.128 210.16 188.02 208.793 188.02Z" fill="#9BBDF9"/>
<path d="M143.487 210.207H174.786" stroke="black" stroke-width="1.3" stroke-linecap="round" stroke-linejoin="round"/>
<path d="M143.487 217.834H210.371" stroke="black" stroke-width="1.3" stroke-linecap="round" stroke-linejoin="round"/>
<path d="M143.487 226.24H210.371" stroke="black" stroke-width="1.3" stroke-linecap="round" stroke-linejoin="round"/>
<path d="M259.443 278.627H212.837C209.711 278.627 207.178 281.162 207.178 284.288V324.726C207.178 327.853 209.711 330.387 212.837 330.387H259.443C262.568 330.387 265.102 327.853 265.102 324.726V284.288C265.102 281.162 262.568 278.627 259.443 278.627Z" fill="#DC761C"/>
<path d="M247.614 302.251L245.713 301.919C245.489 301.094 245.157 300.295 244.736 299.551L245.848 297.972C246.251 297.388 246.188 296.599 245.686 296.097L244.547 294.957C244.036 294.464 243.247 294.41 242.673 294.822L241.095 295.935C240.35 295.504 239.552 295.172 238.727 294.957L238.404 293.01C238.288 292.319 237.696 291.808 236.996 291.799H235.355C234.647 291.799 234.037 292.31 233.911 293.01L233.579 294.912C232.754 295.136 231.956 295.468 231.212 295.89L229.633 294.831C229.051 294.428 228.261 294.49 227.759 294.993L226.62 296.132C226.118 296.635 226.046 297.424 226.459 298.008L227.571 299.587C227.14 300.331 226.809 301.13 226.593 301.955L224.692 302.287C223.993 302.413 223.481 303.014 223.481 303.732V305.347C223.481 306.056 223.993 306.666 224.692 306.791L226.593 307.123C226.818 307.949 227.149 308.747 227.571 309.492L226.459 311.071C226.055 311.654 226.118 312.444 226.62 312.946L227.759 314.086C228.261 314.588 229.051 314.66 229.633 314.247L231.212 313.135C231.956 313.565 232.754 313.897 233.579 314.113L233.911 316.015C234.037 316.715 234.638 317.226 235.355 317.226H236.987C237.696 317.226 238.306 316.715 238.431 316.015L238.763 314.113C239.588 313.888 240.386 313.556 241.13 313.135L242.673 314.22C243.256 314.624 244.045 314.561 244.547 314.059L245.686 312.919C246.188 312.417 246.26 311.627 245.848 311.044L244.736 309.447C245.166 308.702 245.498 307.904 245.713 307.078L247.614 306.746C248.314 306.621 248.825 306.02 248.825 305.302V303.687C248.825 302.978 248.314 302.368 247.614 302.251ZM236.135 309.555C233.346 309.555 231.077 307.294 231.077 304.494C231.077 301.704 233.337 299.434 236.135 299.434C238.924 299.434 241.193 301.695 241.193 304.494C241.193 304.503 241.193 304.512 241.193 304.521C241.175 307.303 238.915 309.546 236.135 309.546V309.555Z" fill="white"/>
<path d="M313.691 55.6157H349.841C358.773 55.6157 366.019 48.3662 366.019 39.4299C366.019 30.4937 358.773 23.2441 349.841 23.2441H313.691C304.759 23.2441 297.513 30.4937 297.513 39.4299C297.513 48.3662 304.759 55.6157 313.691 55.6157Z" fill="#9BBDF9"/>
<path d="M326.416 52.0457L314.686 63.575L312.552 51.1934L326.416 52.0457Z" fill="#9BBDF9"/>
<path d="M326.336 34.2908C324.65 32.6399 321.951 32.6668 320.301 34.3536L319.216 35.4661L318.095 34.3625C316.418 32.7027 313.709 32.7296 312.059 34.4074C310.409 36.0852 310.427 38.7948 312.104 40.4457L316.256 44.537C316.256 44.537 316.274 44.5549 316.283 44.5639C316.947 45.2099 317.763 45.6047 318.615 45.7303C319.933 45.9366 321.314 45.5149 322.319 44.5011L326.408 40.329C328.058 38.6423 328.031 35.9416 326.345 34.2908H326.336Z" fill="white"/>
<path d="M334.506 35.7266H351.133" stroke="white" stroke-width="1.02" stroke-linecap="round" stroke-linejoin="round"/>
<path d="M334.506 40.3457H343.277" stroke="white" stroke-width="1.02" stroke-linecap="round" stroke-linejoin="round"/>
<path d="M279.915 376.815L269.279 382.674C268.149 383.293 267.468 384.72 267.818 386.066C268.096 387.133 269.001 387.941 271.369 387.995C276.624 388.102 299.896 384.217 299.896 384.217V387.564L310.765 387.618C310.765 387.618 311.447 371.8 308.156 369.781L279.906 376.815H279.915Z" fill="#200902"/>
<path d="M294.157 365.178L279.907 376.815C279.907 376.815 281.737 382.073 289.862 378.565C297.978 375.056 308.156 369.772 308.156 369.772L306.677 363.68L294.166 365.169L294.157 365.178Z" fill="#ECC696"/>
<path d="M306.676 363.69L308.156 321.449L294.031 320.301V369.782L306.676 363.69Z" fill="#ECC696"/>
<path d="M281.53 194.618L287.431 359.114H314.819L316.218 181.33L281.53 194.618Z" fill="#3A2222"/>
<path d="M284.597 191.737L298.38 271.885C300.049 281.772 310.191 287.811 319.671 284.563C326.648 282.176 331.141 275.384 330.62 268.018L327.984 231.618C326.657 219.263 329.715 203.284 316.227 181.338L284.606 191.746L284.597 191.737Z" fill="#523332"/>
<path d="M357.041 372.774L351.131 383.388C350.503 384.51 350.682 386.08 351.687 387.04C352.485 387.794 353.687 388 355.713 386.789C360.224 384.088 377.891 368.45 377.891 368.45L379.667 371.285L388.913 365.561C388.913 365.561 381.102 351.788 377.246 351.824L357.032 372.783L357.041 372.774Z" fill="#200902"/>
<path d="M362.951 355.351L357.041 372.775C357.041 372.775 361.382 376.265 366.413 368.98C371.444 361.694 377.255 351.816 377.255 351.816L372.771 347.438L362.951 355.342V355.351Z" fill="#ECC696"/>
<path d="M372.761 347.447L351.623 310.85L339.041 317.372L365.281 359.317L372.761 347.447Z" fill="#ECC696"/>
<path d="M300.434 277.484L351.345 353.443L375.065 338.226L325.867 255.574L300.434 277.484Z" fill="#523332"/>
<path d="M262.447 61.5664C262.447 61.5664 251.13 60.095 249.659 70.8077C248.565 78.784 252.233 82.7048 249.354 89.1199C246.475 95.535 251.874 101.268 251.874 101.268C251.874 101.268 265.272 107.495 279.836 94.7634L262.447 61.5754V61.5664Z" fill="#DC761C"/>
<path d="M266.842 97.4026L272.985 113.355L285.827 109.937L273.962 87.0039L266.842 97.4026Z" fill="#ECC696"/>
<path d="M269.774 105.029L272.411 93.3379L267.622 99.43L269.774 105.029Z" fill="black"/>
<path d="M261.013 63.972C261.013 63.972 253.39 65.578 253.381 75.259C253.381 75.259 253.013 78.9555 253.497 89.0402C253.838 96.1821 257.21 101.126 263.909 100.444C267.156 100.112 270.563 98.1291 273.604 95.563L277.872 91.2115C287.737 79.1619 277.442 61.0112 262.116 63.7477C261.748 63.8105 261.38 63.8823 261.004 63.972H261.013Z" fill="#ECC696"/>
<path d="M253.991 83.4141L251.291 88.1603C250.977 88.6628 251.139 89.4344 251.802 89.4793L255.309 89.9368L254 83.4141H253.991Z" fill="#ECC696"/>
<path d="M272.016 80.5966C272.285 78.4074 273.774 63.1637 262.366 65.1286C260.6 65.4336 259.694 63.0739 261.218 62.1229C265.299 59.5748 271.774 57.8163 281.136 61.4231C284.939 62.8855 290.176 67.901 290.176 72.8267C290.176 83.4049 286.661 88.7613 280.464 94.2074C280.15 94.4855 279.648 94.3958 279.45 94.019L275.46 86.3029C275.46 86.3029 275.433 86.2491 275.424 86.2221C274.984 84.8225 272.76 81.8796 272.141 81.0631C272.034 80.9286 271.989 80.7671 272.016 80.5966Z" fill="#DC761C"/>
<path d="M264.376 61.3871C250.028 68.0085 271.031 83.7636 271.031 83.7636L276.94 72.1267C276.94 72.1267 266.78 60.2835 264.376 61.3871Z" fill="#DC761C"/>
<path d="M254.86 74.5689L262.447 77.1439C262.447 77.1439 261.129 74.7035 258.439 73.3935C254.824 71.635 254.86 74.5689 254.86 74.5689Z" fill="black"/>
<path d="M256.457 79.7559C256.457 79.7559 259.013 80.3121 259.094 82.8602C259.184 85.4083 256.404 85.2379 256.404 85.2379C256.404 85.2379 254.009 82.1514 256.448 79.7559H256.457Z" fill="white"/>
<mask id="mask0_4916_1396" style="mask-type:luminance" maskUnits="userSpaceOnUse" x="255" y="79" width="5" height="7">
<path d="M256.458 79.7559C256.458 79.7559 259.014 80.3121 259.095 82.8602C259.185 85.4083 256.405 85.2379 256.405 85.2379C256.405 85.2379 254.01 82.1514 256.449 79.7559H256.458Z" fill="white"/>
</mask>
<g mask="url(#mask0_4916_1396)">
<path d="M256.969 79.0996C256.969 79.0996 258.951 82.7872 256.404 85.2366L254.978 85.102L254.906 81.0376L256.96 79.0996H256.969Z" fill="black"/>
</g>
<path d="M255.838 79.1172C256.313 79.1531 256.69 79.2518 257.085 79.4133C257.47 79.5658 257.829 79.7901 258.143 80.0682C258.448 80.3464 258.717 80.6694 258.896 81.0283C259.094 81.3782 259.192 81.7729 259.282 82.1498C259.3 82.2305 259.246 82.3113 259.165 82.3292C259.094 82.3472 259.022 82.3023 258.995 82.2395C258.869 81.8896 258.726 81.5576 258.511 81.2795C258.313 80.9924 258.053 80.7591 257.766 80.5707C257.479 80.3823 257.165 80.2477 256.843 80.1759C256.52 80.0952 256.152 80.0593 255.874 80.0862H255.856C255.596 80.1131 255.363 79.9157 255.345 79.6555C255.327 79.3953 255.515 79.162 255.775 79.1441C255.802 79.1441 255.829 79.1441 255.847 79.1441L255.838 79.1172Z" fill="black"/>
<path d="M253.973 91.284C253.067 91.4276 252.995 92.4773 253.829 92.8183C253.829 92.8183 252.735 93.9398 254.394 94.3076C256.053 94.6755 257.623 91.8403 257.623 91.8403C255.596 92.2889 255.174 91.0956 253.973 91.284Z" fill="#C7181B"/>
<path d="M273.084 87.0663C273.98 93.4544 273.236 100.516 273.236 100.516C273.236 100.516 291.351 106.338 299.575 85.7204C299.575 85.7204 294.32 83.6927 292.705 79.1707C291.091 74.6488 292.688 58.9206 271.541 59.3871C271.541 59.3871 272.07 79.8706 273.084 87.0663Z" fill="#DC761C"/>
<path d="M280.034 83.6312C280.366 86.3049 278.473 88.7453 275.792 89.0773C273.119 89.4093 270.68 87.5162 270.348 84.8335C270.016 82.1598 271.909 79.7193 274.59 79.3874C277.263 79.0554 279.702 80.9485 280.034 83.6312Z" fill="#ECC696"/>
<path d="M273.083 86.3038C273.083 86.3038 273.271 82.5894 276.338 82.5176" stroke="black" stroke-width="0.51" stroke-linecap="round" stroke-linejoin="round"/>
<path d="M304.606 122.18L334.631 146.503C338.926 150.173 339.258 156.714 335.348 160.796C331.77 164.528 325.914 164.86 321.941 161.55L289.36 135.728L304.615 122.189L304.606 122.18Z" fill="#ECC696"/>
<path d="M322.614 131.116C322.614 131.116 321.331 140.797 304.463 151.913L281.531 134.857C275.128 130.093 274.196 120.861 279.514 114.912C283.917 109.986 291.235 108.946 296.84 112.454L322.623 131.107L322.614 131.116Z" fill="#467AC9"/>
<path d="M322.067 161.891L351.849 200.166L359.149 191.598L336.891 149.088C333.268 144.198 326.129 143.749 321.914 148.136C318.21 151.995 318.282 158.114 322.067 161.891Z" fill="#ECC696"/>
<path d="M350.11 198.54L349.805 200.46C349.393 203.035 349.59 205.673 350.388 208.15L351.787 212.519C352.119 213.56 353.303 214.053 354.271 213.551C355.087 213.129 355.572 212.25 355.482 211.335L355.025 206.481L364.71 220.199C365.168 220.881 366.118 221.007 366.737 220.468L367.149 220.109C367.643 219.679 367.759 218.97 367.436 218.405L361.249 208.948L369.858 218.826C370.36 219.472 371.311 219.544 371.894 218.97L372.18 218.683C372.674 218.198 372.728 217.427 372.306 216.88L365.194 207.719L372.127 213.488C372.781 214.062 373.804 213.892 374.225 213.129L374.315 212.977C374.602 212.456 374.521 211.801 374.109 211.371L367.338 204.866L371.589 207.405C372.369 208.042 373.544 207.638 373.777 206.66C373.884 206.194 373.741 205.7 373.4 205.368L356.128 189.191L352.594 193.229C351.285 194.736 350.415 196.575 350.101 198.549L350.11 198.54Z" fill="#ECC696"/>
<path d="M281.666 109.451C281.666 109.451 269.864 108.303 269.712 129.63C269.559 151.01 276.303 161.086 281.531 194.624C281.531 194.624 301.539 192.166 316.228 181.336C316.228 181.336 317.143 102.794 281.666 109.451Z" fill="#4479FA"/>
<path d="M279.28 138.018L251.372 164.747C247.184 168.551 240.664 168.048 237.113 163.652C233.857 159.632 234.279 153.774 238.063 150.257L267.783 121.178L279.289 138.018H279.28Z" fill="#ECC696"/>
<path d="M271.666 154.966C271.666 154.966 261.936 154.634 251.928 134.779L271.55 114.008C277.029 108.203 286.302 108.365 291.584 114.349C295.961 119.302 296.131 126.695 291.988 131.845L271.666 154.975V154.966Z" fill="#4479FA"/>
<path d="M274.365 151.898L287.781 136.627" stroke="black" stroke-width="0.51" stroke-linecap="round" stroke-linejoin="round"/>
<path d="M250.878 150.543L211.114 120.441L205.895 128.633L237.318 163.938C241.148 168.451 248.116 168.425 251.918 163.894C255.263 159.901 254.797 153.97 250.878 150.552V150.543Z" fill="#ECC696"/>
<path d="M216.386 128.755C214.888 133.798 210.028 133.591 200.468 130.918C195.41 129.5 193.571 125.911 195.069 120.869C196.567 115.827 201.867 112.956 206.907 114.454C211.947 115.952 217.893 123.713 216.395 128.755H216.386Z" fill="#ECC696"/>
<path d="M208.656 115.163L196.504 108.093C195.706 107.555 194.585 107.743 194.029 108.524C193.554 109.197 193.661 110.094 194.28 110.641L203.715 118.618L208.656 115.163Z" fill="#ECC696"/>
</svg>
