<svg width="572" height="408" viewBox="0 0 572 408" fill="none" xmlns="http://www.w3.org/2000/svg">
<path d="M572 0H0.583496V408H572V0Z" fill="white"/>
<path d="M512.744 134.164C472.836 76.7561 362.715 80.7851 344.289 81.2135C325.864 81.6439 310.199 76.5398 297.741 46.868C285.283 17.1983 254.352 19.3464 213.184 29.6688C172.016 39.9891 37.4001 115.243 31.8159 233.791C31.7589 234.976 31.712 236.153 31.6733 237.322C30.7317 265.527 38.142 291.999 51.6337 314.428C57.2729 323.808 63.978 332.482 71.5798 340.279C72.5988 341.326 73.6361 342.358 74.6898 343.374C80.9384 349.4 87.7413 354.855 95.015 359.653C105.197 366.375 116.306 371.809 128.106 375.726C136.733 378.59 145.729 380.643 155.004 381.791C161.234 382.564 163.923 384.774 170.379 384.704H372.514L385.987 380.579C390.84 380.504 395.613 380.218 400.305 379.735C404.105 379.343 407.853 378.819 411.542 378.17C418.5 376.948 425.252 375.281 431.78 373.207C443.621 369.443 454.726 364.337 464.977 358.109C472.112 353.774 478.836 348.894 485.105 343.547C487.098 341.844 489.046 340.096 490.948 338.302C498.028 331.621 504.456 324.314 510.168 316.503C546.789 266.423 553.92 195.637 514.358 136.53C513.824 135.732 513.286 134.943 512.744 134.164Z" fill="#FDEACF"/>
<g style="mix-blend-mode:multiply">
<path d="M60.8272 199.047L40.019 228.912L51.6602 228.917L51.6337 314.429C57.2729 323.809 63.978 332.483 71.5798 340.28L69.9759 228.921L81.6171 228.925L60.8272 199.047Z" fill="#FEEFDC"/>
</g>
<g style="mix-blend-mode:multiply">
<path d="M122.018 102.859L95.4609 140.973L110.318 140.979L110.243 374.394C118.87 377.258 127.865 379.31 137.141 380.459L133.692 140.985L148.549 140.989L122.018 102.859Z" fill="#FEEFDC"/>
</g>
<g style="mix-blend-mode:multiply">
<path d="M390.39 296.738L369.582 326.604L381.223 326.608L381.204 380.631L385.988 380.58C390.84 380.505 395.613 380.219 400.305 379.736L399.538 326.612L411.18 326.616L390.39 296.738Z" fill="#FEEFDC"/>
</g>
<g style="mix-blend-mode:multiply">
<path d="M496.848 164.215L470.292 202.328L485.15 202.332L485.105 343.549C487.098 341.846 489.046 340.098 490.948 338.304C498.028 331.623 504.456 324.316 510.168 316.505L508.524 202.34L523.381 202.344L496.848 164.215Z" fill="#FEEFDC"/>
</g>
<path d="M275.588 78.7093C275.182 73.3828 272.71 68.4481 268.803 65.1698C264.896 61.8915 260.087 60.7165 255.607 61.9446L238.104 66.7427L239.333 71.2368L256.836 66.4387C260.129 65.535 263.667 66.3999 266.541 68.8112C269.415 71.2225 271.233 74.8517 271.53 78.7685L273.878 109.666C275.207 127.151 269.152 143.975 257.682 154.673L260.407 158.326C266.533 152.612 271.369 145.148 274.396 136.737C277.422 128.328 278.647 118.946 277.936 109.609L275.588 78.7113V78.7093Z" fill="white"/>
<path d="M239.29 65.5448C239.162 65.0796 238.775 64.7655 238.371 64.7696C238.363 64.7696 238.355 64.7696 238.345 64.7696L238.18 64.794H238.174L230.119 66.0323L229.777 66.0854C229.07 66.3037 228.682 67.1339 228.911 67.9642L230.731 74.6166C230.961 75.4612 231.74 75.9814 232.469 75.7815C232.51 75.7693 232.551 75.757 232.589 75.7407C232.595 75.7386 232.604 75.7346 232.61 75.7325L240.33 72.6256H240.332L240.466 72.5685H240.47C240.839 72.3727 241.025 71.8953 240.894 71.4159L239.288 65.5427L239.29 65.5448Z" fill="#F7597F"/>
<path d="M204.365 128.721L190.657 100.938C188.919 97.4171 188.637 93.3657 189.883 89.8263C191.128 86.2868 193.73 83.7389 197.026 82.8352L214.528 78.0371L213.3 73.543L195.797 78.341C191.317 79.5691 187.777 83.0351 186.084 87.8474C184.39 92.6618 184.775 98.1678 187.137 102.958L200.845 130.74C204.989 139.137 210.817 146.585 217.702 152.277C224.586 157.968 232.549 161.926 240.729 163.717L241.214 159.184C225.899 155.828 212.126 144.439 204.369 128.717L204.365 128.721Z" fill="white"/>
<path d="M221.829 69.9057C221.603 69.0754 220.845 68.5573 220.127 68.7307L219.805 68.8592L212.246 71.9029H212.24L212.085 71.9661C212.077 71.9702 212.069 71.9743 212.063 71.9783C211.714 72.1823 211.539 72.6475 211.668 73.1146L213.273 78.9878C213.404 79.4672 213.809 79.7834 214.225 79.763H214.229L214.374 79.7405H214.376L222.599 78.4757C222.608 78.4757 222.614 78.4737 222.622 78.4717C222.663 78.4655 222.705 78.4553 222.746 78.4451C223.476 78.2452 223.879 77.3986 223.649 76.5561L221.829 69.9037V69.9057Z" fill="#F7597F"/>
<path d="M271.151 127.153C268.934 139.65 261.646 150.849 250.63 158.687C250.253 158.956 249.785 159.085 249.324 159.046C235.855 157.92 223.883 152 215.615 142.377C214.759 141.379 214.301 140.759 214.297 140.753L208.843 144.333C208.865 144.364 209.422 145.121 210.441 146.308C215.059 151.684 220.731 156.053 227.297 159.297C233.782 162.5 240.827 164.45 248.244 165.097L266.329 231.195L266.384 231.18L272.674 229.457L272.729 229.442L254.643 163.344C260.696 159.005 265.765 153.734 269.714 147.669C273.713 141.528 276.369 134.876 277.608 127.895C277.881 126.355 277.972 125.421 277.977 125.382L271.461 125.084C271.461 125.084 271.382 125.859 271.153 127.153H271.151Z" fill="#4CB7D8"/>
<path d="M271.255 125.069C270.869 130.395 269.086 134.261 269.068 134.3L269.437 134.473C269.455 134.435 271.226 130.599 271.646 125.297L277.964 125.587L277.982 125.179L271.269 124.871L271.255 125.069Z" fill="black"/>
<path d="M271.807 79.752L271.401 79.7826C271.418 80.0091 273.13 102.523 273.747 110.789C274.363 119.018 272.946 124.975 272.932 125.034L273.327 125.13C273.342 125.071 274.772 119.055 274.153 110.756C273.535 102.49 271.825 79.9764 271.807 79.75V79.752Z" fill="black"/>
<path d="M260.534 61.4143C257.196 61.1083 254.771 61.9529 254.669 61.9896L254.806 62.3731C254.901 62.3384 264.531 59.0479 271.442 68.2381L271.768 67.9933C268.067 63.0688 263.616 61.6979 260.534 61.4143Z" fill="black"/>
<path d="M190.025 89.8663C191.723 85.2702 195.99 83.4015 196.033 83.3832L195.874 83.0078C195.829 83.0262 191.407 84.9581 189.644 89.7194C188.293 93.369 188.818 97.6754 191.207 102.514L204.882 130.187L205.247 130.005L191.572 102.333C189.236 97.5999 188.714 93.4057 190.023 89.8643L190.025 89.8663Z" fill="black"/>
<path d="M194.366 118.073C198.132 126.601 204.45 137.519 204.514 137.629L204.866 137.425C204.803 137.317 198.497 126.417 194.739 117.91L194.366 118.075V118.073Z" fill="black"/>
<path d="M214.451 140.627L214.335 140.486L208.728 144.166L208.952 144.507L214.255 141.027C215.384 142.365 224.37 152.765 232.361 154.717L232.457 154.322C224.087 152.278 214.547 140.745 214.451 140.629V140.627Z" fill="black"/>
<path d="M237.907 64.6501L229.744 65.9004L229.806 66.3037L237.969 65.0534L237.907 64.6501Z" fill="black"/>
<path d="M220.051 68.549L212.164 71.7227L212.316 72.1012L220.203 68.9275L220.051 68.549Z" fill="black"/>
<path d="M213.941 72.5028L212.956 74.3789L213.317 74.5688L214.302 72.6926L213.941 72.5028Z" fill="black"/>
<path d="M214.433 73.7588L213.447 75.6348L213.808 75.8247L214.794 73.9487L214.433 73.7588Z" fill="black"/>
<path d="M238.591 69.1512L237.605 71.0273L237.966 71.2172L238.952 69.3411L238.591 69.1512Z" fill="black"/>
<path d="M239.097 70.4234L238.111 72.2988L238.471 72.4889L239.458 70.6135L239.097 70.4234Z" fill="black"/>
<path d="M349.164 138.523C348.249 138.446 347.332 138.385 346.413 138.342C346.927 140.286 347.2 142.328 347.2 144.433V253.657H352.702V144.433C352.702 142.528 352.521 140.663 352.175 138.858C351.178 138.721 350.175 138.609 349.164 138.523Z" fill="#FF424D"/>
<path d="M245.794 141.951C228.375 135.651 208.614 137.451 192.239 145.953C135.413 176.959 173.878 248.011 206.582 282.813C208.398 284.943 210.235 287.058 212.085 289.159C234.183 314.174 258.254 337.328 283.257 359.417V179.414C274.265 164.226 263.415 147.665 245.794 141.951Z" fill="#EF3A4C"/>
<g style="mix-blend-mode:multiply">
<path d="M388.588 102.859H381.118V108.914H375.055V116.372H381.118V122.427H388.588V116.372H394.651V108.914H388.588V102.859ZM393.65 109.914V115.369H387.587V121.423H382.123V115.369H376.06V109.914H382.123V103.859H387.587V109.914H393.65Z" fill="#FDEACF"/>
</g>
<g style="mix-blend-mode:multiply">
<path d="M239.771 97.7207H232.302V103.775H226.239V111.234H232.302V117.288H239.771V111.234H245.834V103.775H239.771V97.7207ZM244.834 104.775V110.23H238.771V116.285H233.307V110.23H227.244V104.775H233.307V98.7203H238.771V104.775H244.834Z" fill="#FDEACF"/>
</g>
<g style="mix-blend-mode:multiply">
<path d="M86.3455 174.559H78.8761V180.613H72.813V188.072H78.8761V194.126H86.3455V188.072H92.4086V180.613H86.3455V174.559ZM91.4079 181.613V187.068H85.3448V193.123H79.8808V187.068H73.8177V181.613H79.8808V175.558H85.3448V181.613H91.4079Z" fill="#FDEACF"/>
</g>
<g style="mix-blend-mode:multiply">
<path d="M427.808 137.629H418.16V145.448H410.328V155.081H418.16V162.9H427.808V155.081H435.64V145.448H427.808V137.629ZM434.346 146.742V153.788H426.514V161.607H419.454V153.788H411.622V146.742H419.454V138.922H426.514V146.742H434.346Z" fill="#FDEACF"/>
</g>
<g style="mix-blend-mode:multiply">
<path d="M472.131 127.666H468.454V130.646H465.468V134.318H468.454V137.299H472.131V134.318H475.116V130.646H472.131V127.666ZM474.623 131.14V133.827H471.637V136.807H468.947V133.827H465.961V131.14H468.947V128.16H471.637V131.14H474.623Z" fill="#FDEACF"/>
</g>
<g style="mix-blend-mode:multiply">
<path d="M257.578 35.1426H251.761V39.857H247.039V45.6649H251.761V50.3793H257.578V45.6649H262.3V39.857H257.578V35.1426ZM261.519 40.6363V44.8856H256.797V49.6001H252.542V44.8856H247.82V40.6363H252.542V35.9219H256.797V40.6363H261.519Z" fill="#FDEACF"/>
</g>
<g style="mix-blend-mode:multiply">
<path d="M97.3342 148.588H93.6576V151.568H90.6719V155.24H93.6576V158.221H97.3342V155.24H100.32V151.568H97.3342V148.588ZM99.8267 152.062V154.749H96.841V157.729H94.1508V154.749H91.1651V152.062H94.1508V149.082H96.841V152.062H99.8267Z" fill="#FDEACF"/>
</g>
<path d="M173.167 159.471C155.958 159.471 142.007 173.434 142.007 190.66C142.007 204.102 150.504 215.558 162.412 219.942V226.156C162.412 229.394 165.035 232.019 168.269 232.019H180.169C183.404 232.019 186.027 229.394 186.027 226.156V219.077C196.818 214.175 204.324 203.296 204.324 190.662C204.324 173.437 190.374 159.473 173.165 159.473L173.167 159.471Z" fill="#49263E"/>
<path d="M173.167 217.7C188.086 217.7 200.181 205.593 200.181 190.659C200.181 175.725 188.086 163.619 173.167 163.619C158.247 163.619 146.153 175.725 146.153 190.659C146.153 205.593 158.247 217.7 173.167 217.7Z" fill="white"/>
<path d="M181.95 182.45C184.123 184.173 185.827 186.593 186.807 189.424L194.733 185.942C193.422 182.158 191.315 178.825 188.643 176.203L181.948 182.45H181.95Z" fill="#EF3A4C"/>
<path d="M151.688 185.944L159.614 189.426C160.594 186.597 162.298 184.175 164.471 182.452L157.776 176.205C155.104 178.826 152.996 182.16 151.686 185.944H151.688Z" fill="#FDEACF"/>
<path d="M159.268 174.361L166.038 180.677C168.113 179.233 170.554 178.396 173.173 178.396C175.792 178.396 178.233 179.233 180.308 180.677L187.078 174.361C183.282 170.893 178.443 168.816 173.175 168.816C167.907 168.816 163.068 170.893 159.272 174.361H159.268Z" fill="#80C4A4"/>
<path d="M173.167 194.082C174.001 194.082 174.677 193.405 174.677 192.57C174.677 191.735 174.001 191.059 173.167 191.059C172.333 191.059 171.657 191.735 171.657 192.57C171.657 193.405 172.333 194.082 173.167 194.082Z" fill="#49263E"/>
<path d="M186.353 180.828L170.002 194.431C169.761 194.631 169.728 194.988 169.928 195.229C170.128 195.469 170.485 195.502 170.725 195.302L187.076 181.699C187.317 181.499 187.349 181.142 187.149 180.902C186.95 180.661 186.593 180.628 186.353 180.828Z" fill="#49263E"/>
<path d="M352.175 138.856C352.521 140.662 352.702 142.526 352.702 144.432V253.655H347.2V144.432C347.2 142.326 346.927 140.284 346.413 138.34C325.25 137.024 310.36 144.517 298.513 157.465C296.912 159.246 295.391 161.092 293.94 162.994V162.914C290.111 167.863 286.595 173.408 283.257 179.412V354.372C285.546 354.078 287.706 353.734 289.742 353.34C300.511 343.317 312.368 332.53 324.243 321.079C324.315 321.01 324.388 320.941 324.46 320.871C324.517 320.816 324.574 320.761 324.631 320.706C326.312 319.084 327.991 317.45 329.669 315.802C329.764 315.708 329.86 315.614 329.954 315.52C329.976 315.498 329.999 315.475 330.021 315.455C364.181 281.85 397.07 242.888 403.18 201.038C407.248 169.305 383.24 142.32 352.175 138.856Z" fill="#F24E66"/>
<path d="M283.257 359.415C285.183 357.597 287.156 355.751 289.167 353.876C289.346 353.709 289.528 353.542 289.709 353.372C289.719 353.362 289.73 353.352 289.742 353.34C287.706 353.734 285.546 354.078 283.257 354.372V359.415Z" fill="#F94E67"/>
<path d="M293.94 162.993C295.391 161.092 296.911 159.246 298.513 157.465C296.938 159.187 295.415 161.006 293.94 162.914V162.993Z" fill="#F94E67"/>
<path d="M323.32 115.021C307.12 115.021 293.94 128.216 293.94 144.432V162.994C295.391 161.093 296.911 159.247 298.513 157.466C298.819 157.123 299.129 156.784 299.443 156.448V144.432C299.443 131.252 310.154 120.529 323.32 120.529C334.384 120.529 343.717 128.102 346.413 138.341C346.926 140.285 347.2 142.327 347.2 144.432V253.656H352.702V144.432C352.702 142.527 352.521 140.662 352.174 138.857C349.564 125.297 337.619 115.021 323.32 115.021Z" fill="#49263E"/>
<path d="M226.384 304.815H206.795C190.419 304.815 177.099 291.479 177.099 275.09V223.859H171.596V275.09C171.596 294.517 187.387 310.323 206.795 310.323H231.702C229.8 308.497 228.269 306.661 226.386 304.815H226.384Z" fill="#49263E"/>
<path d="M329.954 315.521C329.86 315.615 329.764 315.709 329.669 315.803C327.991 317.451 326.312 319.085 324.631 320.707C324.574 320.762 324.517 320.817 324.459 320.872C324.464 321.044 324.466 321.213 324.464 321.384C324.441 324.683 324.044 327.696 323.263 330.448C322.97 331.489 322.619 332.492 322.212 333.459C320.873 336.664 318.924 339.469 316.354 341.915C310.699 347.299 301.956 351.064 289.709 353.374C288.136 353.672 286.503 353.945 284.814 354.194C284.3 354.269 283.781 354.343 283.257 354.414C280.13 354.84 276.821 355.189 273.297 355.463C269.066 355.789 264.527 356.007 259.634 356.115C253.318 356.256 246.413 356.217 238.816 355.999C238.746 355.997 238.677 355.995 238.608 355.993L238.394 355.987C235.62 355.905 232.755 355.799 229.791 355.671L229.526 361.787C231.53 361.874 233.498 361.95 235.431 362.013C235.514 362.017 235.6 362.021 235.683 362.021C235.761 362.025 235.838 362.027 235.916 362.029C241.418 362.213 246.627 362.305 251.557 362.305C254.341 362.305 257.038 362.276 259.644 362.217C291.103 361.503 309.943 356.464 320.569 346.35C327.074 340.157 330.443 331.87 330.574 321.719C330.576 321.621 330.578 321.525 330.578 321.427C330.588 320.054 330.494 318.704 330.298 317.378C330.207 316.754 330.093 316.136 329.954 315.521Z" fill="#4CB7D8"/>
<path d="M217.728 371.445C229.787 371.445 239.562 361.661 239.562 349.591C239.562 337.521 229.787 327.736 217.728 327.736C205.67 327.736 195.895 337.521 195.895 349.591C195.895 361.661 205.67 371.445 217.728 371.445Z" fill="#4CB7D8"/>
<g opacity="0.6">
<path d="M218.676 362.116C225.599 361.607 230.799 355.577 230.291 348.647C229.782 341.718 223.758 336.513 216.836 337.022C209.913 337.531 204.713 343.561 205.221 350.49C205.73 357.42 211.754 362.625 218.676 362.116Z" fill="white"/>
</g>
<path d="M324.46 320.872C324.389 320.942 324.315 321.011 324.244 321.08C324.336 322.782 324.246 324.616 323.91 326.572C323.791 327.257 323.702 327.876 323.637 328.463C323.586 328.928 323.48 329.606 323.264 330.448C323.046 331.303 322.715 332.323 322.212 333.459C319.491 339.618 311.751 349.122 289.742 353.341C287.706 353.735 285.546 354.079 283.257 354.373C280.174 354.769 276.856 355.069 273.285 355.259L273.297 355.463L273.308 355.667C276.791 355.481 280.108 355.189 283.257 354.789C285.299 354.53 287.268 354.226 289.167 353.877C300.574 351.784 309.421 348.076 315.574 342.794C322.434 336.905 323.781 330.842 324.042 328.508C324.105 327.929 324.195 327.319 324.311 326.639C324.676 324.518 324.755 322.537 324.631 320.707C324.574 320.762 324.517 320.817 324.46 320.872Z" fill="black"/>
<path d="M217.729 327.533V327.941C229.655 327.941 239.358 337.654 239.358 349.592C239.358 361.53 229.655 371.242 217.729 371.242V371.65C229.879 371.65 239.766 361.754 239.766 349.592C239.766 337.429 229.879 327.533 217.729 327.533Z" fill="black"/>
<path d="M217.729 336.805V337.213C224.548 337.213 230.093 342.766 230.093 349.589C230.093 356.413 224.546 361.966 217.729 361.966V362.374C224.772 362.374 230.501 356.638 230.501 349.589C230.501 342.541 224.77 336.805 217.729 336.805Z" fill="black"/>
<path d="M196.529 346.731C197.248 341.905 199.195 338.42 199.215 338.386L198.86 338.184C198.84 338.218 196.861 341.758 196.127 346.656C195.449 351.185 195.724 357.835 200.886 363.812L201.194 363.545C196.138 357.692 195.867 351.17 196.529 346.731Z" fill="black"/>
<path d="M330.298 317.379C330.213 316.65 330.115 316.006 330.021 315.457C329.999 315.477 329.976 315.5 329.954 315.522C329.86 315.616 329.764 315.71 329.669 315.804C329.997 317.821 330.331 320.998 330.08 324.717C329.683 330.618 327.686 339.135 320.426 346.204L320.569 346.351L320.71 346.498C328.067 339.333 330.089 330.706 330.488 324.731C330.559 323.68 330.582 322.67 330.574 321.72C330.557 320.082 330.443 318.613 330.298 317.379Z" fill="black"/>
<path d="M309.176 206.275L298.051 246.797L296.516 235.822H273.921L269.734 261.536L259.822 205.191L251.553 238.827H206.764V241.599H253.724L259.373 218.623L269.84 278.125L276.274 238.594H294.107L297.168 260.477L309.678 214.912L321.366 243.851H338.948V241.079H323.235L309.176 206.275Z" fill="white"/>
<path d="M346.436 220.592H335.893V223.856H346.436V220.592Z" fill="#49263E"/>
<path d="M352.022 213.945H347.094C345.103 213.945 343.489 215.561 343.489 217.554V229.015C343.489 231.008 345.103 232.624 347.094 232.624H352.022C354.013 232.624 355.627 231.008 355.627 229.015V217.554C355.627 215.561 354.013 213.945 352.022 213.945Z" fill="#71D3EA"/>
<path d="M354.769 235.885H339.551C339.551 235.885 315.492 277.954 339.551 316.579H359.565C383.623 277.956 359.565 235.885 359.565 235.885H354.769Z" fill="#49263E"/>
<path d="M359.359 229.355H339.759C337.958 229.355 336.499 230.816 336.499 232.619C336.499 234.423 337.958 235.883 339.759 235.883H359.359C361.161 235.883 362.62 234.423 362.62 232.619C362.62 230.816 361.161 229.355 359.359 229.355Z" fill="#4CB7D8"/>
<path d="M359.359 316.58H339.759C337.958 316.58 336.499 318.041 336.499 319.844C336.499 321.647 337.958 323.108 339.759 323.108H359.359C361.161 323.108 362.62 321.647 362.62 319.844C362.62 318.041 361.161 316.58 359.359 316.58Z" fill="#4CB7D8"/>
<path d="M337.558 218.613C337.558 216.667 335.983 215.09 334.039 215.09C332.095 215.09 330.519 216.667 330.519 218.613V225.832C330.519 227.778 332.095 229.356 334.039 229.356C335.983 229.356 337.558 227.778 337.558 225.832V218.613Z" fill="#4CB7D8"/>
<path d="M144.166 375.178C134.19 358.515 120.358 371.657 120.358 371.657C120.358 371.657 119.989 337.114 89.5572 339.784C63.0242 342.114 64.9746 377.273 64.9746 377.273C59.3089 377.671 55.9401 379.386 53.9652 381.492C53.0604 382.457 52.6242 383.585 52.561 384.705H170.379C170.357 384.346 170.269 383.981 170.102 383.624C161.406 365.202 144.166 375.176 144.166 375.176V375.178Z" fill="#7FC6A6"/>
<path d="M477.919 377.275C477.919 377.275 479.869 342.114 453.336 339.786C422.904 337.116 422.535 371.659 422.535 371.659C422.535 371.659 408.703 358.515 398.727 375.18C398.727 375.18 381.488 365.206 372.791 383.628C372.622 383.985 372.535 384.35 372.514 384.709H490.33C490.267 383.589 489.831 382.463 488.926 381.496C486.951 379.39 483.582 377.673 477.917 377.277L477.919 377.275Z" fill="#7FC6A6"/>
<path d="M128.33 273.249L127.446 272.188L126.182 273.332L123.73 271.809C123.73 271.809 119.86 279.895 119.999 283.989C120.137 288.086 127.664 307.276 127.664 307.276L134.295 304.265L130.46 285.844L128.33 273.249Z" fill="#FE9F73"/>
<path d="M135.863 308.101L134.025 303.603C133.766 303.456 128.436 305.712 127.173 306.087L128.868 310.206C129.066 310.843 129.753 312.581 130.093 312.827C130.68 313.256 131.208 312.817 131.923 312.579C132.928 312.242 134.151 311.922 135.107 311.644C135.131 311.599 135.174 311.565 135.227 311.55L135.435 311.493C135.404 311.379 136.089 311.063 136.99 310.683C136.609 309.59 136.23 308.674 136.071 308.209L135.863 308.101Z" fill="#FE9F73"/>
<path d="M133.434 305.532C132.863 305.597 132.455 305.95 132.463 306.046L132.769 309.214C132.802 309.563 133.181 309.828 133.658 309.797C134.204 309.763 134.632 309.387 134.593 308.998L134.308 306.042C134.275 305.713 133.762 305.495 133.432 305.534L133.434 305.532Z" fill="#FE9F73"/>
<path d="M137.448 307.147L128.163 309.697C126.971 310.023 126.268 311.26 126.596 312.453L127.146 314.462L128.569 314.073L128.018 312.063C127.906 311.655 128.147 311.233 128.554 311.121L137.84 308.571C138.247 308.459 138.669 308.699 138.779 309.107L139.301 311.011L140.723 310.621L140.202 308.718C139.876 307.524 138.64 306.821 137.448 307.149V307.147Z" fill="#49263E"/>
<path d="M129.148 312.935L126.072 313.78C125.762 313.865 125.581 314.185 125.665 314.494L125.85 315.169C125.935 315.479 126.255 315.661 126.564 315.576L129.64 314.731C129.949 314.646 130.131 314.327 130.046 314.017L129.862 313.342C129.777 313.032 129.457 312.85 129.148 312.935Z" fill="#4CB7D8"/>
<path d="M141.245 309.617L138.17 310.461C137.86 310.546 137.678 310.866 137.763 311.176L137.948 311.851C138.033 312.16 138.352 312.343 138.662 312.258L141.738 311.413C142.047 311.328 142.229 311.008 142.144 310.699L141.959 310.024C141.874 309.714 141.555 309.532 141.245 309.617Z" fill="#4CB7D8"/>
<path d="M157.76 306.073L110.176 319.139L118.948 351.149L166.533 338.083L157.76 306.073Z" fill="white"/>
<path d="M110.173 319.141L111.243 323.048C113.4 322.456 114.665 320.227 114.074 318.07L110.171 319.141H110.173Z" fill="#49263E"/>
<path d="M153.856 307.145C154.447 309.302 156.673 310.573 158.829 309.979L157.759 306.072L153.856 307.143V307.145Z" fill="#E83C4E"/>
<path d="M162.628 339.155L166.531 338.084L165.461 334.178C163.305 334.769 162.039 336.999 162.63 339.155H162.628Z" fill="#E83C4E"/>
<path d="M117.875 347.246L118.945 351.152L122.848 350.081C122.257 347.925 120.031 346.654 117.875 347.248V347.246Z" fill="#49263E"/>
<g style="mix-blend-mode:multiply" opacity="0.5">
<path d="M121.126 316.131L120.159 316.396L128.932 348.407L129.899 348.141L121.126 316.131Z" fill="#E83C4E"/>
</g>
<g style="mix-blend-mode:multiply" opacity="0.5">
<path d="M146.706 309.108L145.739 309.373L154.511 341.383L155.478 341.118L146.706 309.108Z" fill="#E83C4E"/>
</g>
<path d="M133.325 308.524C132.887 308.693 132.655 309.089 132.773 309.411L133.753 312.074C133.786 312.159 134.163 312.41 134.687 312.237C135.208 312.063 135.416 311.48 135.416 311.48L134.44 308.83C134.312 308.483 133.804 308.338 133.325 308.526V308.524Z" fill="#FE9F73"/>
<path d="M131.538 309.003C131.104 309.179 130.88 309.576 131.008 309.895L132.139 312.736C132.174 312.822 132.673 312.934 133.193 312.753C133.713 312.571 133.825 312.204 133.825 312.204L132.665 309.289C132.529 308.944 132.015 308.809 131.538 309.003Z" fill="#FE9F73"/>
<path d="M129.845 309.586C129.441 309.753 129.239 310.124 129.362 310.42L130.458 313.054C130.491 313.133 130.959 313.233 131.442 313.06C131.925 312.887 132.023 312.544 132.023 312.544L130.898 309.845C130.766 309.527 130.285 309.404 129.843 309.588L129.845 309.586Z" fill="#FE9F73"/>
<path d="M134.597 308.775C134.524 308.577 134.338 308.424 134.09 308.357C133.837 308.287 133.546 308.308 133.273 308.414C132.761 308.614 132.472 309.075 132.616 309.465L133.686 312.327C133.686 312.327 133.694 312.343 133.699 312.349C133.733 312.396 133.811 312.412 133.886 312.386C133.974 312.357 134.025 312.282 134 312.219L132.93 309.356C132.83 309.087 133.026 308.769 133.377 308.632C133.564 308.559 133.762 308.545 133.935 308.593C134.108 308.64 134.23 308.742 134.281 308.879L135.247 311.503C135.272 311.566 135.36 311.592 135.447 311.564C135.535 311.535 135.586 311.46 135.563 311.396L134.597 308.773V308.775Z" fill="#F07162"/>
<path d="M135.938 307.968C135.801 307.617 135.274 307.481 134.791 307.687C134.369 307.866 134.157 308.256 134.279 308.57L135.382 311.418C135.414 311.503 135.918 311.63 136.435 311.44C136.735 311.33 137.081 310.922 136.967 310.626L135.938 307.968Z" fill="#FE9F73"/>
<path d="M136.095 307.914C136.02 307.719 135.83 307.568 135.58 307.5C135.325 307.433 135.033 307.457 134.762 307.566C134.253 307.77 133.972 308.233 134.12 308.62L135.237 311.466C135.237 311.466 135.245 311.482 135.249 311.489C135.284 311.533 135.361 311.55 135.437 311.523C135.524 311.493 135.573 311.417 135.549 311.356L134.432 308.51C134.328 308.243 134.52 307.923 134.868 307.784C135.054 307.71 135.253 307.694 135.427 307.739C135.6 307.784 135.726 307.884 135.779 308.021L136.788 310.628C136.813 310.689 136.902 310.717 136.99 310.687C137.077 310.656 137.126 310.583 137.102 310.52L136.093 307.912L136.095 307.914Z" fill="#F07162"/>
<path d="M132.822 309.237C132.745 309.041 132.555 308.892 132.303 308.827C132.046 308.762 131.756 308.786 131.485 308.896C130.98 309.102 130.725 309.533 130.88 309.922L132.038 312.676C132.038 312.676 132.044 312.691 132.05 312.697C132.084 312.744 132.166 312.76 132.241 312.733C132.327 312.703 132.376 312.627 132.349 312.564L131.194 309.812C131.086 309.543 131.253 309.257 131.597 309.117C131.783 309.041 131.983 309.025 132.156 309.07C132.331 309.114 132.457 309.212 132.51 309.349L133.67 312.264C133.695 312.327 133.784 312.352 133.872 312.321C133.957 312.291 134.008 312.215 133.984 312.154L132.824 309.239L132.822 309.237Z" fill="#F07162"/>
<path d="M131.155 309.723C131.078 309.539 130.899 309.401 130.658 309.341C130.416 309.282 130.142 309.309 129.886 309.415C129.409 309.613 129.152 310.051 129.305 310.412L130.401 313.046C130.401 313.046 130.407 313.06 130.414 313.066C130.448 313.113 130.53 313.13 130.605 313.103C130.691 313.073 130.74 312.997 130.715 312.934L129.619 310.3C129.517 310.057 129.686 309.762 130.002 309.631C130.171 309.56 130.354 309.543 130.515 309.582C130.676 309.621 130.795 309.711 130.846 309.835L131.971 312.534C131.995 312.595 132.087 312.622 132.172 312.589C132.258 312.559 132.307 312.483 132.282 312.42L131.157 309.721L131.155 309.723Z" fill="#F07162"/>
<path d="M132.824 304.449L132.162 305.233L132.673 307.844L132.901 309.107L133.168 309.431L133.904 309.498L134.52 309.072L134.624 308.382L134.597 305.639L132.824 304.449Z" fill="#FE9F73"/>
<path d="M134.544 305.729C134.448 305.735 134.373 305.796 134.375 305.865L134.434 308.778C134.438 308.931 134.357 309.076 134.206 309.191C134.057 309.303 133.859 309.368 133.649 309.37C133.258 309.374 132.948 309.142 132.942 308.844L132.367 305.714C132.367 305.645 132.288 305.592 132.192 305.598C132.109 305.602 132.041 305.649 132.025 305.706C132.023 305.714 132.021 305.725 132.021 305.733L132.596 308.862C132.604 309.295 133.058 309.629 133.631 309.623C133.937 309.619 134.226 309.527 134.444 309.362C134.66 309.199 134.783 308.978 134.776 308.76L134.717 305.847C134.717 305.778 134.638 305.725 134.542 305.731L134.544 305.729Z" fill="#F07162"/>
<path d="M77.563 371.265L84.3374 375.994L89.2898 368.827L82.0079 364.861L77.563 371.265Z" fill="#FE9F73"/>
<path d="M90.4516 381.556L89.5161 380.885L87.0318 375.181L82.8049 376.062L76.9538 371.858C76.807 371.754 76.6053 371.786 76.4993 371.933L75.8634 372.82C75.7921 372.92 75.8145 373.059 75.9144 373.133L89.5202 382.908C89.9319 383.204 90.5229 383.063 90.7471 382.58C90.9142 382.219 90.7736 381.79 90.4516 381.558V381.556Z" fill="#FDEACF"/>
<path d="M86.188 373.363C82.7886 373.875 81.6758 370.633 81.6758 370.633C80.6609 368.877 78.7227 369.497 78.7227 369.497L76.9985 371.902L90.4536 381.57C90.6084 380.574 89.5731 379.138 89.5731 379.138L86.1859 373.363H86.188Z" fill="#FC5B73"/>
<path d="M78.6789 369.449L76.9629 371.842L77.0622 371.913L78.7783 369.52L78.6789 369.449Z" fill="black"/>
<path d="M81.7329 370.611L81.6167 370.652C82.0202 371.776 82.7886 372.458 83.2227 372.77C83.4122 372.906 83.5386 372.972 83.5426 372.974L83.5977 372.864C83.5854 372.857 82.2933 372.178 81.7288 370.609L81.7329 370.611Z" fill="black"/>
<path d="M78.3266 371.387L78.2119 371.43L78.5392 372.313L78.6538 372.271L78.3266 371.387Z" fill="black"/>
<path d="M78.8857 371.582L78.771 371.625L79.0983 372.509L79.2129 372.466L78.8857 371.582Z" fill="black"/>
<path d="M90.5086 381.528L77.0556 371.863C76.8436 371.71 76.5481 371.759 76.3973 371.971L75.9204 372.636L76.0203 372.707L76.4972 372.042C76.6093 371.885 76.8294 371.848 76.9843 371.963L90.4372 381.628C90.7776 381.873 90.855 382.348 90.6105 382.687C90.48 382.868 90.2783 382.983 90.0561 383.001L90.0663 383.123C90.3251 383.103 90.5595 382.97 90.7103 382.758C90.9936 382.362 90.9039 381.812 90.5086 381.528Z" fill="black"/>
<path d="M86.2412 373.332L86.1353 373.393C86.1658 373.444 89.1617 378.554 89.8567 379.701C90.5353 380.821 90.4131 381.559 90.4131 381.565L90.5333 381.588C90.5394 381.555 90.6678 380.8 89.9627 379.638C89.2697 378.493 86.2738 373.383 86.2433 373.332H86.2412Z" fill="black"/>
<path d="M114.097 374.43L114.215 382.227L122.473 382.113L122.323 373.402L114.097 374.43Z" fill="#FE9F73"/>
<path d="M130.681 383.061H129.532L124.19 379.877L121.27 383.061H114.067C113.888 383.061 113.741 383.208 113.741 383.388V384.479C113.741 384.602 113.841 384.702 113.963 384.702H130.712C131.217 384.702 131.617 384.243 131.517 383.718C131.441 383.329 131.079 383.059 130.683 383.059L130.681 383.061Z" fill="#FDEACF"/>
<path d="M128.561 381.61L122.445 378.895C119.983 381.296 117.189 379.311 117.189 379.311C115.343 378.476 114.128 380.11 114.128 380.11V383.07H130.691C130.236 382.171 128.559 381.61 128.559 381.61H128.561Z" fill="#FC5B73"/>
<path d="M114.19 380.113H114.067V383.059H114.19V380.113Z" fill="black"/>
<path d="M117.224 379.262L117.155 379.364C118.139 380.041 119.158 380.145 119.694 380.145C119.929 380.145 120.069 380.125 120.073 380.125L120.055 380.004C120.041 380.004 118.598 380.208 117.224 379.264V379.262Z" fill="black"/>
<path d="M114.902 381.897L114.834 381.998L115.615 382.525L115.683 382.423L114.902 381.897Z" fill="black"/>
<path d="M115.471 381.717L115.403 381.818L116.184 382.345L116.252 382.244L115.471 381.717Z" fill="black"/>
<path d="M130.712 383.008H114.151C113.89 383.008 113.678 383.22 113.678 383.481V384.299H113.8V383.481C113.8 383.287 113.957 383.13 114.151 383.13H130.712C131.129 383.13 131.47 383.471 131.47 383.889C131.47 384.111 131.372 384.324 131.203 384.468L131.282 384.562C131.48 384.395 131.594 384.15 131.594 383.889C131.594 383.404 131.199 383.008 130.714 383.008H130.712Z" fill="black"/>
<path d="M129.164 381.792C127.933 381.267 122.524 378.864 122.469 378.84L122.42 378.952C122.475 378.977 127.886 381.38 129.117 381.904C130.322 382.418 130.652 383.089 130.656 383.095L130.766 383.042C130.752 383.014 130.418 382.324 129.164 381.79V381.792Z" fill="black"/>
<path d="M125.539 299.819C125.241 297.877 123.225 296.706 121.393 297.412L109.913 301.827C108.688 302.298 107.895 303.491 107.94 304.805C108.252 313.969 109.605 349.81 112.45 373.261C112.638 374.808 113.946 375.973 115.501 375.969C117.223 375.964 119.618 375.758 122.274 374.946C123.556 374.555 124.446 373.386 124.469 372.044L125.626 300.69C125.628 300.517 125.618 300.344 125.592 300.172L125.537 299.819H125.539Z" fill="#1D7C7A"/>
<path d="M99.4613 333.646C99.4613 333.646 85.5518 355.254 80.2183 364.638C79.5804 365.758 79.8617 367.171 80.8725 367.971C82.3053 369.103 84.6164 370.635 87.6714 371.692C88.7067 372.051 89.8582 371.721 90.545 370.868L115.437 341.084C116.189 340.184 116.697 339.105 116.909 337.953L123.007 304.858L101.393 300.588L99.4634 333.646H99.4613Z" fill="#258D8C"/>
<path d="M120.659 250.341C120.659 250.341 122.538 247.604 119.599 244.464C116.663 241.325 115.309 245.464 113.915 245.611C112.521 245.758 110.224 244.833 108.879 247.139C107.534 249.444 107.697 251.349 106.234 251.478C104.771 251.606 99.5534 254.299 99.8815 259.154C100.21 264.009 104.769 264.583 104.769 264.583C104.769 264.583 122.345 268.577 124.383 264.183C126.421 259.791 125.071 257.481 123.109 255.513C121.902 254.303 119.271 253.002 120.659 250.337V250.341Z" fill="#49263E"/>
<path d="M125.707 264.68C124.672 263.624 119.251 263.126 118.368 263.022L117.586 263.099C117.586 263.099 113.936 262.922 112.102 262.922C111.731 262.922 111.431 262.928 111.254 262.946C110.589 262.963 108.519 263.02 106.409 263.177L106.167 263.02L104.251 263.379C104.172 263.387 104.094 263.397 104.017 263.407C103.935 263.416 103.858 263.438 103.78 263.467L102.27 263.75L99.1091 265.276L96.3558 268.159L93.3089 271.959L90.4007 275.896L89.3979 277.314C89.3979 277.314 89.832 277.722 90.6208 278.342C91.2159 277.13 91.7682 276.025 92.1635 275.197C94.8435 277.334 98.6506 278.997 100.369 279.55C99.7735 280.603 99.1438 281.778 98.5589 282.896C99.0398 283.079 99.533 283.253 100.038 283.41L100.735 281.878L99.6696 298.534L99.4923 301.313L99.2151 305.617C107.648 306.619 126.264 307.029 126.264 307.029L125.449 288.605L126.062 279.25L126.439 278.716L128.008 278.134L128.925 277.339L129.631 276.831L128.938 273.593C127.436 267.773 125.985 264.964 125.707 264.68Z" fill="#80C5A6"/>
<path d="M110.958 250.17L109.678 263.489L115.401 264.04L115.792 259.98C117.07 260.08 117.675 259.366 117.675 259.366C118.902 258.032 118.562 251.451 118.562 251.451L110.96 250.17H110.958Z" fill="#FE9F73"/>
<path d="M116.202 254.615C116.113 253.997 116.567 253.465 116.571 253.461C116.59 253.438 116.587 253.406 116.565 253.387C116.543 253.369 116.51 253.371 116.492 253.394C116.471 253.416 116.003 253.965 116.098 254.632C116.157 255.04 116.416 255.401 116.869 255.701C116.795 255.829 116.543 256.223 116.2 256.264C116.172 256.268 116.151 256.292 116.153 256.321C116.155 256.345 116.176 256.366 116.2 256.368C116.204 256.368 116.208 256.368 116.21 256.368C116.675 256.315 116.971 255.731 116.983 255.707L117.003 255.664L116.965 255.64C116.514 255.35 116.257 255.007 116.2 254.618L116.202 254.615Z" fill="#F07162"/>
<path d="M115.633 261.615L115.79 259.981C115.79 259.981 113.047 259.552 111.459 258.322C111.459 258.322 113.542 260.754 115.633 261.613V261.615Z" fill="#F07162"/>
<path d="M113.212 253.122C113.168 253.16 113.164 253.226 113.202 253.268C113.221 253.289 113.245 253.301 113.272 253.305C113.298 253.307 113.327 253.299 113.349 253.281C113.404 253.234 114.686 252.155 115.676 253.124C115.717 253.164 115.784 253.162 115.825 253.124C115.866 253.083 115.864 253.015 115.825 252.975C114.698 251.871 113.229 253.111 113.214 253.124L113.212 253.122Z" fill="black"/>
<path d="M116.867 253.236C116.82 253.269 116.807 253.336 116.842 253.383C116.86 253.41 116.889 253.424 116.918 253.426C116.942 253.428 116.966 253.422 116.989 253.408C116.997 253.402 117.89 252.777 118.303 253.208C118.344 253.251 118.409 253.251 118.452 253.21C118.493 253.169 118.495 253.104 118.454 253.061C117.914 252.498 116.909 253.204 116.867 253.234V253.236Z" fill="black"/>
<path d="M117.769 254.031C117.608 254.014 117.465 254.133 117.451 254.294C117.435 254.455 117.553 254.598 117.714 254.612C117.875 254.626 118.018 254.51 118.032 254.349C118.048 254.188 117.93 254.045 117.769 254.031Z" fill="#49263E"/>
<path d="M115.197 253.785C115.036 253.768 114.894 253.887 114.879 254.048C114.863 254.209 114.981 254.352 115.142 254.366C115.303 254.382 115.446 254.264 115.46 254.103C115.477 253.942 115.358 253.799 115.197 253.785Z" fill="#49263E"/>
<path d="M110.174 253.207C109.275 253.121 108.474 253.78 108.388 254.68C108.303 255.579 108.961 256.381 109.86 256.467C110.759 256.552 111.56 255.893 111.645 254.994C111.731 254.094 111.072 253.292 110.174 253.207Z" fill="#FE9F73"/>
<path d="M110.155 254.129C109.815 253.897 109.379 253.994 109.36 253.999C109.332 254.005 109.316 254.033 109.322 254.062C109.328 254.09 109.356 254.107 109.385 254.101C109.389 254.101 109.795 254.009 110.098 254.215C110.233 254.307 110.326 254.443 110.379 254.623C110.216 254.496 109.909 254.339 109.536 254.523C109.275 254.653 109.144 254.939 109.204 255.251C109.254 255.514 109.458 255.794 109.799 255.826C109.803 255.826 109.805 255.826 109.809 255.826C109.837 255.828 109.864 255.808 109.866 255.779C109.868 255.751 109.845 255.724 109.817 255.722C109.503 255.696 109.346 255.441 109.305 255.231C109.267 255.029 109.316 254.747 109.581 254.617C110.059 254.378 110.408 254.79 110.422 254.806L110.542 254.951L110.514 254.766C110.471 254.476 110.349 254.262 110.153 254.127L110.155 254.129Z" fill="#F07162"/>
<path d="M114.98 248.293C111.651 247.693 110.958 250.168 110.958 250.168L114.71 251.314L118.316 251.408L118.56 251.449C118.56 251.449 118.306 248.893 114.98 248.293Z" fill="#FE9F73"/>
<path d="M114.254 247.383C114.021 247.361 110.216 248.501 110.216 248.501C110.216 248.501 108.71 252.983 110.653 253.326C112.597 253.666 113.818 250.445 113.818 250.445C116.479 251.169 118.762 249.325 118.762 249.325L118.391 247.548C118.391 247.548 114.484 247.406 114.252 247.383H114.254Z" fill="#49263E"/>
<path d="M115.485 254.909C115.401 254.9 115.389 255.029 115.473 255.037C115.556 255.046 115.569 254.917 115.485 254.909Z" fill="#EA5942"/>
<path d="M115.071 255.106C114.987 255.098 114.975 255.226 115.059 255.235C115.143 255.243 115.155 255.114 115.071 255.106Z" fill="#EA5942"/>
<path d="M114.403 254.571C114.319 254.563 114.307 254.691 114.391 254.7C114.474 254.708 114.487 254.579 114.403 254.571Z" fill="#EA5942"/>
<path d="M113.747 254.977C113.663 254.969 113.65 255.098 113.734 255.106C113.818 255.114 113.83 254.985 113.747 254.977Z" fill="#EA5942"/>
<path d="M113.168 254.289C113.084 254.281 113.072 254.41 113.156 254.418C113.24 254.426 113.252 254.298 113.168 254.289Z" fill="#EA5942"/>
<path d="M112.846 255.198C112.762 255.189 112.75 255.318 112.833 255.326C112.917 255.335 112.93 255.206 112.846 255.198Z" fill="#EA5942"/>
<path d="M116.815 254.657C116.732 254.648 116.719 254.777 116.803 254.785C116.887 254.794 116.899 254.665 116.815 254.657Z" fill="#EA5942"/>
<path d="M117.246 255.225C117.162 255.217 117.15 255.346 117.233 255.354C117.317 255.362 117.329 255.233 117.246 255.225Z" fill="#EA5942"/>
<path d="M117.849 255.049C117.765 255.041 117.753 255.17 117.837 255.178C117.921 255.186 117.933 255.057 117.849 255.049Z" fill="#EA5942"/>
<path d="M117.804 255.969C117.72 255.961 117.708 256.09 117.792 256.098C117.876 256.106 117.888 255.977 117.804 255.969Z" fill="#EA5942"/>
<path d="M118.293 255.475C118.209 255.467 118.197 255.596 118.281 255.604C118.365 255.612 118.377 255.483 118.293 255.475Z" fill="#EA5942"/>
<path d="M118.267 254.662C118.183 254.654 118.171 254.783 118.254 254.791C118.338 254.799 118.35 254.671 118.267 254.662Z" fill="#EA5942"/>
<path d="M114.565 255.469C114.482 255.461 114.469 255.59 114.553 255.598C114.637 255.606 114.649 255.477 114.565 255.469Z" fill="#EA5942"/>
<path d="M103.493 264.862C103.428 264.883 101.901 265.389 100.935 266.68C100.903 266.723 100.913 266.782 100.954 266.815C100.97 266.827 100.99 266.833 101.011 266.833C101.039 266.833 101.07 266.819 101.088 266.794C102.018 265.554 103.536 265.05 103.552 265.044C103.603 265.027 103.63 264.972 103.613 264.923C103.597 264.872 103.542 264.846 103.493 264.862Z" fill="#21111D"/>
<path d="M103.674 265.755C103.609 265.775 102.083 266.281 101.117 267.572C101.084 267.615 101.094 267.674 101.135 267.707C101.151 267.719 101.172 267.725 101.192 267.725C101.22 267.725 101.251 267.711 101.269 267.687C102.199 266.446 103.717 265.942 103.733 265.936C103.784 265.92 103.811 265.865 103.794 265.816C103.778 265.765 103.723 265.738 103.674 265.755Z" fill="#21111D"/>
<path d="M123.278 278.814H113.693C113.597 278.814 113.52 278.892 113.52 278.988C113.52 279.084 113.597 279.161 113.693 279.161H123.278C123.374 279.161 123.451 279.084 123.451 278.988C123.451 278.892 123.374 278.814 123.278 278.814Z" fill="black"/>
<path d="M121.892 280.488H115.542C115.446 280.488 115.369 280.566 115.369 280.662C115.369 280.758 115.446 280.835 115.542 280.835H121.892C121.988 280.835 122.066 280.758 122.066 280.662C122.066 280.566 121.988 280.488 121.892 280.488Z" fill="black"/>
<path d="M115.454 257.614C116.153 257.828 116.646 257.134 116.646 257.134C116.618 257.12 114.737 256.549 114.737 256.549C114.737 256.549 114.757 257.4 115.456 257.614H115.454Z" fill="#FBFDFC"/>
<path d="M105.515 263.264C105.515 263.264 108.168 265.802 113.053 265.749C117.938 265.694 120.808 263.264 120.808 263.264C114.7 262.248 105.515 263.264 105.515 263.264Z" fill="#FE9F73"/>
<path d="M129.507 275.476C128.687 272.016 126.985 264.817 124.964 264.105C122.73 263.318 119.007 262.855 118.97 262.851C118.876 262.84 118.789 262.908 118.776 263.002C118.764 263.097 118.831 263.183 118.927 263.195C118.964 263.199 122.651 263.658 124.85 264.434C126.692 265.082 128.426 272.422 129.168 275.558C129.28 276.035 129.372 276.421 129.441 276.694C129.187 277 128.025 278.295 126.413 278.542C126.317 278.557 126.254 278.646 126.268 278.74C126.28 278.826 126.356 278.887 126.439 278.887C126.447 278.887 126.458 278.887 126.466 278.885C128.422 278.583 129.714 276.91 129.769 276.839L129.82 276.772L129.798 276.69C129.727 276.421 129.629 276.005 129.504 275.478L129.507 275.476Z" fill="black"/>
<path d="M125.387 269.901C125.32 269.968 125.318 270.078 125.387 270.148C125.546 270.309 129.249 274.144 126.05 279.013L126.025 279.052L125.279 289.169L125.632 289.116L126.366 279.168C129.677 274.077 125.677 269.946 125.636 269.903C125.569 269.836 125.459 269.833 125.389 269.903L125.387 269.901Z" fill="black"/>
<path d="M125.264 309.782L124.314 367.131L124.757 367.138L125.707 309.789L125.264 309.782Z" fill="black"/>
<path d="M116.693 337.907C116.689 337.925 116.292 339.718 114.667 341.664L94.0547 366.326L94.393 366.609L115.004 341.948C116.705 339.912 117.107 338.076 117.125 337.992L121.597 313.716L121.16 313.637L116.689 337.907H116.693Z" fill="black"/>
<path d="M108.374 262.799C108.374 262.799 108.368 262.799 108.366 262.799C108.343 262.799 108.298 262.799 108.233 262.793C105.37 262.65 102.765 263.411 101.086 264.074C97.0017 265.688 89.5283 276.72 89.2124 277.189C89.1431 277.291 89.1716 277.428 89.2715 277.497C89.3102 277.524 89.353 277.536 89.3958 277.536C89.4671 277.536 89.5364 277.501 89.5792 277.438C89.6567 277.324 97.2932 266.051 101.249 264.488C102.888 263.841 105.425 263.099 108.211 263.238C108.307 263.242 108.368 263.244 108.394 263.242C108.514 263.233 108.604 263.129 108.596 263.009C108.59 262.891 108.49 262.799 108.372 262.799H108.374Z" fill="black"/>
<path d="M148.346 308.428L148.462 308.857L157.602 306.347L166.258 337.931L156.484 340.613L156.602 341.042L166.802 338.241L157.912 305.803L148.346 308.428Z" fill="black"/>
<path d="M131.4 337.425L131.23 337.834L136.279 339.935L136.449 339.526L131.4 337.425Z" fill="black"/>
<path d="M131.386 339.529L131.216 339.938L136.265 342.038L136.435 341.629L131.386 339.529Z" fill="black"/>
<path d="M98.9543 300.207C98.1187 299.974 96.5311 299.426 94.9578 298.302C92.129 296.282 90.5964 293.381 90.3987 289.674C90.3783 289.305 90.0767 289.015 89.7078 289.02H89.6997C89.3084 289.024 89.0027 289.356 89.0251 289.748C89.3063 294.919 91.968 297.873 94.2078 299.456C95.936 300.678 97.6459 301.274 98.5854 301.535C98.9747 301.643 99.3721 301.392 99.4414 300.994V300.984C99.5046 300.637 99.2947 300.301 98.9564 300.207H98.9543Z" fill="#FFB357"/>
<path d="M89.9834 293.766L89.7734 293.835C91.3529 298.619 96.0302 300.628 96.077 300.649L96.1626 300.445C96.1158 300.426 91.5322 298.456 89.9834 293.766Z" fill="black"/>
<path d="M104.454 283.158L103.573 284.9L103.771 285.001L104.652 283.259L104.454 283.158Z" fill="black"/>
<path d="M103.595 282.813L102.715 284.555L102.913 284.655L103.793 282.913L103.595 282.813Z" fill="black"/>
<path d="M90.6206 278.343C92.141 279.538 94.9759 281.523 98.5587 282.896C99.1456 281.78 99.7734 280.603 100.368 279.551C98.6484 279 94.8434 277.335 92.1634 275.197C91.768 276.026 91.2157 277.131 90.6206 278.343Z" fill="#80C5A6"/>
<path d="M96.3799 287.014C96.8222 286.247 97.6415 284.641 98.5606 282.893C94.9778 281.522 92.1429 279.537 90.6225 278.34C88.9208 281.794 86.844 286.11 86.9154 287.312C87.2435 292.924 94.079 301.959 96.9995 304.417L99.494 301.306L100.464 300.096C100.258 299.778 99.9832 299.227 99.6713 298.528C98.1469 295.105 95.7543 288.091 96.3799 287.01V287.014Z" fill="#FE9F73"/>
<path d="M95.125 281.306C95.125 281.306 98.7486 283.311 100.041 283.584L101.235 280.21L98.3084 279.629L95.125 281.306Z" fill="#80C5A6"/>
<path d="M103.016 275.529C102.924 275.494 102.826 275.541 102.792 275.631L99.8752 283.346C99.8406 283.436 99.8874 283.536 99.9771 283.571C99.9975 283.579 100.018 283.583 100.038 283.583C100.108 283.583 100.175 283.54 100.201 283.471L103.118 275.755C103.152 275.666 103.105 275.566 103.016 275.531V275.529Z" fill="black"/>
<path d="M105.305 305.142C104.744 304.768 103.032 303.632 101.919 302.985C101.489 302.271 102.788 301.684 103.589 301.576C104 301.521 104.508 301.18 103.487 300.794C102.653 300.48 100.662 300.525 100.662 300.525L97.9677 295.488L93.0112 299.948C93.0112 299.948 96.6389 304.997 97.1015 305.645C97.5642 306.294 99.8386 307.957 100.874 308.214C102.755 308.679 102.28 307.889 102.28 307.889C104.279 308.189 103.352 307.002 103.352 307.002C105.119 307.428 104.463 306.141 104.463 306.141C105.435 306.272 105.62 305.951 105.606 305.664C105.596 305.452 105.478 305.26 105.301 305.144L105.305 305.142Z" fill="#FE9F73"/>
<path d="M104.498 306.052C104.487 306.048 103.393 305.636 102.767 305.238C102.722 305.209 102.663 305.222 102.635 305.267C102.612 305.303 102.617 305.348 102.641 305.379C102.647 305.387 102.655 305.393 102.663 305.399C103.305 305.809 104.383 306.215 104.428 306.231C104.477 306.25 104.532 306.225 104.551 306.174C104.569 306.125 104.544 306.07 104.494 306.052H104.498Z" fill="#F07162"/>
<path d="M103.387 306.91C103.387 306.91 102.537 306.594 101.844 306.015C101.803 305.98 101.742 305.986 101.71 306.027C101.679 306.064 101.681 306.115 101.71 306.149C101.714 306.153 101.718 306.158 101.722 306.162C102.439 306.763 103.285 307.078 103.322 307.09C103.371 307.108 103.426 307.082 103.444 307.033C103.462 306.984 103.438 306.929 103.387 306.91Z" fill="#F07162"/>
<path d="M102.309 307.796C102.309 307.796 101.522 307.541 100.911 307.058C100.87 307.025 100.809 307.031 100.776 307.074C100.747 307.111 100.75 307.16 100.776 307.195C100.78 307.201 100.784 307.205 100.79 307.209C101.428 307.713 102.215 307.968 102.25 307.978C102.3 307.994 102.353 307.966 102.37 307.917C102.386 307.866 102.358 307.813 102.309 307.796Z" fill="#F07162"/>
<path d="M143.098 331.006C144.674 328.091 143.59 324.449 140.677 322.872C137.765 321.295 134.126 322.38 132.551 325.295C130.975 328.211 132.059 331.853 134.972 333.43C137.885 335.007 141.523 333.922 143.098 331.006Z" fill="#FF424D"/>
<path d="M141.5 326.469L138.225 327.428L137.224 324.162L136.071 324.517L137.067 327.767L133.807 328.722L134.145 329.882L137.42 328.921L138.421 332.187L139.574 331.833L138.578 328.583L141.838 327.628L141.5 326.469Z" fill="white"/>
<path d="M431.423 381.812L440.527 381.937L440.658 373.365L431.588 372.234L431.423 381.812Z" fill="#FE9F73"/>
<path d="M447.098 381.812L456.204 381.937L456.334 373.365L447.265 372.234L447.098 381.812Z" fill="#FE9F73"/>
<path d="M444.218 304.731L433.096 300.465C431.321 299.784 430.18 300.31 429.891 302.187L429.615 302.988C429.591 303.154 429.412 303.598 429.414 303.766L430.115 372.573C430.135 373.87 430.999 374.998 432.24 375.378C434.812 376.161 437.132 376.361 438.801 376.365C440.307 376.369 441.574 375.243 441.758 373.75C444.515 351.094 445.826 316.463 446.127 307.611C446.17 306.342 445.404 305.19 444.218 304.735V304.731Z" fill="#33192C"/>
<path d="M436.946 296.066L440.197 313.023L445.475 374.092C445.567 375.149 446.313 376.032 447.34 376.306C450.367 377.107 453.051 377.128 454.814 376.993C456.059 376.899 457.047 375.916 457.141 374.674C459.114 348.407 458.358 305.824 458.358 305.824L436.946 296.068V296.066Z" fill="#49263E"/>
<path d="M437.411 378.684C437.411 378.684 434.299 380.889 431.554 378.221L424.74 381.238C424.74 381.238 422.238 382.07 422.238 383.357H440.821V379.573C440.821 379.573 439.469 377.758 437.411 378.684Z" fill="#33192C"/>
<path d="M440.89 379.574H440.754V382.789H440.89V379.574Z" fill="black"/>
<path d="M434.22 379.451L434.2 379.586C434.2 379.586 434.363 379.608 434.624 379.608C435.219 379.608 436.356 379.492 437.452 378.739L437.375 378.627C435.846 379.678 434.236 379.453 434.22 379.451Z" fill="black"/>
<path d="M439.086 382.134L439.164 382.249L440.034 381.663L439.957 381.549L439.086 382.134Z" fill="black"/>
<path d="M440.957 382.859H422.175C421.765 382.859 421.433 383.19 421.433 383.6V383.943C421.433 384.351 421.765 384.683 422.175 384.683H440.957C441.122 384.683 441.255 384.551 441.255 384.385V383.157C441.255 382.992 441.12 382.859 440.957 382.859Z" fill="#EF9029"/>
<path d="M424.068 381.438C422.674 382.032 422.299 382.797 422.285 382.83L422.409 382.889C422.409 382.889 422.78 382.136 424.123 381.565C425.495 380.981 431.524 378.311 431.585 378.285L431.53 378.16C431.469 378.187 425.44 380.857 424.07 381.44L424.068 381.438Z" fill="black"/>
<path d="M428.197 379.78C428.831 380.77 429.608 381.979 430.156 382.836H431.424C430.906 382.03 429.952 380.541 429.184 379.344C428.866 379.485 428.534 379.631 428.195 379.78H428.197Z" fill="#D7E4F7"/>
<path d="M429.781 379.081C430.449 380.124 431.493 381.751 432.188 382.837H433.455C432.817 381.843 431.558 379.877 430.767 378.645C430.488 378.767 430.152 378.916 429.781 379.081Z" fill="#D7E4F7"/>
<path d="M440.796 382.791H422.344C421.802 382.791 421.362 383.232 421.362 383.77C421.362 384.058 421.488 384.331 421.708 384.517L421.796 384.413C421.606 384.252 421.498 384.017 421.498 383.77C421.498 383.305 421.877 382.926 422.344 382.926H440.796C441.01 382.926 441.186 383.101 441.186 383.315V384.225H441.322V383.315C441.322 383.026 441.086 382.789 440.796 382.789V382.791Z" fill="black"/>
<path d="M453.038 378.684C453.038 378.684 449.926 380.889 447.181 378.221L440.367 381.238C440.367 381.238 437.865 382.07 437.865 383.357H456.447V379.573C456.447 379.573 455.096 377.758 453.038 378.684Z" fill="#49263E"/>
<path d="M456.517 379.574H456.381V382.789H456.517V379.574Z" fill="black"/>
<path d="M449.847 379.451L449.827 379.586C449.827 379.586 449.99 379.608 450.251 379.608C450.846 379.608 451.983 379.492 453.079 378.739L453.002 378.627C451.473 379.678 449.863 379.453 449.847 379.451Z" fill="black"/>
<path d="M454.713 382.134L454.791 382.249L455.661 381.663L455.584 381.549L454.713 382.134Z" fill="black"/>
<path d="M454.09 381.968L454.165 382.083L455.036 381.495L454.96 381.383L454.09 381.968Z" fill="black"/>
<path d="M456.584 382.859H437.802C437.392 382.859 437.06 383.19 437.06 383.6V383.943C437.06 384.351 437.392 384.683 437.802 384.683H456.584C456.749 384.683 456.882 384.551 456.882 384.385V383.157C456.882 382.992 456.747 382.859 456.584 382.859Z" fill="#FFB357"/>
<path d="M439.695 381.438C438.301 382.032 437.926 382.797 437.912 382.83L438.036 382.889C438.036 382.889 438.407 382.136 439.75 381.565C441.122 380.981 447.15 378.311 447.212 378.285L447.157 378.16C447.095 378.187 441.067 380.857 439.697 381.44L439.695 381.438Z" fill="black"/>
<path d="M443.824 379.78C444.458 380.77 445.235 381.979 445.783 382.836H447.05C446.533 382.03 445.579 380.541 444.811 379.344C444.493 379.485 444.161 379.631 443.822 379.78H443.824Z" fill="#D7E4F7"/>
<path d="M445.408 379.081C446.076 380.124 447.12 381.751 447.815 382.837H449.082C448.444 381.843 447.185 379.877 446.394 378.645C446.115 378.767 445.779 378.916 445.408 379.081Z" fill="#D7E4F7"/>
<path d="M456.423 382.791H437.971C437.429 382.791 436.989 383.232 436.989 383.77C436.989 384.058 437.115 384.331 437.335 384.517L437.423 384.413C437.233 384.252 437.125 384.017 437.125 383.77C437.125 383.305 437.504 382.926 437.971 382.926H456.423C456.637 382.926 456.813 383.101 456.813 383.315V384.225H456.949V383.315C456.949 383.026 456.713 382.789 456.423 382.789V382.791Z" fill="black"/>
<path d="M428.994 337.671L435.735 338.528L436.025 285.268L429.356 283.15L428.994 337.671Z" fill="white"/>
<path d="M448.257 282.736C446.576 294.269 447.575 338.312 447.575 338.312C450.181 338.802 461.837 338.312 461.837 338.312L462.841 289.619C462.841 289.619 449.939 271.204 448.257 282.736Z" fill="white"/>
<path d="M419.393 292.778L427.596 290.685L431.109 280.605C430.742 280.612 422.623 283.388 422.623 283.388L419.393 292.778Z" fill="white"/>
<path d="M457.653 254.218C454.076 253.847 444.673 253.826 444.673 253.826C444.673 253.826 443.44 254.193 443.829 253.998C433.519 256.178 432.634 263.898 432.634 263.898L428.33 286.258L422.707 286.754C421.001 290.265 420.074 295.556 420.074 295.556L435.428 299.859L449.134 301.958C449.134 301.958 454.504 304.053 459.275 297.494C459.76 296.827 462.467 290.65 462.84 289.618C464.896 283.935 464.696 271.809 464.421 263.787C464.421 263.787 463.208 254.793 457.651 254.218H457.653Z" fill="white"/>
<path d="M429.125 281.127L423.797 282.816C423.704 282.846 423.651 282.944 423.679 283.034C423.708 283.124 423.805 283.173 423.899 283.144C423.899 283.144 423.901 283.144 423.903 283.144L429.231 281.455C429.324 281.424 429.377 281.326 429.349 281.237C429.32 281.147 429.223 281.1 429.125 281.127Z" fill="#21111D"/>
<path d="M410.841 271.1L407.016 272.907L406.765 273.025L402.94 274.833L420.485 319.664C420.978 320.925 422.44 321.504 423.665 320.925L433.402 316.324C434.627 315.745 435.106 314.25 434.442 313.071L410.843 271.098L410.841 271.1Z" fill="#FF424D"/>
<path d="M410.342 265.703L399.005 271.06L401.139 275.22C401.391 275.754 402.873 275.989 403.409 275.736L411.991 271.68C412.525 271.427 412.753 270.791 412.501 270.256L410.342 265.703Z" fill="#F99247"/>
<path d="M403.319 275.546C402.437 275.963 401.381 275.585 400.963 274.706L399.192 270.971L398.815 271.148L400.586 274.883C401.102 275.971 402.408 276.438 403.496 275.922L409.667 273.007L409.488 272.629L403.317 275.544L403.319 275.546Z" fill="#21111D"/>
<g opacity="0.5">
<path d="M394.651 270.34C407.312 270.34 417.575 260.093 417.575 247.453C417.575 234.813 407.312 224.566 394.651 224.566C381.991 224.566 371.728 234.813 371.728 247.453C371.728 260.093 381.991 270.34 394.651 270.34Z" fill="white"/>
</g>
<path d="M398.86 230.224C394.174 229.408 390.061 230.556 389.67 232.79C389.279 235.024 392.762 237.496 397.445 238.312C402.131 239.128 406.243 237.98 406.635 235.746C407.026 233.512 403.543 231.04 398.86 230.224Z" fill="#F3FFFE"/>
<path d="M403.213 275.811L420.524 320.342L420.913 320.193L403.602 275.66L403.213 275.811Z" fill="#21111D"/>
<path d="M383.287 223.477C370.024 229.744 364.358 245.558 370.635 258.802C376.912 272.043 392.754 277.7 406.017 271.434C419.281 265.167 424.946 249.353 418.669 236.109C412.392 222.867 396.551 217.21 383.287 223.477ZM404.458 268.143C393.015 273.549 379.346 268.671 373.931 257.245C368.516 245.819 373.403 232.176 384.846 226.768C396.29 221.362 409.959 226.239 415.374 237.665C420.789 249.091 415.902 262.735 404.458 268.143Z" fill="#80C4A4"/>
<path d="M405.928 271.244C392.788 277.452 377.041 271.829 370.823 258.712C364.605 245.595 370.236 229.873 383.375 223.665C389.534 220.756 396.488 220.332 402.952 222.476L403.083 222.08C396.516 219.903 389.452 220.334 383.196 223.29C369.849 229.595 364.128 245.566 370.444 258.89C376.759 272.215 392.756 277.925 406.103 271.619C412.298 268.692 417.086 263.574 419.582 257.205L419.195 257.054C416.737 263.323 412.023 268.361 405.926 271.244H405.928Z" fill="#21111D"/>
<path d="M418.176 283.42C417.088 283.742 417.263 283.707 416.949 283.883L413.929 283.76C412.912 283.589 411.53 283.246 411.53 283.246C411.084 283.107 410.646 283.25 410.519 283.703C410.399 284.132 410.682 284.597 411.106 284.729L415.211 286.01C415.309 286.041 415.368 286.137 415.349 286.237L415.313 286.449C415.294 286.559 415.188 286.633 415.078 286.612L410.513 285.819C410.053 285.739 409.614 286.053 409.547 286.52C409.484 286.959 409.824 287.385 410.262 287.463L414.793 288.252C414.903 288.271 414.976 288.377 414.958 288.485L414.946 288.552C414.93 288.646 414.848 288.717 414.752 288.719L410.601 288.817C410.134 288.828 409.688 289.213 409.606 289.672C409.527 290.131 409.843 290.498 410.309 290.486L414.381 290.39C414.51 290.388 414.608 290.5 414.585 290.627C414.571 290.713 414.504 290.778 414.418 290.792L411.701 291.221C411.263 291.29 410.915 291.71 410.972 292.151C411.031 292.618 411.465 292.94 411.928 292.867L412.303 292.808C413.798 292.571 415.325 292.61 416.807 292.92L421.942 293.993C422.191 292.689 422.303 291.941 422.776 287.063C422.972 286.608 423.071 286.019 422.9 285.774C422.9 285.774 419.387 283.067 418.18 283.426L418.176 283.42Z" fill="#FE9F73"/>
<path d="M460.854 254.455C457.807 252.865 451.551 253.298 451.551 253.298C451.551 253.298 459.937 268.037 460.19 268.718C460.443 269.4 464.566 269.436 464.566 269.436C464.566 269.436 465.399 256.829 460.852 254.457L460.854 254.455Z" fill="white"/>
<path d="M455.912 268.421C455.822 268.391 455.725 268.438 455.692 268.528C453.181 275.827 448.28 287.265 448.231 287.379C448.194 287.467 448.235 287.567 448.32 287.606C448.353 287.62 448.388 287.622 448.42 287.616C448.475 287.606 448.522 287.569 448.547 287.514C448.596 287.4 453.501 275.949 456.018 268.638C456.049 268.548 456.002 268.45 455.91 268.419L455.912 268.421Z" fill="#21111D"/>
<path d="M453.142 286.943L448.418 287.188C448.322 287.194 448.249 287.274 448.255 287.37C448.259 287.466 448.341 287.537 448.437 287.533L453.161 287.288C453.161 287.288 453.177 287.288 453.185 287.286C453.269 287.27 453.33 287.194 453.326 287.109C453.322 287.013 453.24 286.941 453.144 286.945L453.142 286.943Z" fill="#21111D"/>
<path d="M413.291 283.638L418.411 284.463L416.142 280.527L413.291 283.638Z" fill="#FF424D"/>
<path d="M440.855 255.055C438.874 256.526 437.299 265.769 437.299 265.769L437.164 266.538L436.577 273.839L435.78 284.968L447.994 287.442C448.163 281.887 452.594 253.256 452.594 253.256L448.32 253.354C448.32 253.354 442.838 253.586 440.857 255.057L440.855 255.055Z" fill="#7FC6A6"/>
<path d="M435.593 265.637C435.499 265.621 435.41 265.684 435.393 265.776C434.568 270.444 433.753 284.501 433.745 284.644C433.741 284.699 433.765 284.75 433.802 284.783C433.83 284.807 433.867 284.824 433.906 284.826C434.001 284.832 434.083 284.758 434.087 284.664C434.095 284.524 434.908 270.484 435.732 265.837C435.748 265.743 435.685 265.654 435.591 265.637H435.593Z" fill="#21111D"/>
<path d="M434.37 259.461C432.754 261.715 432.485 263.716 432.464 263.871L429.148 281.091L429.136 281.158L430.359 283.098C430.406 283.17 430.496 283.198 430.571 283.166C430.579 283.162 430.589 283.158 430.597 283.151C430.677 283.1 430.703 282.994 430.653 282.913L429.501 281.087L432.805 263.928V263.916C432.809 263.896 433.059 261.87 434.661 259.644C436.116 257.623 439.017 255.02 444.591 254.024C444.564 253.912 444.548 253.798 444.54 253.684C438.837 254.7 435.866 257.376 434.372 259.459L434.37 259.461Z" fill="#21111D"/>
<path d="M419.713 290.856C419.562 295.191 419.713 295.643 419.713 295.643L428.574 297.975L429.136 284.077L422.073 283.102C422.073 283.102 419.863 286.523 419.715 290.86L419.713 290.856Z" fill="white"/>
<path d="M435.736 316.42L447.279 318.282L447.457 301.934L435.779 299.729L435.736 316.42Z" fill="#7FC6A6"/>
<path d="M454.265 288.454C454.023 288.403 429.882 283.44 421.995 282.746L421.893 282.738L421.836 282.824C421.769 282.926 420.173 285.392 419.486 290.962C419.474 291.055 419.541 291.141 419.637 291.153C419.733 291.166 419.819 291.098 419.829 291.002C420.434 286.088 421.787 283.581 422.071 283.099C430.047 283.826 453.953 288.742 454.194 288.791C454.216 288.795 454.239 288.795 454.261 288.791C454.328 288.779 454.383 288.728 454.398 288.656C454.416 288.562 454.357 288.473 454.263 288.452L454.265 288.454Z" fill="#21111D"/>
<path d="M463.944 285.632C463.836 285.607 463.728 285.679 463.707 285.787C463.677 285.932 460.614 300.361 453.554 301.764C446.411 303.182 420.336 295.634 420.073 295.558C419.961 295.526 419.855 295.589 419.825 295.695C419.794 295.801 419.855 295.913 419.961 295.944C420.687 296.156 432.469 299.567 442.28 301.321C447.008 302.166 451.278 302.627 453.631 302.16C460.952 300.705 463.976 286.476 464.101 285.87C464.123 285.762 464.054 285.656 463.944 285.634V285.632Z" fill="#21111D"/>
<path d="M451.164 239.159C451.164 239.159 448.358 237.789 445.763 238.527C444.261 238.955 443.206 240.304 443.122 241.862L443.041 243.386L451.074 240.455C451.074 240.455 452.285 241.108 452.195 240.924C452.106 240.74 451.162 239.159 451.162 239.159H451.164Z" fill="#FE9F73"/>
<path d="M451.502 239.656L443.13 241.69L442.788 248.116C442.788 248.116 442.57 250.407 444.567 250.801L444.029 253.844C443.829 254.975 444.453 256.103 445.529 256.507C446.055 256.705 446.689 256.862 447.414 256.9C449.713 257.023 451.052 255.366 451.288 254.516C451.527 253.665 451.17 249.522 451.17 249.522L451.347 247.504L451.502 239.658V239.656Z" fill="#FE9F73"/>
<path d="M446.085 244.329C446.043 244.359 446.033 244.42 446.063 244.463C446.094 244.506 446.155 244.516 446.198 244.486C447.31 243.684 448.409 244.928 448.454 244.981C448.472 245.002 448.496 245.014 448.521 245.014C448.545 245.014 448.57 245.008 448.588 244.992C448.629 244.957 448.633 244.896 448.598 244.857C448.586 244.843 447.339 243.427 446.083 244.331L446.085 244.329Z" fill="#21111D"/>
<path d="M443.161 243.666C443.118 243.699 443.112 243.758 443.143 243.801C443.175 243.844 443.234 243.85 443.277 243.819C443.75 243.456 444.533 244.199 444.541 244.205C444.557 244.221 444.579 244.232 444.602 244.232C444.628 244.232 444.657 244.223 444.675 244.203C444.712 244.164 444.712 244.105 444.673 244.068C444.637 244.034 443.764 243.203 443.159 243.669L443.161 243.666Z" fill="#21111D"/>
<path d="M446.866 245.028C446.707 245.02 446.573 245.142 446.562 245.299C446.554 245.458 446.676 245.593 446.835 245.601C446.994 245.609 447.129 245.489 447.139 245.33C447.147 245.171 447.025 245.036 446.866 245.028Z" fill="black"/>
<path d="M443.826 244.577C443.667 244.568 443.532 244.691 443.522 244.848C443.514 245.007 443.636 245.142 443.795 245.15C443.954 245.158 444.088 245.036 444.099 244.878C444.107 244.719 443.984 244.585 443.826 244.577Z" fill="black"/>
<path d="M451.168 239.059L451.37 239.683L450.174 242.437L450.61 249.538C453.598 250.015 453.394 245.721 453.449 245.089C453.504 244.456 454.617 243.387 454.111 241.229C453.608 239.071 451.166 239.059 451.166 239.059H451.168Z" fill="#21111D"/>
<path d="M450.759 243.694C449.807 243.643 448.994 244.373 448.943 245.324C448.892 246.275 449.624 247.086 450.575 247.137C451.527 247.188 452.34 246.458 452.391 245.507C452.442 244.557 451.711 243.745 450.759 243.694Z" fill="#FE9F73"/>
<path d="M450.677 244.754C451.028 244.585 451.442 244.744 451.446 244.746C451.47 244.756 451.499 244.744 451.509 244.72C451.519 244.695 451.507 244.667 451.482 244.658C451.464 244.65 451.026 244.483 450.639 244.671C450.414 244.779 450.255 244.981 450.166 245.275L450.115 245.44L450.243 245.326C450.262 245.309 450.694 244.934 451.162 245.258C451.421 245.44 451.429 245.744 451.356 245.95C451.281 246.164 451.077 246.405 450.747 246.388C450.742 246.388 450.74 246.388 450.736 246.388C450.71 246.388 450.687 246.407 450.685 246.433C450.685 246.46 450.704 246.482 450.73 246.484C450.734 246.484 450.736 246.484 450.74 246.484C451.099 246.503 451.352 246.248 451.446 245.982C451.556 245.67 451.466 245.354 451.215 245.181C450.846 244.924 450.492 245.056 450.308 245.164C450.394 244.973 450.518 244.836 450.679 244.758L450.677 244.754Z" fill="#F07162"/>
<path d="M444.567 250.799L444.17 253.043C448.996 252.931 449.336 249.096 449.336 249.096C447.651 251.589 444.567 250.799 444.567 250.799Z" fill="#F07162"/>
<path d="M445.466 247.089L444.522 246.722L444.946 244.482C444.95 244.456 444.934 244.431 444.907 244.427C444.881 244.421 444.856 244.439 444.85 244.466L444.412 246.785L445.429 247.183C445.429 247.183 445.439 247.185 445.443 247.187C445.464 247.187 445.482 247.177 445.49 247.156C445.5 247.132 445.488 247.103 445.464 247.095L445.466 247.089Z" fill="#F07162"/>
<path d="M450.241 246.848L450.068 250.091L451.213 250.059L451.05 246.803L450.241 246.848Z" fill="#FE9F73"/>
<path d="M450.722 238.971C450.722 238.971 451.215 240.346 450.169 242.539C449.124 244.732 452.588 241.83 452.588 241.83C452.588 241.83 452.533 238.535 450.722 238.971Z" fill="#21111D"/>
<path d="M445.853 236.677C443.678 235.838 443.872 238.29 443.872 238.29C443.872 238.29 442.147 238.243 442.506 239.981C442.867 241.717 450.167 242.54 450.167 242.54C450.167 242.54 454.217 241.856 453.173 239.747C452.13 237.637 448.025 237.515 445.851 236.677H445.853Z" fill="#21111D"/>
<path d="M449.529 241.827C449.048 242.725 449.572 244.673 449.572 244.673L449.869 245.089L450.256 243.771L451.671 242.346C451.671 242.346 450.01 240.93 449.529 241.827Z" fill="#21111D"/>
<path d="M445.172 248.698C445.907 248.672 446.148 247.85 446.148 247.85C446.148 247.85 444.167 247.917 444.134 247.923C444.134 247.923 444.434 248.725 445.17 248.698H445.172Z" fill="#FBFDFC"/>
<path d="M410.96 293.445L408.192 294.92C407.829 295.114 407.75 295.693 408.027 296.193C408.282 296.648 408.75 296.844 409.087 296.664L411.867 295.183C411.956 295.136 412.174 294.682 411.903 294.133C411.632 293.584 410.96 293.445 410.96 293.445Z" fill="#FE9F73"/>
<path d="M412.005 295.084L408.974 296.802C408.615 297.006 408.546 297.589 408.831 298.083C409.092 298.534 409.561 298.719 409.893 298.532L412.848 296.857C412.936 296.806 412.985 296.239 412.706 295.694C412.427 295.149 412.005 295.082 412.005 295.082V295.084Z" fill="#FE9F73"/>
<path d="M412.647 297.014L409.847 298.66C409.517 298.854 409.456 299.403 409.725 299.859C409.97 300.278 410.41 300.445 410.715 300.263L413.446 298.658C413.528 298.609 413.567 298.079 413.304 297.575C413.039 297.071 412.647 297.014 412.647 297.014Z" fill="#FE9F73"/>
<path d="M411.991 294.89L409.005 296.5C408.724 296.651 408.345 296.483 408.141 296.118C408.033 295.924 407.986 295.708 408.012 295.51C408.039 295.312 408.131 295.161 408.275 295.086L411.014 293.627C411.08 293.591 411.096 293.491 411.051 293.399C411.006 293.307 410.917 293.262 410.849 293.297L408.11 294.755C407.904 294.866 407.764 295.092 407.727 295.378C407.688 295.667 407.756 295.984 407.915 296.267C408.212 296.8 408.762 297.046 409.17 296.83L412.158 295.221C412.158 295.221 412.174 295.21 412.18 295.202C412.225 295.157 412.233 295.07 412.192 294.99C412.147 294.898 412.056 294.853 411.991 294.888V294.89Z" fill="#F07162"/>
<path d="M409.79 291.868L407.022 293.402C406.656 293.606 406.586 294.206 406.886 294.708C407.149 295.146 407.609 295.318 407.935 295.136L410.903 293.492C410.992 293.443 411.054 292.87 410.766 292.331C410.599 292.019 410.098 291.699 409.79 291.87V291.868Z" fill="#FE9F73"/>
<path d="M410.809 293.315L407.848 294.975C407.568 295.13 407.187 294.969 406.981 294.606C406.871 294.412 406.822 294.196 406.847 293.998C406.871 293.8 406.961 293.647 407.104 293.568L409.82 292.062C409.886 292.025 409.9 291.923 409.855 291.831C409.808 291.742 409.718 291.697 409.653 291.734L406.937 293.239C406.731 293.353 406.594 293.582 406.56 293.869C406.525 294.159 406.594 294.475 406.755 294.759C407.057 295.289 407.609 295.528 408.013 295.304L410.974 293.643C410.974 293.643 410.99 293.633 410.996 293.625C411.041 293.58 411.047 293.492 411.006 293.412C410.96 293.323 410.87 293.278 410.805 293.315H410.809Z" fill="#F07162"/>
<path d="M412.621 296.657L409.769 298.346C409.49 298.505 409.15 298.367 408.942 298.008C408.83 297.814 408.781 297.6 408.803 297.4C408.826 297.2 408.915 297.047 409.058 296.967L412.089 295.249C412.154 295.213 412.168 295.109 412.121 295.019C412.074 294.929 411.985 294.884 411.92 294.921L408.889 296.639C408.685 296.755 408.549 296.986 408.516 297.273C408.483 297.565 408.555 297.879 408.718 298.163C409.021 298.689 409.533 298.903 409.939 298.675L412.792 296.986C412.792 296.986 412.806 296.975 412.812 296.969C412.859 296.922 412.865 296.833 412.822 296.753C412.775 296.663 412.684 296.62 412.621 296.659V296.657Z" fill="#F07162"/>
<path d="M413.279 298.395L410.55 300C410.298 300.149 409.949 300.009 409.755 299.68C409.652 299.505 409.605 299.307 409.625 299.123C409.643 298.94 409.725 298.797 409.853 298.721L412.654 297.075C412.717 297.038 412.731 296.934 412.684 296.844C412.637 296.755 412.546 296.712 412.482 296.751L409.682 298.397C409.491 298.509 409.366 298.729 409.338 299.001C409.309 299.276 409.38 299.574 409.535 299.837C409.827 300.331 410.349 300.547 410.722 300.325L413.45 298.719C413.45 298.719 413.465 298.709 413.471 298.703C413.518 298.656 413.524 298.566 413.481 298.487C413.434 298.397 413.342 298.354 413.279 298.393V298.395Z" fill="#F07162"/>
<path d="M323.321 120.326C310.043 120.326 299.239 131.14 299.239 144.433H299.647C299.647 131.365 310.267 120.734 323.321 120.734C334.063 120.734 343.479 127.997 346.216 138.394C346.733 140.353 346.996 142.385 346.996 144.433H347.404C347.404 142.35 347.137 140.281 346.611 138.29C343.825 127.713 334.248 120.326 323.321 120.326Z" fill="#1D1D1B"/>
<path d="M323.321 114.818C307.008 114.818 293.737 128.103 293.737 144.433H294.144C294.144 128.329 307.233 115.226 323.321 115.226C337.283 115.226 349.334 125.182 351.975 138.896C352.324 140.71 352.499 142.573 352.499 144.433H352.907C352.907 142.546 352.727 140.657 352.375 138.819C349.697 124.912 337.479 114.818 323.321 114.818Z" fill="#1D1D1B"/>
<path d="M352.022 213.742H347.096C344.994 213.742 343.287 215.452 343.287 217.555V229.358H343.694V217.555C343.694 215.678 345.221 214.15 347.096 214.15H352.022C353.897 214.15 355.423 215.678 355.423 217.555V229.358H355.831V217.555C355.831 215.452 354.123 213.742 352.022 213.742Z" fill="#1D1D1B"/>
<path d="M358.91 229.154H338.948V229.562H358.91V229.154Z" fill="#1D1D1B"/>
<path d="M499.799 384.131H42.165V385.281H499.799V384.131Z" fill="#49263E"/>
</svg>
