<svg width="500" height="373" viewBox="0 0 500 373" fill="none" xmlns="http://www.w3.org/2000/svg">
<path d="M500 326.912H0V327.162H500V326.912Z" fill="#EBEBEB"/>
<path d="M449.901 342.977H416.781V343.227H449.901V342.977Z" fill="#EBEBEB"/>
<path d="M331.221 345.691H322.531V345.941H331.221V345.691Z" fill="#EBEBEB"/>
<path d="M415.78 333.713H396.59V333.963H415.78V333.713Z" fill="#EBEBEB"/>
<path d="M95.6509 335.389H52.4609V335.639H95.6509V335.389Z" fill="#EBEBEB"/>
<path d="M110.889 335.389H104.559V335.639H110.889V335.389Z" fill="#EBEBEB"/>
<path d="M225.149 339.604H131.469V339.854H225.149V339.604Z" fill="#EBEBEB"/>
<path d="M237.009 282.386H43.9092C40.7592 282.386 38.1992 279.831 38.1992 276.686V5.70064C38.1992 2.5558 40.7592 0 43.9092 0H237.009C240.159 0 242.719 2.5558 242.719 5.70064V276.686C242.719 279.831 240.159 282.386 237.009 282.386ZM43.9092 0.24959C40.8992 0.24959 38.4492 2.69557 38.4492 5.70064V276.686C38.4492 279.691 40.8992 282.137 43.9092 282.137H237.009C240.019 282.137 242.469 279.691 242.469 276.686V5.70064C242.469 2.69557 240.019 0.24959 237.009 0.24959H43.9092Z" fill="#EBEBEB"/>
<path d="M453.31 282.386H260.21C257.06 282.386 254.5 279.831 254.5 276.686V5.70064C254.5 2.5558 257.06 0 260.21 0H453.31C456.46 0 459.02 2.5558 459.02 5.70064V276.686C459.02 279.831 456.46 282.386 453.31 282.386ZM260.21 0.24959C257.2 0.24959 254.75 2.69557 254.75 5.70064V276.686C254.75 279.691 257.2 282.137 260.21 282.137H453.31C456.32 282.137 458.77 279.691 458.77 276.686V5.70064C458.77 2.69557 456.32 0.24959 453.31 0.24959H260.21Z" fill="#EBEBEB"/>
<path d="M444.2 19.668H279.75V165.349H444.2V19.668Z" fill="#E6E6E6"/>
<path d="M439.859 23.6621H283.859V161.436H439.859V23.6621Z" fill="#F0F0F0"/>
<path d="M320.479 23.6621L283.859 161.136V96.5325L303.189 23.6621H320.479Z" fill="white"/>
<path d="M333.439 23.6621L296.509 161.436H290.609L327.549 23.6621H333.439Z" fill="white"/>
<path d="M439.86 110.6V132.613L432.39 161.436H426.5L439.86 110.6Z" fill="white"/>
<path d="M338.278 21.1855H335.648V164.51H338.278V21.1855Z" fill="#E6E6E6"/>
<path d="M389.2 21.1855H386.57V164.51H389.2V21.1855Z" fill="#E6E6E6"/>
<path d="M143.131 245.697H52.4609V326.874H143.131V245.697Z" fill="#F5F5F5"/>
<path d="M84.0209 245.697H52.4609V326.874H84.0209V245.697Z" fill="#EBEBEB"/>
<path d="M161.17 166.188H70.5V247.364H161.17V166.188Z" fill="#EBEBEB"/>
<path d="M102.06 166.188H70.5V247.364H102.06V166.188Z" fill="#E0E0E0"/>
<path d="M143.131 85.25H52.4609V166.427H143.131V85.25Z" fill="#F5F5F5"/>
<path d="M84.0209 85.25H52.4609V166.427H84.0209V85.25Z" fill="#EBEBEB"/>
<path d="M241.803 245.768H151.133V326.944H241.803V245.768Z" fill="#EBEBEB"/>
<path d="M182.693 245.768H151.133V326.944H182.693V245.768Z" fill="#E0E0E0"/>
<path d="M251.842 196.588H161.172V247.434H251.842V196.588Z" fill="#F5F5F5"/>
<path d="M192.732 196.588H161.172V247.434H192.732V196.588Z" fill="#E6E6E6"/>
<path d="M212.713 116.27H154.133V197.446H212.713V116.27Z" fill="#EBEBEB"/>
<path d="M174.523 116.27H154.133V197.446H174.523V116.27Z" fill="#E0E0E0"/>
<path d="M346.514 327.012H437.184V245.835H346.514V327.012Z" fill="#F5F5F5"/>
<path d="M405.624 327.012H437.184V245.835H405.624V327.012Z" fill="#E6E6E6"/>
<path d="M328.463 247.502H419.133V181.42H328.463V247.502Z" fill="#EBEBEB"/>
<path d="M387.581 247.502H419.141V181.42H387.581V247.502Z" fill="#E0E0E0"/>
<path d="M349.744 181.422H437.184V149.075H349.744V181.422Z" fill="#F5F5F5"/>
<path d="M406.761 181.422H437.191V149.075H406.761V181.422Z" fill="#E6E6E6"/>
<path d="M249.999 372.001C357.082 372.001 443.889 366.942 443.889 360.7C443.889 354.458 357.082 349.398 249.999 349.398C142.917 349.398 56.1094 354.458 56.1094 360.7C56.1094 366.942 142.917 372.001 249.999 372.001Z" fill="#F5F5F5"/>
<path d="M357.86 54.9102H330.03C327.528 54.9102 325.5 56.935 325.5 59.4327V84.6314C325.5 87.1291 327.528 89.1539 330.03 89.1539H357.86C360.362 89.1539 362.39 87.1291 362.39 84.6314V59.4327C362.39 56.935 360.362 54.9102 357.86 54.9102Z" fill="#C5A4FF"/>
<path d="M340.34 84.8008C340.34 84.8008 342.67 96.0423 358.55 102.292C358.55 102.292 348.84 96.1022 349.45 84.8008H340.35H340.34Z" fill="#C5A4FF"/>
<path d="M335.961 71.0643L341.231 78.3723L351.931 65.7031" stroke="white" stroke-width="3" stroke-linecap="round" stroke-linejoin="round"/>
<path d="M392.531 94.3132C397.421 97.8274 401.841 103.808 398.541 120.59C395.241 137.363 394.401 141.356 394.401 141.356L362.411 137.762C362.411 137.762 360.911 122.916 363.461 108.949C366.761 90.9088 378.211 84.05 392.531 94.3132Z" fill="#263238"/>
<path d="M360.499 186.98C360.499 186.98 349.659 244.646 346.769 268.327C342.989 299.216 327.539 344.402 327.539 344.402L333.719 345.999C333.719 345.999 355.499 307.602 359.749 273.049C377.049 237.737 378.449 194.259 378.449 194.259L360.509 186.99L360.499 186.98Z" fill="#EEC1BB"/>
<path d="M316.039 358.391C317.039 357.932 318.119 357.662 319.209 357.582C319.209 357.582 323.009 355.346 326.769 346.68L330.999 346.66C332.469 346.68 333.759 347.609 334.249 348.986C334.319 349.176 334.359 349.376 334.369 349.575C334.329 350.594 334.219 351.612 334.039 352.62C333.659 355.785 331.569 362.564 331.569 362.564L330.849 362.384L332.149 356.075C332.579 353.928 330.329 356.005 329.279 358.161C328.229 360.318 326.629 362.494 321.949 361.426C316.499 360.158 314.309 359.369 316.009 358.391H316.039Z" fill="#263238"/>
<path d="M334.379 349.096C335.179 347.049 336.199 343.385 336.199 343.385L327.129 342.117C327.129 342.117 327.129 346.57 325.449 349.485C330.189 349.455 334.379 349.086 334.379 349.086V349.096Z" fill="#263238"/>
<path d="M371.75 186.062C371.75 186.062 373.1 244.726 375.17 268.487C377.87 299.486 372.12 346.888 372.12 346.888L378.49 347.168C378.49 347.168 391.84 305.097 388.84 270.424C398.45 232.307 390.81 189.477 390.81 189.477L371.75 186.062Z" fill="#EEC1BB"/>
<path d="M362.2 360.318C363.14 359.748 364.18 359.369 365.27 359.179C365.27 359.179 368.799 356.554 371.609 347.529L375.82 347.049C377.28 346.91 378.67 347.688 379.3 349.006C379.39 349.186 379.45 349.376 379.48 349.575C379.55 350.594 379.55 351.622 379.48 352.64C379.44 355.825 378.1 362.793 378.1 362.793L377.37 362.694L377.98 356.284C378.18 354.108 376.16 356.404 375.359 358.67C374.549 360.927 373.19 363.263 368.43 362.714C362.88 362.035 360.61 361.496 362.2 360.338V360.318Z" fill="#263238"/>
<path d="M379.432 349.095C380.002 346.969 380.622 343.225 380.622 343.225L371.472 342.945C371.472 342.945 371.952 347.378 370.602 350.453C375.312 349.904 379.432 349.095 379.432 349.095Z" fill="#263238"/>
<path d="M358.191 177.356L346.301 259.441C346.301 259.441 385.031 265.441 400.531 261.927C400.531 261.927 404.331 214.525 388.151 180.061L358.191 177.346V177.356Z" fill="#263238"/>
<path d="M322.402 148.343L312.062 138.14C312.062 138.14 311.702 135.404 310.702 134.646C309.702 133.887 302.602 131.311 301.732 131.88C300.862 132.449 299.652 138.18 300.872 139.228C302.082 140.276 308.542 141.614 309.202 141.504L320.392 154.763L322.402 148.343Z" fill="#EEC1BB"/>
<path d="M359.441 129.744C354.981 132.11 339.141 154.204 336.811 155.302C334.481 156.4 316.651 141.964 316.651 141.964L313.641 147.086C313.641 147.086 328.271 167.722 336.541 166.723C344.811 165.725 360.641 148.254 360.641 148.254L359.441 129.754V129.744Z" fill="#C5A4FF"/>
<path opacity="0.1" d="M359.441 129.744C354.981 132.11 339.141 154.204 336.811 155.302C334.481 156.4 316.651 141.964 316.651 141.964L313.641 147.086C313.641 147.086 328.271 167.722 336.541 166.723C344.811 165.725 360.641 148.254 360.641 148.254L359.441 129.754V129.744Z" fill="white"/>
<path d="M317.631 142.504L316.391 141.346L313.141 146.837L314.311 149.083L317.631 142.504Z" fill="#C5A4FF"/>
<path opacity="0.2" d="M354.283 154.705C357.983 151.181 360.643 148.255 360.643 148.255L360.363 143.863L358.973 139.6C358.973 139.6 352.733 145.34 354.283 154.705Z" fill="black"/>
<path d="M357.941 176.528C356.691 154.544 357.251 142.464 357.821 136.424C358.451 129.984 359.441 129.745 359.441 129.745C359.441 129.745 366.431 129.066 372.511 129.116C377.221 129.276 381.911 129.765 386.541 130.593C390.931 131.322 395.261 132.371 399.511 133.718C398.801 135.745 398.161 137.662 397.561 139.469C396.761 141.855 396.051 144.061 395.411 146.128C394.211 149.982 393.271 153.326 392.521 156.311C390.181 165.556 389.691 171.476 389.201 179.224C389.201 179.224 396.891 199.291 398.391 214.017L372.891 216.762L369.391 202.036L365.891 217.261L351.641 212.269L357.941 176.528Z" fill="#C5A4FF"/>
<path opacity="0.1" d="M357.941 176.528C356.691 154.544 357.251 142.464 357.821 136.424C358.451 129.984 359.441 129.745 359.441 129.745C359.441 129.745 366.431 129.066 372.511 129.116C377.221 129.276 381.911 129.765 386.541 130.593C390.931 131.322 395.261 132.371 399.511 133.718C398.801 135.745 398.161 137.662 397.561 139.469C396.761 141.855 396.051 144.061 395.411 146.128C394.211 149.982 393.271 153.326 392.521 156.311C390.181 165.556 389.691 171.476 389.201 179.224C389.201 179.224 396.891 199.291 398.391 214.017L372.891 216.762L369.391 202.036L365.891 217.261L351.641 212.269L357.941 176.528Z" fill="white"/>
<path opacity="0.2" d="M391.29 161.683C391.63 160.006 392.03 158.219 392.52 156.302C392.83 155.084 393.17 153.806 393.55 152.448C392.58 149.044 391.58 151.71 391.58 151.71C391.58 151.71 390.58 155.823 391.29 161.683Z" fill="black"/>
<path d="M372.859 130.454C373.139 130.304 373.46 130.174 373.81 130.044C374.53 129.475 375.409 128.108 375.359 124.773C375.349 123.685 375.24 122.407 375 120.88L384.269 119.152C384.269 119.152 381.11 125.382 383.75 130.005C384.66 130.404 385.2 130.973 385.1 131.732C384.41 137.083 372.89 142.254 372.89 142.254C372.89 142.254 367.269 133.519 372.859 130.454Z" fill="#EEC1BB"/>
<path opacity="0.2" d="M375.012 120.88C375.252 122.407 375.362 123.695 375.372 124.773C381.632 124.773 384.282 119.152 384.282 119.152L375.012 120.88Z" fill="black"/>
<path d="M380.13 95.0002C372.07 94.561 369.24 98.7241 368.19 106.991C366.88 117.314 368.78 124.801 378.98 123.144C392.83 120.888 393.51 95.739 380.13 95.0102V95.0002Z" fill="#EEC1BB"/>
<path d="M373.432 106.822C373.432 106.822 372.202 108.859 370.902 110.027C370.902 110.027 371.532 111.155 372.972 111.055L373.422 106.822H373.432Z" fill="#D4827D"/>
<path d="M378.404 106.432C378.354 107.091 378.664 107.66 379.104 107.69C379.544 107.72 379.944 107.221 379.994 106.562C380.044 105.903 379.734 105.334 379.294 105.304C378.854 105.274 378.454 105.773 378.404 106.432Z" fill="#263238"/>
<path d="M379.472 105.345L378.082 104.666C378.082 104.666 378.702 105.934 379.472 105.345Z" fill="#263238"/>
<path d="M370.193 105.653C370.143 106.312 370.453 106.881 370.893 106.911C371.333 106.941 371.733 106.442 371.783 105.783C371.833 105.124 371.523 104.555 371.083 104.525C370.643 104.495 370.243 104.994 370.193 105.653Z" fill="#263238"/>
<path d="M371.261 104.566L369.871 103.887C369.871 103.887 370.491 105.155 371.261 104.566Z" fill="#263238"/>
<path d="M378.793 100.88C378.793 100.88 381.073 100.711 382.223 102.288" stroke="#263238" stroke-width="0.69" stroke-linecap="round" stroke-linejoin="round"/>
<path d="M372.953 100.213C372.953 100.213 371.563 99.6043 369.703 100.703" stroke="#263238" stroke-width="0.69" stroke-linecap="round" stroke-linejoin="round"/>
<path d="M388.203 109.039C388.203 109.039 384.793 102.22 385.653 97.1481C385.653 97.1481 370.043 89.7603 368.363 105.904C368.363 105.904 367.593 91.4475 381.463 91.8868C395.313 92.326 394.163 112.563 386.683 118.194C386.683 118.194 390.313 113.302 388.213 109.039H388.203Z" fill="#263238"/>
<path d="M386.793 110.666C386.913 109.378 388.373 107.251 390.773 107.651C393.253 108.06 394.163 113.242 387.883 114.13C386.983 114.26 386.523 113.361 386.783 110.666H386.793Z" fill="#EEC1BB"/>
<path d="M379.272 112.932C379.272 112.932 377.392 114.928 374.652 114.809" stroke="#263238" stroke-width="0.69" stroke-linecap="round" stroke-linejoin="round"/>
<path d="M385.642 97.1477C385.642 97.1477 368.212 92.6251 366.762 108.938" stroke="#263238" stroke-width="0.69" stroke-linecap="round" stroke-linejoin="round"/>
<path d="M370.103 134.416C370.103 134.416 368.773 147.634 370.943 159.665C370.943 159.665 376.083 141.085 383.303 134.765L375.003 135.953L370.103 134.426V134.416Z" fill="#C5A4FF"/>
<path opacity="0.5" d="M370.103 134.416C370.103 134.416 368.773 147.634 370.943 159.665C370.943 159.665 376.083 141.085 383.303 134.765L375.003 135.953L370.103 134.426V134.416Z" fill="white"/>
<path d="M383.43 128.538L375.01 134.758V128.139C375.01 128.139 368.2 130.605 368.68 138.112L374.27 135.547V138.112L375.58 135.646L380 140.678C380 140.678 385.411 134.378 385.981 132.482C386.541 130.585 383.43 128.528 383.43 128.528V128.538Z" fill="#C5A4FF"/>
<path opacity="0.7" d="M383.43 128.538L375.01 134.758V128.139C375.01 128.139 368.2 130.605 368.68 138.112L374.27 135.547V138.112L375.58 135.646L380 140.678C380 140.678 385.411 134.378 385.981 132.482C386.541 130.585 383.43 128.528 383.43 128.528V128.538Z" fill="white"/>
<path d="M392.232 186.86L384.492 149.991C384.322 149.192 383.622 148.623 382.812 148.623H358.952C358.212 148.623 357.642 149.292 357.772 150.021L364.222 186.131C364.362 186.93 365.052 187.519 365.862 187.549L391.032 188.288C391.802 188.308 392.392 187.609 392.232 186.85V186.86Z" fill="#263238"/>
<path opacity="0.1" d="M392.232 186.86L384.492 149.991C384.322 149.192 383.622 148.623 382.812 148.623H358.952C358.212 148.623 357.642 149.292 357.772 150.021L364.222 186.131C364.362 186.93 365.052 187.519 365.862 187.549L391.032 188.288C391.802 188.308 392.392 187.609 392.232 186.85V186.86Z" fill="white"/>
<path d="M402.523 174.921L390.223 167.184C390.223 167.184 389.283 164.588 388.143 164.059C387.003 163.53 379.513 162.541 378.793 163.29C378.073 164.039 378.123 169.889 379.533 170.648C380.943 171.407 387.533 171.337 388.153 171.077L401.943 181.62L402.523 174.911V174.921Z" fill="#EEC1BB"/>
<path d="M399.51 133.717C399.51 133.717 391.47 145.378 392.64 155.361L403.31 173.002L396.14 169.338L392.89 175.448C392.89 175.448 401.14 188.137 411.64 185.142C422.14 182.147 399.51 133.717 399.51 133.717Z" fill="#C5A4FF"/>
<path opacity="0.1" d="M399.51 133.717C399.51 133.717 391.47 145.378 392.64 155.361L403.31 173.002L396.14 169.338L392.89 175.448C392.89 175.448 401.14 188.137 411.64 185.142C422.14 182.147 399.51 133.717 399.51 133.717Z" fill="white"/>
<path d="M396.891 169.001L392.811 176.578L391.891 174.412L395.141 168.252L396.891 169.001Z" fill="#C5A4FF"/>
<path d="M382.031 148.623C381.091 148.623 381.091 173.183 381.091 173.183L359.591 172.564C359.591 172.564 357.171 151.798 359.591 148.623H382.031Z" fill="white"/>
<path opacity="0.1" d="M382.031 148.623C381.091 148.623 381.091 173.183 381.091 173.183L359.591 172.564C359.591 172.564 357.171 151.798 359.591 148.623H382.031Z" fill="black"/>
<path d="M293.201 129.165L313.531 137.701C314.001 137.901 314.211 138.43 314.011 138.899C313.811 139.349 313.291 139.558 312.831 139.369L292.371 130.713C292.301 130.683 292.241 130.653 292.191 130.603L289.801 128.836L292.931 129.105C293.021 129.105 293.121 129.135 293.201 129.175V129.165Z" fill="#263238"/>
<path d="M225.75 171.242L205.97 172.999L198.05 168.536C198.05 168.536 172.65 154.409 166.04 149.946C164.03 148.579 162.17 145.604 160.56 142.109C159.2 139.174 158.02 135.88 157.08 132.894C156.63 131.487 156.23 130.139 155.89 128.941C155.13 126.275 154.66 124.279 154.53 123.74C154.53 123.66 154.51 123.62 154.5 123.6L154.55 123.57L160.81 121.583L166.04 119.926C166.04 119.926 166.28 121.164 166.69 123.051C166.8 123.56 166.92 124.119 167.05 124.718C167.16 125.197 167.27 125.706 167.39 126.235C168.71 132.046 170.74 139.973 172.21 141.271C174.58 143.357 204.38 163.634 205.44 164.163C206.49 164.692 215.99 164.163 215.99 164.163L225.75 171.242Z" fill="#E4897B"/>
<path d="M154.41 95.5744C163.5 95.4447 169.3 123.588 169.3 123.588L157.31 129.599C157.31 129.599 151.9 121.033 152.17 110.21C152.43 99.3882 154.42 95.5645 154.42 95.5645L154.41 95.5744Z" fill="#C5A4FF"/>
<path opacity="0.5" d="M154.41 95.5744C163.5 95.4447 169.3 123.588 169.3 123.588L157.31 129.599C157.31 129.599 151.9 121.033 152.17 110.21C152.43 99.3882 154.42 95.5645 154.42 95.5645L154.41 95.5744Z" fill="white"/>
<path d="M170.628 124.137L167.388 126.233L163.158 128.969L157.078 132.892L155.988 133.601L154.668 129.598L155.888 128.939L156.688 128.5L162.248 125.475L166.688 123.049L168.908 121.841L169.298 121.631L170.628 124.137Z" fill="#C5A4FF"/>
<path opacity="0.2" d="M163.701 133.601C163.771 137.006 162.411 139.841 160.561 142.107C159.201 139.172 158.021 135.878 157.081 132.893L155.991 133.601L154.671 129.598L155.891 128.939C155.131 126.273 154.661 124.277 154.531 123.738L154.541 123.698V123.568L155.991 112.586C155.991 112.586 158.631 116.37 160.811 121.581C161.331 122.809 161.821 124.117 162.251 125.475C162.401 125.944 162.541 126.423 162.671 126.912C162.861 127.591 163.021 128.28 163.161 128.969C163.471 130.497 163.671 132.054 163.701 133.601Z" fill="black"/>
<path d="M153.051 353.829L161.421 354.708L162.991 336.697L154.621 335.809L153.051 353.829Z" fill="#E4897B"/>
<path d="M111.301 353.222H119.401L120.071 334.473H111.961L111.301 353.222Z" fill="#E4897B"/>
<path d="M120.53 352.283H110.68C110.35 352.283 110.06 352.513 109.99 352.842L108.39 360.05C108.25 360.699 108.67 361.328 109.31 361.468C109.4 361.488 109.48 361.498 109.57 361.498C112.76 361.448 115.08 361.248 119.08 361.248C121.55 361.248 128.98 361.508 132.39 361.508C135.8 361.508 136.24 358.154 134.84 357.844C128.59 356.486 123.89 354.599 121.89 352.812C121.52 352.473 121.03 352.283 120.53 352.293V352.283Z" fill="#263238"/>
<path d="M121.091 353.401C121.011 353.381 120.961 353.311 120.951 353.231C120.941 353.151 120.971 353.081 121.041 353.041C121.331 352.852 123.951 351.254 124.851 351.713C125.061 351.813 125.191 352.023 125.181 352.253C125.231 352.642 125.081 353.031 124.781 353.281C124.321 353.59 123.771 353.74 123.221 353.69C122.501 353.67 121.791 353.57 121.101 353.391L121.091 353.401ZM121.651 353.131C122.601 353.451 123.631 353.401 124.541 352.991C124.731 352.822 124.831 352.562 124.801 352.302C124.791 352.153 124.731 352.073 124.681 352.073C124.601 352.033 124.521 352.013 124.431 352.023C123.441 352.213 122.501 352.592 121.661 353.131H121.651Z" fill="#C5A4FF"/>
<path d="M121.031 353.452C120.971 353.412 120.941 353.352 120.941 353.272C120.951 353.162 121.151 350.836 122.081 350.067C122.301 349.868 122.601 349.778 122.891 349.818C123.191 349.818 123.451 350.028 123.511 350.327C123.671 351.186 122.061 352.963 121.221 353.412H121.131C121.131 353.412 121.061 353.442 121.031 353.442V353.452ZM122.331 350.297C121.761 351.026 121.431 351.904 121.371 352.833C122.211 352.204 123.241 350.856 123.131 350.327C123.121 350.277 123.101 350.127 122.851 350.127H122.761C122.601 350.127 122.451 350.187 122.331 350.297Z" fill="#C5A4FF"/>
<path d="M162.3 352.023H152.45C152.12 352.023 151.83 352.253 151.76 352.583L150.16 359.791C150.02 360.44 150.44 361.069 151.08 361.208C151.17 361.228 151.25 361.238 151.34 361.238C154.53 361.188 156.85 360.989 160.85 360.989C163.32 360.989 170.75 361.248 174.16 361.248C177.57 361.248 178.01 357.894 176.61 357.584C170.36 356.227 165.66 354.34 163.66 352.553C163.29 352.213 162.8 352.023 162.3 352.033V352.023Z" fill="#263238"/>
<path d="M162.861 353.15C162.781 353.131 162.731 353.061 162.721 352.991C162.711 352.911 162.741 352.841 162.811 352.801C163.101 352.611 165.721 351.014 166.621 351.473C166.831 351.573 166.961 351.783 166.951 352.012C167.001 352.402 166.851 352.791 166.551 353.041C166.091 353.35 165.541 353.5 164.991 353.45C164.271 353.43 163.561 353.33 162.871 353.15H162.861ZM163.421 352.881C164.371 353.2 165.401 353.15 166.311 352.741C166.501 352.571 166.601 352.312 166.571 352.052C166.561 351.903 166.501 351.823 166.451 351.823C166.371 351.783 166.291 351.763 166.201 351.773C165.211 351.962 164.271 352.342 163.431 352.881H163.421Z" fill="#C5A4FF"/>
<path d="M162.809 353.192C162.749 353.152 162.719 353.092 162.719 353.012C162.729 352.903 162.929 350.576 163.859 349.808C164.079 349.608 164.379 349.518 164.669 349.558C164.969 349.558 165.229 349.768 165.289 350.067C165.449 350.926 163.839 352.703 162.999 353.152H162.909C162.909 353.152 162.839 353.182 162.809 353.182V353.192ZM164.109 350.037C163.539 350.766 163.209 351.645 163.149 352.573C163.989 351.944 165.019 350.596 164.909 350.067C164.899 350.017 164.879 349.868 164.629 349.868H164.539C164.379 349.868 164.229 349.927 164.109 350.037Z" fill="#C5A4FF"/>
<path opacity="0.2" d="M154.621 335.809L162.991 336.697L162.171 345.982L153.801 345.103L154.621 335.809Z" fill="black"/>
<path opacity="0.2" d="M111.959 334.484H120.069L119.719 344.149H111.609L111.959 334.484Z" fill="black"/>
<path d="M115.301 169.992H158.341C162.431 192.296 175.241 271.236 166.051 341.581L151.481 339.773C151.481 339.773 152.831 246.397 139.971 211.883C138.491 230.353 136.731 250.011 135.211 260.474C131.471 286.221 123.451 342.479 123.451 342.479H108.621C108.621 342.479 111.651 288.627 113.061 263.329C114.591 235.864 115.261 175.643 115.311 170.002L115.301 169.992Z" fill="#C5A4FF"/>
<path opacity="0.2" d="M139.969 211.883C141.869 216.974 143.449 223.324 144.779 230.472C145.979 214.029 141.169 196.598 141.169 196.598L139.969 211.883Z" fill="black"/>
<path d="M167.72 344.964L149.68 342.289L150.24 337.297L168.99 339.763L167.72 344.964Z" fill="#C5A4FF"/>
<path opacity="0.6" d="M167.72 344.964L149.68 342.289L150.24 337.297L168.99 339.763L167.72 344.964Z" fill="white"/>
<path d="M125.228 342.588H107.738V337.377L125.888 337.037L125.228 342.588Z" fill="#C5A4FF"/>
<path opacity="0.6" d="M125.228 342.588H107.738V337.377L125.888 337.037L125.228 342.588Z" fill="white"/>
<path d="M115.22 177.461L115.18 171.241L159.04 168.535L159.35 174.555L115.22 177.461Z" fill="#263238"/>
<path d="M126.32 169.652H124.34V178.767H126.32V169.652Z" fill="#C5A4FF"/>
<path d="M156.635 166.63L154.66 166.773L155.324 175.864L157.299 175.721L156.635 166.63Z" fill="#C5A4FF"/>
<path d="M159.041 168.535L115.181 171.8C115.231 167.966 115.081 163.693 114.791 159.18C114.251 150.844 113.221 141.719 112.071 133.163C109.631 114.983 106.641 99.3784 106.641 99.3784C127.041 94.2369 154.411 95.5747 154.411 95.5747C161.521 122.141 159.041 168.535 159.041 168.535Z" fill="#C5A4FF"/>
<path opacity="0.6" d="M159.041 168.535L115.181 171.8C115.231 167.966 115.081 163.693 114.791 159.18C114.251 150.844 113.221 141.719 112.071 133.163C109.631 114.983 106.641 99.3784 106.641 99.3784C127.041 94.2369 154.411 95.5747 154.411 95.5747C161.521 122.141 159.041 168.535 159.041 168.535Z" fill="white"/>
<path d="M122.211 96.6222C126.161 100.206 135.841 98.8785 135.841 98.8785C135.841 98.8785 141.881 97.2312 140.611 95.3443C137.051 94.7553 135.331 93.098 134.621 90.9815C134.211 89.7435 134.151 88.3558 134.261 86.9282C134.311 86.1794 134.421 85.4107 134.561 84.6619L122.601 75.8164C124.171 81.6568 126.091 92.3992 122.221 96.6322L122.211 96.6222Z" fill="#E4897B"/>
<path opacity="0.2" d="M125.359 81.4375C125.829 88.6057 131.729 90.5825 134.619 90.9818C134.209 89.7439 134.149 88.3561 134.259 86.9285L125.359 81.4375Z" fill="black"/>
<path d="M145.996 58.7856C148.906 61.541 147.696 69.9373 141.766 74.2302C135.836 78.5232 135.836 57.7573 135.836 57.7573C135.836 57.7573 144.146 57.0285 145.996 58.7856Z" fill="#263238"/>
<path d="M124.548 83.0951C127.428 87.2283 132.118 88.3065 136.188 87.0187C138.808 86.19 141.168 84.383 142.638 81.7773C142.838 81.4378 143.008 81.0784 143.178 80.709C146.098 73.8902 147.028 61.9698 139.808 57.4971C134.678 54.2724 127.898 55.8099 124.668 60.9315C123.738 62.3791 123.178 64.0364 123.018 65.7635C122.128 73.7305 121.238 78.3828 124.558 83.0951H124.548Z" fill="#E4897B"/>
<path d="M134.649 70.018C134.499 70.6469 134.789 71.236 135.219 71.3059C135.649 71.3757 136.069 70.9065 136.179 70.2676C136.289 69.6286 136.029 69.0496 135.609 68.9797C135.189 68.9098 134.759 69.369 134.649 70.018Z" fill="#263238"/>
<path d="M141.938 71.2655C141.788 71.8945 142.088 72.4835 142.508 72.5534C142.928 72.6233 143.358 72.1541 143.468 71.5151C143.578 70.8762 143.318 70.2971 142.898 70.2273C142.478 70.1574 142.038 70.6565 141.938 71.2655Z" fill="#263238"/>
<path d="M139.568 71.1855C139.998 73.2821 140.718 75.3188 141.708 77.2156C140.698 77.7048 139.528 77.7248 138.508 77.2656L139.568 71.1855Z" fill="#DE5753"/>
<path d="M132.789 67.2822C132.929 67.3221 133.079 67.2922 133.179 67.2023C133.879 66.5234 134.849 66.204 135.819 66.3537C136.019 66.4036 136.229 66.2838 136.279 66.0742C136.329 65.8745 136.209 65.6649 135.999 65.6149C134.779 65.3953 133.539 65.7847 132.659 66.6433C132.499 66.783 132.489 67.0226 132.629 67.1824C132.679 67.2223 132.729 67.2622 132.789 67.2822Z" fill="#263238"/>
<path d="M136.887 80.4201C134.967 80.3802 133.187 79.4118 132.107 77.8244C132.047 77.7245 132.087 77.6047 132.177 77.5448C132.267 77.4849 132.387 77.5149 132.447 77.6047C132.447 77.6047 132.447 77.6047 132.447 77.6147C133.467 79.0623 135.117 79.9509 136.897 80.0008C137.007 80.0008 137.097 80.0907 137.097 80.1905C137.097 80.1905 137.097 80.2005 137.097 80.2105C137.097 80.3203 137.007 80.4101 136.907 80.4101C136.907 80.4101 136.897 80.4101 136.887 80.4101V80.4201Z" fill="#263238"/>
<path d="M145.498 69.287C145.568 69.327 145.638 69.3469 145.718 69.3369C145.918 69.277 146.038 69.0674 145.988 68.8677C145.668 67.6697 144.788 66.7112 143.628 66.282C143.428 66.222 143.218 66.3319 143.148 66.5315C143.088 66.7312 143.208 66.9409 143.408 67.0108C144.318 67.3702 144.998 68.1489 145.248 69.0873C145.298 69.1872 145.398 69.2671 145.508 69.287H145.498Z" fill="#263238"/>
<path d="M130.509 56.8889V60.453C129.279 60.9223 128.429 62.1403 128.789 63.5879C129.559 66.6728 127.329 71.0456 124.839 72.5931C124.839 72.5931 124.929 71.3052 123.809 71.4749C122.689 71.6447 122.179 78.3437 123.899 81.768C123.899 81.768 121.059 78.5034 120.119 71.2952C119.249 64.6262 119.699 59.2151 121.329 56.8789H130.519L130.509 56.8889Z" fill="#263238"/>
<path d="M118.448 71.6525C119.018 73.5893 120.338 75.2267 122.118 76.1951C124.478 77.463 126.238 75.4862 126.078 72.9604C125.918 70.7141 124.518 67.2697 121.898 67.08C119.278 66.8804 117.768 69.2764 118.448 71.6625V71.6525Z" fill="#E4897B"/>
<path d="M119.747 62.9087C119.747 62.9087 117.277 56.9884 123.717 52.6455C130.147 48.3026 145.537 53.3643 146.617 56.8886C147.687 60.4128 136.127 66.8522 119.757 62.9087H119.747Z" fill="#263238"/>
<path d="M123.721 92.9392L133.511 98.2904L134.851 90.9824L141.711 95.4351V104.76L134.451 100.437L129.351 108.074L119.281 97.0325L123.721 92.9392Z" fill="#C5A4FF"/>
<path d="M145.948 168.793L138.24 169.219C137.601 169.255 137.111 169.801 137.146 170.44L137.435 175.643C137.47 176.282 138.018 176.771 138.657 176.735L146.365 176.309C147.005 176.274 147.495 175.727 147.459 175.089L147.171 169.885C147.135 169.247 146.588 168.758 145.948 168.793Z" fill="white"/>
<path opacity="0.5" d="M123.721 92.9392L133.511 98.2904L134.851 90.9824L141.711 95.4351V104.76L134.451 100.437L129.351 108.074L119.281 97.0325L123.721 92.9392Z" fill="white"/>
<path opacity="0.2" d="M130.51 157.245C127.6 161.617 118.29 161.587 114.79 159.181C114.25 150.845 113.22 141.72 112.07 133.164L130.51 157.245Z" fill="black"/>
<path d="M115.18 123.59C115.18 123.59 117.25 137.038 119.28 139.673C121.31 142.309 163.24 165.212 163.24 165.212L177.75 164.163L184.43 171.801C184.43 171.801 165.1 174.796 162.99 174.217C160.88 173.638 159.27 172.769 159.27 172.769C159.27 172.769 115.26 155.468 111.57 151.524C107.88 147.57 103.66 127.274 103.66 127.274L115.21 123.59H115.18Z" fill="#E4897B"/>
<path d="M106.64 99.3785C114.32 97.7811 118.28 129.599 118.28 129.599L102.57 133.602C102.57 133.602 97.1796 101.345 106.63 99.3785H106.64Z" fill="#C5A4FF"/>
<path opacity="0.5" d="M106.64 99.3785C114.32 97.7811 118.28 129.599 118.28 129.599L102.57 133.602C102.57 133.602 97.1796 101.345 106.63 99.3785H106.64Z" fill="white"/>
<path d="M101.66 132.824L119.28 128.611V131.646L102.45 136.518L101.66 132.824Z" fill="#C5A4FF"/>
<path d="M162.039 331.535V194.65C162.039 188.73 160.219 182.949 156.829 178.087L152.039 171.238H237.139L241.929 178.087C245.319 182.949 247.139 188.73 247.139 194.65V330.207" stroke="#263238" stroke-width="6" stroke-linecap="round" stroke-linejoin="round"/>
<path d="M342.849 361.495C347.715 361.495 351.659 357.558 351.659 352.7C351.659 347.842 347.715 343.904 342.849 343.904C337.983 343.904 334.039 347.842 334.039 352.7C334.039 357.558 337.983 361.495 342.849 361.495Z" fill="#263238"/>
<path opacity="0.4" d="M347.261 352.699C347.261 350.273 345.291 348.307 342.861 348.307C340.431 348.307 338.461 350.273 338.461 352.699C338.461 355.125 340.431 357.092 342.861 357.092C345.291 357.092 347.261 355.125 347.261 352.699Z" fill="white"/>
<path d="M341.788 354.667C340.378 354.667 339.128 353.788 338.638 352.47L333.438 338.273H345.128V351.322C345.128 353.169 343.627 354.667 341.777 354.667H341.788Z" fill="#263238"/>
<path opacity="0.2" d="M341.788 354.667C340.378 354.667 339.128 353.788 338.638 352.47L333.438 338.273H345.128V351.322C345.128 353.169 343.627 354.667 341.777 354.667H341.788Z" fill="white"/>
<path d="M244.849 361.495C249.715 361.495 253.659 357.558 253.659 352.7C253.659 347.842 249.715 343.904 244.849 343.904C239.983 343.904 236.039 347.842 236.039 352.7C236.039 357.558 239.983 361.495 244.849 361.495Z" fill="#263238"/>
<path opacity="0.4" d="M249.261 352.699C249.261 350.273 247.291 348.307 244.861 348.307C242.431 348.307 240.461 350.273 240.461 352.699C240.461 355.125 242.431 357.092 244.861 357.092C247.291 357.092 249.261 355.125 249.261 352.699Z" fill="white"/>
<path d="M243.787 354.667C242.377 354.667 241.127 353.788 240.637 352.47L235.438 338.273H247.128V351.322C247.128 353.169 245.627 354.667 243.777 354.667H243.787Z" fill="#263238"/>
<path opacity="0.2" d="M243.787 354.667C242.377 354.667 241.127 353.788 240.637 352.47L235.438 338.273H247.128V351.322C247.128 353.169 245.627 354.667 243.777 354.667H243.787Z" fill="white"/>
<path d="M357.999 328.031V336.338C357.999 337.885 356.739 339.143 355.189 339.143H158.259C156.709 339.143 155.449 337.885 155.449 336.338V328.031H357.999Z" fill="#263238"/>
<path opacity="0.4" d="M357.999 328.031V336.338C357.999 337.885 356.739 339.143 355.189 339.143H158.259C156.709 339.143 155.449 337.885 155.449 336.338V328.031H357.999Z" fill="white"/>
<path opacity="0.2" d="M287.999 328.031V336.338C287.999 337.885 286.739 339.143 285.189 339.143H158.259C156.709 339.143 155.449 337.885 155.449 336.338V328.031H287.999Z" fill="white"/>
<path d="M271.849 361.495C276.715 361.495 280.659 357.558 280.659 352.7C280.659 347.842 276.715 343.904 271.849 343.904C266.983 343.904 263.039 347.842 263.039 352.7C263.039 357.558 266.983 361.495 271.849 361.495Z" fill="#263238"/>
<path opacity="0.6" d="M276.261 352.699C276.261 350.273 274.291 348.307 271.861 348.307C269.431 348.307 267.461 350.273 267.461 352.699C267.461 355.125 269.431 357.092 271.861 357.092C274.291 357.092 276.261 355.125 276.261 352.699Z" fill="white"/>
<path d="M270.788 354.667C269.378 354.667 268.128 353.788 267.638 352.47L262.438 338.273H274.128V351.322C274.128 353.169 272.627 354.667 270.777 354.667H270.788Z" fill="#263238"/>
<path opacity="0.4" d="M270.788 354.667C269.378 354.667 268.128 353.788 267.638 352.47L262.438 338.273H274.128V351.322C274.128 353.169 272.627 354.667 270.777 354.667H270.788Z" fill="white"/>
<path d="M173.849 361.495C178.715 361.495 182.659 357.558 182.659 352.7C182.659 347.842 178.715 343.904 173.849 343.904C168.983 343.904 165.039 347.842 165.039 352.7C165.039 357.558 168.983 361.495 173.849 361.495Z" fill="#263238"/>
<path opacity="0.6" d="M178.261 352.699C178.261 350.273 176.291 348.307 173.861 348.307C171.431 348.307 169.461 350.273 169.461 352.699C169.461 355.125 171.431 357.092 173.861 357.092C176.291 357.092 178.261 355.125 178.261 352.699Z" fill="white"/>
<path d="M172.787 354.667C171.377 354.667 170.127 353.788 169.637 352.47L164.438 338.273H176.128V351.322C176.128 353.169 174.627 354.667 172.777 354.667H172.787Z" fill="#263238"/>
<path opacity="0.4" d="M172.787 354.667C171.377 354.667 170.127 353.788 169.637 352.47L164.438 338.273H176.128V351.322C176.128 353.169 174.627 354.667 172.777 354.667H172.787Z" fill="white"/>
<path d="M273.09 263.586H179.84V328.03H273.09V263.586Z" fill="#C5A4FF"/>
<path opacity="0.4" d="M273.09 263.586H179.84V328.03H273.09V263.586Z" fill="white"/>
<path opacity="0.2" d="M223.11 263.586H179.84V328.03H223.11V263.586Z" fill="white"/>
<path opacity="0.2" d="M219.021 314.402H213.611C213.103 314.402 212.691 314.814 212.691 315.321V322.699C212.691 323.206 213.103 323.617 213.611 323.617H219.021C219.53 323.617 219.941 323.206 219.941 322.699V315.321C219.941 314.814 219.53 314.402 219.021 314.402Z" fill="black"/>
<path opacity="0.2" d="M209.26 314.402H203.85C203.342 314.402 202.93 314.814 202.93 315.321V322.699C202.93 323.206 203.342 323.617 203.85 323.617H209.26C209.768 323.617 210.18 323.206 210.18 322.699V315.321C210.18 314.814 209.768 314.402 209.26 314.402Z" fill="black"/>
<path opacity="0.4" d="M253.04 263.586H247.77V270.305H253.04V263.586Z" fill="black"/>
<path opacity="0.2" d="M267.448 291.102H231.148V299.528H267.448V291.102Z" fill="black"/>
<path opacity="0.2" d="M195.07 266.949H182.66V279.339H195.07V266.949Z" fill="black"/>
<path d="M282.609 199.143H189.359V263.587H282.609V199.143Z" fill="#C5A4FF"/>
<path opacity="0.4" d="M282.609 199.143H189.359V263.587H282.609V199.143Z" fill="black"/>
<path opacity="0.2" d="M232.629 199.143H189.359V263.587H232.629V199.143Z" fill="white"/>
<path opacity="0.2" d="M228.549 249.959H223.139C222.631 249.959 222.219 250.37 222.219 250.877V258.255C222.219 258.763 222.631 259.174 223.139 259.174H228.549C229.057 259.174 229.469 258.763 229.469 258.255V250.877C229.469 250.37 229.057 249.959 228.549 249.959Z" fill="black"/>
<path opacity="0.2" d="M218.791 249.959H213.381C212.873 249.959 212.461 250.37 212.461 250.877V258.255C212.461 258.763 212.873 259.174 213.381 259.174H218.791C219.299 259.174 219.711 258.763 219.711 258.255V250.877C219.711 250.37 219.299 249.959 218.791 249.959Z" fill="black"/>
<path opacity="0.4" d="M262.559 199.143H257.289V205.862H262.559V199.143Z" fill="black"/>
<path opacity="0.2" d="M276.968 226.658H240.668V235.084H276.968V226.658Z" fill="black"/>
<path opacity="0.2" d="M204.598 202.506H192.188V214.896H204.598V202.506Z" fill="black"/>
<path d="M339.688 199.143H246.438V263.587H339.688V199.143Z" fill="#C5A4FF"/>
<path opacity="0.4" d="M339.688 199.143H246.438V263.587H339.688V199.143Z" fill="white"/>
<path opacity="0.2" d="M289.707 199.143H246.438V263.587H289.707V199.143Z" fill="white"/>
<path opacity="0.2" d="M285.627 249.959H280.217C279.709 249.959 279.297 250.37 279.297 250.877V258.255C279.297 258.763 279.709 259.174 280.217 259.174H285.627C286.135 259.174 286.547 258.763 286.547 258.255V250.877C286.547 250.37 286.135 249.959 285.627 249.959Z" fill="black"/>
<path opacity="0.2" d="M275.869 249.959H270.459C269.951 249.959 269.539 250.37 269.539 250.877V258.255C269.539 258.763 269.951 259.174 270.459 259.174H275.869C276.377 259.174 276.789 258.763 276.789 258.255V250.877C276.789 250.37 276.377 249.959 275.869 249.959Z" fill="black"/>
<path opacity="0.4" d="M319.637 199.143H314.367V205.862H319.637V199.143Z" fill="black"/>
<path opacity="0.2" d="M334.046 226.658H297.746V235.084H334.046V226.658Z" fill="black"/>
<path opacity="0.2" d="M261.676 202.506H249.266V214.896H261.676V202.506Z" fill="black"/>
<path d="M307.438 134.697H214.188V199.141H307.438V134.697Z" fill="#C5A4FF"/>
<path opacity="0.2" d="M257.457 134.697H214.188V199.141H257.457V134.697Z" fill="white"/>
<path opacity="0.2" d="M253.369 185.514H247.959C247.451 185.514 247.039 185.925 247.039 186.432V193.81C247.039 194.317 247.451 194.729 247.959 194.729H253.369C253.877 194.729 254.289 194.317 254.289 193.81V186.432C254.289 185.925 253.877 185.514 253.369 185.514Z" fill="black"/>
<path opacity="0.2" d="M243.619 185.514H238.209C237.701 185.514 237.289 185.925 237.289 186.432V193.81C237.289 194.317 237.701 194.729 238.209 194.729H243.619C244.127 194.729 244.539 194.317 244.539 193.81V186.432C244.539 185.925 244.127 185.514 243.619 185.514Z" fill="black"/>
<path opacity="0.4" d="M287.387 134.697H282.117V141.416H287.387V134.697Z" fill="black"/>
<path opacity="0.2" d="M301.796 162.213H265.496V170.639H301.796V162.213Z" fill="black"/>
<path opacity="0.2" d="M229.418 138.061H217.008V150.45H229.418V138.061Z" fill="black"/>
<path d="M332.43 263.586H239.18V328.03H332.43V263.586Z" fill="#263238"/>
<path opacity="0.2" d="M332.43 263.586H239.18V328.03H332.43V263.586Z" fill="white"/>
<path opacity="0.2" d="M282.45 263.586H239.18V328.03H282.45V263.586Z" fill="white"/>
<path opacity="0.2" d="M278.361 314.402H272.951C272.443 314.402 272.031 314.814 272.031 315.321V322.699C272.031 323.206 272.443 323.617 272.951 323.617H278.361C278.869 323.617 279.281 323.206 279.281 322.699V315.321C279.281 314.814 278.869 314.402 278.361 314.402Z" fill="black"/>
<path opacity="0.2" d="M268.6 314.402H263.19C262.681 314.402 262.27 314.814 262.27 315.321V322.699C262.27 323.206 262.681 323.617 263.19 323.617H268.6C269.108 323.617 269.52 323.206 269.52 322.699V315.321C269.52 314.814 269.108 314.402 268.6 314.402Z" fill="black"/>
<path opacity="0.4" d="M312.379 263.586H307.109V270.305H312.379V263.586Z" fill="black"/>
<path opacity="0.2" d="M326.788 291.102H290.488V299.528H326.788V291.102Z" fill="black"/>
<path opacity="0.2" d="M254.41 266.949H242V279.339H254.41V266.949Z" fill="black"/>
</svg>
