<svg width="397" height="477" viewBox="0 0 397 477" fill="none" xmlns="http://www.w3.org/2000/svg">
<path fill-rule="evenodd" clip-rule="evenodd" d="M3.38791 315.63C5.25752 315.63 6.77578 314.1 6.77578 312.244C6.77578 310.389 5.25752 308.859 3.38791 308.859C1.51829 308.859 0 310.376 0 312.244C0 314.113 1.51829 315.63 3.38791 315.63Z" fill="white"/>
<path d="M215.446 0H371.063C385.38 0 396.999 11.6097 396.999 25.9149V451.084C396.999 465.389 385.38 476.999 371.063 476.999H215.446C201.129 476.999 189.51 465.389 189.51 451.084V25.9149C189.51 11.6097 201.129 0 215.446 0Z" fill="#00000F"/>
<path d="M208.344 0H363.962C378.279 0 389.898 11.6097 389.898 25.9149V451.084C389.898 465.389 378.279 476.999 363.962 476.999H208.344C194.027 476.999 182.408 465.389 182.408 451.084V25.9149C182.408 11.6097 194.027 0 208.344 0Z" fill="#00000F"/>
<path d="M208.343 4.11133H363.96C375.994 4.11133 385.768 13.878 385.768 25.9014V451.083C385.768 463.107 375.994 472.873 363.96 472.873H208.343C196.31 472.873 186.535 463.107 186.535 451.083V25.9139C186.535 13.8905 196.31 4.12387 208.343 4.12387V4.11133Z" fill="#F3F5FF"/>
<path d="M208.343 12.3496H363.961C371.452 12.3496 377.525 18.4177 377.525 25.9026V451.084C377.525 458.569 371.452 464.637 363.961 464.637H208.343C200.852 464.637 194.779 458.569 194.779 451.084V25.9151C194.779 18.4303 200.852 12.3621 208.343 12.3621V12.3496Z" fill="white"/>
<path fill-rule="evenodd" clip-rule="evenodd" d="M286.153 24.7101H239.626C236.351 24.7101 233.666 22.0271 233.666 18.7548V16.473C232.888 14.0909 230.629 12.3482 227.994 12.3482L233.666 10.2795V8.12305H338.628V10.2795L344.299 12.3482C341.664 12.3482 339.406 14.0783 338.628 16.473V18.7548C338.628 22.0271 335.942 24.7101 332.667 24.7101H286.153Z" fill="#F3F5FF"/>
<path fill-rule="evenodd" clip-rule="evenodd" d="M274.433 16.5262C273.53 16.5262 272.802 15.799 272.802 14.8963C272.802 13.9936 273.53 13.2664 274.433 13.2664H304.724C305.627 13.2664 306.355 13.9936 306.355 14.8963C306.355 15.799 305.627 16.5262 304.724 16.5262H274.433ZM268.975 13.2539C269.879 13.2539 270.606 13.9811 270.606 14.8838C270.606 15.7865 269.879 16.5136 268.975 16.5136H267.582C266.679 16.5136 265.951 15.7865 265.951 14.8838C265.951 13.9811 266.679 13.2539 267.582 13.2539H268.975Z" fill="#00000F"/>
<path fill-rule="evenodd" clip-rule="evenodd" d="M274.508 350.774H208.632V305.012H274.508V350.774ZM207.766 352.491H275.361C275.838 352.491 276.227 352.103 276.227 351.626V304.135C276.227 303.658 275.838 303.27 275.361 303.27H207.766C207.289 303.27 206.9 303.658 206.9 304.135V351.626C206.9 352.103 207.289 352.491 207.766 352.491Z" fill="#E4E1E8"/>
<path fill-rule="evenodd" clip-rule="evenodd" d="M366.194 350.772H281.659V284.562H366.194V350.772ZM280.794 352.49H367.059C367.536 352.49 367.925 352.101 367.925 351.625V283.697C367.925 283.221 367.536 282.832 367.059 282.832H280.794C280.317 282.832 279.928 283.221 279.928 283.697V351.625C279.928 352.101 280.317 352.49 280.794 352.49Z" fill="#E4E1E8"/>
<path fill-rule="evenodd" clip-rule="evenodd" d="M366.194 226.751H281.659V143.966H366.194V226.751ZM280.794 228.469H367.059C367.536 228.469 367.925 228.08 367.925 227.604V143.101C367.925 142.625 367.536 142.236 367.059 142.236H280.794C280.317 142.236 279.928 142.625 279.928 143.101V227.604C279.928 228.08 280.317 228.469 280.794 228.469Z" fill="#E4E1E8"/>
<path fill-rule="evenodd" clip-rule="evenodd" d="M366.194 276.314H281.659V235.003H366.194V276.314ZM280.794 278.044H367.059C367.536 278.044 367.925 277.655 367.925 277.179V234.15C367.925 233.674 367.536 233.285 367.059 233.285H280.794C280.317 233.285 279.928 233.674 279.928 234.15V277.179C279.928 277.655 280.317 278.044 280.794 278.044Z" fill="#E4E1E8"/>
<path d="M367.059 359.725H207.766V369.654H367.059V359.725Z" fill="#E4E1E8"/>
<path fill-rule="evenodd" clip-rule="evenodd" d="M356.999 221.098H290.872C289.831 221.098 288.965 220.246 288.965 219.193C288.965 218.14 289.818 217.287 290.872 217.287H356.999C358.04 217.287 358.906 218.14 358.906 219.193C358.906 220.246 358.053 221.098 356.999 221.098Z" fill="#FFDEB8"/>
<path fill-rule="evenodd" clip-rule="evenodd" d="M356.999 211.659H290.872C289.831 211.659 288.965 210.806 288.965 209.753C288.965 208.7 289.818 207.848 290.872 207.848H356.999C358.04 207.848 358.906 208.7 358.906 209.753C358.906 210.794 358.053 211.659 356.999 211.659Z" fill="#FFDEB8"/>
<path d="M290.872 198.428H356.999C358.053 198.428 358.906 199.28 358.906 200.333C358.906 201.387 358.053 202.239 356.999 202.239H290.872C289.818 202.239 288.965 201.387 288.965 200.333C288.965 199.28 289.818 198.428 290.872 198.428Z" fill="#FFDEB8"/>
<path fill-rule="evenodd" clip-rule="evenodd" d="M356.999 192.8H290.872C289.831 192.8 288.965 191.947 288.965 190.894C288.965 189.841 289.818 188.988 290.872 188.988H356.999C358.04 188.988 358.906 189.841 358.906 190.894C358.906 191.935 358.053 192.8 356.999 192.8Z" fill="#FFDEB8"/>
<path d="M290.872 179.561H356.999C358.053 179.561 358.906 180.413 358.906 181.466C358.906 182.519 358.053 183.372 356.999 183.372H290.872C289.818 183.372 288.965 182.519 288.965 181.466C288.965 180.413 289.818 179.561 290.872 179.561Z" fill="#FFDEB8"/>
<path fill-rule="evenodd" clip-rule="evenodd" d="M356.999 173.931H290.872C289.831 173.931 288.965 173.078 288.965 172.025C288.965 170.984 289.818 170.119 290.872 170.119H356.999C358.04 170.119 358.906 170.972 358.906 172.025C358.906 173.065 358.053 173.931 356.999 173.931Z" fill="#FFDEB8"/>
<path d="M290.872 160.691H356.999C358.053 160.691 358.906 161.544 358.906 162.597C358.906 163.65 358.053 164.503 356.999 164.503H290.872C289.818 164.503 288.965 163.65 288.965 162.597C288.965 161.544 289.818 160.691 290.872 160.691Z" fill="#FFDEB8"/>
<path fill-rule="evenodd" clip-rule="evenodd" d="M356.999 155.075H290.872C289.831 155.075 288.965 154.223 288.965 153.169C288.965 152.129 289.818 151.264 290.872 151.264H356.999C358.04 151.264 358.906 152.116 358.906 153.169C358.906 154.21 358.053 155.075 356.999 155.075Z" fill="#FFDEB8"/>
<path fill-rule="evenodd" clip-rule="evenodd" d="M269.061 296.033H214.089C213.035 296.033 212.182 295.181 212.182 294.14C212.182 293.087 213.035 292.234 214.089 292.234H269.061C270.102 292.234 270.968 293.087 270.968 294.14C270.968 295.181 270.115 296.033 269.061 296.033Z" fill="#7B3FE4"/>
<path fill-rule="evenodd" clip-rule="evenodd" d="M269.061 286.602H214.089C213.035 286.602 212.182 285.75 212.182 284.697C212.182 283.656 213.035 282.791 214.089 282.791H269.061C270.102 282.791 270.968 283.644 270.968 284.697C270.968 285.75 270.115 286.602 269.061 286.602Z" fill="#7B3FE4"/>
<path fill-rule="evenodd" clip-rule="evenodd" d="M269.061 277.175H214.089C213.035 277.175 212.182 276.322 212.182 275.269C212.182 274.228 213.035 273.363 214.089 273.363H269.061C270.102 273.363 270.968 274.216 270.968 275.269C270.968 276.31 270.115 277.175 269.061 277.175Z" fill="#7B3FE4"/>
<path fill-rule="evenodd" clip-rule="evenodd" d="M269.061 267.735H214.089C213.035 267.735 212.182 266.883 212.182 265.83C212.182 264.789 213.035 263.924 214.089 263.924H269.061C270.102 263.924 270.968 264.776 270.968 265.83C270.968 266.883 270.115 267.735 269.061 267.735Z" fill="#7B3FE4"/>
<path fill-rule="evenodd" clip-rule="evenodd" d="M269.061 258.307H214.089C213.035 258.307 212.182 257.454 212.182 256.413C212.182 255.36 213.035 254.508 214.089 254.508H269.061C270.102 254.508 270.968 255.36 270.968 256.413C270.968 257.454 270.115 258.307 269.061 258.307Z" fill="#7B3FE4"/>
<path fill-rule="evenodd" clip-rule="evenodd" d="M269.061 248.878H214.089C213.035 248.878 212.182 248.025 212.182 246.972C212.182 245.931 213.035 245.066 214.089 245.066H269.061C270.102 245.066 270.968 245.919 270.968 246.972C270.968 248.025 270.115 248.878 269.061 248.878Z" fill="#7B3FE4"/>
<path fill-rule="evenodd" clip-rule="evenodd" d="M269.061 239.438H214.089C213.035 239.438 212.182 238.586 212.182 237.533C212.182 236.492 213.035 235.627 214.089 235.627H269.061C270.102 235.627 270.968 236.479 270.968 237.533C270.968 238.573 270.115 239.438 269.061 239.438Z" fill="#7B3FE4"/>
<path fill-rule="evenodd" clip-rule="evenodd" d="M356.999 343.147H290.872C289.831 343.147 288.965 342.295 288.965 341.242C288.965 340.201 289.818 339.336 290.872 339.336H356.999C358.04 339.336 358.906 340.188 358.906 341.242C358.906 342.295 358.053 343.147 356.999 343.147Z" fill="#E4E1E8"/>
<path d="M290.872 329.908H356.999C358.053 329.908 358.906 330.761 358.906 331.814C358.906 332.867 358.053 333.72 357.011 333.72H290.872C289.818 333.72 288.965 332.867 288.965 331.814C288.965 330.761 289.818 329.908 290.872 329.908Z" fill="#E4E1E8"/>
<path fill-rule="evenodd" clip-rule="evenodd" d="M356.999 324.28H290.872C289.831 324.28 288.965 323.428 288.965 322.374C288.965 321.334 289.818 320.469 290.872 320.469H356.999C358.04 320.469 358.906 321.321 358.906 322.374C358.906 323.415 358.053 324.28 356.999 324.28Z" fill="#E4E1E8"/>
<path fill-rule="evenodd" clip-rule="evenodd" d="M356.999 314.852H290.872C289.831 314.852 288.965 313.999 288.965 312.958C288.965 311.905 289.818 311.053 290.872 311.053H356.999C358.04 311.053 358.906 311.905 358.906 312.958C358.906 313.999 358.053 314.852 356.999 314.852Z" fill="#E4E1E8"/>
<path fill-rule="evenodd" clip-rule="evenodd" d="M356.999 305.423H290.872C289.831 305.423 288.965 304.57 288.965 303.517C288.965 302.476 289.818 301.611 290.872 301.611H356.999C358.04 301.611 358.906 302.464 358.906 303.517C358.906 304.57 358.053 305.423 356.999 305.423Z" fill="#E4E1E8"/>
<path fill-rule="evenodd" clip-rule="evenodd" d="M356.999 295.983H290.872C289.831 295.983 288.965 295.131 288.965 294.078C288.965 293.024 289.818 292.172 290.872 292.172H356.999C358.04 292.172 358.906 293.024 358.906 294.078C358.906 295.118 358.053 295.983 356.999 295.983Z" fill="#E4E1E8"/>
<path fill-rule="evenodd" clip-rule="evenodd" d="M275.36 227.62H207.766V189.268H275.36V227.62ZM270.366 224.548C270.718 224.548 270.994 224.272 270.994 223.921V220.411C270.994 220.059 270.718 219.784 270.366 219.784H266.853C266.502 219.784 266.226 220.059 266.226 220.411V223.921C266.226 224.272 266.514 224.548 266.853 224.548H270.366ZM259.726 223.081C260.228 223.081 260.642 222.667 260.642 222.166C260.642 221.664 260.228 221.251 259.726 221.251H251.695C251.193 221.251 250.779 221.664 250.779 222.166C250.779 222.667 251.193 223.081 251.695 223.081H259.726ZM245.171 223.081C245.672 223.081 246.086 222.667 246.086 222.166C246.086 221.664 245.672 221.251 245.171 221.251H212.32C211.819 221.251 211.405 221.664 211.405 222.166C211.405 222.667 211.819 223.081 212.32 223.081H245.171ZM248.571 223.081C249.073 223.081 249.487 222.667 249.487 222.166C249.487 221.664 249.073 221.251 248.571 221.251H248.333C247.831 221.251 247.417 221.664 247.417 222.166C247.417 222.667 247.831 223.081 248.333 223.081H248.571ZM212.32 213.929H220.351C220.853 213.929 221.267 213.515 221.267 213.013C221.267 212.512 220.853 212.098 220.351 212.098H212.32C211.819 212.098 211.405 212.512 211.405 213.013C211.405 213.515 211.819 213.929 212.32 213.929ZM226.876 213.929H259.726C260.228 213.929 260.642 213.515 260.642 213.013C260.642 212.512 260.228 212.098 259.726 212.098H226.876C226.374 212.098 225.96 212.512 225.96 213.013C225.96 213.515 226.374 213.929 226.876 213.929ZM223.475 213.929H223.714C224.216 213.929 224.63 213.515 224.63 213.013C224.63 212.512 224.216 212.098 223.714 212.098H223.475C222.974 212.098 222.559 212.512 222.559 213.013C222.559 213.515 222.974 213.929 223.475 213.929ZM259.726 204.776C260.228 204.776 260.642 204.363 260.642 203.861C260.642 203.36 260.228 202.946 259.726 202.946H251.695C251.193 202.946 250.779 203.36 250.779 203.861C250.779 204.363 251.193 204.776 251.695 204.776H259.726ZM245.171 204.776C245.672 204.776 246.086 204.363 246.086 203.861C246.086 203.36 245.672 202.946 245.171 202.946H212.32C211.819 202.946 211.405 203.36 211.405 203.861C211.405 204.363 211.819 204.776 212.32 204.776H245.171ZM248.571 204.776C249.073 204.776 249.487 204.363 249.487 203.861C249.487 203.36 249.073 202.946 248.571 202.946H248.333C247.831 202.946 247.417 203.36 247.417 203.861C247.417 204.363 247.831 204.776 248.333 204.776H248.571ZM226.876 195.624H259.726C260.228 195.624 260.642 195.21 260.642 194.709C260.642 194.207 260.24 193.794 259.726 193.794H226.876C226.374 193.794 225.96 194.207 225.96 194.709C225.96 195.21 226.374 195.624 226.876 195.624ZM223.475 195.624H223.714C224.216 195.624 224.63 195.21 224.63 194.709C224.63 194.207 224.216 193.794 223.714 193.794H223.475C222.974 193.794 222.559 194.207 222.559 194.709C222.559 195.21 222.974 195.624 223.475 195.624ZM270.366 197.091C270.718 197.091 270.994 196.803 270.994 196.464V192.954C270.994 192.603 270.718 192.327 270.366 192.327H266.853C266.502 192.327 266.226 192.603 266.226 192.954V196.464C266.226 196.803 266.514 197.091 266.853 197.091H270.366ZM270.366 206.243C270.718 206.243 270.994 205.967 270.994 205.616V202.106C270.994 201.755 270.718 201.479 270.366 201.479H266.853C266.502 201.479 266.226 201.767 266.226 202.106V205.616C266.226 205.967 266.514 206.243 266.853 206.243H270.366ZM270.366 215.396C270.718 215.396 270.994 215.107 270.994 214.769V211.258C270.994 210.92 270.718 210.631 270.366 210.631H266.853C266.502 210.631 266.226 210.92 266.226 211.258V214.769C266.226 215.107 266.514 215.396 266.853 215.396H270.366Z" fill="#E4E1E8"/>
<path fill-rule="evenodd" clip-rule="evenodd" d="M240.515 185.629H207.766V147.277H240.515V185.629ZM220.451 170.133C221.393 171.073 222.697 171.663 224.14 171.663C225.583 171.663 226.888 171.073 227.83 170.133C228.771 169.193 229.36 167.889 229.36 166.447C229.36 165.005 228.783 163.701 227.83 162.761C226.888 161.821 225.583 161.232 224.14 161.232C222.697 161.232 221.393 161.808 220.451 162.761C219.51 163.701 218.921 165.005 218.921 166.447C218.921 167.889 219.498 169.193 220.451 170.133ZM221.556 176.101C221.756 176.139 221.907 176.314 221.907 176.527V179.95C221.907 179.95 221.92 180.038 221.957 180.063C221.982 180.088 222.02 180.113 222.07 180.113H226.211C226.211 180.113 226.286 180.1 226.324 180.063C226.349 180.038 226.374 180 226.374 179.95V176.527C226.374 176.339 226.499 176.164 226.7 176.113C227.566 175.888 228.382 175.549 229.147 175.11C229.912 174.672 230.615 174.12 231.243 173.506C231.381 173.368 231.594 173.33 231.769 173.43L234.743 175.148C234.743 175.148 234.819 175.173 234.869 175.161C234.906 175.161 234.944 175.123 234.969 175.085L237.04 171.5C237.04 171.5 237.065 171.424 237.04 171.374C237.04 171.337 237.002 171.299 236.964 171.274L234.028 169.581C233.84 169.494 233.752 169.281 233.802 169.08C233.915 168.654 234.003 168.215 234.066 167.789C234.116 167.362 234.154 166.924 234.154 166.46C234.154 165.996 234.128 165.557 234.066 165.131C234.003 164.692 233.915 164.266 233.802 163.839C233.752 163.651 233.827 163.451 234.003 163.35L236.964 161.645C236.964 161.645 237.027 161.583 237.04 161.545C237.04 161.507 237.04 161.457 237.04 161.42L234.969 157.834C234.969 157.834 234.906 157.771 234.869 157.759C234.831 157.759 234.794 157.759 234.756 157.759L231.782 159.476C231.619 159.577 231.406 159.551 231.255 159.401C230.628 158.774 229.925 158.235 229.147 157.784C228.407 157.357 227.591 157.019 226.738 156.781C226.537 156.743 226.387 156.568 226.387 156.354V152.932C226.387 152.932 226.374 152.844 226.336 152.819C226.311 152.794 226.274 152.769 226.223 152.769H222.083C222.083 152.769 222.007 152.781 221.97 152.819C221.945 152.844 221.919 152.882 221.919 152.932V156.354C221.919 156.543 221.794 156.718 221.593 156.768C220.727 156.994 219.912 157.332 219.146 157.771C218.381 158.21 217.678 158.762 217.051 159.376C216.913 159.514 216.7 159.551 216.524 159.451L213.55 157.734C213.55 157.734 213.475 157.708 213.425 157.721C213.387 157.721 213.349 157.759 213.324 157.796L211.254 161.382C211.254 161.382 211.229 161.457 211.241 161.507C211.241 161.545 211.279 161.583 211.317 161.608L214.253 163.3C214.428 163.388 214.529 163.601 214.479 163.802C214.366 164.228 214.278 164.667 214.215 165.093C214.165 165.519 214.127 165.958 214.127 166.422C214.127 166.886 214.152 167.325 214.215 167.751C214.278 168.19 214.366 168.616 214.479 169.042C214.529 169.23 214.454 169.431 214.278 169.531L211.317 171.236C211.317 171.236 211.254 171.287 211.241 171.337C211.241 171.374 211.241 171.424 211.254 171.462L213.324 175.048C213.324 175.048 213.374 175.11 213.425 175.123C213.462 175.123 213.5 175.123 213.538 175.123L216.511 173.405C216.675 173.305 216.888 173.33 217.038 173.481C217.666 174.107 218.368 174.659 219.146 175.098C219.899 175.524 220.702 175.863 221.556 176.088V176.101ZM222.07 180.978H226.211C226.487 180.978 226.75 180.865 226.939 180.677C227.127 180.489 227.24 180.238 227.24 179.95V176.853C228.068 176.615 228.846 176.276 229.574 175.85C230.314 175.424 231.004 174.91 231.619 174.333L234.304 175.888C234.555 176.026 234.831 176.063 235.082 175.988C235.333 175.925 235.559 175.75 235.71 175.512L237.78 171.938C237.93 171.688 237.956 171.412 237.88 171.161C237.817 170.91 237.654 170.685 237.403 170.534L234.718 168.992C234.806 168.641 234.869 168.278 234.919 167.901C234.982 167.425 235.019 166.949 235.019 166.46C235.019 165.971 234.982 165.494 234.919 165.018C234.869 164.642 234.794 164.278 234.718 163.927L237.403 162.385C237.654 162.247 237.817 162.021 237.88 161.758C237.956 161.507 237.93 161.232 237.78 160.981L235.71 157.395C235.571 157.157 235.333 156.981 235.082 156.919C234.844 156.856 234.58 156.881 234.329 157.006L231.619 158.574C231.004 157.984 230.314 157.483 229.574 157.057C228.846 156.63 228.068 156.292 227.24 156.054V152.957C227.24 152.668 227.127 152.418 226.939 152.23C226.75 152.042 226.499 151.929 226.211 151.929H222.07C221.794 151.929 221.531 152.042 221.342 152.23C221.154 152.418 221.041 152.668 221.041 152.957V156.054C220.213 156.292 219.435 156.63 218.707 157.057C217.967 157.483 217.277 157.997 216.662 158.574L213.977 157.019C213.738 156.881 213.45 156.843 213.199 156.919C212.948 156.981 212.722 157.157 212.571 157.395L210.501 160.981C210.35 161.232 210.325 161.507 210.401 161.758C210.463 162.009 210.639 162.235 210.877 162.385L213.563 163.927C213.475 164.278 213.412 164.642 213.362 165.018C213.299 165.494 213.262 165.971 213.262 166.46C213.262 166.949 213.299 167.425 213.362 167.901C213.412 168.278 213.475 168.641 213.563 168.992L210.877 170.534C210.639 170.672 210.463 170.898 210.401 171.161C210.338 171.412 210.363 171.688 210.501 171.938L212.571 175.524C212.709 175.762 212.935 175.938 213.199 176.001C213.437 176.063 213.701 176.038 213.939 175.913L216.662 174.346C217.277 174.935 217.967 175.436 218.707 175.863C219.435 176.276 220.213 176.615 221.041 176.866V179.962C221.041 180.251 221.154 180.502 221.342 180.69C221.531 180.878 221.781 180.99 222.07 180.99V180.978ZM224.14 170.798C225.345 170.798 226.424 170.309 227.215 169.519C228.005 168.729 228.495 167.651 228.495 166.447C228.495 165.243 228.005 164.165 227.215 163.375C226.437 162.586 225.345 162.097 224.14 162.097C222.936 162.097 221.857 162.586 221.066 163.375C220.276 164.165 219.799 165.243 219.799 166.447C219.799 167.651 220.288 168.729 221.066 169.519C221.857 170.309 222.936 170.798 224.14 170.798Z" fill="#7B3FE4"/>
<path d="M275.363 147.277H244.922V185.629H275.363V147.277Z" fill="#E4E1E8"/>
<path fill-rule="evenodd" clip-rule="evenodd" d="M254.707 313.812H228.419C226.964 313.812 225.771 315.004 225.771 316.458V341.282C225.771 341.57 225.947 341.821 226.211 341.934C226.487 342.034 226.788 341.959 226.976 341.746L232.648 335.314H254.694C256.15 335.314 257.342 334.123 257.342 332.669V316.458C257.342 315.004 256.15 313.812 254.694 313.812H254.707Z" fill="#FFDEB8"/>
<path fill-rule="evenodd" clip-rule="evenodd" d="M365.153 417.409H209.661C208.62 417.409 207.754 416.557 207.754 415.503C207.754 414.463 208.607 413.598 209.661 413.598H365.153C366.194 413.598 367.06 414.45 367.06 415.503C367.06 416.544 366.207 417.409 365.153 417.409Z" fill="#B4C5E6"/>
<path fill-rule="evenodd" clip-rule="evenodd" d="M365.153 407.981H209.661C208.62 407.981 207.754 407.129 207.754 406.076C207.754 405.022 208.607 404.17 209.661 404.17H365.153C366.194 404.17 367.06 405.022 367.06 406.076C367.06 407.116 366.207 407.981 365.153 407.981Z" fill="#B4C5E6"/>
<path fill-rule="evenodd" clip-rule="evenodd" d="M365.153 398.552H209.661C208.62 398.552 207.754 397.699 207.754 396.646C207.754 395.605 208.607 394.74 209.661 394.74H365.153C366.194 394.74 367.06 395.593 367.06 396.646C367.06 397.687 366.207 398.552 365.153 398.552Z" fill="#B4C5E6"/>
<path fill-rule="evenodd" clip-rule="evenodd" d="M365.153 389.124H209.661C208.62 389.124 207.754 388.271 207.754 387.218C207.754 386.165 208.607 385.312 209.661 385.312H365.153C366.194 385.312 367.06 386.165 367.06 387.218C367.06 388.259 366.207 389.124 365.153 389.124Z" fill="#B4C5E6"/>
<path fill-rule="evenodd" clip-rule="evenodd" d="M365.153 379.684H209.661C208.62 379.684 207.754 378.831 207.754 377.79C207.754 376.737 208.607 375.885 209.661 375.885H365.153C366.194 375.885 367.06 376.737 367.06 377.79C367.06 378.831 366.207 379.684 365.153 379.684Z" fill="#B4C5E6"/>
<path d="M367.925 116.988H207.766V129.438H367.925V116.988Z" fill="#E4E1E8"/>
<path fill-rule="evenodd" clip-rule="evenodd" d="M367.988 431.287H356.131C355.553 431.287 355.026 431.525 354.65 431.901C354.274 432.278 354.035 432.804 354.035 433.381V445.492C354.035 445.843 354.073 446.031 354.474 446.169C355.102 446.445 355.127 446.219 355.328 445.831L355.353 445.793C355.528 445.479 356.231 444.326 357.298 443.549C357.862 443.135 358.54 442.822 359.293 442.822H360.209V443.599C360.209 444.075 360.397 444.502 360.71 444.815C361.024 445.128 361.451 445.316 361.928 445.316H368.402C368.917 445.316 369.381 445.53 369.783 445.818C370.51 446.357 371 447.122 371.15 447.385L371.188 447.448C371.389 447.849 371.552 448 372.066 447.786C372.468 447.611 372.493 447.448 372.48 447.122C372.568 444.201 372.48 441.054 372.48 438.133C372.48 437.656 372.28 437.217 371.978 436.916C371.665 436.603 371.226 436.415 370.749 436.415H370.096V433.381C370.096 432.804 369.858 432.29 369.481 431.901C369.105 431.525 368.578 431.287 368.001 431.287H367.988ZM357.799 438.797H357.084C356.858 438.797 356.683 438.609 356.683 438.396C356.683 438.183 356.858 437.995 357.084 437.995H357.799C358.025 437.995 358.201 438.17 358.201 438.396C358.201 438.621 358.025 438.797 357.799 438.797ZM359.318 437.995H365.868C366.094 437.995 366.269 438.17 366.269 438.396C366.269 438.621 366.081 438.797 365.868 438.797H359.318C359.092 438.797 358.916 438.609 358.916 438.396C358.916 438.183 359.092 437.995 359.318 437.995ZM366.319 434.885H367.035C367.26 434.885 367.436 435.061 367.436 435.287C367.436 435.512 367.26 435.688 367.035 435.688H366.319C366.094 435.688 365.918 435.512 365.918 435.287C365.918 435.061 366.094 434.885 366.319 434.885ZM364.789 435.688H357.084C356.858 435.688 356.683 435.512 356.683 435.287C356.683 435.061 356.858 434.885 357.084 434.885H364.789C365.014 434.885 365.19 435.061 365.19 435.287C365.19 435.512 365.014 435.688 364.789 435.688ZM361.526 442.822H367.976C368.553 442.822 369.08 442.583 369.456 442.207C369.833 441.831 370.071 441.305 370.071 440.728V437.756H370.724C370.837 437.756 370.924 437.794 371 437.869C371.062 437.944 371.113 438.045 371.113 438.145V445.216C370.95 445.053 370.761 444.89 370.561 444.752C369.958 444.313 369.23 443.988 368.39 443.988H361.915C361.815 443.988 361.714 443.95 361.639 443.875C361.564 443.799 361.526 443.712 361.526 443.599V442.822ZM356.118 432.629H367.976C368.176 432.629 368.365 432.716 368.503 432.854C368.641 432.992 368.729 433.18 368.729 433.381V440.728C368.729 440.928 368.641 441.116 368.503 441.254C368.365 441.392 368.176 441.48 367.976 441.48H359.255C358.176 441.48 357.247 441.906 356.469 442.47C356.043 442.784 355.679 443.135 355.365 443.486V433.393C355.365 433.193 355.453 433.005 355.591 432.867C355.729 432.729 355.917 432.641 356.118 432.641V432.629Z" fill="#AEABBA"/>
<path fill-rule="evenodd" clip-rule="evenodd" d="M313.357 425.332C312.014 425.332 310.784 425.884 309.906 426.761C309.028 427.639 308.476 428.855 308.476 430.209C308.476 431.563 309.015 432.779 309.906 433.657L309.956 433.694C310.835 434.56 312.039 435.086 313.369 435.086C314.699 435.086 315.929 434.534 316.82 433.657C317.711 432.767 318.25 431.551 318.25 430.209C318.25 428.868 317.698 427.651 316.82 426.761C315.942 425.871 314.712 425.332 313.369 425.332H313.357ZM307.924 442.809V442.784V442.759V442.333C307.924 440.853 308.526 439.512 309.492 438.534L309.53 438.509C310.521 437.531 311.876 436.917 313.369 436.917C314.862 436.917 316.218 437.531 317.209 438.509C318.2 439.487 318.802 440.853 318.802 442.345V442.797V446.27C318.802 446.345 318.765 446.42 318.727 446.47C318.727 446.47 318.602 446.558 318.526 446.558H308.225C308.149 446.558 308.074 446.533 308.024 446.47C307.974 446.42 307.936 446.345 307.936 446.27V442.809H307.924ZM306.581 442.784V442.809V446.27C306.581 446.708 306.757 447.122 307.058 447.41C307.346 447.711 307.76 447.887 308.2 447.887H318.501C318.953 447.887 319.355 447.699 319.656 447.41C319.944 447.11 320.132 446.708 320.132 446.257V442.772V442.333C320.132 440.465 319.367 438.785 318.137 437.556C316.908 436.327 315.214 435.563 313.344 435.563C311.474 435.563 309.781 436.327 308.563 437.543L308.526 437.581C307.321 438.81 306.568 440.477 306.568 442.32V442.772L306.581 442.784ZM310.86 427.702C311.5 427.062 312.378 426.661 313.357 426.661C314.335 426.661 315.214 427.05 315.854 427.702C316.494 428.341 316.895 429.219 316.895 430.197C316.895 431.174 316.494 432.052 315.866 432.691C315.226 433.331 314.348 433.732 313.369 433.732C312.39 433.732 311.537 433.356 310.897 432.729L310.86 432.691C310.22 432.052 309.818 431.174 309.818 430.197C309.818 429.219 310.22 428.341 310.86 427.702Z" fill="#AEABBA"/>
<path fill-rule="evenodd" clip-rule="evenodd" d="M261.156 431.976C260.729 432.127 260.315 432.315 259.938 432.54C259.549 432.766 259.186 433.029 258.847 433.318L257.467 432.515L257.404 432.478C257.165 432.365 256.914 432.34 256.689 432.402C256.438 432.478 256.199 432.641 256.061 432.879L254.794 435.06C254.643 435.311 254.618 435.587 254.693 435.838C254.756 436.088 254.932 436.327 255.17 436.465L256.551 437.267C256.525 437.405 256.5 437.53 256.488 437.681C256.45 437.994 256.425 438.308 256.425 438.608C256.425 438.909 256.45 439.223 256.488 439.536C256.5 439.674 256.525 439.812 256.551 439.95L255.17 440.752C254.919 440.903 254.756 441.128 254.693 441.379C254.618 441.63 254.656 441.918 254.794 442.157L256.061 444.338C256.212 444.589 256.438 444.752 256.689 444.814C256.94 444.89 257.228 444.852 257.467 444.714L258.847 443.912C259.186 444.213 259.549 444.463 259.938 444.689C260.327 444.915 260.729 445.103 261.156 445.253V446.846C261.156 447.121 261.268 447.385 261.457 447.573C261.645 447.761 261.896 447.874 262.184 447.874H264.707C264.995 447.874 265.246 447.761 265.434 447.573L265.484 447.51C265.635 447.334 265.723 447.096 265.723 446.846V445.253C266.15 445.115 266.564 444.927 266.94 444.702C267.329 444.476 267.693 444.213 268.032 443.924L269.412 444.727L269.475 444.764C269.701 444.877 269.964 444.902 270.19 444.84C270.441 444.764 270.679 444.601 270.817 444.363L272.085 442.182C272.223 441.931 272.26 441.655 272.185 441.404C272.122 441.154 271.947 440.928 271.708 440.777L270.328 439.975C270.353 439.85 270.378 439.712 270.391 439.561C270.428 439.248 270.453 438.934 270.453 438.633C270.453 438.333 270.428 438.019 270.391 437.706C270.366 437.568 270.353 437.43 270.328 437.305L271.708 436.502C271.959 436.364 272.122 436.126 272.185 435.875C272.248 435.625 272.223 435.336 272.085 435.098L270.817 432.916C270.679 432.666 270.453 432.503 270.19 432.44C269.939 432.365 269.65 432.402 269.412 432.54L268.032 433.343C267.693 433.042 267.329 432.779 266.94 432.565C266.551 432.34 266.15 432.152 265.723 432.001V430.409C265.723 430.133 265.61 429.87 265.422 429.682C265.234 429.494 264.97 429.381 264.694 429.381H262.172C261.883 429.381 261.632 429.494 261.444 429.682L261.394 429.744C261.243 429.92 261.143 430.158 261.143 430.409V432.001L261.156 431.976ZM260.603 433.694C261.018 433.456 261.482 433.267 261.946 433.13C262.26 433.067 262.486 432.804 262.486 432.465V430.685H264.393V432.465C264.393 432.766 264.594 433.029 264.895 433.117C265.384 433.242 265.848 433.443 266.288 433.694C266.727 433.944 267.116 434.258 267.48 434.609C267.693 434.835 268.032 434.885 268.308 434.734L269.851 433.844L270.805 435.487L269.299 436.364C269.01 436.502 268.86 436.828 268.948 437.142C269.01 437.392 269.061 437.643 269.098 437.881C269.136 438.119 269.148 438.37 269.148 438.633C269.148 438.897 269.136 439.148 269.098 439.386C269.061 439.624 269.01 439.875 268.948 440.125C268.872 440.414 268.998 440.727 269.261 440.878L270.805 441.768L269.851 443.423L268.308 442.533C268.044 442.382 267.718 442.42 267.505 442.645C267.141 443.009 266.739 443.322 266.3 443.573C265.886 443.811 265.434 444 264.958 444.137C264.644 444.2 264.405 444.476 264.405 444.802V446.582H262.498V444.802C262.498 444.501 262.297 444.238 261.996 444.15C261.507 444.025 261.03 443.824 260.603 443.586C260.164 443.335 259.775 443.022 259.411 442.671C259.211 442.457 258.859 442.395 258.583 442.558L257.04 443.448L256.086 441.793L257.579 440.94C257.868 440.802 258.031 440.476 257.943 440.151C257.881 439.9 257.83 439.649 257.793 439.411C257.755 439.173 257.743 438.922 257.743 438.659C257.743 438.395 257.755 438.145 257.793 437.906C257.83 437.668 257.868 437.417 257.943 437.167C258.019 436.878 257.893 436.565 257.63 436.414L256.086 435.524L257.04 433.869L258.583 434.759C258.847 434.91 259.173 434.872 259.399 434.659C259.75 434.296 260.152 433.982 260.603 433.731V433.694ZM263.452 435.035C264.418 435.035 265.296 435.424 265.949 436.051L265.986 436.088C266.639 436.74 267.04 437.631 267.04 438.621C267.04 439.611 266.639 440.502 265.986 441.154C265.334 441.805 264.443 442.207 263.452 442.207C262.46 442.207 261.557 441.805 260.917 441.154C260.265 440.502 259.863 439.611 259.863 438.621C259.863 437.631 260.265 436.728 260.917 436.088C261.57 435.436 262.46 435.035 263.452 435.035ZM261.858 437.041C262.26 436.64 262.824 436.389 263.452 436.389C264.079 436.389 264.606 436.627 265.008 437.016L265.033 437.041C265.434 437.442 265.698 438.007 265.698 438.633C265.698 439.26 265.447 439.812 265.045 440.226C264.644 440.627 264.079 440.878 263.452 440.878C262.824 440.878 262.272 440.627 261.858 440.226C261.444 439.825 261.193 439.26 261.193 438.633C261.193 438.007 261.444 437.455 261.858 437.041Z" fill="#AEABBA"/>
<path fill-rule="evenodd" clip-rule="evenodd" d="M208.645 436.364C207.478 437.517 206.9 439.047 206.9 440.564C206.9 442.081 207.478 443.61 208.645 444.764L208.682 444.801C209.837 445.942 211.342 446.507 212.848 446.507C214.153 446.507 215.47 446.08 216.55 445.215L219.034 447.698C219.298 447.961 219.724 447.961 219.988 447.698C220.251 447.434 220.251 447.008 219.988 446.745L217.503 444.262C218.369 443.184 218.796 441.868 218.796 440.564C218.796 439.047 218.218 437.53 217.052 436.364C215.897 435.198 214.366 434.621 212.848 434.621C211.33 434.621 209.799 435.198 208.645 436.364ZM216.123 443.811L216.11 443.836C215.22 444.726 214.04 445.165 212.873 445.165C211.706 445.165 210.539 444.726 209.648 443.849L209.623 443.811C208.72 442.921 208.268 441.742 208.268 440.564C208.268 439.385 208.72 438.207 209.611 437.304C210.502 436.414 211.694 435.963 212.873 435.963C214.053 435.963 215.232 436.414 216.136 437.304C217.026 438.194 217.478 439.385 217.478 440.551C217.478 441.717 217.026 442.896 216.148 443.786L216.123 443.811Z" fill="#AEABBA"/>
<path d="M367.925 83.3262H207.766V101.869H367.925V83.3262Z" fill="#E4E1E8"/>
<path d="M367.925 104.914H207.766V107.422H367.925V104.914Z" fill="#E4E1E8"/>
<path d="M367.925 110.379H207.766V112.886H367.925V110.379Z" fill="#E4E1E8"/>
<path fill-rule="evenodd" clip-rule="evenodd" d="M94.4361 125.324C97.021 130.377 97.6609 129.737 98.3134 132.207C98.9533 134.677 98.8529 139.843 98.8529 139.843C98.8529 139.843 93.2566 137.26 92.83 136.294C92.4034 135.329 94.4487 125.324 94.4487 125.324H94.4361Z" fill="#FFC3B8"/>
<path fill-rule="evenodd" clip-rule="evenodd" d="M140.35 451.109C140.425 452.514 140.086 458.707 141.404 461.277C141.73 461.917 141.14 462.656 140.877 463.233C140.061 465.064 137.476 467.521 129.019 468.775C120.574 470.041 111.113 469.151 106.195 468.524C101.276 467.897 104.174 465.502 106.446 464.487C108.717 463.484 126.02 457.855 128.53 455.397C131.039 452.927 129.22 448.69 129.596 448C129.973 447.311 139.145 447.336 140.35 451.109Z" fill="#F6CBCF"/>
<path fill-rule="evenodd" clip-rule="evenodd" d="M130.486 249.731L127.939 253.429C127.939 253.429 121.916 319.426 122.28 340.1C122.631 360.775 126.558 363.984 126.734 384.834C126.91 405.696 129.055 445.791 128.88 450.793C128.704 455.783 137.977 454.718 140.649 452.574C143.322 450.43 145.995 380.621 145.292 370.228C144.589 359.822 146.534 345.266 148.856 335.637C151.177 326.008 165.444 272.712 165.444 258.808C165.444 244.904 130.486 249.718 130.486 249.718V249.731Z" fill="#2F2F2F"/>
<path fill-rule="evenodd" clip-rule="evenodd" d="M163.901 348.689C163.901 348.689 165.005 349.316 167.527 349.178C169.259 349.078 171.065 348.928 172.646 349.066C173.362 349.128 174.039 349.254 174.629 349.479C176.499 350.194 179.096 352.639 180.828 361.001C182.547 369.364 182.195 378.855 181.831 383.794C181.468 388.734 178.92 385.976 177.791 383.769C176.662 381.563 170.777 366.48 166.385 362.556C162.006 358.632 161.391 359.108 160.688 358.77C159.973 358.431 160.212 350.081 163.926 348.689H163.901Z" fill="#F6CBCF"/>
<path fill-rule="evenodd" clip-rule="evenodd" d="M168.179 238.572C171.015 240.653 182.948 247.825 183.274 250.47C189.975 304.381 118.126 308.606 108 323.639C106.294 326.184 164.001 343.21 165.682 344.539C167.364 345.868 165.607 358.944 163.537 360.398C161.466 361.853 91.5502 346.143 75.6521 336.49C75.6521 336.49 65.5763 328.829 75.1879 311.879C84.7995 294.928 129.331 266.593 132.355 263.033C135.379 259.472 140.311 255.097 138.366 248.953C136.421 242.81 168.167 238.572 168.167 238.572H168.179Z" fill="#2B2B2B"/>
<path fill-rule="evenodd" clip-rule="evenodd" d="M94.449 158.835L92.1025 158.071C92.1025 158.071 90.8352 154.798 89.3044 153.407C87.7736 152.015 85.1009 149.758 84.8876 146.574C84.6743 143.402 96.6197 141.684 96.6197 142.349C96.6197 143.013 101.626 147.853 101.162 149.871C100.698 151.877 99.0666 155.162 99.0666 155.162L94.4365 158.823L94.449 158.835Z" fill="#FFC3B8"/>
<path fill-rule="evenodd" clip-rule="evenodd" d="M135.603 158.599C135.603 158.599 120.634 193.203 117.698 196.776C114.762 200.349 101.862 162.072 99.0643 155.164C99.0643 155.164 93.6562 155.452 91.9121 157.158C91.9121 157.158 100.62 203.195 104.648 212.423C108.688 221.663 117.585 222.916 125.653 219.506C133.734 216.096 154.538 179.562 158.892 172.829C163.246 166.097 151.803 142.689 135.591 158.599H135.603Z" fill="#410EAD"/>
<path fill-rule="evenodd" clip-rule="evenodd" d="M145.129 127.944C140.035 131.517 131.101 134.815 128.428 149.346C123.535 175.975 134.1 218.214 124.877 254.133C124.375 256.077 125.894 255.675 126.609 255.5C127.324 255.324 142.544 255.161 157.552 256.027C172.559 256.892 183.187 252.729 186.637 249.946C186.637 249.946 188.394 248.003 187.879 246.222C181.417 224.37 180.288 202.442 182.283 180.062C184.768 152.417 177.164 94.6071 145.117 127.932L145.129 127.944Z" fill="#7B3FE4"/>
<path fill-rule="evenodd" clip-rule="evenodd" d="M143.547 143.127C143.547 143.127 135.366 185.253 132.969 189.942C130.572 194.618 106.882 155.226 102.089 148.23C102.089 148.23 96.1413 149.872 94.623 152.192C94.623 152.192 115.553 201.251 122.291 210.528C129.042 219.806 139.23 219.041 147.374 213.274C155.517 207.507 169.721 161.808 172.921 153.257C176.121 144.707 157.676 121.475 143.534 143.127H143.547Z" fill="#410EAD"/>
<path fill-rule="evenodd" clip-rule="evenodd" d="M76.8072 108.01C76.8072 108.01 74.8748 108.524 74.8246 109.878C74.7745 111.232 79.2038 142.124 79.7685 143.353C80.3331 144.569 80.8726 146.525 93.8219 145.121C93.8219 145.121 96.0805 144.695 96.5699 143.529C97.0592 142.363 93.9474 114.73 93.7843 111.508C93.6212 108.286 91.601 107.672 89.7439 107.496C87.8868 107.333 76.7946 108.01 76.7946 108.01H76.8072Z" fill="#2B2B2B"/>
<path fill-rule="evenodd" clip-rule="evenodd" d="M95.1784 153.757C95.1784 153.757 93.2585 151.926 88.8794 149.569C84.5002 147.212 81.9907 146.372 81.3633 144.818C80.899 143.652 81.7899 143.163 81.7523 142.874C81.7523 142.874 78.1009 141.658 80.8488 139.978C81.677 139.477 83.8729 140.104 84.7888 139.79C85.7048 139.477 83.3333 138.148 81.7899 137.847C80.2465 137.546 78.402 137.559 77.7495 137.157C77.0845 136.756 77.1849 135.891 77.3355 135.615C77.4735 135.339 78.7534 135.302 80.4348 135.164C82.1162 135.039 83.1074 134.901 84.6383 135.44C86.1691 135.979 87.7877 136.179 87.9885 136.129C88.1893 136.067 88.5657 134.813 88.0011 133.785C87.4364 132.757 85.2405 130.926 84.5002 130.4C83.7599 129.873 81.288 130.086 80.1462 129.673C79.0043 129.259 79.0796 127.88 80.4599 127.616C81.8276 127.353 83.3835 127.478 85.3786 127.554C87.3737 127.629 88.1893 128.832 90.749 130.487C93.2962 132.142 97.9389 135.227 99.2689 138.486C100.612 141.746 100.963 146.009 102.105 148.203C103.247 150.397 100.75 153.005 95.1909 153.744L95.1784 153.757Z" fill="#FFC3B8"/>
<path fill-rule="evenodd" clip-rule="evenodd" d="M163.573 365.25C166.171 367.532 172.52 377.286 172.57 384.332C172.62 391.378 178.417 388.908 178.417 388.908C178.417 388.908 180.99 390.337 182.169 388.745C183.336 387.153 185.695 372.609 184.528 365.451C183.349 358.292 181.68 350.017 182.809 344.049C183.938 338.081 176.372 338.934 174.628 340.363C174.628 340.363 166.861 339.486 164.677 340.551C162.494 341.617 162.921 344.801 164.765 346.745C166.597 348.688 166.371 354.267 165.016 356.298C160.323 356.16 160.135 362.228 163.573 365.25Z" fill="#D64C47"/>
<path fill-rule="evenodd" clip-rule="evenodd" d="M171.957 340.14C170.778 340.065 169.385 340.015 168.092 340.04C167.39 343.375 167.189 348.44 169.824 354.395C174.567 365.127 172.974 367.647 172.974 367.647L176.424 372.286C176.424 372.286 178.695 365.654 174.09 354.771C170.953 347.387 170.878 343.237 171.97 340.153L171.957 340.14Z" fill="white"/>
<path fill-rule="evenodd" clip-rule="evenodd" d="M178.43 388.908C178.43 388.908 181.002 390.337 182.182 388.745C183.349 387.153 185.708 372.609 184.541 365.451C183.361 358.292 181.692 350.017 182.822 344.049C183.951 338.081 176.385 338.934 174.641 340.363C174.779 352.512 179.748 355.082 180.726 370.014C181.705 384.934 178.43 388.908 178.43 388.908Z" fill="#151515"/>
<path fill-rule="evenodd" clip-rule="evenodd" d="M120.146 456.16C117.9 458.705 108.338 464.924 101.425 464.974C94.5107 465.024 96.9324 470.691 96.9324 470.691C96.9324 470.691 95.5271 473.223 97.0956 474.364C98.6515 475.518 112.918 477.825 119.932 476.671C126.947 475.518 135.065 473.875 140.925 474.979C146.785 476.082 145.944 468.685 144.539 466.967C144.539 466.967 145.392 459.37 144.35 457.226C143.309 455.082 140.185 455.508 138.277 457.301C136.37 459.094 130.899 458.868 128.917 457.552C129.055 452.963 123.095 452.775 120.146 456.135V456.16Z" fill="#D64C47"/>
<path fill-rule="evenodd" clip-rule="evenodd" d="M144.765 464.36C144.84 463.206 144.891 461.84 144.866 460.573C141.591 459.884 136.622 459.683 130.787 462.266C120.272 466.905 117.8 465.35 117.8 465.35L113.258 468.723C113.258 468.723 119.77 470.954 130.436 466.428C137.676 463.357 141.754 463.282 144.778 464.36H144.765Z" fill="white"/>
<path fill-rule="evenodd" clip-rule="evenodd" d="M96.9324 470.704C96.9324 470.704 95.5271 473.237 97.0956 474.378C98.6515 475.531 112.918 477.838 119.932 476.684C126.947 475.531 135.065 473.889 140.925 474.992C146.785 476.095 145.944 468.698 144.539 466.98C132.618 467.118 130.096 471.983 115.465 472.936C100.822 473.901 96.9324 470.692 96.9324 470.692V470.704Z" fill="#151515"/>
<path fill-rule="evenodd" clip-rule="evenodd" d="M136.746 113.65L135.541 118.339C144.161 114.754 143.81 124.232 144.224 128.934C144.412 131.04 162.418 125.16 164.978 119.042C161.967 115.08 162.895 114.528 157.914 103.733C156.383 100.411 152.92 97.8908 152.066 94.7941C152.066 94.7941 154.225 82.3946 152.342 79.8244C150.46 77.2668 143.747 79.0471 143.408 82.2692C143.057 85.5039 136.758 113.638 136.758 113.638L136.746 113.65Z" fill="#FFC3B8"/>
<path fill-rule="evenodd" clip-rule="evenodd" d="M114.112 77.3421C114.112 77.3421 113.209 88.3875 113.209 90.4437C113.209 92.4998 114.777 94.1046 115.091 96.9757C115.405 99.8468 114.552 105.677 114.614 107.156C114.677 108.648 117.839 108.222 118.617 109.124C118.705 109.225 123.498 117.587 123.561 117.788C124.151 119.581 125.606 122.778 132.031 120.396C137.363 118.415 143.637 110.955 147.904 105.677C148.782 104.598 147.577 98.267 148.531 97.9787C153.939 96.3112 152.847 82.2317 152.659 80.0878C152.471 77.9564 141.529 73.8567 139.609 72.6405C137.69 71.4244 116.898 69.7318 114.125 77.3421H114.112Z" fill="#FFC3B8"/>
<path fill-rule="evenodd" clip-rule="evenodd" d="M114.109 77.3429C114.109 77.3429 113.959 79.1358 113.783 81.4051C119.455 82.897 127.222 80.9537 129.305 80.5651C132.103 80.026 138.025 84.6523 139.958 87.7741C141.89 90.8959 141.037 78.4212 138.552 75.1865C137.423 73.7071 131.513 72.1399 125.264 71.8516C120.145 72.4157 115.339 73.9578 114.097 77.3429H114.109Z" fill="#FFC3B8"/>
<path fill-rule="evenodd" clip-rule="evenodd" d="M113.996 78.8343C113.996 78.8343 107.66 76.3143 106.756 68.6037C105.853 60.9058 108.927 52.5558 119.643 50.0358C130.359 47.5032 135.804 56.7809 146.633 56.6681C157.449 56.5553 161.276 58.624 159.946 68.4784C159.946 68.4784 166.885 71.2492 164.438 79.0976C161.992 86.946 156.734 99.3957 158.315 104.172C158.315 104.172 152.48 99.684 151.477 94.0296C151.477 94.0296 152.029 84.4511 149.331 83.5358C146.633 82.6331 144.538 84.8648 144.513 89.5287C144.487 94.1926 144.236 95.7849 143.383 96.5748C142.53 97.3646 141.903 97.3897 141.526 96.8255C141.15 96.2613 142.655 90.1807 139.33 86.783C136.005 83.3854 132.956 81.9436 132.266 79.1728C131.588 76.402 121.977 80.6522 113.996 78.8343Z" fill="#2B2B2B"/>
<path fill-rule="evenodd" clip-rule="evenodd" d="M244.92 72.8299L233.627 73.9457C233.363 73.9708 233.138 73.8579 233.037 73.6699L222.623 57.9981C222.673 58.5748 222.71 59.139 222.735 59.653C222.811 60.8064 222.836 61.7718 222.836 62.5241V74.4597C222.836 74.7481 222.547 75.0114 222.196 75.049L214.579 75.8012C214.228 75.8263 213.939 75.6257 213.939 75.3248V48.8457C213.939 48.5574 214.228 48.2941 214.579 48.2565L225.822 47.1532C226.086 47.1281 226.312 47.241 226.412 47.429L236.751 62.8375C236.726 62.3611 236.701 61.9098 236.676 61.4835C236.626 60.3676 236.601 59.4023 236.601 58.5999V46.6266C236.601 46.3257 236.889 46.0624 237.241 46.0248L244.907 45.2726C245.259 45.2475 245.547 45.4481 245.547 45.749V72.2155C245.547 72.5039 245.259 72.7797 244.907 72.8048L244.92 72.8299ZM358.352 53.1085C358.352 53.9736 358.214 54.8136 357.95 55.616C357.687 56.4184 357.285 57.1957 356.745 57.9354C356.206 58.6626 355.553 59.327 354.775 59.9539C354.01 60.5432 353.132 61.0948 352.14 61.5587L352.103 61.5838C351.124 62.0477 350.057 62.4238 348.916 62.7121C347.761 63.013 346.532 63.2262 345.239 63.3516C343.081 63.5522 341.262 63.6148 339.768 63.502C339.016 63.4393 338.263 63.339 337.485 63.1886C336.719 63.0507 335.929 62.8501 335.138 62.6118C334.912 62.5492 334.774 62.3736 334.774 62.173V55.7915C334.774 55.5031 335.063 55.2398 335.414 55.2022C335.54 55.2022 335.665 55.2022 335.753 55.2524C336.531 55.5031 337.321 55.7288 338.137 55.8918C338.965 56.0673 339.819 56.2303 340.697 56.3306H340.722C341.575 56.4434 342.391 56.4936 343.181 56.5187C343.959 56.5437 344.7 56.5187 345.415 56.4434C346.005 56.3807 346.506 56.293 346.933 56.1676C347.322 56.0548 347.623 55.9169 347.849 55.7664C348.062 55.5909 348.225 55.4279 348.338 55.2649C348.439 55.1019 348.489 54.9139 348.489 54.7133C348.489 54.5879 348.464 54.4751 348.426 54.3748C348.389 54.2619 348.326 54.1867 348.251 54.0989C348.163 54.0112 348.037 53.9234 347.887 53.8231C347.724 53.7228 347.523 53.6225 347.272 53.5097C347.021 53.4094 346.557 53.2464 345.879 53.0332C345.189 52.8326 344.26 52.5568 343.119 52.2434H343.081C342.039 51.9425 341.123 51.6416 340.346 51.3407C339.53 51.0273 338.852 50.7013 338.3 50.3628H338.275C337.736 50.0117 337.246 49.6356 336.845 49.2344C336.431 48.8207 336.092 48.3693 335.816 47.8804C335.552 47.3914 335.352 46.8398 335.214 46.263C335.076 45.6738 335.013 45.0344 335.013 44.3573C335.013 43.066 335.301 41.8749 335.866 40.7967C336.443 39.7185 337.309 38.7531 338.451 37.9006C339.58 37.0606 340.923 36.3835 342.466 35.882C343.997 35.3806 345.716 35.0295 347.636 34.8414C349.33 34.6785 351.036 34.6659 352.768 34.8164C354.487 34.9668 356.218 35.2928 357.975 35.7692C358.301 35.857 358.439 36.1579 358.301 36.4337L355.679 42.1884C355.553 42.4642 355.177 42.6397 354.863 42.5645H354.838C353.383 42.1508 352.027 41.8749 350.773 41.7119C349.543 41.5615 348.414 41.5364 347.385 41.6367C346.87 41.6869 346.444 41.7621 346.092 41.8624C345.766 41.9627 345.528 42.0755 345.339 42.2134C345.164 42.3514 345.026 42.4893 344.938 42.6397C344.863 42.7651 344.825 42.9155 344.825 43.0785C344.825 43.2415 344.875 43.392 344.976 43.5424C345.101 43.7054 345.289 43.8559 345.54 43.9812C345.829 44.1317 346.406 44.3573 347.247 44.6332C348.113 44.909 349.242 45.2475 350.672 45.6487C352.078 46.0374 353.27 46.4636 354.248 46.9401C355.265 47.4165 356.055 47.9556 356.632 48.5323L356.658 48.5574C357.222 49.1341 357.649 49.8111 357.937 50.5634C358.226 51.3282 358.364 52.1807 358.364 53.121L358.352 53.1085ZM320.181 65.4328L310.005 66.4358C309.691 66.4608 309.428 66.2978 309.378 66.0596L306.329 54.8136C306.253 54.5503 306.153 54.1992 306.04 53.7353C305.94 53.3341 305.814 52.77 305.651 52.0177L305.576 51.6792C305.45 52.2058 305.35 52.6822 305.262 53.0709V53.0959C305.137 53.6225 305.011 54.1365 304.873 54.6506C304.76 55.1019 304.271 56.9951 303.443 60.142L301.698 66.837C301.636 67.1003 301.372 67.2883 301.084 67.3259L290.907 68.3289C290.594 68.354 290.33 68.191 290.28 67.9528L282.413 42.2761C282.325 42.0003 282.538 41.6994 282.877 41.5866C282.927 41.5866 282.977 41.5615 283.027 41.5615L291.321 40.7466C291.635 40.7215 291.899 40.8845 291.949 41.1352L295.399 54.0488V54.0739C295.788 55.478 296.102 56.7067 296.366 57.7975C296.491 57.2082 296.629 56.5813 296.78 55.9043V55.8792C297.031 54.801 297.257 53.8106 297.482 52.933C297.708 52.0303 297.934 51.2153 298.147 50.5007L300.958 40.2075C301.021 39.9567 301.284 39.7686 301.573 39.7436L309.541 38.9537C309.867 38.9286 310.131 39.1042 310.168 39.3549L312.878 49.0589C313.117 49.8487 313.343 50.7013 313.581 51.5914C313.82 52.4941 314.045 53.4721 314.296 54.4876C314.422 55.0267 314.535 55.5157 314.635 55.9795C314.886 54.8763 315.187 53.5849 315.551 52.0929L319.09 38.4271C319.152 38.1764 319.416 37.9883 319.704 37.9507L327.999 37.1358C328.35 37.0982 328.638 37.3113 328.638 37.5997C328.638 37.6624 328.638 37.7125 328.613 37.7627L320.784 64.9689C320.708 65.2196 320.457 65.4077 320.169 65.4328H320.181ZM275.474 69.8209L256.552 71.6889C256.2 71.714 255.912 71.5134 255.912 71.2125V44.746C255.912 44.4451 256.188 44.1818 256.552 44.1568L275.474 42.2887C275.825 42.2636 276.114 42.4642 276.114 42.7651V48.5072C276.114 48.8081 275.825 49.0714 275.474 49.0965L265.799 50.0493V53.1461L274.708 52.2685C275.06 52.2434 275.348 52.444 275.348 52.7449V58.487C275.348 58.7754 275.06 59.0512 274.708 59.0888L265.799 59.9664V63.9032L275.474 62.9504C275.825 62.9253 276.114 63.1384 276.114 63.4268V69.2442C276.114 69.5325 275.825 69.8083 275.474 69.8334V69.8209Z" fill="#C7C3D1"/>
</svg>
