<svg width="497" height="313" viewBox="0 0 497 313" fill="none" xmlns="http://www.w3.org/2000/svg">
<path d="M30.8173 310.796C30.8173 310.796 -30.2001 236.748 20.4977 156.58C65.4809 85.4494 117.928 90.3116 156.406 119.177C172.794 131.47 220.045 120.692 260.26 48.3144C315.103 -50.3893 505.211 9.47458 470.55 161.332C453.774 234.821 521.601 237.492 487.041 310.951L30.8173 310.796Z" fill="#F5EFFF"/>
<path d="M301.727 272.525C301.727 272.525 290.105 257.35 301.011 247.711C301.011 247.711 308.977 242.314 315.472 242.751C315.472 242.751 306.268 260.023 309.246 261.742C312.224 263.46 318.262 241.667 318.262 241.667C318.262 241.667 336.388 239.701 342.221 242.837C342.221 242.837 326.725 257.03 329.989 257.876C333.253 258.721 349.991 244.79 349.991 244.79C349.991 244.79 366.861 248.003 365.963 259.523C365.062 271.04 359.25 274.598 356.694 274.292C354.138 273.986 339.193 267.6 338.868 269.944C338.543 272.286 347.54 279.944 353.838 280.303C353.838 280.303 341.943 294.985 334.039 290.748C326.135 286.511 325.46 279.794 320.532 277.276C315.604 274.755 311.399 274.762 313.433 277.331C315.468 279.9 324.386 282.397 327.203 287.975C330.022 293.556 332.549 297.318 324.372 295.939C316.192 294.561 302.898 287.864 302.315 280.194L301.731 272.525H301.727Z" fill="white"/>
<path d="M357.669 259.833C357.669 259.833 311.846 257.857 301.727 272.525C301.727 272.525 299.49 280.026 292.602 286.857L291.527 290.13C291.527 290.13 299.469 280.76 302.308 280.192C302.308 280.192 297.865 262.022 357.667 259.831L357.669 259.833Z" fill="white"/>
<path d="M292.601 286.857C292.601 286.857 282.766 294.997 282.083 309.544L283.867 309.723C283.867 309.723 287.009 294.682 292.686 288.801C298.363 282.919 292.601 286.857 292.601 286.857Z" fill="white"/>
<path d="M181.987 148.568C181.987 148.568 199.764 137.426 191.469 122.304C191.469 122.304 184.831 113.02 177.722 110.632C177.722 110.632 181.514 133.18 177.722 133.71C173.93 134.241 175.114 108.243 175.114 108.243C175.114 108.243 156.389 98.1622 149.04 98.9591C149.04 98.9591 160.655 120.977 156.861 120.446C153.069 119.916 140.032 97.6318 140.032 97.6318C140.032 97.6318 120.834 93.6521 117.752 106.386C114.67 119.119 119.648 125.487 122.491 126.282C125.335 127.078 143.588 126.812 143.112 129.464C142.638 132.117 130.313 136.363 123.439 133.974C123.439 133.974 131.025 154.931 140.98 153.87C150.935 152.809 154.017 145.911 160.179 145.381C166.342 144.85 170.846 146.708 167.764 148.563C164.683 150.421 154.253 149.173 149.276 153.907C144.298 158.645 140.268 161.561 149.514 163.685C158.757 165.807 175.35 164.482 178.668 156.523L181.985 148.563L181.987 148.568Z" fill="#3A4ACE"/>
<path d="M126.521 110.365C126.521 110.365 176.297 128.406 181.985 148.566C181.985 148.566 181.749 157.586 186.725 167.931V171.911C186.725 171.911 181.511 158.381 178.665 156.525C178.665 156.525 189.806 139.017 126.519 110.365H126.521Z" fill="white"/>
<path d="M186.726 167.934C186.726 167.934 194.403 180.98 190.028 196.862L188.053 196.269C188.053 196.269 189.97 178.777 185.954 169.979C181.939 161.182 186.728 167.936 186.728 167.936L186.726 167.934Z" fill="white"/>
<path d="M290.505 237.464C290.505 237.464 266.137 222.189 277.508 201.461C277.508 201.461 286.606 188.733 296.352 185.459C296.352 185.459 291.153 216.37 296.352 217.097C301.551 217.825 299.927 182.186 299.927 182.186C299.927 182.186 325.595 168.366 335.669 169.457C335.669 169.457 319.746 199.641 324.945 198.913C330.145 198.186 348.015 167.639 348.015 167.639C348.015 167.639 374.333 162.184 378.557 179.641C382.782 197.097 375.958 205.823 372.058 206.914C368.159 208.005 343.14 207.642 343.79 211.279C344.44 214.915 361.335 220.734 370.759 217.461C370.759 217.461 360.36 246.19 346.715 244.735C333.067 243.28 328.843 233.825 320.396 233.097C311.948 232.37 305.774 234.916 309.998 237.461C314.222 240.007 328.518 238.295 335.342 244.788C342.166 251.281 347.69 255.282 335.017 258.191C322.344 261.101 299.6 259.282 295.05 248.372L290.501 237.461L290.505 237.464Z" fill="#3A4ACE"/>
<path d="M366.54 185.096C366.54 185.096 298.305 209.824 290.507 237.464C290.507 237.464 290.832 249.829 284.008 264.01V269.465C284.008 269.465 291.157 250.918 295.056 248.374C295.056 248.374 279.784 224.373 366.54 185.096Z" fill="white"/>
<path d="M284.007 264.009C284.007 264.009 273.485 281.895 279.483 303.665L282.19 302.852C282.19 302.852 279.561 278.872 285.067 266.812C290.572 254.753 284.005 264.009 284.005 264.009H284.007Z" fill="white"/>
<path d="M61.3773 162.582C61.3773 162.582 57.1323 166.531 61.8098 171.549C61.8098 171.549 57.7967 173.117 56.4927 172.052C56.4927 172.052 56.7659 172.594 57.004 172.83C57.004 172.83 52.8935 173.247 51.1239 171.913C49.3543 170.578 49.2942 146.932 60.8536 148.869C60.8536 148.869 70.5006 147.458 70.2108 160.059C69.9211 172.661 73.5783 172.436 73.5783 172.436C73.5783 172.436 72.5889 173.059 72.0963 173.089C72.0963 173.089 71.3637 172.828 71.2001 172.392C71.2001 172.392 71.3761 173.08 71.5706 173.291C71.5706 173.291 67.6423 173.951 65.5912 172.404C63.538 170.856 60.9405 165.202 61.3773 162.58V162.582Z" fill="#293EB7"/>
<path d="M60.7583 169.02C60.7583 169.02 57.4613 165.504 56.0932 162.09C55.1183 159.653 50.4118 149.782 59.206 148.765C59.206 148.765 65.4856 148.434 68.1948 149.537C70.3494 150.415 73.6837 152.676 72.5536 161.763L72.4046 164.767L60.7563 169.023L60.7583 169.02Z" fill="#293EB7"/>
<path d="M50.7163 239.137C50.3396 228.77 49.5283 219.755 48.5555 213.468C47.0074 203.445 45.6124 197.677 45.5958 197.617C45.3909 196.734 42.4437 193.169 35.8909 193.278C29.3382 193.389 29.9591 198.066 29.9591 198.066C29.9591 198.223 29.9777 198.372 30.0067 198.481C30.0709 198.721 36.0855 223.132 35.8247 254.647C35.8206 255.09 35.7771 255.854 35.804 256.364C35.804 256.366 50.9895 256.802 50.9937 256.364C51.5235 253.61 51.2648 245.977 50.7143 239.134L50.7163 239.137Z" fill="#2E49D3"/>
<path d="M52.6248 254.495C52.6207 254.932 52.4137 255.285 52.1612 255.285H52.155C51.9025 255.278 51.7017 254.926 51.6976 254.495H38.6832C38.6791 254.932 38.4721 255.285 38.2196 255.285H38.2134C37.9567 255.278 37.7518 254.914 37.756 254.472C37.8305 245.449 37.371 237.026 36.6756 229.591C34.9453 211.047 31.7476 198.654 31.702 198.483C31.6731 198.372 31.6544 198.226 31.6544 198.066C31.6544 198.066 31.0335 193.389 37.5842 193.278C44.1369 193.167 47.0842 196.734 47.2891 197.617C47.3015 197.663 48.0901 200.929 49.1394 206.799C49.4871 208.743 49.8617 210.973 50.2488 213.468C51.2195 219.755 52.0308 228.773 52.4075 239.137C52.958 245.979 53.1505 251.74 52.6228 254.495H52.6248Z" fill="#D2E3FC"/>
<path d="M36.793 255.286H87.8136C87.8136 255.286 86.6256 249.905 57.0783 250.706C36.1679 251.274 36.793 255.286 36.793 255.286Z" fill="#C5DCF8"/>
<path d="M32.6407 311.495C38.556 277.978 37.0348 257.411 37.0285 257.151C37.0141 256.635 37.8626 256.167 38.32 256.151C38.7837 256.141 40.8244 255.998 41.0604 256.44C41.3708 257.019 42.5609 282.359 33.7439 311.495H32.6387H32.6407Z" fill="#D1E6FA"/>
<path d="M80.2781 311.495C74.3628 277.978 75.8841 257.411 75.8903 257.151C75.9048 256.635 75.0562 256.167 74.5988 256.151C74.1352 256.141 72.0944 255.998 71.8585 256.44C71.548 257.019 70.3579 282.359 79.1749 311.495H80.2802H80.2781Z" fill="#D1E6FA"/>
<path d="M89.7205 311.495C83.8052 277.978 85.3265 257.411 85.3327 257.151C85.3472 256.635 84.4986 256.167 84.0412 256.151C83.5776 256.141 81.5368 255.998 81.3009 256.44C80.9904 257.019 79.8003 282.359 88.6173 311.495H89.7226H89.7205Z" fill="#D1E6FA"/>
<path d="M42.1456 311.495C48.0609 277.978 46.5396 257.411 46.5334 257.151C46.5189 256.635 47.3675 256.167 47.8249 256.151C48.2885 256.141 50.3293 255.998 50.5652 256.44C50.8757 257.019 52.0658 282.359 43.2488 311.495H42.1436H42.1456Z" fill="#D1E6FA"/>
<path d="M35.8248 253.896H88.8448C88.8696 253.896 88.8903 253.92 88.8903 253.947V256.952C88.8903 256.98 88.8696 257.003 88.8448 257.003H35.8248C35.8 257.003 35.7793 256.98 35.7793 256.952V253.947C35.7793 253.92 35.8 253.896 35.8248 253.896Z" fill="#2E49D3"/>
<path d="M114.844 312.945C112.981 312.943 109.137 313.485 107.449 311.187C105.76 308.887 102.111 307.756 101.645 307.022C101.395 306.626 101.728 304.863 102.088 303.318C102.999 301.917 101.531 300.008 101.531 300.008L106.416 300.376C106.416 300.376 108.744 303.832 110.458 306.614C111.108 307.668 113.072 309.255 114.254 309.725C115.781 310.337 117.3 310.712 117.857 311.321C118.849 312.403 116.706 312.947 114.842 312.945H114.844Z" fill="#FC9490"/>
<path d="M114.844 312.944C112.981 312.941 109.138 313.483 107.449 311.185C105.76 308.885 102.111 307.755 101.645 307.02C101.395 306.624 101.382 305.024 102.088 303.316C102.088 303.316 105.166 304.722 106.902 307.426C108.639 310.127 113.265 311.301 114.24 309.745C114.244 309.74 114.248 309.733 114.252 309.726C115.779 310.338 117.299 310.713 117.855 311.322C118.847 312.404 116.705 312.948 114.84 312.946L114.844 312.944Z" fill="#932722"/>
<path d="M101.647 307.02L103.521 311.495L104.767 311.645L104.582 307.661L101.647 307.02Z" fill="#932722"/>
<path d="M65.0621 227.748C65.0621 227.748 92.2396 237.169 98.0865 242.608C103.936 248.049 108.009 302.011 108.009 302.011C108.009 302.011 107.311 302.484 105.881 302.449C104.552 302.414 101.764 301.128 101.764 301.128C101.764 301.128 89.8201 275.497 89.4786 269.432C89.1371 263.368 90.0084 258.128 87.6676 257.639C85.3267 257.151 55.4566 256.975 52.0394 247.558C48.6223 238.142 53.3144 230.007 53.3144 230.007L65.06 227.748H65.0621Z" fill="#163560"/>
<path d="M108.541 312.945C106.678 312.943 102.835 313.485 101.146 311.187C99.457 308.887 95.808 307.756 95.3424 307.022C95.0919 306.626 95.4251 304.863 95.7853 303.318C96.6959 301.917 95.2285 300.008 95.2285 300.008L100.113 300.376C100.113 300.376 102.441 303.832 104.155 306.614C104.805 307.668 106.769 309.255 107.949 309.725C109.476 310.337 110.996 310.712 111.552 311.321C112.544 312.403 110.402 312.947 108.539 312.945H108.541Z" fill="#FC9490"/>
<path d="M108.541 312.944C106.678 312.941 102.835 313.483 101.146 311.185C99.4572 308.885 95.8083 307.755 95.3426 307.02C95.0921 306.624 95.0797 305.024 95.7855 303.316C95.7855 303.316 98.8632 304.722 100.6 307.426C102.336 310.127 106.962 311.301 107.937 309.745C107.941 309.74 107.945 309.733 107.949 309.726C109.477 310.338 110.996 310.713 111.553 311.322C112.544 312.404 110.402 312.948 108.539 312.946L108.541 312.944Z" fill="#2C3A64"/>
<path d="M95.3418 307.02L97.2149 311.495L98.4629 311.645L98.2767 307.661L95.3418 307.02Z" fill="#2C3A64"/>
<path d="M57.9481 230.595C57.9481 230.595 85.9348 237.166 91.7838 242.605C97.6328 248.047 101.706 302.008 101.706 302.008C101.706 302.008 101.009 302.481 99.5784 302.446C98.2496 302.411 95.4617 301.126 95.4617 301.126C95.4617 301.126 83.5173 275.494 83.1758 269.43C82.8343 263.365 83.7057 258.126 81.3648 257.637C79.024 257.148 49.1538 256.972 45.7367 247.556C42.3196 238.139 47.0117 230.004 47.0117 230.004L57.946 230.595H57.9481Z" fill="#1C468A"/>
<path d="M68.4645 180.065C68.4976 180.081 65.2068 181.994 62.7293 181.237C60.4009 180.526 58.8776 177.146 58.9107 177.137C59.8979 176.917 60.1815 175.399 60.1608 168.881L60.6058 168.978L68.1044 170.639C68.1044 170.639 67.9347 173.28 67.9284 175.768C67.9243 177.857 68.0361 179.838 68.4645 180.062V180.065Z" fill="#FC9490"/>
<path d="M68.1041 170.642C68.1041 170.642 67.9343 173.282 67.9281 175.77C63.7328 175.638 61.5141 171.353 60.6055 168.979L68.1041 170.639V170.642Z" fill="#FF8585"/>
<path d="M69.506 172.998C69.506 172.998 59.5775 173.181 59.5713 166.26C59.5651 159.338 58.2778 154.7 64.6173 154.29C70.9548 153.88 72.1904 156.521 72.6933 158.831C73.1984 161.14 72.0869 172.771 69.506 172.998Z" fill="#FC9490"/>
<path d="M46.3579 209.958C45.3789 205.362 48.7091 196.444 52.1862 189.061C55.3405 182.369 58.6168 176.941 58.9107 177.136C67.231 182.663 67.9844 178.067 67.9844 178.067C67.9844 178.067 75.543 179.191 77.6831 183.314C80.3385 188.429 83.2051 202.726 86.0551 205.431C85.6184 206.93 85.8046 207.727 86.2682 209.585C86.3676 209.983 86.4773 210.361 86.5973 210.72C87.0258 212.026 87.5639 213.085 88.0275 214.007C86.5787 214.991 83.7825 216.863 81.7232 215.517C78.5813 213.46 76.1328 207.196 74.7523 204.702C74.7461 204.692 74.742 204.683 74.7379 204.674C71.7409 223.666 75.8162 227.991 73.7527 229.993C71.5733 232.108 68.4604 228.985 61.6117 232.309C57.1204 234.489 50.8864 237.644 46.689 238.19C44.4889 238.48 42.8456 238.052 42.3116 236.388C40.7552 231.554 48.2268 218.716 46.3579 209.955V209.958Z" fill="white"/>
<path d="M67.2988 168.802C67.2988 168.802 67.483 169.683 69.4389 169.546C69.4389 169.546 71.0802 169.432 71.0305 168.466C71.0305 168.466 69.4389 167.778 67.3009 168.802H67.2988Z" fill="white"/>
<path d="M40.8912 216.706C43.1162 213.208 45.4343 211.36 46.9596 210.431C46.6078 209.419 56.3189 196.095 56.3189 194.031C56.3189 191.967 58.9102 177.137 58.9102 177.137C58.9102 177.137 50.8197 177.695 48.0173 182.068C44.5132 187.538 37.2382 208.582 40.8912 216.706Z" fill="white"/>
<path d="M46.9599 210.432L63.1285 215.153L61.6114 218.201C61.6114 218.201 41.9346 218.048 40.8935 216.707C39.8504 215.366 46.962 210.432 46.962 210.432H46.9599Z" fill="#FC9490"/>
<path d="M74.752 204.705C76.1304 207.2 78.5809 213.464 81.7228 215.521C83.7821 216.866 86.5804 214.995 88.0271 214.01C87.5635 213.088 87.0254 212.03 86.5969 210.723C85.442 211.02 84.0305 211.397 83.1219 211.703C81.3523 212.303 74.752 204.705 74.752 204.705Z" fill="#163560"/>
<path d="M73.1028 202.221L64.4473 223.708L84.9644 225.876L93.0363 204.058L73.1028 202.221Z" fill="#2C3A64"/>
<path d="M93.0358 204.056L102.608 197.26L93.0358 220.688L84.9639 225.875C85.3944 224.71 93.0358 204.056 93.0358 204.056Z" fill="#3A4ACE"/>
<path d="M63.1289 215.152C63.1289 215.152 66.1176 213.679 66.8751 212.924C67.3635 212.437 67.3263 213.132 67.2808 213.322C67.1876 213.704 67.0655 214.471 66.1942 215.113C64.9399 216.037 63.1289 215.152 63.1289 215.152Z" fill="#FC9490"/>
<path d="M68.4975 151.805C68.4975 151.805 65.3287 161.747 60.7795 163.357C56.2302 164.967 54.7607 162.93 54.7607 162.93C54.7607 162.93 58.1468 159.567 58.6125 154.028C58.6125 154.028 66.02 147.667 68.4975 151.805Z" fill="#293EB7"/>
<path d="M67.7871 152.577C67.7871 152.577 70.13 154.444 70.7737 156.362C71.4174 158.278 71.8582 162.276 72.8972 162.077C72.8972 162.077 74.8655 155.834 72.1501 152.535C69.2711 149.038 67.7871 152.579 67.7871 152.579V152.577Z" fill="#293EB7"/>
<path d="M68.2182 152.856C68.2182 152.856 66.5355 162.393 60.8604 165.761C60.8604 165.761 66.401 159.625 66.5914 153.387C66.7818 147.146 68.2182 152.856 68.2182 152.856Z" fill="#293EB7"/>
<path d="M51.1259 171.912C52.8955 173.246 57.0059 172.829 57.0059 172.829C56.7659 172.593 56.4947 172.051 56.4947 172.051C58.9204 173.397 63.687 170.779 63.687 170.779C59.4689 170.795 59.4668 163.976 60.779 163.357C60.5928 158.261 60.9508 151.768 61.1412 148.845C60.957 148.856 60.8536 148.872 60.8536 148.872C49.2962 146.936 49.3563 170.582 51.1259 171.914V171.912Z" fill="#293EB7"/>
<path d="M63.1278 215.152C63.1278 215.152 68.3766 214.031 69.5357 214.316C70.6947 214.601 73.286 215.845 73.4785 216.113C73.6709 216.382 72.7251 216.533 72.0462 216.222C71.1749 215.824 69.7281 215.991 69.7281 215.991C69.7281 215.991 72.5181 217.015 73.2011 217.45C73.2694 217.494 73.2715 217.603 73.2053 217.652C73.0211 217.784 72.5719 217.828 71.9489 217.656C71.0548 217.411 69.4611 217.251 69.4611 217.251L72.6319 218.416C72.6713 218.43 72.6982 218.474 72.692 218.52C72.6713 218.692 72.3939 218.847 71.6323 218.798C71.0445 218.761 69.0969 218.203 69.0969 218.203L70.763 219.449C70.763 219.449 70.3035 219.741 69.4342 219.306C68.8382 219.007 67.0437 218.277 66.6091 218.328C66.1744 218.379 63.9536 219.062 62.9871 218.713C62.0205 218.36 61.6045 218.205 61.6045 218.205L63.1216 215.157L63.1278 215.152Z" fill="#FC9490"/>
<path d="M57.1401 311.492C57.6037 311.492 57.999 311.129 58.0776 310.631L62.6766 281.45L69.2934 239.483L71.1438 227.748L66.431 227.598L65.6135 234.41L59.8721 282.284L56.4695 310.661C56.4177 311.101 56.7303 311.492 57.1401 311.492Z" fill="#2E49D3"/>
<path d="M65.6133 234.41C68.6661 235.918 69.2932 239.483 69.2932 239.483L71.1436 227.748L66.4308 227.598L65.6133 234.41Z" fill="#97BADD"/>
<path d="M174.352 311.492C173.889 311.492 173.493 311.129 173.415 310.631L168.816 281.45L162.199 239.483L160.349 227.748L165.061 227.598L165.879 234.41L171.62 282.284L175.025 310.661C175.077 311.101 174.762 311.492 174.354 311.492H174.352Z" fill="#2E49D3"/>
<path d="M165.879 234.41C162.826 235.918 162.199 239.483 162.199 239.483L160.349 227.748L165.061 227.598L165.879 234.41Z" fill="#97BADD"/>
<path d="M51.2061 232.354L177.461 232.354C177.509 232.354 177.548 232.31 177.548 232.256V226.609C177.548 226.555 177.509 226.511 177.461 226.511L51.2061 226.511C51.1581 226.511 51.1191 226.555 51.1191 226.609V232.256C51.1191 232.31 51.1581 232.354 51.2061 232.354Z" fill="#2E49D3"/>
<path d="M306.342 238.317H283.298C282.66 238.317 282.139 237.733 282.139 237.02C282.139 236.306 282.66 235.723 283.298 235.723H306.342C306.979 235.723 307.501 236.306 307.501 237.02C307.501 237.733 306.979 238.317 306.342 238.317Z" fill="#D9E9FE"/>
<path d="M306.342 243.397H283.298C282.66 243.397 282.139 242.813 282.139 242.1C282.139 241.386 282.66 240.803 283.298 240.803H306.342C306.979 240.803 307.501 241.386 307.501 242.1C307.501 242.813 306.979 243.397 306.342 243.397Z" fill="#D9E9FE"/>
<path d="M311.193 24.112V303.371C311.193 307.682 308.091 311.222 304.264 311.33C304.202 311.33 304.142 311.33 304.08 311.33H179.309C175.397 311.33 172.195 307.749 172.195 303.369V24.112C172.195 19.7316 175.397 16.1504 179.309 16.1504H304.08C307.994 16.1504 311.193 19.7316 311.193 24.112Z" fill="#78ACEA"/>
<path d="M318.541 24.112V303.374C318.541 307.749 315.339 311.33 311.425 311.33H186.655C182.741 311.33 179.543 307.749 179.543 303.374V24.112C179.543 19.7316 182.741 16.1504 186.655 16.1504H311.425C315.339 16.1504 318.541 19.7316 318.541 24.112Z" fill="#AFCDFB"/>
<path opacity="0.4" d="M269.41 27.3215H233.276C232.502 27.3215 231.871 26.6127 231.871 25.7486C231.871 24.8823 232.504 24.1758 233.276 24.1758H269.41C270.184 24.1758 270.815 24.8846 270.815 25.7486C270.815 26.615 270.182 27.3215 269.41 27.3215Z" fill="#5E92DD"/>
<path opacity="0.4" d="M226.859 27.3215C226.085 27.3215 225.454 26.6127 225.454 25.7486C225.454 24.8823 226.087 24.1758 226.859 24.1758C227.633 24.1758 228.265 24.8846 228.265 25.7486C228.265 26.615 227.631 27.3215 226.859 27.3215Z" fill="#5E92DD"/>
<path d="M259.829 295.021C259.829 297.808 258.825 300.333 257.201 302.165C255.557 304.023 253.279 305.17 250.762 305.17C245.755 305.17 241.694 300.625 241.694 295.021C241.694 291.419 243.371 288.257 245.902 286.455C247.305 285.454 248.974 284.873 250.762 284.873C255.768 284.873 259.829 289.416 259.829 295.019V295.021Z" fill="#95C0F4"/>
<path d="M311.123 34.334H187.865V279.887H311.123V34.334Z" fill="#D2E3FC"/>
<path d="M257.201 302.167C255.557 304.025 253.279 305.172 250.762 305.172C245.755 305.172 241.694 300.627 241.694 295.023C241.694 291.421 243.371 288.259 245.902 286.457C246.792 290.777 249.425 298.005 257.201 302.167Z" fill="#8CBAF1"/>
<path d="M311.193 54.2207V150.819H193.795C192.481 150.819 191.404 149.54 191.404 147.977V57.0676C191.404 55.4994 192.483 54.2207 193.795 54.2207H311.193Z" fill="#C0D8FB"/>
<path d="M277.712 170.241V261.15C277.712 262.714 276.739 263.993 275.551 263.993H187.865V167.395H275.551C276.739 167.395 277.712 168.673 277.712 170.241Z" fill="#C0D8FB"/>
<path d="M365.133 49.0344V139.943C365.133 141.505 363.99 142.786 362.589 142.786H198.098C196.701 142.786 195.559 141.505 195.559 139.943V49.0344C195.559 47.4662 196.701 46.1875 198.098 46.1875H362.589C363.99 46.1875 365.133 47.4662 365.133 49.0344Z" fill="#FFFBF8"/>
<path d="M365.133 49.0344V139.943C365.133 141.507 363.804 142.788 362.177 142.788H280.347V46.1875H362.177C363.804 46.1875 365.133 47.4685 365.133 49.0344Z" fill="#699DEE"/>
<path d="M328.857 58.7589H298.064C297.557 58.7589 297.143 58.2956 297.143 57.7281C297.143 57.1606 297.557 56.6973 298.064 56.6973H328.857C329.364 56.6973 329.778 57.1606 329.778 57.7281C329.778 58.2956 329.364 58.7589 328.857 58.7589Z" fill="#D9E9FE"/>
<path d="M328.857 62.7374H298.064C297.557 62.7374 297.143 62.2741 297.143 61.7066C297.143 61.1391 297.557 60.6758 298.064 60.6758H328.857C329.364 60.6758 329.778 61.1391 329.778 61.7066C329.778 62.2741 329.364 62.7374 328.857 62.7374Z" fill="#D9E9FE"/>
<path d="M290.646 56.4746H293.535C293.556 56.4746 293.572 56.4931 293.572 56.5163V58.9416C293.572 58.9648 293.556 58.9833 293.535 58.9833H290.644C290.623 58.9833 290.606 58.9648 290.606 58.9416V56.5163C290.606 56.4931 290.623 56.4746 290.644 56.4746H290.646Z" fill="#D9E9FE"/>
<path d="M328.857 73.3976H298.064C297.557 73.3976 297.143 72.9343 297.143 72.3668C297.143 71.7992 297.557 71.3359 298.064 71.3359H328.857C329.364 71.3359 329.778 71.7992 329.778 72.3668C329.778 72.9343 329.364 73.3976 328.857 73.3976Z" fill="#D9E9FE"/>
<path d="M328.857 77.3761H298.064C297.557 77.3761 297.143 76.9128 297.143 76.3453C297.143 75.7777 297.557 75.3145 298.064 75.3145H328.857C329.364 75.3145 329.778 75.7777 329.778 76.3453C329.778 76.9128 329.364 77.3761 328.857 77.3761Z" fill="#D9E9FE"/>
<path d="M290.646 71.1113H293.535C293.556 71.1113 293.572 71.1299 293.572 71.153V73.5783C293.572 73.6015 293.556 73.62 293.535 73.62H290.644C290.623 73.62 290.606 73.6015 290.606 73.5783V71.153C290.606 71.1299 290.623 71.1113 290.644 71.1113H290.646Z" fill="#D9E9FE"/>
<path d="M328.857 87.8702H298.064C297.557 87.8702 297.143 87.4069 297.143 86.8394C297.143 86.2719 297.557 85.8086 298.064 85.8086H328.857C329.364 85.8086 329.778 86.2719 329.778 86.8394C329.778 87.4069 329.364 87.8702 328.857 87.8702Z" fill="#D9E9FE"/>
<path d="M328.857 91.8468H298.064C297.557 91.8468 297.143 91.3835 297.143 90.816C297.143 90.2484 297.557 89.7852 298.064 89.7852H328.857C329.364 89.7852 329.778 90.2484 329.778 90.816C329.778 91.3835 329.364 91.8468 328.857 91.8468Z" fill="#D9E9FE"/>
<path d="M290.646 85.584H293.535C293.556 85.584 293.572 85.6025 293.572 85.6257V88.051C293.572 88.0742 293.556 88.0927 293.535 88.0927H290.644C290.623 88.0927 290.606 88.0742 290.606 88.051V85.6257C290.606 85.6025 290.623 85.584 290.644 85.584H290.646Z" fill="#D9E9FE"/>
<path d="M283.911 160.686V251.595C283.911 253.161 282.767 254.44 281.369 254.44H116.879C115.477 254.44 114.335 253.159 114.335 251.595V160.686C114.335 159.122 115.477 157.844 116.879 157.844H281.367C282.767 157.844 283.909 159.122 283.909 160.686H283.911Z" fill="#FFFBF8"/>
<path d="M283.911 160.686V251.595C283.911 253.161 282.766 254.442 281.369 254.442H208.209V157.844H281.369C282.766 157.844 283.911 159.125 283.911 160.688V160.686Z" fill="#699DEE"/>
<path d="M136.404 173.611C131.367 173.611 127.283 178.182 127.283 183.82C127.283 189.458 131.367 194.028 136.404 194.028C141.442 194.028 145.526 189.458 145.526 183.82C145.526 178.182 141.442 173.611 136.404 173.611ZM142.721 184.147H136.404C136.243 184.147 136.113 184.001 136.113 183.82V176.217C136.113 176.037 136.243 175.891 136.404 175.891C136.566 175.891 136.696 176.037 136.696 176.217V183.493H142.723C142.885 183.493 143.015 183.639 143.015 183.82C143.015 184.001 142.885 184.147 142.723 184.147H142.721Z" fill="#FB7369"/>
<path d="M135.494 213.123C130.959 213.123 127.283 217.237 127.283 222.312C127.283 227.388 135.494 238.671 135.494 238.671C135.494 238.671 143.704 227.388 143.704 222.312C143.704 217.237 140.029 213.123 135.494 213.123ZM135.494 226.514C133.374 226.514 131.657 224.592 131.657 222.22C131.657 219.848 133.374 217.925 135.494 217.925C137.613 217.925 139.331 219.848 139.331 222.22C139.331 224.592 137.613 226.514 135.494 226.514Z" fill="#FB7369"/>
<path d="M181.601 218.779H151.718C150.961 218.779 150.34 218.084 150.34 217.236C150.34 216.388 150.961 215.693 151.718 215.693H181.601C182.358 215.693 182.979 216.388 182.979 217.236C182.979 218.084 182.358 218.779 181.601 218.779Z" fill="#D9E9FE"/>
<path d="M174.982 221.6H150.385C150.36 221.6 150.34 221.622 150.34 221.651V224.632C150.34 224.66 150.36 224.683 150.385 224.683H174.982C175.007 224.683 175.027 224.66 175.027 224.632V221.651C175.027 221.622 175.007 221.6 174.982 221.6Z" fill="#D9E9FE"/>
<path d="M181.601 182.41H151.718C150.961 182.41 150.34 181.715 150.34 180.867C150.34 180.019 150.961 179.324 151.718 179.324H181.601C182.358 179.324 182.979 180.019 182.979 180.867C182.979 181.715 182.358 182.41 181.601 182.41Z" fill="#D9E9FE"/>
<path d="M150.387 185.229H174.984C175.009 185.229 175.029 185.252 175.029 185.279V188.261C175.029 188.289 175.009 188.312 174.984 188.312H150.387C150.362 188.312 150.342 188.289 150.342 188.261V185.279C150.342 185.252 150.362 185.229 150.387 185.229Z" fill="#D9E9FE"/>
<path d="M283.908 201.378V185.723L254.098 171.973L208.208 182.538V203.687L234.247 215.575L234.276 215.587L283.908 201.385V201.378Z" fill="#FFB176"/>
<path d="M234.202 215.586V224.914L208.208 212.285V203.705L234.202 215.586Z" fill="#B25918"/>
<path d="M283.909 201.377L234.248 215.574L234.202 215.586V224.914L283.909 209.725V201.384V201.377Z" fill="#FB7369"/>
<path d="M347.222 81.5579C347.052 81.442 346.816 81.2915 346.533 81.1201L342.081 77.0524C342.081 77.0524 341.516 77.4137 342.081 78.1017C342.153 78.1897 342.252 78.3056 342.368 78.4399L340.669 76.9551C340.669 76.9551 340.369 77.291 340.563 77.8237C340.702 78.206 342.296 79.7279 343.192 80.5641C342.652 80.2745 341.894 79.6329 340.758 78.3565C340.05 77.5597 340.28 78.7596 340.388 79.2854C340.578 80.2143 342.791 83.3462 343.569 84.7569C344.347 86.1676 344.734 87.5598 344.19 86.9505C343.645 86.3413 340.692 84.3028 340.379 84.7569C340.069 85.2109 341.857 86.9505 342.712 88.3427C343.567 89.7349 344.5 92.0838 347.532 92.6073C350.564 93.1285 351.086 91.4143 351.086 91.4143C351.086 91.4143 348.621 82.5145 347.222 81.5579Z" fill="#FC9490"/>
<path d="M440.937 166.354C440.937 166.354 440.198 174.395 439.386 175.914C438.575 177.434 434.808 181.851 433.653 183.248C433.575 183.343 432.825 182.604 433.393 181.534C435.68 177.216 435.042 178.252 434.252 175.414C433.86 174.01 433.616 178.05 432.968 178.145C432.32 178.24 432.55 173.887 432.527 172.562C432.505 171.237 435.777 170.617 436.162 165.838C436.41 162.764 440.937 166.354 440.937 166.354Z" fill="#FC9490"/>
<path d="M418.412 83.8651C418.412 83.8651 412.439 116.675 379.57 127.396C369.31 130.743 345.999 92.9363 345.999 92.9363C345.999 92.9363 346.819 89.45 351.954 90.2515C351.954 90.2515 374.65 107.069 377.506 108.894C380.042 110.516 396.715 88.0555 404.317 84.4326C411.92 80.8097 418.412 83.8628 418.412 83.8628V83.8651Z" fill="#293EB7"/>
<path d="M457.654 290.126C457.654 290.126 461.731 294.291 460.937 297.249C460.14 300.209 456.462 302.18 455.963 305.799C455.466 309.415 453.477 311.388 451.687 311.388H443.151C443.151 311.388 441.833 308.842 445.016 308.076C448.199 307.309 449.398 303.058 449.199 299.113C449.001 295.169 449.497 289.908 449.497 289.908L456.261 288.154L457.654 290.128V290.126Z" fill="#293EB7"/>
<path d="M407.626 300.897C407.626 300.897 408.359 310.376 406.569 311.362L383.659 311.309C383.659 311.309 383.659 308.351 387.339 307.693C391.019 307.035 397.483 304.624 398.578 299.254C399.673 293.885 407.629 300.899 407.629 300.899L407.626 300.897Z" fill="#293EB7"/>
<path d="M388.285 167.008C388.285 167.008 389.494 183.622 390.914 203.594C392.845 230.724 395.165 264.049 395.395 270.361C395.792 281.322 397.386 298.858 397.386 298.858C397.386 298.858 401.163 303.023 408.724 301.267C408.724 301.267 415.461 276.235 417.385 249.749C417.414 249.316 417.445 248.878 417.474 248.44C419.265 221.479 422.048 164.703 422.048 164.703L388.285 167.006V167.008Z" fill="#FB7369"/>
<path d="M388.285 167.008C388.285 167.008 389.494 183.621 390.914 203.594L417.385 249.751C417.414 249.318 417.445 248.88 417.474 248.442C419.265 221.481 422.048 164.705 422.048 164.705L388.285 167.008Z" fill="#F2564B"/>
<path d="M393.803 168.979C393.803 168.979 415.584 229.151 429.905 257.428C444.225 285.705 448.702 293.597 448.702 293.597C448.702 293.597 456.906 289.981 457.654 287.514C457.654 287.514 452.177 232.922 442.586 219.617C437.167 212.097 430.801 189.531 430.503 181.639C430.205 173.746 428.564 158.129 428.564 158.129L393.805 168.979H393.803Z" fill="#FB7369"/>
<path d="M422.461 76.2519C422.461 76.2519 407.725 84.2112 399.229 81.2578C399.229 81.2578 401.319 78.3043 404.98 76.1083C404.686 74.1995 404.457 72.5433 404.326 71.1395C403.966 67.8988 403.966 66.0619 403.966 66.0619L409.652 61.056L415.043 56.2656C414.619 69.7334 422.461 76.2519 422.461 76.2519Z" fill="#FC9490"/>
<path d="M430.227 161.21C430.26 162.22 428.333 163.371 427.48 163.802C421.176 166.901 415.294 169.06 408.627 169.781C400.752 170.682 391.44 168.699 388.236 168.773C387.909 168.773 387.615 168.63 387.354 168.377C387.127 168.196 386.963 157.575 387.127 144.214C387.127 143.677 387.127 143.137 387.16 142.595V142.414C387.226 137.193 387.388 131.719 387.617 126.245C388.075 114.219 388.925 102.622 390.362 96.2128C392.092 88.6496 396.016 83.646 399.578 80.0069L402.517 77.1276C405.458 77.7739 408.563 77.5955 411.667 75.9022C415.066 74.0675 418.725 72.0847 419.313 72.5896C423.757 76.2265 426.764 84.3989 428.366 94.8437C428.372 94.897 428.382 94.9457 428.389 94.9989C429.287 100.971 429.736 107.651 429.705 114.649C429.705 117.244 429.639 119.908 429.508 122.537C428.852 134.446 429.291 145.048 429.722 152.394C429.806 153.846 429.891 155.169 429.966 156.35C430.096 158.439 430.193 160.059 430.227 161.21Z" fill="#2A4E96"/>
<path d="M429.721 152.392C405.293 120.826 420.447 97.884 420.447 97.884L428.389 95C429.287 100.972 429.736 107.652 429.705 114.65C429.705 117.245 429.639 119.909 429.508 122.538C428.852 134.447 429.291 145.049 429.721 152.395V152.392Z" fill="#293EB7"/>
<path d="M415.139 61.4141C415.139 61.4141 411.414 69.012 404.323 71.1362C403.963 67.8955 403.963 66.0586 403.963 66.0586L409.648 61.0527L415.137 61.4118L415.139 61.4141Z" fill="#F48484"/>
<path d="M401.371 65.8421C401.371 65.8421 415.429 68.4157 416.749 58.7422C418.07 49.0687 420.773 42.8862 411.852 40.8338C402.932 38.7814 400.68 42.182 399.527 45.2929C398.374 48.4039 397.747 64.9202 401.371 65.8398V65.8421Z" fill="#FC9490"/>
<path d="M421.86 39.675C421.988 39.5105 422.282 39.3785 422.936 39.3391C422.936 39.3391 422.412 38.9731 421.713 38.9523C421.576 37.933 421.092 36.1285 419.523 35.6884C419.523 35.6884 420.365 36.1911 420.475 37.2752C418.66 35.188 414.769 33.6685 403.994 34.6205C389.796 35.8737 394.475 46.0499 396.313 47.2637C398.151 48.4775 402.779 45.1511 406.204 45.4545C409.63 45.758 410.282 51.2989 411.443 52.0587C412.604 52.8185 412.149 51.475 413.72 50.6804C415.293 49.8859 415.442 52.8 414.986 54.6972C414.533 56.592 416.692 59.0938 416.692 59.0938L418.873 56.4623C421.057 53.8308 423.114 42.6864 422.121 40.312C422.034 40.1012 421.947 39.8904 421.858 39.675H421.86Z" fill="#2C3A64"/>
<path d="M419.305 72.5098C419.305 72.5098 428.201 77.2237 432.465 84.4719C439.079 95.7136 446.748 136.685 446.89 140.479C447.033 144.273 441.294 171.058 441.294 171.058C441.294 171.058 435.474 170.63 433.973 167.343C433.973 167.343 435.137 139.821 434.4 138.054C433.663 136.284 410.136 101.136 412.782 93.6381C415.427 86.1374 419.307 72.5144 419.307 72.5144L419.305 72.5098Z" fill="#2A4E96"/>
<path d="M439.389 175.914L435.179 183.797C435.179 183.797 434.676 183.561 434.754 182.995C434.833 182.433 436.052 178.163 436.052 178.163L439.389 175.914Z" fill="#FC9490"/>
<path d="M435.17 176.145C435.17 176.145 432.136 180.02 432.808 180.896L435 178.998L435.172 176.147L435.17 176.145Z" fill="#FC9490"/>
<path d="M245.279 185.741C245.279 185.741 244.011 185.468 242.833 186.258C242.833 186.258 244.452 186.869 245.279 185.741Z" fill="white"/>
<path d="M243.245 180.618C233.343 181.417 224.357 182.07 218.054 184.396C212.253 186.539 208.699 189.418 208.699 192.589C208.699 196.11 212.561 199.879 220.083 201.468C226.404 202.805 236.357 205.543 243.245 204.556C251.886 203.319 259.565 203.488 265.587 201.716L262.793 200.572L243.282 192.587L274.711 193.56L277.656 193.65C277.745 193.3 277.793 192.946 277.793 192.587C277.793 189.196 273.724 186.133 267.183 183.956C260.974 181.887 252.515 179.87 243.247 180.615L243.245 180.618Z" fill="#FFE4CC"/>
<path d="M274.712 193.561L243.283 192.588L262.794 200.573C260.857 201.064 258.74 201.483 256.475 201.819C252.46 202.414 247.813 202.007 243.283 202.746C235.772 203.971 228.842 201.159 223.285 200.448C217.298 199.681 211.028 195.662 211.711 192.588C212.421 189.394 216.476 185.694 223.747 184.608C229.209 183.79 236.416 181.902 243.792 181.902C249.782 181.902 254.809 183.568 259.644 183.899C268.767 184.52 274.856 188.907 274.856 192.59C274.856 192.919 274.809 193.241 274.714 193.563L274.712 193.561Z" fill="#F77548"/>
<path d="M226.697 191.484C226.697 191.834 226.034 192.116 225.219 192.116C224.403 192.116 223.743 191.834 223.743 191.484C223.743 191.134 224.403 190.852 225.219 190.852C226.034 190.852 226.697 191.134 226.697 191.484Z" fill="#2C3A64"/>
<path d="M235.677 188.443C235.677 188.793 235.017 189.075 234.201 189.075C233.386 189.075 232.724 188.793 232.724 188.443C232.724 188.093 233.384 187.811 234.201 187.811C235.019 187.811 235.677 188.093 235.677 188.443Z" fill="#2C3A64"/>
<path d="M230.135 186.769C230.135 187.056 229.591 187.29 228.918 187.29C228.246 187.29 227.701 187.056 227.701 186.769C227.701 186.482 228.246 186.248 228.918 186.248C229.591 186.248 230.135 186.482 230.135 186.769Z" fill="#2C3A64"/>
<path d="M241.14 185.476C241.14 185.796 240.534 186.057 239.784 186.057C239.035 186.057 238.429 185.798 238.429 185.476C238.429 185.154 239.035 184.895 239.784 184.895C240.534 184.895 241.14 185.154 241.14 185.476Z" fill="#2C3A64"/>
<path d="M241.139 191.485C241.139 191.99 240.181 192.403 239.001 192.403C237.822 192.403 236.863 191.993 236.863 191.485C236.863 190.978 237.822 190.57 239.001 190.57C240.181 190.57 241.139 190.98 241.139 191.485Z" fill="#2C3A64"/>
<path d="M245.786 188.136C245.786 188.486 245.126 188.769 244.309 188.769C243.491 188.769 242.833 188.486 242.833 188.136C242.833 187.787 243.493 187.504 244.309 187.504C245.124 187.504 245.786 187.787 245.786 188.136Z" fill="#2C3A64"/>
<path d="M252.625 188.456C252.625 188.63 252.294 188.771 251.886 188.771C251.479 188.771 251.147 188.63 251.147 188.456C251.147 188.282 251.479 188.139 251.886 188.139C252.294 188.139 252.625 188.28 252.625 188.456Z" fill="#2C3A64"/>
<path d="M249.525 185.739C249.525 185.913 249.194 186.057 248.786 186.057C248.378 186.057 248.047 185.915 248.047 185.739C248.047 185.563 248.378 185.422 248.786 185.422C249.194 185.422 249.525 185.563 249.525 185.739Z" fill="#2C3A64"/>
<path d="M241.14 195.931C241.14 196.104 240.809 196.248 240.401 196.248C239.993 196.248 239.662 196.107 239.662 195.931C239.662 195.755 239.993 195.613 240.401 195.613C240.809 195.613 241.14 195.755 241.14 195.931Z" fill="#2C3A64"/>
<path d="M246.196 197.37C246.196 197.544 245.864 197.685 245.457 197.685C245.049 197.685 244.718 197.544 244.718 197.37C244.718 197.196 245.049 197.053 245.457 197.053C245.864 197.053 246.196 197.194 246.196 197.37Z" fill="#2C3A64"/>
<path d="M235.011 194.893C235.011 195.287 234.264 195.609 233.343 195.609C232.422 195.609 231.675 195.289 231.675 194.893C231.675 194.497 232.422 194.18 233.343 194.18C234.264 194.18 235.011 194.499 235.011 194.893Z" fill="#2C3A64"/>
<path d="M225.439 195.069C225.439 195.069 224.344 194.759 223.282 195.382C223.282 195.382 224.667 196.005 225.439 195.069Z" fill="white"/>
<path d="M233.859 190.553C233.859 190.553 232.375 190.134 230.937 190.977C230.937 190.977 232.812 191.821 233.859 190.553Z" fill="white"/>
<path d="M249.835 188.15C249.835 188.15 248.305 188.155 247.097 189.371C247.097 189.371 249.1 189.67 249.835 188.15Z" fill="white"/>
<path d="M256.934 189.062C256.934 189.062 255.638 188.154 254.036 188.462C254.036 188.462 255.588 189.91 256.934 189.062Z" fill="white"/>
<path d="M245.563 191.653C245.563 191.653 244.841 190.453 243.51 190.078C243.51 190.078 244.265 191.792 245.563 191.653Z" fill="white"/>
<path d="M243.052 193.359C243.052 193.359 241.762 193.255 240.678 194.195C240.678 194.195 242.35 194.587 243.052 193.359Z" fill="white"/>
<path d="M244.263 198.724C244.263 198.724 243.204 197.894 241.842 198.08C241.842 198.08 243.096 199.375 244.263 198.724Z" fill="white"/>
<path d="M246.138 195.126C246.138 195.126 244.847 195.07 243.789 196.048C243.789 196.048 245.47 196.379 246.138 195.126Z" fill="white"/>
<path d="M240.231 188.492C240.231 188.492 238.973 188.168 237.771 188.909C237.771 188.909 239.368 189.586 240.231 188.492Z" fill="white"/>
<path d="M237.004 186.922C237.004 186.922 236.041 185.959 234.667 185.961C234.667 185.961 235.776 187.413 237.004 186.922Z" fill="white"/>
<path d="M227.436 195.862C225.985 196.274 225.256 197.108 225.817 197.715C226.239 198.171 227.173 198.074 228.228 197.824L228.764 198.403C228.839 198.484 229.056 198.505 229.247 198.449L230.275 198.157C230.466 198.104 230.563 197.993 230.489 197.914L229.957 197.337C230.929 197.02 231.532 196.689 231.095 196.216C230.534 195.609 228.887 195.45 227.436 195.862Z" fill="#FB7369"/>
<path d="M255.001 185.25C256.185 185.586 256.779 186.265 256.319 186.76C255.976 187.133 255.214 187.054 254.353 186.848L253.916 187.321C253.856 187.386 253.678 187.404 253.523 187.358L252.685 187.119C252.53 187.075 252.451 186.985 252.511 186.92L252.946 186.45C252.153 186.19 251.662 185.922 252.018 185.535C252.476 185.039 253.819 184.909 255.001 185.245V185.25Z" fill="#FB7369"/>
<path d="M238.114 193.283C239.298 193.619 239.892 194.297 239.432 194.793C239.087 195.166 238.327 195.087 237.466 194.881L237.03 195.354C236.97 195.419 236.792 195.437 236.636 195.393L235.798 195.154C235.643 195.11 235.564 195.02 235.624 194.955L236.059 194.485C235.266 194.226 234.776 193.957 235.132 193.57C235.589 193.074 236.932 192.945 238.114 193.28V193.283Z" fill="#FB7369"/>
<path d="M228.103 188.144C226.919 188.48 226.327 189.159 226.785 189.655C227.13 190.028 227.89 189.949 228.751 189.743L229.187 190.215C229.247 190.28 229.425 190.299 229.581 190.252L230.419 190.014C230.574 189.97 230.653 189.879 230.593 189.815L230.158 189.344C230.951 189.085 231.441 188.816 231.085 188.429C230.628 187.934 229.285 187.804 228.101 188.14L228.103 188.144Z" fill="#FB7369"/>
<path d="M279.616 192.555L252.49 191.716L248.787 190.561V191.601L269.958 200.266C276.35 198.385 280.636 195.671 281.414 192.611V191.571L279.616 192.555Z" fill="#FFE4CC"/>
<path d="M281.414 191.571C280.638 194.631 276.349 197.348 269.958 199.229L260.363 195.3L258.366 194.482L248.789 190.561L281.416 191.571H281.414Z" fill="#FF7D5A"/>
<path d="M259.641 192.431C259.641 192.781 258.981 193.064 258.165 193.064C257.35 193.064 256.689 192.781 256.689 192.431C256.689 192.081 257.35 191.799 258.165 191.799C258.981 191.799 259.641 192.081 259.641 192.431Z" fill="#2C3A64"/>
<path d="M261.202 194.728C261.202 194.981 260.86 195.196 260.363 195.298L258.366 194.48C258.59 194.253 259.115 194.096 259.726 194.096C260.541 194.096 261.202 194.378 261.202 194.728Z" fill="#2C3A64"/>
<path d="M266.481 194.874C266.481 195.047 266.15 195.191 265.742 195.191C265.334 195.191 265.003 195.05 265.003 194.874C265.003 194.698 265.334 194.559 265.742 194.559C266.15 194.559 266.481 194.7 266.481 194.874Z" fill="#2C3A64"/>
<path d="M270.444 193.063C270.444 193.237 270.112 193.381 269.705 193.381C269.297 193.381 268.966 193.239 268.966 193.063C268.966 192.887 269.297 192.746 269.705 192.746C270.112 192.746 270.444 192.887 270.444 193.063Z" fill="#2C3A64"/>
<path d="M262.943 192.585C262.943 192.759 262.611 192.902 262.204 192.902C261.796 192.902 261.465 192.761 261.465 192.585C261.465 192.409 261.796 192.268 262.204 192.268C262.611 192.268 262.943 192.409 262.943 192.585Z" fill="#2C3A64"/>
<path d="M266.722 192.031C266.722 192.318 266.178 192.552 265.505 192.552C264.832 192.552 264.288 192.318 264.288 192.031C264.288 191.744 264.832 191.51 265.505 191.51C266.178 191.51 266.722 191.744 266.722 192.031Z" fill="#2C3A64"/>
<path d="M265.507 193.721C265.507 193.916 265.138 194.073 264.685 194.073C264.232 194.073 263.863 193.916 263.863 193.721C263.863 193.527 264.232 193.369 264.685 193.369C265.138 193.369 265.507 193.527 265.507 193.721Z" fill="#2C3A64"/>
<path d="M254.705 191.798C254.705 191.925 254.462 192.03 254.162 192.03C253.862 192.03 253.62 191.925 253.62 191.798C253.62 191.671 253.862 191.566 254.162 191.566C254.462 191.566 254.705 191.671 254.705 191.798Z" fill="#2C3A64"/>
<path d="M260.968 192.631C260.968 192.631 259.907 192.633 259.068 193.479C259.068 193.479 260.459 193.685 260.968 192.631Z" fill="white"/>
<path d="M273.204 193.427C273.204 193.427 272.394 192.658 271.269 192.688C271.269 192.688 272.204 193.858 273.204 193.427Z" fill="white"/>
<path d="M263.553 194.725C263.553 194.725 262.723 193.986 261.597 194.058C261.597 194.058 262.567 195.193 263.553 194.725Z" fill="white"/>
<path d="M269.955 195.473C269.955 195.473 268.902 195.327 267.975 196.048C267.975 196.048 269.33 196.448 269.955 195.473Z" fill="white"/>
<path d="M253.689 191.088C253.689 191.088 252.77 190.861 251.9 191.407C251.9 191.407 253.068 191.889 253.689 191.088Z" fill="white"/>
<path d="M214.764 56.0426C210.379 56.7491 206.399 57.3282 203.606 59.3875C201.036 61.2824 199.463 63.8328 199.463 66.6357C199.463 69.7513 201.172 73.087 204.505 74.493C207.305 75.6744 211.714 78.0974 214.764 77.2265C218.591 76.1331 221.992 76.2813 224.66 74.7131L223.422 73.7008L214.781 66.6357L228.702 67.4951L230.006 67.5761C230.045 67.2657 230.066 66.953 230.066 66.6357C230.066 63.6359 228.263 60.9256 225.367 58.9983C222.617 57.1684 218.871 55.3824 214.766 56.0426H214.764Z" fill="#FFE4CC"/>
<path d="M228.702 67.4945L214.781 66.6351L223.422 73.7002C222.565 74.1357 221.626 74.5063 220.624 74.8028C218.846 75.3287 216.789 74.9696 214.781 75.6229C211.455 76.707 208.386 74.2191 205.923 73.5913C203.271 72.9126 200.494 69.3569 200.796 66.6374C201.111 63.8113 202.907 60.5382 206.126 59.5768C208.545 58.8541 211.737 57.1816 215.005 57.1816C217.658 57.1816 219.885 58.6572 222.025 58.9468C226.065 59.4981 228.762 63.3781 228.762 66.6374C228.762 66.9269 228.741 67.2142 228.7 67.4968L228.702 67.4945Z" fill="#F77548"/>
<path d="M207.435 65.6582C207.435 65.9663 207.143 66.2188 206.781 66.2188C206.419 66.2188 206.127 65.9686 206.127 65.6582C206.127 65.3478 206.421 65.0977 206.781 65.0977C207.141 65.0977 207.435 65.3478 207.435 65.6582Z" fill="#2C3A64"/>
<path d="M211.414 62.9688C211.414 63.2792 211.12 63.5294 210.759 63.5294C210.399 63.5294 210.105 63.2792 210.105 62.9688C210.105 62.6584 210.399 62.4082 210.759 62.4082C211.12 62.4082 211.414 62.6584 211.414 62.9688Z" fill="#2C3A64"/>
<path d="M208.958 61.4864C208.958 61.7412 208.716 61.9473 208.42 61.9473C208.124 61.9473 207.882 61.7412 207.882 61.4864C207.882 61.2316 208.124 61.0254 208.42 61.0254C208.716 61.0254 208.958 61.2316 208.958 61.4864Z" fill="#2C3A64"/>
<path d="M213.832 60.3424C213.832 60.6273 213.563 60.8566 213.232 60.8566C212.901 60.8566 212.632 60.6273 212.632 60.3424C212.632 60.0575 212.901 59.8281 213.232 59.8281C213.563 59.8281 213.832 60.0575 213.832 60.3424Z" fill="#2C3A64"/>
<path d="M213.832 65.6584C213.832 66.1055 213.408 66.4692 212.884 66.4692C212.361 66.4692 211.937 66.1055 211.937 65.6584C211.937 65.2113 212.361 64.8477 212.884 64.8477C213.408 64.8477 213.832 65.2113 213.832 65.6584Z" fill="#2C3A64"/>
<path d="M215.892 62.6993C215.892 63.0073 215.598 63.2598 215.238 63.2598C214.878 63.2598 214.584 63.0097 214.584 62.6993C214.584 62.3889 214.876 62.1387 215.238 62.1387C215.6 62.1387 215.892 62.3889 215.892 62.6993Z" fill="#2C3A64"/>
<path d="M218.92 62.9776C218.92 63.1328 218.773 63.2578 218.593 63.2578C218.413 63.2578 218.266 63.1328 218.266 62.9776C218.266 62.8224 218.413 62.6973 218.593 62.6973C218.773 62.6973 218.92 62.8224 218.92 62.9776Z" fill="#2C3A64"/>
<path d="M217.546 60.5752C217.546 60.7304 217.399 60.8555 217.219 60.8555C217.039 60.8555 216.892 60.7304 216.892 60.5752C216.892 60.42 217.039 60.2949 217.219 60.2949C217.399 60.2949 217.546 60.42 217.546 60.5752Z" fill="#2C3A64"/>
<path d="M213.833 69.5947C213.833 69.7499 213.686 69.875 213.506 69.875C213.326 69.875 213.179 69.7499 213.179 69.5947C213.179 69.4395 213.326 69.3145 213.506 69.3145C213.686 69.3145 213.833 69.4395 213.833 69.5947Z" fill="#2C3A64"/>
<path d="M216.072 70.8682C216.072 71.0234 215.925 71.1485 215.745 71.1485C215.565 71.1485 215.418 71.0234 215.418 70.8682C215.418 70.713 215.565 70.5879 215.745 70.5879C215.925 70.5879 216.072 70.713 216.072 70.8682Z" fill="#2C3A64"/>
<path d="M211.119 68.6715C211.119 69.0212 210.788 69.3038 210.38 69.3038C209.973 69.3038 209.642 69.0212 209.642 68.6715C209.642 68.3217 209.973 68.0391 210.38 68.0391C210.788 68.0391 211.119 68.3217 211.119 68.6715Z" fill="#2C3A64"/>
<path d="M206.878 68.8295C206.878 68.8295 206.394 68.5561 205.922 69.1074C205.922 69.1074 206.535 69.6588 206.878 68.8295Z" fill="white"/>
<path d="M210.608 64.8362C210.608 64.8362 209.952 64.4656 209.314 65.2115C209.314 65.2115 210.144 65.9574 210.608 64.8362Z" fill="white"/>
<path d="M217.684 62.707C217.684 62.707 217.007 62.7117 216.471 63.7888C216.471 63.7888 217.359 64.0529 217.684 62.707Z" fill="white"/>
<path d="M220.828 63.5129C220.828 63.5129 220.255 62.7091 219.545 62.9825C219.545 62.9825 220.232 64.2635 220.828 63.5129Z" fill="white"/>
<path d="M215.79 65.8086C215.79 65.8086 215.472 64.7476 214.882 64.4141C214.882 64.4141 215.217 65.9313 215.79 65.8086Z" fill="white"/>
<path d="M214.679 67.3173C214.679 67.3173 214.108 67.227 213.628 68.0586C213.628 68.0586 214.369 68.4061 214.679 67.3173Z" fill="white"/>
<path d="M215.216 72.0646C215.216 72.0646 214.746 71.3302 214.144 71.4947C214.144 71.4947 214.7 72.6414 215.216 72.0646Z" fill="white"/>
<path d="M216.047 68.8814C216.047 68.8814 215.476 68.8305 215.006 69.6968C215.006 69.6968 215.751 69.9887 216.047 68.8814Z" fill="white"/>
<path d="M213.431 63.0119C213.431 63.0119 212.874 62.7246 212.34 63.3802C212.34 63.3802 213.048 63.9778 213.431 63.0119Z" fill="white"/>
<path d="M212.001 61.6236C212.001 61.6236 211.574 60.7711 210.966 60.7734C210.966 60.7734 211.456 62.0591 212.001 61.6236Z" fill="white"/>
<path d="M207.762 69.5317C207.118 69.8954 206.798 70.6343 207.046 71.1718C207.232 71.5771 207.646 71.4914 208.114 71.2667L208.352 71.7787C208.385 71.8505 208.48 71.869 208.565 71.8204L209.02 71.5609C209.105 71.5123 209.147 71.415 209.116 71.3455L208.88 70.8359C209.31 70.5556 209.577 70.2614 209.383 69.8444C209.134 69.307 208.404 69.1657 207.762 69.5317Z" fill="#FB7369"/>
<path d="M219.971 60.1423C220.495 60.4388 220.758 61.0411 220.555 61.4789C220.402 61.8079 220.064 61.7384 219.684 61.5577L219.489 61.9746C219.462 62.0326 219.383 62.0465 219.315 62.0094L218.945 61.7986C218.876 61.7592 218.841 61.6804 218.868 61.6225L219.061 61.2079C218.709 60.9786 218.491 60.74 218.651 60.3995C218.854 59.9616 219.448 59.8458 219.971 60.1447V60.1423Z" fill="#FB7369"/>
<path d="M212.492 67.2513C213.016 67.5479 213.278 68.1501 213.076 68.5879C212.922 68.9169 212.585 68.8474 212.204 68.6667L212.01 69.086C211.983 69.1439 211.904 69.1578 211.836 69.1207L211.463 68.9099C211.395 68.8705 211.36 68.7918 211.387 68.7339L211.579 68.3192C211.227 68.0899 211.01 67.8513 211.169 67.5108C211.372 67.073 211.966 66.9572 212.49 67.256L212.492 67.2513Z" fill="#FB7369"/>
<path d="M208.057 62.7025C207.534 62.999 207.271 63.6013 207.474 64.0391C207.627 64.368 207.964 64.2985 208.345 64.1179L208.538 64.5371C208.565 64.5951 208.643 64.609 208.712 64.5719L209.084 64.3611C209.152 64.3217 209.188 64.2429 209.161 64.185L208.968 63.7704C209.32 63.5411 209.537 63.3025 209.38 62.962C209.177 62.5241 208.583 62.4083 208.06 62.7072L208.057 62.7025Z" fill="#FB7369"/>
<path d="M230.875 66.6027L218.86 65.8614L217.221 64.8398V65.7595L226.599 73.4269C229.43 71.7637 231.328 69.3615 231.671 66.6536V65.734L230.875 66.605V66.6027Z" fill="#FFE4CC"/>
<path d="M231.671 65.7317C231.328 68.4396 229.428 70.8418 226.596 72.5073L222.347 69.0326L221.464 68.3099L217.223 64.8398L231.673 65.734L231.671 65.7317Z" fill="#FF7D5A"/>
<path d="M222.027 66.4942C222.027 66.8023 221.733 67.0548 221.373 67.0548C221.013 67.0548 220.719 66.8046 220.719 66.4942C220.719 66.1838 221.011 65.9336 221.373 65.9336C221.735 65.9336 222.027 66.1838 222.027 66.4942Z" fill="#2C3A64"/>
<path d="M222.717 68.5251C222.717 68.7498 222.566 68.9397 222.347 69.03L221.463 68.3073C221.562 68.1058 221.794 67.9668 222.065 67.9668C222.425 67.9668 222.719 68.217 222.719 68.5251H222.717Z" fill="#2C3A64"/>
<path d="M224.729 68.9356C224.91 68.9356 225.056 68.8101 225.056 68.6553C225.056 68.5005 224.91 68.375 224.729 68.375C224.549 68.375 224.402 68.5005 224.402 68.6553C224.402 68.8101 224.549 68.9356 224.729 68.9356Z" fill="#2C3A64"/>
<path d="M226.811 67.0518C226.811 67.207 226.664 67.3321 226.484 67.3321C226.304 67.3321 226.157 67.207 226.157 67.0518C226.157 66.8966 226.304 66.7715 226.484 66.7715C226.664 66.7715 226.811 66.8966 226.811 67.0518Z" fill="#2C3A64"/>
<path d="M223.489 66.6338C223.489 66.789 223.342 66.9141 223.162 66.9141C222.982 66.9141 222.835 66.789 222.835 66.6338C222.835 66.4786 222.982 66.3535 223.162 66.3535C223.342 66.3535 223.489 66.4786 223.489 66.6338Z" fill="#2C3A64"/>
<path d="M225.163 66.1407C225.163 66.3955 224.921 66.6016 224.625 66.6016C224.329 66.6016 224.087 66.3955 224.087 66.1407C224.087 65.8858 224.327 65.6797 224.625 65.6797C224.923 65.6797 225.163 65.8858 225.163 66.1407Z" fill="#2C3A64"/>
<path d="M224.624 67.635C224.624 67.8064 224.461 67.9477 224.26 67.9477C224.059 67.9477 223.896 67.8087 223.896 67.635C223.896 67.4613 224.059 67.3223 224.26 67.3223C224.461 67.3223 224.624 67.4613 224.624 67.635Z" fill="#2C3A64"/>
<path d="M219.841 65.9327C219.841 66.0462 219.733 66.1389 219.601 66.1389C219.468 66.1389 219.36 66.0462 219.36 65.9327C219.36 65.8192 219.468 65.7266 219.601 65.7266C219.733 65.7266 219.841 65.8192 219.841 65.9327Z" fill="#2C3A64"/>
<path d="M222.614 66.6699C222.614 66.6699 222.144 66.6722 221.771 67.4204C221.771 67.4204 222.388 67.6034 222.614 66.6699Z" fill="white"/>
<path d="M228.035 67.3767C228.035 67.3767 227.677 66.6957 227.178 66.7235C227.178 66.7235 227.592 67.7589 228.035 67.3767Z" fill="white"/>
<path d="M223.759 68.5229C223.759 68.5229 223.39 67.8674 222.892 67.9322C222.892 67.9322 223.322 68.9353 223.759 68.5229Z" fill="white"/>
<path d="M226.596 69.1866C226.596 69.1866 226.131 69.0569 225.719 69.6939C225.719 69.6939 226.319 70.0484 226.596 69.1866Z" fill="white"/>
<path d="M219.389 65.3053C219.389 65.3053 218.982 65.1037 218.597 65.5879C218.597 65.5879 219.114 66.0141 219.389 65.3053Z" fill="white"/>
<path d="M253.233 84.0527C248.847 84.7592 244.867 85.3383 242.075 87.3953C239.505 89.2902 237.932 91.8406 237.932 94.6435C237.932 97.7591 239.641 101.095 242.973 102.501C245.774 103.682 250.182 106.105 253.233 105.234C257.06 104.141 260.461 104.289 263.128 102.721L261.891 101.709L253.25 94.6435L267.171 95.5029L268.474 95.584C268.514 95.2736 268.534 94.9608 268.534 94.6435C268.534 91.6437 266.732 88.9334 263.836 87.0062C261.086 85.1762 257.339 83.3902 253.235 84.0504L253.233 84.0527Z" fill="#FFE4CC"/>
<path d="M267.171 95.5023L253.25 94.6429L261.891 101.708C261.034 102.144 260.094 102.514 259.093 102.811C257.315 103.336 255.255 102.977 253.25 103.631C249.924 104.715 246.854 102.227 244.392 101.599C241.74 100.92 238.963 97.3647 239.265 94.6452C239.579 91.8191 241.376 88.546 244.594 87.5847C247.014 86.8619 250.205 85.1895 253.473 85.1895C256.127 85.1895 258.354 86.665 260.494 86.9546C264.534 87.5059 267.231 91.3859 267.231 94.6452C267.231 94.9347 267.21 95.222 267.169 95.5046L267.171 95.5023Z" fill="#F77548"/>
<path d="M245.905 93.666C245.905 93.9741 245.611 94.2266 245.251 94.2266C244.891 94.2266 244.597 93.9764 244.597 93.666C244.597 93.3556 244.891 93.1055 245.251 93.1055C245.611 93.1055 245.905 93.3556 245.905 93.666Z" fill="#2C3A64"/>
<path d="M249.883 90.9766C249.883 91.2847 249.589 91.5372 249.229 91.5372C248.869 91.5372 248.575 91.287 248.575 90.9766C248.575 90.6662 248.867 90.416 249.229 90.416C249.591 90.416 249.883 90.6662 249.883 90.9766Z" fill="#2C3A64"/>
<path d="M247.428 89.4942C247.428 89.749 247.186 89.9552 246.89 89.9552C246.594 89.9552 246.352 89.749 246.352 89.4942C246.352 89.2394 246.594 89.0332 246.89 89.0332C247.186 89.0332 247.428 89.2394 247.428 89.4942Z" fill="#2C3A64"/>
<path d="M252.302 88.3502C252.302 88.6351 252.033 88.8644 251.702 88.8644C251.371 88.8644 251.102 88.6351 251.102 88.3502C251.102 88.0653 251.371 87.8359 251.702 87.8359C252.033 87.8359 252.302 88.0653 252.302 88.3502Z" fill="#2C3A64"/>
<path d="M252.302 93.6662C252.302 94.1133 251.878 94.477 251.354 94.477C250.831 94.477 250.406 94.1133 250.406 93.6662C250.406 93.2192 250.831 92.8555 251.354 92.8555C251.878 92.8555 252.302 93.2192 252.302 93.6662Z" fill="#2C3A64"/>
<path d="M254.36 90.7071C254.36 91.0151 254.066 91.2676 253.706 91.2676C253.346 91.2676 253.052 91.0175 253.052 90.7071C253.052 90.3967 253.346 90.1465 253.706 90.1465C254.066 90.1465 254.36 90.3967 254.36 90.7071Z" fill="#2C3A64"/>
<path d="M257.06 91.2657C257.241 91.2657 257.387 91.1402 257.387 90.9854C257.387 90.8306 257.241 90.7051 257.06 90.7051C256.88 90.7051 256.733 90.8306 256.733 90.9854C256.733 91.1402 256.88 91.2657 257.06 91.2657Z" fill="#2C3A64"/>
<path d="M256.015 88.583C256.015 88.7382 255.868 88.8633 255.688 88.8633C255.508 88.8633 255.361 88.7382 255.361 88.583C255.361 88.4278 255.508 88.3027 255.688 88.3027C255.868 88.3027 256.015 88.4278 256.015 88.583Z" fill="#2C3A64"/>
<path d="M252.302 97.6026C252.302 97.7578 252.156 97.8828 251.975 97.8828C251.795 97.8828 251.648 97.7578 251.648 97.6026C251.648 97.4474 251.795 97.3223 251.975 97.3223C252.156 97.3223 252.302 97.4474 252.302 97.6026Z" fill="#2C3A64"/>
<path d="M254.215 99.1563C254.395 99.1563 254.542 99.0308 254.542 98.876C254.542 98.7212 254.395 98.5957 254.215 98.5957C254.034 98.5957 253.888 98.7212 253.888 98.876C253.888 99.0308 254.034 99.1563 254.215 99.1563Z" fill="#2C3A64"/>
<path d="M249.587 96.6793C249.587 97.0291 249.256 97.3117 248.848 97.3117C248.441 97.3117 248.109 97.0291 248.109 96.6793C248.109 96.3295 248.441 96.0469 248.848 96.0469C249.256 96.0469 249.587 96.3295 249.587 96.6793Z" fill="#2C3A64"/>
<path d="M245.348 96.8373C245.348 96.8373 244.863 96.564 244.392 97.1153C244.392 97.1153 245.004 97.6666 245.348 96.8373Z" fill="white"/>
<path d="M249.078 92.844C249.078 92.844 248.422 92.4734 247.784 93.2193C247.784 93.2193 248.614 93.9675 249.078 92.844Z" fill="white"/>
<path d="M256.153 90.7129C256.153 90.7129 255.476 90.7175 254.94 91.7947C254.94 91.7947 255.828 92.0587 256.153 90.7129Z" fill="white"/>
<path d="M259.298 91.5208C259.298 91.5208 258.725 90.717 258.015 90.9903C258.015 90.9903 258.702 92.2713 259.298 91.5208Z" fill="white"/>
<path d="M254.26 93.8144C254.26 93.8144 253.941 92.7535 253.352 92.4199C253.352 92.4199 253.687 93.9372 254.26 93.8144Z" fill="white"/>
<path d="M253.149 95.3251C253.149 95.3251 252.578 95.2348 252.098 96.0664C252.098 96.0664 252.839 96.4139 253.149 95.3251Z" fill="white"/>
<path d="M253.685 100.072C253.685 100.072 253.216 99.3381 252.613 99.5025C252.613 99.5025 253.17 100.649 253.685 100.072Z" fill="white"/>
<path d="M254.515 96.8892C254.515 96.8892 253.943 96.8383 253.474 97.7046C253.474 97.7046 254.219 97.9965 254.515 96.8892Z" fill="white"/>
<path d="M251.9 91.0195C251.9 91.0195 251.344 90.7322 250.81 91.3901C250.81 91.3901 251.517 91.9877 251.9 91.0195Z" fill="white"/>
<path d="M250.47 89.6294C250.47 89.6294 250.044 88.777 249.436 88.7793C249.436 88.7793 249.926 90.0649 250.47 89.6294Z" fill="white"/>
<path d="M246.232 97.5395C245.588 97.9032 245.267 98.6422 245.516 99.1796C245.702 99.585 246.116 99.4992 246.584 99.2745L246.822 99.7865C246.855 99.8583 246.95 99.8768 247.035 99.8282L247.49 99.5687C247.575 99.5201 247.619 99.4228 247.585 99.3533L247.349 98.8437C247.78 98.5634 248.047 98.2692 247.852 97.8523C247.604 97.3148 246.873 97.1735 246.232 97.5395Z" fill="#FB7369"/>
<path d="M258.44 88.1501C258.964 88.4466 259.226 89.0489 259.024 89.4867C258.87 89.8157 258.533 89.7462 258.152 89.5655L257.958 89.9825C257.931 90.0404 257.852 90.0543 257.784 90.0172L257.413 89.8064C257.345 89.767 257.31 89.6883 257.337 89.6304L257.529 89.2157C257.177 88.9864 256.96 88.7478 257.117 88.4073C257.32 87.9695 257.914 87.8536 258.438 88.1525L258.44 88.1501Z" fill="#FB7369"/>
<path d="M250.96 95.2572C251.484 95.5537 251.747 96.156 251.544 96.5938C251.391 96.9227 251.054 96.8532 250.673 96.6726L250.48 97.0918C250.453 97.1497 250.375 97.1636 250.306 97.1266L249.936 96.9158C249.868 96.8764 249.832 96.7976 249.859 96.7397L250.052 96.3251C249.7 96.0958 249.483 95.8572 249.642 95.5166C249.845 95.0788 250.439 94.963 250.962 95.2618L250.96 95.2572Z" fill="#FB7369"/>
<path d="M246.527 90.7103C246.004 91.0068 245.741 91.6091 245.944 92.0469C246.097 92.3759 246.434 92.3064 246.815 92.1257L247.009 92.545C247.036 92.6029 247.115 92.6168 247.183 92.5797L247.556 92.3689C247.624 92.3295 247.659 92.2508 247.632 92.1929L247.44 91.7782C247.792 91.5489 248.009 91.3103 247.852 90.9698C247.649 90.532 247.055 90.4161 246.531 90.715L246.527 90.7103Z" fill="#FB7369"/>
<path d="M269.343 94.6124L257.329 93.8712L255.689 92.8496V93.7692L265.067 101.437C267.899 99.7735 269.797 97.3713 270.14 94.6634V93.7438L269.343 94.6147V94.6124Z" fill="#FFE4CC"/>
<path d="M270.14 93.7414C269.797 96.4494 267.897 98.8515 265.065 100.517L260.814 97.0424L259.93 96.3196L255.689 92.8496L270.14 93.7438V93.7414Z" fill="#FF7D5A"/>
<path d="M260.495 94.5039C260.495 94.812 260.201 95.0645 259.841 95.0645C259.48 95.0645 259.187 94.8143 259.187 94.5039C259.187 94.1935 259.48 93.9434 259.841 93.9434C260.201 93.9434 260.495 94.1935 260.495 94.5039Z" fill="#2C3A64"/>
<path d="M261.186 96.5348C261.186 96.7595 261.035 96.9495 260.815 97.0398L259.932 96.3171C260.031 96.1155 260.263 95.9766 260.534 95.9766C260.894 95.9766 261.188 96.2267 261.188 96.5348H261.186Z" fill="#2C3A64"/>
<path d="M263.525 96.6651C263.525 96.8203 263.378 96.9453 263.198 96.9453C263.018 96.9453 262.871 96.8203 262.871 96.6651C262.871 96.5099 263.018 96.3848 263.198 96.3848C263.378 96.3848 263.525 96.5099 263.525 96.6651Z" fill="#2C3A64"/>
<path d="M265.28 95.0615C265.28 95.2167 265.133 95.3418 264.953 95.3418C264.773 95.3418 264.626 95.2167 264.626 95.0615C264.626 94.9063 264.773 94.7812 264.953 94.7812C265.133 94.7812 265.28 94.9063 265.28 95.0615Z" fill="#2C3A64"/>
<path d="M261.956 94.6416C261.956 94.7968 261.809 94.9219 261.629 94.9219C261.449 94.9219 261.302 94.7968 261.302 94.6416C261.302 94.4864 261.449 94.3613 261.629 94.3613C261.809 94.3613 261.956 94.4864 261.956 94.6416Z" fill="#2C3A64"/>
<path d="M263.63 94.1504C263.63 94.4052 263.39 94.6114 263.092 94.6114C262.794 94.6114 262.554 94.4052 262.554 94.1504C262.554 93.8956 262.796 93.6895 263.092 93.6895C263.388 93.6895 263.63 93.8956 263.63 94.1504Z" fill="#2C3A64"/>
<path d="M263.093 95.6467C263.093 95.8181 262.929 95.9594 262.729 95.9594C262.528 95.9594 262.364 95.8204 262.364 95.6467C262.364 95.473 262.528 95.334 262.729 95.334C262.929 95.334 263.093 95.473 263.093 95.6467Z" fill="#2C3A64"/>
<path d="M258.31 93.9425C258.31 94.056 258.202 94.1487 258.069 94.1487C257.937 94.1487 257.829 94.056 257.829 93.9425C257.829 93.829 257.937 93.7363 258.069 93.7363C258.202 93.7363 258.31 93.829 258.31 93.9425Z" fill="#2C3A64"/>
<path d="M261.083 94.6797C261.083 94.6797 260.613 94.682 260.24 95.4302C260.24 95.4302 260.857 95.6132 261.083 94.6797Z" fill="white"/>
<path d="M266.503 95.3845C266.503 95.3845 266.145 94.7035 265.646 94.7313C265.646 94.7313 266.06 95.7668 266.503 95.3845Z" fill="white"/>
<path d="M262.228 96.5327C262.228 96.5327 261.859 95.8772 261.36 95.942C261.36 95.942 261.791 96.945 262.228 96.5327Z" fill="white"/>
<path d="M265.062 97.1964C265.062 97.1964 264.596 97.0667 264.185 97.7037C264.185 97.7037 264.785 98.0581 265.062 97.1964Z" fill="white"/>
<path d="M257.858 93.3148C257.858 93.3148 257.452 93.1133 257.065 93.5997C257.065 93.5997 257.583 94.026 257.858 93.3148Z" fill="white"/>
<path d="M214.764 113.549C210.379 114.255 206.399 114.834 203.606 116.891C201.036 118.786 199.463 121.337 199.463 124.14C199.463 127.255 201.172 130.591 204.505 131.997C207.305 133.178 211.714 135.601 214.764 134.73C218.591 133.637 221.992 133.785 224.66 132.217L223.422 131.205L214.781 124.14L228.702 124.999L230.006 125.08C230.045 124.77 230.066 124.457 230.066 124.14C230.066 121.14 228.263 118.43 225.367 116.502C222.617 114.672 218.871 112.886 214.766 113.546L214.764 113.549Z" fill="#FFE4CC"/>
<path d="M228.702 125L214.781 124.141L223.422 131.206C222.565 131.639 221.626 132.01 220.624 132.309C218.846 132.835 216.789 132.473 214.781 133.129C211.455 134.213 208.386 131.725 205.923 131.097C203.271 130.418 200.494 126.863 200.796 124.143C201.111 121.317 202.907 118.044 206.126 117.083C208.545 116.36 211.737 114.688 215.005 114.688C217.658 114.688 219.885 116.163 222.025 116.453C226.065 117.004 228.762 120.884 228.762 124.143C228.762 124.433 228.741 124.72 228.7 125.003L228.702 125Z" fill="#F77548"/>
<path d="M207.435 123.166C207.435 123.474 207.143 123.727 206.781 123.727C206.419 123.727 206.127 123.476 206.127 123.166C206.127 122.856 206.421 122.605 206.781 122.605C207.141 122.605 207.435 122.856 207.435 123.166Z" fill="#2C3A64"/>
<path d="M211.414 120.475C211.414 120.783 211.12 121.035 210.759 121.035C210.399 121.035 210.105 120.785 210.105 120.475C210.105 120.164 210.399 119.914 210.759 119.914C211.12 119.914 211.414 120.164 211.414 120.475Z" fill="#2C3A64"/>
<path d="M208.958 118.992C208.958 119.247 208.716 119.453 208.42 119.453C208.124 119.453 207.882 119.247 207.882 118.992C207.882 118.737 208.124 118.531 208.42 118.531C208.716 118.531 208.958 118.737 208.958 118.992Z" fill="#2C3A64"/>
<path d="M213.832 117.85C213.832 118.133 213.563 118.364 213.232 118.364C212.901 118.364 212.632 118.135 212.632 117.85C212.632 117.565 212.901 117.336 213.232 117.336C213.563 117.336 213.832 117.565 213.832 117.85Z" fill="#2C3A64"/>
<path d="M213.832 123.166C213.832 123.613 213.408 123.977 212.884 123.977C212.361 123.977 211.937 123.613 211.937 123.166C211.937 122.719 212.361 122.355 212.884 122.355C213.408 122.355 213.832 122.719 213.832 123.166Z" fill="#2C3A64"/>
<path d="M215.892 120.205C215.892 120.513 215.598 120.766 215.238 120.766C214.878 120.766 214.584 120.516 214.584 120.205C214.584 119.895 214.876 119.645 215.238 119.645C215.6 119.645 215.892 119.895 215.892 120.205Z" fill="#2C3A64"/>
<path d="M218.92 120.483C218.92 120.639 218.773 120.764 218.593 120.764C218.413 120.764 218.266 120.639 218.266 120.483C218.266 120.328 218.413 120.203 218.593 120.203C218.773 120.203 218.92 120.328 218.92 120.483Z" fill="#2C3A64"/>
<path d="M217.546 118.081C217.546 118.236 217.399 118.361 217.219 118.361C217.039 118.361 216.892 118.236 216.892 118.081C216.892 117.926 217.039 117.801 217.219 117.801C217.399 117.801 217.546 117.926 217.546 118.081Z" fill="#2C3A64"/>
<path d="M213.833 127.101C213.833 127.256 213.686 127.381 213.506 127.381C213.326 127.381 213.179 127.256 213.179 127.101C213.179 126.945 213.326 126.82 213.506 126.82C213.686 126.82 213.833 126.945 213.833 127.101Z" fill="#2C3A64"/>
<path d="M216.072 128.374C216.072 128.529 215.925 128.654 215.745 128.654C215.565 128.654 215.418 128.529 215.418 128.374C215.418 128.219 215.565 128.094 215.745 128.094C215.925 128.094 216.072 128.219 216.072 128.374Z" fill="#2C3A64"/>
<path d="M210.38 126.812C210.789 126.812 211.119 126.529 211.119 126.179C211.119 125.83 210.789 125.547 210.38 125.547C209.972 125.547 209.642 125.83 209.642 126.179C209.642 126.529 209.972 126.812 210.38 126.812Z" fill="#2C3A64"/>
<path d="M206.878 126.337C206.878 126.337 206.394 126.064 205.922 126.615C205.922 126.615 206.535 127.167 206.878 126.337Z" fill="white"/>
<path d="M210.608 122.342C210.608 122.342 209.952 121.971 209.314 122.717C209.314 122.717 210.144 123.463 210.608 122.342Z" fill="white"/>
<path d="M217.684 120.213C217.684 120.213 217.007 120.218 216.471 121.295C216.471 121.295 217.359 121.559 217.684 120.213Z" fill="white"/>
<path d="M220.828 121.021C220.828 121.021 220.255 120.217 219.545 120.49C219.545 120.49 220.232 121.771 220.828 121.021Z" fill="white"/>
<path d="M215.79 123.314C215.79 123.314 215.472 122.253 214.882 121.92C214.882 121.92 215.217 123.437 215.79 123.314Z" fill="white"/>
<path d="M214.679 124.825C214.679 124.825 214.108 124.735 213.628 125.566C213.628 125.566 214.369 125.914 214.679 124.825Z" fill="white"/>
<path d="M215.216 129.57C215.216 129.57 214.746 128.838 214.144 129C214.144 129 214.7 130.147 215.216 129.57Z" fill="white"/>
<path d="M216.047 126.387C216.047 126.387 215.476 126.336 215.006 127.203C215.006 127.203 215.751 127.495 216.047 126.387Z" fill="white"/>
<path d="M213.431 120.518C213.431 120.518 212.874 120.23 212.34 120.886C212.34 120.886 213.048 121.484 213.431 120.518Z" fill="white"/>
<path d="M212.001 119.129C212.001 119.129 211.574 118.277 210.966 118.279C210.966 118.279 211.456 119.565 212.001 119.129Z" fill="white"/>
<path d="M207.762 127.037C207.118 127.401 206.798 128.14 207.046 128.677C207.232 129.083 207.646 128.997 208.114 128.775L208.352 129.286C208.385 129.358 208.48 129.377 208.565 129.328L209.02 129.069C209.105 129.02 209.147 128.923 209.116 128.853L208.88 128.344C209.31 128.063 209.577 127.769 209.383 127.352C209.134 126.815 208.404 126.674 207.762 127.04V127.037Z" fill="#FB7369"/>
<path d="M219.971 117.648C220.495 117.945 220.758 118.547 220.555 118.985C220.402 119.314 220.064 119.244 219.684 119.064L219.489 119.48C219.462 119.538 219.383 119.552 219.315 119.515L218.945 119.304C218.876 119.265 218.841 119.186 218.868 119.128L219.061 118.714C218.709 118.484 218.491 118.246 218.651 117.905C218.854 117.468 219.448 117.352 219.971 117.651V117.648Z" fill="#FB7369"/>
<path d="M212.492 124.757C213.016 125.054 213.278 125.656 213.076 126.094C212.922 126.423 212.585 126.353 212.204 126.173L212.01 126.592C211.983 126.65 211.904 126.664 211.836 126.627L211.463 126.416C211.395 126.376 211.36 126.298 211.387 126.24L211.579 125.825C211.227 125.596 211.01 125.357 211.169 125.017C211.372 124.579 211.966 124.463 212.49 124.762L212.492 124.757Z" fill="#FB7369"/>
<path d="M208.057 120.211C207.534 120.507 207.271 121.109 207.474 121.547C207.627 121.876 207.964 121.807 208.345 121.626L208.538 122.043C208.565 122.101 208.643 122.115 208.712 122.078L209.084 121.867C209.152 121.828 209.188 121.749 209.161 121.691L208.968 121.276C209.32 121.047 209.537 120.808 209.38 120.468C209.177 120.03 208.583 119.914 208.06 120.213L208.057 120.211Z" fill="#FB7369"/>
<path d="M230.875 124.11L218.86 123.369L217.221 122.348V123.27L226.599 130.937C229.43 129.274 231.328 126.872 231.671 124.164V123.244L230.875 124.115V124.11Z" fill="#FFE4CC"/>
<path d="M231.671 123.238C231.328 125.945 229.428 128.348 226.596 130.013L222.347 126.538L221.464 125.816L217.223 122.346L231.673 123.24L231.671 123.238Z" fill="#FF7D5A"/>
<path d="M221.373 124.561C221.734 124.561 222.027 124.31 222.027 124C222.027 123.69 221.734 123.439 221.373 123.439C221.012 123.439 220.719 123.69 220.719 124C220.719 124.31 221.012 124.561 221.373 124.561Z" fill="#2C3A64"/>
<path d="M222.717 126.033C222.717 126.258 222.566 126.448 222.347 126.538L221.463 125.815C221.562 125.614 221.794 125.475 222.065 125.475C222.425 125.475 222.719 125.725 222.719 126.033H222.717Z" fill="#2C3A64"/>
<path d="M224.729 126.441C224.91 126.441 225.056 126.316 225.056 126.161C225.056 126.006 224.91 125.881 224.729 125.881C224.549 125.881 224.402 126.006 224.402 126.161C224.402 126.316 224.549 126.441 224.729 126.441Z" fill="#2C3A64"/>
<path d="M226.484 124.84C226.665 124.84 226.811 124.714 226.811 124.56C226.811 124.405 226.665 124.279 226.484 124.279C226.304 124.279 226.157 124.405 226.157 124.56C226.157 124.714 226.304 124.84 226.484 124.84Z" fill="#2C3A64"/>
<path d="M223.489 124.138C223.489 124.293 223.342 124.418 223.162 124.418C222.982 124.418 222.835 124.293 222.835 124.138C222.835 123.983 222.982 123.857 223.162 123.857C223.342 123.857 223.489 123.983 223.489 124.138Z" fill="#2C3A64"/>
<path d="M225.163 123.647C225.163 123.901 224.921 124.108 224.625 124.108C224.329 124.108 224.087 123.901 224.087 123.647C224.087 123.392 224.327 123.186 224.625 123.186C224.923 123.186 225.163 123.392 225.163 123.647Z" fill="#2C3A64"/>
<path d="M224.624 125.145C224.624 125.316 224.461 125.457 224.26 125.457C224.059 125.457 223.896 125.318 223.896 125.145C223.896 124.971 224.059 124.832 224.26 124.832C224.461 124.832 224.624 124.971 224.624 125.145Z" fill="#2C3A64"/>
<path d="M219.841 123.441C219.841 123.554 219.733 123.647 219.601 123.647C219.468 123.647 219.36 123.554 219.36 123.441C219.36 123.327 219.468 123.234 219.601 123.234C219.733 123.234 219.841 123.327 219.841 123.441Z" fill="#2C3A64"/>
<path d="M222.614 124.178C222.614 124.178 222.144 124.18 221.771 124.928C221.771 124.928 222.388 125.111 222.614 124.178Z" fill="white"/>
<path d="M228.035 124.881C228.035 124.881 227.677 124.2 227.178 124.227C227.178 124.227 227.592 125.263 228.035 124.881Z" fill="white"/>
<path d="M223.759 126.029C223.759 126.029 223.39 125.373 222.892 125.438C222.892 125.438 223.322 126.441 223.759 126.029Z" fill="white"/>
<path d="M226.596 126.694C226.596 126.694 226.131 126.565 225.719 127.202C225.719 127.202 226.319 127.556 226.596 126.694Z" fill="white"/>
<path d="M219.389 122.811C219.389 122.811 218.982 122.609 218.597 123.096C218.597 123.096 219.114 123.52 219.389 122.811Z" fill="white"/>
<path d="M279.272 191.502C279.272 191.502 277.366 192.523 276.834 193.807C276.302 195.088 274.16 194.645 273.204 195.461C272.248 196.276 271.264 198.72 268.65 198.69V199.225L269.706 199.681C269.706 199.681 276.818 197.464 277.792 196.6C278.767 195.736 281.089 193.494 281.089 193.494L281.416 191.569L279.276 191.502H279.272Z" fill="#FFE4CC"/>
<path d="M238.054 245.185H217.348C216.883 245.185 216.504 244.759 216.504 244.24C216.504 243.719 216.885 243.295 217.348 243.295H238.054C238.519 243.295 238.898 243.721 238.898 244.24C238.898 244.761 238.517 245.185 238.054 245.185Z" fill="#D9E9FE"/>
<path d="M238.054 240.755H217.348C216.883 240.755 216.504 240.329 216.504 239.81C216.504 239.289 216.885 238.865 217.348 238.865H238.054C238.519 238.865 238.898 239.291 238.898 239.81C238.898 240.332 238.517 240.755 238.054 240.755Z" fill="#D9E9FE"/>
<path d="M226.603 90.7557H202.563C202.056 90.7557 201.64 90.2901 201.64 89.7226C201.64 89.1551 202.056 88.6895 202.563 88.6895H226.603C227.11 88.6895 227.526 89.1551 227.526 89.7226C227.526 90.2901 227.11 90.7557 226.603 90.7557Z" fill="#FB7369"/>
<path d="M226.603 94.9784H202.563C202.056 94.9784 201.64 94.5128 201.64 93.9452C201.64 93.3777 202.056 92.9121 202.563 92.9121H226.603C227.11 92.9121 227.526 93.3777 227.526 93.9452C227.526 94.5128 227.11 94.9784 226.603 94.9784Z" fill="#FB7369"/>
<path d="M226.603 99.201H202.563C202.056 99.201 201.64 98.7354 201.64 98.1679C201.64 97.6004 202.056 97.1348 202.563 97.1348H226.603C227.11 97.1348 227.526 97.6004 227.526 98.1679C227.526 98.7354 227.11 99.201 226.603 99.201Z" fill="#FB7369"/>
<path d="M267.709 60.6171H243.669C243.162 60.6171 242.746 60.1514 242.746 59.5839C242.746 59.0164 243.162 58.5508 243.669 58.5508H267.709C268.216 58.5508 268.632 59.0164 268.632 59.5839C268.632 60.1514 268.216 60.6171 267.709 60.6171Z" fill="#FB7369"/>
<path d="M267.709 64.8378H243.669C243.162 64.8378 242.746 64.3722 242.746 63.8046C242.746 63.2371 243.162 62.7715 243.669 62.7715H267.709C268.216 62.7715 268.632 63.2371 268.632 63.8046C268.632 64.3722 268.216 64.8378 267.709 64.8378Z" fill="#FB7369"/>
<path d="M267.709 69.0604H243.669C243.162 69.0604 242.746 68.5948 242.746 68.0273C242.746 67.4597 243.162 66.9941 243.669 66.9941H267.709C268.216 66.9941 268.632 67.4597 268.632 68.0273C268.632 68.5948 268.216 69.0604 267.709 69.0604Z" fill="#FB7369"/>
<path d="M267.709 120.537H243.669C243.162 120.537 242.746 120.071 242.746 119.504C242.746 118.936 243.162 118.471 243.669 118.471H267.709C268.216 118.471 268.632 118.936 268.632 119.504C268.632 120.071 268.216 120.537 267.709 120.537Z" fill="#FB7369"/>
<path d="M267.709 124.76H243.669C243.162 124.76 242.746 124.294 242.746 123.726C242.746 123.159 243.162 122.693 243.669 122.693H267.709C268.216 122.693 268.632 123.159 268.632 123.726C268.632 124.294 268.216 124.76 267.709 124.76Z" fill="#FB7369"/>
<path d="M267.709 128.982H243.669C243.162 128.982 242.746 128.517 242.746 127.949C242.746 127.382 243.162 126.916 243.669 126.916H267.709C268.216 126.916 268.632 127.382 268.632 127.949C268.632 128.517 268.216 128.982 267.709 128.982Z" fill="#FB7369"/>
<path d="M333.46 123.726H310.439C306.651 123.726 303.553 120.258 303.553 116.019C303.553 111.78 306.651 108.312 310.439 108.312H333.46C337.248 108.312 340.346 111.78 340.346 116.019C340.346 120.258 337.248 123.726 333.46 123.726Z" fill="#FB7369"/>
<path d="M317.548 113.802C317.548 113.802 321.919 120.647 321.907 120.392C321.894 120.135 326.352 110.668 326.352 110.668L321.205 116.251L317.548 113.804V113.802Z" fill="white"/>
<path d="M249.276 208.047L234.5 212.048L229.899 209.842L244.226 206.141L249.276 208.047Z" fill="#FFFBF8"/>
</svg>
