<svg width="271" height="283" viewBox="0 0 271 283" fill="none" xmlns="http://www.w3.org/2000/svg">
<path d="M71.828 245.501L71.252 244.356L142.557 208.206L147.844 7.85156L266.444 233.95L265.307 234.546L148.996 12.806L143.82 209.004L71.828 245.501Z" fill="#410EAD"/>
<path d="M147.794 1.25391C147.794 1.25391 143.698 152.953 142.332 208.079C142.332 208.079 218.968 208.185 262.67 226.56C218.914 110.948 220.56 107.569 147.794 1.25391Z" fill="#F8F3FF"/>
<path d="M171.924 47.2061C176.136 56.2466 180.728 64.953 185.526 73.6895C195.394 91.6484 204.481 110.021 213.646 128.342C224.034 149.108 235.008 169.649 245.19 190.551C217.586 117.365 209.678 99.6589 157.941 23.3516C158.042 23.5205 158.139 23.6879 158.244 23.8549C163.261 31.3619 167.828 39.1592 171.924 47.2061Z" fill="white"/>
<g style="mix-blend-mode:multiply">
<path d="M222.736 211.479C208.803 206.568 193.621 202.124 181.734 193.029C154.043 171.84 156.041 134.572 155.839 103.226C155.63 70.4126 159.122 35.6758 148.836 3.9985C148.425 3.40173 148.025 2.81755 147.61 2.21094C147.61 2.21094 143.517 153.474 142.151 208.444C142.151 208.444 209.393 208.538 253.798 223.621C243.783 218.757 233.396 214.697 222.736 211.479Z" fill="#E9E9EA"/>
</g>
<g style="mix-blend-mode:multiply">
<path d="M241.51 172.325C241.313 171.808 241.118 171.301 240.928 170.792C209.301 161.279 176.288 157.215 143.3 158.774C143.288 159.203 143.276 159.631 143.269 160.06C176.477 158.468 209.711 162.617 241.51 172.325Z" fill="#410EAD"/>
<path d="M220.851 121.991C220.615 121.484 220.382 120.979 220.145 120.474C195.464 114.069 170.059 110.89 144.561 111.015L144.526 112.294C170.283 112.158 195.946 115.418 220.851 121.991Z" fill="#410EAD"/>
<path d="M191.164 67.9248C176.237 64.8133 161.093 62.8599 145.866 62.082L145.831 63.3595C161.393 64.1516 176.867 66.1827 192.107 69.4336C191.796 68.9366 191.478 68.4297 191.164 67.9248Z" fill="#410EAD"/>
</g>
<path d="M149.576 232.097C149.576 232.323 149.537 232.547 149.462 232.756C149.386 232.965 149.275 233.154 149.136 233.314C148.996 233.474 148.831 233.601 148.649 233.687C148.467 233.773 148.272 233.818 148.074 233.818C147.878 233.818 147.683 233.773 147.501 233.687C147.319 233.6 147.154 233.474 147.014 233.314C146.875 233.154 146.765 232.964 146.69 232.755C146.615 232.547 146.576 232.323 146.576 232.097V1.71895C146.576 1.26305 146.734 0.825832 147.015 0.503467C147.296 0.181103 147.677 1.8473e-07 148.074 1.8473e-07C148.472 -0.000211024 148.854 0.180697 149.135 0.502994C149.417 0.825291 149.575 1.26262 149.576 1.71895V232.097Z" fill="#410EAD"/>
<path d="M148.633 194.929H39.0837C38.7443 194.929 38.4186 194.794 38.1786 194.553C37.9385 194.313 37.8037 193.987 37.8037 193.648C37.8037 193.308 37.9385 192.982 38.1786 192.742C38.4186 192.502 38.7443 192.367 39.0837 192.367H148.633C148.973 192.367 149.298 192.502 149.538 192.742C149.779 192.982 149.913 193.308 149.913 193.648C149.913 193.987 149.779 194.313 149.538 194.553C149.298 194.794 148.973 194.929 148.633 194.929Z" fill="#410EAD"/>
<path d="M148.848 2.20703C148.848 2.20703 65.5647 99.6362 41.2158 194.075C41.2158 194.075 79.6579 181.254 143.724 193.22C143.724 193.22 128.343 90.6625 148.848 2.20703Z" fill="#410EAD"/>
<g style="mix-blend-mode:color-dodge" opacity="0.7">
<path d="M59.1643 155.611C67.2927 139.54 73.6399 124.372 83.0728 109.036C92.4785 93.7457 102.052 78.4535 111.69 63.3145C116.569 55.6479 135.878 27.8436 138.611 21.4375C117.28 48.7211 70.0493 113.714 47.5889 180.644C47.7558 180.256 47.9306 179.865 48.0935 179.475C51.5135 171.398 55.2037 163.444 59.1643 155.611Z" fill="#CCDDF2"/>
</g>
<g style="mix-blend-mode:multiply">
<path d="M148.289 4.71094C140.858 19.5441 135.791 35.4483 133.271 51.8476C130.173 70.2139 128.993 88.8155 126.706 107.285C124.839 122.381 123.255 139.249 115.106 152.51C106.838 165.961 93.1618 171.486 78.7718 176.282C66.5906 180.343 51.5637 184.615 41.8203 193.9C46.8473 192.381 84.2217 182.118 143.723 193.233C143.724 193.232 128.639 92.5912 148.289 4.71094Z" fill="#82B2D5"/>
</g>
<path d="M39.9326 244.086L54.0279 223.574C54.0279 223.574 55.3126 218.018 65.5607 216.734C75.8088 215.451 217.613 216.734 217.613 216.734C217.613 216.734 227.007 216.309 227.007 222.719V251.778L39.9326 244.086Z" fill="#F8F3FF" fill-opacity="0.1"/>
<path d="M37.9566 219.992H35.0762V233.454H37.9566V219.992Z" fill="#DBC4FC"/>
<path d="M63.4045 219.988H60.5205V233.45H63.4045V219.988Z" fill="#DBC4FC"/>
<path d="M88.8473 219.988H85.9629V233.45H88.8473V219.988Z" fill="#DBC4FC"/>
<path d="M114.291 219.988H111.407V233.45H114.291V219.988Z" fill="#DBC4FC"/>
<path d="M139.731 219.988H136.851V233.45H139.731V219.988Z" fill="#DBC4FC"/>
<path d="M165.174 219.992H162.294V233.454H165.174V219.992Z" fill="#DBC4FC"/>
<path d="M190.619 219.992H187.734V233.454H190.619V219.992Z" fill="#DBC4FC"/>
<path d="M216.065 219.988H213.181V233.45H216.065V219.988Z" fill="#DBC4FC"/>
<path d="M33.7678 153.679C33.7678 153.679 23.8469 147.427 21.5871 146.177C19.3274 144.927 11.9835 139.106 11.7053 138.87C11.4274 138.635 11.6806 133.937 11.1085 134.078C10.5365 134.22 11.1038 136.489 10.4324 136.532C9.761 136.576 5.48578 132.632 5.314 133.028C4.99259 133.768 7.8384 135.541 7.62313 135.858C7.40774 136.176 4.82242 133.736 4.27178 134.134C3.72114 134.533 6.93398 136.218 6.89639 136.534C6.8588 136.851 3.66478 135.35 3.63386 136.041C3.61707 136.416 6.50617 137.307 6.25148 137.664C5.99683 138.021 3.68349 137.68 3.70597 138.115C3.72846 138.549 5.68159 138.142 6.71295 138.807C7.74421 139.472 8.8305 139.426 10.1636 140.959C11.4965 142.491 15.5633 148.432 19.1522 150.583C22.741 152.733 30.6582 157.507 30.6582 157.507L33.7678 153.679Z" fill="#FFCEB6"/>
<path d="M44.8154 155.18C44.8154 155.18 54.3868 148.406 56.5763 147.036C58.7657 145.666 65.787 139.46 66.0522 139.21C66.317 138.96 65.8124 134.282 66.3912 134.393C66.97 134.504 66.5252 136.799 67.1979 136.807C67.8707 136.814 71.9283 132.647 72.1211 133.033C72.4817 133.755 69.735 135.678 69.967 135.983C70.1991 136.288 72.6499 133.714 73.2211 134.082C73.7923 134.45 70.6745 136.305 70.7289 136.619C70.7834 136.933 73.8924 135.263 73.9603 135.952C73.9972 136.325 71.16 137.37 71.4335 137.713C71.7069 138.056 73.9987 137.591 73.9995 138.026C74.0003 138.461 72.0282 138.159 71.034 138.879C70.0399 139.599 68.9527 139.611 67.7037 141.213C66.4548 142.814 62.7124 148.964 59.244 151.305C55.7756 153.645 48.1258 158.836 48.1258 158.836L44.8154 155.18Z" fill="#FFCEB6"/>
<path d="M42.0426 225.211C42.0426 225.211 42.3643 228.714 42.3657 228.722C42.4544 229.165 42.7806 230.256 42.7948 230.661C42.8482 232.183 35.9773 229.606 37.4714 228.878C37.6067 228.813 38.5115 227.973 38.5385 227.454C38.5801 226.653 38.4989 225.384 38.4989 225.384L42.0426 225.211Z" fill="#F7A491"/>
<path d="M37.4878 228.862C37.4878 228.862 39.094 229.272 39.9125 229.36C40.7309 229.448 41.7702 228.43 42.3554 228.675C42.9996 228.944 43.1607 232.299 43.1607 232.299C43.1607 232.299 34.3655 232.747 32.2105 232.204C31.2422 231.96 34.2753 230.061 37.4878 228.862Z" fill="white"/>
<path d="M28.986 225.668C28.986 225.668 29.3077 229.171 29.3091 229.179C29.3978 229.622 29.724 230.713 29.7382 231.118C29.7916 232.64 22.9207 230.063 24.4148 229.336C24.5501 229.27 25.4549 228.43 25.4819 227.911C25.5235 227.11 25.4422 225.841 25.4422 225.841L28.986 225.668Z" fill="#F7A491"/>
<path d="M24.4309 229.319C24.4309 229.319 26.0372 229.729 26.8556 229.817C27.674 229.905 28.7133 228.887 29.2985 229.132C29.9427 229.401 30.0667 232.204 30.0667 232.204C30.0667 232.204 21.9799 232.747 19.825 232.204C18.8567 231.96 21.2184 230.518 24.4309 229.319Z" fill="white"/>
<path d="M38.5177 180.603C38.5177 180.603 29.1124 205.376 28.8098 207.589C28.5889 209.204 29.5881 227.455 29.5881 227.455L24.7339 227.547L22.2998 206.744L27.7626 180.207L38.5177 180.603Z" fill="#27272E"/>
<path d="M43.0665 181.597L39.3415 208.876L43.0328 226.908L37.5076 227.102L32.4848 207.747L31.1387 186.392L33.1363 179.434L43.0665 181.597Z" fill="#34343D"/>
<path d="M28.5407 149.879C28.5407 149.879 27.5199 155.382 26.6982 156.264C26.6982 156.264 31.1354 159.009 30.9748 160.164C30.8142 161.319 26.9635 182.943 26.9635 182.943C26.9635 182.943 36.6109 187.548 42.4747 186.545C42.4747 186.545 46.0548 161.944 47.1624 160.755C48.2701 159.567 51.7701 157.624 51.7701 157.624C51.7701 157.624 48.9263 152.601 48.8945 151.695C48.8945 151.695 42.6729 154.858 41.6423 155.964C40.6116 157.069 38.494 155.788 37.9886 155.595C37.9886 155.595 29.3172 150.316 28.5407 149.879Z" fill="black"/>
<path d="M40.633 151.019L41.6122 156.007C41.6122 156.007 39.6301 159.586 37.9268 159.122C36.4977 158.733 36.5225 155.962 36.5225 155.962C36.5225 155.962 37.1928 153.072 36.9115 151.647C36.6302 150.223 40.633 151.019 40.633 151.019Z" fill="#FFCEB6"/>
<path d="M36.9109 151.647C36.6296 150.223 40.6324 151.019 40.6324 151.019L40.7112 151.436C40.6199 151.698 40.4825 151.942 40.3054 152.156C39.4518 153.135 38.0856 153.753 36.8887 153.838C36.9815 153.062 37.0262 152.231 36.9109 151.647Z" fill="#F47458"/>
<path d="M41.0333 143.838C41.144 143.793 42.1346 149.569 40.6966 151.219C39.2588 152.868 36.3665 153.492 35.2784 152.271C34.0748 150.921 33.9143 144.681 36.1793 142.957C38.4444 141.233 41.0333 143.838 41.0333 143.838Z" fill="#FFCEB6"/>
<path d="M44.2789 143.637C45.6698 145.962 44.098 148.804 42.5044 150.119C40.9109 151.435 40.9959 152.889 40.9959 152.889L40.6994 152.144C40.4845 151.583 40.3934 150.981 40.4323 150.381C40.458 150.022 40.5217 149.632 40.6599 149.308C41.0243 148.454 39.7648 147.94 39.3927 147.253C39.1061 146.724 39.4123 144.454 37.1574 144.151C36.4916 144.061 35.1584 144.329 35.1584 144.329C33.8003 144.496 32.0418 141.189 34.9867 140.407C36.8887 139.523 41.8348 139.551 44.2789 143.637Z" fill="#32313B"/>
<path d="M39.5053 148.281C39.5182 148.989 39.8626 149.558 40.2744 149.55C40.6862 149.543 41.0096 148.962 40.9966 148.254C40.9836 147.545 40.6393 146.977 40.2275 146.984C39.8156 146.992 39.4923 147.572 39.5053 148.281Z" fill="#FFCEB6"/>
<path d="M35.7028 147.148C35.7028 147.36 35.8203 147.531 35.9652 147.531C36.1101 147.531 36.2275 147.36 36.2275 147.148C36.2275 146.937 36.1101 146.766 35.9652 146.766C35.8203 146.766 35.7028 146.937 35.7028 147.148Z" fill="#2B2B32"/>
<path d="M35.7033 146.594C35.7033 146.594 36.3958 146.504 36.5119 146.491C36.628 146.478 36.5382 146.392 36.3743 146.306C36.1863 146.213 35.9724 146.187 35.7678 146.233C35.6154 146.302 35.5269 146.568 35.7033 146.594Z" fill="#2B2B32"/>
<path d="M35.496 150.362C35.5486 150.359 35.6009 150.352 35.6529 150.343C35.7636 150.324 35.8725 150.295 35.9781 150.257C36.0827 150.219 36.1834 150.172 36.2787 150.115C36.3536 150.065 36.4037 150.032 36.4037 150.032C36.4139 150.025 36.4212 150.015 36.4243 150.003C36.4273 149.991 36.4258 149.978 36.42 149.968C36.4143 149.957 36.4047 149.948 36.3932 149.944C36.3817 149.94 36.369 149.94 36.3577 149.945L36.3515 149.948C36.3515 149.948 36.3002 149.969 36.2233 150.001C36.1285 150.035 36.0305 150.06 35.9308 150.076C35.8325 150.092 35.733 150.098 35.6335 150.096C35.5899 150.095 35.5462 150.092 35.5029 150.087C35.4664 150.086 35.431 150.1 35.4045 150.125C35.3781 150.15 35.3627 150.185 35.3618 150.221C35.3608 150.258 35.3744 150.293 35.3996 150.319C35.4248 150.346 35.4594 150.361 35.4959 150.362L35.496 150.362Z" fill="#2B2B32"/>
<path d="M8.32888 238.099C7.989 238.098 7.66324 237.963 7.4231 237.722C7.18296 237.481 7.04806 237.155 7.04806 236.815V225.279C7.0411 224.454 7.2055 223.637 7.53081 222.879C7.85613 222.122 8.33531 221.44 8.93789 220.877C9.54047 220.315 10.2533 219.884 11.0313 219.611C11.8092 219.339 12.6352 219.231 13.4569 219.295H232.56C234.13 219.264 235.682 219.626 237.076 220.347C238.471 221.067 239.663 222.125 240.546 223.424C242.203 226.748 246.419 233.506 246.461 233.572C246.554 233.715 246.617 233.874 246.647 234.041C246.677 234.208 246.673 234.38 246.636 234.546C246.599 234.711 246.53 234.868 246.432 235.007C246.334 235.146 246.21 235.263 246.066 235.353C245.922 235.444 245.762 235.504 245.594 235.532C245.427 235.559 245.255 235.553 245.09 235.514C244.925 235.475 244.77 235.403 244.632 235.303C244.495 235.203 244.379 235.077 244.291 234.932C244.113 234.65 239.967 228.005 238.251 224.57C236.931 221.934 232.609 221.861 232.56 221.861H13.4569C12.9735 221.799 12.4827 221.842 12.0173 221.987C11.5519 222.131 11.1227 222.373 10.7585 222.696C10.3942 223.02 10.1032 223.418 9.90519 223.863C9.70714 224.309 9.60655 224.791 9.61011 225.279V236.815C9.61048 236.984 9.5776 237.151 9.51336 237.306C9.44912 237.462 9.35476 237.604 9.23574 237.723C9.11671 237.842 8.97537 237.937 8.81976 238.001C8.66414 238.066 8.4973 238.099 8.32888 238.099Z" fill="#410EAD"/>
<path d="M8.48926 222.624C9.04937 221.666 9.88098 220.896 10.8788 220.411C11.8766 219.926 12.9958 219.749 14.0947 219.9H103.576L13.7727 220.461C11.798 220.47 9.90379 221.246 8.48926 222.624Z" fill="white"/>
<path d="M267.477 235.549H3.89652L3.20605 235.312C11.0109 250.119 20.6233 263.898 31.8227 276.333C37.1606 281.248 51.2555 281.998 51.2555 281.998H227.01C241.531 267.575 266.391 241.404 266.391 241.404L269.722 240.334C272.283 236.809 267.477 235.549 267.477 235.549Z" fill="#D3BAFF"/>
<g style="mix-blend-mode:screen">
<path d="M24.4897 262.638C28.0369 267.952 32.7504 272.385 38.2705 275.598C39.2254 276.051 40.1996 276.451 41.1821 276.835C39.9746 275.818 38.8146 274.782 37.7658 273.726C31.9683 267.601 26.7168 260.981 22.0713 253.94C17.975 248.078 14.3 241.931 11.0743 235.547H6.1377C11.3963 245.131 17.5405 254.201 24.4897 262.638Z" fill="#ABB4B4"/>
</g>
<g opacity="0.5">
<g style="mix-blend-mode:multiply">
<path d="M267.476 235.549H3.89555L3.20508 235.312C4.69541 238.222 6.40745 241.251 8.232 244.288H222.099C222.099 244.288 237.475 244.502 234.482 253.475C232.238 260.22 219.257 275.044 212.945 281.998H227.009C241.53 267.575 266.39 241.404 266.39 241.404L269.721 240.334C272.282 236.809 267.476 235.549 267.476 235.549Z" fill="#F8F3FF"/>
</g>
</g>
<path d="M271 236.48C271 237.111 270.876 237.737 270.635 238.32C270.393 238.904 270.039 239.434 269.593 239.88C269.146 240.327 268.617 240.681 268.033 240.923C267.45 241.164 266.825 241.288 266.194 241.288H4.8021C4.17121 241.288 3.54654 241.164 2.96376 240.922C2.38098 240.68 1.85149 240.326 1.40557 239.879C0.959643 239.433 0.606031 238.903 0.364864 238.319C0.123696 237.736 -0.000310387 237.111 5.83415e-07 236.48C-0.00020887 235.205 0.505543 233.983 1.40605 233.081C2.30655 232.18 3.52813 231.673 4.8021 231.672H266.194C266.825 231.672 267.45 231.796 268.033 232.038C268.616 232.279 269.146 232.634 269.592 233.08C270.039 233.526 270.393 234.056 270.634 234.64C270.876 235.223 271 235.848 271 236.48Z" fill="#7B3FE4"/>
<path d="M1.28418 236.815C1.28418 236.815 1.28416 232.168 8.01139 232.168H172.342L8.01139 233.288C8.01139 233.288 2.88342 232.969 1.28418 236.815Z" fill="white"/>
<path d="M107.838 263.45C108.344 263.45 108.758 263.377 109.078 263.23C109.411 263.07 109.664 262.864 109.838 262.61C110.024 262.344 110.151 262.044 110.218 261.71C110.284 261.364 110.318 261.01 110.318 260.65V260.29H112.958V260.65C112.958 262.317 112.518 263.604 111.638 264.51C110.771 265.404 109.504 265.85 107.838 265.85C106.238 265.85 104.971 265.364 104.038 264.39C103.104 263.417 102.638 261.997 102.638 260.13V257.01C102.638 256.117 102.758 255.317 102.998 254.61C103.238 253.89 103.584 253.29 104.038 252.81C104.491 252.317 105.038 251.944 105.678 251.69C106.318 251.424 107.038 251.29 107.838 251.29C108.664 251.29 109.398 251.41 110.038 251.65C110.678 251.89 111.211 252.237 111.638 252.69C112.078 253.144 112.404 253.69 112.618 254.33C112.844 254.97 112.958 255.69 112.958 256.49V256.85H110.318V256.49C110.318 256.157 110.278 255.824 110.198 255.49C110.118 255.157 109.984 254.857 109.798 254.59C109.611 254.324 109.358 254.11 109.038 253.95C108.718 253.777 108.318 253.69 107.838 253.69C107.398 253.69 107.018 253.777 106.698 253.95C106.378 254.11 106.111 254.337 105.898 254.63C105.684 254.91 105.524 255.244 105.418 255.63C105.324 256.004 105.278 256.397 105.278 256.81V260.33C105.278 260.784 105.324 261.204 105.418 261.59C105.511 261.964 105.658 262.29 105.858 262.57C106.058 262.85 106.318 263.07 106.638 263.23C106.971 263.377 107.371 263.45 107.838 263.45ZM125.204 260.73C125.204 261.557 125.064 262.29 124.784 262.93C124.504 263.557 124.124 264.09 123.644 264.53C123.164 264.957 122.61 265.284 121.984 265.51C121.37 265.737 120.724 265.85 120.044 265.85C119.364 265.85 118.71 265.737 118.084 265.51C117.47 265.284 116.924 264.957 116.444 264.53C115.964 264.09 115.584 263.557 115.304 262.93C115.024 262.29 114.884 261.557 114.884 260.73V260.49C114.884 259.677 115.024 258.957 115.304 258.33C115.584 257.69 115.964 257.15 116.444 256.71C116.924 256.27 117.47 255.937 118.084 255.71C118.71 255.484 119.364 255.37 120.044 255.37C120.724 255.37 121.37 255.484 121.984 255.71C122.61 255.937 123.164 256.27 123.644 256.71C124.124 257.15 124.504 257.69 124.784 258.33C125.064 258.957 125.204 259.677 125.204 260.49V260.73ZM120.044 263.45C120.404 263.45 120.744 263.39 121.064 263.27C121.384 263.15 121.664 262.977 121.904 262.75C122.144 262.524 122.33 262.25 122.464 261.93C122.61 261.597 122.684 261.224 122.684 260.81V260.41C122.684 259.997 122.61 259.63 122.464 259.31C122.33 258.977 122.144 258.697 121.904 258.47C121.664 258.244 121.384 258.07 121.064 257.95C120.744 257.83 120.404 257.77 120.044 257.77C119.684 257.77 119.344 257.83 119.024 257.95C118.704 258.07 118.424 258.244 118.184 258.47C117.944 258.697 117.75 258.977 117.604 259.31C117.47 259.63 117.404 259.997 117.404 260.41V260.81C117.404 261.224 117.47 261.597 117.604 261.93C117.75 262.25 117.944 262.524 118.184 262.75C118.424 262.977 118.704 263.15 119.024 263.27C119.344 263.39 119.684 263.45 120.044 263.45ZM130.25 265.57H127.73V255.65H130.25V257.13H130.61C130.837 256.57 131.203 256.137 131.71 255.83C132.217 255.524 132.81 255.37 133.49 255.37C133.97 255.37 134.417 255.45 134.83 255.61C135.257 255.757 135.63 255.99 135.95 256.31C136.27 256.63 136.517 257.037 136.69 257.53C136.877 258.024 136.97 258.61 136.97 259.29V265.57H134.45V259.93C134.45 259.224 134.277 258.67 133.93 258.27C133.597 257.857 133.11 257.65 132.47 257.65C131.723 257.65 131.163 257.904 130.79 258.41C130.43 258.904 130.25 259.57 130.25 260.41V265.57ZM139.696 255.65H142.636V251.57H145.156V255.65H148.736V258.05H145.156V262.57C145.156 262.97 145.336 263.17 145.696 263.17H148.376V265.57H144.176C143.723 265.57 143.349 265.424 143.056 265.13C142.776 264.837 142.636 264.464 142.636 264.01V258.05H139.696V255.65ZM158.642 264.13C158.375 264.757 158.002 265.204 157.522 265.47C157.042 265.724 156.482 265.85 155.842 265.85C155.242 265.85 154.675 265.737 154.142 265.51C153.622 265.284 153.162 264.95 152.762 264.51C152.362 264.07 152.042 263.537 151.802 262.91C151.575 262.284 151.462 261.57 151.462 260.77V260.45C151.462 259.664 151.575 258.957 151.802 258.33C152.029 257.704 152.335 257.17 152.722 256.73C153.109 256.29 153.555 255.957 154.062 255.73C154.582 255.49 155.135 255.37 155.722 255.37C156.429 255.37 156.995 255.49 157.422 255.73C157.862 255.97 158.209 256.344 158.462 256.85H158.822V255.65H161.342V262.57C161.342 262.97 161.522 263.17 161.882 263.17H162.262V265.57H160.542C160.089 265.57 159.715 265.437 159.422 265.17C159.142 264.904 159.002 264.557 159.002 264.13H158.642ZM156.402 263.45C157.135 263.45 157.722 263.21 158.162 262.73C158.602 262.237 158.822 261.57 158.822 260.73V260.49C158.822 259.65 158.602 258.99 158.162 258.51C157.722 258.017 157.135 257.77 156.402 257.77C155.669 257.77 155.082 258.017 154.642 258.51C154.202 258.99 153.982 259.65 153.982 260.49V260.73C153.982 261.57 154.202 262.237 154.642 262.73C155.082 263.21 155.669 263.45 156.402 263.45ZM174.148 261.93C173.922 263.104 173.382 264.05 172.528 264.77C171.688 265.49 170.562 265.85 169.148 265.85C168.415 265.85 167.728 265.737 167.088 265.51C166.462 265.284 165.915 264.957 165.448 264.53C164.982 264.104 164.615 263.577 164.348 262.95C164.082 262.324 163.948 261.61 163.948 260.81V260.57C163.948 259.77 164.082 259.05 164.348 258.41C164.615 257.77 164.982 257.224 165.448 256.77C165.928 256.317 166.482 255.97 167.108 255.73C167.748 255.49 168.428 255.37 169.148 255.37C170.535 255.37 171.655 255.73 172.508 256.45C173.375 257.17 173.922 258.117 174.148 259.29L171.668 259.93C171.588 259.344 171.335 258.837 170.908 258.41C170.482 257.984 169.882 257.77 169.108 257.77C168.748 257.77 168.408 257.837 168.088 257.97C167.768 258.104 167.488 258.297 167.248 258.55C167.008 258.79 166.815 259.09 166.668 259.45C166.535 259.797 166.468 260.19 166.468 260.63V260.75C166.468 261.19 166.535 261.584 166.668 261.93C166.815 262.264 167.008 262.544 167.248 262.77C167.488 262.997 167.768 263.17 168.088 263.29C168.408 263.397 168.748 263.45 169.108 263.45C169.882 263.45 170.468 263.257 170.868 262.87C171.282 262.484 171.548 261.964 171.668 261.31L174.148 261.93ZM176.434 255.65H179.374V251.57H181.894V255.65H185.474V258.05H181.894V262.57C181.894 262.97 182.074 263.17 182.434 263.17H185.114V265.57H180.914C180.461 265.57 180.088 265.424 179.794 265.13C179.514 264.837 179.374 264.464 179.374 264.01V258.05H176.434V255.65Z" fill="#210A90"/>
<path d="M61.4289 281.857C41 283 33.3275 278.119 31 275.5L235 274L227 282L61.4289 281.857Z" fill="#37A6DE" fill-opacity="0.77"/>
</svg>
