<svg width="271" height="283" viewBox="0 0 271 283" fill="none" xmlns="http://www.w3.org/2000/svg">
<path d="M199.171 245.501L199.747 244.356L128.442 208.206L123.155 7.85156L4.55533 233.95L5.69171 234.546L122.003 12.806L127.18 209.004L199.171 245.501Z" fill="#410EAD"/>
<path d="M123.205 1.25391C123.205 1.25391 127.301 152.953 128.667 208.079C128.667 208.079 52.0313 208.185 8.32941 226.56C52.0854 110.948 50.4395 107.569 123.205 1.25391Z" fill="#F8F3FF"/>
<path d="M99.0752 47.2061C94.8634 56.2466 90.2709 64.953 85.4728 73.6895C75.6055 91.6484 66.5179 110.021 57.3529 128.342C46.9652 149.108 35.9911 169.649 25.8089 190.551C53.413 117.365 61.3212 99.6589 113.058 23.3516C112.957 23.5205 112.86 23.6879 112.755 23.8549C107.738 31.3619 103.171 39.1592 99.0752 47.2061Z" fill="white"/>
<g style="mix-blend-mode:multiply">
<path d="M48.2635 211.479C62.1961 206.568 77.3776 202.124 89.2654 193.029C116.956 171.84 114.958 134.572 115.16 103.226C115.369 70.4126 111.878 35.6758 122.163 3.9985C122.574 3.40173 122.974 2.81755 123.389 2.21094C123.389 2.21094 127.482 153.474 128.848 208.444C128.848 208.444 61.606 208.538 17.2013 223.621C27.2163 218.757 37.6032 214.697 48.2635 211.479Z" fill="#E9E9EA"/>
</g>
<g style="mix-blend-mode:multiply">
<path d="M29.4886 172.325C29.6859 171.808 29.8808 171.301 30.071 170.792C61.6976 161.279 94.7109 157.215 127.699 158.774C127.711 159.203 127.723 159.631 127.73 160.06C94.522 158.468 61.2878 162.617 29.4886 172.325Z" fill="#410EAD"/>
<path d="M50.1475 121.991C50.3843 121.484 50.6172 120.979 50.8539 120.474C75.5345 114.069 100.94 110.89 126.438 111.015L126.473 112.294C100.716 112.158 75.053 115.418 50.1475 121.991Z" fill="#410EAD"/>
<path d="M79.8352 67.9248C94.7617 64.8133 109.906 62.8599 125.133 62.082L125.168 63.3595C109.606 64.1516 94.1317 66.1827 78.8921 69.4336C79.2027 68.9366 79.5212 68.4297 79.8352 67.9248Z" fill="#410EAD"/>
</g>
<path d="M121.423 232.097C121.423 232.323 121.462 232.547 121.537 232.756C121.613 232.965 121.724 233.154 121.863 233.314C122.003 233.474 122.168 233.601 122.35 233.687C122.532 233.773 122.727 233.818 122.925 233.818C123.121 233.818 123.316 233.773 123.498 233.687C123.68 233.6 123.845 233.474 123.985 233.314C124.124 233.154 124.234 232.964 124.309 232.755C124.384 232.547 124.423 232.323 124.423 232.097V1.71895C124.423 1.26305 124.265 0.825832 123.984 0.503467C123.703 0.181103 123.322 1.8473e-07 122.925 1.8473e-07C122.527 -0.000211024 122.145 0.180697 121.864 0.502994C121.582 0.825291 121.424 1.26262 121.423 1.71895V232.097Z" fill="#410EAD"/>
<path d="M122.366 194.929H231.915C232.255 194.929 232.58 194.794 232.82 194.553C233.061 194.313 233.195 193.987 233.195 193.648C233.195 193.308 233.061 192.982 232.82 192.742C232.58 192.502 232.255 192.367 231.915 192.367H122.366C122.026 192.367 121.701 192.502 121.461 192.742C121.22 192.982 121.086 193.308 121.086 193.648C121.086 193.987 121.22 194.313 121.461 194.553C121.701 194.794 122.026 194.929 122.366 194.929Z" fill="#410EAD"/>
<path d="M122.151 2.20703C122.151 2.20703 205.434 99.6362 229.783 194.075C229.783 194.075 191.341 181.254 127.275 193.22C127.275 193.22 142.656 90.6625 122.151 2.20703Z" fill="#410EAD"/>
<g style="mix-blend-mode:color-dodge" opacity="0.7">
<path d="M211.835 155.611C203.706 139.54 197.359 124.372 187.926 109.036C178.521 93.7457 168.947 78.4535 159.309 63.3145C154.43 55.6479 135.121 27.8436 132.388 21.4375C153.719 48.7211 200.95 113.714 223.41 180.644C223.243 180.256 223.068 179.865 222.905 179.475C219.486 171.398 215.795 163.444 211.835 155.611Z" fill="#CCDDF2"/>
</g>
<g style="mix-blend-mode:multiply">
<path d="M122.71 4.71094C130.141 19.5441 135.208 35.4483 137.728 51.8476C140.826 70.2139 142.006 88.8155 144.293 107.285C146.16 122.381 147.744 139.249 155.893 152.51C164.161 165.961 177.837 171.486 192.227 176.282C204.408 180.343 219.435 184.615 229.179 193.9C224.152 192.381 186.777 182.118 127.276 193.233C127.275 193.232 142.36 92.5912 122.71 4.71094Z" fill="#82B2D5"/>
</g>
<path d="M231.066 244.086L216.971 223.574C216.971 223.574 215.686 218.018 205.438 216.734C195.19 215.451 53.3862 216.734 53.3862 216.734C53.3862 216.734 43.992 216.309 43.992 222.719V251.778L231.066 244.086Z" fill="#F8F3FF" fill-opacity="0.1"/>
<path d="M233.042 219.992H235.923V233.454H233.042V219.992Z" fill="#DBC4FC"/>
<path d="M207.595 219.988H210.479V233.45H207.595V219.988Z" fill="#DBC4FC"/>
<path d="M182.152 219.988H185.036V233.45H182.152V219.988Z" fill="#DBC4FC"/>
<path d="M156.708 219.988H159.592V233.45H156.708V219.988Z" fill="#DBC4FC"/>
<path d="M131.268 219.988H134.148V233.45H131.268V219.988Z" fill="#DBC4FC"/>
<path d="M105.825 219.992H108.705V233.454H105.825V219.992Z" fill="#DBC4FC"/>
<path d="M80.3803 219.992H83.2646V233.454H80.3803V219.992Z" fill="#DBC4FC"/>
<path d="M54.934 219.988H57.8184V233.45H54.934V219.988Z" fill="#DBC4FC"/>
<path d="M239.606 248.73C239.805 248.732 240.004 248.719 240.202 248.691L246.623 248.712L246.744 248.669C247.776 248.252 248.647 247.516 249.23 246.568C249.812 245.619 250.075 244.509 249.98 243.4C249.984 243.011 250.081 232.713 249.73 230.065C249.649 229.193 249.233 228.387 248.569 227.816C247.905 227.246 247.045 226.955 246.171 227.006C245.969 227.006 245.844 227.019 245.844 227.019L238.165 227.109H238.154C237.858 227.099 237.563 227.152 237.289 227.263C237.014 227.374 236.766 227.542 236.561 227.755C235.701 229.054 235.289 230.599 235.389 232.154C235.246 236.57 235.335 240.991 235.654 245.398C235.758 246.355 236.227 247.235 236.963 247.855C237.699 248.475 238.645 248.789 239.606 248.73Z" fill="#7B3FE4"/>
<path d="M247.998 235.564H237.811C237.814 234.554 237.83 233.879 237.83 233.789C237.751 232.288 238.036 230.79 238.662 229.424C238.778 229.229 238.943 229.068 239.14 228.955C239.337 228.843 239.56 228.783 239.787 228.781H239.799L245.239 228.697C245.315 228.687 245.392 228.683 245.468 228.684C246.551 228.684 247.781 229.48 247.992 231.719C248.066 232.496 248.11 233.95 248.136 235.609C248.087 235.604 248.056 235.564 247.998 235.564Z" fill="#410EAD"/>
<path d="M237.671 222.516C237.671 222.516 237.26 226.869 237.241 227.168C237.244 227.263 237.266 227.356 237.305 227.442C237.344 227.528 237.4 227.606 237.47 227.67C237.539 227.735 237.621 227.785 237.71 227.817C237.799 227.849 237.894 227.864 237.989 227.859H245.985C246.452 227.859 246.265 227.373 246.265 227.168C246.265 226.962 245.443 225.823 245.181 225.58C244.92 225.337 242.117 223.693 242.117 223.693L241.837 222.516H237.671Z" fill="#242424"/>
<path d="M220.881 227.047C220.881 227.047 220.47 231.4 220.451 231.699C220.454 231.794 220.476 231.887 220.515 231.973C220.554 232.06 220.61 232.137 220.68 232.202C220.749 232.266 220.831 232.316 220.92 232.348C221.009 232.381 221.104 232.395 221.198 232.39H229.195C229.662 232.39 229.475 231.905 229.475 231.699C229.475 231.494 228.653 230.354 228.391 230.111C228.13 229.868 225.327 228.224 225.327 228.224L225.047 227.047H220.881Z" fill="#242424"/>
<path d="M221.246 181.805L221.441 181.879L220.823 186.804V205.572L220.205 227.495C222.043 227.773 223.913 227.773 225.751 227.495L232.477 189.878V181.879L221.246 181.805Z" fill="url(#paint0_linear_3744_66)"/>
<g style="mix-blend-mode:multiply">
<path d="M230.667 200.003L232.477 189.879V188.793H224.151L230.667 200.003Z" fill="#212121"/>
</g>
<path d="M221.441 185.918L237.085 202.509L236.886 223.134C236.886 223.134 240.323 223.383 242.615 223.134C242.615 223.134 245.069 203.655 245.256 202.727C245.443 201.798 245.181 200.416 244.621 199.089C244.06 197.763 235.13 181.805 235.13 181.805H221.441V185.918Z" fill="url(#paint1_linear_3744_66)"/>
<g style="mix-blend-mode:multiply">
<path d="M220.823 193.852C226.892 192.477 232.515 189.589 237.168 185.457C235.978 183.321 235.129 181.805 235.129 181.805H221.441V181.806L221.246 181.805L221.441 181.879L220.823 186.804V193.852Z" fill="#B0B0B0"/>
</g>
<path d="M244.555 149.164C244.695 150.679 244.826 150.828 244.733 151.547C244.632 152.113 244.469 152.665 244.247 153.194H241.482C241.482 153.194 241.024 151.968 241.015 151.398C241.006 150.828 241.015 149.361 241.015 149.361L244.555 149.164Z" fill="url(#paint2_linear_3744_66)"/>
<path d="M237.122 149.27H236.204V150.559H237.122V149.27Z" fill="url(#paint3_linear_3744_66)"/>
<path d="M244.731 151.025L236.662 150.74V149.084L244.731 148.797V151.025Z" fill="url(#paint4_linear_3744_66)"/>
<path d="M259.998 152L241.998 151.487V148.515L259.998 148V152Z" fill="url(#paint5_linear_3744_66)"/>
<path d="M259.998 148H257.998V152H259.998V148Z" fill="url(#paint6_linear_3744_66)"/>
<path d="M241.507 153.196C241.507 153.196 240.086 152.137 239.999 152.05C239.855 151.85 239.745 151.627 239.676 151.39C239.635 151.151 239.614 150.91 239.614 150.668C239.601 150.549 239.788 150.312 239.85 150.039C239.913 149.765 239.894 149.597 240.018 149.603C240.126 149.596 240.233 149.619 240.328 149.668C240.423 149.717 240.503 149.792 240.56 149.883C240.619 150.16 240.619 150.447 240.56 150.724C240.56 150.724 241.657 150.624 242.192 151.353C242.554 151.914 242.805 152.54 242.933 153.196H241.507Z" fill="url(#paint7_linear_3744_66)"/>
<path d="M241.164 154.501L241.089 152.992H244.639L244.732 154.677L241.164 154.501Z" fill="white"/>
<path d="M241.866 149.828C241.866 149.947 241.818 150.061 241.734 150.146C241.65 150.23 241.536 150.277 241.417 150.277C241.298 150.277 241.184 150.23 241.1 150.146C241.016 150.061 240.969 149.947 240.969 149.828V148.761C240.969 148.642 241.016 148.528 241.1 148.444C241.184 148.36 241.298 148.312 241.417 148.312C241.536 148.312 241.65 148.36 241.734 148.444C241.818 148.528 241.866 148.642 241.866 148.761V149.828Z" fill="url(#paint8_linear_3744_66)"/>
<path d="M242.762 149.7C242.762 149.818 242.715 149.933 242.631 150.017C242.547 150.101 242.433 150.148 242.314 150.148C242.195 150.148 242.081 150.101 241.997 150.017C241.912 149.933 241.865 149.818 241.865 149.7V148.632C241.865 148.513 241.912 148.399 241.997 148.315C242.081 148.231 242.195 148.184 242.314 148.184C242.433 148.184 242.547 148.231 242.631 148.315C242.715 148.399 242.762 148.513 242.762 148.632V149.7Z" fill="url(#paint9_linear_3744_66)"/>
<path d="M243.658 149.7C243.658 149.818 243.611 149.933 243.527 150.017C243.443 150.101 243.329 150.148 243.21 150.148C243.091 150.148 242.977 150.101 242.893 150.017C242.809 149.933 242.762 149.818 242.762 149.7V148.632C242.762 148.513 242.809 148.399 242.893 148.315C242.977 148.231 243.091 148.184 243.21 148.184C243.329 148.184 243.443 148.231 243.527 148.315C243.611 148.399 243.658 148.513 243.658 148.632V149.7Z" fill="url(#paint10_linear_3744_66)"/>
<path d="M244.555 149.7C244.555 149.818 244.508 149.933 244.424 150.017C244.34 150.101 244.226 150.148 244.107 150.148C243.988 150.148 243.874 150.101 243.79 150.017C243.705 149.933 243.658 149.818 243.658 149.7V148.632C243.658 148.513 243.705 148.399 243.79 148.315C243.874 148.231 243.988 148.184 244.107 148.184C244.226 148.184 244.34 148.231 244.424 148.315C244.508 148.399 244.555 148.513 244.555 148.632V149.7Z" fill="url(#paint11_linear_3744_66)"/>
<path d="M227.45 164.261C228.583 167.241 231.092 166.257 231.722 166.445C232.353 166.632 240.395 168.313 241.445 168.341C242.495 168.368 244.982 167.853 245.132 166.184C245.344 163.811 245.356 159.159 244.907 154.302C243.213 154.252 240.947 154.152 240.947 154.152L240.422 162.491C240.422 162.491 232.34 159.054 231.263 158.744C230.185 158.434 228.667 161.293 227.45 164.261Z" fill="url(#paint12_linear_3744_66)"/>
<path d="M233.925 159.777C232.653 159.258 231.605 158.844 231.262 158.746C230.185 158.435 228.667 161.295 227.45 164.263C228.583 167.243 231.092 166.26 231.722 166.447C232.044 166.542 234.288 167.025 236.551 167.479L233.925 159.777Z" fill="#212121"/>
<path d="M240.422 162.494C240.422 162.494 241.918 164.693 242.765 165.839C241.943 163.871 240.5 161.25 240.5 161.25L240.422 162.494Z" fill="#212121"/>
<path d="M230.608 143.907C227.703 143.865 225.938 145.196 225.321 147.849C225.122 148.743 225.149 149.673 225.4 150.554C225.652 151.435 226.119 152.239 226.76 152.894L226.909 155.902L231.244 157.855C231.374 157.207 231.555 156.57 231.785 155.95C232.14 155.304 232.571 155.182 232.738 155.198C233.238 155.251 233.742 155.255 234.242 155.21C234.7 155.22 235.083 155.154 235.195 154.613C235.307 154.071 235.475 152.23 235.475 152.23C235.475 152.23 236.027 151.642 236.195 151.455C236.363 151.268 236.428 151.053 236.325 150.923C236.223 150.792 235.391 149.802 235.307 149.727C235.262 149.661 235.233 149.585 235.221 149.506C235.21 149.426 235.217 149.345 235.242 149.269C235.279 149.064 235.578 147.47 234.731 146.199C234.289 145.504 233.68 144.931 232.961 144.53C232.241 144.13 231.432 143.916 230.608 143.907Z" fill="url(#paint13_linear_3744_66)"/>
<g style="mix-blend-mode:multiply">
<path d="M230.888 155.099C231.076 155.54 231.33 155.95 231.642 156.313C231.68 156.189 231.728 156.068 231.785 155.952C232.14 155.306 232.571 155.184 232.738 155.2C232.77 155.204 232.799 155.206 232.829 155.209L232.832 155.2C232.618 155.21 231.364 154.657 231.126 154.533C230.889 154.41 230.714 154.691 230.888 155.099Z" fill="#FFD0BA"/>
</g>
<g style="mix-blend-mode:multiply">
<path d="M228.581 152.289C228.915 152.717 229.311 153.092 229.758 153.401C229.842 153.457 229.777 153.55 229.609 153.522C228.846 153.506 228.1 153.295 227.441 152.908L228.581 152.289Z" fill="#FFD0BA"/>
</g>
<g style="mix-blend-mode:multiply">
<path d="M233.275 144.723L230.826 147.679C231.741 148.173 232.682 148.618 233.644 149.012C233.784 148.713 233.806 148.372 233.706 148.057C234.228 148.215 234.777 148.268 235.319 148.211C235.315 147.498 235.111 146.8 234.731 146.197C234.346 145.615 233.852 145.114 233.275 144.723Z" fill="#FFD0BA"/>
</g>
<path d="M228.581 152.286C228.172 152.98 227.549 153.524 226.807 153.837C226.714 153.877 226.657 153.785 226.648 153.673C226.638 153.561 226.62 153.155 226.62 153.155C226.62 153.155 225.868 152.524 225.373 152.01C224.912 151.545 224.612 150.944 224.518 150.296C224.466 149.901 224.466 149.5 224.518 149.105C224.346 149.133 224.173 149.15 223.999 149.156C223.841 149.152 223.775 149.068 223.873 148.876C224.056 148.256 224.203 147.626 224.313 146.989C224.481 146.186 224.867 144.978 226.405 144.816C226.596 144.342 226.882 143.913 227.245 143.554C227.608 143.195 228.041 142.914 228.516 142.729C229.731 142.293 230.434 142.162 230.715 142.025C230.995 141.889 231.144 142.325 230.715 142.835C231.625 142.723 232.547 142.927 233.324 143.414C233.986 143.817 234.72 144.087 235.485 144.21C235.789 144.215 235.789 144.331 235.775 144.406C235.68 144.737 235.47 145.022 235.182 145.209C235.674 145.544 236.192 145.838 236.732 146.088C236.91 146.153 236.942 146.27 236.821 146.41C236.699 146.55 235.753 147.886 233.468 147.631C233.618 147.925 233.651 148.265 233.561 148.583C233.518 148.615 231.705 147.998 230.827 147.681V148.669C230.845 148.783 230.825 148.899 230.77 149C230.714 149.101 230.627 149.18 230.522 149.225C230.26 149.356 230.029 149.506 230.004 149.643C229.991 149.912 229.993 150.183 230.011 150.452C230.017 150.519 230.005 150.586 229.976 150.646C229.947 150.707 229.903 150.759 229.847 150.796C229.773 150.859 229.689 150.911 229.6 150.95C229.515 150.978 229.436 150.959 229.403 150.828C229.339 150.481 229.143 150.171 228.857 149.964C228.479 149.764 227.913 149.983 227.764 150.716C227.695 151.032 227.74 151.362 227.889 151.649C228.038 151.936 228.283 152.161 228.581 152.286Z" fill="url(#paint14_linear_3744_66)"/>
<path style="mix-blend-mode:multiply" d="M227.92 150.308L227.918 150.305C227.918 150.305 226.911 151.362 224.874 151.343C225.011 151.586 225.178 151.811 225.372 152.011C225.867 152.525 226.619 153.155 226.619 153.155C226.619 153.155 226.638 153.562 226.647 153.674C226.657 153.786 226.714 153.877 226.806 153.838C227.549 153.525 228.171 152.981 228.581 152.287C228.283 152.162 228.038 151.936 227.889 151.65C227.739 151.363 227.695 151.033 227.764 150.717C227.792 150.573 227.845 150.435 227.92 150.308Z" fill="url(#paint15_linear_3744_66)"/>
<path d="M234.541 149.502C234.541 149.731 234.413 149.917 234.256 149.917C234.098 149.917 233.971 149.731 233.971 149.502C233.971 149.272 234.098 149.086 234.256 149.086C234.413 149.086 234.541 149.272 234.541 149.502Z" fill="#2B2B32"/>
<path d="M234.542 148.9C234.542 148.9 233.79 148.802 233.664 148.788C233.537 148.774 233.635 148.681 233.813 148.588C234.017 148.487 234.249 148.459 234.472 148.508C234.637 148.583 234.733 148.872 234.542 148.9Z" fill="#2B2B32"/>
<path d="M234.766 152.992C234.708 152.988 234.652 152.981 234.595 152.971C234.475 152.951 234.357 152.92 234.242 152.878C234.128 152.837 234.019 152.785 233.916 152.723C233.834 152.669 233.78 152.633 233.78 152.633C233.769 152.626 233.761 152.615 233.758 152.602C233.754 152.589 233.756 152.575 233.762 152.564C233.768 152.552 233.779 152.543 233.791 152.538C233.804 152.534 233.818 152.534 233.83 152.539L233.837 152.542C233.837 152.542 233.892 152.565 233.976 152.6C234.079 152.637 234.185 152.664 234.293 152.681C234.4 152.698 234.508 152.706 234.616 152.703C234.664 152.702 234.711 152.699 234.758 152.693C234.798 152.692 234.836 152.707 234.865 152.734C234.894 152.762 234.91 152.799 234.911 152.839C234.912 152.878 234.898 152.917 234.87 152.946C234.843 152.974 234.805 152.991 234.766 152.992L234.766 152.992Z" fill="#2B2B32"/>
<path d="M231.437 157.035C231.437 157.035 233.523 162.003 234.064 163.591C234.36 165.156 234.398 166.759 234.177 168.337H227.096V157.035H231.437Z" fill="#E8E8F2"/>
<path d="M226.66 155.406C226.66 155.406 222.911 160.009 222.425 161.105C221.94 162.201 220.096 182.453 219.997 183.773C219.942 184.603 219.942 185.435 219.997 186.264C219.993 186.334 220.004 186.404 220.029 186.469C220.054 186.534 220.092 186.594 220.141 186.643C220.191 186.692 220.25 186.731 220.315 186.756C220.38 186.781 220.45 186.791 220.52 186.787C220.794 186.787 226.1 187.161 226.399 187.136C226.698 187.111 227.096 185.411 227.152 185.43C227.208 185.449 227.507 186.663 227.582 186.887C227.656 187.111 227.825 187.201 228.161 187.137C228.497 187.074 233.504 185.523 233.934 185.318C234.364 185.112 235.727 182.473 235.765 182.354C235.802 182.235 234.382 168.41 234.27 167.887C234.158 167.364 231.524 160.619 231.374 160.32C231.225 160.021 226.66 155.406 226.66 155.406Z" fill="url(#paint16_linear_3744_66)"/>
<g style="mix-blend-mode:multiply">
<path d="M227.859 175.453L228.715 166.485L224.045 161.422C223.445 161.755 222.786 162.172 222.148 162.596C221.602 166.48 220.632 176.702 220.205 181.406L232.06 185.915H232.168C233.056 185.631 233.782 185.39 233.934 185.317C234.11 185.182 234.258 185.014 234.369 184.822L227.859 175.453Z" fill="#B0B0B0"/>
</g>
<path d="M231.438 157.035C231.438 157.035 232.179 158.329 232.602 159.313L232.02 159.699L229.924 158.179L231.438 157.035Z" fill="url(#paint17_linear_3744_66)"/>
<path d="M226.66 155.405L226.854 154.789L231.437 157.032L230.043 158.867L226.66 155.405Z" fill="white"/>
<path d="M232.439 162.3L234.314 167.793L234.398 168.916C234.398 168.916 230.104 162.543 229.898 162.3C229.693 162.057 229.637 161.665 229.898 161.59C230.16 161.515 231.617 161.422 231.617 161.422L232.439 162.3Z" fill="url(#paint18_linear_3744_66)"/>
<path d="M226.728 155.191L226.162 155.743C226.162 155.743 228.723 159.33 229.049 159.759C229.376 160.189 232.44 162.3 232.44 162.3C232.44 162.3 231.594 160.245 231.438 159.984C231.281 159.722 226.728 155.191 226.728 155.191Z" fill="url(#paint19_linear_3744_66)"/>
<path d="M229.889 180.74C229.889 180.74 230.907 180.08 231.038 180.027C231.251 179.96 231.479 179.96 231.692 180.027C231.928 180.185 232.15 180.364 232.355 180.561C232.355 180.561 232.794 180.618 232.85 180.628C232.906 180.637 234.018 181.786 234.092 181.879C234.167 181.973 233.934 184.364 233.906 184.514C233.875 184.607 233.815 184.688 233.734 184.744C233.653 184.799 233.555 184.827 233.457 184.822C233.242 184.803 232.346 184.177 232.346 184.177C232.037 184.289 231.645 184.355 231.393 184.448C231.231 184.499 231.06 184.514 230.892 184.492C230.724 184.469 230.564 184.41 230.421 184.317C230.038 184.103 228.796 183.393 228.796 183.393L229.889 180.74Z" fill="url(#paint20_linear_3744_66)"/>
<path d="M230.011 180.562C230.185 181.716 230.011 182.894 229.512 183.949L228.267 183.438L229.089 180.562H230.011Z" fill="white"/>
<path d="M227.146 160.457C223.957 160.457 222.986 162.624 222.587 163.147C222.188 163.67 218.95 170.621 218.551 171.592C218.153 172.564 218.103 173.884 218.95 174.831C219.797 175.777 225.9 181.867 228.292 183.892C228.964 182.951 230.11 180.562 230.11 180.562L224.192 173.211C224.192 173.211 228.042 167.382 228.715 166.485C229.388 165.589 229.488 162.649 227.146 160.457Z" fill="url(#paint21_linear_3744_66)"/>
<path d="M224.193 173.212C222.998 172.965 221.788 172.798 220.57 172.714C221.866 172.516 223.186 172.541 224.473 172.788L224.193 173.212Z" fill="#212121"/>
<path d="M227.855 182.627C228.082 182.627 228.266 182.443 228.266 182.216C228.266 181.989 228.082 181.805 227.855 181.805C227.628 181.805 227.444 181.989 227.444 182.216C227.444 182.443 227.628 182.627 227.855 182.627Z" fill="#FFA308"/>
<g style="mix-blend-mode:multiply">
<path d="M232.675 163.602C232.561 164.185 232.272 164.719 231.847 165.134C230.802 166.104 225.041 165.975 222.531 165.81C222.091 165.78 221.65 165.793 221.213 165.85C220.519 167.295 219.717 169.012 219.168 170.212L221.387 170.016C222.421 169.338 223.566 168.46 226.435 168.3C229.304 168.14 231.61 167.529 232.542 166.423C232.857 166.04 233.102 165.604 233.265 165.136C233.074 164.637 232.873 164.113 232.675 163.602Z" fill="#B0B0B0"/>
</g>
<path d="M232.02 159.698C232.02 159.698 232.551 161.505 232.663 161.953C232.776 162.401 232.603 164.071 231.437 164.893C230.272 165.715 224.58 164.818 222.114 164.32C219.648 163.821 218.228 164.842 218.228 164.842C218.228 164.842 216.659 166.735 216.484 168.155L220.42 168.336C221.535 167.801 222.786 167.085 225.651 167.309C228.516 167.533 230.883 167.234 231.954 166.263C233.025 165.291 233.544 163.723 233.449 161.956C233.22 161.059 232.937 160.176 232.601 159.312L232.02 159.698Z" fill="url(#paint22_linear_3744_66)"/>
<path d="M262.67 238.099C263.01 238.098 263.336 237.963 263.576 237.722C263.816 237.481 263.951 237.155 263.951 236.815V225.279C263.958 224.454 263.794 223.637 263.468 222.879C263.143 222.122 262.664 221.44 262.061 220.877C261.459 220.315 260.746 219.884 259.968 219.611C259.19 219.339 258.364 219.231 257.542 219.295H38.4387C36.8695 219.264 35.3172 219.626 33.9229 220.347C32.5285 221.067 31.336 222.125 30.4535 223.424C28.7963 226.748 24.5802 233.506 24.5376 233.572C24.4454 233.715 24.3825 233.874 24.3525 234.041C24.3225 234.208 24.326 234.38 24.3628 234.546C24.3996 234.711 24.469 234.868 24.5669 235.007C24.6649 235.146 24.7894 235.263 24.9332 235.353C25.0771 235.444 25.2375 235.504 25.4049 235.532C25.5724 235.559 25.7436 235.553 25.9088 235.514C26.0739 235.475 26.2295 235.403 26.3667 235.303C26.5039 235.203 26.6199 235.077 26.7078 234.932C26.8862 234.65 31.0321 228.005 32.7477 224.57C34.068 221.934 38.3902 221.861 38.4387 221.861H257.542C258.025 221.799 258.516 221.842 258.982 221.987C259.447 222.131 259.876 222.373 260.241 222.696C260.605 223.02 260.896 223.418 261.094 223.863C261.292 224.309 261.392 224.791 261.389 225.279V236.815C261.389 236.984 261.421 237.151 261.486 237.306C261.55 237.462 261.644 237.604 261.763 237.723C261.882 237.842 262.024 237.937 262.179 238.001C262.335 238.066 262.502 238.099 262.67 238.099Z" fill="#410EAD"/>
<path d="M262.51 222.624C261.95 221.666 261.118 220.896 260.12 220.411C259.122 219.926 258.003 219.749 256.904 219.9H167.423L257.226 220.461C259.201 220.47 261.095 221.246 262.51 222.624Z" fill="white"/>
<path d="M3.52176 235.549H267.102L267.793 235.312C259.988 250.119 250.376 263.898 239.176 276.333C233.838 281.248 219.744 281.998 219.744 281.998H43.9889C29.4683 267.575 4.60767 241.404 4.60767 241.404L1.27707 240.334C-1.28378 236.809 3.52176 235.549 3.52176 235.549Z" fill="#D3BAFF"/>
<g style="mix-blend-mode:screen">
<path d="M246.509 262.638C242.962 267.952 238.249 272.385 232.729 275.598C231.774 276.051 230.799 276.451 229.817 276.835C231.024 275.818 232.184 274.782 233.233 273.726C239.031 267.601 244.282 260.981 248.928 253.94C253.024 248.078 256.699 241.931 259.925 235.547H264.861C259.603 245.131 253.459 254.201 246.509 262.638Z" fill="#ABB4B4"/>
</g>
<g opacity="0.5">
<g style="mix-blend-mode:multiply">
<path d="M3.52274 235.549H267.103L267.794 235.312C266.304 238.222 264.592 241.251 262.767 244.288H48.9005C48.9005 244.288 33.5244 244.502 36.5173 253.475C38.7609 260.22 51.7419 275.044 58.054 281.998H43.9899C29.4693 267.575 4.60864 241.404 4.60864 241.404L1.27805 240.334C-1.28281 236.809 3.52274 235.549 3.52274 235.549Z" fill="#F8F3FF"/>
</g>
</g>
<path d="M-0.000976562 236.48C-0.00112915 237.111 0.123016 237.737 0.364502 238.32C0.605957 238.904 0.960022 239.434 1.40634 239.88C1.85263 240.327 2.38245 240.681 2.96561 240.923C3.54877 241.164 4.1738 241.288 4.80499 241.288H266.197C266.828 241.288 267.452 241.164 268.035 240.922C268.618 240.68 269.148 240.326 269.593 239.879C270.039 239.433 270.393 238.903 270.634 238.319C270.875 237.736 270.999 237.111 270.999 236.48C270.999 235.205 270.493 233.983 269.593 233.081C268.692 232.18 267.471 231.673 266.197 231.672H4.80499C4.17386 231.672 3.54895 231.796 2.96585 232.038C2.38275 232.279 1.85297 232.634 1.40671 233.08C0.960419 233.526 0.606384 234.056 0.364838 234.64C0.123322 235.223 -0.000976562 235.848 -0.000976562 236.48Z" fill="#7B3FE4"/>
<path d="M269.715 236.815C269.715 236.815 269.715 232.168 262.988 232.168H98.6573L262.988 233.288C262.988 233.288 268.116 232.969 269.715 236.815Z" fill="white"/>
<path d="M89.7528 263.45C90.2594 263.45 90.6728 263.377 90.9928 263.23C91.3261 263.07 91.5794 262.864 91.7528 262.61C91.9394 262.344 92.0661 262.044 92.1328 261.71C92.1994 261.364 92.2328 261.01 92.2328 260.65V260.29H94.8728V260.65C94.8728 262.317 94.4328 263.604 93.5528 264.51C92.6861 265.404 91.4194 265.85 89.7528 265.85C88.1528 265.85 86.8861 265.364 85.9528 264.39C85.0194 263.417 84.5528 261.997 84.5528 260.13V257.01C84.5528 256.117 84.6728 255.317 84.9128 254.61C85.1528 253.89 85.4994 253.29 85.9528 252.81C86.4061 252.317 86.9528 251.944 87.5928 251.69C88.2328 251.424 88.9528 251.29 89.7528 251.29C90.5794 251.29 91.3128 251.41 91.9528 251.65C92.5928 251.89 93.1261 252.237 93.5528 252.69C93.9928 253.144 94.3194 253.69 94.5328 254.33C94.7594 254.97 94.8728 255.69 94.8728 256.49V256.85H92.2328V256.49C92.2328 256.157 92.1928 255.824 92.1128 255.49C92.0328 255.157 91.8994 254.857 91.7128 254.59C91.5261 254.324 91.2728 254.11 90.9528 253.95C90.6328 253.777 90.2328 253.69 89.7528 253.69C89.3128 253.69 88.9328 253.777 88.6128 253.95C88.2928 254.11 88.0261 254.337 87.8128 254.63C87.5994 254.91 87.4394 255.244 87.3328 255.63C87.2394 256.004 87.1928 256.397 87.1928 256.81V260.33C87.1928 260.784 87.2394 261.204 87.3328 261.59C87.4261 261.964 87.5728 262.29 87.7728 262.57C87.9728 262.85 88.2328 263.07 88.5528 263.23C88.8861 263.377 89.2861 263.45 89.7528 263.45ZM107.119 260.73C107.119 261.557 106.979 262.29 106.699 262.93C106.419 263.557 106.039 264.09 105.559 264.53C105.079 264.957 104.526 265.284 103.899 265.51C103.286 265.737 102.639 265.85 101.959 265.85C101.279 265.85 100.626 265.737 99.9989 265.51C99.3855 265.284 98.8389 264.957 98.3589 264.53C97.8789 264.09 97.4989 263.557 97.2189 262.93C96.9389 262.29 96.7989 261.557 96.7989 260.73V260.49C96.7989 259.677 96.9389 258.957 97.2189 258.33C97.4989 257.69 97.8789 257.15 98.3589 256.71C98.8389 256.27 99.3855 255.937 99.9989 255.71C100.626 255.484 101.279 255.37 101.959 255.37C102.639 255.37 103.286 255.484 103.899 255.71C104.526 255.937 105.079 256.27 105.559 256.71C106.039 257.15 106.419 257.69 106.699 258.33C106.979 258.957 107.119 259.677 107.119 260.49V260.73ZM101.959 263.45C102.319 263.45 102.659 263.39 102.979 263.27C103.299 263.15 103.579 262.977 103.819 262.75C104.059 262.524 104.246 262.25 104.379 261.93C104.526 261.597 104.599 261.224 104.599 260.81V260.41C104.599 259.997 104.526 259.63 104.379 259.31C104.246 258.977 104.059 258.697 103.819 258.47C103.579 258.244 103.299 258.07 102.979 257.95C102.659 257.83 102.319 257.77 101.959 257.77C101.599 257.77 101.259 257.83 100.939 257.95C100.619 258.07 100.339 258.244 100.099 258.47C99.8589 258.697 99.6655 258.977 99.5189 259.31C99.3855 259.63 99.3189 259.997 99.3189 260.41V260.81C99.3189 261.224 99.3855 261.597 99.5189 261.93C99.6655 262.25 99.8589 262.524 100.099 262.75C100.339 262.977 100.619 263.15 100.939 263.27C101.259 263.39 101.599 263.45 101.959 263.45ZM112.165 265.57H109.645V255.65H112.165V257.13H112.525C112.752 256.57 113.118 256.137 113.625 255.83C114.132 255.524 114.725 255.37 115.405 255.37C115.885 255.37 116.332 255.45 116.745 255.61C117.172 255.757 117.545 255.99 117.865 256.31C118.185 256.63 118.432 257.037 118.605 257.53C118.792 258.024 118.885 258.61 118.885 259.29V265.57H116.365V259.93C116.365 259.224 116.192 258.67 115.845 258.27C115.512 257.857 115.025 257.65 114.385 257.65C113.638 257.65 113.078 257.904 112.705 258.41C112.345 258.904 112.165 259.57 112.165 260.41V265.57ZM121.611 255.65H124.551V251.57H127.071V255.65H130.651V258.05H127.071V262.57C127.071 262.97 127.251 263.17 127.611 263.17H130.291V265.57H126.091C125.638 265.57 125.264 265.424 124.971 265.13C124.691 264.837 124.551 264.464 124.551 264.01V258.05H121.611V255.65ZM140.557 264.13C140.29 264.757 139.917 265.204 139.437 265.47C138.957 265.724 138.397 265.85 137.757 265.85C137.157 265.85 136.59 265.737 136.057 265.51C135.537 265.284 135.077 264.95 134.677 264.51C134.277 264.07 133.957 263.537 133.717 262.91C133.49 262.284 133.377 261.57 133.377 260.77V260.45C133.377 259.664 133.49 258.957 133.717 258.33C133.944 257.704 134.25 257.17 134.637 256.73C135.024 256.29 135.47 255.957 135.977 255.73C136.497 255.49 137.05 255.37 137.637 255.37C138.344 255.37 138.91 255.49 139.337 255.73C139.777 255.97 140.124 256.344 140.377 256.85H140.737V255.65H143.257V262.57C143.257 262.97 143.437 263.17 143.797 263.17H144.177V265.57H142.457C142.004 265.57 141.63 265.437 141.337 265.17C141.057 264.904 140.917 264.557 140.917 264.13H140.557ZM138.317 263.45C139.05 263.45 139.637 263.21 140.077 262.73C140.517 262.237 140.737 261.57 140.737 260.73V260.49C140.737 259.65 140.517 258.99 140.077 258.51C139.637 258.017 139.05 257.77 138.317 257.77C137.584 257.77 136.997 258.017 136.557 258.51C136.117 258.99 135.897 259.65 135.897 260.49V260.73C135.897 261.57 136.117 262.237 136.557 262.73C136.997 263.21 137.584 263.45 138.317 263.45ZM156.063 261.93C155.837 263.104 155.297 264.05 154.443 264.77C153.603 265.49 152.477 265.85 151.063 265.85C150.33 265.85 149.643 265.737 149.003 265.51C148.377 265.284 147.83 264.957 147.363 264.53C146.897 264.104 146.53 263.577 146.263 262.95C145.997 262.324 145.863 261.61 145.863 260.81V260.57C145.863 259.77 145.997 259.05 146.263 258.41C146.53 257.77 146.897 257.224 147.363 256.77C147.843 256.317 148.397 255.97 149.023 255.73C149.663 255.49 150.343 255.37 151.063 255.37C152.45 255.37 153.57 255.73 154.423 256.45C155.29 257.17 155.837 258.117 156.063 259.29L153.583 259.93C153.503 259.344 153.25 258.837 152.823 258.41C152.397 257.984 151.797 257.77 151.023 257.77C150.663 257.77 150.323 257.837 150.003 257.97C149.683 258.104 149.403 258.297 149.163 258.55C148.923 258.79 148.73 259.09 148.583 259.45C148.45 259.797 148.383 260.19 148.383 260.63V260.75C148.383 261.19 148.45 261.584 148.583 261.93C148.73 262.264 148.923 262.544 149.163 262.77C149.403 262.997 149.683 263.17 150.003 263.29C150.323 263.397 150.663 263.45 151.023 263.45C151.797 263.45 152.383 263.257 152.783 262.87C153.197 262.484 153.463 261.964 153.583 261.31L156.063 261.93ZM158.349 255.65H161.289V251.57H163.809V255.65H167.389V258.05H163.809V262.57C163.809 262.97 163.989 263.17 164.349 263.17H167.029V265.57H162.829C162.376 265.57 162.003 265.424 161.709 265.13C161.429 264.837 161.289 264.464 161.289 264.01V258.05H158.349V255.65Z" fill="#210A90"/>
<path d="M209.57 281.857C229.999 283 237.672 278.119 239.999 275.5L35.999 274L43.999 282L209.57 281.857Z" fill="#37A6DE" fill-opacity="0.77"/>
<defs>
<linearGradient id="paint0_linear_3744_66" x1="220.012" y1="217.382" x2="226.663" y2="193.094" gradientUnits="userSpaceOnUse">
<stop stop-color="#3F3E4A"/>
<stop offset="1" stop-color="#25252B"/>
</linearGradient>
<linearGradient id="paint1_linear_3744_66" x1="235.114" y1="212.484" x2="232.423" y2="183.638" gradientUnits="userSpaceOnUse">
<stop stop-color="#3F3E4A"/>
<stop offset="1" stop-color="#25252B"/>
</linearGradient>
<linearGradient id="paint2_linear_3744_66" x1="242.881" y1="151.007" x2="247.427" y2="146.076" gradientUnits="userSpaceOnUse">
<stop stop-color="#FAA285"/>
<stop offset="1" stop-color="#FFE4D6"/>
</linearGradient>
<linearGradient id="paint3_linear_3744_66" x1="236.663" y1="150.616" x2="236.663" y2="149.393" gradientUnits="userSpaceOnUse">
<stop stop-color="#FFA308"/>
<stop offset="0.143" stop-color="#FFCB23"/>
<stop offset="0.2912" stop-color="#FFEE3C"/>
<stop offset="0.371" stop-color="#FFFB45"/>
<stop offset="0.4691" stop-color="#FFDD37"/>
<stop offset="0.6598" stop-color="#FFA81E"/>
<stop offset="0.8032" stop-color="#FF870E"/>
<stop offset="0.8817" stop-color="#FF7B08"/>
</linearGradient>
<linearGradient id="paint4_linear_3744_66" x1="237.907" y1="149.911" x2="244.781" y2="149.911" gradientUnits="userSpaceOnUse">
<stop stop-color="#DB4242"/>
<stop offset="1" stop-color="#801C1C"/>
</linearGradient>
<linearGradient id="paint5_linear_3744_66" x1="244.775" y1="150" x2="260.111" y2="150" gradientUnits="userSpaceOnUse">
<stop stop-color="#DB4242"/>
<stop offset="1" stop-color="#801C1C"/>
</linearGradient>
<linearGradient id="paint6_linear_3744_66" x1="258.998" y1="152.178" x2="258.998" y2="148.384" gradientUnits="userSpaceOnUse">
<stop stop-color="#FFA308"/>
<stop offset="0.143" stop-color="#FFCB23"/>
<stop offset="0.2912" stop-color="#FFEE3C"/>
<stop offset="0.371" stop-color="#FFFB45"/>
<stop offset="0.4691" stop-color="#FFDD37"/>
<stop offset="0.6598" stop-color="#FFA81E"/>
<stop offset="0.8032" stop-color="#FF870E"/>
<stop offset="0.8817" stop-color="#FF7B08"/>
</linearGradient>
<linearGradient id="paint7_linear_3744_66" x1="241.194" y1="152.867" x2="241.419" y2="150.183" gradientUnits="userSpaceOnUse">
<stop stop-color="#FFB694"/>
<stop offset="1" stop-color="#FFE4D6"/>
</linearGradient>
<linearGradient id="paint8_linear_3744_66" x1="241.35" y1="150.101" x2="241.477" y2="148.579" gradientUnits="userSpaceOnUse">
<stop stop-color="#FFB694"/>
<stop offset="1" stop-color="#FFE4D6"/>
</linearGradient>
<linearGradient id="paint9_linear_3744_66" x1="242.246" y1="149.972" x2="242.373" y2="148.45" gradientUnits="userSpaceOnUse">
<stop stop-color="#FFB694"/>
<stop offset="1" stop-color="#FFE4D6"/>
</linearGradient>
<linearGradient id="paint10_linear_3744_66" x1="243.143" y1="149.972" x2="243.27" y2="148.45" gradientUnits="userSpaceOnUse">
<stop stop-color="#FFB694"/>
<stop offset="1" stop-color="#FFE4D6"/>
</linearGradient>
<linearGradient id="paint11_linear_3744_66" x1="244.039" y1="149.972" x2="244.166" y2="148.45" gradientUnits="userSpaceOnUse">
<stop stop-color="#FFB694"/>
<stop offset="1" stop-color="#FFE4D6"/>
</linearGradient>
<linearGradient id="paint12_linear_3744_66" x1="247.72" y1="157.524" x2="231.005" y2="166.791" gradientUnits="userSpaceOnUse">
<stop stop-color="#3F3E4A"/>
<stop offset="1" stop-color="#25252B"/>
</linearGradient>
<linearGradient id="paint13_linear_3744_66" x1="225.828" y1="153.079" x2="234.795" y2="148.395" gradientUnits="userSpaceOnUse">
<stop stop-color="#FFB694"/>
<stop offset="1" stop-color="#FFE4D6"/>
</linearGradient>
<linearGradient id="paint14_linear_3744_66" x1="231.491" y1="144.355" x2="227.306" y2="154.594" gradientUnits="userSpaceOnUse">
<stop stop-color="#3F3E4A"/>
<stop offset="1" stop-color="#25252B"/>
</linearGradient>
<linearGradient id="paint15_linear_3744_66" x1="224.353" y1="153.601" x2="227.959" y2="151.237" gradientUnits="userSpaceOnUse">
<stop stop-color="#E8E8E8"/>
<stop offset="1" stop-color="#808080"/>
</linearGradient>
<linearGradient id="paint16_linear_3744_66" x1="232.626" y1="163.093" x2="222.12" y2="188.793" gradientUnits="userSpaceOnUse">
<stop stop-color="#3F3E4A"/>
<stop offset="1" stop-color="#25252B"/>
</linearGradient>
<linearGradient id="paint17_linear_3744_66" x1="232.836" y1="158.827" x2="228.638" y2="157.083" gradientUnits="userSpaceOnUse">
<stop stop-color="#DB4242"/>
<stop offset="1" stop-color="#801C1C"/>
</linearGradient>
<linearGradient id="paint18_linear_3744_66" x1="227.629" y1="172.13" x2="232.673" y2="164.395" gradientUnits="userSpaceOnUse">
<stop stop-color="#3F3E4A"/>
<stop offset="1" stop-color="#25252B"/>
</linearGradient>
<linearGradient id="paint19_linear_3744_66" x1="227.166" y1="162.394" x2="230.099" y2="157.761" gradientUnits="userSpaceOnUse">
<stop stop-color="#3F3E4A"/>
<stop offset="1" stop-color="#25252B"/>
</linearGradient>
<linearGradient id="paint20_linear_3744_66" x1="231.069" y1="183.462" x2="234.357" y2="180.295" gradientUnits="userSpaceOnUse">
<stop stop-color="#FFB694"/>
<stop offset="1" stop-color="#FFE4D6"/>
</linearGradient>
<linearGradient id="paint21_linear_3744_66" x1="228.961" y1="164.75" x2="221.852" y2="182.141" gradientUnits="userSpaceOnUse">
<stop stop-color="#3F3E4A"/>
<stop offset="1" stop-color="#25252B"/>
</linearGradient>
<linearGradient id="paint22_linear_3744_66" x1="232.253" y1="166.937" x2="211.953" y2="158.503" gradientUnits="userSpaceOnUse">
<stop stop-color="#DB4242"/>
<stop offset="1" stop-color="#801C1C"/>
</linearGradient>
</defs>
</svg>
