<svg width="463" height="199" viewBox="0 0 463 199" fill="none" xmlns="http://www.w3.org/2000/svg">
<path d="M343.504 62C254.725 27.7267 34.07 0.00390625 -74.9955 0.00390625V196.193C70.8953 197.714 371.421 199.843 406.397 196.193C441.373 192.543 474.928 151.529 458.004 127.5C452.049 115.333 400.504 92.5 383.503 83.5C369.462 76.0666 346.504 64 343.504 62Z" fill="url(#paint0_linear_4126_24384)"/>
<path style="mix-blend-mode:multiply" opacity="0.3" fill-rule="evenodd" clip-rule="evenodd" d="M-28.9293 0.328121C87.2193 5.97017 264.564 30.4896 351.5 65.0017C353.591 65.832 355.922 67.0483 358.465 68.5172C313.376 61.2393 255.299 58.7056 187.442 59.7789C64.0958 61.733 36.1673 83.4913 126.757 87.9226C217.349 92.3476 219.185 98.0052 185.758 98.8708C171.709 99.2323 174.507 102.593 177.869 106.634C182.506 112.205 188.217 119.067 152.334 121.14C90.4302 124.724 62.4349 132.648 121.124 135.498C233.738 140.957 385.479 116.547 323.226 110.108C296.065 107.301 314.977 105.292 338.177 102.827C368.144 99.6435 405.265 95.7 359.466 88.2953C321.829 82.2051 338.751 82.9251 362.997 83.9567C370.452 84.2739 378.599 84.6206 386.066 84.8078C391.847 87.7612 397.88 90.6118 403.928 93.4696C416.684 99.4968 429.508 105.556 440.184 112.681C438.629 113.052 436.954 113.411 435.154 113.758C370.266 126.269 404.98 133.47 404.98 133.47C404.98 133.47 444.413 154.274 444.413 168.832C445.274 173.08 444.176 176.984 441.349 180.57C431.298 188.356 418.874 193.979 406.397 195.281C376.602 198.39 154.1 197.306 -1.35168 195.976C59.2755 187.711 133.293 165.731 131.558 160.449C129.556 154.323 123.961 152.459 69.9313 153.331C44.5341 153.74 46.0551 153.401 51.5547 152.174C57.7549 150.79 69.0121 148.278 52.4554 144.439C21.2138 137.201 -32.0989 140.76 -65.3951 145.239C-68.6354 145.658 -71.8435 146.31 -74.9958 147.19V2.90686C-68.067 1.98412 -51.7442 1.04417 -28.9293 0.328121ZM-74.9958 190.025C-70.5303 192.218 -65.9147 194.02 -61.1975 195.422C-65.9334 195.375 -70.5368 195.328 -74.9958 195.281V190.025ZM-57.167 37.5514C-93.3471 45.205 -75.0653 48.8365 32.0706 44.2372C139.203 39.6379 153.22 32.7117 70.4633 28.7555C30.1523 26.8284 53.8779 24.9755 77.8901 23.1003C103.174 21.1257 128.775 19.1263 80.272 16.9893C-14.2896 12.8229 -24.687 12.1554 25.2981 11.5783C75.2801 10.9952 35.8617 3.86466 -46.5132 3.67227C-60.2023 3.64347 -55.2375 5.54366 -49.53 7.72813C-43.2809 10.1199 -36.1413 12.8525 -51.6215 13.767C-81.2401 15.5238 -64.6386 25.8576 -38.6014 26.2362C-12.5701 26.609 -20.9859 29.8917 -57.167 37.5514Z" fill="url(#paint1_radial_4126_24384)"/>
<defs>
<linearGradient id="paint0_linear_4126_24384" x1="424.004" y1="141.899" x2="-111.366" y2="113.809" gradientUnits="userSpaceOnUse">
<stop stop-color="#DBB47A"/>
<stop offset="1" stop-color="#EED19B"/>
</linearGradient>
<radialGradient id="paint1_radial_4126_24384" cx="0" cy="0" r="1" gradientUnits="userSpaceOnUse" gradientTransform="translate(210.077 104.962) scale(330.61 326.948)">
<stop stop-color="#F2D7A1"/>
<stop offset="0.5553" stop-color="#DDB67D"/>
<stop offset="0.9788" stop-color="#C19340"/>
</radialGradient>
</defs>
</svg>
