<svg width="1920" height="338" viewBox="0 0 1920 338" fill="none" xmlns="http://www.w3.org/2000/svg">
<path d="M956.689 251.116C1366.78 246.757 1882.94 221.873 2266.77 249.797C2387.66 258.601 2478.3 271.566 2594.46 279.804C2828.94 296.432 3084.76 287.153 3332.56 276.561C3476.6 270.38 3625.1 264.677 3778.06 265.936C3814.51 266.249 3850.87 267.07 3887 268.395V316.389C3809.37 309.645 3705.73 306.438 3607.72 306.891C3456.91 307.587 3315.45 315.198 3178.5 322.666C2941.43 335.595 2686.04 346.38 2442.21 328.822C2328.21 320.612 2239.65 307.689 2116.95 301.456C1958.67 293.417 1775.09 298.063 1613.84 305.238C1167.67 325.089 704.799 340.023 221.38 335.305C145.654 334.566 66.3416 333.902 -13 332.775V233.422C301.047 245.927 622.033 254.674 956.689 251.116Z" fill="#00609E"/>
<path d="M230.103 0.676009C565.559 6.98189 746.542 56.2052 1080.65 63.4348C1293.78 68.0465 1500.03 54.0653 1689.53 41.6872C1879.03 29.3091 2104.05 17.7922 2305.44 27.2145C2481.24 35.4395 2588.5 57.6804 2764.67 65.7956C2918.14 72.8651 3092.53 67.7421 3243.73 60.0242C3394.94 52.3063 3539.07 41.9742 3700.75 38.2197C3762.7 36.7912 3824.96 36.6286 3887 37.7334V116.123C3715.34 123.193 3538.7 137.618 3350.81 135.86C3227.31 134.704 3118.24 127.824 3013.56 119.801C2836.31 106.266 2664 90.7915 2460.13 92.7305C2340.54 93.8679 2231.55 100.467 2118.18 107.299C2050.18 111.391 1982.1 115.306 1915.28 118.611C1841.69 122.277 1763.68 125.344 1685.32 127.189C1574.52 129.85 1459.76 130.474 1347.75 126.311C1180.32 120.092 1053.86 104.389 884.948 99.1683C738.116 94.6239 580.297 98.7092 439.718 105.351C308.727 111.54 182.128 119.731 42.3624 123.917C24.206 124.461 5.681 124.917 -13 125.284V2.85744C67.4043 0.376337 148.291 -0.86194 230.103 0.676009Z" fill="#56BDEC"/>
<path d="M439.719 105.357C580.297 98.7144 738.117 94.6292 884.949 99.1736C1053.86 104.395 1180.32 120.097 1347.75 126.316C1459.76 130.48 1574.52 129.855 1685.32 127.194C1763.68 125.349 1841.69 122.283 1915.28 118.617C1982.1 115.312 2050.18 111.396 2118.18 107.304C2231.55 100.472 2340.54 93.8733 2460.13 92.7357C2664 90.7968 2836.31 106.271 3013.56 119.806C3118.24 127.829 3227.31 134.709 3350.81 135.865C3538.7 137.623 3715.34 123.199 3887 116.128V227.011C3793.26 222.368 3706.62 215.593 3622.7 208.433C3408.23 190.21 3192.59 171.711 2933.23 176.488C2794.34 179.046 2666.73 187.446 2524.98 193.457C2439.26 197.052 2352.92 199.449 2266.3 200.639C2172.57 201.985 2076.27 201.974 1983.1 200.833C1852.24 199.23 1719.24 196.219 1591.3 189.731C1398.96 179.984 1243.76 163.865 1046.22 156.267C874.852 149.667 687.118 150.11 509.405 153.889C355.867 157.155 200.839 162.14 40.133 164.615C22.5245 164.887 4.77639 165.116 -13 165.308V125.289C5.681 124.922 24.206 124.466 42.3632 123.922C182.128 119.737 308.728 111.546 439.719 105.357Z" fill="#37A6DE"/>
<path d="M509.405 153.886C687.118 150.106 874.852 149.664 1046.22 156.264C1243.76 163.862 1398.96 179.98 1591.3 189.727C1719.24 196.216 1852.24 199.227 1983.09 200.829C2076.27 201.97 2172.57 201.981 2266.3 200.635C2352.92 199.445 2439.26 197.048 2524.98 193.453C2666.73 187.442 2794.34 179.042 2933.23 176.484C3192.59 171.707 3408.22 190.207 3622.7 208.43C3706.62 215.59 3793.26 222.364 3887 227.008V268.397C3850.87 267.072 3814.51 266.251 3778.06 265.938C3625.1 264.679 3476.6 270.382 3332.56 276.563C3084.76 287.155 2828.94 296.434 2594.46 279.806C2478.3 271.568 2387.66 258.603 2266.76 249.799C1882.94 221.875 1366.78 246.759 956.689 251.118C622.033 254.676 301.047 245.93 -13 233.424V165.304C4.77639 165.112 22.5235 164.883 40.133 164.612C200.839 162.136 355.867 157.152 509.405 153.886Z" fill="#0779BE"/>
</svg>
