<svg width="1920" height="156" viewBox="0 0 1920 156" fill="none" xmlns="http://www.w3.org/2000/svg">
<path fill-rule="evenodd" clip-rule="evenodd" d="M308.811 22.0506C242.089 12.3439 175.46 2.65075 88.6683 0.464537C46.7131 -0.592305 5.233 0.258609 -36 1.96356V86.0919C-26.42 85.8397 -16.92 85.5265 -7.609 85.1529C40.976 83.2031 86.4587 79.9887 131.643 76.7954C153.117 75.2778 174.523 73.765 196.163 72.3949C268.255 67.8306 349.188 65.0233 424.486 68.1461C469.636 70.0162 508.871 73.8431 548.25 77.684C584.421 81.2121 620.713 84.7519 661.821 86.7979C719.262 89.6588 778.114 89.2296 834.933 87.4011C875.116 86.1331 915.124 84.026 952.864 81.507C987.128 79.2358 1022.04 76.5454 1056.91 73.733L1057.8 73.6614C1115.62 68.9925 1171.26 64.4998 1232.27 63.7222C1325.88 62.5293 1406.51 70.9284 1487.6 79.3751C1497.08 80.3627 1506.57 81.3509 1516.08 82.3245C1569.76 87.8377 1625.7 92.5652 1689.03 93.3595C1756.77 94.2091 1821.67 89.5615 1884.82 85.0381C1911.5 83.1278 1937.86 81.2396 1964 79.797V25.9295C1932.18 25.1703 1900.26 25.282 1868.49 26.2636C1809.18 28.109 1754.49 32.2665 1699.77 36.4251C1677.99 38.0809 1656.2 39.7369 1634.12 41.2472C1556.58 46.5507 1467.15 50.0712 1388.45 45.2131C1343.12 42.4151 1306.69 37.1735 1270.25 31.9309C1234.06 26.7246 1197.86 21.5173 1152.94 18.7011C1049.67 12.2264 934.27 20.1405 837.091 28.6464C834.566 28.8675 832.034 29.0893 829.497 29.3116C734.413 37.6431 631.305 46.6776 524.847 43.5908C439.953 41.1293 374.336 31.5834 308.811 22.0506ZM424.487 68.1542C349.188 65.0314 268.255 67.8387 196.164 72.403C174.524 73.7731 153.118 75.2859 131.644 76.8035C86.4594 79.9968 40.9765 83.2111 -7.6086 85.1609C-16.92 85.5346 -26.42 85.8478 -36 86.0999V113.6C-26.8839 113.468 -17.7823 113.311 -8.7523 113.124C41.7012 112.083 91.0632 110.395 139.827 108.728C170.716 107.672 201.366 106.624 231.9 105.754C323.035 103.156 419.309 102.852 507.191 107.388C564.053 110.318 614.073 115.094 664.461 119.904C703.842 123.664 743.447 127.445 786.719 130.383C852.328 134.842 920.536 136.911 987.639 138.012C1035.42 138.796 1084.81 138.804 1132.87 137.879C1177.29 137.061 1221.57 135.414 1265.53 132.943C1289.19 131.599 1312.08 130.081 1334.65 128.584C1381.43 125.481 1426.84 122.468 1474.89 121.283C1607.02 118.022 1717.03 130.547 1826.31 142.99L1828.46 143.235C1871.5 148.155 1915.93 152.811 1964 156.001V79.805C1937.86 81.2477 1911.5 83.1359 1884.82 85.0462C1821.67 89.5696 1756.77 94.2172 1689.03 93.3676C1625.7 92.5733 1569.76 87.8457 1516.08 82.3326C1506.57 81.3589 1497.08 80.3707 1487.6 79.3831C1406.51 70.9364 1325.88 62.5373 1232.27 63.7303C1171.25 64.508 1115.61 69.0008 1057.79 73.67L1056.91 73.741C1022.04 76.5535 987.129 79.2439 952.864 81.515C915.124 84.0341 875.117 86.1412 834.933 87.4092C778.114 89.2377 719.262 89.6669 661.822 86.806C620.714 84.76 584.422 81.2201 548.251 77.6921C508.871 73.8512 469.636 70.0242 424.487 68.1542Z" fill="url(#paint0_linear_4144_1262)" style="mix-blend-mode:multiply"/>
<path style="mix-blend-mode:screen" opacity="0.4" d="M1074.25 72.7879C1074.25 72.7879 1159.03 73.3293 1213.22 72.9265C1267.37 72.5206 1246.18 72.6559 1363.93 72.8572C1481.71 73.0602 1313.31 72.8572 1276.81 72.9265C1240.29 72.9942 1230.86 73.8793 1190.83 73.6714C1150.8 73.4713 842.219 71.8742 1074.25 72.7879Z" fill="url(#paint1_radial_4144_1262)"/>
<path style="mix-blend-mode:screen" opacity="0.4" d="M959.51 56.848C899.533 56.3913 840.319 55.8415 779.959 55.5859V57.0003C816.539 57.085 853.131 57.1526 889.689 57.2775C947.222 57.4721 1004.87 57.5991 1062.62 57.6586C1073.61 57.6636 1084.63 57.6636 1095.61 57.6706C1050.12 57.4977 1004.67 57.2 959.51 56.848Z" fill="url(#paint2_radial_4144_1262)"/>
<path style="mix-blend-mode:screen" opacity="0.4" d="M1131.22 61.5464C1117.18 61.5291 1103.25 61.5464 1089.33 61.581C1034.99 61.1987 980.564 61.0397 926.066 60.8281C994.228 60.9026 1062.13 61.1479 1130.1 61.3035C1130.17 61.3908 1130.5 61.4804 1131.22 61.5464Z" fill="url(#paint3_radial_4144_1262)"/>
<path style="mix-blend-mode:screen" opacity="0.4" d="M1040.58 51.2931C1078.37 50.9377 1116.11 51.002 1154.25 51.0647C1195.16 51.1375 1236.11 51.1664 1277.1 51.1514C1291.01 51.1514 1292.58 52.2611 1279.84 52.4777C1243.14 53.0936 1205.53 53.2627 1167.36 53.3169C1126.24 53.3626 1085.14 53.3354 1044.26 53.0529C1027.71 52.9409 1021.41 51.4758 1040.58 51.2931Z" fill="url(#paint4_radial_4144_1262)"/>
<path style="mix-blend-mode:screen" opacity="0.4" d="M927.795 49.4304C958.536 49.0146 991.592 48.9788 1023.06 49.0076C1054.01 49.0346 1087.47 49.1056 1116.98 49.6842C1124.38 49.8265 1125.85 50.5369 1116.73 50.6147C1085.78 50.894 1053.69 50.8787 1022.4 50.9735C991.013 51.0665 958.547 51.1629 927.477 50.838C914.348 50.7022 915.825 49.5924 927.795 49.4304Z" fill="url(#paint5_radial_4144_1262)"/>
<path style="mix-blend-mode:screen" opacity="0.4" d="M809.762 51.1732C842.16 51.0479 874.102 51.1292 906.499 51.2274C936.123 51.322 970.274 51.2645 998.624 51.7992C1009.38 51.9954 1008.08 52.7433 998.328 52.9514C992.349 53.0749 985.961 53.1695 979.39 53.2372C999.784 53.2575 1020.19 53.3117 1040.74 53.3878C1058.37 53.4453 1075.9 53.5333 1093.45 53.6518C1097.75 53.6754 1102.12 53.7143 1106.4 53.7549C1108.29 53.7786 1118.77 53.8699 1115.44 53.8564L1114.92 53.8699C1125.68 53.8734 1135.62 54.4673 1130.55 55.1067C1154.7 55.1457 1178.87 55.2505 1203.16 55.3825C1250.69 55.6424 1299.36 55.8799 1345.97 56.467C1359.31 56.6413 1354.23 57.614 1342.72 57.6833C1296.41 57.9744 1248.84 57.6596 1202.49 57.4754C1155.31 57.2876 1108.07 57.1213 1060.76 56.9763C1047.45 56.9256 1043.55 56.2506 1047.8 55.7583C1002.76 55.7236 957.995 55.7447 913.081 55.4757C888.823 55.3371 889.061 53.498 912.547 53.3448C910.251 53.3313 907.988 53.3263 905.806 53.3263C872.067 53.2365 838.897 53.0437 805.659 52.7087C788.992 52.5503 794.916 51.2274 809.762 51.1732Z" fill="url(#paint6_radial_4144_1262)"/>
<path style="mix-blend-mode:screen" opacity="0.4" d="M835.977 55.3555C892.484 55.3572 948.631 55.4925 1004.98 55.7328C1032.82 55.8493 1060.62 55.9821 1088.38 56.1312C1116.81 56.2953 1145.3 56.5897 1173.97 56.4036C1178.52 56.3766 1179.13 56.786 1174.87 56.8452C1150.8 57.1716 1126.27 57.1716 1101.64 57.1208C1071.63 57.06 1041.58 57.0169 1011.54 56.9476C952.851 56.8055 894.221 56.629 835.65 56.4181C823.404 56.3757 823.598 55.3555 835.977 55.3555Z" fill="url(#paint7_radial_4144_1262)"/>
<path style="mix-blend-mode:screen" opacity="0.4" d="M898.34 57.7775C940.957 57.818 983.189 57.928 1025.65 58.126C1046.62 58.23 1067.48 58.3544 1088.38 58.4949C1109.85 58.6335 1131.99 58.8822 1153.63 58.7147C1162.82 58.6471 1166.6 59.3576 1157.27 59.5082C1119.72 60.1105 1077.7 59.7062 1039.35 59.5602C992.157 59.3893 945.036 59.2403 897.952 59.0058C884.085 58.9347 884.051 57.7634 898.34 57.7775Z" fill="url(#paint8_radial_4144_1262)"/>
<path style="mix-blend-mode:screen" opacity="0.4" d="M897.695 61.8982C998.981 61.7952 1100.11 61.8973 1201.09 62.2045C1251.36 62.3653 1301.52 62.6044 1351.55 62.9219C1400.41 63.2297 1448.52 63.8489 1497.89 63.8354C1500.63 63.8354 1500.37 64.057 1497.82 64.0655C1448.73 64.3733 1400.18 63.9894 1351.3 63.7441C1301.26 63.5016 1250.94 63.3753 1200.76 63.255C1099.7 63.0182 998.504 63.0217 897.41 62.8237C886.747 62.8034 887.031 61.9134 897.695 61.8982Z" fill="url(#paint9_radial_4144_1262)"/>
<path style="mix-blend-mode:screen" opacity="0.4" d="M1022.06 60.7883C1078.63 61.0843 1134.44 61.832 1191.36 61.871C1202.41 61.8778 1201.94 62.793 1191.03 62.8201C1133.84 62.9503 1078.17 62.3194 1021.72 61.9301C1008.94 61.8371 1008.81 60.7188 1022.06 60.7883Z" fill="url(#paint10_radial_4144_1262)"/>
<path style="mix-blend-mode:screen" opacity="0.4" d="M1079.41 63.0402C978.144 62.7576 880.017 61.565 779.959 60.7969V62.1537C877.492 63.338 979.154 64.6643 1079.04 64.1619C1091.76 64.1053 1092.61 63.0842 1079.41 63.0402Z" fill="url(#paint11_radial_4144_1262)"/>
<path style="mix-blend-mode:screen" opacity="0.4" d="M1066.75 65.2257C1080.63 65.2511 1094.51 65.2754 1108.4 65.2985C1071.3 65.0769 1034.19 64.8586 996.919 64.7166C994.059 64.6373 991.176 64.7459 988.473 65.0346C1014.57 65.1022 1040.66 65.1659 1066.75 65.2257Z" fill="url(#paint12_radial_4144_1262)"/>
<path style="mix-blend-mode:screen" opacity="0.4" d="M1024.76 50.5321C1078.94 50.4576 1132.47 50.884 1186.5 51.0413C1194.75 51.0667 1198.32 51.4659 1197.29 51.8077C1287.39 52.058 1377.38 52.8092 1466.49 53.4724C1478.74 53.5604 1479.1 54.5654 1466.16 54.5721C1353.17 54.6094 1239.99 53.777 1127.66 53.1815C1117.96 53.1358 1113.99 52.6484 1115.73 52.2578C1085.27 52.185 1054.79 52.0824 1024.3 51.9498C1008.08 51.8822 1008.38 50.5557 1024.76 50.5321Z" fill="url(#paint13_radial_4144_1262)"/>
<path style="mix-blend-mode:screen" opacity="0.4" d="M982.053 53.5604C1061.56 53.3371 1142.78 53.6772 1219.72 54.8665C1229.11 55.012 1227.25 55.8867 1217.18 55.8342C1138.72 55.3774 1060.31 55.073 981.667 54.782C967.491 54.7362 967.947 53.6044 982.053 53.5604Z" fill="url(#paint14_radial_4144_1262)"/>
<path style="mix-blend-mode:screen" opacity="0.4" d="M1042.62 57.6286C1169.51 57.1751 1306.1 56.1363 1427.25 58.9212C1437.72 59.1681 1433.67 60.0992 1422.29 59.8913C1299.68 57.7106 1168.53 58.7933 1042.26 58.7358C1029.31 58.7299 1030 57.6768 1042.62 57.6286Z" fill="url(#paint15_radial_4144_1262)"/>
<path style="mix-blend-mode:screen" opacity="0.4" d="M981.765 63.5703C1043.84 63.5821 1105.8 63.428 1167.84 63.4856C1227.01 63.5363 1286.6 63.7039 1343.31 64.6919C1349.35 64.7918 1348.32 65.372 1341.6 65.328C1222.52 64.4043 1101.23 64.9559 981.39 64.739C967.943 64.7156 968.284 63.5668 981.765 63.5703Z" fill="url(#paint16_radial_4144_1262)"/>
<path style="mix-blend-mode:screen" opacity="0.4" d="M968.307 60.7875C1059.91 61.1428 1151.02 61.882 1242.83 62.1223C1252.48 62.1476 1252.16 62.9365 1242.55 62.9631C1150.58 63.1526 1059.3 62.5859 967.864 62.0968C952.995 62.0173 953.075 60.7232 968.307 60.7875Z" fill="url(#paint17_radial_4144_1262)"/>
<path style="mix-blend-mode:screen" opacity="0.4" d="M900.784 57.8321C989.386 57.9319 1077.88 58.3143 1165.55 59.0367C1176.18 59.1212 1176.27 60.0704 1165.25 59.9909C1077.32 59.3615 988.919 59.1567 900.398 58.9514C887.496 58.9251 887.757 57.8203 900.784 57.8321Z" fill="url(#paint18_radial_4144_1262)"/>
<path style="mix-blend-mode:screen" opacity="0.4" d="M387.918 64.6161C636.365 65.7708 888.285 65.667 1136.93 65.1444C1153.78 65.0953 1158.2 63.1921 1140.53 63.0415C892.032 60.7812 637.25 61.3965 387.181 61.7027C359.687 61.7233 361.191 64.4823 387.918 64.6161Z" fill="url(#paint19_radial_4144_1262)"/>
<path style="mix-blend-mode:screen" opacity="0.4" d="M1073.19 49.9756C1122.06 49.7591 1171.03 49.9236 1219.94 49.9841C1226.53 49.9959 1226.17 50.5238 1219.76 50.5508C1170.88 50.7438 1121.94 50.7979 1072.94 50.7133C1064.34 50.696 1064.87 50.0111 1073.19 49.9756Z" fill="url(#paint20_radial_4144_1262)"/>
<path style="mix-blend-mode:screen" opacity="0.4" d="M1886.75 70.5468C1792.12 70.239 1719.08 69.7279 1742.34 70.8514C1765.56 71.9775 1740.67 72.0272 1684.25 71.6634C1684.25 71.6634 1531.52 70.5468 1387.13 69.5283C1242.72 68.5081 1088.38 67.8907 1108.29 69.014C1128.2 70.1401 1038.56 69.4251 953.907 69.3258C869.253 69.2265 864.282 69.9282 875.889 70.9543C887.506 71.9796 889.166 72.4837 834.409 72.2789C779.641 72.0743 807.854 72.9946 822.768 73.4987C837.751 74.0131 831.091 74.1111 799.556 73.9083C794.293 73.871 787.575 73.8168 779.959 73.7508V74.9943C793.02 75.0265 805.831 75.0451 817.562 75.0451C833.102 75.0451 846.743 75.0104 856.632 74.9368C862.336 75.0387 868.058 74.8974 873.627 74.5172C869.628 74.1316 865.44 73.948 861.237 73.9741C858.466 73.9544 855.707 73.8587 852.995 73.6882L853.006 73.678C853.006 73.6645 853.314 73.6442 854.734 73.607C859.918 73.492 874.901 73.4327 888.268 73.3144C894.998 73.2551 901.443 73.1841 906.354 73.0791C911.185 72.9708 914.834 72.8035 914.845 72.592V72.5852C914.845 72.4702 913.856 72.3449 911.867 72.2011C907.541 72.0468 903.328 71.6827 899.397 71.1234V71.1149C899.466 70.9779 901.148 70.9136 907.457 70.851C913.606 70.7817 923.462 70.7471 937.262 70.709C943.321 70.6853 952.236 70.6743 963.012 70.6743C996.501 70.6743 1047.77 70.7487 1088.52 70.7487C1106.5 70.7487 1122.48 70.7351 1133.99 70.6946C1139.77 70.6743 1144.41 70.6471 1147.78 70.6101C1149.87 70.6416 1151.95 70.5707 1153.96 70.4003C1153.93 70.3375 1152.91 70.2953 1151.62 70.2495C1150.84 70.2423 1150.06 70.2031 1149.31 70.1329H1149.34C1149.34 70.1329 1149.34 70.1156 1150.61 70.0922C1154.33 70.0145 1164.84 69.984 1178.6 69.984H1179.51C1210 69.984 1256.6 70.116 1291.6 70.116H1291.64C1341.87 70.116 1660.83 72.8466 1762.1 72.8517C1771.81 72.8517 1779.58 72.8246 1785.1 72.7671C1788.27 72.8374 1791.46 72.7277 1794.5 72.4438C1794.49 72.3593 1793.61 72.2798 1792.13 72.2003C1785.75 71.8569 1783.03 71.6183 1783.03 71.4966V71.483C1783.09 71.4018 1783.71 71.3696 1785.58 71.3308C1787.4 71.2935 1790.53 71.2698 1794.64 71.2698H1794.92C1813.46 71.2698 1850.1 71.6421 1890 71.7419V70.5593L1886.75 70.5468Z" fill="url(#paint21_radial_4144_1262)"/>
<path style="mix-blend-mode:screen" opacity="0.4" d="M1074.48 63.9612C1074.48 63.9612 1125.64 64.501 1158.29 64.0998C1190.95 63.6887 1178.17 63.8226 1249.19 64.027C1320.21 64.23 1218.68 64.027 1196.63 64.0998C1174.65 64.1675 1155.79 64.9119 1126.71 64.7072C1102.53 64.5348 934.591 63.051 1074.48 63.9612Z" fill="url(#paint22_radial_4144_1262)"/>
<path style="mix-blend-mode:screen" opacity="0.4" d="M1749.7 80.2357C1772.93 81.3574 1748.04 81.4082 1691.62 81.0529C1691.62 81.0529 1538.87 79.9328 1394.49 78.9111C1250.08 77.8889 1095.74 77.2852 1115.64 78.4102C1135.56 79.5235 1045.93 78.8163 961.273 78.7063C876.648 78.6048 871.66 79.3239 883.277 80.3457C894.907 81.3574 896.566 81.865 841.775 81.6653C787.018 81.4607 815.235 82.3756 830.158 82.8851C845.115 83.3927 838.467 83.4992 806.923 83.2929C800.022 83.2454 790.667 83.1644 779.959 83.0696V84.3621C795.532 84.4077 811.003 84.4315 824.949 84.4315C840.477 84.4315 854.108 84.401 863.985 84.3249C869.693 84.4245 875.419 84.2809 880.99 83.8986C876.988 83.5169 872.801 83.3351 868.6 83.3605C865.822 83.3353 863.057 83.2391 860.335 83.0729L860.38 83.0628C860.931 83.0159 861.501 82.9926 862.074 82.9935C867.269 82.8768 882.24 82.8125 895.642 82.7009C902.372 82.6434 908.817 82.5724 913.717 82.4584C918.571 82.3501 922.208 82.1911 922.208 81.9745V81.9712C922.208 81.8562 921.242 81.7259 919.252 81.5922C914.917 81.4291 910.694 81.0643 906.739 80.5111V80.4976C906.818 80.3673 908.524 80.2946 914.81 80.2286C920.948 80.1678 930.815 80.1338 944.626 80.09C950.679 80.0714 959.623 80.0612 970.376 80.0612C1003.86 80.0612 1055.14 80.134 1095.9 80.134C1113.89 80.134 1129.84 80.1167 1141.34 80.0799C1147.13 80.0612 1151.76 80.0325 1155.12 79.9933C1157.21 80.0267 1159.31 79.9558 1161.33 79.7835C1161.3 79.7192 1160.27 79.6718 1159.03 79.6295C1158.24 79.6181 1157.46 79.5818 1156.7 79.5212C1157.12 79.4918 1157.55 79.4765 1157.98 79.4755C1161.68 79.4062 1172.22 79.3605 1185.96 79.3605H1186.87C1217.41 79.3605 1263.98 79.5077 1298.98 79.5077H1299.01C1349.21 79.5077 1668.15 82.2299 1769.48 82.2316C1779.2 82.2316 1786.96 82.2079 1792.43 82.1504C1795.62 82.2227 1798.83 82.1124 1801.89 81.8255C1801.86 81.741 1801 81.6648 1799.51 81.5802C1793.12 81.2419 1790.4 81.0016 1790.4 80.8699V80.8632C1790.49 80.7854 1791.09 80.7549 1792.93 80.7073C1794.78 80.6768 1797.91 80.6565 1802 80.6565H1802.29C1819.69 80.6565 1853 80.9779 1890 81.1031V79.9171C1797.41 79.6115 1726.8 79.1276 1749.7 80.2357Z" fill="url(#paint23_radial_4144_1262)"/>
<path style="mix-blend-mode:screen" opacity="0.4" d="M1785.6 81.6876C1782.87 81.5215 1780.08 81.4089 1777.25 81.351C1778.99 81.4411 1781.14 81.5488 1782.59 81.6373C1779.57 81.5227 1775.18 81.4013 1771.43 81.2285C1769.58 81.1732 1767.8 81.0372 1766.22 80.8294C1765.36 80.7322 1767.03 80.5308 1769.66 80.4649C1771.97 80.4059 1773.5 80.3921 1775.23 80.3713C1773.26 80.3616 1771.29 80.3866 1769.34 80.4459C1767.84 80.458 1763.09 80.7322 1765.82 81.0098C1764.76 80.7669 1768.85 81.2424 1773.68 81.4008C1778.46 81.6124 1782.94 81.7739 1779.67 81.5829C1780.33 81.6193 1780.98 81.6633 1781.61 81.7148C1780.59 81.7235 1778.75 81.7704 1775.18 81.7652C1775.46 81.7738 1778.68 81.7807 1770.55 81.8294C1770.18 81.8397 1769.34 81.845 1768.76 81.8607H1773.21C1769.39 81.9508 1755.36 81.9851 1750.68 82.0115C1745.4 82.0028 1752.86 81.9856 1749.99 81.9648L1742.89 82.0028C1742.18 81.9579 1728.96 81.9248 1741.3 81.904L1730.2 81.8884C1723.65 81.8607 1714.67 81.845 1709.1 81.845C1703.82 81.8294 1695.72 81.8745 1700.38 81.845L1682.81 81.8397L1682.66 81.8207C1665.39 81.7704 1646.93 81.7947 1627.32 81.6385C1621.53 81.6316 1615.44 81.6208 1605.75 81.5778L1603.91 81.5308C1596.43 81.5152 1581.61 81.4008 1578.26 81.4303C1570.48 81.2881 1542.15 81.2525 1529.03 81.1768L1528.38 81.2289C1519.39 81.1873 1510.7 81.1648 1499.42 81.1335L1499.98 81.1768C1490.22 81.1768 1475.2 81.0327 1459.9 80.9685C1461.03 80.9547 1464.87 80.9824 1467.53 80.9998C1449.55 80.809 1428.84 80.9026 1412.46 80.7395C1408.31 80.7343 1405.31 80.7187 1402.45 80.6979H1403.48C1403.05 80.6979 1402.44 80.6874 1401.77 80.6874C1399.97 80.6696 1398.13 80.6492 1396.13 80.6353C1397.82 80.6561 1399.43 80.67 1400.86 80.6805C1397.71 80.67 1392.83 80.6492 1388.08 80.6405L1386.19 80.5763H1385.11C1380.52 80.5312 1381.29 80.5833 1383.71 80.6284C1381.26 80.625 1379.03 80.625 1377.32 80.6284C1373.78 80.5312 1364.85 80.6007 1359.94 80.4879C1356.9 80.5035 1339.26 80.4132 1334.28 80.4653C1329.04 80.4237 1323.83 80.3924 1319.07 80.3924L1316.98 80.3178L1305.24 80.349C1298.34 80.2692 1295.51 80.2362 1302.59 80.2224C1285.62 80.2154 1288.88 80.1824 1274.39 80.1841L1275.24 80.1495C1270.14 80.1251 1261.82 80.1408 1258.83 80.0905C1247.63 79.9586 1202.37 79.8061 1173.2 79.5941C1178.63 79.7381 1159.76 79.4744 1158.33 79.5646C1156.68 79.5291 1152.64 79.49 1157.46 79.49C1142.42 79.4482 1135.08 79.3441 1124.54 79.3789C1122.87 79.3371 1127.82 79.3512 1126.34 79.3286C1125.14 79.332 1121.5 79.332 1119.97 79.306C1121.53 79.2785 1123.1 79.2744 1124.66 79.2938C1118.53 79.166 1112.36 79.1993 1106.28 79.3928C1098.57 79.3217 1094.68 79.3199 1088.96 79.3459C1086.3 79.3146 1081.83 79.273 1091.39 79.2938C1086.06 79.2643 1058.54 79.155 1057.83 79.2348C1056.08 79.214 1050.3 79.2261 1048.9 79.2348C1036.86 79.2261 1035.78 79.2192 1023.99 79.214L1027.24 79.2261C1022.53 79.3061 1017.4 79.2417 1007.89 79.2417L1008.14 79.2261C986.338 79.1481 998.694 79.2556 977.174 79.1602L978.282 79.2122C976.265 79.3199 959.227 79.1255 946.705 79.1481L951.172 79.1881C944.34 79.2122 932.132 79.018 925.268 78.9988C923.744 78.9919 927.65 78.9831 929.734 78.9831C911.704 78.8998 927.385 79.0421 913.92 79.0457C911.456 79.0075 917.162 78.959 908.065 78.9467C903.566 78.9138 881.847 79.0457 869.292 79.0075C872.087 79.0318 874.768 79.0509 868.515 79.0839C863.553 79.1081 857.449 79.0839 849.873 79.1481C848.047 79.1442 846.233 79.2082 844.514 79.3372C846.4 79.7191 847.028 79.5421 848.021 79.6357C848.318 79.6409 848.517 79.6496 848.748 79.6549C842.481 79.7468 826.997 79.7971 822.978 79.8475C816.196 79.6999 777.853 79.9915 777.936 79.8214L755.555 79.8283L756.118 79.8145C741.76 79.8024 736.748 79.844 731.637 79.8753C728.329 79.8648 730.76 79.8476 731.075 79.8458C710.1 79.8024 708.066 79.8127 690.433 79.8753L688.663 79.825C683.866 79.8545 658.376 79.7224 637.782 79.7814C638.535 79.7533 639.301 79.744 640.065 79.7537C616.907 79.7971 584.652 79.5836 576.117 79.7814L560.865 79.8283C580.632 79.8283 557.901 79.9066 566.043 79.9325C558.285 79.9515 545.929 79.8925 555.457 79.8753L556.995 79.884C560.485 79.7814 532.312 79.884 532.791 79.8214C523.131 79.8458 513.438 79.8683 503.695 79.9065C498.698 79.9325 493.969 79.9446 488.693 80.0192C486.426 80.0331 481.133 80.1634 481.182 80.3924C481.364 80.5868 483.035 80.6787 484.259 80.7846C489.486 81.1525 496.682 81.4685 501.594 81.7427C506.011 81.9751 499.924 82.0967 491.438 82.2285C492.91 82.2337 494.382 82.2424 495.739 82.2424C492.097 82.3065 488.117 82.349 484.127 82.3846C480.819 82.4002 479.661 82.3723 488.113 82.2891C483.548 82.2978 473.885 82.4539 473.64 82.4626C456.255 82.5514 480.076 82.3359 474.731 82.3672L467.602 82.4192H469.256C463.484 82.4834 463.037 82.52 452.302 82.572C445.388 82.5824 448.68 82.5365 445.95 82.5511C445.95 82.5511 445.007 82.5511 441.8 82.572C436.424 82.5928 431.098 82.6154 425.507 82.6657C427.889 82.6657 430.088 82.6726 432.322 82.6796C425.341 82.7421 416.738 82.8166 424.845 82.8011C423.389 82.7976 421.305 82.8063 418.609 82.8409C417.865 82.8601 417.286 82.8601 415.815 82.912C415.645 82.9189 414.739 82.9518 414.723 83.0386L414.938 83.0752C415.431 83.1286 415.961 83.1649 416.509 83.1827C417.864 83.2383 419.355 83.2868 420.744 83.3215C426.715 83.4636 433.695 83.5525 439.27 83.6998C453.958 83.9428 430.304 84.1128 429.428 84.1059C420.082 84.2188 410.273 84.2395 398.261 84.2621C401.255 84.2621 403.158 84.3367 392.687 84.3403C396.376 84.1981 373.533 84.3048 365.113 84.1981C372.623 84.2658 335.439 84.1981 347.265 84.3048C344.876 84.3031 342.491 84.2718 340.12 84.2109C328.243 84.2353 314.96 84.1931 301 84.1485V84.5772C317.045 84.6101 333.106 84.6293 347.183 84.6067L345.198 84.5806C364.915 84.545 361.143 84.6241 382.462 84.5928C386.795 84.5685 392.403 84.5495 398.176 84.5441C392.684 84.5797 408.593 84.5703 401.418 84.6206C422.954 84.5139 412.089 84.5546 426.114 84.4053L429.521 84.4261C434.219 84.3342 434.649 84.3758 445.301 84.1537C436.518 84.3879 453.34 84.0471 443.184 84.3186C446.175 84.3083 449.142 84.2036 451.984 84.008C453.82 83.7441 450.098 83.6019 448.328 83.5282C443.928 83.3682 440.19 83.3232 436.849 83.2616C431.704 83.1782 427.322 83.1123 424.609 83.0187C429.125 83.0169 436.254 83.022 447.882 82.9735C446.063 82.9769 445.98 82.9874 444.194 82.9977C451.025 82.9874 457.344 82.891 465.896 82.891C470.361 82.8043 476.845 82.8251 477.888 82.7384C472.347 82.7869 466.739 82.8251 461.231 82.8628C470.627 82.7777 479.211 82.6684 494.76 82.5122C493.717 82.5399 489.255 82.6268 486.092 82.6684C490.873 82.6406 494.826 82.5555 499.672 82.4896C499.027 82.6337 479.327 82.7828 469.353 82.8818C474.48 82.8905 488.54 82.6822 483.792 82.8089C487.299 82.7222 491.848 82.6822 497.125 82.6094C501.74 82.5227 510.358 82.4255 511.946 81.9776L512.793 82.0435C514.348 81.8909 511.685 81.6149 508.988 81.4779C509.666 81.5038 510.343 81.5369 511.006 81.5715C507.836 81.3316 504.599 81.1323 501.313 80.9746C504.224 81.1585 498.799 80.939 502.405 81.1724C493.837 80.7976 492.513 80.643 491.703 80.506C491.637 80.4973 491.637 80.4882 491.603 80.4783C492.513 80.4747 494.979 80.4383 498.104 80.4123C494.217 80.4401 489.751 80.4747 493.175 80.4088C497.658 80.3636 504.373 80.3533 507.566 80.3636C525.513 80.2908 504.721 80.3203 512.33 80.2718C518.583 80.3073 521.196 80.2184 529.202 80.1797L529.317 80.2248C550.279 80.2143 534.743 80.1033 553.555 80.1182L545.679 80.198L555.388 80.1651L553.436 80.2241C564.006 80.1738 567.364 80.1841 577.801 80.198C575.37 80.1651 579.125 80.1113 588.387 80.1061C591.578 80.1623 594.782 80.1774 597.981 80.1513C595.053 80.1825 591.778 80.2172 586.072 80.1738C585.493 80.1841 583.127 80.2049 582.549 80.2172C589.331 80.2554 599.652 80.231 604.416 80.238C602.58 80.231 600.43 80.2241 599.255 80.2172L618.36 80.1513C621.325 80.179 618.923 80.1859 616.541 80.2046C620.444 80.2046 623.091 80.1786 628.815 80.1786C625.771 80.2737 622.69 80.3045 619.617 80.2707L637.78 80.2376C638.971 80.2602 647.06 80.2949 644.776 80.3071C654.784 80.3348 669.456 80.2394 682.838 80.2792C683.483 80.2707 684.889 80.2707 687.75 80.2636C700.321 80.2792 711.42 80.3347 726.307 80.2879L734.759 80.3626C746.421 80.3505 723.313 80.2707 742.766 80.2394C746.088 80.1713 749.438 80.1994 752.723 80.3228C759.555 80.2897 771.431 80.2161 784.119 80.2707C779.933 80.2884 776.642 80.2758 772.722 80.2792L782.382 80.3192C770.753 80.3938 762.317 80.3695 771.398 80.4258C772.722 80.2886 808.947 80.3945 810.237 80.2401L816.622 80.2643C814.819 80.2714 814.521 80.2714 812.718 80.2714C825.224 80.3199 821.833 80.1648 837.927 80.1273C843.551 80.1186 847.785 80.1029 843.849 80.1481C848.647 80.1257 853.436 80.0458 858.19 79.9087C859.106 79.8252 860.059 79.7612 861.035 79.7177C861.399 79.6345 861.25 79.5529 860.06 79.4921L859.877 79.4816C862.259 79.4573 864.922 79.4296 866.576 79.4175C871.319 79.4331 864.211 79.4434 865.435 79.4573L875.691 79.3983C879.925 79.4338 871.356 79.4729 864.409 79.4921C874.037 79.6066 872.779 79.4262 893.655 79.5042L883.895 79.5285C890.148 79.6032 897.806 79.5719 908.856 79.6309C906.209 79.6032 886.724 79.4921 897.955 79.466C901.131 79.4729 905.316 79.4886 911.421 79.4573C911.454 79.506 917.36 79.5008 924.802 79.5042L924.273 79.5719C932.296 79.5563 931.683 79.5216 936.447 79.5008C940.745 79.4821 945.045 79.5197 949.32 79.6135C963.695 79.6448 939.445 79.5216 956.483 79.5285C968.393 79.5641 976.779 79.5511 991.153 79.5285C999.473 79.5614 989.629 79.5641 992.642 79.5875L1000.09 79.5476C1001.9 79.5476 1001.33 79.5654 1001.03 79.5719C1007.26 79.5563 1001.59 79.5042 1011.42 79.4921C1014.1 79.4262 1031.58 79.6222 1043.8 79.5476C1046.78 79.5653 1042.35 79.5858 1043.26 79.6066C1060.08 79.565 1057.4 79.565 1071.15 79.5216L1082.64 79.6032C1074.21 79.5216 1085.22 79.4921 1094.87 79.4886C1091.89 79.4452 1089.33 79.4175 1087.6 79.407L1102.99 79.4262C1104.76 79.444 1103.2 79.4573 1100.64 79.4729C1101.68 79.4729 1102.69 79.4696 1103.45 79.4696C1108.86 79.5165 1105.98 79.5476 1102 79.565L1096.59 79.5042C1094.31 79.4838 1092.03 79.517 1089.79 79.6032H1094.87C1093.83 79.6066 1093.18 79.6188 1093.66 79.6309C1094.13 79.6448 1095.78 79.6309 1098.29 79.6222L1101.58 79.7073L1102.51 79.6812L1122.31 79.8148C1136.77 79.7923 1149.41 79.7402 1172.13 79.8148C1166.36 79.8479 1170.69 79.8946 1170.22 79.9608C1164.18 79.8669 1152.63 79.9087 1140.9 79.8461C1147.06 79.8774 1145.63 79.8982 1144.03 79.9087L1165.09 79.9416C1168.33 80.0217 1171.6 80.0582 1174.86 80.0509C1170.96 79.9265 1190.61 80.0509 1199.19 80.0596C1195.2 80.1533 1191.17 80.1557 1187.17 80.0665C1198.38 80.1983 1202.25 80.0162 1213.32 80.1342C1210.76 80.1203 1209.42 80.1116 1208.41 80.1255C1214.4 80.1203 1228.8 80.2143 1225.31 80.2321L1222.77 80.2183C1239.59 80.3119 1274 80.4681 1276.73 80.396C1275.56 80.453 1274.38 80.4902 1273.19 80.507L1303.99 80.3544C1301.11 80.415 1310.82 80.6441 1296.73 80.6181C1300.71 80.6528 1305.62 80.691 1314.19 80.707C1311.46 80.6826 1307.64 80.5595 1311.41 80.5733C1321.41 80.707 1318.38 80.6531 1330.83 80.7885C1326.78 80.7555 1331.61 80.6531 1338.11 80.6913C1337.04 80.7034 1338.33 80.8093 1335.91 80.8129L1352.39 80.7711C1348.27 80.7711 1351.38 80.865 1354.88 80.917C1353.25 80.884 1368.83 80.9863 1373.18 80.9986L1366.38 80.9453C1384.52 81.0459 1384.79 80.855 1402.78 80.9522C1400.55 80.973 1397.03 81.0789 1406.17 81.1379C1410.52 81.1024 1425.56 80.9401 1441.59 80.9661L1444.6 81.0194L1456.94 81.0315C1449.08 81.0848 1427.23 81.1808 1415.32 81.1982C1422.03 81.2572 1417.12 81.2467 1427.33 81.2918C1424.43 81.3422 1421.51 81.3439 1418.61 81.297L1442.31 81.4359C1441.45 81.3577 1460.69 81.4445 1459.93 81.3839L1433.93 81.337C1433.04 81.2623 1449.34 81.2102 1466.15 81.297C1470.34 81.3503 1462.66 81.4116 1462.91 81.4359C1465.18 81.4167 1479 81.4637 1480.53 81.4878L1473.28 81.4914C1482.6 81.5609 1488.78 81.4724 1499.93 81.5868C1503.8 81.606 1511.34 81.7274 1512.1 81.691C1505.95 81.5843 1505.26 81.33 1509.67 81.2918C1511.03 81.297 1529.89 81.4619 1534.22 81.5139C1540.52 81.6007 1524.24 81.6215 1529.57 81.6997C1529.89 81.6805 1533.52 81.6719 1534.98 81.6719C1537.3 81.7383 1539.65 81.765 1541.99 81.7517C1543.68 81.6876 1560.09 81.8333 1546.36 81.7084C1555.09 81.7274 1555.52 81.7617 1565.75 81.802C1571.83 81.678 1577.94 81.6438 1584.04 81.6997C1583.45 81.7153 1585.35 81.7466 1586.29 81.762C1604.09 81.8436 1613.6 81.9113 1630.21 81.9687C1631.73 81.9895 1639.67 82.045 1636.23 82.0624C1638.61 82.0537 1640.84 82.038 1645.97 82.0537C1655.83 82.144 1634.52 82.0259 1641.96 82.1214C1642.68 82.0858 1655.33 82.1093 1662.71 82.1006C1660.52 82.0347 1645.8 82.0449 1638.47 82.0449C1638.61 81.9547 1651.51 81.9079 1668.93 81.9206C1682.74 81.9326 1674.81 81.9901 1677.25 81.9831C1703.16 82.0629 1699.49 81.8859 1720.91 81.99C1729.45 82.0542 1721.28 82.1011 1723.12 82.1393C1711.82 82.1445 1705.85 82.0785 1698.26 82.0629L1707.57 82.1098C1704.03 82.1219 1696.49 82.1219 1692.39 82.0921C1699.5 82.1701 1736.26 82.2065 1756.4 82.2065C1759.97 82.1841 1766.04 82.139 1763.13 82.1249L1756.81 82.1511C1750.99 82.1216 1768.59 82.0622 1760.6 82.0622C1767.75 82.0066 1781.31 81.9111 1784.42 81.7585C1784.83 81.7591 1785.23 81.742 1785.6 81.7082C1786.29 81.7377 1784.52 81.8488 1780.6 81.9165C1782.79 81.8733 1786.56 81.8125 1785.6 81.6876ZM425.331 83.0794C429.831 83.1766 435.852 83.2772 432.953 83.2287C428.496 83.2473 424.04 83.1823 419.638 83.0343C420.267 83.024 421.078 83.024 422.004 83.0204C421.987 83.0099 421.904 83.0066 421.805 82.9858C421.176 82.9596 421.72 82.9804 422.652 83.0099L422.669 83.0171H422.884C423.611 83.0412 424.521 83.0656 425.331 83.0794ZM491.678 80.4468L491.513 80.4553C491.447 80.405 491.811 80.3658 491.678 80.4468ZM853.554 79.2579C853.665 79.2593 853.775 79.2622 853.885 79.2666C853.773 79.2655 853.662 79.2626 853.552 79.2579H853.554ZM852.313 79.5703C852.228 79.5739 852.264 79.5703 852.313 79.5703V79.5703ZM887.381 79.4749C890.812 79.4292 894.253 79.4257 897.686 79.4644C894.956 79.468 889.399 79.5026 887.381 79.4749ZM1334.29 80.4658C1333.88 80.471 1333.5 80.4745 1333.29 80.4797C1333.19 80.4658 1331.83 80.4519 1334.29 80.4658Z" fill="url(#paint24_radial_4144_1262)"/>
<path style="mix-blend-mode:screen" opacity="0.4" d="M1099.39 78.8556C1101.47 78.7067 1097.94 78.7743 1094.27 78.6593C1089.34 78.6153 1084.1 78.7203 1079.17 78.7068L1076.13 78.788C1081.99 78.8455 1092.29 78.9131 1099.39 78.8556Z" fill="url(#paint25_radial_4144_1262)"/>
<path style="mix-blend-mode:screen" opacity="0.4" d="M1784.31 71.5252C1660.42 71.3104 1680.29 72.1884 1607.35 71.837C1534.35 71.4834 1477.15 72.0773 1430.4 72.0706C1383.65 72.0706 1339.24 71.4564 1241.68 71.5257C1144.13 71.59 1162.02 72.3817 1105.26 72.0586C1062.55 71.8161 832.335 71.3024 779.954 71.3464V71.4919C784.592 71.5222 790.742 71.5528 798.744 71.59C798.744 71.59 1027.12 72.0891 1115.31 72.4697C1203.52 72.8453 1158.39 71.6208 1344 72.2769C1529.6 72.9333 1405.05 72.1484 1566.51 72.3074C1727.99 72.4697 1656.1 71.8438 1751.63 71.7728C1847.19 71.708 1908.15 71.7248 1784.31 71.5252Z" fill="url(#paint26_radial_4144_1262)"/>
<path style="mix-blend-mode:screen" opacity="0.4" d="M1732.51 71.3478C1552.39 71.1688 1581.27 71.9245 1475.13 71.6216C1369.03 71.3142 1285.79 71.8255 1217.86 71.8255C1149.89 71.8167 1085.34 71.2938 943.424 71.3506C801.48 71.4031 827.534 72.0905 744.973 71.8138C688.913 71.6216 410.674 71.2443 301 71.1992V71.4031C327.103 71.441 636.771 71.8459 759.637 72.1575C887.86 72.4868 822.294 71.4322 1092.2 72.0003C1362.12 72.5697 1180.96 71.8924 1415.83 72.0265C1650.67 72.1575 1546.07 71.6216 1685.03 71.5691C1824.01 71.505 1912.67 71.5284 1732.51 71.3478Z" fill="url(#paint27_radial_4144_1262)"/>
<path style="mix-blend-mode:screen" opacity="0.4" d="M1057.59 75.0677C1057.59 75.0677 1153.32 75.7394 1208.01 75.5566C1262.71 75.3773 1264.42 75.2758 1333.47 75.5786C1402.54 75.8849 1417.46 75.7123 1351.94 75.3993C1286.43 75.0874 1251.86 74.8292 1220.2 75.1878C1201.2 75.3957 1161.9 75.2183 1111.47 75.0897C1061.05 74.9577 1024.82 74.864 1057.59 75.0677Z" fill="url(#paint28_radial_4144_1262)"/>
<path style="mix-blend-mode:screen" opacity="0.4" d="M997.033 77.9791C997.033 77.9791 986.689 77.2126 1055.3 77.4037C1192.53 77.7743 1235.38 77.556 1118.31 77.0919C1002.32 76.6352 980.835 76.598 982.028 77.1461C983.188 77.6892 993.794 77.8533 943.138 77.8533C858.359 77.8538 995.271 78.6726 997.033 77.9791Z" fill="url(#paint29_radial_4144_1262)"/>
<path style="mix-blend-mode:screen" opacity="0.4" d="M281.128 65.3348C281.128 65.3348 308.551 65.8761 326.08 65.4734C343.594 65.0675 336.74 65.2027 374.831 65.404C412.93 65.6071 358.456 65.4041 346.649 65.4734C334.835 65.5411 331.787 66.4262 318.836 66.2183C305.889 66.0182 206.07 64.4211 281.128 65.3348Z" fill="url(#paint30_radial_4144_1262)"/>
<path style="mix-blend-mode:screen" opacity="0.4" d="M244.011 49.3949C224.61 48.9382 205.456 48.3883 185.931 48.1328V49.5472C197.763 49.6319 209.6 49.6994 221.425 49.8243C240.036 50.019 258.683 50.146 277.366 50.2055C280.918 50.2105 284.485 50.2105 288.037 50.2174C273.321 50.0445 258.62 49.7469 244.011 49.3949Z" fill="url(#paint31_radial_4144_1262)"/>
<path style="mix-blend-mode:screen" opacity="0.4" d="M299.554 54.0933C295.013 54.076 290.509 54.0933 286.004 54.1279C268.428 53.7456 250.822 53.5865 233.193 53.375C255.242 53.4495 277.205 53.6948 299.194 53.8504C299.216 53.9377 299.322 54.0273 299.554 54.0933Z" fill="url(#paint32_radial_4144_1262)"/>
<path style="mix-blend-mode:screen" opacity="0.4" d="M270.234 43.8399C282.46 43.4846 294.668 43.5489 307.005 43.6116C320.238 43.6844 333.484 43.7132 346.743 43.6982C351.244 43.6982 351.751 44.808 347.629 45.0246C335.759 45.6404 323.592 45.8095 311.244 45.8638C297.944 45.9095 284.648 45.8823 271.426 45.5997C266.071 45.4878 264.034 44.0227 270.234 43.8399Z" fill="url(#paint33_radial_4144_1262)"/>
<path style="mix-blend-mode:screen" opacity="0.4" d="M233.752 41.9773C243.696 41.5615 254.389 41.5257 264.567 41.5544C274.58 41.5815 285.401 41.6525 294.947 42.2311C297.341 42.3733 297.819 43.0838 294.866 43.1616C284.857 43.4409 274.477 43.4256 264.354 43.5204C254.202 43.6134 243.7 43.7097 233.649 43.3849C229.402 43.2491 229.88 42.1393 233.752 41.9773Z" fill="url(#paint34_radial_4144_1262)"/>
<path style="mix-blend-mode:screen" opacity="0.4" d="M195.571 43.7201C206.051 43.5948 216.383 43.6761 226.863 43.7743C236.446 43.8689 247.492 43.8114 256.663 44.346C260.141 44.5423 259.722 45.2902 256.567 45.4983C254.633 45.6218 252.567 45.7164 250.441 45.7841C257.038 45.8044 263.639 45.8586 270.287 45.9347C275.99 45.9922 281.66 46.0802 287.337 46.1987C288.727 46.2222 290.142 46.2612 291.525 46.3018C292.136 46.3255 295.526 46.4168 294.449 46.4033L294.283 46.4168C297.762 46.4203 300.979 47.0141 299.339 47.6536C307.149 47.6926 314.967 47.7974 322.825 47.9294C338.198 48.1892 353.944 48.4268 369.02 49.0139C373.337 49.1882 371.693 50.1609 367.968 50.2302C352.988 50.5213 337.603 50.2065 322.608 50.0223C307.348 49.8345 292.066 49.6681 276.762 49.5232C272.456 49.4724 271.195 48.7975 272.57 48.3051C258.001 48.2705 243.521 48.2916 228.992 48.0226C221.145 47.884 221.222 46.0448 228.819 45.8917C228.076 45.8782 227.345 45.8732 226.639 45.8732C215.725 45.7834 204.995 45.5906 194.244 45.2555C188.853 45.0972 190.769 43.7743 195.571 43.7201Z" fill="url(#paint35_radial_4144_1262)"/>
<path style="mix-blend-mode:screen" opacity="0.4" d="M204.051 47.9023C222.33 47.9041 240.492 48.0394 258.719 48.2797C267.724 48.3962 276.717 48.529 285.698 48.6781C294.894 48.8422 304.109 49.1365 313.382 48.9505C314.853 48.9235 315.052 49.3328 313.673 49.3921C305.888 49.7185 297.953 49.7184 289.985 49.6677C280.278 49.6069 270.559 49.5638 260.842 49.4945C241.857 49.3524 222.891 49.1759 203.945 48.965C199.984 48.9226 200.047 47.9023 204.051 47.9023Z" fill="url(#paint36_radial_4144_1262)"/>
<path style="mix-blend-mode:screen" opacity="0.4" d="M224.224 50.3243C238.01 50.3649 251.671 50.4749 265.405 50.6729C272.189 50.7769 278.936 50.9013 285.699 51.0418C292.641 51.1804 299.804 51.4291 306.805 51.2616C309.776 51.194 311.001 51.9045 307.982 52.0551C295.836 52.6574 282.242 52.2531 269.839 52.107C254.572 51.9362 239.329 51.7872 224.099 51.5526C219.613 51.4816 219.602 50.3103 224.224 50.3243Z" fill="url(#paint37_radial_4144_1262)"/>
<path style="mix-blend-mode:screen" opacity="0.4" d="M224.015 54.4451C256.779 54.342 289.493 54.4441 322.157 54.7514C338.417 54.9121 354.641 55.1513 370.827 55.4688C386.631 55.7766 402.193 56.3958 418.163 56.3823C419.049 56.3823 418.965 56.6038 418.141 56.6123C402.26 56.9202 386.558 56.5363 370.746 56.291C354.56 56.0484 338.281 55.9221 322.051 55.8019C289.358 55.5651 256.624 55.5686 223.923 55.3705C220.474 55.3503 220.566 54.4603 224.015 54.4451Z" fill="url(#paint38_radial_4144_1262)"/>
<path style="mix-blend-mode:screen" opacity="0.4" d="M264.244 53.3351C282.544 53.6312 300.595 54.3789 319.01 54.4179C322.584 54.4247 322.43 55.3399 318.903 55.3669C300.404 55.4972 282.394 54.8663 264.134 54.477C260.001 54.384 259.96 53.2657 264.244 53.3351Z" fill="url(#paint39_radial_4144_1262)"/>
<path style="mix-blend-mode:screen" opacity="0.4" d="M282.797 55.5871C250.038 55.3045 218.297 54.1119 185.931 53.3438V54.7006C217.48 55.8849 250.365 57.2112 282.675 56.7088C286.789 56.6522 287.066 55.6311 282.797 55.5871Z" fill="url(#paint40_radial_4144_1262)"/>
<path style="mix-blend-mode:screen" opacity="0.4" d="M278.699 57.7726C283.189 57.798 287.68 57.8223 292.172 57.8454C280.17 57.6238 268.168 57.4055 256.111 57.2635C255.186 57.1842 254.253 57.2927 253.379 57.5815C261.822 57.6491 270.262 57.7128 278.699 57.7726Z" fill="url(#paint41_radial_4144_1262)"/>
<path style="mix-blend-mode:screen" opacity="0.4" d="M265.117 43.079C282.644 43.0045 299.957 43.4308 317.434 43.5881C320.104 43.6136 321.258 44.0128 320.927 44.3546C350.072 44.6049 379.18 45.3561 408.005 46.0193C411.969 46.1073 412.083 47.1122 407.898 47.119C371.347 47.1562 334.738 46.3238 298.402 45.7284C295.265 45.6827 293.982 45.1953 294.544 44.8047C284.69 44.7319 274.832 44.6292 264.97 44.4966C259.722 44.4291 259.818 43.1025 265.117 43.079Z" fill="url(#paint42_radial_4144_1262)"/>
<path style="mix-blend-mode:screen" opacity="0.4" d="M251.304 46.1073C277.021 45.884 303.294 46.2241 328.184 47.4134C331.221 47.5589 330.618 48.4336 327.36 48.3811C301.982 47.9243 276.617 47.6199 251.179 47.3288C246.593 47.2831 246.74 46.1513 251.304 46.1073Z" fill="url(#paint43_radial_4144_1262)"/>
<path style="mix-blend-mode:screen" opacity="0.4" d="M270.895 50.1755C311.942 49.722 356.123 48.6832 395.313 51.4681C398.7 51.7149 397.391 52.6461 393.709 52.4382C354.048 50.2574 311.625 51.3402 270.777 51.2827C266.589 51.2768 266.813 50.2237 270.895 50.1755Z" fill="url(#paint44_radial_4144_1262)"/>
<path style="mix-blend-mode:screen" opacity="0.4" d="M251.21 56.1172C271.29 56.1289 291.33 55.9749 311.4 56.0324C330.539 56.0832 349.814 56.2507 368.159 57.2387C370.115 57.3387 369.781 57.9189 367.607 57.8749C329.086 56.9512 289.852 57.5028 251.088 57.2859C246.738 57.2625 246.849 56.1137 251.21 56.1172Z" fill="url(#paint45_radial_4144_1262)"/>
<path style="mix-blend-mode:screen" opacity="0.4" d="M246.856 53.3343C276.486 53.6897 305.958 54.4289 335.657 54.6692C338.779 54.6945 338.676 55.4834 335.566 55.5099C305.818 55.6995 276.291 55.1328 246.713 54.6437C241.903 54.5642 241.929 53.2701 246.856 53.3343Z" fill="url(#paint46_radial_4144_1262)"/>
<path style="mix-blend-mode:screen" opacity="0.4" d="M225.014 50.379C253.674 50.4788 282.3 50.8611 310.658 51.5836C314.096 51.6681 314.125 52.6173 310.562 52.5378C282.12 51.9084 253.523 51.7036 224.889 51.4983C220.715 51.472 220.8 50.3672 225.014 50.379Z" fill="url(#paint47_radial_4144_1262)"/>
<path style="mix-blend-mode:screen" opacity="0.4" d="M59.1153 57.163C139.481 58.3177 220.971 58.2139 301.401 57.6912C306.85 57.6421 308.282 55.7389 302.565 55.5883C222.183 53.3281 139.768 53.9433 58.8768 54.2496C49.9831 54.2702 50.4697 57.0291 59.1153 57.163Z" fill="url(#paint48_radial_4144_1262)"/>
<path style="mix-blend-mode:screen" opacity="0.4" d="M280.783 42.5225C296.591 42.3059 312.431 42.4705 328.254 42.531C330.387 42.5428 330.268 43.0706 328.195 43.0977C312.384 43.2906 296.553 43.3448 280.702 43.2602C277.922 43.2428 278.091 42.558 280.783 42.5225Z" fill="url(#paint49_radial_4144_1262)"/>
<path style="mix-blend-mode:screen" opacity="0.4" d="M543.947 63.0937C513.339 62.7859 489.71 62.2748 497.237 63.3983C504.746 64.5243 496.697 64.5741 478.444 64.2103C478.444 64.2103 429.043 63.0937 382.335 62.0752C335.621 61.055 285.698 60.4376 292.137 61.5609C298.579 62.6869 269.581 61.972 242.198 61.8727C214.815 61.7734 213.207 62.4751 216.961 63.5012C220.719 64.5264 221.256 65.0306 203.544 64.8258C185.828 64.6212 194.954 65.5415 199.778 66.0456C204.625 66.56 202.471 66.658 192.27 66.4551C190.567 66.4179 188.394 66.3637 185.931 66.2977V67.5412C190.156 67.5734 194.3 67.592 198.094 67.592C203.121 67.592 207.533 67.5573 210.732 67.4837C212.577 67.5856 214.429 67.4443 216.23 67.0641C214.936 66.6785 213.581 66.4949 212.222 66.521C211.326 66.5013 210.433 66.4056 209.556 66.2351L209.56 66.2249C209.56 66.2114 209.659 66.1911 210.119 66.1539C211.795 66.0388 216.642 65.9796 220.966 65.8613C223.143 65.802 225.228 65.731 226.816 65.626C228.379 65.5177 229.559 65.3504 229.563 65.1388V65.1321C229.563 65.017 229.243 64.8918 228.6 64.748C227.2 64.5937 225.837 64.2296 224.566 63.6703V63.6618C224.588 63.5247 225.132 63.4605 227.173 63.3979C229.162 63.3286 232.35 63.294 236.814 63.2559C238.774 63.2321 241.658 63.2212 245.144 63.2212C255.976 63.2212 272.56 63.2955 285.742 63.2955C291.56 63.2955 296.726 63.282 300.451 63.2415C302.319 63.2212 303.822 63.194 304.911 63.1569C305.586 63.1884 306.261 63.1175 306.911 62.9471C306.9 62.8844 306.569 62.8422 306.154 62.7964C305.9 62.7892 305.649 62.7499 305.407 62.6798H305.415C305.415 62.6798 305.415 62.6625 305.826 62.6391C307.029 62.5613 310.43 62.5308 314.879 62.5308H315.174C325.039 62.5308 340.112 62.6628 351.434 62.6628H351.445C367.694 62.6628 470.87 65.3935 503.629 65.3985C506.769 65.3985 509.281 65.3715 511.068 65.314C512.094 65.3843 513.126 65.2746 514.109 64.9907C514.105 64.9062 513.822 64.8266 513.34 64.7471C511.277 64.4038 510.398 64.1652 510.398 64.0434V64.0299C510.417 63.9486 510.619 63.9164 511.222 63.8776C511.81 63.8404 512.822 63.8166 514.153 63.8166H514.245C520.242 63.8166 532.092 64.189 545 64.2887V63.1062L543.947 63.0937Z" fill="url(#paint50_radial_4144_1262)"/>
<path style="mix-blend-mode:screen" opacity="0.4" d="M281.201 56.5081C281.201 56.5081 297.748 57.0479 308.311 56.6467C318.876 56.2355 314.743 56.3695 337.713 56.5739C360.688 56.7769 327.844 56.5739 320.714 56.6467C313.603 56.7144 307.502 57.4588 298.096 57.254C290.272 57.0817 235.95 55.5978 281.201 56.5081Z" fill="url(#paint51_radial_4144_1262)"/>
<path style="mix-blend-mode:screen" opacity="0.4" d="M499.616 72.7826C507.132 73.9043 499.079 73.9551 480.83 73.5997C480.83 73.5997 431.417 72.4797 384.714 71.4579C338.004 70.4358 288.077 69.8321 294.516 70.9571C300.958 72.0704 271.964 71.3632 244.581 71.2532C217.207 71.1517 215.594 71.8708 219.352 72.8926C223.113 73.9043 223.65 74.4119 205.926 74.2121C188.214 74.0075 197.341 74.9224 202.169 75.432C207.007 75.9396 204.857 76.0461 194.653 75.8398C192.421 75.7923 189.394 75.7112 185.931 75.6165V76.909C190.968 76.9546 195.973 76.9783 200.484 76.9783C205.507 76.9783 209.916 76.9478 213.111 76.8718C214.957 76.9714 216.809 76.8278 218.612 76.4454C217.317 76.0638 215.963 75.882 214.604 75.9073C213.705 75.8822 212.811 75.786 211.93 75.6197L211.945 75.6097C212.123 75.5628 212.308 75.5395 212.493 75.5404C214.173 75.4237 219.016 75.3594 223.351 75.2478C225.528 75.1903 227.613 75.1193 229.198 75.0053C230.768 74.897 231.945 74.738 231.945 74.5214V74.5181C231.945 74.4031 231.632 74.2728 230.988 74.1391C229.586 73.976 228.22 73.6112 226.941 73.058V73.0445C226.966 72.9142 227.518 72.8415 229.551 72.7754C231.537 72.7146 234.729 72.6807 239.196 72.6368C241.154 72.6183 244.047 72.6081 247.526 72.6081C258.358 72.6081 274.946 72.6809 288.128 72.6809C293.949 72.6809 299.108 72.6635 302.829 72.6268C304.701 72.6081 306.197 72.5794 307.286 72.5402C307.963 72.5736 308.641 72.5027 309.293 72.3304C309.286 72.2661 308.951 72.2187 308.551 72.1764C308.296 72.165 308.044 72.1287 307.798 72.0681C307.933 72.0387 308.071 72.0233 308.209 72.0224C309.408 71.9531 312.817 71.9073 317.262 71.9073H317.557C327.433 71.9073 342.498 72.0546 353.82 72.0546H353.831C370.069 72.0546 473.237 74.7768 506.015 74.7785C509.159 74.7785 511.67 74.7547 513.439 74.6972C514.472 74.7696 515.51 74.6593 516.498 74.3724C516.487 74.2879 516.212 74.2117 515.73 74.1271C513.663 73.7888 512.781 73.5485 512.781 73.4168V73.41C512.81 73.3323 513.005 73.3018 513.601 73.2541C514.2 73.2236 515.211 73.2034 516.535 73.2034H516.627C522.256 73.2034 533.031 73.5247 544.999 73.65V72.464C515.049 72.1584 492.21 71.6745 499.616 72.7826Z" fill="url(#paint52_radial_4144_1262)"/>
<path style="mix-blend-mode:screen" opacity="0.4" d="M511.231 74.2345C510.348 74.0684 509.443 73.9557 508.528 73.8979C509.09 73.988 509.786 74.0956 510.257 74.1842C509.278 74.0695 507.86 73.9482 506.645 73.7754C506.046 73.72 505.472 73.5841 504.96 73.3763C504.681 73.2791 505.222 73.0777 506.072 73.0118C506.822 72.9528 507.314 72.9389 507.876 72.9182C507.239 72.9085 506.601 72.9334 505.971 72.9928C505.484 73.0049 503.948 73.2791 504.831 73.5567C504.489 73.3137 505.81 73.7893 507.373 73.9476C508.919 74.1593 510.369 74.3208 509.31 74.1298C509.523 74.1662 509.734 74.2102 509.94 74.2617C509.608 74.2704 509.014 74.3173 507.858 74.3121C507.949 74.3206 508.992 74.3276 506.36 74.3763C506.242 74.3866 505.969 74.3919 505.782 74.4075H507.221C505.985 74.4976 501.448 74.5319 499.934 74.5584C498.227 74.5497 500.64 74.5325 499.709 74.5117L497.414 74.5497C497.184 74.5048 492.909 74.4717 496.9 74.4509L493.31 74.4353C491.191 74.4076 488.286 74.3919 486.483 74.3919C484.776 74.3763 482.154 74.4214 483.663 74.3919L477.98 74.3866L477.932 74.3676C472.346 74.3173 466.375 74.3416 460.029 74.1854C458.156 74.1785 456.187 74.1676 453.052 74.1246L452.458 74.0777C450.039 74.0621 445.245 73.9476 444.159 73.9771C441.644 73.835 432.479 73.7994 428.235 73.7237L428.027 73.7758C425.116 73.7342 422.307 73.7116 418.658 73.6803L418.84 73.7237C415.683 73.7237 410.825 73.5796 405.875 73.5154C406.239 73.5016 407.48 73.5293 408.341 73.5467C402.525 73.3559 395.826 73.4495 390.529 73.2864C389.186 73.2812 388.217 73.2656 387.291 73.2448H387.623C387.484 73.2448 387.286 73.2343 387.072 73.2343C386.489 73.2165 385.894 73.1961 385.247 73.1822C385.793 73.203 386.312 73.2169 386.778 73.2274C385.756 73.2169 384.177 73.1961 382.641 73.1874L382.031 73.1232H381.683C380.195 73.0781 380.447 73.1302 381.228 73.1753C380.436 73.1719 379.714 73.1719 379.163 73.1753C378.018 73.0781 375.128 73.1476 373.539 73.0347C372.555 73.0504 366.851 72.9601 365.24 73.0121C363.544 72.9706 361.859 72.9393 360.318 72.9393L359.644 72.8646L355.845 72.8959C353.614 72.8161 352.699 72.7831 354.989 72.7692C349.499 72.7623 350.553 72.7292 345.866 72.731L346.14 72.6964C344.492 72.672 341.801 72.6876 340.832 72.6374C337.21 72.5055 322.569 72.353 313.135 72.141C314.89 72.285 308.785 72.0212 308.325 72.1115C307.79 72.076 306.484 72.0369 308.042 72.0369C303.178 71.9951 300.802 71.891 297.394 71.9258C296.853 71.884 298.453 71.8981 297.977 71.8755C297.586 71.8789 296.409 71.8789 295.917 71.8529C296.421 71.8254 296.927 71.8213 297.431 71.8407C295.451 71.7129 293.454 71.7462 291.486 71.9397C288.993 71.8686 287.736 71.8668 285.884 71.8927C285.023 71.8615 283.578 71.8199 286.671 71.8407C284.948 71.8112 276.044 71.7019 275.814 71.7817C275.247 71.7609 273.38 71.773 272.925 71.7817C269.03 71.773 268.682 71.766 264.867 71.7609L265.921 71.773C264.396 71.8529 262.737 71.7886 259.661 71.7886L259.741 71.773C252.689 71.6949 256.686 71.8025 249.725 71.707L250.083 71.7591C249.431 71.8668 243.919 71.6724 239.869 71.6949L241.314 71.7349C239.104 71.7591 235.155 71.5649 232.934 71.5457C232.441 71.5387 233.705 71.53 234.379 71.53C228.547 71.4467 233.619 71.589 229.264 71.5926C228.467 71.5544 230.312 71.5059 227.37 71.4936C225.914 71.4607 218.889 71.5926 214.828 71.5544C215.732 71.5787 216.599 71.5977 214.576 71.6308C212.971 71.655 210.997 71.6308 208.546 71.6949C207.956 71.6911 207.369 71.7551 206.812 71.884C207.423 72.2659 207.626 72.0889 207.947 72.1826C208.043 72.1877 208.107 72.1964 208.182 72.2018C206.155 72.2937 201.146 72.3439 199.846 72.3944C197.652 72.2467 185.249 72.5384 185.276 72.3683L178.037 72.3752L178.219 72.3614C173.574 72.3493 171.953 72.3909 170.3 72.4222C169.23 72.4117 170.016 72.3944 170.118 72.3927C163.333 72.3493 162.675 72.3596 156.971 72.4222L156.399 72.3719C154.847 72.4014 146.602 72.2693 139.94 72.3283C140.184 72.3002 140.432 72.2909 140.679 72.3006C133.188 72.344 122.754 72.1305 119.993 72.3283L115.06 72.3752C121.454 72.3752 114.101 72.4534 116.735 72.4794C114.225 72.4984 110.228 72.4394 113.31 72.4222L113.808 72.4309C114.937 72.3283 105.823 72.4309 105.978 72.3683C102.854 72.3927 99.718 72.4152 96.5665 72.4534C94.9502 72.4794 93.4204 72.4915 91.7137 72.5661C90.9806 72.58 89.2684 72.7102 89.2843 72.9393C89.3432 73.1337 89.8837 73.2256 90.2795 73.3315C91.9704 73.6994 94.2979 74.0153 95.8871 74.2896C97.3157 74.522 95.3466 74.6435 92.6018 74.7754C93.078 74.7806 93.5541 74.7893 93.993 74.7893C92.815 74.8534 91.5274 74.8959 90.2368 74.9314C89.1667 74.9471 88.7923 74.9192 91.5263 74.836C90.0494 74.8447 86.9239 75.0007 86.8445 75.0094C81.221 75.0983 88.9265 74.8827 87.1976 74.914L84.8914 74.9661H85.4265C83.5592 75.0302 83.4148 75.0668 79.9422 75.1189C77.7057 75.1292 78.7705 75.0834 77.8876 75.098C77.8876 75.098 77.5826 75.0979 76.5452 75.1189C74.8061 75.1397 73.0833 75.1623 71.2746 75.2126C72.0453 75.2126 72.7567 75.2195 73.4791 75.2264C71.2212 75.289 68.4384 75.3635 71.0607 75.348C70.5897 75.3444 69.9155 75.3532 69.0435 75.3878C68.8027 75.407 68.6154 75.407 68.1395 75.4589C68.0847 75.4658 67.7916 75.4987 67.7864 75.5854L67.856 75.622C68.0153 75.6754 68.1869 75.7118 68.3641 75.7296C68.8025 75.7852 69.2846 75.8337 69.7339 75.8683C71.6655 76.0105 73.9235 76.0994 75.7266 76.2467C80.4781 76.4896 72.8266 76.6597 72.543 76.6528C69.52 76.7656 66.347 76.7864 62.4616 76.809C63.43 76.809 64.0455 76.8836 60.6584 76.8872C61.8517 76.745 54.4624 76.8516 51.739 76.745C54.1682 76.8127 42.14 76.745 45.9655 76.8516C45.1929 76.85 44.4211 76.8186 43.6542 76.7578C39.8125 76.7821 35.5158 76.74 31 76.6954V77.1241C36.19 77.1569 41.3856 77.1761 45.9389 77.1536L45.2968 77.1274C51.6747 77.0919 50.4548 77.171 57.3507 77.1397C58.7525 77.1153 60.5663 77.0963 62.4339 77.091C60.6573 77.1266 65.8035 77.1171 63.4826 77.1674C70.4489 77.0608 66.9344 77.1015 71.4711 76.9522L72.5732 76.973C74.0928 76.8811 74.2319 76.9227 77.6777 76.7006C74.8366 76.9348 80.2781 76.5939 76.9928 76.8655C77.9604 76.8552 78.92 76.7505 79.8395 76.5549C80.4334 76.291 79.2294 76.1488 78.6568 76.075C77.2336 75.9151 76.0244 75.8701 74.9437 75.8084C73.2794 75.7251 71.8617 75.6592 70.9842 75.5655C72.445 75.5638 74.7511 75.5689 78.5125 75.5204C77.924 75.5238 77.8972 75.5342 77.3194 75.5445C79.5291 75.5342 81.5731 75.4379 84.3394 75.4379C85.784 75.3512 87.8814 75.372 88.2186 75.2853C86.4261 75.3338 84.6123 75.372 82.8305 75.4097C85.8697 75.3245 88.6465 75.2153 93.6763 75.059C93.3391 75.0868 91.8956 75.1737 90.8724 75.2152C92.4188 75.1875 93.6976 75.1024 95.2652 75.0365C95.0567 75.1806 88.6841 75.3297 85.4577 75.4287C87.1162 75.4374 91.6644 75.2291 90.1286 75.3558C91.263 75.2691 92.7344 75.2291 94.4414 75.1563C95.9342 75.0695 98.722 74.9723 99.2356 74.5245L99.5095 74.5904C100.013 74.4378 99.151 74.1618 98.2787 74.0248C98.4979 74.0507 98.717 74.0838 98.9315 74.1184C97.9059 73.8785 96.8589 73.6791 95.7961 73.5215C96.7377 73.7054 94.9828 73.4859 96.1493 73.7193C93.3777 73.3445 92.9495 73.1899 92.6873 73.0528C92.6659 73.0441 92.6659 73.0351 92.6553 73.0251C92.9495 73.0216 93.747 72.9852 94.7581 72.9592C93.5007 72.9869 92.0561 73.0216 93.1637 72.9556C94.6138 72.9105 96.7859 72.9002 97.8187 72.9105C103.624 72.8376 96.8983 72.8671 99.3597 72.8186C101.382 72.8542 102.228 72.7653 104.817 72.7266L104.855 72.7717C111.635 72.7612 106.61 72.6501 112.695 72.6651L110.147 72.7449L113.288 72.712L112.657 72.771C116.076 72.7207 117.162 72.731 120.538 72.7449C119.751 72.712 120.966 72.6582 123.962 72.653C124.994 72.7092 126.031 72.7242 127.066 72.6981C126.119 72.7294 125.059 72.7641 123.213 72.7207C123.026 72.731 122.261 72.7518 122.074 72.7641C124.268 72.8023 127.606 72.7779 129.147 72.7848C128.553 72.7779 127.858 72.771 127.478 72.7641L133.658 72.6981C134.617 72.7258 133.84 72.7328 133.069 72.7514C134.332 72.7514 135.188 72.7255 137.039 72.7255C136.055 72.8205 135.058 72.8514 134.064 72.8175L139.94 72.7845C140.325 72.8071 142.941 72.8417 142.203 72.854C145.44 72.8817 150.186 72.7863 154.515 72.8261C154.723 72.8176 155.178 72.8176 156.104 72.8104C160.17 72.8261 163.76 72.8815 168.576 72.8348L171.31 72.9094C175.082 72.8974 167.607 72.8176 173.9 72.7863C174.974 72.7182 176.058 72.7462 177.121 72.8696C179.331 72.8366 183.172 72.763 187.276 72.8175C185.922 72.8353 184.858 72.8227 183.59 72.8261L186.714 72.8661C182.953 72.9407 180.224 72.9164 183.162 72.9727C183.59 72.8355 195.308 72.9414 195.725 72.787L197.79 72.8111C197.207 72.8183 197.111 72.8183 196.527 72.8183C200.573 72.8668 199.476 72.7117 204.682 72.6742C206.501 72.6654 207.871 72.6498 206.597 72.6949C208.15 72.6726 209.698 72.5927 211.237 72.4556C211.533 72.3721 211.841 72.3081 212.157 72.2645C212.275 72.1814 212.226 72.0998 211.841 72.039L211.782 72.0285C212.553 72.0042 213.414 71.9764 213.949 71.9643C215.483 71.98 213.184 71.9903 213.58 72.0042L216.897 71.9452C218.267 71.9807 215.495 72.0198 213.248 72.039C216.362 72.1534 215.956 71.9731 222.708 72.0511L219.551 72.0754C221.574 72.1501 224.051 72.1188 227.625 72.1778C226.769 72.1501 220.466 72.039 224.099 72.0129C225.127 72.0198 226.48 72.0354 228.455 72.0042C228.466 72.0528 230.376 72.0477 232.784 72.0511L232.613 72.1188C235.208 72.1032 235.01 72.0685 236.551 72.0477C237.941 72.0289 239.332 72.0666 240.715 72.1604C245.364 72.1917 237.52 72.0685 243.032 72.0754C246.884 72.111 249.597 72.098 254.247 72.0754C256.938 72.1083 253.753 72.111 254.728 72.1344L257.136 72.0945C257.724 72.0945 257.537 72.1122 257.441 72.1188C259.458 72.1032 257.623 72.0511 260.801 72.039C261.668 71.9731 267.323 72.1691 271.278 72.0945C272.241 72.1122 270.807 72.1327 271.101 72.1535C276.542 72.1119 275.676 72.1119 280.122 72.0685L283.841 72.1501C281.112 72.0685 284.676 72.039 287.795 72.0354C286.832 71.9921 286.003 71.9644 285.446 71.9539L290.422 71.9731C290.995 71.9908 290.492 72.0042 289.662 72.0198C290 72.0198 290.326 72.0164 290.572 72.0164C292.322 72.0634 291.391 72.0944 290.101 72.1119L288.352 72.0511C287.615 72.0307 286.877 72.0639 286.152 72.1501H287.796C287.459 72.1534 287.25 72.1657 287.406 72.1778C287.555 72.1916 288.09 72.1778 288.904 72.1691L289.968 72.2542L290.268 72.2281L296.673 72.3617C301.349 72.3391 305.437 72.2871 312.789 72.3617C310.922 72.3948 312.323 72.4415 312.168 72.5076C310.215 72.4138 306.481 72.4556 302.687 72.393C304.677 72.4243 304.217 72.4451 303.698 72.4556L310.51 72.4884C311.559 72.5685 312.615 72.6051 313.672 72.5977C312.409 72.4733 318.766 72.5977 321.543 72.6064C320.25 72.7002 318.946 72.7025 317.652 72.6134C321.28 72.7452 322.532 72.5631 326.112 72.6811C325.283 72.6672 324.849 72.6585 324.523 72.6724C326.46 72.6672 331.12 72.7612 329.991 72.779L329.167 72.7651C334.609 72.8588 345.74 73.015 346.622 72.9429C346.246 72.9999 345.863 73.037 345.477 73.0539L355.44 72.9013C354.509 72.9619 357.65 73.1909 353.091 73.165C354.381 73.1996 355.97 73.2378 358.741 73.2538C357.859 73.2295 356.623 73.1063 357.843 73.1202C361.075 73.2538 360.095 73.2 364.124 73.3354C362.813 73.3023 364.376 73.2 366.479 73.2382C366.131 73.2503 366.548 73.3562 365.766 73.3597L371.096 73.318C369.763 73.318 370.769 73.4118 371.904 73.4639C371.374 73.4308 376.414 73.5332 377.821 73.5455L375.622 73.4922C381.491 73.5927 381.577 73.4019 387.399 73.4991C386.676 73.5199 385.536 73.6258 388.494 73.6848C389.901 73.6493 394.765 73.487 399.95 73.513L400.924 73.5663L404.915 73.5783C402.374 73.6316 395.306 73.7276 391.453 73.745C393.625 73.804 392.036 73.7935 395.338 73.8387C394.399 73.889 393.457 73.8908 392.518 73.8438L400.186 73.9828C399.907 73.9046 406.13 73.9913 405.884 73.9307L397.473 73.8838C397.184 73.8092 402.459 73.7571 407.897 73.8438C409.25 73.8971 406.768 73.9585 406.848 73.9828C407.581 73.9636 412.053 74.0105 412.546 74.0347L410.202 74.0383C413.216 74.1077 415.216 74.0192 418.822 74.1337C420.074 74.1529 422.514 74.2743 422.76 74.2378C420.77 74.1312 420.545 73.8769 421.974 73.8387C422.412 73.8438 428.512 74.0088 429.914 74.0608C431.953 74.1475 426.688 74.1684 428.411 74.2465C428.512 74.2274 429.69 74.2188 430.16 74.2188C430.912 74.2851 431.671 74.3118 432.429 74.2986C432.975 74.2345 438.283 74.3802 433.841 74.2553C436.667 74.2743 436.806 74.3086 440.113 74.3489C442.079 74.2249 444.056 74.1907 446.03 74.2465C445.838 74.2622 446.453 74.2935 446.758 74.3089C452.515 74.3905 455.592 74.4582 460.964 74.5156C461.457 74.5364 464.024 74.5918 462.911 74.6093C463.682 74.6006 464.404 74.5849 466.062 74.6006C469.251 74.6908 462.359 74.5728 464.767 74.6682C464.997 74.6327 469.09 74.6562 471.477 74.6475C470.77 74.5815 466.008 74.5918 463.638 74.5918C463.681 74.5015 467.854 74.4548 473.488 74.4674C477.956 74.4795 475.393 74.5369 476.18 74.53C484.563 74.6098 483.376 74.4328 490.305 74.5369C493.066 74.6011 490.423 74.648 491.018 74.6862C487.363 74.6913 485.431 74.6254 482.976 74.6098L485.989 74.6567C484.844 74.6688 482.404 74.6688 481.077 74.6389C483.378 74.7169 495.268 74.7534 501.784 74.7534C502.94 74.731 504.904 74.6859 503.962 74.6718L501.918 74.6979C500.035 74.6684 505.728 74.6091 503.143 74.6091C505.455 74.5534 509.842 74.458 510.848 74.3054C510.979 74.306 511.108 74.2889 511.228 74.2551C511.453 74.2846 510.88 74.3956 509.612 74.4633C510.321 74.4202 511.541 74.3594 511.231 74.2345ZM71.2179 75.6263C72.6734 75.7235 74.6209 75.8241 73.6835 75.7756C72.2417 75.7942 70.8003 75.7291 69.3764 75.5812C69.5797 75.5708 69.8421 75.5708 70.1416 75.5673C70.1361 75.5568 70.1092 75.5534 70.0772 75.5326C69.8739 75.5065 70.0498 75.5273 70.3511 75.5568L70.3566 75.5639H70.4262C70.6615 75.5881 70.9557 75.6124 71.2179 75.6263ZM92.6794 72.9937L92.6259 73.0022C92.6046 72.9519 92.7224 72.9126 92.6794 72.9937ZM209.737 71.8048C209.773 71.8061 209.808 71.809 209.844 71.8135C209.808 71.8124 209.772 71.8094 209.736 71.8048H209.737ZM209.335 72.1172C209.308 72.1208 209.319 72.1172 209.335 72.1172V72.1172ZM220.679 72.0218C221.789 71.9761 222.902 71.9726 224.012 72.0113C223.129 72.0148 221.332 72.0495 220.679 72.0218ZM365.244 73.0127C365.11 73.0178 364.987 73.0214 364.917 73.0265C364.885 73.0127 364.447 72.9988 365.244 73.0127Z" fill="url(#paint53_radial_4144_1262)"/>
<path style="mix-blend-mode:screen" opacity="0.4" d="M289.257 71.4024C289.93 71.2536 288.79 71.3212 287.602 71.2062C286.006 71.1622 284.311 71.2671 282.719 71.2536L281.733 71.3349C283.631 71.3924 286.962 71.46 289.257 71.4024Z" fill="url(#paint54_radial_4144_1262)"/>
<path style="mix-blend-mode:screen" opacity="0.4" d="M510.813 64.0721C470.737 63.8573 477.164 64.7352 453.572 64.3839C429.958 64.0303 411.455 64.6242 396.331 64.6175C381.21 64.6175 366.844 64.0033 335.287 64.0726C303.73 64.1369 309.518 64.9286 291.157 64.6055C277.343 64.3629 202.874 63.8493 185.93 63.8933V64.0388C187.43 64.0691 189.419 64.0996 192.008 64.1369C192.008 64.1369 265.881 64.636 294.408 65.0166C322.942 65.3922 308.344 64.1677 368.383 64.8238C428.42 65.4802 388.133 64.6952 440.359 64.8543C492.596 65.0166 469.339 64.3907 500.241 64.3196C531.151 64.2549 550.871 64.2717 510.813 64.0721Z" fill="url(#paint55_radial_4144_1262)"/>
<path style="mix-blend-mode:screen" opacity="0.4" d="M494.055 63.8946C435.792 63.7157 445.134 64.4714 410.802 64.1685C376.48 63.8611 349.555 64.3724 327.579 64.3724C305.595 64.3636 284.712 63.8407 238.808 63.8975C192.892 63.95 201.32 64.6374 174.614 64.3607C156.48 64.1685 66.4766 63.7911 31 63.7461V63.95C39.4438 63.9878 139.613 64.3928 179.357 64.7044C220.834 65.0337 199.625 63.9791 286.932 64.5472C374.245 65.1166 315.643 64.4393 391.62 64.5734C467.584 64.7044 433.749 64.1685 478.696 64.116C523.654 64.0518 552.334 64.0753 494.055 63.8946Z" fill="url(#paint56_radial_4144_1262)"/>
<path style="mix-blend-mode:screen" opacity="0.4" d="M275.738 67.6146C275.738 67.6146 306.703 68.2862 324.393 68.1035C342.087 67.9242 342.642 67.8226 364.977 68.1255C387.319 68.4318 392.147 68.2592 370.952 67.9462C349.761 67.6343 338.579 67.376 328.339 67.7347C322.19 67.9425 309.479 67.7651 293.167 67.6366C276.856 67.5046 265.137 67.4109 275.738 67.6146Z" fill="url(#paint57_radial_4144_1262)"/>
<path style="mix-blend-mode:screen" opacity="0.4" d="M256.149 70.526C256.149 70.526 252.803 69.7595 274.997 69.9506C319.387 70.3212 333.247 70.1029 295.379 69.6388C257.858 69.1821 250.909 69.1449 251.295 69.693C251.67 70.2361 255.101 70.4002 238.715 70.4002C211.291 70.4007 255.579 71.2195 256.149 70.526Z" fill="url(#paint58_radial_4144_1262)"/>
<defs>
<linearGradient id="paint0_linear_4144_1262" x1="964" y1="-79.8404" x2="983.346" y2="199.508" gradientUnits="userSpaceOnUse">
<stop stop-color="#1899FF"/>
<stop offset="0.7912" stop-color="#7AE5E6"/>
</linearGradient>
<radialGradient id="paint1_radial_4144_1262" cx="0" cy="0" r="1" gradientUnits="userSpaceOnUse" gradientTransform="translate(1196.88 73.1052) scale(147.282 29.0155)">
<stop stop-color="#FFF0B6"/>
<stop offset="0.4877" stop-color="#57905D"/>
<stop offset="1" stop-color="#595016"/>
</radialGradient>
<radialGradient id="paint2_radial_4144_1262" cx="0" cy="0" r="1" gradientUnits="userSpaceOnUse" gradientTransform="translate(918.604 56.5533) scale(125.228 24.6707)">
<stop stop-color="#FFF0B6"/>
<stop offset="0.4877" stop-color="#57905D"/>
<stop offset="1" stop-color="#595016"/>
</radialGradient>
<radialGradient id="paint3_radial_4144_1262" cx="0" cy="0" r="1" gradientUnits="userSpaceOnUse" gradientTransform="translate(1028.64 61.2039) scale(72.5445 14.2918)">
<stop stop-color="#FFF0B6"/>
<stop offset="0.4877" stop-color="#57905D"/>
<stop offset="1" stop-color="#595016"/>
</radialGradient>
<radialGradient id="paint4_radial_4144_1262" cx="0" cy="0" r="1" gradientUnits="userSpaceOnUse" gradientTransform="translate(1158.65 52.1751) scale(91.9341 18.1117)">
<stop stop-color="#FFF0B6"/>
<stop offset="0.4877" stop-color="#57905D"/>
<stop offset="1" stop-color="#595016"/>
</radialGradient>
<radialGradient id="paint5_radial_4144_1262" cx="0" cy="0" r="1" gradientUnits="userSpaceOnUse" gradientTransform="translate(1020.63 50.0309) scale(72.5179 14.2865)">
<stop stop-color="#FFF0B6"/>
<stop offset="0.4877" stop-color="#57905D"/>
<stop offset="1" stop-color="#595016"/>
</radialGradient>
<radialGradient id="paint6_radial_4144_1262" cx="0" cy="0" r="1" gradientUnits="userSpaceOnUse" gradientTransform="translate(1074.76 54.4556) scale(197.761 38.9604)">
<stop stop-color="#FFF0B6"/>
<stop offset="0.4877" stop-color="#57905D"/>
<stop offset="1" stop-color="#595016"/>
</radialGradient>
<radialGradient id="paint7_radial_4144_1262" cx="0" cy="0" r="1" gradientUnits="userSpaceOnUse" gradientTransform="translate(1002.16 56.2501) scale(124.198 24.4679)">
<stop stop-color="#FFF0B6"/>
<stop offset="0.4877" stop-color="#57905D"/>
<stop offset="1" stop-color="#595016"/>
</radialGradient>
<radialGradient id="paint8_radial_4144_1262" cx="0" cy="0" r="1" gradientUnits="userSpaceOnUse" gradientTransform="translate(1025.13 58.8032) scale(97.3255 19.174)">
<stop stop-color="#FFF0B6"/>
<stop offset="0.4877" stop-color="#57905D"/>
<stop offset="1" stop-color="#595016"/>
</radialGradient>
<radialGradient id="paint9_radial_4144_1262" cx="0" cy="0" r="1" gradientUnits="userSpaceOnUse" gradientTransform="translate(1194.7 63.0189) scale(215.809 42.5162)">
<stop stop-color="#FFF0B6"/>
<stop offset="0.4877" stop-color="#57905D"/>
<stop offset="1" stop-color="#595016"/>
</radialGradient>
<radialGradient id="paint10_radial_4144_1262" cx="0" cy="0" r="1" gradientUnits="userSpaceOnUse" gradientTransform="translate(1105.78 61.8113) scale(66.3247 13.0665)">
<stop stop-color="#FFF0B6"/>
<stop offset="0.4877" stop-color="#57905D"/>
<stop offset="1" stop-color="#595016"/>
</radialGradient>
<radialGradient id="paint11_radial_4144_1262" cx="0" cy="0" r="1" gradientUnits="userSpaceOnUse" gradientTransform="translate(921.319 62.4735) scale(118.709 23.3865)">
<stop stop-color="#FFF0B6"/>
<stop offset="0.4877" stop-color="#57905D"/>
<stop offset="1" stop-color="#595016"/>
</radialGradient>
<radialGradient id="paint12_radial_4144_1262" cx="0" cy="0" r="1" gradientUnits="userSpaceOnUse" gradientTransform="translate(1048.44 65.0072) scale(42.4136 8.35597)">
<stop stop-color="#FFF0B6"/>
<stop offset="0.4877" stop-color="#57905D"/>
<stop offset="1" stop-color="#595016"/>
</radialGradient>
<radialGradient id="paint13_radial_4144_1262" cx="0" cy="0" r="1" gradientUnits="userSpaceOnUse" gradientTransform="translate(1244.04 52.5484) scale(164.021 32.3134)">
<stop stop-color="#FFF0B6"/>
<stop offset="0.4877" stop-color="#57905D"/>
<stop offset="1" stop-color="#595016"/>
</radialGradient>
<radialGradient id="paint14_radial_4144_1262" cx="0" cy="0" r="1" gradientUnits="userSpaceOnUse" gradientTransform="translate(1098.55 54.6663) scale(90.1091 17.7521)">
<stop stop-color="#FFF0B6"/>
<stop offset="0.4877" stop-color="#57905D"/>
<stop offset="1" stop-color="#595016"/>
</radialGradient>
<radialGradient id="paint15_radial_4144_1262" cx="0" cy="0" r="1" gradientUnits="userSpaceOnUse" gradientTransform="translate(1233.08 58.4903) scale(141.677 27.9114)">
<stop stop-color="#FFF0B6"/>
<stop offset="0.4877" stop-color="#57905D"/>
<stop offset="1" stop-color="#595016"/>
</radialGradient>
<radialGradient id="paint16_radial_4144_1262" cx="0" cy="0" r="1" gradientUnits="userSpaceOnUse" gradientTransform="translate(1159.39 64.4016) scale(132.914 26.1852)">
<stop stop-color="#FFF0B6"/>
<stop offset="0.4877" stop-color="#57905D"/>
<stop offset="1" stop-color="#595016"/>
</radialGradient>
<radialGradient id="paint17_radial_4144_1262" cx="0" cy="0" r="1" gradientUnits="userSpaceOnUse" gradientTransform="translate(1103.36 61.8928) scale(103.71 20.4315)">
<stop stop-color="#FFF0B6"/>
<stop offset="0.4877" stop-color="#57905D"/>
<stop offset="1" stop-color="#595016"/>
</radialGradient>
<radialGradient id="paint18_radial_4144_1262" cx="0" cy="0" r="1" gradientUnits="userSpaceOnUse" gradientTransform="translate(1032.19 58.9139) scale(100.007 19.702)">
<stop stop-color="#FFF0B6"/>
<stop offset="0.4877" stop-color="#57905D"/>
<stop offset="1" stop-color="#595016"/>
</radialGradient>
<radialGradient id="paint19_radial_4144_1262" cx="0" cy="0" r="1" gradientUnits="userSpaceOnUse" gradientTransform="translate(759.529 63.4542) scale(277.477 67.8177)">
<stop stop-color="#FFF0B6"/>
<stop offset="0.4877" stop-color="#57905D"/>
<stop offset="1" stop-color="#595016"/>
</radialGradient>
<radialGradient id="paint20_radial_4144_1262" cx="0" cy="0" r="1" gradientUnits="userSpaceOnUse" gradientTransform="translate(1145.72 50.311) scale(55.8889 11.0105)">
<stop stop-color="#FFF0B6"/>
<stop offset="0.4877" stop-color="#57905D"/>
<stop offset="1" stop-color="#595016"/>
</radialGradient>
<radialGradient id="paint21_radial_4144_1262" cx="0" cy="0" r="1" gradientUnits="userSpaceOnUse" gradientTransform="translate(1314.1 72.373) scale(503.797 99.2515)">
<stop stop-color="#FFF0B6"/>
<stop offset="0.4877" stop-color="#57905D"/>
<stop offset="1" stop-color="#595016"/>
</radialGradient>
<radialGradient id="paint22_radial_4144_1262" cx="0" cy="0" r="1" gradientUnits="userSpaceOnUse" gradientTransform="translate(1146.73 64.2055) scale(90.0411 17.7388)">
<stop stop-color="#FFF0B6"/>
<stop offset="0.4877" stop-color="#57905D"/>
<stop offset="1" stop-color="#595016"/>
</radialGradient>
<radialGradient id="paint23_radial_4144_1262" cx="0" cy="0" r="1" gradientUnits="userSpaceOnUse" gradientTransform="translate(1321.47 81.7638) scale(503.79 99.2505)">
<stop stop-color="#FFF0B6"/>
<stop offset="0.4877" stop-color="#57905D"/>
<stop offset="1" stop-color="#595016"/>
</radialGradient>
<radialGradient id="paint24_radial_4144_1262" cx="0" cy="0" r="1" gradientUnits="userSpaceOnUse" gradientTransform="translate(924.633 82.8035) scale(608.968 90.7723)">
<stop stop-color="#FFF0B6"/>
<stop offset="0.4877" stop-color="#57905D"/>
<stop offset="1" stop-color="#595016"/>
</radialGradient>
<radialGradient id="paint25_radial_4144_1262" cx="0" cy="0" r="1" gradientUnits="userSpaceOnUse" gradientTransform="translate(1088.07 78.7631) scale(8.4521 1.66507)">
<stop stop-color="#FFF0B6"/>
<stop offset="0.4877" stop-color="#57905D"/>
<stop offset="1" stop-color="#595016"/>
</radialGradient>
<radialGradient id="paint26_radial_4144_1262" cx="0" cy="0" r="1" gradientUnits="userSpaceOnUse" gradientTransform="translate(1311.57 71.9429) scale(383.439 75.5411)">
<stop stop-color="#FFF0B6"/>
<stop offset="0.4877" stop-color="#57905D"/>
<stop offset="1" stop-color="#595016"/>
</radialGradient>
<radialGradient id="paint27_radial_4144_1262" cx="0" cy="0" r="1" gradientUnits="userSpaceOnUse" gradientTransform="translate(1045.03 71.7128) scale(557.649 65.0335)">
<stop stop-color="#FFF0B6"/>
<stop offset="0.4877" stop-color="#57905D"/>
<stop offset="1" stop-color="#595016"/>
</radialGradient>
<radialGradient id="paint28_radial_4144_1262" cx="0" cy="0" r="1" gradientUnits="userSpaceOnUse" gradientTransform="translate(1219.5 75.3444) scale(123.36 24.3025)">
<stop stop-color="#FFF0B6"/>
<stop offset="0.4877" stop-color="#57905D"/>
<stop offset="1" stop-color="#595016"/>
</radialGradient>
<radialGradient id="paint29_radial_4144_1262" cx="0" cy="0" r="1" gradientUnits="userSpaceOnUse" gradientTransform="translate(1050.85 77.5003) scale(95.767 18.8668)">
<stop stop-color="#FFF0B6"/>
<stop offset="0.4877" stop-color="#57905D"/>
<stop offset="1" stop-color="#595016"/>
</radialGradient>
<radialGradient id="paint30_radial_4144_1262" cx="0" cy="0" r="1" gradientUnits="userSpaceOnUse" gradientTransform="translate(320.793 65.652) scale(47.6419 29.0155)">
<stop stop-color="#FFF0B6"/>
<stop offset="0.4877" stop-color="#57905D"/>
<stop offset="1" stop-color="#595016"/>
</radialGradient>
<radialGradient id="paint31_radial_4144_1262" cx="0" cy="0" r="1" gradientUnits="userSpaceOnUse" gradientTransform="translate(230.779 49.1001) scale(40.508 24.6707)">
<stop stop-color="#FFF0B6"/>
<stop offset="0.4877" stop-color="#57905D"/>
<stop offset="1" stop-color="#595016"/>
</radialGradient>
<radialGradient id="paint32_radial_4144_1262" cx="0" cy="0" r="1" gradientUnits="userSpaceOnUse" gradientTransform="translate(266.373 53.7508) scale(23.4663 14.2918)">
<stop stop-color="#FFF0B6"/>
<stop offset="0.4877" stop-color="#57905D"/>
<stop offset="1" stop-color="#595016"/>
</radialGradient>
<radialGradient id="paint33_radial_4144_1262" cx="0" cy="0" r="1" gradientUnits="userSpaceOnUse" gradientTransform="translate(308.427 44.722) scale(29.7383 18.1117)">
<stop stop-color="#FFF0B6"/>
<stop offset="0.4877" stop-color="#57905D"/>
<stop offset="1" stop-color="#595016"/>
</radialGradient>
<radialGradient id="paint34_radial_4144_1262" cx="0" cy="0" r="1" gradientUnits="userSpaceOnUse" gradientTransform="translate(263.783 42.5777) scale(23.4577 14.2865)">
<stop stop-color="#FFF0B6"/>
<stop offset="0.4877" stop-color="#57905D"/>
<stop offset="1" stop-color="#595016"/>
</radialGradient>
<radialGradient id="paint35_radial_4144_1262" cx="0" cy="0" r="1" gradientUnits="userSpaceOnUse" gradientTransform="translate(281.291 47.0025) scale(63.9705 38.9604)">
<stop stop-color="#FFF0B6"/>
<stop offset="0.4877" stop-color="#57905D"/>
<stop offset="1" stop-color="#595016"/>
</radialGradient>
<radialGradient id="paint36_radial_4144_1262" cx="0" cy="0" r="1" gradientUnits="userSpaceOnUse" gradientTransform="translate(257.807 48.797) scale(40.1748 24.4679)">
<stop stop-color="#FFF0B6"/>
<stop offset="0.4877" stop-color="#57905D"/>
<stop offset="1" stop-color="#595016"/>
</radialGradient>
<radialGradient id="paint37_radial_4144_1262" cx="0" cy="0" r="1" gradientUnits="userSpaceOnUse" gradientTransform="translate(265.237 51.3501) scale(31.4823 19.174)">
<stop stop-color="#FFF0B6"/>
<stop offset="0.4877" stop-color="#57905D"/>
<stop offset="1" stop-color="#595016"/>
</radialGradient>
<radialGradient id="paint38_radial_4144_1262" cx="0" cy="0" r="1" gradientUnits="userSpaceOnUse" gradientTransform="translate(320.088 55.5658) scale(69.8087 42.5162)">
<stop stop-color="#FFF0B6"/>
<stop offset="0.4877" stop-color="#57905D"/>
<stop offset="1" stop-color="#595016"/>
</radialGradient>
<radialGradient id="paint39_radial_4144_1262" cx="0" cy="0" r="1" gradientUnits="userSpaceOnUse" gradientTransform="translate(291.326 54.3582) scale(21.4543 13.0665)">
<stop stop-color="#FFF0B6"/>
<stop offset="0.4877" stop-color="#57905D"/>
<stop offset="1" stop-color="#595016"/>
</radialGradient>
<radialGradient id="paint40_radial_4144_1262" cx="0" cy="0" r="1" gradientUnits="userSpaceOnUse" gradientTransform="translate(231.657 55.0204) scale(38.3992 23.3865)">
<stop stop-color="#FFF0B6"/>
<stop offset="0.4877" stop-color="#57905D"/>
<stop offset="1" stop-color="#595016"/>
</radialGradient>
<radialGradient id="paint41_radial_4144_1262" cx="0" cy="0" r="1" gradientUnits="userSpaceOnUse" gradientTransform="translate(272.776 57.5541) scale(13.7197 8.35597)">
<stop stop-color="#FFF0B6"/>
<stop offset="0.4877" stop-color="#57905D"/>
<stop offset="1" stop-color="#595016"/>
</radialGradient>
<radialGradient id="paint42_radial_4144_1262" cx="0" cy="0" r="1" gradientUnits="userSpaceOnUse" gradientTransform="translate(336.048 45.0953) scale(53.0567 32.3134)">
<stop stop-color="#FFF0B6"/>
<stop offset="0.4877" stop-color="#57905D"/>
<stop offset="1" stop-color="#595016"/>
</radialGradient>
<radialGradient id="paint43_radial_4144_1262" cx="0" cy="0" r="1" gradientUnits="userSpaceOnUse" gradientTransform="translate(288.986 47.2131) scale(29.1479 17.7521)">
<stop stop-color="#FFF0B6"/>
<stop offset="0.4877" stop-color="#57905D"/>
<stop offset="1" stop-color="#595016"/>
</radialGradient>
<radialGradient id="paint44_radial_4144_1262" cx="0" cy="0" r="1" gradientUnits="userSpaceOnUse" gradientTransform="translate(332.502 51.0371) scale(45.8289 27.9114)">
<stop stop-color="#FFF0B6"/>
<stop offset="0.4877" stop-color="#57905D"/>
<stop offset="1" stop-color="#595016"/>
</radialGradient>
<radialGradient id="paint45_radial_4144_1262" cx="0" cy="0" r="1" gradientUnits="userSpaceOnUse" gradientTransform="translate(308.666 56.9485) scale(42.9943 26.1852)">
<stop stop-color="#FFF0B6"/>
<stop offset="0.4877" stop-color="#57905D"/>
<stop offset="1" stop-color="#595016"/>
</radialGradient>
<radialGradient id="paint46_radial_4144_1262" cx="0" cy="0" r="1" gradientUnits="userSpaceOnUse" gradientTransform="translate(290.541 54.4397) scale(33.5473 20.4315)">
<stop stop-color="#FFF0B6"/>
<stop offset="0.4877" stop-color="#57905D"/>
<stop offset="1" stop-color="#595016"/>
</radialGradient>
<radialGradient id="paint47_radial_4144_1262" cx="0" cy="0" r="1" gradientUnits="userSpaceOnUse" gradientTransform="translate(267.521 51.4608) scale(32.3497 19.702)">
<stop stop-color="#FFF0B6"/>
<stop offset="0.4877" stop-color="#57905D"/>
<stop offset="1" stop-color="#595016"/>
</radialGradient>
<radialGradient id="paint48_radial_4144_1262" cx="0" cy="0" r="1" gradientUnits="userSpaceOnUse" gradientTransform="translate(179.322 56.0011) scale(89.7565 67.8177)">
<stop stop-color="#FFF0B6"/>
<stop offset="0.4877" stop-color="#57905D"/>
<stop offset="1" stop-color="#595016"/>
</radialGradient>
<radialGradient id="paint49_radial_4144_1262" cx="0" cy="0" r="1" gradientUnits="userSpaceOnUse" gradientTransform="translate(304.246 42.8579) scale(18.0786 11.0105)">
<stop stop-color="#FFF0B6"/>
<stop offset="0.4877" stop-color="#57905D"/>
<stop offset="1" stop-color="#595016"/>
</radialGradient>
<radialGradient id="paint50_radial_4144_1262" cx="0" cy="0" r="1" gradientUnits="userSpaceOnUse" gradientTransform="translate(358.71 64.9199) scale(162.965 99.2515)">
<stop stop-color="#FFF0B6"/>
<stop offset="0.4877" stop-color="#57905D"/>
<stop offset="1" stop-color="#595016"/>
</radialGradient>
<radialGradient id="paint51_radial_4144_1262" cx="0" cy="0" r="1" gradientUnits="userSpaceOnUse" gradientTransform="translate(304.572 56.7524) scale(29.126 17.7388)">
<stop stop-color="#FFF0B6"/>
<stop offset="0.4877" stop-color="#57905D"/>
<stop offset="1" stop-color="#595016"/>
</radialGradient>
<radialGradient id="paint52_radial_4144_1262" cx="0" cy="0" r="1" gradientUnits="userSpaceOnUse" gradientTransform="translate(361.094 74.3107) scale(162.963 99.2505)">
<stop stop-color="#FFF0B6"/>
<stop offset="0.4877" stop-color="#57905D"/>
<stop offset="1" stop-color="#595016"/>
</radialGradient>
<radialGradient id="paint53_radial_4144_1262" cx="0" cy="0" r="1" gradientUnits="userSpaceOnUse" gradientTransform="translate(232.729 75.3503) scale(196.985 90.7723)">
<stop stop-color="#FFF0B6"/>
<stop offset="0.4877" stop-color="#57905D"/>
<stop offset="1" stop-color="#595016"/>
</radialGradient>
<radialGradient id="paint54_radial_4144_1262" cx="0" cy="0" r="1" gradientUnits="userSpaceOnUse" gradientTransform="translate(285.595 71.3099) scale(2.73403 1.66507)">
<stop stop-color="#FFF0B6"/>
<stop offset="0.4877" stop-color="#57905D"/>
<stop offset="1" stop-color="#595016"/>
</radialGradient>
<radialGradient id="paint55_radial_4144_1262" cx="0" cy="0" r="1" gradientUnits="userSpaceOnUse" gradientTransform="translate(357.894 64.4897) scale(124.032 75.5411)">
<stop stop-color="#FFF0B6"/>
<stop offset="0.4877" stop-color="#57905D"/>
<stop offset="1" stop-color="#595016"/>
</radialGradient>
<radialGradient id="paint56_radial_4144_1262" cx="0" cy="0" r="1" gradientUnits="userSpaceOnUse" gradientTransform="translate(271.674 64.2597) scale(180.385 65.0335)">
<stop stop-color="#FFF0B6"/>
<stop offset="0.4877" stop-color="#57905D"/>
<stop offset="1" stop-color="#595016"/>
</radialGradient>
<radialGradient id="paint57_radial_4144_1262" cx="0" cy="0" r="1" gradientUnits="userSpaceOnUse" gradientTransform="translate(328.111 67.8912) scale(39.9038 24.3025)">
<stop stop-color="#FFF0B6"/>
<stop offset="0.4877" stop-color="#57905D"/>
<stop offset="1" stop-color="#595016"/>
</radialGradient>
<radialGradient id="paint58_radial_4144_1262" cx="0" cy="0" r="1" gradientUnits="userSpaceOnUse" gradientTransform="translate(273.556 70.0472) scale(30.9781 18.8668)">
<stop stop-color="#FFF0B6"/>
<stop offset="0.4877" stop-color="#57905D"/>
<stop offset="1" stop-color="#595016"/>
</radialGradient>
</defs>
</svg>
