<svg width="11640" height="336" viewBox="0 0 11640 336" fill="none" xmlns="http://www.w3.org/2000/svg">
<path d="M4362.36 249.633C4566.35 245.3 4823.11 220.562 5014.04 248.321C5074.17 257.073 5119.26 269.962 5177.04 278.15C5293.68 294.681 5420.94 285.457 5544.2 274.927C5615.85 268.782 5689.72 263.113 5765.81 264.364C5783.94 264.676 5802.03 265.492 5820 266.809V314.519C5781.38 307.815 5729.83 304.627 5681.08 305.077C5606.06 305.77 5535.69 313.335 5467.56 320.76C5349.64 333.612 5222.6 344.333 5101.31 326.879C5044.6 318.718 5000.55 305.871 4939.51 299.675C4860.78 291.683 4769.46 296.302 4689.25 303.434C4467.31 323.168 4237.06 338.014 3996.59 333.324C3958.92 332.589 3919.47 331.929 3880 330.808V232.043C4036.22 244.474 4195.89 253.169 4362.36 249.633Z" fill="#00609E"/>
<path d="M4000.93 0.672011C4167.8 6.94059 4257.82 55.8728 4424.02 63.0596C4530.04 67.6441 4632.64 53.7455 4726.9 41.4406C4821.16 29.1357 4933.1 17.687 5033.27 27.0535C5120.72 35.2299 5174.08 57.3392 5261.71 65.4064C5338.06 72.4341 5424.8 67.3414 5500.02 59.6692C5575.23 51.9969 5646.93 41.7259 5727.35 37.9936C5758.17 36.5736 5789.14 36.412 5820 37.5102V115.436C5734.61 122.465 5646.74 136.804 5553.28 135.056C5491.84 133.907 5437.59 127.068 5385.52 119.093C5297.35 105.638 5211.63 90.2546 5110.22 92.182C5050.74 93.3127 4996.52 99.8727 4940.12 106.664C4906.3 110.732 4872.43 114.624 4839.2 117.91C4802.59 121.554 4763.78 124.602 4724.8 126.437C4669.69 129.082 4612.6 129.703 4556.89 125.564C4473.6 119.382 4410.69 103.772 4326.67 98.5818C4253.63 94.0643 4175.13 98.1254 4105.2 104.728C4040.04 110.881 3977.06 119.023 3907.54 123.184C3898.51 123.725 3889.29 124.178 3880 124.543V2.84054C3920 0.374111 3960.23 -0.856842 4000.93 0.672011Z" fill="#56BDEC"/>
<path d="M4105.2 104.734C4175.13 98.1312 4253.63 94.0701 4326.67 98.5877C4410.69 103.778 4473.6 119.388 4556.89 125.57C4612.6 129.708 4669.69 129.088 4724.81 126.442C4763.78 124.608 4802.59 121.56 4839.2 117.916C4872.43 114.63 4906.3 110.738 4940.12 106.67C4996.52 99.8786 5050.74 93.3187 5110.22 92.1879C5211.64 90.2604 5297.35 105.643 5385.52 119.098C5437.59 127.074 5491.85 133.913 5553.28 135.062C5646.74 136.81 5734.61 122.471 5820 115.442V225.669C5773.37 221.054 5730.27 214.319 5688.53 207.201C5581.84 189.086 5474.57 170.696 5345.56 175.445C5276.47 177.988 5212.99 186.338 5142.48 192.313C5099.84 195.887 5056.89 198.27 5013.81 199.453C4967.18 200.791 4919.28 200.78 4872.93 199.646C4807.84 198.052 4741.68 195.059 4678.04 188.609C4582.36 178.92 4505.16 162.897 4406.9 155.344C4321.65 148.783 4228.26 149.222 4139.86 152.98C4063.49 156.226 3986.37 161.181 3906.43 163.642C3897.67 163.912 3888.84 164.14 3880 164.331V124.548C3889.29 124.184 3898.51 123.731 3907.54 123.19C3977.06 119.029 4040.04 110.887 4105.2 104.734Z" fill="#37A6DE"/>
<path d="M4139.86 152.975C4228.26 149.218 4321.65 148.778 4406.89 155.339C4505.16 162.892 4582.36 178.915 4678.04 188.605C4741.68 195.055 4807.84 198.048 4872.93 199.641C4919.28 200.775 4967.18 200.786 5013.8 199.448C5056.89 198.265 5099.84 195.882 5142.48 192.308C5212.99 186.333 5276.47 177.983 5345.56 175.44C5474.57 170.691 5581.84 189.081 5688.53 207.196C5730.27 214.314 5773.37 221.049 5820 225.664V266.809C5802.03 265.492 5783.94 264.676 5765.81 264.364C5689.72 263.113 5615.85 268.782 5544.2 274.927C5420.94 285.456 5293.68 294.68 5177.04 278.15C5119.26 269.961 5074.17 257.073 5014.04 248.321C4823.11 220.562 4566.35 245.299 4362.36 249.633C4195.89 253.169 4036.22 244.475 3880 232.043V164.326C3888.84 164.135 3897.67 163.907 3906.43 163.638C3986.37 161.177 4063.49 156.222 4139.86 152.975Z" fill="#0779BE"/>
<path d="M482.358 249.633C686.354 245.3 943.108 220.562 1134.04 248.321C1194.17 257.073 1239.26 269.962 1297.04 278.15C1413.68 294.681 1540.94 285.457 1664.2 274.927C1735.85 268.782 1809.72 263.113 1885.81 264.364C1903.94 264.676 1922.03 265.492 1940 266.809V314.519C1901.38 307.815 1849.83 304.627 1801.08 305.077C1726.06 305.77 1655.69 313.335 1587.56 320.76C1469.64 333.612 1342.6 344.333 1221.31 326.879C1164.6 318.718 1120.55 305.871 1059.51 299.675C980.779 291.683 889.46 296.302 809.249 303.434C587.307 323.168 357.059 338.014 116.589 333.324C78.92 332.589 39.4674 331.929 0 330.808V232.043C156.218 244.474 315.888 253.169 482.358 249.633Z" fill="#00609E"/>
<path d="M120.928 0.672011C287.796 6.94059 377.824 55.8728 544.022 63.0596C650.042 67.6441 752.635 53.7455 846.898 41.4406C941.162 29.1357 1053.1 17.687 1153.27 27.0535C1240.72 35.2299 1294.08 57.3392 1381.71 65.4064C1458.06 72.4341 1544.8 67.3414 1620.02 59.6692C1695.23 51.9969 1766.93 41.7259 1847.35 37.9936C1878.17 36.5736 1909.14 36.412 1940 37.5102V115.436C1854.61 122.465 1766.74 136.804 1673.28 135.056C1611.84 133.907 1557.59 127.068 1505.52 119.093C1417.35 105.638 1331.63 90.2546 1230.22 92.182C1170.74 93.3127 1116.52 99.8727 1060.12 106.664C1026.3 110.732 992.434 114.624 959.198 117.91C922.59 121.554 883.783 124.602 844.805 126.437C789.69 129.082 732.604 129.703 676.887 125.564C593.6 119.382 530.693 103.772 446.671 98.5818C373.632 94.0643 295.127 98.1254 225.198 104.728C160.039 110.881 97.0635 119.023 27.5393 123.184C18.5076 123.725 9.2926 124.178 0 124.543V2.84054C39.996 0.374111 80.2317 -0.856842 120.928 0.672011Z" fill="#56BDEC"/>
<path d="M225.199 104.734C295.127 98.1312 373.632 94.0701 446.672 98.5877C530.694 103.778 593.601 119.388 676.887 125.57C732.604 129.708 789.69 129.088 844.805 126.442C883.783 124.608 922.59 121.56 959.198 117.916C992.435 114.63 1026.3 110.738 1060.12 106.67C1116.52 99.8786 1170.74 93.3187 1230.22 92.1879C1331.64 90.2604 1417.35 105.643 1505.52 119.098C1557.59 127.074 1611.85 133.913 1673.28 135.062C1766.74 136.81 1854.61 122.471 1940 115.442V225.669C1893.37 221.054 1850.27 214.319 1808.53 207.201C1701.84 189.086 1594.57 170.696 1465.56 175.445C1396.47 177.988 1332.99 186.338 1262.48 192.313C1219.84 195.887 1176.89 198.27 1133.81 199.453C1087.18 200.791 1039.28 200.78 992.93 199.646C927.839 198.052 861.678 195.059 798.037 188.609C702.36 178.92 625.16 162.897 526.895 155.344C441.649 148.783 348.264 149.222 259.863 152.98C183.488 156.226 106.371 161.181 26.4303 163.642C17.6712 163.912 8.84262 164.14 0 164.331V124.548C9.2926 124.184 18.5076 123.731 27.5397 123.19C97.0639 119.029 160.039 110.887 225.199 104.734Z" fill="#37A6DE"/>
<path d="M259.863 152.975C348.264 149.218 441.649 148.778 526.895 155.339C625.16 162.892 702.36 178.915 798.036 188.605C861.678 195.055 927.839 198.048 992.929 199.641C1039.28 200.775 1087.18 200.786 1133.8 199.448C1176.89 198.265 1219.84 195.882 1262.48 192.308C1332.99 186.333 1396.47 177.983 1465.56 175.44C1594.57 170.691 1701.84 189.081 1808.53 207.196C1850.27 214.314 1893.37 221.049 1940 225.664V266.809C1922.03 265.492 1903.94 264.676 1885.81 264.364C1809.72 263.113 1735.85 268.782 1664.2 274.927C1540.94 285.456 1413.68 294.68 1297.04 278.15C1239.26 269.961 1194.17 257.073 1134.04 248.321C943.108 220.562 686.354 245.299 482.358 249.633C315.888 253.169 156.218 244.475 0 232.043V164.326C8.84262 164.135 17.6707 163.907 26.4303 163.638C106.371 161.177 183.488 156.222 259.863 152.975Z" fill="#0779BE"/>
<path d="M3397.64 249.633C3193.65 245.3 2936.89 220.562 2745.96 248.321C2685.83 257.073 2640.74 269.962 2582.96 278.15C2466.32 294.681 2339.06 285.457 2215.8 274.927C2144.15 268.782 2070.28 263.113 1994.19 264.364C1976.06 264.676 1957.97 265.492 1940 266.809V314.519C1978.62 307.815 2030.17 304.627 2078.92 305.077C2153.94 305.77 2224.31 313.335 2292.44 320.76C2410.36 333.612 2537.4 344.333 2658.69 326.879C2715.4 318.718 2759.45 305.871 2820.49 299.675C2899.22 291.683 2990.54 296.302 3070.75 303.434C3292.69 323.168 3522.94 338.014 3763.41 333.324C3801.08 332.589 3840.53 331.929 3880 330.808V232.043C3723.78 244.474 3564.11 253.169 3397.64 249.633Z" fill="#00609E"/>
<path d="M3759.07 0.672011C3592.2 6.94059 3502.18 55.8728 3335.98 63.0596C3229.96 67.6441 3127.36 53.7455 3033.1 41.4406C2938.84 29.1357 2826.9 17.687 2726.73 27.0535C2639.28 35.2299 2585.92 57.3392 2498.29 65.4064C2421.94 72.4341 2335.2 67.3414 2259.98 59.6692C2184.77 51.9969 2113.07 41.7259 2032.65 37.9936C2001.83 36.5736 1970.86 36.412 1940 37.5102V115.436C2025.39 122.465 2113.26 136.804 2206.72 135.056C2268.16 133.907 2322.41 127.068 2374.48 119.093C2462.65 105.638 2548.37 90.2546 2649.78 92.182C2709.26 93.3127 2763.48 99.8727 2819.88 106.664C2853.7 110.732 2887.57 114.624 2920.8 117.91C2957.41 121.554 2996.22 124.602 3035.2 126.437C3090.31 129.082 3147.4 129.703 3203.11 125.564C3286.4 119.382 3349.31 103.772 3433.33 98.5818C3506.37 94.0643 3584.87 98.1254 3654.8 104.728C3719.96 110.881 3782.94 119.023 3852.46 123.184C3861.49 123.725 3870.71 124.178 3880 124.543V2.84054C3840 0.374111 3799.77 -0.856842 3759.07 0.672011Z" fill="#56BDEC"/>
<path d="M3654.8 104.734C3584.87 98.1312 3506.37 94.0701 3433.33 98.5877C3349.31 103.778 3286.4 119.388 3203.11 125.57C3147.4 129.708 3090.31 129.088 3035.19 126.442C2996.22 124.608 2957.41 121.56 2920.8 117.916C2887.57 114.63 2853.7 110.738 2819.88 106.67C2763.48 99.8786 2709.26 93.3187 2649.78 92.1879C2548.36 90.2604 2462.65 105.643 2374.48 119.098C2322.41 127.074 2268.15 133.913 2206.72 135.062C2113.26 136.81 2025.39 122.471 1940 115.442V225.669C1986.63 221.054 2029.73 214.319 2071.47 207.201C2178.16 189.086 2285.43 170.696 2414.44 175.445C2483.53 177.988 2547.01 186.338 2617.52 192.313C2660.16 195.887 2703.11 198.27 2746.19 199.453C2792.82 200.791 2840.72 200.78 2887.07 199.646C2952.16 198.052 3018.32 195.059 3081.96 188.609C3177.64 178.92 3254.84 162.897 3353.1 155.344C3438.35 148.783 3531.74 149.222 3620.14 152.98C3696.51 156.226 3773.63 161.181 3853.57 163.642C3862.33 163.912 3871.16 164.14 3880 164.331V124.548C3870.71 124.184 3861.49 123.731 3852.46 123.19C3782.94 119.029 3719.96 110.887 3654.8 104.734Z" fill="#37A6DE"/>
<path d="M3620.14 152.975C3531.74 149.218 3438.35 148.778 3353.11 155.339C3254.84 162.892 3177.64 178.915 3081.96 188.605C3018.32 195.055 2952.16 198.048 2887.07 199.641C2840.72 200.775 2792.82 200.786 2746.2 199.448C2703.11 198.265 2660.16 195.882 2617.52 192.308C2547.01 186.333 2483.53 177.983 2414.44 175.44C2285.43 170.691 2178.16 189.081 2071.47 207.196C2029.73 214.314 1986.63 221.049 1940 225.664V266.809C1957.97 265.492 1976.06 264.676 1994.19 264.364C2070.28 263.113 2144.15 268.782 2215.8 274.927C2339.06 285.456 2466.32 294.68 2582.96 278.15C2640.74 269.961 2685.83 257.073 2745.96 248.321C2936.89 220.562 3193.65 245.299 3397.64 249.633C3564.11 253.169 3723.78 244.475 3880 232.043V164.326C3871.16 164.135 3862.33 163.907 3853.57 163.638C3773.63 161.177 3696.51 156.222 3620.14 152.975Z" fill="#0779BE"/>
<path d="M7277.64 249.633C7073.65 245.3 6816.89 220.562 6625.96 248.321C6565.83 257.073 6520.74 269.962 6462.96 278.15C6346.32 294.681 6219.06 285.457 6095.8 274.927C6024.15 268.782 5950.28 263.113 5874.19 264.364C5856.06 264.676 5837.97 265.492 5820 266.809V314.519C5858.62 307.815 5910.17 304.627 5958.92 305.077C6033.94 305.77 6104.31 313.335 6172.44 320.76C6290.36 333.612 6417.4 344.333 6538.69 326.879C6595.4 318.718 6639.45 305.871 6700.49 299.675C6779.22 291.683 6870.54 296.302 6950.75 303.434C7172.69 323.168 7402.94 338.014 7643.41 333.324C7681.08 332.589 7720.53 331.929 7760 330.808V232.043C7603.78 244.474 7444.11 253.169 7277.64 249.633Z" fill="#00609E"/>
<path d="M7639.07 0.672011C7472.2 6.94059 7382.18 55.8728 7215.98 63.0596C7109.96 67.6441 7007.36 53.7455 6913.1 41.4406C6818.84 29.1357 6706.9 17.687 6606.73 27.0535C6519.28 35.2299 6465.92 57.3392 6378.29 65.4064C6301.94 72.4341 6215.2 67.3414 6139.98 59.6692C6064.77 51.9969 5993.07 41.7259 5912.65 37.9936C5881.83 36.5736 5850.86 36.412 5820 37.5102V115.436C5905.39 122.465 5993.26 136.804 6086.72 135.056C6148.16 133.907 6202.41 127.068 6254.48 119.093C6342.65 105.638 6428.37 90.2546 6529.78 92.182C6589.26 93.3127 6643.48 99.8727 6699.88 106.664C6733.7 110.732 6767.57 114.624 6800.8 117.91C6837.41 121.554 6876.22 124.602 6915.2 126.437C6970.31 129.082 7027.4 129.703 7083.11 125.564C7166.4 119.382 7229.31 103.772 7313.33 98.5818C7386.37 94.0643 7464.87 98.1254 7534.8 104.728C7599.96 110.881 7662.94 119.023 7732.46 123.184C7741.49 123.725 7750.71 124.178 7760 124.543V2.84054C7720 0.374111 7679.77 -0.856842 7639.07 0.672011Z" fill="#56BDEC"/>
<path d="M7534.8 104.734C7464.87 98.1312 7386.37 94.0701 7313.33 98.5877C7229.31 103.778 7166.4 119.388 7083.11 125.57C7027.4 129.708 6970.31 129.088 6915.19 126.442C6876.22 124.608 6837.41 121.56 6800.8 117.916C6767.57 114.63 6733.7 110.738 6699.88 106.67C6643.48 99.8786 6589.26 93.3187 6529.78 92.1879C6428.36 90.2604 6342.65 105.643 6254.48 119.098C6202.41 127.074 6148.15 133.913 6086.72 135.062C5993.26 136.81 5905.39 122.471 5820 115.442V225.669C5866.63 221.054 5909.73 214.319 5951.47 207.201C6058.16 189.086 6165.43 170.696 6294.44 175.445C6363.53 177.988 6427.01 186.338 6497.52 192.313C6540.16 195.887 6583.11 198.27 6626.19 199.453C6672.82 200.791 6720.72 200.78 6767.07 199.646C6832.16 198.052 6898.32 195.059 6961.96 188.609C7057.64 178.92 7134.84 162.897 7233.1 155.344C7318.35 148.783 7411.74 149.222 7500.14 152.98C7576.51 156.226 7653.63 161.181 7733.57 163.642C7742.33 163.912 7751.16 164.14 7760 164.331V124.548C7750.71 124.184 7741.49 123.731 7732.46 123.19C7662.94 119.029 7599.96 110.887 7534.8 104.734Z" fill="#37A6DE"/>
<path d="M7500.14 152.975C7411.74 149.218 7318.35 148.778 7233.11 155.339C7134.84 162.892 7057.64 178.915 6961.96 188.605C6898.32 195.055 6832.16 198.048 6767.07 199.641C6720.72 200.775 6672.82 200.786 6626.2 199.448C6583.11 198.265 6540.16 195.882 6497.52 192.308C6427.01 186.333 6363.53 177.983 6294.44 175.44C6165.43 170.691 6058.16 189.081 5951.47 207.196C5909.73 214.314 5866.63 221.049 5820 225.664V266.809C5837.97 265.492 5856.06 264.676 5874.19 264.364C5950.28 263.113 6024.15 268.782 6095.8 274.927C6219.06 285.456 6346.32 294.68 6462.96 278.15C6520.74 269.961 6565.83 257.073 6625.96 248.321C6816.89 220.562 7073.65 245.299 7277.64 249.633C7444.11 253.169 7603.78 244.475 7760 232.043V164.326C7751.16 164.135 7742.33 163.907 7733.57 163.638C7653.63 161.177 7576.51 156.222 7500.14 152.975Z" fill="#0779BE"/>
<path d="M8242.36 249.633C8446.35 245.3 8703.11 220.562 8894.04 248.321C8954.17 257.073 8999.26 269.962 9057.04 278.15C9173.68 294.681 9300.94 285.457 9424.2 274.927C9495.85 268.782 9569.72 263.113 9645.81 264.364C9663.94 264.676 9682.03 265.492 9700 266.809V314.519C9661.38 307.815 9609.83 304.627 9561.08 305.077C9486.06 305.77 9415.69 313.335 9347.56 320.76C9229.64 333.612 9102.6 344.333 8981.31 326.879C8924.6 318.718 8880.55 305.871 8819.51 299.675C8740.78 291.683 8649.46 296.302 8569.25 303.434C8347.31 323.168 8117.06 338.014 7876.59 333.324C7838.92 332.589 7799.47 331.929 7760 330.808V232.043C7916.22 244.474 8075.89 253.169 8242.36 249.633Z" fill="#00609E"/>
<path d="M7880.93 0.672011C8047.8 6.94059 8137.82 55.8728 8304.02 63.0596C8410.04 67.6441 8512.64 53.7455 8606.9 41.4406C8701.16 29.1357 8813.1 17.687 8913.27 27.0535C9000.72 35.2299 9054.08 57.3392 9141.71 65.4064C9218.06 72.4341 9304.8 67.3414 9380.02 59.6692C9455.23 51.9969 9526.93 41.7259 9607.35 37.9936C9638.17 36.5736 9669.14 36.412 9700 37.5102V115.436C9614.61 122.465 9526.74 136.804 9433.28 135.056C9371.84 133.907 9317.59 127.068 9265.52 119.093C9177.35 105.638 9091.63 90.2546 8990.22 92.182C8930.74 93.3127 8876.52 99.8727 8820.12 106.664C8786.3 110.732 8752.43 114.624 8719.2 117.91C8682.59 121.554 8643.78 124.602 8604.8 126.437C8549.69 129.082 8492.6 129.703 8436.89 125.564C8353.6 119.382 8290.69 103.772 8206.67 98.5818C8133.63 94.0643 8055.13 98.1254 7985.2 104.728C7920.04 110.881 7857.06 119.023 7787.54 123.184C7778.51 123.725 7769.29 124.178 7760 124.543V2.84054C7800 0.374111 7840.23 -0.856842 7880.93 0.672011Z" fill="#56BDEC"/>
<path d="M7985.2 104.734C8055.13 98.1312 8133.63 94.0701 8206.67 98.5877C8290.69 103.778 8353.6 119.388 8436.89 125.57C8492.6 129.708 8549.69 129.088 8604.81 126.442C8643.78 124.608 8682.59 121.56 8719.2 117.916C8752.43 114.63 8786.3 110.738 8820.12 106.67C8876.52 99.8786 8930.74 93.3187 8990.22 92.1879C9091.64 90.2604 9177.35 105.643 9265.52 119.098C9317.59 127.074 9371.85 133.913 9433.28 135.062C9526.74 136.81 9614.61 122.471 9700 115.442V225.669C9653.37 221.054 9610.27 214.319 9568.53 207.201C9461.84 189.086 9354.57 170.696 9225.56 175.445C9156.47 177.988 9092.99 186.338 9022.48 192.313C8979.84 195.887 8936.89 198.27 8893.81 199.453C8847.18 200.791 8799.28 200.78 8752.93 199.646C8687.84 198.052 8621.68 195.059 8558.04 188.609C8462.36 178.92 8385.16 162.897 8286.9 155.344C8201.65 148.783 8108.26 149.222 8019.86 152.98C7943.49 156.226 7866.37 161.181 7786.43 163.642C7777.67 163.912 7768.84 164.14 7760 164.331V124.548C7769.29 124.184 7778.51 123.731 7787.54 123.19C7857.06 119.029 7920.04 110.887 7985.2 104.734Z" fill="#37A6DE"/>
<path d="M8019.86 152.975C8108.26 149.218 8201.65 148.778 8286.89 155.339C8385.16 162.892 8462.36 178.915 8558.04 188.605C8621.68 195.055 8687.84 198.048 8752.93 199.641C8799.28 200.775 8847.18 200.786 8893.8 199.448C8936.89 198.265 8979.84 195.882 9022.48 192.308C9092.99 186.333 9156.47 177.983 9225.56 175.44C9354.57 170.691 9461.84 189.081 9568.53 207.196C9610.27 214.314 9653.37 221.049 9700 225.664V266.809C9682.03 265.492 9663.94 264.676 9645.81 264.364C9569.72 263.113 9495.85 268.782 9424.2 274.927C9300.94 285.456 9173.68 294.68 9057.04 278.15C8999.26 269.961 8954.17 257.073 8894.04 248.321C8703.11 220.562 8446.35 245.299 8242.36 249.633C8075.89 253.169 7916.22 244.475 7760 232.043V164.326C7768.84 164.135 7777.67 163.907 7786.43 163.638C7866.37 161.177 7943.49 156.222 8019.86 152.975Z" fill="#0779BE"/>
<path d="M11157.6 249.633C10953.6 245.3 10696.9 220.562 10506 248.321C10445.8 257.073 10400.7 269.962 10343 278.15C10226.3 294.681 10099.1 285.457 9975.8 274.927C9904.15 268.782 9830.28 263.113 9754.19 264.364C9736.06 264.676 9717.97 265.492 9700 266.809V314.519C9738.62 307.815 9790.17 304.627 9838.92 305.077C9913.94 305.77 9984.31 313.335 10052.4 320.76C10170.4 333.612 10297.4 344.333 10418.7 326.879C10475.4 318.718 10519.4 305.871 10580.5 299.675C10659.2 291.683 10750.5 296.302 10830.8 303.434C11052.7 323.168 11282.9 338.014 11523.4 333.324C11561.1 332.589 11600.5 331.929 11640 330.808V232.043C11483.8 244.474 11324.1 253.169 11157.6 249.633Z" fill="#00609E"/>
<path d="M11519.1 0.672011C11352.2 6.94059 11262.2 55.8728 11096 63.0596C10990 67.6441 10887.4 53.7455 10793.1 41.4406C10698.8 29.1357 10586.9 17.687 10486.7 27.0535C10399.3 35.2299 10345.9 57.3392 10258.3 65.4064C10181.9 72.4341 10095.2 67.3414 10020 59.6692C9944.77 51.9969 9873.07 41.7259 9792.65 37.9936C9761.83 36.5736 9730.86 36.412 9700 37.5102V115.436C9785.39 122.465 9873.26 136.804 9966.72 135.056C10028.2 133.907 10082.4 127.068 10134.5 119.093C10222.6 105.638 10308.4 90.2546 10409.8 92.182C10469.3 93.3127 10523.5 99.8727 10579.9 106.664C10613.7 110.732 10647.6 114.624 10680.8 117.91C10717.4 121.554 10756.2 124.602 10795.2 126.437C10850.3 129.082 10907.4 129.703 10963.1 125.564C11046.4 119.382 11109.3 103.772 11193.3 98.5818C11266.4 94.0643 11344.9 98.1254 11414.8 104.728C11480 110.881 11542.9 119.023 11612.5 123.184C11621.5 123.725 11630.7 124.178 11640 124.543V2.84054C11600 0.374111 11559.8 -0.856842 11519.1 0.672011Z" fill="#56BDEC"/>
<path d="M11414.8 104.734C11344.9 98.1312 11266.4 94.0701 11193.3 98.5877C11109.3 103.778 11046.4 119.388 10963.1 125.57C10907.4 129.708 10850.3 129.088 10795.2 126.442C10756.2 124.608 10717.4 121.56 10680.8 117.916C10647.6 114.63 10613.7 110.738 10579.9 106.67C10523.5 99.8786 10469.3 93.3187 10409.8 92.1879C10308.4 90.2604 10222.6 105.643 10134.5 119.098C10082.4 127.074 10028.2 133.913 9966.72 135.062C9873.26 136.81 9785.39 122.471 9700 115.442V225.669C9746.63 221.054 9789.73 214.319 9831.47 207.201C9938.16 189.086 10045.4 170.696 10174.4 175.445C10243.5 177.988 10307 186.338 10377.5 192.313C10420.2 195.887 10463.1 198.27 10506.2 199.453C10552.8 200.791 10600.7 200.78 10647.1 199.646C10712.2 198.052 10778.3 195.059 10842 188.609C10937.6 178.92 11014.8 162.897 11113.1 155.344C11198.4 148.783 11291.7 149.222 11380.1 152.98C11456.5 156.226 11533.6 161.181 11613.6 163.642C11622.3 163.912 11631.2 164.14 11640 164.331V124.548C11630.7 124.184 11621.5 123.731 11612.5 123.19C11542.9 119.029 11480 110.887 11414.8 104.734Z" fill="#37A6DE"/>
<path d="M11380.1 152.975C11291.7 149.218 11198.4 148.778 11113.1 155.339C11014.8 162.892 10937.6 178.915 10842 188.605C10778.3 195.055 10712.2 198.048 10647.1 199.641C10600.7 200.775 10552.8 200.786 10506.2 199.448C10463.1 198.265 10420.2 195.882 10377.5 192.308C10307 186.333 10243.5 177.983 10174.4 175.44C10045.4 170.691 9938.16 189.081 9831.47 207.196C9789.73 214.314 9746.63 221.049 9700 225.664V266.809C9717.97 265.492 9736.06 264.676 9754.19 264.364C9830.28 263.113 9904.15 268.782 9975.8 274.927C10099.1 285.456 10226.3 294.68 10343 278.15C10400.7 269.961 10445.8 257.073 10506 248.321C10696.9 220.562 10953.6 245.299 11157.6 249.633C11324.1 253.169 11483.8 244.475 11640 232.043V164.326C11631.2 164.135 11622.3 163.907 11613.6 163.638C11533.6 161.177 11456.5 156.222 11380.1 152.975Z" fill="#0779BE"/>
</svg>
