<svg width="3878" height="1103" viewBox="0 0 3878 1103" fill="none" xmlns="http://www.w3.org/2000/svg">
<path d="M120.928 0.476008C287.796 4.91625 377.824 39.5766 544.022 44.6672C650.042 47.9146 752.635 38.0697 846.898 29.3538C941.162 20.6378 1053.1 12.5283 1153.27 19.1629C1240.72 24.9545 1294.08 40.6153 1381.71 46.3295C1458.06 51.3075 1544.8 47.7002 1620.02 42.2657C1695.23 36.8311 1766.93 29.5559 1847.35 26.9121C1878.17 25.9063 1909.14 25.7918 1940 26.5697V81.7673C1854.61 86.7459 1766.74 96.9029 1673.28 95.6648C1611.84 94.8509 1557.59 90.0065 1505.52 84.3573C1417.35 74.8266 1331.63 63.9303 1230.22 65.2956C1170.74 66.0965 1116.52 70.7432 1060.12 75.5536C1026.3 78.4354 992.434 81.1923 959.198 83.5195C922.59 86.1008 883.783 88.2599 844.805 89.5592C789.69 91.4328 732.604 91.8727 676.887 88.9412C593.6 84.5621 530.693 73.5051 446.671 69.8288C373.632 66.6288 295.127 69.5055 225.198 74.1825C160.039 78.5405 97.0635 84.308 27.5393 87.2555C18.5076 87.6383 9.2926 87.9593 0 88.2176V2.01205C39.996 0.264995 80.2317 -0.60693 120.928 0.476008Z" fill="#56BDEC"/>
<path d="M225.199 74.187C295.127 69.5099 373.632 66.6333 446.672 69.8333C530.694 73.5096 593.601 84.5666 676.887 88.9456C732.604 91.8772 789.69 91.4373 844.805 89.5637C883.783 88.2644 922.59 86.1053 959.198 83.524C992.435 81.1968 1026.3 78.4399 1060.12 75.5581C1116.52 70.7476 1170.74 66.1011 1230.22 65.3001C1331.64 63.9348 1417.35 74.8311 1505.52 84.3617C1557.59 90.011 1611.85 94.8553 1673.28 95.6692C1766.74 96.9075 1854.61 86.7504 1940 81.7718V159.85C1893.37 156.58 1850.27 151.81 1808.53 146.768C1701.84 133.936 1594.57 120.91 1465.56 124.274C1396.47 126.075 1332.99 131.99 1262.48 136.222C1219.84 138.754 1176.89 140.442 1133.81 141.279C1087.18 142.227 1039.28 142.219 992.93 141.416C927.839 140.287 861.678 138.167 798.037 133.599C702.36 126.735 625.16 115.385 526.895 110.036C441.649 105.388 348.264 105.7 259.863 108.361C183.488 110.66 106.371 114.17 26.4303 115.914C17.6712 116.105 8.84262 116.266 0 116.401V88.2221C9.2926 87.9637 18.5076 87.6428 27.5397 87.2599C97.0639 84.3125 160.039 78.545 225.199 74.187Z" fill="#37A6DE"/>
<path d="M259.863 108.357C348.264 105.696 441.649 105.385 526.895 110.032C625.16 115.382 702.36 126.731 798.036 133.595C861.678 138.163 927.839 140.284 992.929 141.412C1039.28 142.216 1087.18 142.223 1133.8 141.275C1176.89 140.438 1219.84 138.75 1262.48 136.218C1332.99 131.986 1396.47 126.071 1465.56 124.27C1594.57 120.906 1701.84 133.932 1808.53 146.764C1850.27 151.805 1893.37 156.576 1940 159.845V188.989C1922.03 188.057 1903.94 187.479 1885.81 187.258C1809.72 186.372 1735.85 190.387 1664.2 194.74C1540.94 202.198 1413.68 208.732 1297.04 197.023C1239.26 191.222 1194.17 182.093 1134.04 175.894C943.108 156.231 686.354 173.754 482.358 176.823C315.888 179.328 156.218 173.169 0 164.364V116.398C8.84262 116.262 17.6707 116.101 26.4303 115.91C106.371 114.167 183.488 110.657 259.863 108.357Z" fill="#3097D6"/>
<path d="M120.928 257.476C287.796 261.916 377.824 296.577 544.022 301.667C650.042 304.915 752.635 295.07 846.898 286.354C941.162 277.638 1053.1 269.528 1153.27 276.163C1240.72 281.955 1294.08 297.615 1381.71 303.33C1458.06 308.308 1544.8 304.7 1620.02 299.266C1695.23 293.831 1766.93 286.556 1847.35 283.912C1878.17 282.906 1909.14 282.792 1940 283.57V338.767C1854.61 343.746 1766.74 353.903 1673.28 352.665C1611.84 351.851 1557.59 347.007 1505.52 341.357C1417.35 331.827 1331.63 320.93 1230.22 322.296C1170.74 323.096 1116.52 327.743 1060.12 332.554C1026.3 335.435 992.434 338.192 959.198 340.52C922.59 343.101 883.783 345.26 844.805 346.559C789.69 348.433 732.604 348.873 676.887 345.941C593.6 341.562 530.693 330.505 446.671 326.829C373.632 323.629 295.127 326.505 225.198 331.182C160.039 335.541 97.0635 341.308 27.5393 344.255C18.5076 344.638 9.2926 344.959 0 345.218V259.012C39.996 257.265 80.2317 256.393 120.928 257.476Z" fill="#56BDEC"/>
<path d="M225.199 331.187C295.127 326.51 373.632 323.633 446.672 326.833C530.694 330.51 593.601 341.567 676.887 345.946C732.604 348.877 789.69 348.437 844.805 346.564C883.783 345.264 922.59 343.105 959.198 340.524C992.435 338.197 1026.3 335.44 1060.12 332.558C1116.52 327.748 1170.74 323.101 1230.22 322.3C1331.64 320.935 1417.35 331.831 1505.52 341.362C1557.59 347.011 1611.85 351.855 1673.28 352.669C1766.74 353.907 1854.61 343.75 1940 338.772V416.85C1893.37 413.58 1850.27 408.81 1808.53 403.768C1701.84 390.936 1594.57 377.91 1465.56 381.274C1396.47 383.075 1332.99 388.99 1262.48 393.222C1219.84 395.754 1176.89 397.442 1133.81 398.279C1087.18 399.227 1039.28 399.219 992.93 398.416C927.839 397.287 861.678 395.167 798.037 390.599C702.36 383.735 625.16 372.385 526.895 367.036C441.649 362.388 348.264 362.7 259.863 365.361C183.488 367.66 106.371 371.17 26.4303 372.914C17.6712 373.105 8.84262 373.266 0 373.401V345.222C9.2926 344.964 18.5076 344.643 27.5397 344.26C97.0639 341.312 160.039 335.545 225.199 331.187Z" fill="#37A6DE"/>
<path d="M259.863 365.357C348.264 362.696 441.649 362.385 526.895 367.032C625.16 372.382 702.36 383.731 798.036 390.595C861.678 395.163 927.839 397.284 992.929 398.412C1039.28 399.216 1087.18 399.223 1133.8 398.275C1176.89 397.438 1219.84 395.75 1262.48 393.218C1332.99 388.986 1396.47 383.071 1465.56 381.27C1594.57 377.906 1701.84 390.932 1808.53 403.764C1850.27 408.805 1893.37 413.576 1940 416.845V445.989C1922.03 445.057 1903.94 444.479 1885.81 444.258C1809.72 443.372 1735.85 447.387 1664.2 451.74C1540.94 459.198 1413.68 465.732 1297.04 454.023C1239.26 448.222 1194.17 439.093 1134.04 432.894C943.108 413.231 686.354 430.754 482.358 433.823C315.888 436.328 156.218 430.169 0 421.364V373.398C8.84262 373.262 17.6707 373.101 26.4303 372.91C106.371 371.167 183.488 367.657 259.863 365.357Z" fill="#3097D6"/>
<path d="M120.928 512.476C287.796 516.916 377.824 551.577 544.022 556.667C650.042 559.915 752.635 550.07 846.898 541.354C941.162 532.638 1053.1 524.528 1153.27 531.163C1240.72 536.955 1294.08 552.615 1381.71 558.33C1458.06 563.308 1544.8 559.7 1620.02 554.266C1695.23 548.831 1766.93 541.556 1847.35 538.912C1878.17 537.906 1909.14 537.792 1940 538.57V593.767C1854.61 598.746 1766.74 608.903 1673.28 607.665C1611.84 606.851 1557.59 602.007 1505.52 596.357C1417.35 586.827 1331.63 575.93 1230.22 577.296C1170.74 578.096 1116.52 582.743 1060.12 587.554C1026.3 590.435 992.434 593.192 959.198 595.52C922.59 598.101 883.783 600.26 844.805 601.559C789.69 603.433 732.604 603.873 676.887 600.941C593.6 596.562 530.693 585.505 446.671 581.829C373.632 578.629 295.127 581.505 225.198 586.182C160.039 590.541 97.0635 596.308 27.5393 599.255C18.5076 599.638 9.2926 599.959 0 600.218V514.012C39.996 512.265 80.2317 511.393 120.928 512.476Z" fill="#56BDEC"/>
<path d="M225.199 586.187C295.127 581.51 373.632 578.633 446.672 581.833C530.694 585.51 593.601 596.567 676.887 600.946C732.604 603.877 789.69 603.437 844.805 601.564C883.783 600.264 922.59 598.105 959.198 595.524C992.435 593.197 1026.3 590.44 1060.12 587.558C1116.52 582.748 1170.74 578.101 1230.22 577.3C1331.64 575.935 1417.35 586.831 1505.52 596.362C1557.59 602.011 1611.85 606.855 1673.28 607.669C1766.74 608.907 1854.61 598.75 1940 593.772V671.85C1893.37 668.58 1850.27 663.81 1808.53 658.768C1701.84 645.936 1594.57 632.91 1465.56 636.274C1396.47 638.075 1332.99 643.99 1262.48 648.222C1219.84 650.754 1176.89 652.442 1133.81 653.279C1087.18 654.227 1039.28 654.219 992.93 653.416C927.839 652.287 861.678 650.167 798.037 645.599C702.36 638.735 625.16 627.385 526.895 622.036C441.649 617.388 348.264 617.7 259.863 620.361C183.488 622.66 106.371 626.17 26.4303 627.914C17.6712 628.105 8.84262 628.266 0 628.401V600.222C9.2926 599.964 18.5076 599.643 27.5397 599.26C97.0639 596.312 160.039 590.545 225.199 586.187Z" fill="#37A6DE"/>
<path d="M259.863 620.357C348.264 617.696 441.649 617.385 526.895 622.032C625.16 627.382 702.36 638.731 798.036 645.595C861.678 650.163 927.839 652.284 992.929 653.412C1039.28 654.216 1087.18 654.223 1133.8 653.275C1176.89 652.438 1219.84 650.75 1262.48 648.218C1332.99 643.986 1396.47 638.071 1465.56 636.27C1594.57 632.906 1701.84 645.932 1808.53 658.764C1850.27 663.805 1893.37 668.576 1940 671.845V700.989C1922.03 700.057 1903.94 699.479 1885.81 699.258C1809.72 698.372 1735.85 702.387 1664.2 706.74C1540.94 714.198 1413.68 720.732 1297.04 709.023C1239.26 703.222 1194.17 694.093 1134.04 687.894C943.108 668.231 686.354 685.754 482.358 688.823C315.888 691.328 156.218 685.169 0 676.364V628.398C8.84262 628.262 17.6707 628.101 26.4303 627.91C106.371 626.167 183.488 622.657 259.863 620.357Z" fill="#3097D6"/>
<path d="M120.928 770.476C287.796 774.916 377.824 809.577 544.022 814.667C650.042 817.915 752.635 808.07 846.898 799.354C941.162 790.638 1053.1 782.528 1153.27 789.163C1240.72 794.955 1294.08 810.615 1381.71 816.33C1458.06 821.308 1544.8 817.7 1620.02 812.266C1695.23 806.831 1766.93 799.556 1847.35 796.912C1878.17 795.906 1909.14 795.792 1940 796.57V851.767C1854.61 856.746 1766.74 866.903 1673.28 865.665C1611.84 864.851 1557.59 860.007 1505.52 854.357C1417.35 844.827 1331.63 833.93 1230.22 835.296C1170.74 836.096 1116.52 840.743 1060.12 845.554C1026.3 848.435 992.434 851.192 959.198 853.52C922.59 856.101 883.783 858.26 844.805 859.559C789.69 861.433 732.604 861.873 676.887 858.941C593.6 854.562 530.693 843.505 446.671 839.829C373.632 836.629 295.127 839.505 225.198 844.182C160.039 848.541 97.0635 854.308 27.5393 857.255C18.5076 857.638 9.2926 857.959 0 858.218V772.012C39.996 770.265 80.2317 769.393 120.928 770.476Z" fill="#56BDEC"/>
<path d="M225.199 844.187C295.127 839.51 373.632 836.633 446.672 839.833C530.694 843.51 593.601 854.567 676.887 858.946C732.604 861.877 789.69 861.437 844.805 859.564C883.783 858.264 922.59 856.105 959.198 853.524C992.435 851.197 1026.3 848.44 1060.12 845.558C1116.52 840.748 1170.74 836.101 1230.22 835.3C1331.64 833.935 1417.35 844.831 1505.52 854.362C1557.59 860.011 1611.85 864.855 1673.28 865.669C1766.74 866.907 1854.61 856.75 1940 851.772V929.85C1893.37 926.58 1850.27 921.81 1808.53 916.768C1701.84 903.936 1594.57 890.91 1465.56 894.274C1396.47 896.075 1332.99 901.99 1262.48 906.222C1219.84 908.754 1176.89 910.442 1133.81 911.279C1087.18 912.227 1039.28 912.219 992.93 911.416C927.839 910.287 861.678 908.167 798.037 903.599C702.36 896.735 625.16 885.385 526.895 880.036C441.649 875.388 348.264 875.7 259.863 878.361C183.488 880.66 106.371 884.17 26.4303 885.914C17.6712 886.105 8.84262 886.266 0 886.401V858.222C9.2926 857.964 18.5076 857.643 27.5397 857.26C97.0639 854.312 160.039 848.545 225.199 844.187Z" fill="#37A6DE"/>
<path d="M259.863 878.357C348.264 875.696 441.649 875.385 526.895 880.032C625.16 885.382 702.36 896.731 798.036 903.595C861.678 908.163 927.839 910.284 992.929 911.412C1039.28 912.216 1087.18 912.223 1133.8 911.275C1176.89 910.438 1219.84 908.75 1262.48 906.218C1332.99 901.986 1396.47 896.071 1465.56 894.27C1594.57 890.906 1701.84 903.932 1808.53 916.764C1850.27 921.805 1893.37 926.576 1940 929.845V958.989C1922.03 958.057 1903.94 957.479 1885.81 957.258C1809.72 956.372 1735.85 960.387 1664.2 964.74C1540.94 972.198 1413.68 978.732 1297.04 967.023C1239.26 961.222 1194.17 952.093 1134.04 945.894C943.108 926.231 686.354 943.754 482.358 946.823C315.888 949.328 156.218 943.169 0 934.364V886.398C8.84262 886.262 17.6707 886.101 26.4303 885.91C106.371 884.167 183.488 880.657 259.863 878.357Z" fill="#3097D6"/>
<path d="M3757.07 0.476008C3590.2 4.91625 3500.18 39.5766 3333.98 44.6672C3227.96 47.9146 3125.36 38.0697 3031.1 29.3538C2936.84 20.6378 2824.9 12.5283 2724.73 19.1629C2637.28 24.9545 2583.92 40.6153 2496.29 46.3295C2419.94 51.3075 2333.2 47.7002 2257.98 42.2657C2182.77 36.8311 2111.07 29.5559 2030.65 26.9121C1999.83 25.9063 1968.86 25.7918 1938 26.5697V81.7673C2023.39 86.7459 2111.26 96.9029 2204.72 95.6648C2266.16 94.8509 2320.41 90.0065 2372.48 84.3573C2460.65 74.8266 2546.37 63.9303 2647.78 65.2956C2707.26 66.0965 2761.48 70.7432 2817.88 75.5536C2851.7 78.4354 2885.57 81.1923 2918.8 83.5195C2955.41 86.1008 2994.22 88.2599 3033.2 89.5592C3088.31 91.4328 3145.4 91.8727 3201.11 88.9412C3284.4 84.5621 3347.31 73.5051 3431.33 69.8288C3504.37 66.6288 3582.87 69.5055 3652.8 74.1825C3717.96 78.5405 3780.94 84.308 3850.46 87.2555C3859.49 87.6383 3868.71 87.9593 3878 88.2176V2.01205C3838 0.264995 3797.77 -0.60693 3757.07 0.476008Z" fill="#56BDEC"/>
<path d="M3652.8 74.187C3582.87 69.5099 3504.37 66.6333 3431.33 69.8333C3347.31 73.5096 3284.4 84.5666 3201.11 88.9456C3145.4 91.8772 3088.31 91.4373 3033.19 89.5637C2994.22 88.2644 2955.41 86.1053 2918.8 83.524C2885.57 81.1968 2851.7 78.4399 2817.88 75.5581C2761.48 70.7476 2707.26 66.1011 2647.78 65.3001C2546.36 63.9348 2460.65 74.8311 2372.48 84.3617C2320.41 90.011 2266.15 94.8553 2204.72 95.6692C2111.26 96.9075 2023.39 86.7504 1938 81.7718V159.85C1984.63 156.58 2027.73 151.81 2069.47 146.768C2176.16 133.936 2283.43 120.91 2412.44 124.274C2481.53 126.075 2545.01 131.99 2615.52 136.222C2658.16 138.754 2701.11 140.442 2744.19 141.279C2790.82 142.227 2838.72 142.219 2885.07 141.416C2950.16 140.287 3016.32 138.167 3079.96 133.599C3175.64 126.735 3252.84 115.385 3351.1 110.036C3436.35 105.388 3529.74 105.7 3618.14 108.361C3694.51 110.66 3771.63 114.17 3851.57 115.914C3860.33 116.105 3869.16 116.266 3878 116.401V88.2221C3868.71 87.9637 3859.49 87.6428 3850.46 87.2599C3780.94 84.3125 3717.96 78.545 3652.8 74.187Z" fill="#37A6DE"/>
<path d="M3618.14 108.357C3529.74 105.696 3436.35 105.385 3351.11 110.032C3252.84 115.382 3175.64 126.731 3079.96 133.595C3016.32 138.163 2950.16 140.284 2885.07 141.412C2838.72 142.216 2790.82 142.223 2744.2 141.275C2701.11 140.438 2658.16 138.75 2615.52 136.218C2545.01 131.986 2481.53 126.071 2412.44 124.27C2283.43 120.906 2176.16 133.932 2069.47 146.764C2027.73 151.805 1984.63 156.576 1938 159.845V188.989C1955.97 188.057 1974.06 187.479 1992.19 187.258C2068.28 186.372 2142.15 190.387 2213.8 194.74C2337.06 202.198 2464.32 208.732 2580.96 197.023C2638.74 191.222 2683.83 182.093 2743.96 175.894C2934.89 156.231 3191.65 173.754 3395.64 176.823C3562.11 179.328 3721.78 173.169 3878 164.364V116.398C3869.16 116.262 3860.33 116.101 3851.57 115.91C3771.63 114.167 3694.51 110.657 3618.14 108.357Z" fill="#3097D6"/>
<path d="M3757.07 257.476C3590.2 261.916 3500.18 296.577 3333.98 301.667C3227.96 304.915 3125.36 295.07 3031.1 286.354C2936.84 277.638 2824.9 269.528 2724.73 276.163C2637.28 281.955 2583.92 297.615 2496.29 303.33C2419.94 308.308 2333.2 304.7 2257.98 299.266C2182.77 293.831 2111.07 286.556 2030.65 283.912C1999.83 282.906 1968.86 282.792 1938 283.57V338.767C2023.39 343.746 2111.26 353.903 2204.72 352.665C2266.16 351.851 2320.41 347.007 2372.48 341.357C2460.65 331.827 2546.37 320.93 2647.78 322.296C2707.26 323.096 2761.48 327.743 2817.88 332.554C2851.7 335.435 2885.57 338.192 2918.8 340.52C2955.41 343.101 2994.22 345.26 3033.2 346.559C3088.31 348.433 3145.4 348.873 3201.11 345.941C3284.4 341.562 3347.31 330.505 3431.33 326.829C3504.37 323.629 3582.87 326.505 3652.8 331.182C3717.96 335.541 3780.94 341.308 3850.46 344.255C3859.49 344.638 3868.71 344.959 3878 345.218V259.012C3838 257.265 3797.77 256.393 3757.07 257.476Z" fill="#56BDEC"/>
<path d="M3652.8 331.187C3582.87 326.51 3504.37 323.633 3431.33 326.833C3347.31 330.51 3284.4 341.567 3201.11 345.946C3145.4 348.877 3088.31 348.437 3033.19 346.564C2994.22 345.264 2955.41 343.105 2918.8 340.524C2885.57 338.197 2851.7 335.44 2817.88 332.558C2761.48 327.748 2707.26 323.101 2647.78 322.3C2546.36 320.935 2460.65 331.831 2372.48 341.362C2320.41 347.011 2266.15 351.855 2204.72 352.669C2111.26 353.907 2023.39 343.75 1938 338.772V416.85C1984.63 413.58 2027.73 408.81 2069.47 403.768C2176.16 390.936 2283.43 377.91 2412.44 381.274C2481.53 383.075 2545.01 388.99 2615.52 393.222C2658.16 395.754 2701.11 397.442 2744.19 398.279C2790.82 399.227 2838.72 399.219 2885.07 398.416C2950.16 397.287 3016.32 395.167 3079.96 390.599C3175.64 383.735 3252.84 372.385 3351.1 367.036C3436.35 362.388 3529.74 362.7 3618.14 365.361C3694.51 367.66 3771.63 371.17 3851.57 372.914C3860.33 373.105 3869.16 373.266 3878 373.401V345.222C3868.71 344.964 3859.49 344.643 3850.46 344.26C3780.94 341.312 3717.96 335.545 3652.8 331.187Z" fill="#37A6DE"/>
<path d="M3618.14 365.357C3529.74 362.696 3436.35 362.385 3351.11 367.032C3252.84 372.382 3175.64 383.731 3079.96 390.595C3016.32 395.163 2950.16 397.284 2885.07 398.412C2838.72 399.216 2790.82 399.223 2744.2 398.275C2701.11 397.438 2658.16 395.75 2615.52 393.218C2545.01 388.986 2481.53 383.071 2412.44 381.27C2283.43 377.906 2176.16 390.932 2069.47 403.764C2027.73 408.805 1984.63 413.576 1938 416.845V445.989C1955.97 445.057 1974.06 444.479 1992.19 444.258C2068.28 443.372 2142.15 447.387 2213.8 451.74C2337.06 459.198 2464.32 465.732 2580.96 454.023C2638.74 448.222 2683.83 439.093 2743.96 432.894C2934.89 413.231 3191.65 430.754 3395.64 433.823C3562.11 436.328 3721.78 430.169 3878 421.364V373.398C3869.16 373.262 3860.33 373.101 3851.57 372.91C3771.63 371.167 3694.51 367.657 3618.14 365.357Z" fill="#3097D6"/>
<path d="M3757.07 512.476C3590.2 516.916 3500.18 551.577 3333.98 556.667C3227.96 559.915 3125.36 550.07 3031.1 541.354C2936.84 532.638 2824.9 524.528 2724.73 531.163C2637.28 536.955 2583.92 552.615 2496.29 558.33C2419.94 563.308 2333.2 559.7 2257.98 554.266C2182.77 548.831 2111.07 541.556 2030.65 538.912C1999.83 537.906 1968.86 537.792 1938 538.57V593.767C2023.39 598.746 2111.26 608.903 2204.72 607.665C2266.16 606.851 2320.41 602.007 2372.48 596.357C2460.65 586.827 2546.37 575.93 2647.78 577.296C2707.26 578.096 2761.48 582.743 2817.88 587.554C2851.7 590.435 2885.57 593.192 2918.8 595.52C2955.41 598.101 2994.22 600.26 3033.2 601.559C3088.31 603.433 3145.4 603.873 3201.11 600.941C3284.4 596.562 3347.31 585.505 3431.33 581.829C3504.37 578.629 3582.87 581.505 3652.8 586.182C3717.96 590.541 3780.94 596.308 3850.46 599.255C3859.49 599.638 3868.71 599.959 3878 600.218V514.012C3838 512.265 3797.77 511.393 3757.07 512.476Z" fill="#56BDEC"/>
<path d="M3652.8 586.187C3582.87 581.51 3504.37 578.633 3431.33 581.833C3347.31 585.51 3284.4 596.567 3201.11 600.946C3145.4 603.877 3088.31 603.437 3033.19 601.564C2994.22 600.264 2955.41 598.105 2918.8 595.524C2885.57 593.197 2851.7 590.44 2817.88 587.558C2761.48 582.748 2707.26 578.101 2647.78 577.3C2546.36 575.935 2460.65 586.831 2372.48 596.362C2320.41 602.011 2266.15 606.855 2204.72 607.669C2111.26 608.907 2023.39 598.75 1938 593.772V671.85C1984.63 668.58 2027.73 663.81 2069.47 658.768C2176.16 645.936 2283.43 632.91 2412.44 636.274C2481.53 638.075 2545.01 643.99 2615.52 648.222C2658.16 650.754 2701.11 652.442 2744.19 653.279C2790.82 654.227 2838.72 654.219 2885.07 653.416C2950.16 652.287 3016.32 650.167 3079.96 645.599C3175.64 638.735 3252.84 627.385 3351.1 622.036C3436.35 617.388 3529.74 617.7 3618.14 620.361C3694.51 622.66 3771.63 626.17 3851.57 627.914C3860.33 628.105 3869.16 628.266 3878 628.401V600.222C3868.71 599.964 3859.49 599.643 3850.46 599.26C3780.94 596.312 3717.96 590.545 3652.8 586.187Z" fill="#37A6DE"/>
<path d="M3618.14 620.357C3529.74 617.696 3436.35 617.385 3351.11 622.032C3252.84 627.382 3175.64 638.731 3079.96 645.595C3016.32 650.163 2950.16 652.284 2885.07 653.412C2838.72 654.216 2790.82 654.223 2744.2 653.275C2701.11 652.438 2658.16 650.75 2615.52 648.218C2545.01 643.986 2481.53 638.071 2412.44 636.27C2283.43 632.906 2176.16 645.932 2069.47 658.764C2027.73 663.805 1984.63 668.576 1938 671.845V700.989C1955.97 700.057 1974.06 699.479 1992.19 699.258C2068.28 698.372 2142.15 702.387 2213.8 706.74C2337.06 714.198 2464.32 720.732 2580.96 709.023C2638.74 703.222 2683.83 694.093 2743.96 687.894C2934.89 668.231 3191.65 685.754 3395.64 688.823C3562.11 691.328 3721.78 685.169 3878 676.364V628.398C3869.16 628.262 3860.33 628.101 3851.57 627.91C3771.63 626.167 3694.51 622.657 3618.14 620.357Z" fill="#3097D6"/>
<path d="M3757.07 770.476C3590.2 774.916 3500.18 809.577 3333.98 814.667C3227.96 817.915 3125.36 808.07 3031.1 799.354C2936.84 790.638 2824.9 782.528 2724.73 789.163C2637.28 794.955 2583.92 810.615 2496.29 816.33C2419.94 821.308 2333.2 817.7 2257.98 812.266C2182.77 806.831 2111.07 799.556 2030.65 796.912C1999.83 795.906 1968.86 795.792 1938 796.57V851.767C2023.39 856.746 2111.26 866.903 2204.72 865.665C2266.16 864.851 2320.41 860.007 2372.48 854.357C2460.65 844.827 2546.37 833.93 2647.78 835.296C2707.26 836.096 2761.48 840.743 2817.88 845.554C2851.7 848.435 2885.57 851.192 2918.8 853.52C2955.41 856.101 2994.22 858.26 3033.2 859.559C3088.31 861.433 3145.4 861.873 3201.11 858.941C3284.4 854.562 3347.31 843.505 3431.33 839.829C3504.37 836.629 3582.87 839.505 3652.8 844.182C3717.96 848.541 3780.94 854.308 3850.46 857.255C3859.49 857.638 3868.71 857.959 3878 858.218V772.012C3838 770.265 3797.77 769.393 3757.07 770.476Z" fill="#56BDEC"/>
<path d="M3652.8 844.187C3582.87 839.51 3504.37 836.633 3431.33 839.833C3347.31 843.51 3284.4 854.567 3201.11 858.946C3145.4 861.877 3088.31 861.437 3033.19 859.564C2994.22 858.264 2955.41 856.105 2918.8 853.524C2885.57 851.197 2851.7 848.44 2817.88 845.558C2761.48 840.748 2707.26 836.101 2647.78 835.3C2546.36 833.935 2460.65 844.831 2372.48 854.362C2320.41 860.011 2266.15 864.855 2204.72 865.669C2111.26 866.907 2023.39 856.75 1938 851.772V929.85C1984.63 926.58 2027.73 921.81 2069.47 916.768C2176.16 903.936 2283.43 890.91 2412.44 894.274C2481.53 896.075 2545.01 901.99 2615.52 906.222C2658.16 908.754 2701.11 910.442 2744.19 911.279C2790.82 912.227 2838.72 912.219 2885.07 911.416C2950.16 910.287 3016.32 908.167 3079.96 903.599C3175.64 896.735 3252.84 885.385 3351.1 880.036C3436.35 875.388 3529.74 875.7 3618.14 878.361C3694.51 880.66 3771.63 884.17 3851.57 885.914C3860.33 886.105 3869.16 886.266 3878 886.401V858.222C3868.71 857.964 3859.49 857.643 3850.46 857.26C3780.94 854.312 3717.96 848.545 3652.8 844.187Z" fill="#37A6DE"/>
<path d="M3618.14 878.357C3529.74 875.696 3436.35 875.385 3351.11 880.032C3252.84 885.382 3175.64 896.731 3079.96 903.595C3016.32 908.163 2950.16 910.284 2885.07 911.412C2838.72 912.216 2790.82 912.223 2744.2 911.275C2701.11 910.438 2658.16 908.75 2615.52 906.218C2545.01 901.986 2481.53 896.071 2412.44 894.27C2283.43 890.906 2176.16 903.932 2069.47 916.764C2027.73 921.805 1984.63 926.576 1938 929.845V958.989C1955.97 958.057 1974.06 957.479 1992.19 957.258C2068.28 956.372 2142.15 960.387 2213.8 964.74C2337.06 972.198 2464.32 978.732 2580.96 967.023C2638.74 961.222 2683.83 952.093 2743.96 945.894C2934.89 926.231 3191.65 943.754 3395.64 946.823C3562.11 949.328 3721.78 943.169 3878 934.364V886.398C3869.16 886.262 3860.33 886.101 3851.57 885.91C3771.63 884.167 3694.51 880.657 3618.14 878.357Z" fill="#3097D6"/>
<path d="M120.928 129.476C287.796 133.916 377.824 168.577 544.022 173.667C650.042 176.915 752.635 167.07 846.898 158.354C941.162 149.638 1053.1 141.528 1153.27 148.163C1240.72 153.955 1294.08 169.615 1381.71 175.33C1458.06 180.308 1544.8 176.7 1620.02 171.266C1695.23 165.831 1766.93 158.556 1847.35 155.912C1878.17 154.906 1909.14 154.792 1940 155.57V210.767C1854.61 215.746 1766.74 225.903 1673.28 224.665C1611.84 223.851 1557.59 219.007 1505.52 213.357C1417.35 203.827 1331.63 192.93 1230.22 194.296C1170.74 195.096 1116.52 199.743 1060.12 204.554C1026.3 207.435 992.434 210.192 959.198 212.52C922.59 215.101 883.783 217.26 844.805 218.559C789.69 220.433 732.604 220.873 676.887 217.941C593.6 213.562 530.693 202.505 446.671 198.829C373.632 195.629 295.127 198.505 225.198 203.182C160.039 207.541 97.0635 213.308 27.5393 216.255C18.5076 216.638 9.2926 216.959 0 217.218V131.012C39.996 129.265 80.2317 128.393 120.928 129.476Z" fill="#56BDEC"/>
<path d="M225.199 203.187C295.127 198.51 373.632 195.633 446.672 198.833C530.694 202.51 593.601 213.567 676.887 217.946C732.604 220.877 789.69 220.437 844.805 218.564C883.783 217.264 922.59 215.105 959.198 212.524C992.435 210.197 1026.3 207.44 1060.12 204.558C1116.52 199.748 1170.74 195.101 1230.22 194.3C1331.64 192.935 1417.35 203.831 1505.52 213.362C1557.59 219.011 1611.85 223.855 1673.28 224.669C1766.74 225.907 1854.61 215.75 1940 210.772V288.85C1893.37 285.58 1850.27 280.81 1808.53 275.768C1701.84 262.936 1594.57 249.91 1465.56 253.274C1396.47 255.075 1332.99 260.99 1262.48 265.222C1219.84 267.754 1176.89 269.442 1133.81 270.279C1087.18 271.227 1039.28 271.219 992.93 270.416C927.839 269.287 861.678 267.167 798.037 262.599C702.36 255.735 625.16 244.385 526.895 239.036C441.649 234.388 348.264 234.7 259.863 237.361C183.488 239.66 106.371 243.17 26.4303 244.914C17.6712 245.105 8.84262 245.266 0 245.401V217.222C9.2926 216.964 18.5076 216.643 27.5397 216.26C97.0639 213.312 160.039 207.545 225.199 203.187Z" fill="#37A6DE"/>
<path d="M259.863 237.357C348.264 234.696 441.649 234.385 526.895 239.032C625.16 244.382 702.36 255.731 798.036 262.595C861.678 267.163 927.839 269.284 992.929 270.412C1039.28 271.216 1087.18 271.223 1133.8 270.275C1176.89 269.438 1219.84 267.75 1262.48 265.218C1332.99 260.986 1396.47 255.071 1465.56 253.27C1594.57 249.906 1701.84 262.932 1808.53 275.764C1850.27 280.805 1893.37 285.576 1940 288.845V317.989C1922.03 317.057 1903.94 316.479 1885.81 316.258C1809.72 315.372 1735.85 319.387 1664.2 323.74C1540.94 331.198 1413.68 337.732 1297.04 326.023C1239.26 320.222 1194.17 311.093 1134.04 304.894C943.108 285.231 686.354 302.754 482.358 305.823C315.888 308.328 156.218 302.169 0 293.364V245.398C8.84262 245.262 17.6707 245.101 26.4303 244.91C106.371 243.167 183.488 239.657 259.863 237.357Z" fill="#3097D6"/>
<path d="M120.928 386.476C287.796 390.916 377.824 425.577 544.022 430.667C650.042 433.915 752.635 424.07 846.898 415.354C941.162 406.638 1053.1 398.528 1153.27 405.163C1240.72 410.955 1294.08 426.615 1381.71 432.33C1458.06 437.308 1544.8 433.7 1620.02 428.266C1695.23 422.831 1766.93 415.556 1847.35 412.912C1878.17 411.906 1909.14 411.792 1940 412.57V467.767C1854.61 472.746 1766.74 482.903 1673.28 481.665C1611.84 480.851 1557.59 476.007 1505.52 470.357C1417.35 460.827 1331.63 449.93 1230.22 451.296C1170.74 452.096 1116.52 456.743 1060.12 461.554C1026.3 464.435 992.434 467.192 959.198 469.52C922.59 472.101 883.783 474.26 844.805 475.559C789.69 477.433 732.604 477.873 676.887 474.941C593.6 470.562 530.693 459.505 446.671 455.829C373.632 452.629 295.127 455.505 225.198 460.182C160.039 464.541 97.0635 470.308 27.5393 473.255C18.5076 473.638 9.2926 473.959 0 474.218V388.012C39.996 386.265 80.2317 385.393 120.928 386.476Z" fill="#56BDEC"/>
<path d="M225.199 460.187C295.127 455.51 373.632 452.633 446.672 455.833C530.694 459.51 593.601 470.567 676.887 474.946C732.604 477.877 789.69 477.437 844.805 475.564C883.783 474.264 922.59 472.105 959.198 469.524C992.435 467.197 1026.3 464.44 1060.12 461.558C1116.52 456.748 1170.74 452.101 1230.22 451.3C1331.64 449.935 1417.35 460.831 1505.52 470.362C1557.59 476.011 1611.85 480.855 1673.28 481.669C1766.74 482.907 1854.61 472.75 1940 467.772V545.85C1893.37 542.58 1850.27 537.81 1808.53 532.768C1701.84 519.936 1594.57 506.91 1465.56 510.274C1396.47 512.075 1332.99 517.99 1262.48 522.222C1219.84 524.754 1176.89 526.442 1133.81 527.279C1087.18 528.227 1039.28 528.219 992.93 527.416C927.839 526.287 861.678 524.167 798.037 519.599C702.36 512.735 625.16 501.385 526.895 496.036C441.649 491.388 348.264 491.7 259.863 494.361C183.488 496.66 106.371 500.17 26.4303 501.914C17.6712 502.105 8.84262 502.266 0 502.401V474.222C9.2926 473.964 18.5076 473.643 27.5397 473.26C97.0639 470.312 160.039 464.545 225.199 460.187Z" fill="#37A6DE"/>
<path d="M259.863 494.357C348.264 491.696 441.649 491.385 526.895 496.032C625.16 501.382 702.36 512.731 798.036 519.595C861.678 524.163 927.839 526.284 992.929 527.412C1039.28 528.216 1087.18 528.223 1133.8 527.275C1176.89 526.438 1219.84 524.75 1262.48 522.218C1332.99 517.986 1396.47 512.071 1465.56 510.27C1594.57 506.906 1701.84 519.932 1808.53 532.764C1850.27 537.805 1893.37 542.576 1940 545.845V574.989C1922.03 574.057 1903.94 573.479 1885.81 573.258C1809.72 572.372 1735.85 576.387 1664.2 580.74C1540.94 588.198 1413.68 594.732 1297.04 583.023C1239.26 577.222 1194.17 568.093 1134.04 561.894C943.108 542.231 686.354 559.754 482.358 562.823C315.888 565.328 156.218 559.169 0 550.364V502.398C8.84262 502.262 17.6707 502.101 26.4303 501.91C106.371 500.167 183.488 496.657 259.863 494.357Z" fill="#3097D6"/>
<path d="M120.928 641.476C287.796 645.916 377.824 680.577 544.022 685.667C650.042 688.915 752.635 679.07 846.898 670.354C941.162 661.638 1053.1 653.528 1153.27 660.163C1240.72 665.955 1294.08 681.615 1381.71 687.33C1458.06 692.308 1544.8 688.7 1620.02 683.266C1695.23 677.831 1766.93 670.556 1847.35 667.912C1878.17 666.906 1909.14 666.792 1940 667.57V722.767C1854.61 727.746 1766.74 737.903 1673.28 736.665C1611.84 735.851 1557.59 731.007 1505.52 725.357C1417.35 715.827 1331.63 704.93 1230.22 706.296C1170.74 707.096 1116.52 711.743 1060.12 716.554C1026.3 719.435 992.434 722.192 959.198 724.52C922.59 727.101 883.783 729.26 844.805 730.559C789.69 732.433 732.604 732.873 676.887 729.941C593.6 725.562 530.693 714.505 446.671 710.829C373.632 707.629 295.127 710.505 225.198 715.182C160.039 719.541 97.0635 725.308 27.5393 728.255C18.5076 728.638 9.2926 728.959 0 729.218V643.012C39.996 641.265 80.2317 640.393 120.928 641.476Z" fill="#56BDEC"/>
<path d="M225.199 715.187C295.127 710.51 373.632 707.633 446.672 710.833C530.694 714.51 593.601 725.567 676.887 729.946C732.604 732.877 789.69 732.437 844.805 730.564C883.783 729.264 922.59 727.105 959.198 724.524C992.435 722.197 1026.3 719.44 1060.12 716.558C1116.52 711.748 1170.74 707.101 1230.22 706.3C1331.64 704.935 1417.35 715.831 1505.52 725.362C1557.59 731.011 1611.85 735.855 1673.28 736.669C1766.74 737.907 1854.61 727.75 1940 722.772V800.85C1893.37 797.58 1850.27 792.81 1808.53 787.768C1701.84 774.936 1594.57 761.91 1465.56 765.274C1396.47 767.075 1332.99 772.99 1262.48 777.222C1219.84 779.754 1176.89 781.442 1133.81 782.279C1087.18 783.227 1039.28 783.219 992.93 782.416C927.839 781.287 861.678 779.167 798.037 774.599C702.36 767.735 625.16 756.385 526.895 751.036C441.649 746.388 348.264 746.7 259.863 749.361C183.488 751.66 106.371 755.17 26.4303 756.914C17.6712 757.105 8.84262 757.266 0 757.401V729.222C9.2926 728.964 18.5076 728.643 27.5397 728.26C97.0639 725.312 160.039 719.545 225.199 715.187Z" fill="#37A6DE"/>
<path d="M259.863 749.357C348.264 746.696 441.649 746.385 526.895 751.032C625.16 756.382 702.36 767.731 798.036 774.595C861.678 779.163 927.839 781.284 992.929 782.412C1039.28 783.216 1087.18 783.223 1133.8 782.275C1176.89 781.438 1219.84 779.75 1262.48 777.218C1332.99 772.986 1396.47 767.071 1465.56 765.27C1594.57 761.906 1701.84 774.932 1808.53 787.764C1850.27 792.805 1893.37 797.576 1940 800.845V829.989C1922.03 829.057 1903.94 828.479 1885.81 828.258C1809.72 827.372 1735.85 831.387 1664.2 835.74C1540.94 843.198 1413.68 849.732 1297.04 838.023C1239.26 832.222 1194.17 823.093 1134.04 816.894C943.108 797.231 686.354 814.754 482.358 817.823C315.888 820.328 156.218 814.169 0 805.364V757.398C8.84262 757.262 17.6707 757.101 26.4303 756.91C106.371 755.167 183.488 751.657 259.863 749.357Z" fill="#3097D6"/>
<path d="M120.928 899.476C287.796 903.916 377.824 938.577 544.022 943.667C650.042 946.915 752.635 937.07 846.898 928.354C941.162 919.638 1053.1 911.528 1153.27 918.163C1240.72 923.955 1294.08 939.615 1381.71 945.33C1458.06 950.308 1544.8 946.7 1620.02 941.266C1695.23 935.831 1766.93 928.556 1847.35 925.912C1878.17 924.906 1909.14 924.792 1940 925.57V980.767C1854.61 985.746 1766.74 995.903 1673.28 994.665C1611.84 993.851 1557.59 989.007 1505.52 983.357C1417.35 973.827 1331.63 962.93 1230.22 964.296C1170.74 965.096 1116.52 969.743 1060.12 974.554C1026.3 977.435 992.434 980.192 959.198 982.52C922.59 985.101 883.783 987.26 844.805 988.559C789.69 990.433 732.604 990.873 676.887 987.941C593.6 983.562 530.693 972.505 446.671 968.829C373.632 965.629 295.127 968.505 225.198 973.182C160.039 977.541 97.0635 983.308 27.5393 986.255C18.5076 986.638 9.2926 986.959 0 987.218V901.012C39.996 899.265 80.2317 898.393 120.928 899.476Z" fill="#56BDEC"/>
<path d="M225.199 973.187C295.127 968.51 373.632 965.633 446.672 968.833C530.694 972.51 593.601 983.567 676.887 987.946C732.604 990.877 789.69 990.437 844.805 988.564C883.783 987.264 922.59 985.105 959.198 982.524C992.435 980.197 1026.3 977.44 1060.12 974.558C1116.52 969.748 1170.74 965.101 1230.22 964.3C1331.64 962.935 1417.35 973.831 1505.52 983.362C1557.59 989.011 1611.85 993.855 1673.28 994.669C1766.74 995.907 1854.61 985.75 1940 980.772V1058.85C1893.37 1055.58 1850.27 1050.81 1808.53 1045.77C1701.84 1032.94 1594.57 1019.91 1465.56 1023.27C1396.47 1025.07 1332.99 1030.99 1262.48 1035.22C1219.84 1037.75 1176.89 1039.44 1133.81 1040.28C1087.18 1041.23 1039.28 1041.22 992.93 1040.42C927.839 1039.29 861.678 1037.17 798.037 1032.6C702.36 1025.74 625.16 1014.39 526.895 1009.04C441.649 1004.39 348.264 1004.7 259.863 1007.36C183.488 1009.66 106.371 1013.17 26.4303 1014.91C17.6712 1015.1 8.84262 1015.27 0 1015.4V987.222C9.2926 986.964 18.5076 986.643 27.5397 986.26C97.0639 983.312 160.039 977.545 225.199 973.187Z" fill="#37A6DE"/>
<path d="M259.863 1007.36C348.264 1004.7 441.649 1004.38 526.895 1009.03C625.16 1014.38 702.36 1025.73 798.036 1032.59C861.678 1037.16 927.839 1039.28 992.929 1040.41C1039.28 1041.22 1087.18 1041.22 1133.8 1040.28C1176.89 1039.44 1219.84 1037.75 1262.48 1035.22C1332.99 1030.99 1396.47 1025.07 1465.56 1023.27C1594.57 1019.91 1701.84 1032.93 1808.53 1045.76C1850.27 1050.81 1893.37 1055.58 1940 1058.85V1087.99C1922.03 1087.06 1903.94 1086.48 1885.81 1086.26C1809.72 1085.37 1735.85 1089.39 1664.2 1093.74C1540.94 1101.2 1413.68 1107.73 1297.04 1096.02C1239.26 1090.22 1194.17 1081.09 1134.04 1074.89C943.108 1055.23 686.354 1072.75 482.358 1075.82C315.888 1078.33 156.218 1072.17 0 1063.36V1015.4C8.84262 1015.26 17.6707 1015.1 26.4303 1014.91C106.371 1013.17 183.488 1009.66 259.863 1007.36Z" fill="#3097D6"/>
<path d="M3757.07 129.476C3590.2 133.916 3500.18 168.577 3333.98 173.667C3227.96 176.915 3125.36 167.07 3031.1 158.354C2936.84 149.638 2824.9 141.528 2724.73 148.163C2637.28 153.955 2583.92 169.615 2496.29 175.33C2419.94 180.308 2333.2 176.7 2257.98 171.266C2182.77 165.831 2111.07 158.556 2030.65 155.912C1999.83 154.906 1968.86 154.792 1938 155.57V210.767C2023.39 215.746 2111.26 225.903 2204.72 224.665C2266.16 223.851 2320.41 219.007 2372.48 213.357C2460.65 203.827 2546.37 192.93 2647.78 194.296C2707.26 195.096 2761.48 199.743 2817.88 204.554C2851.7 207.435 2885.57 210.192 2918.8 212.52C2955.41 215.101 2994.22 217.26 3033.2 218.559C3088.31 220.433 3145.4 220.873 3201.11 217.941C3284.4 213.562 3347.31 202.505 3431.33 198.829C3504.37 195.629 3582.87 198.505 3652.8 203.182C3717.96 207.541 3780.94 213.308 3850.46 216.255C3859.49 216.638 3868.71 216.959 3878 217.218V131.012C3838 129.265 3797.77 128.393 3757.07 129.476Z" fill="#56BDEC"/>
<path d="M3652.8 203.187C3582.87 198.51 3504.37 195.633 3431.33 198.833C3347.31 202.51 3284.4 213.567 3201.11 217.946C3145.4 220.877 3088.31 220.437 3033.19 218.564C2994.22 217.264 2955.41 215.105 2918.8 212.524C2885.57 210.197 2851.7 207.44 2817.88 204.558C2761.48 199.748 2707.26 195.101 2647.78 194.3C2546.36 192.935 2460.65 203.831 2372.48 213.362C2320.41 219.011 2266.15 223.855 2204.72 224.669C2111.26 225.907 2023.39 215.75 1938 210.772V288.85C1984.63 285.58 2027.73 280.81 2069.47 275.768C2176.16 262.936 2283.43 249.91 2412.44 253.274C2481.53 255.075 2545.01 260.99 2615.52 265.222C2658.16 267.754 2701.11 269.442 2744.19 270.279C2790.82 271.227 2838.72 271.219 2885.07 270.416C2950.16 269.287 3016.32 267.167 3079.96 262.599C3175.64 255.735 3252.84 244.385 3351.1 239.036C3436.35 234.388 3529.74 234.7 3618.14 237.361C3694.51 239.66 3771.63 243.17 3851.57 244.914C3860.33 245.105 3869.16 245.266 3878 245.401V217.222C3868.71 216.964 3859.49 216.643 3850.46 216.26C3780.94 213.312 3717.96 207.545 3652.8 203.187Z" fill="#37A6DE"/>
<path d="M3618.14 237.357C3529.74 234.696 3436.35 234.385 3351.11 239.032C3252.84 244.382 3175.64 255.731 3079.96 262.595C3016.32 267.163 2950.16 269.284 2885.07 270.412C2838.72 271.216 2790.82 271.223 2744.2 270.275C2701.11 269.438 2658.16 267.75 2615.52 265.218C2545.01 260.986 2481.53 255.071 2412.44 253.27C2283.43 249.906 2176.16 262.932 2069.47 275.764C2027.73 280.805 1984.63 285.576 1938 288.845V317.989C1955.97 317.057 1974.06 316.479 1992.19 316.258C2068.28 315.372 2142.15 319.387 2213.8 323.74C2337.06 331.198 2464.32 337.732 2580.96 326.023C2638.74 320.222 2683.83 311.093 2743.96 304.894C2934.89 285.231 3191.65 302.754 3395.64 305.823C3562.11 308.328 3721.78 302.169 3878 293.364V245.398C3869.16 245.262 3860.33 245.101 3851.57 244.91C3771.63 243.167 3694.51 239.657 3618.14 237.357Z" fill="#3097D6"/>
<path d="M3757.07 386.476C3590.2 390.916 3500.18 425.577 3333.98 430.667C3227.96 433.915 3125.36 424.07 3031.1 415.354C2936.84 406.638 2824.9 398.528 2724.73 405.163C2637.28 410.955 2583.92 426.615 2496.29 432.33C2419.94 437.308 2333.2 433.7 2257.98 428.266C2182.77 422.831 2111.07 415.556 2030.65 412.912C1999.83 411.906 1968.86 411.792 1938 412.57V467.767C2023.39 472.746 2111.26 482.903 2204.72 481.665C2266.16 480.851 2320.41 476.007 2372.48 470.357C2460.65 460.827 2546.37 449.93 2647.78 451.296C2707.26 452.096 2761.48 456.743 2817.88 461.554C2851.7 464.435 2885.57 467.192 2918.8 469.52C2955.41 472.101 2994.22 474.26 3033.2 475.559C3088.31 477.433 3145.4 477.873 3201.11 474.941C3284.4 470.562 3347.31 459.505 3431.33 455.829C3504.37 452.629 3582.87 455.505 3652.8 460.182C3717.96 464.541 3780.94 470.308 3850.46 473.255C3859.49 473.638 3868.71 473.959 3878 474.218V388.012C3838 386.265 3797.77 385.393 3757.07 386.476Z" fill="#56BDEC"/>
<path d="M3652.8 460.187C3582.87 455.51 3504.37 452.633 3431.33 455.833C3347.31 459.51 3284.4 470.567 3201.11 474.946C3145.4 477.877 3088.31 477.437 3033.19 475.564C2994.22 474.264 2955.41 472.105 2918.8 469.524C2885.57 467.197 2851.7 464.44 2817.88 461.558C2761.48 456.748 2707.26 452.101 2647.78 451.3C2546.36 449.935 2460.65 460.831 2372.48 470.362C2320.41 476.011 2266.15 480.855 2204.72 481.669C2111.26 482.907 2023.39 472.75 1938 467.772V545.85C1984.63 542.58 2027.73 537.81 2069.47 532.768C2176.16 519.936 2283.43 506.91 2412.44 510.274C2481.53 512.075 2545.01 517.99 2615.52 522.222C2658.16 524.754 2701.11 526.442 2744.19 527.279C2790.82 528.227 2838.72 528.219 2885.07 527.416C2950.16 526.287 3016.32 524.167 3079.96 519.599C3175.64 512.735 3252.84 501.385 3351.1 496.036C3436.35 491.388 3529.74 491.7 3618.14 494.361C3694.51 496.66 3771.63 500.17 3851.57 501.914C3860.33 502.105 3869.16 502.266 3878 502.401V474.222C3868.71 473.964 3859.49 473.643 3850.46 473.26C3780.94 470.312 3717.96 464.545 3652.8 460.187Z" fill="#37A6DE"/>
<path d="M3618.14 494.357C3529.74 491.696 3436.35 491.385 3351.11 496.032C3252.84 501.382 3175.64 512.731 3079.96 519.595C3016.32 524.163 2950.16 526.284 2885.07 527.412C2838.72 528.216 2790.82 528.223 2744.2 527.275C2701.11 526.438 2658.16 524.75 2615.52 522.218C2545.01 517.986 2481.53 512.071 2412.44 510.27C2283.43 506.906 2176.16 519.932 2069.47 532.764C2027.73 537.805 1984.63 542.576 1938 545.845V574.989C1955.97 574.057 1974.06 573.479 1992.19 573.258C2068.28 572.372 2142.15 576.387 2213.8 580.74C2337.06 588.198 2464.32 594.732 2580.96 583.023C2638.74 577.222 2683.83 568.093 2743.96 561.894C2934.89 542.231 3191.65 559.754 3395.64 562.823C3562.11 565.328 3721.78 559.169 3878 550.364V502.398C3869.16 502.262 3860.33 502.101 3851.57 501.91C3771.63 500.167 3694.51 496.657 3618.14 494.357Z" fill="#3097D6"/>
<path d="M3757.07 641.476C3590.2 645.916 3500.18 680.577 3333.98 685.667C3227.96 688.915 3125.36 679.07 3031.1 670.354C2936.84 661.638 2824.9 653.528 2724.73 660.163C2637.28 665.955 2583.92 681.615 2496.29 687.33C2419.94 692.308 2333.2 688.7 2257.98 683.266C2182.77 677.831 2111.07 670.556 2030.65 667.912C1999.83 666.906 1968.86 666.792 1938 667.57V722.767C2023.39 727.746 2111.26 737.903 2204.72 736.665C2266.16 735.851 2320.41 731.007 2372.48 725.357C2460.65 715.827 2546.37 704.93 2647.78 706.296C2707.26 707.096 2761.48 711.743 2817.88 716.554C2851.7 719.435 2885.57 722.192 2918.8 724.52C2955.41 727.101 2994.22 729.26 3033.2 730.559C3088.31 732.433 3145.4 732.873 3201.11 729.941C3284.4 725.562 3347.31 714.505 3431.33 710.829C3504.37 707.629 3582.87 710.505 3652.8 715.182C3717.96 719.541 3780.94 725.308 3850.46 728.255C3859.49 728.638 3868.71 728.959 3878 729.218V643.012C3838 641.265 3797.77 640.393 3757.07 641.476Z" fill="#56BDEC"/>
<path d="M3652.8 715.187C3582.87 710.51 3504.37 707.633 3431.33 710.833C3347.31 714.51 3284.4 725.567 3201.11 729.946C3145.4 732.877 3088.31 732.437 3033.19 730.564C2994.22 729.264 2955.41 727.105 2918.8 724.524C2885.57 722.197 2851.7 719.44 2817.88 716.558C2761.48 711.748 2707.26 707.101 2647.78 706.3C2546.36 704.935 2460.65 715.831 2372.48 725.362C2320.41 731.011 2266.15 735.855 2204.72 736.669C2111.26 737.907 2023.39 727.75 1938 722.772V800.85C1984.63 797.58 2027.73 792.81 2069.47 787.768C2176.16 774.936 2283.43 761.91 2412.44 765.274C2481.53 767.075 2545.01 772.99 2615.52 777.222C2658.16 779.754 2701.11 781.442 2744.19 782.279C2790.82 783.227 2838.72 783.219 2885.07 782.416C2950.16 781.287 3016.32 779.167 3079.96 774.599C3175.64 767.735 3252.84 756.385 3351.1 751.036C3436.35 746.388 3529.74 746.7 3618.14 749.361C3694.51 751.66 3771.63 755.17 3851.57 756.914C3860.33 757.105 3869.16 757.266 3878 757.401V729.222C3868.71 728.964 3859.49 728.643 3850.46 728.26C3780.94 725.312 3717.96 719.545 3652.8 715.187Z" fill="#37A6DE"/>
<path d="M3618.14 749.357C3529.74 746.696 3436.35 746.385 3351.11 751.032C3252.84 756.382 3175.64 767.731 3079.96 774.595C3016.32 779.163 2950.16 781.284 2885.07 782.412C2838.72 783.216 2790.82 783.223 2744.2 782.275C2701.11 781.438 2658.16 779.75 2615.52 777.218C2545.01 772.986 2481.53 767.071 2412.44 765.27C2283.43 761.906 2176.16 774.932 2069.47 787.764C2027.73 792.805 1984.63 797.576 1938 800.845V829.989C1955.97 829.057 1974.06 828.479 1992.19 828.258C2068.28 827.372 2142.15 831.387 2213.8 835.74C2337.06 843.198 2464.32 849.732 2580.96 838.023C2638.74 832.222 2683.83 823.093 2743.96 816.894C2934.89 797.231 3191.65 814.754 3395.64 817.823C3562.11 820.328 3721.78 814.169 3878 805.364V757.398C3869.16 757.262 3860.33 757.101 3851.57 756.91C3771.63 755.167 3694.51 751.657 3618.14 749.357Z" fill="#3097D6"/>
<path d="M3757.07 899.476C3590.2 903.916 3500.18 938.577 3333.98 943.667C3227.96 946.915 3125.36 937.07 3031.1 928.354C2936.84 919.638 2824.9 911.528 2724.73 918.163C2637.28 923.955 2583.92 939.615 2496.29 945.33C2419.94 950.308 2333.2 946.7 2257.98 941.266C2182.77 935.831 2111.07 928.556 2030.65 925.912C1999.83 924.906 1968.86 924.792 1938 925.57V980.767C2023.39 985.746 2111.26 995.903 2204.72 994.665C2266.16 993.851 2320.41 989.007 2372.48 983.357C2460.65 973.827 2546.37 962.93 2647.78 964.296C2707.26 965.096 2761.48 969.743 2817.88 974.554C2851.7 977.435 2885.57 980.192 2918.8 982.52C2955.41 985.101 2994.22 987.26 3033.2 988.559C3088.31 990.433 3145.4 990.873 3201.11 987.941C3284.4 983.562 3347.31 972.505 3431.33 968.829C3504.37 965.629 3582.87 968.505 3652.8 973.182C3717.96 977.541 3780.94 983.308 3850.46 986.255C3859.49 986.638 3868.71 986.959 3878 987.218V901.012C3838 899.265 3797.77 898.393 3757.07 899.476Z" fill="#56BDEC"/>
<path d="M3652.8 973.187C3582.87 968.51 3504.37 965.633 3431.33 968.833C3347.31 972.51 3284.4 983.567 3201.11 987.946C3145.4 990.877 3088.31 990.437 3033.19 988.564C2994.22 987.264 2955.41 985.105 2918.8 982.524C2885.57 980.197 2851.7 977.44 2817.88 974.558C2761.48 969.748 2707.26 965.101 2647.78 964.3C2546.36 962.935 2460.65 973.831 2372.48 983.362C2320.41 989.011 2266.15 993.855 2204.72 994.669C2111.26 995.907 2023.39 985.75 1938 980.772V1058.85C1984.63 1055.58 2027.73 1050.81 2069.47 1045.77C2176.16 1032.94 2283.43 1019.91 2412.44 1023.27C2481.53 1025.07 2545.01 1030.99 2615.52 1035.22C2658.16 1037.75 2701.11 1039.44 2744.19 1040.28C2790.82 1041.23 2838.72 1041.22 2885.07 1040.42C2950.16 1039.29 3016.32 1037.17 3079.96 1032.6C3175.64 1025.74 3252.84 1014.39 3351.1 1009.04C3436.35 1004.39 3529.74 1004.7 3618.14 1007.36C3694.51 1009.66 3771.63 1013.17 3851.57 1014.91C3860.33 1015.1 3869.16 1015.27 3878 1015.4V987.222C3868.71 986.964 3859.49 986.643 3850.46 986.26C3780.94 983.312 3717.96 977.545 3652.8 973.187Z" fill="#37A6DE"/>
<path d="M3618.14 1007.36C3529.74 1004.7 3436.35 1004.38 3351.11 1009.03C3252.84 1014.38 3175.64 1025.73 3079.96 1032.59C3016.32 1037.16 2950.16 1039.28 2885.07 1040.41C2838.72 1041.22 2790.82 1041.22 2744.2 1040.28C2701.11 1039.44 2658.16 1037.75 2615.52 1035.22C2545.01 1030.99 2481.53 1025.07 2412.44 1023.27C2283.43 1019.91 2176.16 1032.93 2069.47 1045.76C2027.73 1050.81 1984.63 1055.58 1938 1058.85V1087.99C1955.97 1087.06 1974.06 1086.48 1992.19 1086.26C2068.28 1085.37 2142.15 1089.39 2213.8 1093.74C2337.06 1101.2 2464.32 1107.73 2580.96 1096.02C2638.74 1090.22 2683.83 1081.09 2743.96 1074.89C2934.89 1055.23 3191.65 1072.75 3395.64 1075.82C3562.11 1078.33 3721.78 1072.17 3878 1063.36V1015.4C3869.16 1015.26 3860.33 1015.1 3851.57 1014.91C3771.63 1013.17 3694.51 1009.66 3618.14 1007.36Z" fill="#3097D6"/>
</svg>
