<svg width="473" height="444" viewBox="0 0 473 444" fill="none" xmlns="http://www.w3.org/2000/svg">
<path d="M11.2987 191V200.16C11.2987 201.76 10.872 203.013 10.0187 203.92C9.17867 204.827 7.92534 205.28 6.25867 205.28C4.59201 205.28 3.33201 204.827 2.47867 203.92C1.63867 203.013 1.21867 201.76 1.21867 200.16V191H3.85867V200.16C3.85867 200.987 4.05201 201.633 4.43867 202.1C4.82534 202.567 5.43201 202.8 6.25867 202.8C7.08534 202.8 7.69201 202.567 8.07867 202.1C8.46534 201.633 8.65867 200.987 8.65867 200.16V191H11.2987ZM20.9048 195.28C20.9048 194.72 20.6848 194.233 20.2448 193.82C19.8181 193.407 19.2114 193.2 18.4248 193.2C17.7581 193.2 17.2314 193.34 16.8448 193.62C16.4581 193.887 16.2648 194.253 16.2648 194.72C16.2648 194.96 16.3114 195.18 16.4048 195.38C16.4981 195.567 16.6581 195.74 16.8848 195.9C17.1248 196.047 17.4314 196.18 17.8048 196.3C18.1914 196.42 18.6781 196.533 19.2648 196.64C20.7314 196.907 21.8514 197.353 22.6248 197.98C23.3981 198.607 23.7848 199.533 23.7848 200.76V201C23.7848 201.653 23.6648 202.247 23.4248 202.78C23.1981 203.3 22.8648 203.747 22.4248 204.12C21.9848 204.493 21.4514 204.78 20.8248 204.98C20.1981 205.18 19.4914 205.28 18.7048 205.28C17.7848 205.28 16.9714 205.153 16.2648 204.9C15.5714 204.633 14.9914 204.273 14.5248 203.82C14.0581 203.353 13.7048 202.813 13.4648 202.2C13.2248 201.573 13.1048 200.893 13.1048 200.16V199.56H15.7448V200.04C15.7448 200.88 15.9848 201.553 16.4648 202.06C16.9581 202.553 17.7181 202.8 18.7448 202.8C19.5448 202.8 20.1381 202.627 20.5248 202.28C20.9114 201.933 21.1048 201.52 21.1048 201.04C21.1048 200.813 21.0648 200.6 20.9848 200.4C20.9048 200.187 20.7648 200 20.5648 199.84C20.3648 199.667 20.0914 199.513 19.7448 199.38C19.3981 199.247 18.9581 199.133 18.4248 199.04C17.7181 198.92 17.0714 198.767 16.4848 198.58C15.8981 198.38 15.3848 198.12 14.9448 197.8C14.5181 197.48 14.1848 197.08 13.9448 196.6C13.7048 196.12 13.5848 195.533 13.5848 194.84V194.72C13.5848 194.147 13.6981 193.62 13.9248 193.14C14.1648 192.647 14.4914 192.22 14.9048 191.86C15.3314 191.5 15.8381 191.22 16.4248 191.02C17.0248 190.82 17.6914 190.72 18.4248 190.72C19.2514 190.72 19.9848 190.84 20.6248 191.08C21.2648 191.307 21.7981 191.62 22.2248 192.02C22.6648 192.42 22.9914 192.88 23.2048 193.4C23.4314 193.92 23.5448 194.467 23.5448 195.04V195.76H20.9048V195.28ZM25.5509 191H30.6309C32.3642 191 33.6509 191.407 34.4909 192.22C35.3309 193.02 35.7509 194.267 35.7509 195.96V200.04C35.7509 201.733 35.3309 202.987 34.4909 203.8C33.6509 204.6 32.3642 205 30.6309 205H25.5509V202.46H26.8709V193.52H25.5509V191ZM30.6309 202.48C31.5509 202.48 32.1909 202.267 32.5509 201.84C32.9242 201.4 33.1109 200.72 33.1109 199.8V195.96C33.1109 195.16 32.9242 194.553 32.5509 194.14C32.1909 193.727 31.5509 193.52 30.6309 193.52H29.5109V202.48H30.6309ZM53.883 199V194.84L57.363 193.88V193.52H50.403V191H59.523V195.4L55.803 196.48V196.84H56.283C56.7764 196.84 57.263 196.92 57.743 197.08C58.223 197.227 58.643 197.46 59.003 197.78C59.3764 198.1 59.6764 198.5 59.903 198.98C60.1297 199.447 60.243 200 60.243 200.64V200.88C60.243 201.507 60.1364 202.087 59.923 202.62C59.723 203.153 59.4164 203.62 59.003 204.02C58.603 204.407 58.103 204.713 57.503 204.94C56.903 205.167 56.2164 205.28 55.443 205.28C54.6564 205.28 53.943 205.153 53.303 204.9C52.663 204.647 52.1164 204.3 51.663 203.86C51.223 203.42 50.883 202.913 50.643 202.34C50.403 201.767 50.283 201.16 50.283 200.52V199.68H52.923V200.4C52.923 201.04 53.1297 201.593 53.543 202.06C53.9564 202.527 54.5764 202.76 55.403 202.76C56.1097 202.76 56.6497 202.58 57.023 202.22C57.4097 201.86 57.603 201.387 57.603 200.8C57.603 200.173 57.3964 199.72 56.983 199.44C56.583 199.147 56.0697 199 55.443 199H53.883ZM72.5091 202.48V205H62.6691V202.24C62.6691 201.507 62.7758 200.88 62.9891 200.36C63.2158 199.84 63.5291 199.4 63.9291 199.04C64.3425 198.68 64.8358 198.387 65.4091 198.16C65.9825 197.92 66.6291 197.72 67.3491 197.56C67.8825 197.44 68.3158 197.307 68.6491 197.16C68.9958 197 69.2691 196.827 69.4691 196.64C69.6691 196.44 69.8025 196.227 69.8691 196C69.9491 195.76 69.9891 195.493 69.9891 195.2C69.9891 194.64 69.7825 194.173 69.3691 193.8C68.9691 193.427 68.4091 193.24 67.6891 193.24C66.9291 193.24 66.3225 193.473 65.8691 193.94C65.4158 194.393 65.1891 195.027 65.1891 195.84V196.72H62.5491V195.6C62.5491 194.947 62.6625 194.327 62.8891 193.74C63.1291 193.14 63.4625 192.62 63.8891 192.18C64.3291 191.727 64.8625 191.373 65.4891 191.12C66.1158 190.853 66.8225 190.72 67.6091 190.72C68.4491 190.72 69.1825 190.847 69.8091 191.1C70.4358 191.34 70.9558 191.66 71.3691 192.06C71.7958 192.46 72.1091 192.927 72.3091 193.46C72.5225 193.98 72.6291 194.52 72.6291 195.08V195.32C72.6291 196.493 72.2958 197.467 71.6291 198.24C70.9758 199.013 69.9025 199.573 68.4091 199.92C67.7825 200.067 67.2625 200.22 66.8491 200.38C66.4491 200.527 66.1358 200.693 65.9091 200.88C65.6825 201.067 65.5225 201.273 65.4291 201.5C65.3491 201.713 65.3091 201.96 65.3091 202.24V202.48H72.5091ZM78.0552 198C78.0552 197.547 78.2219 197.153 78.5552 196.82C78.8886 196.487 79.2819 196.32 79.7352 196.32C80.1886 196.32 80.5819 196.487 80.9152 196.82C81.2486 197.153 81.4152 197.547 81.4152 198C81.4152 198.453 81.2486 198.847 80.9152 199.18C80.5819 199.513 80.1886 199.68 79.7352 199.68C79.2819 199.68 78.8886 199.513 78.5552 199.18C78.2219 198.847 78.0552 198.453 78.0552 198ZM74.5752 196.44C74.5752 194.627 75.0286 193.22 75.9352 192.22C76.8552 191.22 78.1219 190.72 79.7352 190.72C81.3486 190.72 82.6086 191.22 83.5152 192.22C84.4352 193.22 84.8952 194.627 84.8952 196.44V199.56C84.8952 201.427 84.4352 202.847 83.5152 203.82C82.6086 204.793 81.3486 205.28 79.7352 205.28C78.1219 205.28 76.8552 204.793 75.9352 203.82C75.0286 202.847 74.5752 201.427 74.5752 199.56V196.44ZM79.7352 202.88C80.2152 202.88 80.6152 202.807 80.9352 202.66C81.2552 202.5 81.5152 202.28 81.7152 202C81.9152 201.72 82.0552 201.387 82.1352 201C82.2152 200.613 82.2552 200.187 82.2552 199.72V196.28C82.2552 195.84 82.2086 195.427 82.1152 195.04C82.0219 194.653 81.8752 194.32 81.6752 194.04C81.4752 193.76 81.2152 193.54 80.8952 193.38C80.5752 193.207 80.1886 193.12 79.7352 193.12C79.2819 193.12 78.8952 193.207 78.5752 193.38C78.2552 193.54 77.9952 193.76 77.7952 194.04C77.5952 194.32 77.4486 194.653 77.3552 195.04C77.2619 195.427 77.2152 195.84 77.2152 196.28V199.72C77.2152 200.187 77.2552 200.613 77.3352 201C77.4152 201.387 77.5552 201.72 77.7552 202C77.9552 202.28 78.2152 202.5 78.5352 202.66C78.8552 202.807 79.2552 202.88 79.7352 202.88ZM3.79867 235H1.27867V221H3.79867V226.52H4.15867C4.42534 225.973 4.81201 225.553 5.31867 225.26C5.82534 224.953 6.47201 224.8 7.25867 224.8C7.84534 224.8 8.39867 224.913 8.91867 225.14C9.45201 225.367 9.91201 225.7 10.2987 226.14C10.6987 226.567 11.012 227.093 11.2387 227.72C11.4787 228.347 11.5987 229.06 11.5987 229.86V230.22C11.5987 231.033 11.4853 231.753 11.2587 232.38C11.032 233.007 10.7253 233.54 10.3387 233.98C9.95201 234.407 9.49201 234.733 8.95867 234.96C8.43867 235.173 7.87201 235.28 7.25867 235.28C6.80534 235.28 6.41201 235.233 6.07867 235.14C5.74534 235.047 5.45201 234.92 5.19867 234.76C4.95867 234.6 4.75201 234.42 4.57867 234.22C4.41867 234.007 4.27867 233.787 4.15867 233.56H3.79867V235ZM6.43867 232.88C7.22534 232.88 7.85867 232.64 8.33867 232.16C8.83201 231.667 9.07867 231 9.07867 230.16V229.92C9.07867 229.08 8.83201 228.42 8.33867 227.94C7.85867 227.447 7.22534 227.2 6.43867 227.2C5.65201 227.2 5.01201 227.453 4.51867 227.96C4.03867 228.453 3.79867 229.107 3.79867 229.92V230.16C3.79867 230.973 4.03867 231.633 4.51867 232.14C5.01201 232.633 5.65201 232.88 6.43867 232.88ZM14.1248 232.6H17.4848V227.48H14.3648V225.08H20.0048V232.6H22.8848V235H14.1248V232.6ZM20.6248 222.14C20.6248 222.407 20.5714 222.66 20.4648 222.9C20.3714 223.127 20.2381 223.327 20.0648 223.5C19.8914 223.66 19.6848 223.793 19.4448 223.9C19.2181 223.993 18.9781 224.04 18.7248 224.04C18.4581 224.04 18.2114 223.993 17.9848 223.9C17.7581 223.793 17.5581 223.66 17.3848 223.5C17.2114 223.327 17.0714 223.127 16.9648 222.9C16.8714 222.66 16.8248 222.407 16.8248 222.14C16.8248 221.873 16.8714 221.627 16.9648 221.4C17.0714 221.16 17.2114 220.96 17.3848 220.8C17.5581 220.627 17.7581 220.493 17.9848 220.4C18.2114 220.293 18.4581 220.24 18.7248 220.24C18.9781 220.24 19.2181 220.293 19.4448 220.4C19.6848 220.493 19.8914 220.627 20.0648 220.8C20.2381 220.96 20.3714 221.16 20.4648 221.4C20.5714 221.627 20.6248 221.873 20.6248 222.14ZM26.1309 232.6H29.6109V223.4H26.2509V221H32.1309V232.6H35.3709V235H26.1309V232.6ZM38.377 232.6H41.857V223.4H38.497V221H44.377V232.6H47.617V235H38.377V232.6ZM50.863 232.6H54.223V227.48H51.103V225.08H56.743V232.6H59.623V235H50.863V232.6ZM57.363 222.14C57.363 222.407 57.3097 222.66 57.203 222.9C57.1097 223.127 56.9764 223.327 56.803 223.5C56.6297 223.66 56.423 223.793 56.183 223.9C55.9564 223.993 55.7164 224.04 55.463 224.04C55.1964 224.04 54.9497 223.993 54.723 223.9C54.4964 223.793 54.2964 223.66 54.123 223.5C53.9497 223.327 53.8097 223.127 53.703 222.9C53.6097 222.66 53.563 222.407 53.563 222.14C53.563 221.873 53.6097 221.627 53.703 221.4C53.8097 221.16 53.9497 220.96 54.123 220.8C54.2964 220.627 54.4964 220.493 54.723 220.4C54.9497 220.293 55.1964 220.24 55.463 220.24C55.7164 220.24 55.9564 220.293 56.183 220.4C56.423 220.493 56.6297 220.627 56.803 220.8C56.9764 220.96 57.1097 221.16 57.203 221.4C57.3097 221.627 57.363 221.873 57.363 222.14ZM72.6491 230.16C72.6491 230.987 72.5091 231.72 72.2291 232.36C71.9491 232.987 71.5691 233.52 71.0891 233.96C70.6091 234.387 70.0558 234.713 69.4291 234.94C68.8158 235.167 68.1691 235.28 67.4891 235.28C66.8091 235.28 66.1558 235.167 65.5291 234.94C64.9158 234.713 64.3691 234.387 63.8891 233.96C63.4091 233.52 63.0291 232.987 62.7491 232.36C62.4691 231.72 62.3291 230.987 62.3291 230.16V229.92C62.3291 229.107 62.4691 228.387 62.7491 227.76C63.0291 227.12 63.4091 226.58 63.8891 226.14C64.3691 225.7 64.9158 225.367 65.5291 225.14C66.1558 224.913 66.8091 224.8 67.4891 224.8C68.1691 224.8 68.8158 224.913 69.4291 225.14C70.0558 225.367 70.6091 225.7 71.0891 226.14C71.5691 226.58 71.9491 227.12 72.2291 227.76C72.5091 228.387 72.6491 229.107 72.6491 229.92V230.16ZM67.4891 232.88C67.8491 232.88 68.1891 232.82 68.5091 232.7C68.8291 232.58 69.1091 232.407 69.3491 232.18C69.5891 231.953 69.7758 231.68 69.9091 231.36C70.0558 231.027 70.1291 230.653 70.1291 230.24V229.84C70.1291 229.427 70.0558 229.06 69.9091 228.74C69.7758 228.407 69.5891 228.127 69.3491 227.9C69.1091 227.673 68.8291 227.5 68.5091 227.38C68.1891 227.26 67.8491 227.2 67.4891 227.2C67.1291 227.2 66.7891 227.26 66.4691 227.38C66.1491 227.5 65.8691 227.673 65.6291 227.9C65.3891 228.127 65.1958 228.407 65.0491 228.74C64.9158 229.06 64.8491 229.427 64.8491 229.84V230.24C64.8491 230.653 64.9158 231.027 65.0491 231.36C65.1958 231.68 65.3891 231.953 65.6291 232.18C65.8691 232.407 66.1491 232.58 66.4691 232.7C66.7891 232.82 67.1291 232.88 67.4891 232.88ZM77.6952 235H75.1752V225.08H77.6952V226.56H78.0552C78.2819 226 78.6486 225.567 79.1552 225.26C79.6619 224.953 80.2552 224.8 80.9352 224.8C81.4152 224.8 81.8619 224.88 82.2752 225.04C82.7019 225.187 83.0752 225.42 83.3952 225.74C83.7152 226.06 83.9619 226.467 84.1352 226.96C84.3219 227.453 84.4152 228.04 84.4152 228.72V235H81.8952V229.36C81.8952 228.653 81.7219 228.1 81.3752 227.7C81.0419 227.287 80.5552 227.08 79.9152 227.08C79.1686 227.08 78.6086 227.333 78.2352 227.84C77.8752 228.333 77.6952 229 77.6952 229.84V235Z" fill="black"/>
<path d="M30.1478 434.48V437H20.3078V434.24C20.3078 433.507 20.4145 432.88 20.6278 432.36C20.8545 431.84 21.1678 431.4 21.5678 431.04C21.9811 430.68 22.4745 430.387 23.0478 430.16C23.6211 429.92 24.2678 429.72 24.9878 429.56C25.5211 429.44 25.9545 429.307 26.2878 429.16C26.6345 429 26.9078 428.827 27.1078 428.64C27.3078 428.44 27.4411 428.227 27.5078 428C27.5878 427.76 27.6278 427.493 27.6278 427.2C27.6278 426.64 27.4211 426.173 27.0078 425.8C26.6078 425.427 26.0478 425.24 25.3278 425.24C24.5678 425.24 23.9611 425.473 23.5078 425.94C23.0545 426.393 22.8278 427.027 22.8278 427.84V428.72H20.1878V427.6C20.1878 426.947 20.3011 426.327 20.5278 425.74C20.7678 425.14 21.1011 424.62 21.5278 424.18C21.9678 423.727 22.5011 423.373 23.1278 423.12C23.7545 422.853 24.4611 422.72 25.2478 422.72C26.0878 422.72 26.8211 422.847 27.4478 423.1C28.0745 423.34 28.5945 423.66 29.0078 424.06C29.4345 424.46 29.7478 424.927 29.9478 425.46C30.1611 425.98 30.2678 426.52 30.2678 427.08V427.32C30.2678 428.493 29.9345 429.467 29.2678 430.24C28.6145 431.013 27.5411 431.573 26.0478 431.92C25.4211 432.067 24.9011 432.22 24.4878 432.38C24.0878 432.527 23.7745 432.693 23.5478 432.88C23.3211 433.067 23.1611 433.273 23.0678 433.5C22.9878 433.713 22.9478 433.96 22.9478 434.24V434.48H30.1478ZM35.6939 430C35.6939 429.547 35.8606 429.153 36.1939 428.82C36.5272 428.487 36.9206 428.32 37.3739 428.32C37.8272 428.32 38.2206 428.487 38.5539 428.82C38.8872 429.153 39.0539 429.547 39.0539 430C39.0539 430.453 38.8872 430.847 38.5539 431.18C38.2206 431.513 37.8272 431.68 37.3739 431.68C36.9206 431.68 36.5272 431.513 36.1939 431.18C35.8606 430.847 35.6939 430.453 35.6939 430ZM32.2139 428.44C32.2139 426.627 32.6672 425.22 33.5739 424.22C34.4939 423.22 35.7606 422.72 37.3739 422.72C38.9872 422.72 40.2472 423.22 41.1539 424.22C42.0739 425.22 42.5339 426.627 42.5339 428.44V431.56C42.5339 433.427 42.0739 434.847 41.1539 435.82C40.2472 436.793 38.9872 437.28 37.3739 437.28C35.7606 437.28 34.4939 436.793 33.5739 435.82C32.6672 434.847 32.2139 433.427 32.2139 431.56V428.44ZM37.3739 434.88C37.8539 434.88 38.2539 434.807 38.5739 434.66C38.8939 434.5 39.1539 434.28 39.3539 434C39.5539 433.72 39.6939 433.387 39.7739 433C39.8539 432.613 39.8939 432.187 39.8939 431.72V428.28C39.8939 427.84 39.8472 427.427 39.7539 427.04C39.6606 426.653 39.5139 426.32 39.3139 426.04C39.1139 425.76 38.8539 425.54 38.5339 425.38C38.2139 425.207 37.8272 425.12 37.3739 425.12C36.9206 425.12 36.5339 425.207 36.2139 425.38C35.8939 425.54 35.6339 425.76 35.4339 426.04C35.2339 426.32 35.0872 426.653 34.9939 427.04C34.9006 427.427 34.8539 427.84 34.8539 428.28V431.72C34.8539 432.187 34.8939 432.613 34.9739 433C35.0539 433.387 35.1939 433.72 35.3939 434C35.5939 434.28 35.8539 434.5 36.1739 434.66C36.4939 434.807 36.8939 434.88 37.3739 434.88ZM54.64 434.48V437H44.8V434.24C44.8 433.507 44.9067 432.88 45.12 432.36C45.3467 431.84 45.66 431.4 46.06 431.04C46.4733 430.68 46.9667 430.387 47.54 430.16C48.1133 429.92 48.76 429.72 49.48 429.56C50.0133 429.44 50.4467 429.307 50.78 429.16C51.1267 429 51.4 428.827 51.6 428.64C51.8 428.44 51.9333 428.227 52 428C52.08 427.76 52.12 427.493 52.12 427.2C52.12 426.64 51.9133 426.173 51.5 425.8C51.1 425.427 50.54 425.24 49.82 425.24C49.06 425.24 48.4533 425.473 48 425.94C47.5467 426.393 47.32 427.027 47.32 427.84V428.72H44.68V427.6C44.68 426.947 44.7933 426.327 45.02 425.74C45.26 425.14 45.5933 424.62 46.02 424.18C46.46 423.727 46.9933 423.373 47.62 423.12C48.2467 422.853 48.9533 422.72 49.74 422.72C50.58 422.72 51.3133 422.847 51.94 423.1C52.5667 423.34 53.0867 423.66 53.5 424.06C53.9267 424.46 54.24 424.927 54.44 425.46C54.6533 425.98 54.76 426.52 54.76 427.08V427.32C54.76 428.493 54.4267 429.467 53.76 430.24C53.1067 431.013 52.0333 431.573 50.54 431.92C49.9133 432.067 49.3933 432.22 48.98 432.38C48.58 432.527 48.2667 432.693 48.04 432.88C47.8133 433.067 47.6533 433.273 47.56 433.5C47.48 433.713 47.44 433.96 47.44 434.24V434.48H54.64ZM60.1861 430C60.1861 429.547 60.3528 429.153 60.6861 428.82C61.0194 428.487 61.4128 428.32 61.8661 428.32C62.3194 428.32 62.7128 428.487 63.0461 428.82C63.3794 429.153 63.5461 429.547 63.5461 430C63.5461 430.453 63.3794 430.847 63.0461 431.18C62.7128 431.513 62.3194 431.68 61.8661 431.68C61.4128 431.68 61.0194 431.513 60.6861 431.18C60.3528 430.847 60.1861 430.453 60.1861 430ZM56.7061 428.44C56.7061 426.627 57.1594 425.22 58.0661 424.22C58.9861 423.22 60.2528 422.72 61.8661 422.72C63.4794 422.72 64.7394 423.22 65.6461 424.22C66.5661 425.22 67.0261 426.627 67.0261 428.44V431.56C67.0261 433.427 66.5661 434.847 65.6461 435.82C64.7394 436.793 63.4794 437.28 61.8661 437.28C60.2528 437.28 58.9861 436.793 58.0661 435.82C57.1594 434.847 56.7061 433.427 56.7061 431.56V428.44ZM61.8661 434.88C62.3461 434.88 62.7461 434.807 63.0661 434.66C63.3861 434.5 63.6461 434.28 63.8461 434C64.0461 433.72 64.1861 433.387 64.2661 433C64.3461 432.613 64.3861 432.187 64.3861 431.72V428.28C64.3861 427.84 64.3394 427.427 64.2461 427.04C64.1528 426.653 64.0061 426.32 63.8061 426.04C63.6061 425.76 63.3461 425.54 63.0261 425.38C62.7061 425.207 62.3194 425.12 61.8661 425.12C61.4128 425.12 61.0261 425.207 60.7061 425.38C60.3861 425.54 60.1261 425.76 59.9261 426.04C59.7261 426.32 59.5794 426.653 59.4861 427.04C59.3928 427.427 59.3461 427.84 59.3461 428.28V431.72C59.3461 432.187 59.3861 432.613 59.4661 433C59.5461 433.387 59.6861 433.72 59.8861 434C60.0861 434.28 60.3461 434.5 60.6661 434.66C60.9861 434.807 61.3861 434.88 61.8661 434.88Z" fill="black"/>
<path d="M149.148 434.48V437H139.308V434.24C139.308 433.507 139.414 432.88 139.628 432.36C139.854 431.84 140.168 431.4 140.568 431.04C140.981 430.68 141.474 430.387 142.048 430.16C142.621 429.92 143.268 429.72 143.988 429.56C144.521 429.44 144.954 429.307 145.288 429.16C145.634 429 145.908 428.827 146.108 428.64C146.308 428.44 146.441 428.227 146.508 428C146.588 427.76 146.628 427.493 146.628 427.2C146.628 426.64 146.421 426.173 146.008 425.8C145.608 425.427 145.048 425.24 144.328 425.24C143.568 425.24 142.961 425.473 142.508 425.94C142.054 426.393 141.828 427.027 141.828 427.84V428.72H139.188V427.6C139.188 426.947 139.301 426.327 139.528 425.74C139.768 425.14 140.101 424.62 140.528 424.18C140.968 423.727 141.501 423.373 142.128 423.12C142.754 422.853 143.461 422.72 144.248 422.72C145.088 422.72 145.821 422.847 146.448 423.1C147.074 423.34 147.594 423.66 148.008 424.06C148.434 424.46 148.748 424.927 148.948 425.46C149.161 425.98 149.268 426.52 149.268 427.08V427.32C149.268 428.493 148.934 429.467 148.268 430.24C147.614 431.013 146.541 431.573 145.048 431.92C144.421 432.067 143.901 432.22 143.488 432.38C143.088 432.527 142.774 432.693 142.548 432.88C142.321 433.067 142.161 433.273 142.068 433.5C141.988 433.713 141.948 433.96 141.948 434.24V434.48H149.148ZM154.694 430C154.694 429.547 154.861 429.153 155.194 428.82C155.527 428.487 155.921 428.32 156.374 428.32C156.827 428.32 157.221 428.487 157.554 428.82C157.887 429.153 158.054 429.547 158.054 430C158.054 430.453 157.887 430.847 157.554 431.18C157.221 431.513 156.827 431.68 156.374 431.68C155.921 431.68 155.527 431.513 155.194 431.18C154.861 430.847 154.694 430.453 154.694 430ZM151.214 428.44C151.214 426.627 151.667 425.22 152.574 424.22C153.494 423.22 154.761 422.72 156.374 422.72C157.987 422.72 159.247 423.22 160.154 424.22C161.074 425.22 161.534 426.627 161.534 428.44V431.56C161.534 433.427 161.074 434.847 160.154 435.82C159.247 436.793 157.987 437.28 156.374 437.28C154.761 437.28 153.494 436.793 152.574 435.82C151.667 434.847 151.214 433.427 151.214 431.56V428.44ZM156.374 434.88C156.854 434.88 157.254 434.807 157.574 434.66C157.894 434.5 158.154 434.28 158.354 434C158.554 433.72 158.694 433.387 158.774 433C158.854 432.613 158.894 432.187 158.894 431.72V428.28C158.894 427.84 158.847 427.427 158.754 427.04C158.661 426.653 158.514 426.32 158.314 426.04C158.114 425.76 157.854 425.54 157.534 425.38C157.214 425.207 156.827 425.12 156.374 425.12C155.921 425.12 155.534 425.207 155.214 425.38C154.894 425.54 154.634 425.76 154.434 426.04C154.234 426.32 154.087 426.653 153.994 427.04C153.901 427.427 153.854 427.84 153.854 428.28V431.72C153.854 432.187 153.894 432.613 153.974 433C154.054 433.387 154.194 433.72 154.394 434C154.594 434.28 154.854 434.5 155.174 434.66C155.494 434.807 155.894 434.88 156.374 434.88ZM173.64 434.48V437H163.8V434.24C163.8 433.507 163.907 432.88 164.12 432.36C164.347 431.84 164.66 431.4 165.06 431.04C165.473 430.68 165.967 430.387 166.54 430.16C167.113 429.92 167.76 429.72 168.48 429.56C169.013 429.44 169.447 429.307 169.78 429.16C170.127 429 170.4 428.827 170.6 428.64C170.8 428.44 170.933 428.227 171 428C171.08 427.76 171.12 427.493 171.12 427.2C171.12 426.64 170.913 426.173 170.5 425.8C170.1 425.427 169.54 425.24 168.82 425.24C168.06 425.24 167.453 425.473 167 425.94C166.547 426.393 166.32 427.027 166.32 427.84V428.72H163.68V427.6C163.68 426.947 163.793 426.327 164.02 425.74C164.26 425.14 164.593 424.62 165.02 424.18C165.46 423.727 165.993 423.373 166.62 423.12C167.247 422.853 167.953 422.72 168.74 422.72C169.58 422.72 170.313 422.847 170.94 423.1C171.567 423.34 172.087 423.66 172.5 424.06C172.927 424.46 173.24 424.927 173.44 425.46C173.653 425.98 173.76 426.52 173.76 427.08V427.32C173.76 428.493 173.427 429.467 172.76 430.24C172.107 431.013 171.033 431.573 169.54 431.92C168.913 432.067 168.393 432.22 167.98 432.38C167.58 432.527 167.267 432.693 167.04 432.88C166.813 433.067 166.653 433.273 166.56 433.5C166.48 433.713 166.44 433.96 166.44 434.24V434.48H173.64ZM180.026 434.48V424.32H179.666L178.346 429.12H175.826V428.88L177.506 423H182.666V434.48H186.146V437H176.066V434.48H180.026Z" fill="black"/>
<path d="M283.148 434.48V437H273.308V434.24C273.308 433.507 273.414 432.88 273.628 432.36C273.854 431.84 274.168 431.4 274.568 431.04C274.981 430.68 275.474 430.387 276.048 430.16C276.621 429.92 277.268 429.72 277.988 429.56C278.521 429.44 278.954 429.307 279.288 429.16C279.634 429 279.908 428.827 280.108 428.64C280.308 428.44 280.441 428.227 280.508 428C280.588 427.76 280.628 427.493 280.628 427.2C280.628 426.64 280.421 426.173 280.008 425.8C279.608 425.427 279.048 425.24 278.328 425.24C277.568 425.24 276.961 425.473 276.508 425.94C276.054 426.393 275.828 427.027 275.828 427.84V428.72H273.188V427.6C273.188 426.947 273.301 426.327 273.528 425.74C273.768 425.14 274.101 424.62 274.528 424.18C274.968 423.727 275.501 423.373 276.128 423.12C276.754 422.853 277.461 422.72 278.248 422.72C279.088 422.72 279.821 422.847 280.448 423.1C281.074 423.34 281.594 423.66 282.008 424.06C282.434 424.46 282.748 424.927 282.948 425.46C283.161 425.98 283.268 426.52 283.268 427.08V427.32C283.268 428.493 282.934 429.467 282.268 430.24C281.614 431.013 280.541 431.573 279.048 431.92C278.421 432.067 277.901 432.22 277.488 432.38C277.088 432.527 276.774 432.693 276.548 432.88C276.321 433.067 276.161 433.273 276.068 433.5C275.988 433.713 275.948 433.96 275.948 434.24V434.48H283.148ZM288.694 430C288.694 429.547 288.861 429.153 289.194 428.82C289.527 428.487 289.921 428.32 290.374 428.32C290.827 428.32 291.221 428.487 291.554 428.82C291.887 429.153 292.054 429.547 292.054 430C292.054 430.453 291.887 430.847 291.554 431.18C291.221 431.513 290.827 431.68 290.374 431.68C289.921 431.68 289.527 431.513 289.194 431.18C288.861 430.847 288.694 430.453 288.694 430ZM285.214 428.44C285.214 426.627 285.667 425.22 286.574 424.22C287.494 423.22 288.761 422.72 290.374 422.72C291.987 422.72 293.247 423.22 294.154 424.22C295.074 425.22 295.534 426.627 295.534 428.44V431.56C295.534 433.427 295.074 434.847 294.154 435.82C293.247 436.793 291.987 437.28 290.374 437.28C288.761 437.28 287.494 436.793 286.574 435.82C285.667 434.847 285.214 433.427 285.214 431.56V428.44ZM290.374 434.88C290.854 434.88 291.254 434.807 291.574 434.66C291.894 434.5 292.154 434.28 292.354 434C292.554 433.72 292.694 433.387 292.774 433C292.854 432.613 292.894 432.187 292.894 431.72V428.28C292.894 427.84 292.847 427.427 292.754 427.04C292.661 426.653 292.514 426.32 292.314 426.04C292.114 425.76 291.854 425.54 291.534 425.38C291.214 425.207 290.827 425.12 290.374 425.12C289.921 425.12 289.534 425.207 289.214 425.38C288.894 425.54 288.634 425.76 288.434 426.04C288.234 426.32 288.087 426.653 287.994 427.04C287.901 427.427 287.854 427.84 287.854 428.28V431.72C287.854 432.187 287.894 432.613 287.974 433C288.054 433.387 288.194 433.72 288.394 434C288.594 434.28 288.854 434.5 289.174 434.66C289.494 434.807 289.894 434.88 290.374 434.88ZM307.64 434.48V437H297.8V434.24C297.8 433.507 297.907 432.88 298.12 432.36C298.347 431.84 298.66 431.4 299.06 431.04C299.473 430.68 299.967 430.387 300.54 430.16C301.113 429.92 301.76 429.72 302.48 429.56C303.013 429.44 303.447 429.307 303.78 429.16C304.127 429 304.4 428.827 304.6 428.64C304.8 428.44 304.933 428.227 305 428C305.08 427.76 305.12 427.493 305.12 427.2C305.12 426.64 304.913 426.173 304.5 425.8C304.1 425.427 303.54 425.24 302.82 425.24C302.06 425.24 301.453 425.473 301 425.94C300.547 426.393 300.32 427.027 300.32 427.84V428.72H297.68V427.6C297.68 426.947 297.793 426.327 298.02 425.74C298.26 425.14 298.593 424.62 299.02 424.18C299.46 423.727 299.993 423.373 300.62 423.12C301.247 422.853 301.953 422.72 302.74 422.72C303.58 422.72 304.313 422.847 304.94 423.1C305.567 423.34 306.087 423.66 306.5 424.06C306.927 424.46 307.24 424.927 307.44 425.46C307.653 425.98 307.76 426.52 307.76 427.08V427.32C307.76 428.493 307.427 429.467 306.76 430.24C306.107 431.013 305.033 431.573 303.54 431.92C302.913 432.067 302.393 432.22 301.98 432.38C301.58 432.527 301.267 432.693 301.04 432.88C300.813 433.067 300.653 433.273 300.56 433.5C300.48 433.713 300.44 433.96 300.44 434.24V434.48H307.64ZM319.886 434.48V437H310.046V434.24C310.046 433.507 310.153 432.88 310.366 432.36C310.593 431.84 310.906 431.4 311.306 431.04C311.719 430.68 312.213 430.387 312.786 430.16C313.359 429.92 314.006 429.72 314.726 429.56C315.259 429.44 315.693 429.307 316.026 429.16C316.373 429 316.646 428.827 316.846 428.64C317.046 428.44 317.179 428.227 317.246 428C317.326 427.76 317.366 427.493 317.366 427.2C317.366 426.64 317.159 426.173 316.746 425.8C316.346 425.427 315.786 425.24 315.066 425.24C314.306 425.24 313.699 425.473 313.246 425.94C312.793 426.393 312.566 427.027 312.566 427.84V428.72H309.926V427.6C309.926 426.947 310.039 426.327 310.266 425.74C310.506 425.14 310.839 424.62 311.266 424.18C311.706 423.727 312.239 423.373 312.866 423.12C313.493 422.853 314.199 422.72 314.986 422.72C315.826 422.72 316.559 422.847 317.186 423.1C317.813 423.34 318.333 423.66 318.746 424.06C319.173 424.46 319.486 424.927 319.686 425.46C319.899 425.98 320.006 426.52 320.006 427.08V427.32C320.006 428.493 319.673 429.467 319.006 430.24C318.353 431.013 317.279 431.573 315.786 431.92C315.159 432.067 314.639 432.22 314.226 432.38C313.826 432.527 313.513 432.693 313.286 432.88C313.059 433.067 312.899 433.273 312.806 433.5C312.726 433.713 312.686 433.96 312.686 434.24V434.48H319.886Z" fill="black"/>
<path d="M416.148 434.48V437H406.308V434.24C406.308 433.507 406.414 432.88 406.628 432.36C406.854 431.84 407.168 431.4 407.568 431.04C407.981 430.68 408.474 430.387 409.048 430.16C409.621 429.92 410.268 429.72 410.988 429.56C411.521 429.44 411.954 429.307 412.288 429.16C412.634 429 412.908 428.827 413.108 428.64C413.308 428.44 413.441 428.227 413.508 428C413.588 427.76 413.628 427.493 413.628 427.2C413.628 426.64 413.421 426.173 413.008 425.8C412.608 425.427 412.048 425.24 411.328 425.24C410.568 425.24 409.961 425.473 409.508 425.94C409.054 426.393 408.828 427.027 408.828 427.84V428.72H406.188V427.6C406.188 426.947 406.301 426.327 406.528 425.74C406.768 425.14 407.101 424.62 407.528 424.18C407.968 423.727 408.501 423.373 409.128 423.12C409.754 422.853 410.461 422.72 411.248 422.72C412.088 422.72 412.821 422.847 413.448 423.1C414.074 423.34 414.594 423.66 415.008 424.06C415.434 424.46 415.748 424.927 415.948 425.46C416.161 425.98 416.268 426.52 416.268 427.08V427.32C416.268 428.493 415.934 429.467 415.268 430.24C414.614 431.013 413.541 431.573 412.048 431.92C411.421 432.067 410.901 432.22 410.488 432.38C410.088 432.527 409.774 432.693 409.548 432.88C409.321 433.067 409.161 433.273 409.068 433.5C408.988 433.713 408.948 433.96 408.948 434.24V434.48H416.148ZM421.694 430C421.694 429.547 421.861 429.153 422.194 428.82C422.527 428.487 422.921 428.32 423.374 428.32C423.827 428.32 424.221 428.487 424.554 428.82C424.887 429.153 425.054 429.547 425.054 430C425.054 430.453 424.887 430.847 424.554 431.18C424.221 431.513 423.827 431.68 423.374 431.68C422.921 431.68 422.527 431.513 422.194 431.18C421.861 430.847 421.694 430.453 421.694 430ZM418.214 428.44C418.214 426.627 418.667 425.22 419.574 424.22C420.494 423.22 421.761 422.72 423.374 422.72C424.987 422.72 426.247 423.22 427.154 424.22C428.074 425.22 428.534 426.627 428.534 428.44V431.56C428.534 433.427 428.074 434.847 427.154 435.82C426.247 436.793 424.987 437.28 423.374 437.28C421.761 437.28 420.494 436.793 419.574 435.82C418.667 434.847 418.214 433.427 418.214 431.56V428.44ZM423.374 434.88C423.854 434.88 424.254 434.807 424.574 434.66C424.894 434.5 425.154 434.28 425.354 434C425.554 433.72 425.694 433.387 425.774 433C425.854 432.613 425.894 432.187 425.894 431.72V428.28C425.894 427.84 425.847 427.427 425.754 427.04C425.661 426.653 425.514 426.32 425.314 426.04C425.114 425.76 424.854 425.54 424.534 425.38C424.214 425.207 423.827 425.12 423.374 425.12C422.921 425.12 422.534 425.207 422.214 425.38C421.894 425.54 421.634 425.76 421.434 426.04C421.234 426.32 421.087 426.653 420.994 427.04C420.901 427.427 420.854 427.84 420.854 428.28V431.72C420.854 432.187 420.894 432.613 420.974 433C421.054 433.387 421.194 433.72 421.394 434C421.594 434.28 421.854 434.5 422.174 434.66C422.494 434.807 422.894 434.88 423.374 434.88ZM440.64 434.48V437H430.8V434.24C430.8 433.507 430.907 432.88 431.12 432.36C431.347 431.84 431.66 431.4 432.06 431.04C432.473 430.68 432.967 430.387 433.54 430.16C434.113 429.92 434.76 429.72 435.48 429.56C436.013 429.44 436.447 429.307 436.78 429.16C437.127 429 437.4 428.827 437.6 428.64C437.8 428.44 437.933 428.227 438 428C438.08 427.76 438.12 427.493 438.12 427.2C438.12 426.64 437.913 426.173 437.5 425.8C437.1 425.427 436.54 425.24 435.82 425.24C435.06 425.24 434.453 425.473 434 425.94C433.547 426.393 433.32 427.027 433.32 427.84V428.72H430.68V427.6C430.68 426.947 430.793 426.327 431.02 425.74C431.26 425.14 431.593 424.62 432.02 424.18C432.46 423.727 432.993 423.373 433.62 423.12C434.247 422.853 434.953 422.72 435.74 422.72C436.58 422.72 437.313 422.847 437.94 423.1C438.567 423.34 439.087 423.66 439.5 424.06C439.927 424.46 440.24 424.927 440.44 425.46C440.653 425.98 440.76 426.52 440.76 427.08V427.32C440.76 428.493 440.427 429.467 439.76 430.24C439.107 431.013 438.033 431.573 436.54 431.92C435.913 432.067 435.393 432.22 434.98 432.38C434.58 432.527 434.267 432.693 434.04 432.88C433.813 433.067 433.653 433.273 433.56 433.5C433.48 433.713 433.44 433.96 433.44 434.24V434.48H440.64ZM446.506 431V426.84L449.986 425.88V425.52H443.026V423H452.146V427.4L448.426 428.48V428.84H448.906C449.399 428.84 449.886 428.92 450.366 429.08C450.846 429.227 451.266 429.46 451.626 429.78C451.999 430.1 452.299 430.5 452.526 430.98C452.753 431.447 452.866 432 452.866 432.64V432.88C452.866 433.507 452.759 434.087 452.546 434.62C452.346 435.153 452.039 435.62 451.626 436.02C451.226 436.407 450.726 436.713 450.126 436.94C449.526 437.167 448.839 437.28 448.066 437.28C447.279 437.28 446.566 437.153 445.926 436.9C445.286 436.647 444.739 436.3 444.286 435.86C443.846 435.42 443.506 434.913 443.266 434.34C443.026 433.767 442.906 433.16 442.906 432.52V431.68H445.546V432.4C445.546 433.04 445.753 433.593 446.166 434.06C446.579 434.527 447.199 434.76 448.026 434.76C448.733 434.76 449.273 434.58 449.646 434.22C450.033 433.86 450.226 433.387 450.226 432.8C450.226 432.173 450.019 431.72 449.606 431.44C449.206 431.147 448.693 431 448.066 431H446.506Z" fill="black"/>
<path d="M131.299 138V147.16C131.299 148.76 130.872 150.013 130.019 150.92C129.179 151.827 127.925 152.28 126.259 152.28C124.592 152.28 123.332 151.827 122.479 150.92C121.639 150.013 121.219 148.76 121.219 147.16V138H123.859V147.16C123.859 147.987 124.052 148.633 124.439 149.1C124.825 149.567 125.432 149.8 126.259 149.8C127.085 149.8 127.692 149.567 128.079 149.1C128.465 148.633 128.659 147.987 128.659 147.16V138H131.299ZM140.905 142.28C140.905 141.72 140.685 141.233 140.245 140.82C139.818 140.407 139.211 140.2 138.425 140.2C137.758 140.2 137.231 140.34 136.845 140.62C136.458 140.887 136.265 141.253 136.265 141.72C136.265 141.96 136.311 142.18 136.405 142.38C136.498 142.567 136.658 142.74 136.885 142.9C137.125 143.047 137.431 143.18 137.805 143.3C138.191 143.42 138.678 143.533 139.265 143.64C140.731 143.907 141.851 144.353 142.625 144.98C143.398 145.607 143.785 146.533 143.785 147.76V148C143.785 148.653 143.665 149.247 143.425 149.78C143.198 150.3 142.865 150.747 142.425 151.12C141.985 151.493 141.451 151.78 140.825 151.98C140.198 152.18 139.491 152.28 138.705 152.28C137.785 152.28 136.971 152.153 136.265 151.9C135.571 151.633 134.991 151.273 134.525 150.82C134.058 150.353 133.705 149.813 133.465 149.2C133.225 148.573 133.105 147.893 133.105 147.16V146.56H135.745V147.04C135.745 147.88 135.985 148.553 136.465 149.06C136.958 149.553 137.718 149.8 138.745 149.8C139.545 149.8 140.138 149.627 140.525 149.28C140.911 148.933 141.105 148.52 141.105 148.04C141.105 147.813 141.065 147.6 140.985 147.4C140.905 147.187 140.765 147 140.565 146.84C140.365 146.667 140.091 146.513 139.745 146.38C139.398 146.247 138.958 146.133 138.425 146.04C137.718 145.92 137.071 145.767 136.485 145.58C135.898 145.38 135.385 145.12 134.945 144.8C134.518 144.48 134.185 144.08 133.945 143.6C133.705 143.12 133.585 142.533 133.585 141.84V141.72C133.585 141.147 133.698 140.62 133.925 140.14C134.165 139.647 134.491 139.22 134.905 138.86C135.331 138.5 135.838 138.22 136.425 138.02C137.025 137.82 137.691 137.72 138.425 137.72C139.251 137.72 139.985 137.84 140.625 138.08C141.265 138.307 141.798 138.62 142.225 139.02C142.665 139.42 142.991 139.88 143.205 140.4C143.431 140.92 143.545 141.467 143.545 142.04V142.76H140.905V142.28ZM145.551 138H150.631C152.364 138 153.651 138.407 154.491 139.22C155.331 140.02 155.751 141.267 155.751 142.96V147.04C155.751 148.733 155.331 149.987 154.491 150.8C153.651 151.6 152.364 152 150.631 152H145.551V149.46H146.871V140.52H145.551V138ZM150.631 149.48C151.551 149.48 152.191 149.267 152.551 148.84C152.924 148.4 153.111 147.72 153.111 146.8V142.96C153.111 142.16 152.924 141.553 152.551 141.14C152.191 140.727 151.551 140.52 150.631 140.52H149.511V149.48H150.631ZM173.763 138H178.763V146.84H180.803V149.36H178.763V152H176.123V149.36H169.883V145.72L173.763 138ZM172.163 146.48V146.84H176.123V139.32H175.763L172.163 146.48ZM192.509 149.48V152H182.669V149.24C182.669 148.507 182.776 147.88 182.989 147.36C183.216 146.84 183.529 146.4 183.929 146.04C184.342 145.68 184.836 145.387 185.409 145.16C185.982 144.92 186.629 144.72 187.349 144.56C187.882 144.44 188.316 144.307 188.649 144.16C188.996 144 189.269 143.827 189.469 143.64C189.669 143.44 189.802 143.227 189.869 143C189.949 142.76 189.989 142.493 189.989 142.2C189.989 141.64 189.782 141.173 189.369 140.8C188.969 140.427 188.409 140.24 187.689 140.24C186.929 140.24 186.322 140.473 185.869 140.94C185.416 141.393 185.189 142.027 185.189 142.84V143.72H182.549V142.6C182.549 141.947 182.662 141.327 182.889 140.74C183.129 140.14 183.462 139.62 183.889 139.18C184.329 138.727 184.862 138.373 185.489 138.12C186.116 137.853 186.822 137.72 187.609 137.72C188.449 137.72 189.182 137.847 189.809 138.1C190.436 138.34 190.956 138.66 191.369 139.06C191.796 139.46 192.109 139.927 192.309 140.46C192.522 140.98 192.629 141.52 192.629 142.08V142.32C192.629 143.493 192.296 144.467 191.629 145.24C190.976 146.013 189.902 146.573 188.409 146.92C187.782 147.067 187.262 147.22 186.849 147.38C186.449 147.527 186.136 147.693 185.909 147.88C185.682 148.067 185.522 148.273 185.429 148.5C185.349 148.713 185.309 148.96 185.309 149.24V149.48H192.509ZM198.055 145C198.055 144.547 198.222 144.153 198.555 143.82C198.889 143.487 199.282 143.32 199.735 143.32C200.189 143.32 200.582 143.487 200.915 143.82C201.249 144.153 201.415 144.547 201.415 145C201.415 145.453 201.249 145.847 200.915 146.18C200.582 146.513 200.189 146.68 199.735 146.68C199.282 146.68 198.889 146.513 198.555 146.18C198.222 145.847 198.055 145.453 198.055 145ZM194.575 143.44C194.575 141.627 195.029 140.22 195.935 139.22C196.855 138.22 198.122 137.72 199.735 137.72C201.349 137.72 202.609 138.22 203.515 139.22C204.435 140.22 204.895 141.627 204.895 143.44V146.56C204.895 148.427 204.435 149.847 203.515 150.82C202.609 151.793 201.349 152.28 199.735 152.28C198.122 152.28 196.855 151.793 195.935 150.82C195.029 149.847 194.575 148.427 194.575 146.56V143.44ZM199.735 149.88C200.215 149.88 200.615 149.807 200.935 149.66C201.255 149.5 201.515 149.28 201.715 149C201.915 148.72 202.055 148.387 202.135 148C202.215 147.613 202.255 147.187 202.255 146.72V143.28C202.255 142.84 202.209 142.427 202.115 142.04C202.022 141.653 201.875 141.32 201.675 141.04C201.475 140.76 201.215 140.54 200.895 140.38C200.575 140.207 200.189 140.12 199.735 140.12C199.282 140.12 198.895 140.207 198.575 140.38C198.255 140.54 197.995 140.76 197.795 141.04C197.595 141.32 197.449 141.653 197.355 142.04C197.262 142.427 197.215 142.84 197.215 143.28V146.72C197.215 147.187 197.255 147.613 197.335 148C197.415 148.387 197.555 148.72 197.755 149C197.955 149.28 198.215 149.5 198.535 149.66C198.855 149.807 199.255 149.88 199.735 149.88ZM123.799 182H121.279V168H123.799V173.52H124.159C124.425 172.973 124.812 172.553 125.319 172.26C125.825 171.953 126.472 171.8 127.259 171.8C127.845 171.8 128.399 171.913 128.919 172.14C129.452 172.367 129.912 172.7 130.299 173.14C130.699 173.567 131.012 174.093 131.239 174.72C131.479 175.347 131.599 176.06 131.599 176.86V177.22C131.599 178.033 131.485 178.753 131.259 179.38C131.032 180.007 130.725 180.54 130.339 180.98C129.952 181.407 129.492 181.733 128.959 181.96C128.439 182.173 127.872 182.28 127.259 182.28C126.805 182.28 126.412 182.233 126.079 182.14C125.745 182.047 125.452 181.92 125.199 181.76C124.959 181.6 124.752 181.42 124.579 181.22C124.419 181.007 124.279 180.787 124.159 180.56H123.799V182ZM126.439 179.88C127.225 179.88 127.859 179.64 128.339 179.16C128.832 178.667 129.079 178 129.079 177.16V176.92C129.079 176.08 128.832 175.42 128.339 174.94C127.859 174.447 127.225 174.2 126.439 174.2C125.652 174.2 125.012 174.453 124.519 174.96C124.039 175.453 123.799 176.107 123.799 176.92V177.16C123.799 177.973 124.039 178.633 124.519 179.14C125.012 179.633 125.652 179.88 126.439 179.88ZM134.125 179.6H137.485V174.48H134.365V172.08H140.005V179.6H142.885V182H134.125V179.6ZM140.625 169.14C140.625 169.407 140.571 169.66 140.465 169.9C140.371 170.127 140.238 170.327 140.065 170.5C139.891 170.66 139.685 170.793 139.445 170.9C139.218 170.993 138.978 171.04 138.725 171.04C138.458 171.04 138.211 170.993 137.985 170.9C137.758 170.793 137.558 170.66 137.385 170.5C137.211 170.327 137.071 170.127 136.965 169.9C136.871 169.66 136.825 169.407 136.825 169.14C136.825 168.873 136.871 168.627 136.965 168.4C137.071 168.16 137.211 167.96 137.385 167.8C137.558 167.627 137.758 167.493 137.985 167.4C138.211 167.293 138.458 167.24 138.725 167.24C138.978 167.24 139.218 167.293 139.445 167.4C139.685 167.493 139.891 167.627 140.065 167.8C140.238 167.96 140.371 168.16 140.465 168.4C140.571 168.627 140.625 168.873 140.625 169.14ZM146.131 179.6H149.611V170.4H146.251V168H152.131V179.6H155.371V182H146.131V179.6ZM158.377 179.6H161.857V170.4H158.497V168H164.377V179.6H167.617V182H158.377V179.6ZM170.863 179.6H174.223V174.48H171.103V172.08H176.743V179.6H179.623V182H170.863V179.6ZM177.363 169.14C177.363 169.407 177.31 169.66 177.203 169.9C177.11 170.127 176.976 170.327 176.803 170.5C176.63 170.66 176.423 170.793 176.183 170.9C175.956 170.993 175.716 171.04 175.463 171.04C175.196 171.04 174.95 170.993 174.723 170.9C174.496 170.793 174.296 170.66 174.123 170.5C173.95 170.327 173.81 170.127 173.703 169.9C173.61 169.66 173.563 169.407 173.563 169.14C173.563 168.873 173.61 168.627 173.703 168.4C173.81 168.16 173.95 167.96 174.123 167.8C174.296 167.627 174.496 167.493 174.723 167.4C174.95 167.293 175.196 167.24 175.463 167.24C175.716 167.24 175.956 167.293 176.183 167.4C176.423 167.493 176.63 167.627 176.803 167.8C176.976 167.96 177.11 168.16 177.203 168.4C177.31 168.627 177.363 168.873 177.363 169.14ZM192.649 177.16C192.649 177.987 192.509 178.72 192.229 179.36C191.949 179.987 191.569 180.52 191.089 180.96C190.609 181.387 190.056 181.713 189.429 181.94C188.816 182.167 188.169 182.28 187.489 182.28C186.809 182.28 186.156 182.167 185.529 181.94C184.916 181.713 184.369 181.387 183.889 180.96C183.409 180.52 183.029 179.987 182.749 179.36C182.469 178.72 182.329 177.987 182.329 177.16V176.92C182.329 176.107 182.469 175.387 182.749 174.76C183.029 174.12 183.409 173.58 183.889 173.14C184.369 172.7 184.916 172.367 185.529 172.14C186.156 171.913 186.809 171.8 187.489 171.8C188.169 171.8 188.816 171.913 189.429 172.14C190.056 172.367 190.609 172.7 191.089 173.14C191.569 173.58 191.949 174.12 192.229 174.76C192.509 175.387 192.649 176.107 192.649 176.92V177.16ZM187.489 179.88C187.849 179.88 188.189 179.82 188.509 179.7C188.829 179.58 189.109 179.407 189.349 179.18C189.589 178.953 189.776 178.68 189.909 178.36C190.056 178.027 190.129 177.653 190.129 177.24V176.84C190.129 176.427 190.056 176.06 189.909 175.74C189.776 175.407 189.589 175.127 189.349 174.9C189.109 174.673 188.829 174.5 188.509 174.38C188.189 174.26 187.849 174.2 187.489 174.2C187.129 174.2 186.789 174.26 186.469 174.38C186.149 174.5 185.869 174.673 185.629 174.9C185.389 175.127 185.196 175.407 185.049 175.74C184.916 176.06 184.849 176.427 184.849 176.84V177.24C184.849 177.653 184.916 178.027 185.049 178.36C185.196 178.68 185.389 178.953 185.629 179.18C185.869 179.407 186.149 179.58 186.469 179.7C186.789 179.82 187.129 179.88 187.489 179.88ZM197.695 182H195.175V172.08H197.695V173.56H198.055C198.282 173 198.649 172.567 199.155 172.26C199.662 171.953 200.255 171.8 200.935 171.8C201.415 171.8 201.862 171.88 202.275 172.04C202.702 172.187 203.075 172.42 203.395 172.74C203.715 173.06 203.962 173.467 204.135 173.96C204.322 174.453 204.415 175.04 204.415 175.72V182H201.895V176.36C201.895 175.653 201.722 175.1 201.375 174.7C201.042 174.287 200.555 174.08 199.915 174.08C199.169 174.08 198.609 174.333 198.235 174.84C197.875 175.333 197.695 176 197.695 176.84V182Z" fill="black"/>
<path d="M265.299 85V94.16C265.299 95.76 264.872 97.0133 264.019 97.92C263.179 98.8267 261.925 99.28 260.259 99.28C258.592 99.28 257.332 98.8267 256.479 97.92C255.639 97.0133 255.219 95.76 255.219 94.16V85H257.859V94.16C257.859 94.9867 258.052 95.6333 258.439 96.1C258.825 96.5667 259.432 96.8 260.259 96.8C261.085 96.8 261.692 96.5667 262.079 96.1C262.465 95.6333 262.659 94.9867 262.659 94.16V85H265.299ZM274.905 89.28C274.905 88.72 274.685 88.2333 274.245 87.82C273.818 87.4067 273.211 87.2 272.425 87.2C271.758 87.2 271.231 87.34 270.845 87.62C270.458 87.8867 270.265 88.2533 270.265 88.72C270.265 88.96 270.311 89.18 270.405 89.38C270.498 89.5667 270.658 89.74 270.885 89.9C271.125 90.0467 271.431 90.18 271.805 90.3C272.191 90.42 272.678 90.5333 273.265 90.64C274.731 90.9067 275.851 91.3533 276.625 91.98C277.398 92.6067 277.785 93.5333 277.785 94.76V95C277.785 95.6533 277.665 96.2467 277.425 96.78C277.198 97.3 276.865 97.7467 276.425 98.12C275.985 98.4933 275.451 98.78 274.825 98.98C274.198 99.18 273.491 99.28 272.705 99.28C271.785 99.28 270.971 99.1533 270.265 98.9C269.571 98.6333 268.991 98.2733 268.525 97.82C268.058 97.3533 267.705 96.8133 267.465 96.2C267.225 95.5733 267.105 94.8933 267.105 94.16V93.56H269.745V94.04C269.745 94.88 269.985 95.5533 270.465 96.06C270.958 96.5533 271.718 96.8 272.745 96.8C273.545 96.8 274.138 96.6267 274.525 96.28C274.911 95.9333 275.105 95.52 275.105 95.04C275.105 94.8133 275.065 94.6 274.985 94.4C274.905 94.1867 274.765 94 274.565 93.84C274.365 93.6667 274.091 93.5133 273.745 93.38C273.398 93.2467 272.958 93.1333 272.425 93.04C271.718 92.92 271.071 92.7667 270.485 92.58C269.898 92.38 269.385 92.12 268.945 91.8C268.518 91.48 268.185 91.08 267.945 90.6C267.705 90.12 267.585 89.5333 267.585 88.84V88.72C267.585 88.1467 267.698 87.62 267.925 87.14C268.165 86.6467 268.491 86.22 268.905 85.86C269.331 85.5 269.838 85.22 270.425 85.02C271.025 84.82 271.691 84.72 272.425 84.72C273.251 84.72 273.985 84.84 274.625 85.08C275.265 85.3067 275.798 85.62 276.225 86.02C276.665 86.42 276.991 86.88 277.205 87.4C277.431 87.92 277.545 88.4667 277.545 89.04V89.76H274.905V89.28ZM279.551 85H284.631C286.364 85 287.651 85.4067 288.491 86.22C289.331 87.02 289.751 88.2667 289.751 89.96V94.04C289.751 95.7333 289.331 96.9867 288.491 97.8C287.651 98.6 286.364 99 284.631 99H279.551V96.46H280.871V87.52H279.551V85ZM284.631 96.48C285.551 96.48 286.191 96.2667 286.551 95.84C286.924 95.4 287.111 94.72 287.111 93.8V89.96C287.111 89.16 286.924 88.5533 286.551 88.14C286.191 87.7267 285.551 87.52 284.631 87.52H283.511V96.48H284.631ZM304.443 92.76V85H313.803V87.52H307.083V91.32H307.443C307.63 90.8 307.976 90.3533 308.483 89.98C309.003 89.5933 309.696 89.4 310.563 89.4C311.216 89.4 311.803 89.5133 312.323 89.74C312.843 89.9667 313.283 90.28 313.643 90.68C314.003 91.08 314.276 91.56 314.463 92.12C314.663 92.68 314.763 93.2933 314.763 93.96V94.08C314.763 94.7867 314.643 95.4533 314.403 96.08C314.176 96.7067 313.836 97.26 313.383 97.74C312.943 98.2067 312.396 98.58 311.743 98.86C311.09 99.14 310.336 99.28 309.483 99.28C308.63 99.28 307.876 99.1667 307.223 98.94C306.57 98.7 306.016 98.3733 305.563 97.96C305.123 97.5333 304.783 97.0333 304.543 96.46C304.316 95.8733 304.203 95.24 304.203 94.56V94.08H306.843V94.32C306.843 95.0267 307.056 95.6133 307.483 96.08C307.923 96.5333 308.563 96.76 309.403 96.76C310.243 96.76 310.903 96.5333 311.383 96.08C311.876 95.6267 312.123 95 312.123 94.2C312.123 93.44 311.943 92.8733 311.583 92.5C311.223 92.1133 310.75 91.92 310.163 91.92C309.776 91.92 309.463 92.0067 309.223 92.18C308.983 92.34 308.83 92.5333 308.763 92.76H304.443ZM319.389 95.04C319.389 95.5067 319.556 95.9133 319.889 96.26C320.236 96.5933 320.769 96.76 321.489 96.76C322.209 96.76 322.776 96.5533 323.189 96.14C323.616 95.7133 323.829 95.16 323.829 94.48V92.68H323.469C323.282 93.1467 322.976 93.5267 322.549 93.82C322.122 94.1 321.516 94.24 320.729 94.24C320.129 94.24 319.569 94.1333 319.049 93.92C318.542 93.6933 318.096 93.38 317.709 92.98C317.336 92.58 317.042 92.1 316.829 91.54C316.616 90.98 316.509 90.36 316.509 89.68V89.44C316.509 88.7733 316.629 88.1533 316.869 87.58C317.109 86.9933 317.442 86.4933 317.869 86.08C318.309 85.6533 318.836 85.32 319.449 85.08C320.076 84.84 320.769 84.72 321.529 84.72C322.222 84.72 322.869 84.8333 323.469 85.06C324.082 85.2867 324.609 85.6067 325.049 86.02C325.489 86.42 325.836 86.9067 326.089 87.48C326.342 88.04 326.469 88.66 326.469 89.34V94.44C326.469 95.2 326.342 95.88 326.089 96.48C325.836 97.08 325.489 97.5867 325.049 98C324.609 98.4133 324.089 98.7333 323.489 98.96C322.902 99.1733 322.262 99.28 321.569 99.28C320.889 99.28 320.256 99.1867 319.669 99C319.082 98.8 318.569 98.52 318.129 98.16C317.702 97.7867 317.362 97.34 317.109 96.82C316.869 96.3 316.749 95.7067 316.749 95.04H319.389ZM321.489 87.24C320.809 87.24 320.249 87.4467 319.809 87.86C319.369 88.26 319.149 88.8 319.149 89.48C319.149 90.16 319.369 90.7067 319.809 91.12C320.249 91.52 320.809 91.72 321.489 91.72C322.169 91.72 322.729 91.52 323.169 91.12C323.609 90.7067 323.829 90.16 323.829 89.48C323.829 88.8 323.609 88.26 323.169 87.86C322.729 87.4467 322.169 87.24 321.489 87.24ZM331.635 95.04C331.635 95.5067 331.802 95.9133 332.135 96.26C332.482 96.5933 333.015 96.76 333.735 96.76C334.455 96.76 335.022 96.5533 335.435 96.14C335.862 95.7133 336.075 95.16 336.075 94.48V92.68H335.715C335.529 93.1467 335.222 93.5267 334.795 93.82C334.369 94.1 333.762 94.24 332.975 94.24C332.375 94.24 331.815 94.1333 331.295 93.92C330.789 93.6933 330.342 93.38 329.955 92.98C329.582 92.58 329.289 92.1 329.075 91.54C328.862 90.98 328.755 90.36 328.755 89.68V89.44C328.755 88.7733 328.875 88.1533 329.115 87.58C329.355 86.9933 329.689 86.4933 330.115 86.08C330.555 85.6533 331.082 85.32 331.695 85.08C332.322 84.84 333.015 84.72 333.775 84.72C334.469 84.72 335.115 84.8333 335.715 85.06C336.329 85.2867 336.855 85.6067 337.295 86.02C337.735 86.42 338.082 86.9067 338.335 87.48C338.589 88.04 338.715 88.66 338.715 89.34V94.44C338.715 95.2 338.589 95.88 338.335 96.48C338.082 97.08 337.735 97.5867 337.295 98C336.855 98.4133 336.335 98.7333 335.735 98.96C335.149 99.1733 334.509 99.28 333.815 99.28C333.135 99.28 332.502 99.1867 331.915 99C331.329 98.8 330.815 98.52 330.375 98.16C329.949 97.7867 329.609 97.34 329.355 96.82C329.115 96.3 328.995 95.7067 328.995 95.04H331.635ZM333.735 87.24C333.055 87.24 332.495 87.4467 332.055 87.86C331.615 88.26 331.395 88.8 331.395 89.48C331.395 90.16 331.615 90.7067 332.055 91.12C332.495 91.52 333.055 91.72 333.735 91.72C334.415 91.72 334.975 91.52 335.415 91.12C335.855 90.7067 336.075 90.16 336.075 89.48C336.075 88.8 335.855 88.26 335.415 87.86C334.975 87.4467 334.415 87.24 333.735 87.24ZM257.799 129H255.279V115H257.799V120.52H258.159C258.425 119.973 258.812 119.553 259.319 119.26C259.825 118.953 260.472 118.8 261.259 118.8C261.845 118.8 262.399 118.913 262.919 119.14C263.452 119.367 263.912 119.7 264.299 120.14C264.699 120.567 265.012 121.093 265.239 121.72C265.479 122.347 265.599 123.06 265.599 123.86V124.22C265.599 125.033 265.485 125.753 265.259 126.38C265.032 127.007 264.725 127.54 264.339 127.98C263.952 128.407 263.492 128.733 262.959 128.96C262.439 129.173 261.872 129.28 261.259 129.28C260.805 129.28 260.412 129.233 260.079 129.14C259.745 129.047 259.452 128.92 259.199 128.76C258.959 128.6 258.752 128.42 258.579 128.22C258.419 128.007 258.279 127.787 258.159 127.56H257.799V129ZM260.439 126.88C261.225 126.88 261.859 126.64 262.339 126.16C262.832 125.667 263.079 125 263.079 124.16V123.92C263.079 123.08 262.832 122.42 262.339 121.94C261.859 121.447 261.225 121.2 260.439 121.2C259.652 121.2 259.012 121.453 258.519 121.96C258.039 122.453 257.799 123.107 257.799 123.92V124.16C257.799 124.973 258.039 125.633 258.519 126.14C259.012 126.633 259.652 126.88 260.439 126.88ZM268.125 126.6H271.485V121.48H268.365V119.08H274.005V126.6H276.885V129H268.125V126.6ZM274.625 116.14C274.625 116.407 274.571 116.66 274.465 116.9C274.371 117.127 274.238 117.327 274.065 117.5C273.891 117.66 273.685 117.793 273.445 117.9C273.218 117.993 272.978 118.04 272.725 118.04C272.458 118.04 272.211 117.993 271.985 117.9C271.758 117.793 271.558 117.66 271.385 117.5C271.211 117.327 271.071 117.127 270.965 116.9C270.871 116.66 270.825 116.407 270.825 116.14C270.825 115.873 270.871 115.627 270.965 115.4C271.071 115.16 271.211 114.96 271.385 114.8C271.558 114.627 271.758 114.493 271.985 114.4C272.211 114.293 272.458 114.24 272.725 114.24C272.978 114.24 273.218 114.293 273.445 114.4C273.685 114.493 273.891 114.627 274.065 114.8C274.238 114.96 274.371 115.16 274.465 115.4C274.571 115.627 274.625 115.873 274.625 116.14ZM280.131 126.6H283.611V117.4H280.251V115H286.131V126.6H289.371V129H280.131V126.6ZM292.377 126.6H295.857V117.4H292.497V115H298.377V126.6H301.617V129H292.377V126.6ZM304.863 126.6H308.223V121.48H305.103V119.08H310.743V126.6H313.623V129H304.863V126.6ZM311.363 116.14C311.363 116.407 311.31 116.66 311.203 116.9C311.11 117.127 310.976 117.327 310.803 117.5C310.63 117.66 310.423 117.793 310.183 117.9C309.956 117.993 309.716 118.04 309.463 118.04C309.196 118.04 308.95 117.993 308.723 117.9C308.496 117.793 308.296 117.66 308.123 117.5C307.95 117.327 307.81 117.127 307.703 116.9C307.61 116.66 307.563 116.407 307.563 116.14C307.563 115.873 307.61 115.627 307.703 115.4C307.81 115.16 307.95 114.96 308.123 114.8C308.296 114.627 308.496 114.493 308.723 114.4C308.95 114.293 309.196 114.24 309.463 114.24C309.716 114.24 309.956 114.293 310.183 114.4C310.423 114.493 310.63 114.627 310.803 114.8C310.976 114.96 311.11 115.16 311.203 115.4C311.31 115.627 311.363 115.873 311.363 116.14ZM326.649 124.16C326.649 124.987 326.509 125.72 326.229 126.36C325.949 126.987 325.569 127.52 325.089 127.96C324.609 128.387 324.056 128.713 323.429 128.94C322.816 129.167 322.169 129.28 321.489 129.28C320.809 129.28 320.156 129.167 319.529 128.94C318.916 128.713 318.369 128.387 317.889 127.96C317.409 127.52 317.029 126.987 316.749 126.36C316.469 125.72 316.329 124.987 316.329 124.16V123.92C316.329 123.107 316.469 122.387 316.749 121.76C317.029 121.12 317.409 120.58 317.889 120.14C318.369 119.7 318.916 119.367 319.529 119.14C320.156 118.913 320.809 118.8 321.489 118.8C322.169 118.8 322.816 118.913 323.429 119.14C324.056 119.367 324.609 119.7 325.089 120.14C325.569 120.58 325.949 121.12 326.229 121.76C326.509 122.387 326.649 123.107 326.649 123.92V124.16ZM321.489 126.88C321.849 126.88 322.189 126.82 322.509 126.7C322.829 126.58 323.109 126.407 323.349 126.18C323.589 125.953 323.776 125.68 323.909 125.36C324.056 125.027 324.129 124.653 324.129 124.24V123.84C324.129 123.427 324.056 123.06 323.909 122.74C323.776 122.407 323.589 122.127 323.349 121.9C323.109 121.673 322.829 121.5 322.509 121.38C322.189 121.26 321.849 121.2 321.489 121.2C321.129 121.2 320.789 121.26 320.469 121.38C320.149 121.5 319.869 121.673 319.629 121.9C319.389 122.127 319.196 122.407 319.049 122.74C318.916 123.06 318.849 123.427 318.849 123.84V124.24C318.849 124.653 318.916 125.027 319.049 125.36C319.196 125.68 319.389 125.953 319.629 126.18C319.869 126.407 320.149 126.58 320.469 126.7C320.789 126.82 321.129 126.88 321.489 126.88ZM331.695 129H329.175V119.08H331.695V120.56H332.055C332.282 120 332.649 119.567 333.155 119.26C333.662 118.953 334.255 118.8 334.935 118.8C335.415 118.8 335.862 118.88 336.275 119.04C336.702 119.187 337.075 119.42 337.395 119.74C337.715 120.06 337.962 120.467 338.135 120.96C338.322 121.453 338.415 122.04 338.415 122.72V129H335.895V123.36C335.895 122.653 335.722 122.1 335.375 121.7C335.042 121.287 334.555 121.08 333.915 121.08C333.169 121.08 332.609 121.333 332.235 121.84C331.875 122.333 331.695 123 331.695 123.84V129Z" fill="black"/>
<path d="M398.299 9V18.16C398.299 19.76 397.872 21.0133 397.019 21.92C396.179 22.8267 394.925 23.28 393.259 23.28C391.592 23.28 390.332 22.8267 389.479 21.92C388.639 21.0133 388.219 19.76 388.219 18.16V9H390.859V18.16C390.859 18.9867 391.052 19.6333 391.439 20.1C391.825 20.5667 392.432 20.8 393.259 20.8C394.085 20.8 394.692 20.5667 395.079 20.1C395.465 19.6333 395.659 18.9867 395.659 18.16V9H398.299ZM407.905 13.28C407.905 12.72 407.685 12.2333 407.245 11.82C406.818 11.4067 406.211 11.2 405.425 11.2C404.758 11.2 404.231 11.34 403.845 11.62C403.458 11.8867 403.265 12.2533 403.265 12.72C403.265 12.96 403.311 13.18 403.405 13.38C403.498 13.5667 403.658 13.74 403.885 13.9C404.125 14.0467 404.431 14.18 404.805 14.3C405.191 14.42 405.678 14.5333 406.265 14.64C407.731 14.9067 408.851 15.3533 409.625 15.98C410.398 16.6067 410.785 17.5333 410.785 18.76V19C410.785 19.6533 410.665 20.2467 410.425 20.78C410.198 21.3 409.865 21.7467 409.425 22.12C408.985 22.4933 408.451 22.78 407.825 22.98C407.198 23.18 406.491 23.28 405.705 23.28C404.785 23.28 403.971 23.1533 403.265 22.9C402.571 22.6333 401.991 22.2733 401.525 21.82C401.058 21.3533 400.705 20.8133 400.465 20.2C400.225 19.5733 400.105 18.8933 400.105 18.16V17.56H402.745V18.04C402.745 18.88 402.985 19.5533 403.465 20.06C403.958 20.5533 404.718 20.8 405.745 20.8C406.545 20.8 407.138 20.6267 407.525 20.28C407.911 19.9333 408.105 19.52 408.105 19.04C408.105 18.8133 408.065 18.6 407.985 18.4C407.905 18.1867 407.765 18 407.565 17.84C407.365 17.6667 407.091 17.5133 406.745 17.38C406.398 17.2467 405.958 17.1333 405.425 17.04C404.718 16.92 404.071 16.7667 403.485 16.58C402.898 16.38 402.385 16.12 401.945 15.8C401.518 15.48 401.185 15.08 400.945 14.6C400.705 14.12 400.585 13.5333 400.585 12.84V12.72C400.585 12.1467 400.698 11.62 400.925 11.14C401.165 10.6467 401.491 10.22 401.905 9.86C402.331 9.5 402.838 9.22 403.425 9.02C404.025 8.82 404.691 8.72 405.425 8.72C406.251 8.72 406.985 8.84 407.625 9.08C408.265 9.30667 408.798 9.62 409.225 10.02C409.665 10.42 409.991 10.88 410.205 11.4C410.431 11.92 410.545 12.4667 410.545 13.04V13.76H407.905V13.28ZM412.551 9H417.631C419.364 9 420.651 9.40667 421.491 10.22C422.331 11.02 422.751 12.2667 422.751 13.96V18.04C422.751 19.7333 422.331 20.9867 421.491 21.8C420.651 22.6 419.364 23 417.631 23H412.551V20.46H413.871V11.52H412.551V9ZM417.631 20.48C418.551 20.48 419.191 20.2667 419.551 19.84C419.924 19.4 420.111 18.72 420.111 17.8V13.96C420.111 13.16 419.924 12.5533 419.551 12.14C419.191 11.7267 418.551 11.52 417.631 11.52H416.511V20.48H417.631ZM437.323 9H447.163V13.12L442.103 20.52C441.836 20.92 441.623 21.2667 441.463 21.56C441.316 21.84 441.243 22.16 441.243 22.52V23H438.403V22.4C438.403 22.1333 438.423 21.8933 438.463 21.68C438.503 21.4667 438.563 21.2533 438.643 21.04C438.736 20.8267 438.856 20.6 439.003 20.36C439.15 20.12 439.33 19.84 439.543 19.52L444.763 11.88V11.52H437.323V9ZM452.809 16C452.809 15.5467 452.976 15.1533 453.309 14.82C453.642 14.4867 454.036 14.32 454.489 14.32C454.942 14.32 455.336 14.4867 455.669 14.82C456.002 15.1533 456.169 15.5467 456.169 16C456.169 16.4533 456.002 16.8467 455.669 17.18C455.336 17.5133 454.942 17.68 454.489 17.68C454.036 17.68 453.642 17.5133 453.309 17.18C452.976 16.8467 452.809 16.4533 452.809 16ZM449.329 14.44C449.329 12.6267 449.782 11.22 450.689 10.22C451.609 9.22 452.876 8.72 454.489 8.72C456.102 8.72 457.362 9.22 458.269 10.22C459.189 11.22 459.649 12.6267 459.649 14.44V17.56C459.649 19.4267 459.189 20.8467 458.269 21.82C457.362 22.7933 456.102 23.28 454.489 23.28C452.876 23.28 451.609 22.7933 450.689 21.82C449.782 20.8467 449.329 19.4267 449.329 17.56V14.44ZM454.489 20.88C454.969 20.88 455.369 20.8067 455.689 20.66C456.009 20.5 456.269 20.28 456.469 20C456.669 19.72 456.809 19.3867 456.889 19C456.969 18.6133 457.009 18.1867 457.009 17.72V14.28C457.009 13.84 456.962 13.4267 456.869 13.04C456.776 12.6533 456.629 12.32 456.429 12.04C456.229 11.76 455.969 11.54 455.649 11.38C455.329 11.2067 454.942 11.12 454.489 11.12C454.036 11.12 453.649 11.2067 453.329 11.38C453.009 11.54 452.749 11.76 452.549 12.04C452.349 12.32 452.202 12.6533 452.109 13.04C452.016 13.4267 451.969 13.84 451.969 14.28V17.72C451.969 18.1867 452.009 18.6133 452.089 19C452.169 19.3867 452.309 19.72 452.509 20C452.709 20.28 452.969 20.5 453.289 20.66C453.609 20.8067 454.009 20.88 454.489 20.88ZM465.055 16C465.055 15.5467 465.222 15.1533 465.555 14.82C465.889 14.4867 466.282 14.32 466.735 14.32C467.189 14.32 467.582 14.4867 467.915 14.82C468.249 15.1533 468.415 15.5467 468.415 16C468.415 16.4533 468.249 16.8467 467.915 17.18C467.582 17.5133 467.189 17.68 466.735 17.68C466.282 17.68 465.889 17.5133 465.555 17.18C465.222 16.8467 465.055 16.4533 465.055 16ZM461.575 14.44C461.575 12.6267 462.029 11.22 462.935 10.22C463.855 9.22 465.122 8.72 466.735 8.72C468.349 8.72 469.609 9.22 470.515 10.22C471.435 11.22 471.895 12.6267 471.895 14.44V17.56C471.895 19.4267 471.435 20.8467 470.515 21.82C469.609 22.7933 468.349 23.28 466.735 23.28C465.122 23.28 463.855 22.7933 462.935 21.82C462.029 20.8467 461.575 19.4267 461.575 17.56V14.44ZM466.735 20.88C467.215 20.88 467.615 20.8067 467.935 20.66C468.255 20.5 468.515 20.28 468.715 20C468.915 19.72 469.055 19.3867 469.135 19C469.215 18.6133 469.255 18.1867 469.255 17.72V14.28C469.255 13.84 469.209 13.4267 469.115 13.04C469.022 12.6533 468.875 12.32 468.675 12.04C468.475 11.76 468.215 11.54 467.895 11.38C467.575 11.2067 467.189 11.12 466.735 11.12C466.282 11.12 465.895 11.2067 465.575 11.38C465.255 11.54 464.995 11.76 464.795 12.04C464.595 12.32 464.449 12.6533 464.355 13.04C464.262 13.4267 464.215 13.84 464.215 14.28V17.72C464.215 18.1867 464.255 18.6133 464.335 19C464.415 19.3867 464.555 19.72 464.755 20C464.955 20.28 465.215 20.5 465.535 20.66C465.855 20.8067 466.255 20.88 466.735 20.88ZM390.799 53H388.279V39H390.799V44.52H391.159C391.425 43.9733 391.812 43.5533 392.319 43.26C392.825 42.9533 393.472 42.8 394.259 42.8C394.845 42.8 395.399 42.9133 395.919 43.14C396.452 43.3667 396.912 43.7 397.299 44.14C397.699 44.5667 398.012 45.0933 398.239 45.72C398.479 46.3467 398.599 47.06 398.599 47.86V48.22C398.599 49.0333 398.485 49.7533 398.259 50.38C398.032 51.0067 397.725 51.54 397.339 51.98C396.952 52.4067 396.492 52.7333 395.959 52.96C395.439 53.1733 394.872 53.28 394.259 53.28C393.805 53.28 393.412 53.2333 393.079 53.14C392.745 53.0467 392.452 52.92 392.199 52.76C391.959 52.6 391.752 52.42 391.579 52.22C391.419 52.0067 391.279 51.7867 391.159 51.56H390.799V53ZM393.439 50.88C394.225 50.88 394.859 50.64 395.339 50.16C395.832 49.6667 396.079 49 396.079 48.16V47.92C396.079 47.08 395.832 46.42 395.339 45.94C394.859 45.4467 394.225 45.2 393.439 45.2C392.652 45.2 392.012 45.4533 391.519 45.96C391.039 46.4533 390.799 47.1067 390.799 47.92V48.16C390.799 48.9733 391.039 49.6333 391.519 50.14C392.012 50.6333 392.652 50.88 393.439 50.88ZM401.125 50.6H404.485V45.48H401.365V43.08H407.005V50.6H409.885V53H401.125V50.6ZM407.625 40.14C407.625 40.4067 407.571 40.66 407.465 40.9C407.371 41.1267 407.238 41.3267 407.065 41.5C406.891 41.66 406.685 41.7933 406.445 41.9C406.218 41.9933 405.978 42.04 405.725 42.04C405.458 42.04 405.211 41.9933 404.985 41.9C404.758 41.7933 404.558 41.66 404.385 41.5C404.211 41.3267 404.071 41.1267 403.965 40.9C403.871 40.66 403.825 40.4067 403.825 40.14C403.825 39.8733 403.871 39.6267 403.965 39.4C404.071 39.16 404.211 38.96 404.385 38.8C404.558 38.6267 404.758 38.4933 404.985 38.4C405.211 38.2933 405.458 38.24 405.725 38.24C405.978 38.24 406.218 38.2933 406.445 38.4C406.685 38.4933 406.891 38.6267 407.065 38.8C407.238 38.96 407.371 39.16 407.465 39.4C407.571 39.6267 407.625 39.8733 407.625 40.14ZM413.131 50.6H416.611V41.4H413.251V39H419.131V50.6H422.371V53H413.131V50.6ZM425.377 50.6H428.857V41.4H425.497V39H431.377V50.6H434.617V53H425.377V50.6ZM437.863 50.6H441.223V45.48H438.103V43.08H443.743V50.6H446.623V53H437.863V50.6ZM444.363 40.14C444.363 40.4067 444.31 40.66 444.203 40.9C444.11 41.1267 443.976 41.3267 443.803 41.5C443.63 41.66 443.423 41.7933 443.183 41.9C442.956 41.9933 442.716 42.04 442.463 42.04C442.196 42.04 441.95 41.9933 441.723 41.9C441.496 41.7933 441.296 41.66 441.123 41.5C440.95 41.3267 440.81 41.1267 440.703 40.9C440.61 40.66 440.563 40.4067 440.563 40.14C440.563 39.8733 440.61 39.6267 440.703 39.4C440.81 39.16 440.95 38.96 441.123 38.8C441.296 38.6267 441.496 38.4933 441.723 38.4C441.95 38.2933 442.196 38.24 442.463 38.24C442.716 38.24 442.956 38.2933 443.183 38.4C443.423 38.4933 443.63 38.6267 443.803 38.8C443.976 38.96 444.11 39.16 444.203 39.4C444.31 39.6267 444.363 39.8733 444.363 40.14ZM459.649 48.16C459.649 48.9867 459.509 49.72 459.229 50.36C458.949 50.9867 458.569 51.52 458.089 51.96C457.609 52.3867 457.056 52.7133 456.429 52.94C455.816 53.1667 455.169 53.28 454.489 53.28C453.809 53.28 453.156 53.1667 452.529 52.94C451.916 52.7133 451.369 52.3867 450.889 51.96C450.409 51.52 450.029 50.9867 449.749 50.36C449.469 49.72 449.329 48.9867 449.329 48.16V47.92C449.329 47.1067 449.469 46.3867 449.749 45.76C450.029 45.12 450.409 44.58 450.889 44.14C451.369 43.7 451.916 43.3667 452.529 43.14C453.156 42.9133 453.809 42.8 454.489 42.8C455.169 42.8 455.816 42.9133 456.429 43.14C457.056 43.3667 457.609 43.7 458.089 44.14C458.569 44.58 458.949 45.12 459.229 45.76C459.509 46.3867 459.649 47.1067 459.649 47.92V48.16ZM454.489 50.88C454.849 50.88 455.189 50.82 455.509 50.7C455.829 50.58 456.109 50.4067 456.349 50.18C456.589 49.9533 456.776 49.68 456.909 49.36C457.056 49.0267 457.129 48.6533 457.129 48.24V47.84C457.129 47.4267 457.056 47.06 456.909 46.74C456.776 46.4067 456.589 46.1267 456.349 45.9C456.109 45.6733 455.829 45.5 455.509 45.38C455.189 45.26 454.849 45.2 454.489 45.2C454.129 45.2 453.789 45.26 453.469 45.38C453.149 45.5 452.869 45.6733 452.629 45.9C452.389 46.1267 452.196 46.4067 452.049 46.74C451.916 47.06 451.849 47.4267 451.849 47.84V48.24C451.849 48.6533 451.916 49.0267 452.049 49.36C452.196 49.68 452.389 49.9533 452.629 50.18C452.869 50.4067 453.149 50.58 453.469 50.7C453.789 50.82 454.129 50.88 454.489 50.88ZM464.695 53H462.175V43.08H464.695V44.56H465.055C465.282 44 465.649 43.5667 466.155 43.26C466.662 42.9533 467.255 42.8 467.935 42.8C468.415 42.8 468.862 42.88 469.275 43.04C469.702 43.1867 470.075 43.42 470.395 43.74C470.715 44.06 470.962 44.4667 471.135 44.96C471.322 45.4533 471.415 46.04 471.415 46.72V53H468.895V47.36C468.895 46.6533 468.722 46.1 468.375 45.7C468.042 45.2867 467.555 45.08 466.915 45.08C466.169 45.08 465.609 45.3333 465.235 45.84C464.875 46.3333 464.695 47 464.695 47.84V53Z" fill="black"/>
<path d="M43.333 397.69L2 385.106V260.672L43.333 273.256V397.69Z" fill="url(#paint0_linear_937_1240)"/>
<path d="M43.332 397.69L84.6664 385.106V260.672L43.332 273.256V397.69Z" fill="url(#paint1_linear_937_1240)"/>
<g style="mix-blend-mode:multiply">
<path d="M43.332 397.69L84.6664 385.106V260.672L43.332 273.256V397.69Z" fill="url(#paint2_linear_937_1240)"/>
</g>
<path d="M43.333 247.203L2 260.671L43.333 273.255L84.6673 260.671L43.333 247.203Z" fill="url(#paint3_linear_937_1240)"/>
<path d="M163.046 397.693L121.715 385.109V212.648L163.046 225.232V397.693Z" fill="url(#paint4_linear_937_1240)"/>
<path d="M163.047 397.693L204.381 385.109V212.648L163.047 225.232V397.693Z" fill="url(#paint5_linear_937_1240)"/>
<g style="mix-blend-mode:multiply">
<path d="M163.047 397.693L204.381 385.109V212.648L163.047 225.232V397.693Z" fill="url(#paint6_linear_937_1240)"/>
</g>
<path d="M163.046 199.18L121.715 212.646L163.046 225.23L204.381 212.646L163.046 199.18Z" fill="url(#paint7_linear_937_1240)"/>
<path d="M296.652 397.692L255.32 385.108V159.469L296.652 172.053V397.692Z" fill="url(#paint8_linear_937_1240)"/>
<path d="M296.652 397.692L337.988 385.108V159.469L296.652 172.053V397.692Z" fill="url(#paint9_linear_937_1240)"/>
<g style="mix-blend-mode:multiply">
<path d="M296.652 397.692L337.988 385.108V159.469L296.652 172.053V397.692Z" fill="url(#paint10_linear_937_1240)"/>
</g>
<path d="M296.652 146L255.32 159.466L296.652 172.05L337.988 159.466L296.652 146Z" fill="url(#paint11_linear_937_1240)"/>
<path d="M429 399L388 382.572V88L429 104.428V399Z" fill="url(#paint12_linear_937_1240)"/>
<path d="M429 399L471 382.572V88L429 104.428V399Z" fill="url(#paint13_linear_937_1240)"/>
<g style="mix-blend-mode:multiply">
<path d="M429 399L471 382.572V88L429 104.428V399Z" fill="url(#paint14_linear_937_1240)"/>
</g>
<path d="M429.498 71L388 88.576L429.498 105L471 88.576L429.498 71Z" fill="url(#paint15_linear_937_1240)"/>
<defs>
<linearGradient id="paint0_linear_937_1240" x1="-564.491" y1="71.5863" x2="701.384" y2="71.5863" gradientUnits="userSpaceOnUse">
<stop stop-color="#B61CCF"/>
<stop offset="0.477" stop-color="#AF96E3"/>
<stop offset="1" stop-color="#7B3FE4"/>
</linearGradient>
<linearGradient id="paint1_linear_937_1240" x1="-523.178" y1="71.5863" x2="742.739" y2="71.5863" gradientUnits="userSpaceOnUse">
<stop stop-color="#B61CCF"/>
<stop offset="0.477" stop-color="#AF96E3"/>
<stop offset="1" stop-color="#7B3FE4"/>
</linearGradient>
<linearGradient id="paint2_linear_937_1240" x1="-523.178" y1="71.5863" x2="742.739" y2="71.5863" gradientUnits="userSpaceOnUse">
<stop stop-color="#B61CCF"/>
<stop offset="0.477" stop-color="#AF96E3"/>
<stop offset="1" stop-color="#7B3FE4"/>
</linearGradient>
<linearGradient id="paint3_linear_937_1240" x1="-1131" y1="211.252" x2="1400.79" y2="211.252" gradientUnits="userSpaceOnUse">
<stop/>
<stop offset="0.477" stop-color="#AF96E3"/>
<stop offset="1" stop-color="#6B184A"/>
</linearGradient>
<linearGradient id="paint4_linear_937_1240" x1="-444.758" y1="-42.7137" x2="821.075" y2="-42.7137" gradientUnits="userSpaceOnUse">
<stop stop-color="#B61CCF"/>
<stop offset="0.477" stop-color="#AF96E3"/>
<stop offset="1" stop-color="#7B3FE4"/>
</linearGradient>
<linearGradient id="paint5_linear_937_1240" x1="-403.463" y1="-42.7137" x2="862.454" y2="-42.7137" gradientUnits="userSpaceOnUse">
<stop stop-color="#B61CCF"/>
<stop offset="0.477" stop-color="#AF96E3"/>
<stop offset="1" stop-color="#7B3FE4"/>
</linearGradient>
<linearGradient id="paint6_linear_937_1240" x1="-403.463" y1="-42.7137" x2="862.454" y2="-42.7137" gradientUnits="userSpaceOnUse">
<stop stop-color="#B61CCF"/>
<stop offset="0.477" stop-color="#AF96E3"/>
<stop offset="1" stop-color="#7B3FE4"/>
</linearGradient>
<linearGradient id="paint7_linear_937_1240" x1="-1011.27" y1="163.23" x2="1520.48" y2="163.23" gradientUnits="userSpaceOnUse">
<stop/>
<stop offset="0.477" stop-color="#AF96E3"/>
<stop offset="1" stop-color="#6B184A"/>
</linearGradient>
<linearGradient id="paint8_linear_937_1240" x1="-311.152" y1="-169.28" x2="954.681" y2="-169.28" gradientUnits="userSpaceOnUse">
<stop stop-color="#B61CCF"/>
<stop offset="0.477" stop-color="#AF96E3"/>
<stop offset="1" stop-color="#7B3FE4"/>
</linearGradient>
<linearGradient id="paint9_linear_937_1240" x1="-269.877" y1="-169.28" x2="996.083" y2="-169.28" gradientUnits="userSpaceOnUse">
<stop stop-color="#B61CCF"/>
<stop offset="0.477" stop-color="#AF96E3"/>
<stop offset="1" stop-color="#7B3FE4"/>
</linearGradient>
<linearGradient id="paint10_linear_937_1240" x1="-269.877" y1="-169.28" x2="996.083" y2="-169.28" gradientUnits="userSpaceOnUse">
<stop stop-color="#B61CCF"/>
<stop offset="0.477" stop-color="#AF96E3"/>
<stop offset="1" stop-color="#7B3FE4"/>
</linearGradient>
<linearGradient id="paint11_linear_937_1240" x1="-877.681" y1="110.05" x2="1654.11" y2="110.05" gradientUnits="userSpaceOnUse">
<stop/>
<stop offset="0.477" stop-color="#AF96E3"/>
<stop offset="1" stop-color="#6B184A"/>
</linearGradient>
<linearGradient id="paint12_linear_937_1240" x1="-173.928" y1="-341.182" x2="1081.75" y2="-341.182" gradientUnits="userSpaceOnUse">
<stop stop-color="#B61CCF"/>
<stop offset="0.477" stop-color="#AF96E3"/>
<stop offset="1" stop-color="#7B3FE4"/>
</linearGradient>
<linearGradient id="paint13_linear_937_1240" x1="-146.633" y1="-341.182" x2="1139.67" y2="-341.182" gradientUnits="userSpaceOnUse">
<stop stop-color="#B61CCF"/>
<stop offset="0.477" stop-color="#AF96E3"/>
<stop offset="1" stop-color="#7B3FE4"/>
</linearGradient>
<linearGradient id="paint14_linear_937_1240" x1="-146.633" y1="-341.182" x2="1139.67" y2="-341.182" gradientUnits="userSpaceOnUse">
<stop stop-color="#B61CCF"/>
<stop offset="0.477" stop-color="#AF96E3"/>
<stop offset="1" stop-color="#7B3FE4"/>
</linearGradient>
<linearGradient id="paint15_linear_937_1240" x1="-749.561" y1="24.0798" x2="1792.42" y2="24.0798" gradientUnits="userSpaceOnUse">
<stop/>
<stop offset="0.477" stop-color="#AF96E3"/>
<stop offset="1" stop-color="#6B184A"/>
</linearGradient>
</defs>
</svg>
