<svg width="1128" height="318" viewBox="0 0 1128 318" fill="none" xmlns="http://www.w3.org/2000/svg">
<path d="M219.867 185.181C238.735 133.926 212.459 77.0876 161.178 58.2293C109.897 39.371 53.0306 65.634 34.1629 116.889C15.2953 168.145 41.5713 224.983 92.8522 243.841C144.133 262.7 201 236.437 219.867 185.181Z" fill="#605EF2"/>
<path d="M30.1531 152.307C30.1811 132.891 35.9269 113.913 46.6739 97.7399C57.4208 81.5664 72.6935 68.9128 90.5874 61.3569C108.481 53.801 128.205 51.6772 147.298 55.2503C166.392 58.8234 184.01 67.9354 197.957 81.4499C188.89 71.7555 177.963 63.9844 165.828 58.5998C153.692 53.2151 140.596 50.3269 127.321 50.1073C114.045 49.8877 100.861 52.3412 88.5539 57.3215C76.2469 62.3019 65.0686 69.7073 55.6852 79.0964C46.3019 88.4856 38.9053 99.6665 33.9361 111.973C28.967 124.279 26.527 137.46 26.7615 150.729C26.996 163.997 29.9002 177.083 35.3011 189.207C40.702 201.33 48.4891 212.243 58.1984 221.295C40.1711 202.858 30.1011 178.087 30.1531 152.307Z" fill="white"/>
<path d="M213.85 150.441C213.85 167.596 208.761 184.367 199.225 198.632C189.689 212.896 176.135 224.014 160.277 230.579C144.419 237.145 126.97 238.862 110.135 235.515C93.3005 232.168 77.8369 223.907 65.6999 211.776C53.5629 199.645 45.2974 184.189 41.9488 167.363C38.6002 150.537 40.3188 133.096 46.8874 117.246C53.4559 101.396 64.5793 87.8491 78.8509 78.3178C93.1226 68.7865 109.901 63.6992 127.066 63.6992C150.083 63.6992 172.157 72.8381 188.432 89.1052C204.707 105.372 213.85 127.435 213.85 150.441Z" fill="white"/>
<path d="M1094 185.059C1112.78 133.771 1086.4 76.9789 1035.09 58.2101C983.775 39.4413 926.955 65.8034 908.177 117.092C889.398 168.38 915.774 225.172 967.087 243.941C1018.4 262.71 1075.22 236.348 1094 185.059Z" fill="#F2BE36"/>
<path d="M907.853 151.325C907.849 132.54 913.421 114.171 923.87 98.5185C934.32 82.8657 949.183 70.6245 966.599 63.3272C984.015 56.03 1003.21 54.0011 1021.78 57.4944C1040.35 60.9878 1057.47 69.8482 1071 82.9664C1062.08 74.0999 1051.49 67.0667 1039.83 62.2682C1028.18 57.4698 1015.68 55 1003.07 55C990.453 55 977.961 57.4697 966.305 62.2682C954.649 67.0667 944.059 74.0999 935.138 82.9664C926.217 91.8328 919.141 102.359 914.313 113.943C909.485 125.528 907 137.944 907 150.483C907 163.022 909.485 175.438 914.313 187.023C919.141 198.608 926.217 209.134 935.138 218C917.639 200.164 907.848 176.237 907.853 151.325Z" fill="white"/>
<path d="M903.454 152.307C903.482 132.891 909.228 113.913 919.975 97.7399C930.722 81.5664 945.994 68.9128 963.888 61.3569C981.782 53.801 1001.51 51.6772 1020.6 55.2503C1039.69 58.8234 1057.31 67.9354 1071.26 81.4499C1062.19 71.7555 1051.26 63.9844 1039.13 58.5998C1026.99 53.2151 1013.9 50.3269 1000.62 50.1073C987.346 49.8877 974.162 52.3412 961.855 57.3215C949.548 62.3019 938.369 69.7073 928.986 79.0964C919.603 88.4856 912.206 99.6665 907.237 111.973C902.268 124.279 899.828 137.46 900.062 150.729C900.297 163.997 903.201 177.083 908.602 189.207C914.003 201.33 921.79 212.243 931.499 221.295C913.528 202.821 903.468 178.074 903.454 152.307Z" fill="white"/>
<path d="M1087.15 150.441C1087.15 167.603 1082.05 184.38 1072.51 198.648C1062.97 212.916 1049.4 224.034 1033.54 230.594C1017.67 237.155 1000.21 238.864 983.374 235.504C966.536 232.144 951.073 223.868 938.942 211.721C926.811 199.574 918.558 184.104 915.227 167.268C911.896 150.431 913.637 132.985 920.229 117.138C926.821 101.291 937.969 87.7547 952.261 78.2422C966.553 68.7297 983.348 63.6685 1000.52 63.6994C1023.51 63.7406 1045.54 72.8977 1061.78 89.1604C1078.03 105.423 1087.15 127.462 1087.15 150.441Z" fill="white"/>
<path d="M918.173 198.862C939.942 135.312 906.046 66.1562 842.465 44.3981C778.883 22.6401 709.693 56.5192 687.924 120.069C666.155 183.619 700.051 252.775 763.633 274.533C827.214 296.291 896.404 262.412 918.173 198.862Z" fill="#BFF253"/>
<path d="M683.298 161.336C683.28 137.408 690.323 114.007 703.547 94.0604C716.771 74.1143 735.588 58.51 757.641 49.2009C779.695 39.8917 804.006 37.2913 827.531 41.7252C851.057 46.159 872.751 57.43 889.898 74.1275C878.593 62.8285 865.173 53.8656 850.403 47.7506C835.632 41.6357 819.802 38.4883 803.815 38.4883C787.827 38.4883 771.997 41.6357 757.227 47.7506C742.456 53.8656 729.036 62.8285 717.731 74.1275C706.426 85.4265 697.459 98.8404 691.341 113.603C685.223 128.366 682.074 144.189 682.074 160.168C682.074 176.147 685.223 191.97 691.341 206.733C697.459 221.496 706.426 234.91 717.731 246.209C695.599 223.501 683.24 193.037 683.298 161.336Z" fill="white"/>
<path d="M909.274 170.007C915.128 111.384 872.327 59.1164 813.674 53.265C755.021 47.4136 702.728 90.1939 696.874 148.817C691.019 207.441 733.821 259.708 792.474 265.56C851.126 271.411 903.42 228.631 909.274 170.007Z" fill="white"/>
<path d="M437.526 201.567C461.802 139.01 430.763 68.6339 368.197 44.3785C305.632 20.123 235.233 51.1727 210.956 113.73C186.68 176.287 217.719 246.663 280.285 270.918C342.85 295.174 413.249 264.124 437.526 201.567Z" fill="#F24679"/>
<path d="M205.591 161.336C205.573 137.408 212.616 114.007 225.84 94.0604C239.064 74.1143 257.881 58.51 279.934 49.2009C301.988 39.8917 326.299 37.2913 349.824 41.7252C373.35 46.159 395.044 57.43 412.191 74.1275C400.886 62.8285 387.466 53.8656 372.696 47.7506C357.925 41.6357 342.095 38.4883 326.108 38.4883C310.12 38.4883 294.29 41.6357 279.52 47.7506C264.749 53.8656 251.329 62.8285 240.024 74.1275C228.719 85.4265 219.752 98.8404 213.634 113.603C207.516 128.366 204.367 144.189 204.367 160.168C204.367 176.147 207.516 191.97 213.634 206.733C219.752 221.496 228.719 234.91 240.024 246.209C217.892 223.501 205.533 193.037 205.591 161.336Z" fill="white"/>
<path d="M34.9538 152.808C34.9396 134.147 40.4302 115.896 50.7383 100.34C61.0464 84.7846 75.714 72.6149 92.9051 65.3547C110.096 58.0945 129.047 56.0665 147.385 59.5244C165.723 62.9823 182.634 71.7726 196 84.7948C187.188 75.9828 176.727 68.9927 165.213 64.2237C153.7 59.4546 141.359 57 128.897 57C116.435 57 104.095 59.4546 92.5817 64.2237C81.0683 68.9927 70.6068 75.9828 61.7948 84.7948C52.9828 93.6069 45.9927 104.068 41.2236 115.582C36.4546 127.095 34 139.435 34 151.897C34 164.36 36.4546 176.7 41.2236 188.213C45.9927 199.727 52.9828 210.188 61.7948 219C44.543 201.291 34.9087 177.532 34.9538 152.808Z" fill="white"/>
<path d="M430.531 169.172C436.375 110.645 393.667 58.4655 335.139 52.6266C276.612 46.7876 224.427 89.4999 218.583 148.027C212.738 206.554 255.446 258.733 313.974 264.572C372.502 270.411 424.686 227.699 430.531 169.172Z" fill="white"/>
<path d="M722 159C722 190.447 712.675 221.188 695.204 247.336C677.733 273.483 652.9 293.862 623.847 305.897C594.793 317.931 562.824 321.08 531.981 314.945C501.138 308.81 472.807 293.666 450.57 271.43C428.334 249.193 413.19 220.862 407.055 190.019C400.92 159.176 404.069 127.207 416.103 98.1533C428.138 69.0999 448.517 44.2675 474.664 26.7964C500.812 9.32521 531.553 0 563 0C583.88 0 604.556 4.11267 623.847 12.1032C643.137 20.0937 660.665 31.8055 675.43 46.57C690.194 61.3345 701.906 78.8625 709.897 98.1533C717.887 117.444 722 138.12 722 159Z" fill="#5FB5F2"/>
<path d="M407.674 161.962C407.668 130.679 416.894 100.09 434.199 74.0228C451.503 47.956 476.116 27.5704 504.957 15.4183C533.797 3.26608 565.583 -0.112737 596.336 5.70479C627.088 11.5223 655.441 26.2777 677.843 48.1236C663.07 33.3582 645.533 21.6457 626.231 13.6547C606.93 5.66373 586.242 1.55078 565.35 1.55078C544.459 1.55078 523.771 5.66368 504.47 13.6547C485.168 21.6456 467.63 33.3582 452.858 48.1236C438.085 62.889 426.367 80.4181 418.372 99.7101C410.377 119.002 406.262 139.679 406.262 160.56C406.262 181.442 410.377 202.119 418.372 221.411C426.367 240.703 438.085 258.232 452.858 272.997C423.88 243.295 407.665 203.448 407.674 161.962Z" fill="white"/>
<path d="M701.87 172.905C709.794 96.2695 654.091 27.7275 577.455 19.8119C500.819 11.8963 432.27 67.6045 424.347 144.24C416.423 220.875 472.126 289.417 548.762 297.333C625.398 305.248 693.947 249.54 701.87 172.905Z" fill="white"/>
<path d="M843 135.637C842.378 137.177 841.335 137.924 839.817 137.753C839.463 137.713 839.418 137.915 839.391 138.255C838.953 143.989 835.097 147.979 830.004 147.982C825.082 147.984 820.161 147.984 815.24 147.982C812.754 147.982 811.321 146.541 811.054 143.778C810.906 142.253 810.231 141.55 808.885 141.539C807.892 141.532 806.898 141.522 805.905 141.545C804.835 141.57 804.132 142.277 803.988 143.472C803.896 144.243 803.857 145.019 803.498 145.719C802.772 147.136 801.7 147.962 800.242 147.968C794.952 147.993 789.66 148.031 784.37 147.956C779.817 147.891 775.883 143.532 775.605 138.41C775.588 138.092 775.686 137.694 775.183 137.751C773.665 137.924 772.621 137.18 772 135.636V124.249C772.04 124.229 772.102 124.219 772.115 124.185C772.683 122.743 773.693 122.141 775.056 122.247C775.471 122.279 775.589 122.143 775.615 121.658C775.89 116.525 779.608 112.26 784.179 112.081C788.287 111.92 792.403 112.023 796.516 112.012C797.602 112.009 798.69 111.966 799.773 112.028C800.415 112.065 800.72 111.91 800.607 111.12C800.568 110.704 800.621 110.283 800.762 109.895C800.929 109.351 801.242 108.879 801.657 108.542C802.072 108.205 802.569 108.02 803.08 108.012C806.015 107.996 808.949 107.996 811.883 108.012C813.363 108.023 814.423 109.288 814.377 111.082C814.356 111.915 814.6 112.032 815.259 112.028C820.134 111.997 825.009 111.993 829.885 112.016C834.536 112.035 838.149 115.183 839.188 120.081C839.328 120.739 839.198 121.555 839.471 122.047C839.762 122.571 840.574 122.147 841.147 122.359C842.137 122.724 842.665 123.526 842.999 124.561L843 135.637ZM807.506 114.294C800.042 114.294 792.578 114.295 785.115 114.296C780.744 114.3 777.649 117.737 777.62 122.661C777.592 127.548 777.592 132.435 777.619 137.322C777.643 142.227 780.668 145.663 785.027 145.699C789.949 145.739 794.871 145.713 799.793 145.705C801.222 145.702 801.845 145.016 801.94 143.402C801.994 142.315 802.405 141.289 803.091 140.521C803.778 139.754 804.692 139.299 805.659 139.244C806.882 139.19 808.109 139.192 809.332 139.244C810.287 139.296 811.192 139.739 811.878 140.488C812.564 141.237 812.984 142.241 813.059 143.314C813.17 145.081 813.759 145.706 815.337 145.708C820.167 145.711 824.996 145.709 829.826 145.701C830.426 145.712 831.026 145.654 831.616 145.528C835.136 144.691 837.373 141.482 837.385 137.256C837.399 132.421 837.398 127.586 837.382 122.751C837.39 122.101 837.341 121.452 837.234 120.814C836.507 116.886 833.627 114.303 829.965 114.298C822.478 114.286 814.992 114.285 807.505 114.294H807.506ZM807.5 112.021C808.953 112.021 810.406 112.026 811.86 112.015C812.039 112.014 812.273 112.141 812.369 111.791C812.638 110.806 812.276 110.243 811.343 110.242C808.875 110.24 806.406 110.24 803.938 110.242C803.707 110.242 803.476 110.224 803.246 110.249C802.464 110.334 802.676 111.015 802.632 111.553C802.579 112.199 802.996 112.014 803.279 112.017C804.685 112.028 806.092 112.021 807.499 112.021H807.5ZM775.588 130.054C775.588 128.421 775.593 126.788 775.581 125.153C775.58 124.951 775.708 124.685 775.423 124.552C774.671 124.202 774.03 124.659 774.029 125.569C774.026 128.526 774.026 131.483 774.028 134.439C774.024 134.569 774.026 134.698 774.035 134.828C774.13 135.72 774.749 135.427 775.213 135.482C775.753 135.544 775.58 135.086 775.582 134.801C775.594 133.219 775.588 131.636 775.588 130.054ZM839.413 129.943C839.413 131.603 839.409 133.262 839.418 134.922C839.419 135.106 839.319 135.337 839.55 135.467C839.699 135.559 839.868 135.605 840.038 135.6C840.209 135.595 840.375 135.539 840.519 135.438C840.664 135.336 840.782 135.194 840.862 135.024C840.941 134.854 840.979 134.664 840.971 134.473C840.975 131.49 840.976 128.508 840.973 125.525C840.978 125.396 840.975 125.266 840.963 125.137C840.847 124.294 840.253 124.605 839.815 124.54C839.303 124.466 839.415 124.884 839.415 125.197C839.411 126.779 839.413 128.361 839.413 129.943Z" fill="#BFF253"/>
<path d="M826.87 123.882C826.87 122.556 826.863 121.231 826.872 119.905C826.879 118.869 827.214 118.489 828.115 118.481C828.923 118.475 829.732 118.463 830.54 118.487C831.18 118.499 831.8 118.741 832.309 119.178C832.817 119.615 833.188 120.224 833.365 120.916C833.78 122.373 833.402 123.845 832.306 124.725C831.926 125.03 831.924 125.22 832.176 125.606C832.583 126.234 832.956 126.892 833.317 127.555C833.661 128.188 833.545 128.845 833.064 129.194C832.571 129.552 832.014 129.41 831.631 128.782C831.058 127.84 830.488 126.894 829.962 125.919C829.884 125.746 829.755 125.608 829.597 125.53C829.439 125.452 829.262 125.438 829.096 125.491C828.652 125.587 828.908 126 828.886 126.257C828.841 126.772 828.874 127.295 828.872 127.815C828.869 128.825 828.53 129.366 827.891 129.382C827.229 129.399 826.872 128.843 826.87 127.78C826.868 126.481 826.87 125.181 826.87 123.882ZM829.841 123.18V123.164C830.093 123.184 830.345 123.182 830.596 123.156C830.839 123.128 831.065 123.001 831.23 122.799C831.395 122.596 831.488 122.333 831.491 122.058C831.531 121.44 831.264 120.974 830.742 120.836C830.163 120.683 829.484 120.58 828.989 120.863C828.651 121.056 828.922 121.816 828.874 122.319C828.861 122.447 828.885 122.579 828.869 122.705C828.825 123.078 828.962 123.224 829.291 123.184C829.475 123.172 829.658 123.17 829.841 123.18Z" fill="#BFF253"/>
<path d="M821.375 125.311C822.106 123.334 822.766 121.548 823.427 119.76C823.479 119.617 823.525 119.469 823.582 119.329C823.884 118.59 824.406 118.31 824.957 118.583C825.524 118.865 825.706 119.445 825.431 120.222C824.998 121.448 824.545 122.665 824.098 123.885C823.554 125.369 823.003 126.849 822.466 128.335C822.257 128.915 821.943 129.294 821.34 129.284C820.759 129.274 820.483 128.874 820.285 128.335C819.313 125.679 818.338 123.024 817.363 120.369C817.038 119.481 817.187 118.888 817.793 118.584C818.377 118.29 818.903 118.604 819.224 119.469C819.922 121.349 820.611 123.234 821.375 125.311Z" fill="#BFF253"/>
<path d="M779.311 123.845C779.305 122.859 779.293 121.873 779.537 120.911C779.885 119.541 780.624 118.338 781.639 117.486C782.654 116.635 783.89 116.183 785.157 116.2C785.815 116.208 786.257 116.638 786.281 117.291C786.289 117.448 786.267 117.605 786.218 117.751C786.168 117.898 786.092 118.031 785.993 118.142C785.895 118.253 785.777 118.339 785.647 118.396C785.517 118.452 785.377 118.476 785.238 118.468C782.767 118.489 781.247 120.446 781.306 123.273C781.323 124.051 781.322 124.83 781.303 125.608C781.285 126.361 780.885 126.81 780.286 126.797C779.713 126.784 779.343 126.36 779.316 125.634C779.294 125.039 779.311 124.441 779.311 123.845Z" fill="#BFF253"/>
<path d="M781.295 130.5C781.314 130.837 781.312 131.174 781.287 131.511C781.277 131.648 781.243 131.782 781.187 131.904C781.13 132.026 781.052 132.135 780.958 132.223C780.864 132.311 780.755 132.377 780.638 132.418C780.521 132.458 780.398 132.471 780.276 132.457C779.774 132.44 779.375 132.121 779.339 131.512C779.291 130.788 779.293 130.06 779.347 129.336C779.395 128.74 779.778 128.44 780.308 128.437C780.542 128.414 780.775 128.496 780.957 128.663C781.138 128.831 781.254 129.072 781.28 129.335C781.312 129.722 781.316 130.112 781.291 130.5H781.295Z" fill="#BFF253"/>
<path d="M751.2 189.4H745.488L744.672 193H741.36L745.368 176.2H751.32L755.328 193H752.016L751.2 189.4ZM746.16 186.376H750.504L748.56 177.784H748.128L746.16 186.376ZM768.727 193H765.559V187.96C765.559 187.576 765.455 187.264 765.247 187.024C765.055 186.784 764.727 186.664 764.263 186.664H760.615V193H757.447V176.2H763.879C764.743 176.2 765.503 176.32 766.159 176.56C766.815 176.8 767.359 177.136 767.791 177.568C768.239 177.984 768.575 178.472 768.799 179.032C769.039 179.592 769.159 180.192 769.159 180.832V181.408C769.159 182.096 768.975 182.744 768.607 183.352C768.239 183.944 767.671 184.4 766.903 184.72V185.152C767.463 185.216 767.903 185.432 768.223 185.8C768.559 186.168 768.727 186.632 768.727 187.192V193ZM760.615 183.64H763.639C764.407 183.64 764.991 183.464 765.391 183.112C765.791 182.744 765.991 182.232 765.991 181.576V181.288C765.991 180.728 765.791 180.248 765.391 179.848C764.991 179.432 764.407 179.224 763.639 179.224H760.615V183.64ZM794.662 191.272C794.342 192.024 793.894 192.56 793.318 192.88C792.742 193.184 792.07 193.336 791.302 193.336C790.582 193.336 789.902 193.2 789.262 192.928C788.638 192.656 788.086 192.256 787.606 191.728C787.126 191.2 786.742 190.56 786.454 189.808C786.182 189.056 786.046 188.2 786.046 187.24V186.856C786.046 185.912 786.182 185.064 786.454 184.312C786.726 183.56 787.094 182.92 787.558 182.392C788.022 181.864 788.558 181.464 789.166 181.192C789.79 180.904 790.454 180.76 791.158 180.76C792.006 180.76 792.686 180.904 793.198 181.192C793.726 181.48 794.142 181.928 794.446 182.536H794.878V181.096H797.902V189.4C797.902 189.88 798.118 190.12 798.55 190.12H799.006V193H796.942C796.398 193 795.95 192.84 795.598 192.52C795.262 192.2 795.094 191.784 795.094 191.272H794.662ZM791.974 190.456C792.854 190.456 793.558 190.168 794.086 189.592C794.614 189 794.878 188.2 794.878 187.192V186.904C794.878 185.896 794.614 185.104 794.086 184.528C793.558 183.936 792.854 183.64 791.974 183.64C791.094 183.64 790.39 183.936 789.862 184.528C789.334 185.104 789.07 185.896 789.07 186.904V187.192C789.07 188.2 789.334 189 789.862 189.592C790.39 190.168 791.094 190.456 791.974 190.456ZM804.677 193H801.653V181.096H804.677V182.872H805.109C805.381 182.2 805.821 181.68 806.429 181.312C807.037 180.944 807.749 180.76 808.565 180.76C809.141 180.76 809.677 180.856 810.173 181.048C810.685 181.224 811.133 181.504 811.517 181.888C811.901 182.272 812.197 182.76 812.405 183.352C812.629 183.944 812.741 184.648 812.741 185.464V193H809.717V186.232C809.717 185.384 809.509 184.72 809.093 184.24C808.693 183.744 808.109 183.496 807.341 183.496C806.445 183.496 805.773 183.8 805.325 184.408C804.893 185 804.677 185.8 804.677 186.808V193ZM824.893 191.272H824.461C824.333 191.544 824.173 191.808 823.981 192.064C823.805 192.304 823.565 192.52 823.261 192.712C822.973 192.904 822.621 193.056 822.205 193.168C821.805 193.28 821.317 193.336 820.741 193.336C820.005 193.336 819.317 193.208 818.677 192.952C818.053 192.68 817.501 192.288 817.021 191.776C816.557 191.248 816.189 190.608 815.917 189.856C815.661 189.104 815.533 188.24 815.533 187.264V186.832C815.533 185.872 815.669 185.016 815.941 184.264C816.229 183.512 816.613 182.88 817.093 182.368C817.589 181.84 818.157 181.44 818.797 181.168C819.453 180.896 820.141 180.76 820.861 180.76C821.821 180.76 822.581 180.944 823.141 181.312C823.701 181.664 824.141 182.168 824.461 182.824H824.893V176.2H827.917V193H824.893V191.272ZM821.725 190.456C822.669 190.456 823.429 190.16 824.005 189.568C824.597 188.96 824.893 188.168 824.893 187.192V186.904C824.893 185.928 824.597 185.144 824.005 184.552C823.429 183.944 822.669 183.64 821.725 183.64C820.781 183.64 820.013 183.936 819.421 184.528C818.845 185.104 818.557 185.896 818.557 186.904V187.192C818.557 188.2 818.845 189 819.421 189.592C820.013 190.168 820.781 190.456 821.725 190.456ZM844.443 176.2H847.707L850.995 191.416H851.427L854.715 176.2H857.979L854.187 193H848.235L844.443 176.2ZM871.595 193H868.427V187.96C868.427 187.576 868.323 187.264 868.115 187.024C867.923 186.784 867.595 186.664 867.131 186.664H863.483V193H860.315V176.2H866.747C867.611 176.2 868.371 176.32 869.027 176.56C869.683 176.8 870.227 177.136 870.659 177.568C871.107 177.984 871.443 178.472 871.667 179.032C871.907 179.592 872.027 180.192 872.027 180.832V181.408C872.027 182.096 871.843 182.744 871.475 183.352C871.107 183.944 870.539 184.4 869.771 184.72V185.152C870.331 185.216 870.771 185.432 871.091 185.8C871.427 186.168 871.595 186.632 871.595 187.192V193ZM863.483 183.64H866.507C867.275 183.64 867.859 183.464 868.259 183.112C868.659 182.744 868.859 182.232 868.859 181.576V181.288C868.859 180.728 868.659 180.248 868.259 179.848C867.859 179.432 867.275 179.224 866.507 179.224H863.483V183.64Z" fill="black"/>
<path d="M308.584 185.512V176.2H319.816V179.224H311.752V183.784H312.184C312.408 183.16 312.824 182.624 313.432 182.176C314.056 181.712 314.888 181.48 315.928 181.48C316.712 181.48 317.416 181.616 318.04 181.888C318.664 182.16 319.192 182.536 319.624 183.016C320.056 183.496 320.384 184.072 320.608 184.744C320.848 185.416 320.968 186.152 320.968 186.952V187.096C320.968 187.944 320.824 188.744 320.536 189.496C320.264 190.248 319.856 190.912 319.312 191.488C318.784 192.048 318.128 192.496 317.344 192.832C316.56 193.168 315.656 193.336 314.632 193.336C313.608 193.336 312.704 193.2 311.92 192.928C311.136 192.64 310.472 192.248 309.928 191.752C309.4 191.24 308.992 190.64 308.704 189.952C308.432 189.248 308.296 188.488 308.296 187.672V187.096H311.464V187.384C311.464 188.232 311.72 188.936 312.232 189.496C312.76 190.04 313.528 190.312 314.536 190.312C315.544 190.312 316.336 190.04 316.912 189.496C317.504 188.952 317.8 188.2 317.8 187.24C317.8 186.328 317.584 185.648 317.152 185.2C316.72 184.736 316.152 184.504 315.448 184.504C314.984 184.504 314.608 184.608 314.32 184.816C314.032 185.008 313.848 185.24 313.768 185.512H308.584ZM327.935 184.504H335.135V193H332.255V191.128H331.823C331.631 191.752 331.263 192.28 330.719 192.712C330.175 193.128 329.359 193.336 328.271 193.336C327.503 193.336 326.783 193.192 326.111 192.904C325.439 192.616 324.855 192.192 324.359 191.632C323.863 191.056 323.471 190.352 323.183 189.52C322.895 188.672 322.751 187.688 322.751 186.568V182.632C322.751 181.544 322.903 180.584 323.207 179.752C323.527 178.904 323.959 178.192 324.503 177.616C325.063 177.04 325.727 176.608 326.495 176.32C327.263 176.016 328.111 175.864 329.039 175.864C329.999 175.864 330.855 176.024 331.607 176.344C332.359 176.648 332.999 177.08 333.527 177.64C334.055 178.184 334.455 178.832 334.727 179.584C334.999 180.32 335.135 181.112 335.135 181.96V182.248H331.967V181.96C331.967 180.952 331.703 180.192 331.175 179.68C330.663 179.152 329.935 178.888 328.991 178.888C328.095 178.888 327.359 179.192 326.783 179.8C326.207 180.392 325.919 181.416 325.919 182.872V186.424C325.919 189.016 326.975 190.312 329.087 190.312C330.031 190.312 330.743 190.064 331.223 189.568C331.719 189.056 331.967 188.376 331.967 187.528H327.935V184.504Z" fill="black"/>
<path d="M357 121.987C356.966 122.016 356.918 122.038 356.899 122.074C356.608 122.625 356.157 122.911 355.532 122.751C354.846 122.575 354.627 122.068 354.608 121.395C354.404 114.063 349.394 108.16 342.106 106.644C341.168 106.475 340.219 106.376 339.266 106.349C338.414 106.301 337.926 105.86 337.934 105.165C337.942 104.451 338.496 103.997 339.358 104C347.827 104.029 355.411 110.419 356.743 118.627C356.805 119.013 356.724 119.442 357.001 119.785L357 121.987Z" fill="#F24679"/>
<path d="M343.877 138.128C343.877 140.352 343.851 142.577 343.888 144.801C343.907 145.895 343.457 146.649 342.569 147.283C338.599 150.119 334.179 151.498 329.312 150.838C321.56 149.787 316.214 145.559 313.759 138.227C310.182 127.541 317.581 116.17 328.91 114.725C333.984 114.078 338.596 115.32 342.671 118.392C344.1 119.469 344.2 120.935 342.971 122.234C342.05 123.207 341.126 124.177 340.199 125.144C338.96 126.44 337.937 126.552 336.457 125.554C331.467 122.193 324.727 124.389 322.88 130.046C321.791 133.381 322.526 136.425 325.009 138.925C327.456 141.388 330.478 142.067 333.863 141.238C334.23 141.148 334.392 140.993 334.366 140.585C334.328 139.897 334.327 139.209 334.362 138.522C334.378 138.152 334.25 138.055 333.89 138.063C332.913 138.084 331.935 138.078 330.957 138.068C329.377 138.053 328.389 137.084 328.377 135.53C328.366 134.085 328.366 132.64 328.377 131.195C328.388 129.659 329.335 128.682 330.886 128.673C334.378 128.652 337.87 128.652 341.362 128.673C342.93 128.681 343.87 129.637 343.875 131.178C343.883 133.495 343.877 135.811 343.877 138.128ZM341.495 138.155C341.495 135.954 341.484 133.752 341.505 131.551C341.509 131.138 341.418 131.01 340.975 131.013C337.762 131.034 334.55 131.028 331.338 131.019C330.968 131.018 330.733 131.027 330.747 131.515C330.785 132.729 330.78 133.946 330.749 135.16C330.737 135.618 330.879 135.743 331.336 135.733C332.685 135.705 334.036 135.715 335.386 135.726C336.276 135.734 336.725 136.164 336.732 137.03C336.746 138.589 336.728 140.148 336.74 141.707C336.759 141.995 336.681 142.281 336.517 142.521C336.354 142.76 336.115 142.939 335.837 143.031C334.528 143.572 333.129 143.873 331.709 143.92C324.675 144.165 318.987 137.841 320.163 131.071C321.584 122.887 330.719 119 337.759 123.595C338.123 123.833 338.292 123.772 338.553 123.483C339.326 122.626 340.102 121.77 340.931 120.966C341.369 120.541 341.383 120.33 340.854 119.966C337.176 117.43 333.14 116.442 328.696 117.151C318.194 118.827 312.207 130.153 316.832 139.59C317.87 141.719 319.375 143.594 321.239 145.079C323.103 146.564 325.279 147.622 327.609 148.176C329.939 148.731 332.365 148.767 334.712 148.284C337.058 147.8 339.266 146.809 341.175 145.381C341.474 145.16 341.499 144.927 341.498 144.622C341.492 142.466 341.491 140.311 341.495 138.155Z" fill="#F24679"/>
<path d="M300.354 125.146C307.387 126.261 312.166 132.094 311.728 139.087C311.292 146.041 304.706 151.606 297.639 150.923C292.102 150.387 288.301 147.504 286.252 142.418C285.544 140.661 286.362 139.311 288.257 139.004C289.747 138.762 291.246 138.56 292.743 138.357C294.006 138.186 294.867 138.743 295.494 139.803C296.306 141.175 297.561 141.726 299.149 141.531C299.832 141.431 300.47 141.135 300.985 140.682C301.499 140.229 301.867 139.637 302.044 138.979C302.777 136.319 300.313 134.021 297.453 134.699C296.747 134.854 296.088 135.173 295.534 135.632C295.216 135.919 294.829 136.122 294.41 136.221C293.99 136.321 293.552 136.313 293.137 136.199C291.556 135.827 289.96 135.517 288.373 135.167C286.678 134.794 285.947 133.704 286.318 132.035C287.381 127.253 288.456 122.472 289.543 117.695C289.825 116.455 290.685 115.766 291.982 115.763C297.336 115.751 302.69 115.751 308.045 115.763C309.529 115.767 310.48 116.724 310.493 118.184C310.506 119.697 310.506 121.211 310.493 122.724C310.478 124.161 309.492 125.136 308.03 125.143C305.471 125.156 302.913 125.146 300.354 125.146ZM300.068 118.107C297.531 118.107 294.994 118.114 292.457 118.101C292.09 118.099 291.87 118.142 291.777 118.563C290.76 123.144 289.73 127.722 288.686 132.297C288.591 132.712 288.704 132.838 289.119 132.92C290.531 133.197 291.936 133.503 293.335 133.839C293.497 133.885 293.668 133.89 293.833 133.854C293.997 133.818 294.15 133.742 294.277 133.634C296.44 132.083 298.793 131.726 301.244 132.832C303.559 133.877 304.772 136.245 304.482 138.844C304.218 141.212 302.361 143.209 299.887 143.785C298.699 144.05 297.457 143.946 296.331 143.489C295.205 143.032 294.249 142.242 293.596 141.229C293.29 140.748 292.998 140.671 292.476 140.762C291.31 140.966 290.133 141.117 288.956 141.252C288.495 141.306 288.381 141.41 288.559 141.881C290.271 146.398 295.338 149.297 300.189 148.511C306.098 147.553 310.141 142.135 309.189 136.449C308.968 135.047 308.463 133.703 307.705 132.497C306.947 131.292 305.951 130.248 304.775 129.429C303.6 128.609 302.269 128.031 300.862 127.728C299.456 127.425 298.002 127.404 296.586 127.665C295.375 127.876 294.751 127.257 294.99 126.067C295.121 125.416 295.276 124.77 295.424 124.123C295.672 123.041 295.975 122.801 297.094 122.8C300.562 122.799 304.03 122.791 307.498 122.81C307.964 122.813 308.145 122.735 308.127 122.225C308.085 121.034 308.088 119.841 308.127 118.649C308.142 118.176 307.974 118.095 307.54 118.099C305.049 118.117 302.559 118.107 300.068 118.107Z" fill="#F24679"/>
<path d="M338.832 111.009C341.51 111.167 344.033 112.317 345.912 114.234C347.791 116.152 348.89 118.7 348.998 121.384C349.037 122.384 348.554 123.018 347.769 123C347.092 122.983 346.64 122.488 346.605 121.681C346.511 119.516 345.789 117.608 344.288 116.03C342.845 114.461 340.844 113.521 338.716 113.414C337.509 113.341 336.964 112.938 337.002 112.122C337.039 111.306 337.644 110.937 338.832 111.009Z" fill="#F24679"/>
<path d="M340.99 137.763C340.99 139.872 340.991 141.98 340.993 144.088C340.993 144.387 340.969 144.615 340.674 144.83C338.783 146.227 336.596 147.197 334.273 147.67C331.949 148.143 329.546 148.107 327.239 147.565C324.931 147.023 322.776 145.988 320.931 144.535C319.085 143.083 317.594 141.249 316.567 139.166C311.986 129.936 317.914 118.858 328.315 117.219C332.716 116.525 336.713 117.492 340.356 119.971C340.879 120.327 340.865 120.534 340.431 120.95C339.611 121.736 338.842 122.574 338.076 123.412C337.818 123.694 337.651 123.753 337.29 123.522C330.318 119.027 321.272 122.829 319.865 130.833C318.7 137.456 324.334 143.641 331.3 143.402C332.705 143.356 334.09 143.061 335.387 142.532C335.662 142.442 335.899 142.267 336.061 142.033C336.222 141.799 336.3 141.519 336.281 141.238C336.269 139.711 336.287 138.187 336.274 136.662C336.266 135.815 335.822 135.395 334.94 135.387C333.603 135.376 332.266 135.366 330.929 135.394C330.477 135.403 330.336 135.281 330.348 134.834C330.379 133.646 330.383 132.456 330.347 131.268C330.332 130.791 330.565 130.783 330.931 130.783C334.112 130.792 337.294 130.797 340.475 130.777C340.914 130.775 341.004 130.9 341 131.303C340.979 133.457 340.99 135.61 340.99 137.763Z" fill="#FCFCFC"/>
<path d="M300.117 119.009C302.506 119.009 304.895 119.019 307.285 119C307.701 118.997 307.862 119.076 307.848 119.541C307.812 120.711 307.808 121.884 307.848 123.054C307.866 123.555 307.69 123.631 307.244 123.628C303.917 123.609 300.59 123.617 297.263 123.618C296.19 123.618 295.899 123.855 295.662 124.918C295.519 125.553 295.371 126.188 295.246 126.827C295.016 127.996 295.615 128.604 296.777 128.397C298.134 128.14 299.529 128.161 300.879 128.459C302.228 128.756 303.505 129.324 304.632 130.129C305.76 130.934 306.716 131.959 307.443 133.144C308.171 134.328 308.655 135.648 308.867 137.025C309.78 142.61 305.902 147.932 300.233 148.874C295.579 149.647 290.719 146.798 289.077 142.361C288.906 141.899 289.015 141.796 289.457 141.744C290.586 141.61 291.715 141.462 292.834 141.262C293.335 141.172 293.615 141.248 293.909 141.721C294.535 142.716 295.452 143.491 296.532 143.94C297.612 144.39 298.804 144.491 299.944 144.231C302.316 143.665 304.098 141.703 304.352 139.377C304.63 136.824 303.466 134.499 301.245 133.473C298.894 132.386 296.637 132.736 294.562 134.259C294.44 134.366 294.293 134.441 294.135 134.476C293.978 134.511 293.814 134.506 293.659 134.461C292.317 134.133 290.968 133.832 289.614 133.558C289.217 133.478 289.107 133.354 289.198 132.947C290.198 128.452 291.186 123.955 292.163 119.455C292.252 119.042 292.463 119 292.816 119.002C295.25 119.015 297.683 119.009 300.117 119.009Z" fill="#FCFCFC"/>
<path d="M108.728 176.2H119.96V179.224H115.928V189.976H119.96V193H108.728V189.976H112.76V179.224H108.728V176.2ZM135.231 187.192C135.231 188.184 135.063 189.064 134.727 189.832C134.391 190.584 133.935 191.224 133.359 191.752C132.783 192.264 132.119 192.656 131.367 192.928C130.631 193.2 129.855 193.336 129.039 193.336C128.223 193.336 127.439 193.2 126.687 192.928C125.951 192.656 125.295 192.264 124.719 191.752C124.143 191.224 123.687 190.584 123.351 189.832C123.015 189.064 122.847 188.184 122.847 187.192V186.904C122.847 185.928 123.015 185.064 123.351 184.312C123.687 183.544 124.143 182.896 124.719 182.368C125.295 181.84 125.951 181.44 126.687 181.168C127.439 180.896 128.223 180.76 129.039 180.76C129.855 180.76 130.631 180.896 131.367 181.168C132.119 181.44 132.783 181.84 133.359 182.368C133.935 182.896 134.391 183.544 134.727 184.312C135.063 185.064 135.231 185.928 135.231 186.904V187.192ZM129.039 190.456C129.471 190.456 129.879 190.384 130.263 190.24C130.647 190.096 130.983 189.888 131.271 189.616C131.559 189.344 131.783 189.016 131.943 188.632C132.119 188.232 132.207 187.784 132.207 187.288V186.808C132.207 186.312 132.119 185.872 131.943 185.488C131.783 185.088 131.559 184.752 131.271 184.48C130.983 184.208 130.647 184 130.263 183.856C129.879 183.712 129.471 183.64 129.039 183.64C128.607 183.64 128.199 183.712 127.815 183.856C127.431 184 127.095 184.208 126.807 184.48C126.519 184.752 126.287 185.088 126.111 185.488C125.951 185.872 125.871 186.312 125.871 186.808V187.288C125.871 187.784 125.951 188.232 126.111 188.632C126.287 189.016 126.519 189.344 126.807 189.616C127.095 189.888 127.431 190.096 127.815 190.24C128.199 190.384 128.607 190.456 129.039 190.456ZM137.687 176.2H149.783V179.224H145.319V193H142.151V179.224H137.687V176.2Z" fill="black"/>
<path d="M157 121.422C156.86 121.44 156.856 121.569 156.822 121.66C156.224 123.257 155.058 124.082 153.361 124.101C152.364 124.113 152.364 124.113 152.364 125.093C152.364 128.163 152.369 131.233 152.362 134.303C152.358 136.12 151.372 137.472 149.756 137.912C147.651 138.485 145.466 136.947 145.413 134.76C145.348 132.084 145.39 129.406 145.386 126.729C145.385 125.979 145.371 125.229 145.392 124.48C145.401 124.174 145.306 124.083 145.003 124.096C144.232 124.129 143.462 124.116 142.746 123.765C142.045 123.435 141.475 122.882 141.122 122.193C140.77 121.504 140.656 120.718 140.798 119.958C140.948 119.178 141.363 118.473 141.973 117.964C142.582 117.454 143.35 117.171 144.145 117.162C147.294 117.113 150.444 117.113 153.594 117.162C155.244 117.188 156.453 118.232 156.892 119.811C156.914 119.891 156.887 119.994 157 120.029L157 121.422ZM147.535 128.858C147.535 130.731 147.529 132.604 147.538 134.478C147.542 135.345 148.193 135.954 149.002 135.882C149.73 135.816 150.213 135.202 150.213 134.318C150.216 130.643 150.217 126.967 150.216 123.292C150.217 122.347 150.605 121.966 151.551 121.959C152.196 121.955 152.84 121.969 153.483 121.955C153.835 121.954 154.172 121.818 154.426 121.576C154.68 121.334 154.831 121.003 154.849 120.653C154.853 120.3 154.718 119.96 154.473 119.706C154.229 119.452 153.894 119.305 153.541 119.295C150.428 119.277 147.315 119.277 144.201 119.295C144.027 119.298 143.854 119.335 143.694 119.405C143.534 119.475 143.389 119.575 143.267 119.701C143.146 119.827 143.051 119.975 142.987 120.138C142.923 120.3 142.891 120.474 142.895 120.649C142.905 121 143.053 121.333 143.306 121.577C143.559 121.821 143.897 121.957 144.249 121.955C144.857 121.969 145.466 121.958 146.074 121.959C147.153 121.961 147.533 122.333 147.534 123.398C147.536 125.218 147.537 127.038 147.535 128.858Z" fill="#605EF2"/>
<path d="M102 120.236C102.156 120.19 102.135 120.035 102.172 119.929C102.868 117.891 104.607 116.814 106.697 117.134C108.494 117.409 109.918 119.065 109.933 121.048C109.966 125.383 109.966 129.718 109.933 134.053C109.944 134.964 109.636 135.85 109.064 136.558C108.491 137.267 107.688 137.753 106.795 137.933C105.013 138.32 103.239 137.434 102.384 135.758C102.242 135.48 102.282 135.122 102.001 134.911L102 120.236ZM104.148 127.564C104.148 129.685 104.143 131.807 104.15 133.929C104.154 135.077 104.914 135.879 105.971 135.879C107.029 135.879 107.791 135.076 107.792 133.927C107.799 129.665 107.8 125.404 107.795 121.142C107.802 120.821 107.732 120.502 107.591 120.213C107.407 119.848 107.104 119.556 106.733 119.385C106.362 119.213 105.944 119.171 105.546 119.267C105.148 119.362 104.794 119.589 104.542 119.911C104.289 120.232 104.153 120.629 104.154 121.038C104.141 123.213 104.15 125.388 104.148 127.563V127.564Z" fill="#605EF2"/>
<path d="M126.124 136.708C120.872 136.569 116.968 132.352 117.068 127.374C117.097 126.16 117.366 124.963 117.861 123.854C118.356 122.744 119.066 121.744 119.951 120.911C120.836 120.078 121.878 119.428 123.016 119.001C124.154 118.573 125.366 118.376 126.581 118.42C127.796 118.464 128.99 118.749 130.094 119.258C131.198 119.767 132.19 120.49 133.012 121.385C133.834 122.28 134.47 123.329 134.883 124.472C135.296 125.614 135.478 126.828 135.418 128.041C135.217 132.796 130.912 136.858 126.124 136.708ZM133.269 127.542C133.269 126.152 132.856 124.793 132.083 123.638C131.309 122.482 130.211 121.581 128.925 121.05C127.639 120.519 126.225 120.38 124.86 120.652C123.496 120.924 122.243 121.594 121.26 122.578C120.277 123.562 119.608 124.815 119.338 126.178C119.068 127.542 119.208 128.955 119.742 130.239C120.276 131.522 121.179 132.619 122.337 133.39C123.495 134.16 124.856 134.57 126.247 134.568C127.171 134.57 128.085 134.389 128.938 134.036C129.792 133.683 130.567 133.166 131.219 132.513C131.872 131.86 132.388 131.085 132.74 130.232C133.092 129.379 133.271 128.465 133.269 127.542Z" fill="#605EF2"/>
<path d="M125.691 147.134C122.637 147.163 118.963 146.126 115.6 143.998C114.98 143.606 114.797 142.977 115.126 142.444C115.453 141.916 116.09 141.782 116.73 142.18C118.317 143.165 119.991 143.945 121.806 144.397C126.558 145.583 131.053 144.925 135.282 142.47C136.436 141.786 137.504 140.968 138.466 140.034C138.756 139.758 139.072 139.531 139.504 139.581C139.711 139.596 139.908 139.674 140.07 139.804C140.232 139.933 140.351 140.109 140.411 140.308C140.564 140.762 140.399 141.148 140.066 141.47C139.262 142.258 138.393 142.977 137.467 143.619C134.198 145.847 130.584 147.026 125.691 147.134Z" fill="#605EF2"/>
<path d="M137.011 111.636C137.022 112.54 136.218 113.045 135.455 112.684C134.667 112.311 133.926 111.844 133.114 111.511C128.136 109.474 123.23 109.63 118.396 111.98C116.887 112.723 115.501 113.691 114.286 114.852C114.095 115.04 113.888 115.21 113.666 115.361C113.462 115.494 113.217 115.552 112.975 115.521C112.733 115.491 112.51 115.376 112.345 115.196C112.178 115.021 112.078 114.792 112.061 114.551C112.044 114.309 112.113 114.07 112.254 113.873C112.628 113.366 113.125 112.974 113.605 112.579C117.884 109.067 122.785 107.575 128.308 108.104C131.123 108.386 133.843 109.274 136.281 110.708C136.691 110.944 136.992 111.241 137.011 111.636Z" fill="#605EF2"/>
<path d="M125.548 141.929C122.394 141.884 119.058 140.561 116.25 137.929C115.656 137.372 115.563 136.726 116.014 136.247C116.464 135.767 117.077 135.771 117.672 136.332C119.431 137.987 121.47 139.116 123.851 139.55C127.819 140.274 131.358 139.338 134.425 136.7C134.628 136.526 134.818 136.335 135.033 136.176C135.555 135.789 136.134 135.833 136.52 136.274C136.919 136.729 136.882 137.333 136.396 137.805C135.735 138.459 135.01 139.045 134.232 139.555C131.804 141.127 129.141 141.933 125.548 141.929Z" fill="#605EF2"/>
<path d="M126.504 113.164C130.163 113.234 133.529 114.572 136.343 117.256C136.887 117.775 136.939 118.388 136.494 118.863C136.082 119.303 135.439 119.324 134.919 118.839C133.503 117.518 131.919 116.478 130.054 115.919C125.683 114.607 121.731 115.414 118.206 118.301C117.944 118.516 117.705 118.762 117.433 118.961C117.223 119.132 116.954 119.214 116.684 119.189C116.415 119.164 116.165 119.035 115.99 118.829C115.81 118.626 115.716 118.361 115.728 118.09C115.739 117.82 115.855 117.564 116.052 117.377C116.74 116.675 117.505 116.052 118.332 115.52C120.748 113.96 123.402 113.186 126.504 113.164Z" fill="#605EF2"/>
<path d="M114.225 140.667C114.211 140.944 114.093 141.207 113.894 141.402C113.696 141.597 113.431 141.711 113.153 141.721C112.857 141.711 112.577 141.585 112.373 141.372C112.169 141.158 112.056 140.873 112.059 140.577C112.074 140.3 112.194 140.039 112.396 139.848C112.597 139.657 112.864 139.551 113.142 139.551C113.705 139.568 114.236 140.115 114.225 140.667Z" fill="#605EF2"/>
<path d="M139.382 113.379C139.669 113.386 139.943 113.505 140.144 113.709C140.346 113.914 140.46 114.189 140.463 114.476C140.457 114.755 140.342 115.02 140.143 115.215C139.944 115.41 139.677 115.52 139.399 115.521C139.111 115.515 138.838 115.398 138.635 115.194C138.432 114.99 138.317 114.716 138.312 114.429C138.324 114.151 138.441 113.888 138.64 113.693C138.838 113.498 139.104 113.386 139.382 113.379Z" fill="#605EF2"/>
<path d="M126.237 131.495C125.188 131.496 124.18 131.081 123.437 130.341C122.693 129.6 122.275 128.595 122.273 127.546C122.272 126.498 122.687 125.491 123.428 124.749C124.17 124.006 125.176 123.588 126.225 123.586C128.371 123.558 130.242 125.425 130.214 127.568C130.198 128.612 129.773 129.609 129.029 130.344C128.286 131.078 127.283 131.492 126.237 131.495ZM126.237 129.352C126.597 129.355 126.949 129.25 127.249 129.052C127.548 128.853 127.782 128.571 127.921 128.239C128.059 127.908 128.096 127.542 128.026 127.19C127.956 126.838 127.783 126.514 127.529 126.26C127.275 126.006 126.95 125.834 126.597 125.765C126.245 125.696 125.879 125.733 125.548 125.872C125.216 126.011 124.933 126.245 124.735 126.545C124.538 126.845 124.433 127.197 124.436 127.556C124.435 127.792 124.481 128.026 124.571 128.245C124.662 128.464 124.794 128.662 124.962 128.829C125.129 128.996 125.328 129.128 125.547 129.218C125.766 129.308 126.001 129.354 126.237 129.352Z" fill="#605EF2"/>
<path d="M494.919 186.664V193H491.751V176.2H498.327C499.191 176.2 499.943 176.344 500.583 176.632C501.223 176.904 501.751 177.272 502.167 177.736C502.599 178.184 502.919 178.704 503.127 179.296C503.351 179.872 503.463 180.464 503.463 181.072V181.648C503.463 182.272 503.351 182.888 503.127 183.496C502.919 184.088 502.599 184.624 502.167 185.104C501.751 185.568 501.223 185.944 500.583 186.232C499.943 186.52 499.191 186.664 498.327 186.664H494.919ZM494.919 183.64H498.015C498.719 183.64 499.271 183.448 499.671 183.064C500.087 182.68 500.295 182.184 500.295 181.576V181.288C500.295 180.68 500.087 180.184 499.671 179.8C499.271 179.416 498.719 179.224 498.015 179.224H494.919V183.64ZM506.015 181.096H511.055V182.824H511.487C511.711 182.168 512.087 181.664 512.615 181.312C513.159 180.944 513.807 180.76 514.559 180.76C515.743 180.76 516.695 181.136 517.415 181.888C518.135 182.624 518.495 183.752 518.495 185.272V185.8L515.375 186.088V185.752C515.375 185.096 515.207 184.576 514.871 184.192C514.535 183.792 514.031 183.592 513.359 183.592C512.687 183.592 512.159 183.824 511.775 184.288C511.391 184.752 511.199 185.416 511.199 186.28V190.12H513.935V193H505.727V190.12H508.175V183.976H506.015V181.096ZM523.95 188.032C523.966 188.384 524.046 188.712 524.19 189.016C524.35 189.304 524.558 189.56 524.814 189.784C525.086 189.992 525.39 190.16 525.726 190.288C526.078 190.4 526.446 190.456 526.83 190.456C527.582 190.456 528.158 190.328 528.558 190.072C528.958 189.8 529.246 189.48 529.422 189.112L532.014 190.552C531.87 190.856 531.67 191.176 531.414 191.512C531.158 191.832 530.822 192.128 530.406 192.4C530.006 192.672 529.51 192.896 528.918 193.072C528.342 193.248 527.662 193.336 526.878 193.336C525.982 193.336 525.166 193.192 524.43 192.904C523.694 192.616 523.054 192.2 522.51 191.656C521.982 191.112 521.566 190.448 521.262 189.664C520.974 188.88 520.83 187.992 520.83 187V186.856C520.83 185.944 520.982 185.112 521.286 184.36C521.606 183.608 522.038 182.968 522.582 182.44C523.126 181.912 523.758 181.504 524.478 181.216C525.214 180.912 525.998 180.76 526.83 180.76C527.854 180.76 528.734 180.944 529.47 181.312C530.206 181.664 530.814 182.12 531.294 182.68C531.774 183.224 532.126 183.832 532.35 184.504C532.574 185.16 532.686 185.8 532.686 186.424V188.032H523.95ZM526.806 183.496C526.038 183.496 525.414 183.696 524.934 184.096C524.454 184.48 524.142 184.928 523.998 185.44H529.614C529.518 184.88 529.214 184.416 528.702 184.048C528.206 183.68 527.574 183.496 526.806 183.496ZM544.525 191.272H544.093C543.965 191.544 543.805 191.808 543.613 192.064C543.437 192.304 543.197 192.52 542.893 192.712C542.605 192.904 542.253 193.056 541.837 193.168C541.437 193.28 540.949 193.336 540.373 193.336C539.637 193.336 538.949 193.208 538.309 192.952C537.685 192.68 537.133 192.288 536.653 191.776C536.189 191.248 535.821 190.608 535.549 189.856C535.293 189.104 535.165 188.24 535.165 187.264V186.832C535.165 185.872 535.301 185.016 535.573 184.264C535.861 183.512 536.245 182.88 536.725 182.368C537.221 181.84 537.789 181.44 538.429 181.168C539.085 180.896 539.773 180.76 540.493 180.76C541.453 180.76 542.213 180.944 542.773 181.312C543.333 181.664 543.773 182.168 544.093 182.824H544.525V176.2H547.549V193H544.525V191.272ZM541.357 190.456C542.301 190.456 543.061 190.16 543.637 189.568C544.229 188.96 544.525 188.168 544.525 187.192V186.904C544.525 185.928 544.229 185.144 543.637 184.552C543.061 183.944 542.301 183.64 541.357 183.64C540.413 183.64 539.645 183.936 539.053 184.528C538.477 185.104 538.189 185.896 538.189 186.904V187.192C538.189 188.2 538.477 189 539.053 189.592C539.645 190.168 540.413 190.456 541.357 190.456ZM550.893 190.12H554.925V183.976H551.181V181.096H557.949V190.12H561.405V193H550.893V190.12ZM558.693 177.568C558.693 177.888 558.629 178.192 558.501 178.48C558.389 178.752 558.229 178.992 558.021 179.2C557.813 179.392 557.565 179.552 557.277 179.68C557.005 179.792 556.717 179.848 556.413 179.848C556.093 179.848 555.797 179.792 555.525 179.68C555.253 179.552 555.013 179.392 554.805 179.2C554.597 178.992 554.429 178.752 554.301 178.48C554.189 178.192 554.133 177.888 554.133 177.568C554.133 177.248 554.189 176.952 554.301 176.68C554.429 176.392 554.597 176.152 554.805 175.96C555.013 175.752 555.253 175.592 555.525 175.48C555.797 175.352 556.093 175.288 556.413 175.288C556.717 175.288 557.005 175.352 557.277 175.48C557.565 175.592 557.813 175.752 558.021 175.96C558.229 176.152 558.389 176.392 558.501 176.68C558.629 176.952 558.693 177.248 558.693 177.568ZM576.988 188.632C576.716 190.04 576.068 191.176 575.044 192.04C574.036 192.904 572.684 193.336 570.988 193.336C570.108 193.336 569.284 193.2 568.516 192.928C567.764 192.656 567.108 192.264 566.548 191.752C565.988 191.24 565.548 190.608 565.228 189.856C564.908 189.104 564.748 188.248 564.748 187.288V187C564.748 186.04 564.908 185.176 565.228 184.408C565.548 183.64 565.988 182.984 566.548 182.44C567.124 181.896 567.788 181.48 568.54 181.192C569.308 180.904 570.124 180.76 570.988 180.76C572.652 180.76 573.996 181.192 575.02 182.056C576.06 182.92 576.716 184.056 576.988 185.464L574.012 186.232C573.916 185.528 573.612 184.92 573.1 184.408C572.588 183.896 571.868 183.64 570.94 183.64C570.508 183.64 570.1 183.72 569.716 183.88C569.332 184.04 568.996 184.272 568.708 184.576C568.42 184.864 568.188 185.224 568.012 185.656C567.852 186.072 567.772 186.544 567.772 187.072V187.216C567.772 187.744 567.852 188.216 568.012 188.632C568.188 189.032 568.42 189.368 568.708 189.64C568.996 189.912 569.332 190.12 569.716 190.264C570.1 190.392 570.508 190.456 570.94 190.456C571.868 190.456 572.572 190.224 573.052 189.76C573.548 189.296 573.868 188.672 574.012 187.888L576.988 188.632ZM579.731 181.096H583.259V176.2H586.283V181.096H590.579V183.976H586.283V189.4C586.283 189.88 586.499 190.12 586.931 190.12H590.147V193H585.107C584.563 193 584.115 192.824 583.763 192.472C583.427 192.12 583.259 191.672 583.259 191.128V183.976H579.731V181.096ZM594.979 190.12H599.011V183.976H595.267V181.096H602.035V190.12H605.491V193H594.979V190.12ZM602.779 177.568C602.779 177.888 602.715 178.192 602.587 178.48C602.475 178.752 602.315 178.992 602.107 179.2C601.899 179.392 601.651 179.552 601.363 179.68C601.091 179.792 600.803 179.848 600.499 179.848C600.179 179.848 599.883 179.792 599.611 179.68C599.339 179.552 599.099 179.392 598.891 179.2C598.683 178.992 598.515 178.752 598.387 178.48C598.275 178.192 598.219 177.888 598.219 177.568C598.219 177.248 598.275 176.952 598.387 176.68C598.515 176.392 598.683 176.152 598.891 175.96C599.099 175.752 599.339 175.592 599.611 175.48C599.883 175.352 600.179 175.288 600.499 175.288C600.803 175.288 601.091 175.352 601.363 175.48C601.651 175.592 601.899 175.752 602.107 175.96C602.315 176.152 602.475 176.392 602.587 176.68C602.715 176.952 602.779 177.248 602.779 177.568ZM608.618 181.096H611.882L614.69 191.56H615.122L617.93 181.096H621.194L617.786 193H612.026L608.618 181.096ZM626.817 188.032C626.833 188.384 626.913 188.712 627.057 189.016C627.217 189.304 627.425 189.56 627.681 189.784C627.953 189.992 628.257 190.16 628.593 190.288C628.945 190.4 629.313 190.456 629.697 190.456C630.449 190.456 631.025 190.328 631.425 190.072C631.825 189.8 632.113 189.48 632.289 189.112L634.881 190.552C634.737 190.856 634.537 191.176 634.281 191.512C634.025 191.832 633.689 192.128 633.273 192.4C632.873 192.672 632.377 192.896 631.785 193.072C631.209 193.248 630.529 193.336 629.745 193.336C628.849 193.336 628.033 193.192 627.297 192.904C626.561 192.616 625.921 192.2 625.377 191.656C624.849 191.112 624.433 190.448 624.129 189.664C623.841 188.88 623.697 187.992 623.697 187V186.856C623.697 185.944 623.849 185.112 624.153 184.36C624.473 183.608 624.905 182.968 625.449 182.44C625.993 181.912 626.625 181.504 627.345 181.216C628.081 180.912 628.865 180.76 629.697 180.76C630.721 180.76 631.601 180.944 632.337 181.312C633.073 181.664 633.681 182.12 634.161 182.68C634.641 183.224 634.993 183.832 635.217 184.504C635.441 185.16 635.553 185.8 635.553 186.424V188.032H626.817ZM629.673 183.496C628.905 183.496 628.281 183.696 627.801 184.096C627.321 184.48 627.009 184.928 626.865 185.44H632.481C632.385 184.88 632.081 184.416 631.569 184.048C631.073 183.68 630.441 183.496 629.673 183.496ZM504.591 228.2C504.257 228.983 503.791 229.542 503.191 229.875C502.591 230.192 501.891 230.35 501.091 230.35C500.341 230.35 499.632 230.208 498.966 229.925C498.316 229.642 497.741 229.225 497.241 228.675C496.741 228.125 496.341 227.458 496.041 226.675C495.757 225.892 495.616 225 495.616 224V223.6C495.616 222.617 495.757 221.733 496.041 220.95C496.324 220.167 496.707 219.5 497.191 218.95C497.674 218.4 498.232 217.983 498.866 217.7C499.516 217.4 500.207 217.25 500.941 217.25C501.824 217.25 502.532 217.4 503.066 217.7C503.616 218 504.049 218.467 504.366 219.1H504.816V217.6H507.966V226.25C507.966 226.75 508.191 227 508.641 227H509.116V230H506.966C506.399 230 505.932 229.833 505.566 229.5C505.216 229.167 505.041 228.733 505.041 228.2H504.591ZM501.791 227.35C502.707 227.35 503.441 227.05 503.991 226.45C504.541 225.833 504.816 225 504.816 223.95V223.65C504.816 222.6 504.541 221.775 503.991 221.175C503.441 220.558 502.707 220.25 501.791 220.25C500.874 220.25 500.141 220.558 499.591 221.175C499.041 221.775 498.766 222.6 498.766 223.65V223.95C498.766 225 499.041 225.833 499.591 226.45C500.141 227.05 500.874 227.35 501.791 227.35ZM515.023 230H511.873V217.6H515.023V219.45H515.473C515.757 218.75 516.215 218.208 516.848 217.825C517.482 217.442 518.223 217.25 519.073 217.25C519.673 217.25 520.232 217.35 520.748 217.55C521.282 217.733 521.748 218.025 522.148 218.425C522.548 218.825 522.857 219.333 523.073 219.95C523.307 220.567 523.423 221.3 523.423 222.15V230H520.273V222.95C520.273 222.067 520.057 221.375 519.623 220.875C519.207 220.358 518.598 220.1 517.798 220.1C516.865 220.1 516.165 220.417 515.698 221.05C515.248 221.667 515.023 222.5 515.023 223.55V230ZM535.206 228.2C534.873 228.983 534.406 229.542 533.806 229.875C533.206 230.192 532.506 230.35 531.706 230.35C530.956 230.35 530.248 230.208 529.581 229.925C528.931 229.642 528.356 229.225 527.856 228.675C527.356 228.125 526.956 227.458 526.656 226.675C526.373 225.892 526.231 225 526.231 224V223.6C526.231 222.617 526.373 221.733 526.656 220.95C526.939 220.167 527.323 219.5 527.806 218.95C528.289 218.4 528.848 217.983 529.481 217.7C530.131 217.4 530.823 217.25 531.556 217.25C532.439 217.25 533.148 217.4 533.681 217.7C534.231 218 534.664 218.467 534.981 219.1H535.431V217.6H538.581V226.25C538.581 226.75 538.806 227 539.256 227H539.731V230H537.581C537.014 230 536.548 229.833 536.181 229.5C535.831 229.167 535.656 228.733 535.656 228.2H535.206ZM532.406 227.35C533.323 227.35 534.056 227.05 534.606 226.45C535.156 225.833 535.431 225 535.431 223.95V223.65C535.431 222.6 535.156 221.775 534.606 221.175C534.056 220.558 533.323 220.25 532.406 220.25C531.489 220.25 530.756 220.558 530.206 221.175C529.656 221.775 529.381 222.6 529.381 223.65V223.95C529.381 225 529.656 225.833 530.206 226.45C530.756 227.05 531.489 227.35 532.406 227.35ZM542.414 227H546.764V215.5H542.564V212.5H549.914V227H553.964V230H542.414V227ZM566.196 217.6H569.346V233.05C569.346 233.617 569.163 234.083 568.796 234.45C568.446 234.817 567.988 235 567.421 235H560.046V232H565.521C565.971 232 566.196 231.75 566.196 231.25V228.2H565.746C565.196 229.633 564.013 230.35 562.196 230.35C561.58 230.35 561.005 230.25 560.471 230.05C559.938 229.85 559.471 229.542 559.071 229.125C558.671 228.708 558.355 228.192 558.121 227.575C557.905 226.942 557.796 226.2 557.796 225.35V217.6H560.946V224.7C560.946 225.583 561.155 226.275 561.571 226.775C561.988 227.258 562.613 227.5 563.446 227.5C564.396 227.5 565.088 227.2 565.521 226.6C565.971 225.983 566.196 225.15 566.196 224.1V217.6ZM572.754 217.6H576.429V212.5H579.579V217.6H584.054V220.6H579.579V226.25C579.579 226.75 579.804 227 580.254 227H583.604V230H578.354C577.787 230 577.32 229.817 576.954 229.45C576.604 229.083 576.429 228.617 576.429 228.05V220.6H572.754V217.6ZM588.636 227H592.836V220.6H588.936V217.6H595.986V227H599.586V230H588.636V227ZM596.761 213.925C596.761 214.258 596.695 214.575 596.561 214.875C596.445 215.158 596.278 215.408 596.061 215.625C595.845 215.825 595.586 215.992 595.286 216.125C595.003 216.242 594.703 216.3 594.386 216.3C594.053 216.3 593.745 216.242 593.461 216.125C593.178 215.992 592.928 215.825 592.711 215.625C592.495 215.408 592.32 215.158 592.186 214.875C592.07 214.575 592.011 214.258 592.011 213.925C592.011 213.592 592.07 213.283 592.186 213C592.32 212.7 592.495 212.45 592.711 212.25C592.928 212.033 593.178 211.867 593.461 211.75C593.745 211.617 594.053 211.55 594.386 211.55C594.703 211.55 595.003 211.617 595.286 211.75C595.586 211.867 595.845 212.033 596.061 212.25C596.278 212.45 596.445 212.7 596.561 213C596.695 213.283 596.761 213.592 596.761 213.925ZM615.819 225.45C615.536 226.917 614.861 228.1 613.794 229C612.744 229.9 611.336 230.35 609.569 230.35C608.652 230.35 607.794 230.208 606.994 229.925C606.211 229.642 605.527 229.233 604.944 228.7C604.361 228.167 603.902 227.508 603.569 226.725C603.236 225.942 603.069 225.05 603.069 224.05V223.75C603.069 222.75 603.236 221.85 603.569 221.05C603.902 220.25 604.361 219.567 604.944 219C605.544 218.433 606.236 218 607.019 217.7C607.819 217.4 608.669 217.25 609.569 217.25C611.302 217.25 612.702 217.7 613.769 218.6C614.852 219.5 615.536 220.683 615.819 222.15L612.719 222.95C612.619 222.217 612.302 221.583 611.769 221.05C611.236 220.517 610.486 220.25 609.519 220.25C609.069 220.25 608.644 220.333 608.244 220.5C607.844 220.667 607.494 220.908 607.194 221.225C606.894 221.525 606.652 221.9 606.469 222.35C606.302 222.783 606.219 223.275 606.219 223.825V223.975C606.219 224.525 606.302 225.017 606.469 225.45C606.652 225.867 606.894 226.217 607.194 226.5C607.494 226.783 607.844 227 608.244 227.15C608.644 227.283 609.069 227.35 609.519 227.35C610.486 227.35 611.219 227.108 611.719 226.625C612.236 226.142 612.569 225.492 612.719 224.675L615.819 225.45ZM622.977 221.1C622.977 221.5 623.185 221.792 623.602 221.975C624.018 222.142 624.777 222.283 625.877 222.4C627.143 222.533 628.177 222.917 628.977 223.55C629.777 224.167 630.177 225.033 630.177 226.15V226.3C630.177 227.533 629.727 228.517 628.827 229.25C627.927 229.983 626.66 230.35 625.027 230.35C624.06 230.35 623.235 230.225 622.552 229.975C621.868 229.725 621.302 229.417 620.852 229.05C620.402 228.667 620.052 228.25 619.802 227.8C619.568 227.333 619.41 226.883 619.327 226.45L622.227 225.5C622.36 226.033 622.635 226.5 623.052 226.9C623.485 227.3 624.143 227.5 625.027 227.5C625.81 227.5 626.343 227.383 626.627 227.15C626.927 226.9 627.077 226.633 627.077 226.35C627.077 226.183 627.035 226.033 626.952 225.9C626.885 225.75 626.752 225.617 626.552 225.5C626.352 225.367 626.077 225.258 625.727 225.175C625.393 225.092 624.968 225.025 624.452 224.975C623.052 224.858 621.935 224.5 621.102 223.9C620.285 223.283 619.877 222.383 619.877 221.2V221.05C619.877 220.433 620.01 219.892 620.277 219.425C620.543 218.958 620.893 218.567 621.327 218.25C621.76 217.917 622.26 217.667 622.827 217.5C623.393 217.333 623.977 217.25 624.577 217.25C625.36 217.25 626.035 217.35 626.602 217.55C627.185 217.733 627.677 217.983 628.077 218.3C628.477 218.6 628.802 218.942 629.052 219.325C629.302 219.692 629.493 220.05 629.627 220.4L626.777 221.55C626.627 221.1 626.368 220.75 626.002 220.5C625.635 220.233 625.16 220.1 624.577 220.1C624.043 220.1 623.643 220.2 623.377 220.4C623.11 220.583 622.977 220.817 622.977 221.1Z" fill="black"/>
<path d="M577.251 104C577.34 104.187 577.531 104.097 577.669 104.134C579.614 104.652 580.911 106.558 580.683 108.576C580.666 108.729 580.636 108.812 580.466 108.794C580.418 108.791 580.371 108.791 580.323 108.794C579.943 108.793 579.494 108.914 579.197 108.759C578.847 108.576 579.096 108.091 579.045 107.742C578.856 106.455 577.849 105.6 576.467 105.599C571.147 105.596 565.827 105.596 560.507 105.598C555.124 105.598 549.74 105.598 544.356 105.598C542.632 105.598 541.633 106.574 541.633 108.265C541.631 116.623 541.63 124.981 541.629 133.339C541.628 134.522 542.105 135.39 543.238 135.847C543.454 135.934 543.446 136.04 543.404 136.199C543.303 136.494 543.223 136.796 543.165 137.102C543.117 137.494 542.923 137.444 542.653 137.348C541.875 137.059 541.205 136.544 540.733 135.871C540.261 135.198 540.008 134.4 540.009 133.582C539.991 132.192 540.005 130.801 540.005 129.411C540.005 122.396 540.005 115.382 540.005 108.368C540.005 106.062 541.108 104.654 543.366 104.069C543.388 104.063 543.401 104.024 543.418 104L577.251 104Z" fill="#5FB5F2"/>
<path d="M561.152 128.257C561.622 127.709 562.13 127.195 562.673 126.718C562.836 126.581 562.772 126.399 562.772 126.237C562.777 124.565 562.785 122.893 562.768 121.221C562.764 120.887 562.825 120.725 563.202 120.777C563.59 120.83 564.112 120.608 564.338 120.868C564.529 121.088 564.4 121.583 564.401 121.956C564.404 123.11 564.402 124.264 564.402 125.466C564.92 125.233 565.401 125.013 565.886 124.803C566.093 124.713 566.024 124.54 566.025 124.398C566.031 123.585 566.04 122.773 566.021 121.961C566.014 121.676 566.089 121.563 566.39 121.592C566.797 121.632 567.319 121.429 567.584 121.671C567.828 121.895 567.641 122.409 567.654 122.794C567.668 123.184 567.668 123.576 567.653 123.966C567.644 124.206 567.721 124.261 567.958 124.204C568.247 124.12 568.547 124.075 568.849 124.072C569.265 124.091 569.294 123.89 569.291 123.566C569.279 121.988 569.297 120.41 569.278 118.832C569.274 118.487 569.356 118.38 569.722 118.385C570.919 118.399 570.919 118.383 570.919 119.581C570.919 120.909 570.927 122.237 570.914 123.565C570.911 123.889 570.938 124.1 571.356 124.07C571.61 124.054 571.866 124.088 572.106 124.172C572.549 124.33 572.554 124.107 572.553 123.779C572.544 121.592 572.557 119.404 572.539 117.217C572.536 116.856 572.643 116.777 572.992 116.781C574.177 116.795 574.178 116.781 574.178 117.94C574.178 120.049 574.186 122.159 574.169 124.268C574.167 124.608 574.233 124.801 574.592 124.918C574.99 125.048 575.359 125.268 575.803 125.478V123.585C575.803 122.506 575.814 121.428 575.796 120.35C575.791 120.059 575.869 119.96 576.165 119.991C576.571 120.033 577.093 119.828 577.356 120.075C577.601 120.305 577.424 120.816 577.426 121.202C577.434 122.89 577.434 124.577 577.424 126.265C577.415 126.379 577.434 126.494 577.48 126.599C577.527 126.704 577.599 126.796 577.691 126.866C578.155 127.27 578.586 127.709 578.98 128.178C579.114 128.048 579.049 127.9 579.05 127.772C579.055 126.366 579.061 124.959 579.046 123.553C579.044 123.272 579.103 123.162 579.409 123.189C579.815 123.226 580.356 123.068 580.599 123.272C580.856 123.487 580.673 124.034 580.675 124.436C580.682 126.498 580.682 128.561 580.675 130.623C580.674 130.918 580.728 131.211 580.835 131.486C581.421 133.062 581.614 134.752 581.397 136.416C581.356 136.749 581.438 136.849 581.742 136.791C582.251 136.692 582.378 136.93 582.302 137.369C582.301 137.385 582.301 137.401 582.302 137.416C582.302 138.371 582.302 138.388 581.337 138.382C581.049 138.381 580.952 138.493 580.886 138.729C580.752 139.243 580.544 139.735 580.267 140.19C580.036 140.556 580.151 140.749 580.416 141.008C582.771 143.309 585.12 145.617 587.463 147.93C588.175 148.631 588.177 148.946 587.473 149.639C586.845 150.258 586.216 150.876 585.586 151.495C584.904 152.165 584.591 152.167 583.922 151.509C581.596 149.223 579.273 146.935 576.951 144.645C576.723 144.42 576.59 144.378 576.291 144.566C569.946 148.553 561.767 145.732 559.32 138.716C559.22 138.431 559.075 138.387 558.81 138.387C555.411 138.395 552.012 138.386 548.613 138.401C548.248 138.402 548.099 138.324 548.146 137.946C548.193 137.579 547.993 137.094 548.22 136.866C548.45 136.635 548.943 136.798 549.32 136.797C552.354 136.791 555.388 136.788 558.421 136.802C558.787 136.803 558.845 136.734 558.802 136.366C558.593 134.717 558.789 133.043 559.372 131.483C559.478 131.207 559.532 130.915 559.531 130.62C559.525 128.026 559.535 125.432 559.52 122.839C559.517 122.483 559.591 122.325 559.981 122.376C560.354 122.424 560.846 122.222 561.08 122.454C561.313 122.686 561.147 123.166 561.149 123.537C561.158 124.927 561.153 126.317 561.153 127.708L561.152 128.257ZM570.112 125.583C568.181 125.579 566.293 126.14 564.686 127.192C563.079 128.245 561.826 129.743 561.085 131.497C560.344 133.25 560.148 135.181 560.523 137.044C560.897 138.907 561.825 140.619 563.189 141.963C564.552 143.307 566.291 144.223 568.184 144.595C570.077 144.967 572.04 144.778 573.824 144.053C575.608 143.327 577.133 142.097 578.206 140.518C579.279 138.94 579.852 137.084 579.853 135.184C579.853 132.641 578.828 130.202 577.001 128.401C575.175 126.601 572.697 125.587 570.112 125.583ZM579.065 141.95C579.054 142.019 579.031 142.086 578.997 142.147C578.683 142.499 578.373 142.856 578.037 143.186C577.869 143.352 577.995 143.419 578.091 143.513C580.247 145.633 582.402 147.754 584.556 149.875C584.699 150.016 584.787 150.034 584.931 149.88C585.211 149.582 585.499 149.29 585.807 149.02C586.013 148.838 585.987 148.73 585.799 148.547C583.648 146.444 581.502 144.337 579.362 142.224C579.296 142.16 579.226 142.098 579.065 141.95H579.065Z" fill="#5FB5F2"/>
<path d="M584.549 142.631C584.425 142.531 584.313 142.445 584.206 142.353C583.943 142.127 583.598 141.943 583.443 141.659C583.278 141.354 583.712 141.129 583.786 140.821C583.87 140.521 583.918 140.212 583.929 139.901C583.927 131.433 583.925 122.965 583.925 114.497C583.925 113 582.886 111.995 581.33 111.992C578.011 111.984 574.692 111.99 571.373 111.99C563.988 111.99 556.603 111.99 549.218 111.99C547.894 111.99 546.975 112.607 546.628 113.71C546.547 114.012 546.513 114.325 546.527 114.637C546.526 123.011 546.526 131.385 546.527 139.759C546.527 141.431 547.518 142.398 549.224 142.399C552.512 142.402 555.8 142.4 559.087 142.394C559.417 142.392 559.595 142.432 559.537 142.815C559.479 143.196 559.704 143.708 559.446 143.932C559.227 144.122 558.723 144.003 558.345 144.003C555.28 144.006 552.215 144.006 549.15 144.003C547.064 143.998 545.472 142.792 545.001 140.885C544.918 140.503 544.882 140.113 544.893 139.722C544.891 131.379 544.891 123.037 544.893 114.694C544.893 112.072 546.607 110.388 549.267 110.388C559.908 110.386 570.549 110.386 581.19 110.388C583.833 110.388 585.552 112.067 585.552 114.651C585.554 123.025 585.556 131.399 585.558 139.773C585.56 140.849 585.266 141.798 584.549 142.631Z" fill="#5FB5F2"/>
<path d="M553.032 130.443C553.032 128.961 553.043 127.479 553.024 125.998C553.019 125.661 553.126 125.556 553.451 125.595C553.84 125.64 554.359 125.427 554.587 125.685C554.779 125.901 554.655 126.396 554.656 126.767C554.659 129.419 554.65 132.071 554.666 134.723C554.669 135.091 554.61 135.234 554.189 135.223C553.032 135.194 553.032 135.216 553.032 134.093V130.443Z" fill="#5FB5F2"/>
<path d="M556.283 131.577C556.283 130.501 556.291 129.425 556.277 128.349C556.274 128.091 556.336 127.985 556.613 128.013C557.033 128.055 557.595 127.839 557.838 128.101C558.045 128.325 557.905 128.869 557.906 129.271C557.908 131.126 557.901 132.982 557.913 134.837C557.915 135.129 557.859 135.267 557.53 135.228C557.127 135.18 556.586 135.398 556.352 135.137C556.152 134.914 556.287 134.396 556.285 134.009C556.28 133.198 556.283 132.387 556.283 131.577Z" fill="#5FB5F2"/>
<path d="M549.777 132.79C549.777 132.105 549.786 131.419 549.772 130.735C549.768 130.499 549.828 130.421 550.085 130.414C551.407 130.374 551.406 130.366 551.406 131.663C551.406 132.721 551.396 133.78 551.413 134.838C551.418 135.14 551.34 135.256 551.02 135.23C550.629 135.197 550.11 135.352 549.874 135.158C549.597 134.929 549.798 134.401 549.781 134.004C549.764 133.6 549.777 133.194 549.777 132.79Z" fill="#5FB5F2"/>
<path d="M548.152 114.397C548.152 113.586 548.152 113.586 548.963 113.586C549.786 113.586 549.786 113.586 549.786 114.389C549.786 115.196 549.786 115.196 548.971 115.196C548.152 115.196 548.152 115.196 548.152 114.397Z" fill="#5FB5F2"/>
<path d="M544.894 107.984C544.894 108.792 544.894 108.792 544.087 108.792C543.258 108.792 543.258 108.792 543.258 107.954C543.258 107.191 543.258 107.191 544.021 107.191H544.069C544.894 107.191 544.894 107.191 544.894 107.984Z" fill="#5FB5F2"/>
<path d="M547.325 107.191C548.155 107.191 548.155 107.191 548.155 108.028C548.155 108.792 548.155 108.792 547.394 108.792C546.52 108.792 546.52 108.792 546.52 107.911C546.52 107.191 546.52 107.191 547.325 107.191Z" fill="#5FB5F2"/>
<path d="M552.23 113.586C553.036 113.586 553.036 113.586 553.036 114.401C553.036 115.194 553.036 115.194 552.211 115.194C551.406 115.194 551.406 115.194 551.406 114.382C551.406 113.586 551.406 113.586 552.23 113.586Z" fill="#5FB5F2"/>
<path d="M555.468 113.586C556.283 113.586 556.283 113.586 556.283 114.39C556.283 115.193 556.283 115.194 555.471 115.194C554.656 115.194 554.656 115.194 554.656 114.393C554.656 113.586 554.656 113.586 555.468 113.586Z" fill="#5FB5F2"/>
<path d="M551.407 108.018C551.407 108.791 551.407 108.791 550.611 108.791C549.777 108.791 549.777 108.791 549.777 107.968C549.777 107.191 549.777 107.191 550.567 107.191C551.407 107.191 551.407 107.191 551.407 108.018Z" fill="#5FB5F2"/>
<path d="M570.102 127.215C571.71 127.213 573.282 127.68 574.62 128.558C575.958 129.435 577.001 130.682 577.618 132.143C578.235 133.603 578.399 135.211 578.087 136.762C577.776 138.314 577.004 139.74 575.868 140.86C574.733 141.98 573.286 142.744 571.71 143.055C570.133 143.366 568.499 143.21 567.012 142.607C565.526 142.005 564.254 140.982 563.359 139.668C562.463 138.355 561.984 136.81 561.98 135.228C561.978 134.177 562.187 133.136 562.594 132.165C563.001 131.193 563.599 130.31 564.353 129.566C565.108 128.822 566.003 128.231 566.99 127.828C567.976 127.424 569.034 127.216 570.102 127.215ZM574.178 130.281V134.042C574.178 135.245 574.178 135.232 572.931 135.233C572.601 135.233 572.541 135.125 572.544 134.832C572.557 133.332 572.55 131.833 572.55 130.333C572.55 129.151 572.546 129.17 571.347 128.934C570.949 128.856 570.91 128.979 570.913 129.316C570.928 130.893 570.924 132.471 570.916 134.048C570.915 134.42 571.079 134.902 570.85 135.136C570.6 135.392 570.099 135.173 569.713 135.228C569.327 135.282 569.278 135.104 569.281 134.778C569.296 133.185 569.287 131.592 569.287 129.999C569.287 128.746 569.29 128.755 568.059 129.141C567.756 129.235 567.644 129.368 567.648 129.697C567.669 131.353 567.634 133.009 567.672 134.664C567.684 135.163 567.523 135.291 567.066 135.228C566.86 135.202 566.653 135.202 566.448 135.228C566.116 135.267 566.017 135.152 566.021 134.819C566.041 133.46 566.031 132.101 566.026 130.742C566.026 130.612 566.079 130.467 565.983 130.354C565.953 130.346 565.933 130.335 565.926 130.34C564.179 131.577 563.155 134.506 563.743 136.562C563.748 136.603 563.761 136.642 563.781 136.678C563.802 136.714 563.83 136.746 563.863 136.771C563.896 136.796 563.935 136.814 563.975 136.824C564.016 136.834 564.059 136.836 564.1 136.829C568.101 136.821 572.103 136.821 576.104 136.829C576.145 136.836 576.188 136.834 576.228 136.825C576.269 136.815 576.308 136.797 576.341 136.773C576.375 136.748 576.403 136.717 576.423 136.681C576.444 136.645 576.457 136.605 576.462 136.564C577.06 134.473 576.047 131.615 574.177 130.281H574.178ZM564.538 138.429C565.508 140.441 568.243 141.823 570.693 141.596C573.288 141.356 575.253 139.532 575.622 138.429H564.538Z" fill="#5FB5F2"/>
<path d="M966.614 189.4H960.902L960.086 193H956.774L960.782 176.2H966.734L970.742 193H967.43L966.614 189.4ZM961.574 186.376H965.918L963.974 177.784H963.542L961.574 186.376ZM973.077 176.2H976.245V189.976H983.877V193H973.077V176.2ZM1010.08 191.272C1009.76 192.024 1009.31 192.56 1008.73 192.88C1008.16 193.184 1007.48 193.336 1006.72 193.336C1006 193.336 1005.32 193.2 1004.68 192.928C1004.05 192.656 1003.5 192.256 1003.02 191.728C1002.54 191.2 1002.16 190.56 1001.87 189.808C1001.6 189.056 1001.46 188.2 1001.46 187.24V186.856C1001.46 185.912 1001.6 185.064 1001.87 184.312C1002.14 183.56 1002.51 182.92 1002.97 182.392C1003.44 181.864 1003.97 181.464 1004.58 181.192C1005.2 180.904 1005.87 180.76 1006.57 180.76C1007.42 180.76 1008.1 180.904 1008.61 181.192C1009.14 181.48 1009.56 181.928 1009.86 182.536H1010.29V181.096H1013.32V189.4C1013.32 189.88 1013.53 190.12 1013.96 190.12H1014.42V193H1012.36C1011.81 193 1011.36 192.84 1011.01 192.52C1010.68 192.2 1010.51 191.784 1010.51 191.272H1010.08ZM1007.39 190.456C1008.27 190.456 1008.97 190.168 1009.5 189.592C1010.03 189 1010.29 188.2 1010.29 187.192V186.904C1010.29 185.896 1010.03 185.104 1009.5 184.528C1008.97 183.936 1008.27 183.64 1007.39 183.64C1006.51 183.64 1005.8 183.936 1005.28 184.528C1004.75 185.104 1004.48 185.896 1004.48 186.904V187.192C1004.48 188.2 1004.75 189 1005.28 189.592C1005.8 190.168 1006.51 190.456 1007.39 190.456ZM1020.09 193H1017.07V181.096H1020.09V182.872H1020.52C1020.8 182.2 1021.24 181.68 1021.84 181.312C1022.45 180.944 1023.16 180.76 1023.98 180.76C1024.56 180.76 1025.09 180.856 1025.59 181.048C1026.1 181.224 1026.55 181.504 1026.93 181.888C1027.32 182.272 1027.61 182.76 1027.82 183.352C1028.04 183.944 1028.16 184.648 1028.16 185.464V193H1025.13V186.232C1025.13 185.384 1024.92 184.72 1024.51 184.24C1024.11 183.744 1023.52 183.496 1022.76 183.496C1021.86 183.496 1021.19 183.8 1020.74 184.408C1020.31 185 1020.09 185.8 1020.09 186.808V193ZM1040.31 191.272H1039.87C1039.75 191.544 1039.59 191.808 1039.39 192.064C1039.22 192.304 1038.98 192.52 1038.67 192.712C1038.39 192.904 1038.03 193.056 1037.62 193.168C1037.22 193.28 1036.73 193.336 1036.15 193.336C1035.42 193.336 1034.73 193.208 1034.09 192.952C1033.47 192.68 1032.91 192.288 1032.43 191.776C1031.97 191.248 1031.6 190.608 1031.33 189.856C1031.07 189.104 1030.95 188.24 1030.95 187.264V186.832C1030.95 185.872 1031.08 185.016 1031.35 184.264C1031.64 183.512 1032.03 182.88 1032.51 182.368C1033 181.84 1033.57 181.44 1034.21 181.168C1034.87 180.896 1035.55 180.76 1036.27 180.76C1037.23 180.76 1037.99 180.944 1038.55 181.312C1039.11 181.664 1039.55 182.168 1039.87 182.824H1040.31V176.2H1043.33V193H1040.31V191.272ZM1037.14 190.456C1038.08 190.456 1038.84 190.16 1039.42 189.568C1040.01 188.96 1040.31 188.168 1040.31 187.192V186.904C1040.31 185.928 1040.01 185.144 1039.42 184.552C1038.84 183.944 1038.08 183.64 1037.14 183.64C1036.19 183.64 1035.43 183.936 1034.83 184.528C1034.26 185.104 1033.97 185.896 1033.97 186.904V187.192C1033.97 188.2 1034.26 189 1034.83 189.592C1035.43 190.168 1036.19 190.456 1037.14 190.456ZM986.333 212.2H991.901L992.861 224.824V227.272H993.437V224.824L994.397 212.2H999.965V229H997.085V217.768L997.373 213.928H996.797L995.549 229H990.797L989.501 213.928H988.925L989.213 217.768V229H986.333V212.2ZM1002.47 212.2H1005.64V225.976H1013.27V229H1002.47V212.2Z" fill="black"/>
<path d="M1000.13 151.999C1000.72 151.804 1001.34 151.709 1001.9 151.418C1003.85 150.4 1004.96 148.835 1005.1 146.656C1005.12 146.324 1005.23 146.207 1005.55 146.257C1005.6 146.262 1005.64 146.262 1005.69 146.257C1006.33 146.209 1006.83 146.233 1007.22 146.954C1007.73 147.884 1008.96 148.147 1010 147.776C1010.96 147.435 1011.66 146.394 1011.58 145.433C1011.55 144.907 1011.34 144.405 1010.99 144.004C1010.64 143.603 1010.17 143.324 1009.65 143.209C1008.62 142.985 1007.49 143.45 1007.03 144.398C1006.82 144.809 1006.58 144.862 1006.19 144.855C1005.13 144.837 1005.13 144.849 1005.13 143.804C1005.13 142.726 1005.14 141.647 1005.12 140.569C1005.11 140.263 1005.2 140.175 1005.52 140.178C1007.27 140.194 1009.02 140.19 1010.77 140.182C1010.92 140.178 1011.07 140.205 1011.21 140.262C1011.35 140.32 1011.48 140.405 1011.58 140.513C1012.31 141.236 1013.04 141.952 1013.78 142.662C1013.95 142.824 1013.99 142.937 1013.88 143.171C1013.73 143.463 1013.64 143.784 1013.62 144.112C1013.6 144.439 1013.65 144.768 1013.76 145.076C1013.88 145.384 1014.06 145.665 1014.29 145.901C1014.53 146.138 1014.81 146.324 1015.12 146.449C1015.43 146.571 1015.76 146.63 1016.09 146.622C1016.43 146.614 1016.76 146.539 1017.06 146.401C1017.37 146.264 1017.64 146.067 1017.86 145.823C1018.09 145.578 1018.26 145.291 1018.36 144.98C1018.8 143.652 1018.02 142.291 1016.62 141.928C1016.25 141.822 1015.86 141.824 1015.49 141.933C1015.22 142.021 1015.05 141.937 1014.87 141.752C1014.11 140.993 1013.33 140.253 1012.57 139.495C1012.34 139.256 1012.06 139.069 1011.75 138.944C1011.44 138.819 1011.11 138.761 1010.77 138.772C1009.02 138.788 1007.27 138.77 1005.52 138.785C1005.2 138.787 1005.11 138.706 1005.12 138.397C1005.14 137.679 1005.14 136.959 1005.12 136.241C1005.11 135.92 1005.22 135.858 1005.52 135.859C1007.9 135.871 1010.27 135.856 1012.65 135.872C1012.99 135.885 1013.33 135.826 1013.65 135.698C1013.96 135.57 1014.25 135.376 1014.48 135.13C1014.86 134.734 1015.28 134.364 1015.66 133.97C1016.02 133.607 1016.03 133.178 1015.73 132.893C1015.42 132.603 1015.04 132.616 1014.67 132.961C1014.25 133.347 1013.85 133.748 1013.45 134.151C1013.35 134.253 1013.23 134.334 1013.1 134.387C1012.97 134.441 1012.83 134.466 1012.68 134.461C1010.29 134.455 1007.9 134.456 1005.51 134.463C1005.25 134.463 1005.11 134.437 1005.12 134.118C1005.14 132.993 1005.13 131.867 1005.12 130.742C1005.12 130.473 1005.2 130.372 1005.47 130.403C1005.61 130.417 1005.76 130.417 1005.9 130.404C1006.5 130.354 1006.94 130.421 1007.3 131.071C1007.83 132.015 1009.08 132.3 1010.12 131.92C1011.09 131.57 1011.76 130.558 1011.69 129.57C1011.65 129.044 1011.44 128.544 1011.09 128.144C1010.74 127.744 1010.27 127.466 1009.75 127.352C1009.23 127.242 1008.69 127.304 1008.21 127.529C1007.73 127.755 1007.34 128.13 1007.1 128.596C1006.93 128.944 1006.73 129.037 1006.38 128.999C1005.98 128.956 1005.43 129.176 1005.2 128.9C1005 128.667 1005.13 128.155 1005.13 127.767C1005.12 126.595 1005.14 125.423 1005.12 124.251C1005.11 123.945 1005.2 123.859 1005.52 123.861C1007.75 123.875 1009.98 123.875 1012.21 123.863C1012.48 123.861 1012.62 123.93 1012.74 124.187C1012.98 124.697 1013.4 125.106 1013.91 125.34C1014.43 125.574 1015.02 125.618 1015.57 125.463C1016.72 125.149 1017.43 124.157 1017.35 122.961C1017.28 121.851 1016.38 120.946 1015.2 120.797C1014.7 120.738 1014.19 120.836 1013.75 121.077C1013.31 121.319 1012.96 121.691 1012.75 122.141C1012.62 122.4 1012.48 122.467 1012.21 122.466C1009.98 122.456 1007.75 122.457 1005.52 122.467C1005.21 122.469 1005.11 122.4 1005.12 122.084C1005.14 120.771 1005.14 119.458 1005.12 118.146C1005.12 117.845 1005.19 117.748 1005.51 117.751C1007.35 117.767 1009.18 117.763 1011.01 117.754C1011.26 117.753 1011.39 117.811 1011.51 118.054C1011.74 118.558 1012.14 118.966 1012.65 119.205C1013.16 119.445 1013.73 119.502 1014.28 119.365C1014.81 119.24 1015.29 118.941 1015.63 118.515C1015.97 118.09 1016.15 117.564 1016.15 117.025C1016.14 116.485 1015.95 115.963 1015.6 115.544C1015.25 115.126 1014.77 114.836 1014.23 114.722C1013.69 114.6 1013.12 114.665 1012.63 114.906C1012.13 115.147 1011.73 115.55 1011.51 116.046C1011.39 116.278 1011.28 116.359 1011.01 116.357C1009.18 116.345 1007.35 116.345 1005.52 116.358C1005.19 116.361 1005.11 116.266 1005.12 115.964C1005.14 114.979 1005.14 113.994 1005.12 113.01C1005.11 112.691 1005.19 112.581 1005.53 112.588C1006.59 112.611 1007.64 112.592 1008.69 112.598C1009.01 112.609 1009.33 112.554 1009.62 112.436C1009.92 112.318 1010.18 112.139 1010.4 111.912C1010.85 111.463 1011.31 111.035 1011.76 110.586C1011.94 110.404 1012.09 110.33 1012.37 110.411C1012.68 110.496 1013 110.52 1013.32 110.481C1013.64 110.443 1013.95 110.343 1014.23 110.187C1014.5 110.032 1014.75 109.823 1014.94 109.574C1015.14 109.325 1015.28 109.041 1015.37 108.737C1015.45 108.433 1015.47 108.117 1015.42 107.805C1015.38 107.494 1015.28 107.194 1015.11 106.923C1014.95 106.652 1014.74 106.415 1014.48 106.227C1014.22 106.038 1013.93 105.902 1013.62 105.825C1012.68 105.597 1011.85 105.848 1011.21 106.575C1010.57 107.297 1010.4 108.129 1010.8 109.011C1010.94 109.317 1010.89 109.477 1010.66 109.683C1010.25 110.052 1009.86 110.443 1009.47 110.839C1009.37 110.955 1009.24 111.047 1009.09 111.108C1008.94 111.169 1008.79 111.198 1008.63 111.192C1007.59 111.18 1006.56 111.176 1005.52 111.195C1005.21 111.201 1005.11 111.115 1005.12 110.805C1005.14 109.729 1005.19 108.648 1004.75 107.62C1003.83 105.466 1002.18 104.202 999.823 104.02C997.449 103.837 995.587 104.821 994.358 106.849C994.168 107.163 993.981 107.257 993.618 107.26C992.106 107.261 990.65 107.819 989.539 108.824C988.427 109.829 987.742 111.207 987.618 112.684C987.591 112.982 987.475 112.996 987.236 112.98C986.903 112.956 986.568 112.954 986.234 112.974C985.831 113.002 985.589 113.231 985.573 113.636C985.557 114.044 985.785 114.283 986.186 114.339C986.421 114.372 986.663 114.348 986.901 114.36C987.813 114.401 988.693 114.699 989.437 115.219C989.552 115.302 989.673 115.377 989.798 115.445C990.182 115.641 990.56 115.559 990.764 115.243C990.864 115.09 990.899 114.905 990.863 114.727C990.826 114.549 990.72 114.392 990.568 114.289C990.193 114 989.808 113.716 989.357 113.551C989.089 113.452 989.007 113.297 989.028 113.022C989.168 111.177 990.077 109.821 991.784 109.064C993.44 108.33 995.042 108.554 996.517 109.6C996.658 109.701 996.784 109.823 996.926 109.924C997.302 110.189 997.687 110.166 997.95 109.87C998.23 109.554 998.188 109.174 997.822 108.839C997.264 108.324 996.609 107.921 995.894 107.652C995.731 107.591 995.54 107.577 995.724 107.319C996.688 105.965 998.012 105.296 999.683 105.418C1001.33 105.538 1002.52 106.382 1003.32 107.903C1002.94 107.903 1002.63 107.893 1002.32 107.905C1001.91 107.921 1001.67 108.139 1001.62 108.537C1001.58 108.917 1001.83 109.225 1002.25 109.276C1002.62 109.31 1002.98 109.319 1003.35 109.301C1003.58 109.295 1003.7 109.326 1003.69 109.595C1003.68 111.126 1003.68 112.658 1003.69 114.19C1003.7 114.416 1003.62 114.485 1003.4 114.48C1002.76 114.466 1002.12 114.495 1001.48 114.468C1000.22 114.414 999.416 113.643 999.265 112.386C999.204 111.878 998.908 111.571 998.501 111.592C998.059 111.616 997.811 111.954 997.837 112.499C997.928 114.4 999.513 115.833 1001.59 115.881C1002.18 115.895 1002.77 115.891 1003.36 115.88C1003.58 115.875 1003.7 115.899 1003.7 116.173C1003.69 119.19 1003.69 122.206 1003.7 125.223C1003.7 125.622 1003.46 125.541 1003.24 125.541C999.684 125.542 996.13 125.542 992.576 125.542C992.497 125.542 992.417 125.542 992.337 125.542C991.696 125.546 991.346 125.794 991.35 126.242C991.353 126.691 991.711 126.949 992.344 126.949C995.946 126.951 999.547 126.956 1003.15 126.941C1003.56 126.94 1003.71 127.005 1003.7 127.456C1003.68 131.082 1003.68 134.708 1003.7 138.334C1003.7 138.707 1003.6 138.791 1003.23 138.787C1001.49 138.768 999.756 138.766 998.019 138.782C995.869 138.802 994.202 140.313 994.106 142.299C994.08 142.837 994.294 143.147 994.722 143.189C995.182 143.235 995.471 142.959 995.535 142.411C995.698 141.014 996.618 140.195 998.054 140.189C999.807 140.181 1001.56 140.196 1003.31 140.178C1003.64 140.175 1003.7 140.284 1003.7 140.574C1003.68 141.887 1003.68 143.2 1003.7 144.513C1003.7 144.793 1003.64 144.904 1003.33 144.878C1003 144.854 1002.67 144.854 1002.33 144.878C1001.89 144.905 1001.6 145.208 1001.62 145.6C1001.63 145.974 1001.91 146.25 1002.33 146.273C1002.68 146.295 1003.04 146.295 1003.39 146.273C1003.66 146.256 1003.69 146.357 1003.68 146.592C1003.61 148.374 1002.35 149.888 1000.45 150.437C998.78 150.919 996.822 150.209 995.804 148.796C995.532 148.419 995.724 148.368 996.023 148.237C998.299 147.231 999.55 145.505 999.745 143.059C999.795 142.44 999.534 142.087 999.069 142.073C998.629 142.06 998.36 142.383 998.315 142.976C998.125 145.497 996.128 147.328 993.587 147.31C991.146 147.293 989.052 145.245 989.03 142.851C989.029 142.726 989.035 142.601 989.04 142.476C989.082 141.425 988.793 141.196 987.738 141.442C984.394 142.223 981.305 139.093 982.227 135.873C982.309 135.584 982.4 135.584 982.646 135.666C983.429 135.933 984.252 136.072 985.081 136.078C985.629 136.081 985.941 135.866 985.977 135.447C986.013 135.019 985.704 134.705 985.152 134.679C984.611 134.665 984.073 134.589 983.55 134.452C980.771 133.662 979.014 131.891 978.534 129.089C978.063 126.347 979.087 124.137 981.375 122.486C981.647 122.29 981.774 122.324 981.964 122.578C982.428 123.178 983.014 123.676 983.685 124.041C984.111 124.283 984.511 124.219 984.739 123.883C984.975 123.535 984.874 123.114 984.437 122.851C983.173 122.09 982.363 121.03 982.129 119.578C981.939 118.441 982.213 117.275 982.892 116.334C983.017 116.153 983.162 115.985 983.276 115.798C983.488 115.451 983.417 115.132 983.11 114.878C982.827 114.642 982.407 114.687 982.127 114.993C981.402 115.789 980.918 116.767 980.727 117.818C980.528 118.756 980.594 119.73 980.918 120.635C981.053 121 980.894 121.114 980.64 121.292C977.846 123.248 976.633 125.914 977.096 129.244C977.415 131.54 978.632 133.345 980.586 134.654C980.874 134.847 981.006 134.982 980.881 135.384C979.661 139.312 983.006 143.317 987.166 142.938C987.418 142.914 987.59 142.875 987.618 143.251C987.843 146.295 990.453 148.678 993.59 148.709C993.966 148.713 994.173 148.81 994.364 149.144C995.223 150.648 996.557 151.531 998.263 151.894C998.35 151.913 998.459 151.889 998.505 152L1000.13 151.999ZM1017.05 144.233C1017.04 144.492 1016.93 144.738 1016.75 144.922C1016.56 145.106 1016.31 145.214 1016.05 145.224C1015.78 145.216 1015.53 145.109 1015.34 144.924C1015.16 144.738 1015.05 144.49 1015.05 144.23C1015.05 143.978 1015.16 143.738 1015.34 143.559C1015.52 143.381 1015.77 143.278 1016.02 143.272C1016.29 143.269 1016.55 143.368 1016.74 143.547C1016.93 143.727 1017.04 143.973 1017.05 144.233ZM1015.93 123.184C1015.92 123.444 1015.81 123.69 1015.61 123.87C1015.42 124.049 1015.17 124.147 1014.9 124.143C1014.64 124.136 1014.39 124.028 1014.21 123.842C1014.03 123.656 1013.93 123.407 1013.93 123.149C1013.93 122.891 1014.04 122.646 1014.23 122.466C1014.42 122.286 1014.67 122.186 1014.94 122.188C1015.2 122.194 1015.45 122.302 1015.64 122.488C1015.82 122.674 1015.93 122.924 1015.93 123.184H1015.93ZM1013.06 107.164C1013.19 107.166 1013.32 107.193 1013.44 107.244C1013.56 107.296 1013.67 107.37 1013.76 107.463C1013.85 107.556 1013.92 107.666 1013.97 107.786C1014.01 107.906 1014.04 108.034 1014.03 108.163C1014.02 108.419 1013.91 108.661 1013.72 108.837C1013.53 109.013 1013.28 109.109 1013.02 109.104C1012.76 109.099 1012.51 108.994 1012.32 108.81C1012.14 108.627 1012.04 108.381 1012.04 108.125C1012.04 107.996 1012.07 107.869 1012.12 107.75C1012.17 107.632 1012.25 107.525 1012.34 107.436C1012.44 107.346 1012.55 107.276 1012.67 107.23C1012.79 107.183 1012.92 107.161 1013.06 107.164ZM1009.25 128.727C1009.52 128.731 1009.77 128.837 1009.96 129.021C1010.15 129.205 1010.25 129.453 1010.26 129.713C1010.24 129.963 1010.13 130.2 1009.95 130.376C1009.77 130.553 1009.52 130.657 1009.27 130.67C1009 130.671 1008.75 130.571 1008.56 130.39C1008.37 130.208 1008.26 129.961 1008.25 129.701C1008.25 129.572 1008.28 129.445 1008.33 129.326C1008.38 129.207 1008.45 129.099 1008.54 129.008C1008.64 128.917 1008.75 128.846 1008.87 128.797C1008.99 128.749 1009.12 128.725 1009.25 128.727ZM1008.14 145.566C1008.14 145.438 1008.16 145.31 1008.21 145.19C1008.26 145.071 1008.33 144.962 1008.43 144.87C1008.52 144.778 1008.63 144.706 1008.75 144.656C1008.87 144.606 1009 144.581 1009.13 144.581C1009.4 144.581 1009.65 144.683 1009.84 144.865C1010.03 145.046 1010.14 145.294 1010.15 145.554C1010.13 145.804 1010.02 146.041 1009.84 146.22C1009.66 146.398 1009.42 146.507 1009.17 146.525C1008.9 146.528 1008.65 146.429 1008.46 146.25C1008.26 146.071 1008.15 145.826 1008.14 145.566V145.566ZM1014.7 117.061C1014.7 117.191 1014.68 117.319 1014.63 117.439C1014.57 117.558 1014.5 117.667 1014.4 117.757C1014.31 117.848 1014.2 117.919 1014.07 117.966C1013.95 118.014 1013.82 118.037 1013.69 118.034C1013.55 118.031 1013.42 118.003 1013.3 117.95C1013.18 117.897 1013.07 117.822 1012.98 117.727C1012.89 117.633 1012.82 117.522 1012.77 117.4C1012.73 117.279 1012.71 117.149 1012.71 117.019C1012.72 116.763 1012.83 116.521 1013.02 116.344C1013.21 116.168 1013.47 116.073 1013.73 116.078C1013.99 116.084 1014.24 116.19 1014.42 116.374C1014.6 116.558 1014.71 116.805 1014.7 117.061Z" fill="#F2BE36"/>
<path d="M1023.49 127.584C1023.44 126.653 1022.95 125.909 1022 125.523C1021.05 125.137 1020.14 125.291 1019.39 125.989C1018.64 126.687 1018.44 127.552 1018.78 128.511C1018.87 128.752 1018.86 128.9 1018.66 129.076C1018.28 129.411 1017.93 129.77 1017.57 130.131C1017.24 130.475 1017.22 130.889 1017.51 131.172C1017.8 131.461 1018.22 131.457 1018.57 131.133C1018.93 130.804 1019.28 130.462 1019.62 130.107C1019.81 129.901 1019.98 129.843 1020.27 129.948C1021.86 130.513 1023.53 129.324 1023.49 127.584ZM1022.05 127.716C1022.05 127.845 1022.03 127.972 1021.98 128.091C1021.92 128.209 1021.85 128.317 1021.76 128.406C1021.66 128.496 1021.55 128.566 1021.43 128.613C1021.31 128.66 1021.18 128.682 1021.04 128.678C1020.91 128.679 1020.79 128.654 1020.66 128.606C1020.54 128.557 1020.43 128.486 1020.34 128.395C1020.25 128.305 1020.18 128.198 1020.13 128.08C1020.08 127.962 1020.05 127.835 1020.05 127.707C1020.05 127.58 1020.08 127.453 1020.13 127.336C1020.18 127.218 1020.26 127.111 1020.35 127.022C1020.44 126.932 1020.55 126.862 1020.67 126.814C1020.79 126.767 1020.92 126.743 1021.05 126.745C1021.18 126.743 1021.31 126.766 1021.44 126.814C1021.56 126.862 1021.67 126.933 1021.76 127.024C1021.85 127.115 1021.93 127.222 1021.98 127.341C1022.03 127.46 1022.05 127.588 1022.05 127.716Z" fill="#F2BE36"/>
<path d="M986.737 131.067C986.127 131.041 985.816 131.219 985.768 131.652C985.723 132.047 985.892 132.323 986.298 132.413C986.622 132.485 986.961 132.498 987.278 132.589C988.654 132.981 989.548 134.263 989.4 135.598C989.337 136.279 989.029 136.917 988.53 137.396C988.031 137.875 987.374 138.163 986.678 138.21C986.352 138.236 986.039 138.275 985.851 138.583C985.561 139.058 985.902 139.61 986.493 139.627C988.445 139.684 990.407 138.11 990.761 136.206C991.2 133.838 989.746 131.679 987.351 131.147C987.15 131.102 986.941 131.093 986.737 131.067Z" fill="#F2BE36"/>
<path d="M984.916 118.382C985.023 120.168 986.474 121.645 988.299 121.698C990.384 121.758 992.471 121.726 994.557 121.725C995.089 121.725 995.39 121.455 995.388 121.027C995.385 120.609 995.074 120.328 994.548 120.324C993.098 120.313 991.649 120.32 990.2 120.319C989.627 120.319 989.053 120.331 988.48 120.31C987.33 120.267 986.484 119.482 986.349 118.363C986.316 118.086 986.298 117.796 986.04 117.607C985.934 117.523 985.804 117.473 985.669 117.461C985.533 117.45 985.396 117.478 985.277 117.543C984.92 117.718 984.871 118.034 984.916 118.382Z" fill="#F2BE36"/>
<path d="M1022.5 116.906C1021.86 116.921 1021.25 117.185 1020.81 117.64C1020.36 118.094 1020.12 118.703 1020.13 119.333C1020.16 120.634 1021.3 121.706 1022.61 121.667C1022.93 121.661 1023.24 121.594 1023.54 121.468C1023.83 121.343 1024.1 121.162 1024.32 120.936C1024.54 120.71 1024.71 120.443 1024.83 120.151C1024.94 119.859 1025 119.547 1024.99 119.234C1024.99 118.921 1024.92 118.612 1024.79 118.325C1024.66 118.038 1024.47 117.779 1024.24 117.563C1024.01 117.347 1023.74 117.177 1023.44 117.065C1023.14 116.952 1022.82 116.898 1022.5 116.906ZM1022.56 118.313C1022.69 118.311 1022.82 118.334 1022.94 118.382C1023.06 118.429 1023.17 118.5 1023.27 118.59C1023.36 118.68 1023.43 118.787 1023.49 118.906C1023.54 119.024 1023.56 119.151 1023.57 119.28C1023.56 119.54 1023.45 119.788 1023.26 119.97C1023.07 120.153 1022.82 120.256 1022.56 120.257C1022.3 120.246 1022.06 120.143 1021.87 119.967C1021.69 119.792 1021.58 119.556 1021.56 119.305C1021.56 119.045 1021.67 118.796 1021.85 118.611C1022.04 118.425 1022.29 118.318 1022.56 118.313Z" fill="#F2BE36"/>
<path d="M1022.61 137.281C1022.61 136.807 1022.47 136.343 1022.2 135.948C1021.93 135.553 1021.55 135.245 1021.1 135.063C1020.66 134.881 1020.17 134.833 1019.69 134.925C1019.22 135.017 1018.78 135.246 1018.44 135.581C1018.1 135.917 1017.87 136.344 1017.77 136.81C1017.68 137.275 1017.73 137.757 1017.92 138.194C1018.1 138.632 1018.42 139.005 1018.82 139.267C1019.22 139.528 1019.7 139.667 1020.18 139.664C1020.82 139.662 1021.44 139.411 1021.89 138.964C1022.35 138.518 1022.6 137.912 1022.61 137.281ZM1020.16 136.311C1020.29 136.308 1020.42 136.331 1020.54 136.379C1020.66 136.426 1020.78 136.497 1020.87 136.587C1020.96 136.678 1021.04 136.785 1021.09 136.904C1021.14 137.024 1021.17 137.151 1021.17 137.281C1021.17 137.41 1021.14 137.538 1021.09 137.657C1021.04 137.776 1020.96 137.884 1020.87 137.974C1020.78 138.064 1020.66 138.135 1020.54 138.183C1020.42 138.23 1020.29 138.253 1020.16 138.251C1020.03 138.251 1019.9 138.226 1019.78 138.177C1019.66 138.128 1019.55 138.057 1019.46 137.967C1019.37 137.877 1019.29 137.77 1019.24 137.652C1019.19 137.535 1019.17 137.409 1019.17 137.281C1019.17 137.154 1019.19 137.028 1019.24 136.91C1019.29 136.792 1019.37 136.686 1019.46 136.595C1019.55 136.505 1019.66 136.434 1019.78 136.385C1019.9 136.336 1020.03 136.311 1020.16 136.311Z" fill="#F2BE36"/>
<path d="M1019.44 114.312C1020.09 114.316 1020.7 114.07 1021.16 113.628C1021.62 113.185 1021.88 112.583 1021.89 111.952C1021.89 111.638 1021.83 111.326 1021.7 111.035C1021.58 110.745 1021.4 110.48 1021.18 110.257C1020.95 110.034 1020.68 109.857 1020.39 109.737C1020.09 109.616 1019.77 109.553 1019.45 109.552C1019.13 109.552 1018.81 109.613 1018.52 109.733C1018.22 109.853 1017.95 110.028 1017.72 110.25C1017.5 110.472 1017.32 110.736 1017.19 111.026C1017.07 111.317 1017 111.628 1017 111.943C1017.01 112.573 1017.27 113.176 1017.73 113.62C1018.18 114.064 1018.8 114.313 1019.44 114.312ZM1019.46 112.902C1019.33 112.904 1019.2 112.882 1019.08 112.835C1018.96 112.788 1018.85 112.718 1018.75 112.628C1018.66 112.539 1018.58 112.432 1018.53 112.313C1018.48 112.195 1018.45 112.068 1018.45 111.939C1018.45 111.683 1018.55 111.437 1018.74 111.255C1018.92 111.072 1019.17 110.968 1019.43 110.964C1019.69 110.96 1019.95 111.057 1020.14 111.233C1020.33 111.41 1020.44 111.652 1020.45 111.908C1020.45 112.037 1020.43 112.165 1020.38 112.285C1020.33 112.404 1020.26 112.514 1020.17 112.606C1020.08 112.698 1019.97 112.772 1019.85 112.823C1019.72 112.874 1019.59 112.9 1019.46 112.902Z" fill="#F2BE36"/>
<path d="M995.336 115.109C995.247 113.15 993.762 111.683 991.858 111.61C991.421 111.593 991.088 111.85 991.047 112.235C991.006 112.628 991.258 112.944 991.708 112.993C992.381 113.066 992.978 113.263 993.417 113.8C993.637 114.068 993.786 114.386 993.85 114.724C993.914 115.062 993.891 115.41 993.784 115.738C993.677 116.065 993.488 116.361 993.236 116.6C992.983 116.838 992.674 117.011 992.336 117.104C992.123 117.161 991.897 117.172 991.678 117.209C991.265 117.281 991.015 117.577 991.046 117.956C991.063 118.136 991.15 118.304 991.289 118.424C991.427 118.545 991.607 118.609 991.792 118.604C993.408 118.652 995.049 117.277 995.264 115.692C995.293 115.477 995.317 115.26 995.336 115.109Z" fill="#F2BE36"/>
<path d="M1002.24 132.067C1002.23 130.421 1000.86 129.038 999.2 129.011C998.728 129.003 998.433 129.227 998.395 129.624C998.356 130.034 998.58 130.299 999.05 130.394C999.254 130.421 999.456 130.46 999.654 130.511C1000.02 130.63 1000.33 130.867 1000.54 131.185C1000.75 131.503 1000.84 131.881 1000.8 132.256C1000.76 132.623 1000.59 132.966 1000.33 133.232C1000.07 133.498 999.729 133.672 999.357 133.727C999.247 133.744 999.136 133.757 999.027 133.78C998.561 133.877 998.346 134.146 998.398 134.561C998.446 134.937 998.735 135.157 999.178 135.152C1000.86 135.134 1002.25 133.73 1002.24 132.067Z" fill="#F2BE36"/>
<path d="M991.318 129.663C991.206 129.663 991.095 129.657 990.984 129.664C990.814 129.662 990.649 129.726 990.527 129.842C990.404 129.958 990.333 130.117 990.329 130.284C990.293 130.648 990.47 130.928 990.855 131.007C991.412 131.121 991.994 131.115 992.521 131.365C993.767 131.957 994.534 132.897 994.717 134.263C994.738 134.418 994.754 134.573 994.777 134.727C994.838 135.136 995.13 135.406 995.499 135.398C995.596 135.396 995.69 135.374 995.778 135.335C995.866 135.296 995.945 135.24 996.01 135.171C996.075 135.102 996.126 135.02 996.159 134.931C996.191 134.842 996.206 134.748 996.201 134.654C996.21 133.87 996.014 133.097 995.631 132.409C994.692 130.751 993.263 129.813 991.318 129.663Z" fill="#F2BE36"/>
<path d="M986.551 125.545C985.781 125.514 984.866 125.545 984.028 126.027C982.802 126.729 982.177 127.787 982.076 129.157C982.064 129.251 982.071 129.346 982.097 129.437C982.123 129.527 982.167 129.612 982.226 129.687C982.285 129.761 982.359 129.823 982.443 129.869C982.526 129.915 982.619 129.945 982.714 129.956C983.119 130.002 983.435 129.72 983.5 129.255C983.721 127.683 984.571 126.955 986.19 126.952C986.668 126.952 987.146 126.952 987.624 126.952C987.72 126.952 987.815 126.958 987.91 126.948C988.355 126.904 988.654 126.617 988.653 126.239C988.653 125.838 988.34 125.559 987.859 125.547C987.477 125.537 987.094 125.545 986.551 125.545Z" fill="#F2BE36"/>
<path d="M993.888 146.019C994.478 146.034 994.777 145.828 994.812 145.384C994.846 144.945 994.564 144.684 993.991 144.624C993.975 144.622 993.96 144.622 993.943 144.621C992.985 144.531 992.475 144.082 992.293 143.172C992.194 142.673 991.869 142.391 991.468 142.457C991.025 142.53 990.796 142.902 990.881 143.413C991.134 144.932 992.34 145.979 993.888 146.019Z" fill="#F2BE36"/>
<path d="M999.056 121.725C999.533 121.725 1000.01 121.737 1000.49 121.722C1000.95 121.706 1001.24 121.433 1001.23 121.04C1001.22 120.619 1000.96 120.35 1000.55 120.338C999.55 120.309 998.549 120.308 997.547 120.336C997.451 120.333 997.355 120.35 997.266 120.387C997.177 120.424 997.097 120.479 997.031 120.548C996.966 120.618 996.916 120.7 996.886 120.79C996.855 120.88 996.845 120.976 996.855 121.07C996.876 121.47 997.146 121.711 997.625 121.724C998.102 121.737 998.579 121.727 999.056 121.727V121.725Z" fill="#F2BE36"/>
</svg>
