<svg width="100" height="33" viewBox="0 0 100 33" fill="none" xmlns="http://www.w3.org/2000/svg">
<path d="M8.03476 25.4635C8.03476 26.4061 8.15834 27.1407 8.40559 27.6674C8.65284 28.1941 8.99622 28.5962 9.43571 28.8733C9.90267 29.1506 10.4108 29.3307 10.9603 29.4139C11.5371 29.4694 12.1414 29.4971 12.7732 29.4971V32.5742C12.4161 32.6296 12.059 32.6712 11.7019 32.6989C11.3997 32.7266 11.0289 32.7405 10.5894 32.7405C10.1774 32.7683 9.76535 32.7821 9.35332 32.7821C8.94121 32.7821 8.51545 32.7683 8.07595 32.7405C7.66392 32.7128 7.30682 32.6712 7.00466 32.6158C6.07071 32.4495 5.34277 32.0475 4.82086 31.4099C4.29894 30.7445 3.90063 30.0238 3.62594 29.2476C3.37872 28.4436 3.2139 27.6674 3.1315 26.9189C3.07656 26.1705 3.04909 25.5883 3.04909 25.1725V12.5313H0V9.12155H3.04909V2.46835H8.03476V9.12155H11.7431V12.5313H8.03476V25.4635ZM22.6622 25.5051C22.6622 26.7526 22.9093 27.6813 23.4038 28.2912C23.9257 28.901 24.6674 29.2614 25.6288 29.3724V32.7405C25.5189 32.7683 25.3404 32.7821 25.0931 32.7821C24.1592 32.7821 23.2527 32.6573 22.3737 32.4079C21.5222 32.1584 20.7668 31.7564 20.1075 31.2019C19.4482 30.6475 18.9263 29.9129 18.5418 28.9981C18.1847 28.0833 18.0061 26.9605 18.0061 25.6299C18.0061 24.3547 18.267 23.2597 18.789 22.3449C19.3384 21.4023 20.0251 20.64 20.8492 20.0578C21.7007 19.4479 22.6622 19.0044 23.7335 18.7272C24.8048 18.4222 25.8897 18.2697 26.9885 18.2697H28.8015V21.2221H27.8951C27.3456 21.2221 26.7688 21.2775 26.1645 21.3885C25.5602 21.4994 24.997 21.7072 24.4751 22.0122C23.9532 22.3171 23.5137 22.7607 23.1566 23.3429C22.8269 23.8973 22.6622 24.618 22.6622 25.5051ZM35.4766 25.6299C35.4766 25.8516 35.4903 26.1843 35.5178 26.6278C35.5452 27.0437 35.6002 27.4734 35.6825 27.917C35.765 28.3605 35.8886 28.7625 36.0534 29.1228C36.2457 29.4832 36.493 29.7188 36.7951 29.8298L35.4766 32.6158C35.1195 32.6158 34.7349 32.5326 34.3229 32.3662C33.9383 32.1999 33.5537 31.9643 33.1692 31.6594C32.812 31.3545 32.4961 31.0218 32.2214 30.6614C31.9743 30.2733 31.7819 29.8575 31.6446 29.4139C31.3699 30.107 30.8206 30.7307 29.9964 31.2852C29.1998 31.8118 28.3071 32.1999 27.3182 32.4495V29.2891C27.9774 29.1506 28.5681 28.8872 29.09 28.4991C29.6393 28.0833 30.1063 27.5981 30.4909 27.0437V18.2697C30.4909 16.9114 30.4222 15.8302 30.2849 15.0263C30.1475 14.2224 29.914 13.6402 29.5844 13.2798C29.2547 12.8917 28.8427 12.6561 28.3483 12.5729C27.8813 12.462 27.3182 12.4066 26.6589 12.4066C26.0546 12.4066 25.4777 12.4898 24.9284 12.6561C24.4064 12.7947 23.912 12.9749 23.445 13.1967C23.0055 13.3908 22.6072 13.6125 22.2501 13.862C21.9205 14.1115 21.6732 14.3056 21.5084 14.4441L19.6543 11.575C19.929 11.27 20.341 10.9651 20.8904 10.6601C21.4398 10.3274 22.0715 10.0364 22.7857 9.78689C23.4999 9.53737 24.2691 9.34336 25.0931 9.20477C25.9448 9.0384 26.8237 8.95525 27.7302 8.95525C28.5543 8.95525 29.3509 9.0384 30.1201 9.20477C30.9167 9.37107 31.6309 9.64831 32.2626 10.0364C32.9219 10.4245 33.4851 10.9512 33.952 11.6165C34.4464 12.2542 34.7898 13.0581 34.9821 14.0283C35.1744 14.9986 35.298 15.9827 35.353 16.9807C35.4354 17.951 35.4766 18.9212 35.4766 19.8915V25.2972V25.6299ZM47.7965 9.12155L48.3322 11.4918V32.5742H43.3465V9.12155H47.7965ZM60.6522 11.6997C61.1191 12.1709 61.4762 12.7254 61.7235 13.363C61.9981 13.9729 62.1904 14.6244 62.3003 15.3174C62.4376 15.9827 62.5201 16.6619 62.5475 17.3549C62.575 18.048 62.5887 18.7272 62.5887 19.3925V31.7426V32.5742H57.5618V19.8083C57.5618 18.8658 57.5206 17.9649 57.4382 17.1054C57.3558 16.2461 57.1635 15.4837 56.8614 14.8184C56.5592 14.1531 56.1472 13.6402 55.6252 13.2798C55.1033 12.8917 54.3754 12.6977 53.4415 12.6977C53.0569 12.6977 52.535 12.767 51.8757 12.9056C51.2439 13.0165 50.6258 13.2105 50.0215 13.4878V10.2859C50.7632 9.89776 51.5598 9.56509 52.4114 9.28792C53.2904 9.01068 54.1419 8.8721 54.966 8.8721C56.2021 8.8721 57.246 9.13541 58.0975 9.66217C58.949 10.1611 59.8005 10.8403 60.6522 11.6997ZM89.705 33C86.2175 33 83.6438 31.5381 81.9837 28.6142C80.3527 25.6903 79.5365 21.6594 79.5365 16.5213C79.5365 13.0581 79.874 10.0916 80.5491 7.62194C81.2242 5.15226 82.3074 3.26451 83.798 1.95871C85.3169 0.652902 87.2862 0 89.705 0C93.2215 0 95.8091 1.44774 97.4684 4.34323C99.1561 7.2103 100 11.2697 100 16.5213C100 19.9562 99.6487 22.9084 98.9452 25.3781C98.2701 27.8193 97.1731 29.7071 95.6541 31.0413C94.1636 32.3471 92.1805 33 89.705 33ZM83.2916 14.6052H96.2026C96.0623 10.7445 95.4854 7.87742 94.4727 6.00387C93.4601 4.10193 91.8714 3.15097 89.705 3.15097C87.5677 3.15097 85.992 4.10193 84.9794 6.00387C83.9951 7.87742 83.4328 10.7445 83.2916 14.6052ZM89.705 29.8916C91.899 29.8916 93.5169 28.9264 94.5571 26.9961C95.5981 25.0374 96.1604 21.8723 96.2448 17.5006H83.2916C83.3484 21.8439 83.8685 24.9948 84.8528 26.9536C85.8654 28.9123 87.4833 29.8916 89.705 29.8916Z" fill="#410EAD"/>
</svg>
