<svg width="137" height="148" viewBox="0 0 137 148" fill="none" xmlns="http://www.w3.org/2000/svg">
<path d="M1.44995 68.66V146.81" stroke="#410EAD" stroke-width="2" stroke-linecap="round" stroke-linejoin="round"/>
<path d="M79.5899 68.6601H1.44995L37.2799 48.3301H115.42L79.5899 68.6601Z" stroke="#410EAD" stroke-width="2" stroke-linecap="round" stroke-linejoin="round"/>
<path d="M115.42 126.48L79.5899 146.81H1.44995" stroke="#410EAD" stroke-width="2" stroke-linecap="round" stroke-linejoin="round"/>
<path d="M1.44995 146.81L37.2799 126.48H115.42" stroke="#410EAD" stroke-width="2" stroke-linecap="round" stroke-linejoin="round" stroke-dasharray="3 4"/>
<path d="M79.5901 68.66V146.81" stroke="#410EAD" stroke-width="2" stroke-linecap="round" stroke-linejoin="round"/>
<path d="M115.42 48.3301V126.48" stroke="#410EAD" stroke-width="2" stroke-linecap="round" stroke-linejoin="round"/>
<path d="M37.28 48.3301V126.48" stroke="#410EAD" stroke-width="2" stroke-linecap="round" stroke-linejoin="round" stroke-dasharray="3 4"/>
<path d="M133.448 79.0521C134.051 80.2319 134.352 81.2987 134.352 82.2526C134.327 82.604 134.289 82.968 134.239 83.3445C134.189 83.6959 134.076 84.0473 133.9 84.3987L133.072 86.1684L131.905 87.4109C131.051 88.2142 130.248 88.7538 129.495 89.03C128.742 89.281 128.114 89.4065 127.612 89.4065C126.96 89.4065 126.244 89.168 125.466 88.6911C125.24 89.0927 124.876 89.2935 124.374 89.2935C123.998 89.2935 123.609 89.1806 123.207 88.9547C123.232 88.6032 123.245 88.2142 123.245 87.7874C123.27 87.3356 123.282 86.8461 123.282 86.319C123.257 86.2688 123.232 86.0805 123.207 85.7542C123.182 85.4028 123.144 84.9886 123.094 84.5117C123.069 84.0348 123.031 83.5327 122.981 83.0056C122.931 82.4534 122.881 81.9513 122.831 81.4995C122.78 81.0226 122.73 80.621 122.68 80.2947C122.63 79.9432 122.592 79.7424 122.567 79.6922L122.04 75.2116C121.914 74.1322 121.751 73.2035 121.55 72.4253C121.35 71.6472 121.249 71.0824 121.249 70.731C121.249 69.8022 121.651 69.3379 122.454 69.3379C122.956 69.3379 123.345 69.5261 123.621 69.9027C123.922 70.2792 124.136 71.0322 124.261 72.1618C124.311 72.7391 124.374 73.2286 124.45 73.6302C124.525 74.0067 124.588 74.308 124.638 74.5339V74.6468C124.638 74.7221 124.65 74.9857 124.675 75.4375C124.726 75.8893 124.763 76.3663 124.788 76.8683C124.839 77.3452 124.876 77.7845 124.901 78.1861C124.952 78.5627 124.977 78.7258 124.977 78.6756C125.529 78.274 126.006 77.9602 126.407 77.7343C126.834 77.4833 127.236 77.3076 127.612 77.2072C128.014 77.0817 128.416 77.0064 128.817 76.9813C129.219 76.9311 129.696 76.906 130.248 76.906L131.754 77.3954C132.507 77.772 133.072 78.3242 133.448 79.0521ZM131.641 83.5704C131.792 82.8173 131.867 82.2651 131.867 81.9137C131.867 81.738 131.817 81.4995 131.716 81.1983C131.616 80.872 131.465 80.5708 131.265 80.2947C131.064 79.9934 130.813 79.7424 130.512 79.5416C130.21 79.3157 129.859 79.2027 129.457 79.2027C129.005 79.2027 128.403 79.4036 127.65 79.8052C126.922 80.1817 126.194 80.5833 125.466 81.01C125.592 82.1145 125.705 83.6708 125.805 85.6789C126.106 86.6328 126.608 87.1097 127.311 87.1097C127.738 87.1097 128.365 86.934 129.194 86.5826L130.7 85.2647C131.227 84.7125 131.541 84.1477 131.641 83.5704Z" fill="#410EAD"/>
<path d="M84.5958 29.2348C84.9472 29.4607 85.1229 29.7368 85.1229 30.0631C85.1229 30.4146 84.9472 30.7534 84.5958 31.0797C84.2444 31.4061 83.9055 31.5692 83.5792 31.5692C82.8011 31.2931 82.1233 30.7785 81.546 30.0255C80.9938 29.2724 80.6172 28.4566 80.4164 27.5781C80.2407 27.9546 80.0274 28.4315 79.7763 29.0089C79.5504 29.5611 79.2492 30.0882 78.8727 30.5903C78.4962 31.0923 78.0318 31.5316 77.4796 31.9081C76.9273 32.2595 76.237 32.4352 75.4087 32.4352C74.982 32.4352 74.4172 32.3599 73.7143 32.2093C72.9362 31.6571 72.3212 31.2178 71.8694 30.8915C71.4427 30.5401 71.1163 30.2137 70.8904 29.9125C70.6645 29.6113 70.5265 29.2724 70.4763 28.8959C70.426 28.5194 70.4009 28.0174 70.4009 27.3898C70.4009 26.8627 70.4763 26.2854 70.6269 25.6578C70.8026 25.0052 71.041 24.3526 71.3423 23.6999C71.6435 23.0473 72.02 22.4072 72.4718 21.7797C72.9236 21.1521 73.4508 20.5748 74.0532 20.0477C75.1577 19.6711 76.0237 19.395 76.6512 19.2193C77.2787 19.0436 77.7055 18.9557 77.9314 18.9557C78.4334 18.3784 78.9605 18.0897 79.5128 18.0897C79.814 18.0897 80.0776 18.2655 80.3035 18.6169C80.5294 18.9683 80.7302 19.4327 80.9059 20.01C81.1067 20.5622 81.2573 21.1772 81.3577 21.855C81.4832 22.5327 81.5836 23.1853 81.6589 23.8129C81.7343 23.9384 81.797 24.089 81.8472 24.2647C81.8974 24.4153 81.9476 24.6161 81.9978 24.8671L82.2237 25.9214C82.3743 26.6493 82.663 27.2769 83.0897 27.804C83.5165 28.3311 84.0185 28.8081 84.5958 29.2348ZM79.2869 24.2647C79.2367 24.0388 79.1488 23.6623 79.0233 23.1351C78.8978 22.608 78.7346 21.9303 78.5338 21.1019C78.2326 21.1772 77.9063 21.2149 77.5549 21.2149C77.2034 21.1898 76.8269 21.2525 76.4253 21.4031C76.0237 21.5537 75.5844 21.8299 75.1075 22.2315C74.6556 22.6331 74.1913 23.2606 73.7143 24.1141C73.1119 25.2186 72.8107 26.3858 72.8107 27.6157C72.9613 27.9421 73.0994 28.2307 73.2249 28.4817C73.3504 28.7077 73.501 28.921 73.6767 29.1218C73.8775 29.2975 74.116 29.4732 74.3921 29.649C74.6682 29.8247 75.0196 30.0129 75.4463 30.2137C75.8229 30.1384 76.1366 30.0506 76.3876 29.9502C76.6638 29.8498 76.9022 29.6992 77.103 29.4983C77.3038 29.2724 77.4921 28.9963 77.6678 28.67C77.8435 28.3437 78.0569 27.917 78.3079 27.3898C78.9605 25.9339 79.2869 24.8922 79.2869 24.2647Z" fill="#410EAD"/>
</svg>
